<svg width="41" height="40" viewBox="0 0 41 40" fill="none" xmlns="http://www.w3.org/2000/svg">
<mask id="mask0_3712_81634" style="mask-type:luminance" maskUnits="userSpaceOnUse" x="12" y="1" width="19" height="38">
<path fill-rule="evenodd" clip-rule="evenodd" d="M28.2503 10.0013V29.168C28.2503 32.8513 25.267 35.8346 21.5837 35.8346C17.9003 35.8346 14.917 32.8513 14.917 29.168V8.33463C14.917 6.03464 16.7837 4.16797 19.0837 4.16797C21.3837 4.16797 23.2503 6.03464 23.2503 8.33463V25.8346C23.2503 26.7513 22.5003 27.5013 21.5837 27.5013C20.667 27.5013 19.917 26.7513 19.917 25.8346V10.0013H17.417V25.8346C17.417 28.1346 19.2837 30.0013 21.5837 30.0013C23.8837 30.0013 25.7503 28.1346 25.7503 25.8346V8.33463C25.7503 4.6513 22.767 1.66797 19.0837 1.66797C15.4003 1.66797 12.417 4.6513 12.417 8.33463V29.168C12.417 34.2346 16.517 38.3346 21.5837 38.3346C26.6503 38.3346 30.7503 34.2346 30.7503 29.168V10.0013H28.2503Z" fill="white"/>
</mask>
<g mask="url(#mask0_3712_81634)">
<rect x="-20.917" y="-21.668" width="83.3333" height="83.3333" fill="#B83A3A"/>
<mask id="mask1_3712_81634" style="mask-type:luminance" maskUnits="userSpaceOnUse" x="-21" y="-22" width="84" height="84">
<rect x="-20.917" y="-21.668" width="83.3333" height="83.3333" fill="white"/>
</mask>
<g mask="url(#mask1_3712_81634)">
</g>
</g>
</svg>
