<svg width="58" height="64" viewBox="0 0 58 64" fill="none" xmlns="http://www.w3.org/2000/svg">
<g opacity="0.4">
<mask id="mask0_1112_93515" style="mask-type:alpha" maskUnits="userSpaceOnUse" x="0" y="0" width="64" height="64">
<path fill-rule="evenodd" clip-rule="evenodd" d="M56.8889 0H7.11111C3.16444 0 0 3.2 0 7.11111V56.8889C0 60.8 3.16444 64 7.11111 64H56.8889C60.8356 64 64 60.8 64 56.8889V7.11111C64 3.2 60.8356 0 56.8889 0ZM27.3645 24.1818C27.3645 16.3688 33.7336 10 41.547 10C44.5109 10 47.2733 10.9003 49.5588 12.4716C50.3465 12.9158 50.6165 14.075 50.1062 14.8215C49.5959 15.568 48.4177 15.7374 47.7178 15.1648C45.9656 13.9601 43.8535 13.2727 41.547 13.2727C35.5024 13.2727 30.6374 18.1375 30.6374 24.1818C30.6374 30.2261 35.5024 35.0909 41.547 35.0909C47.5916 35.0909 52.4567 30.2261 52.4567 24.1818C52.4567 21.8896 51.7615 19.7599 50.5645 18.0114C49.9919 17.3115 50.1613 16.1333 50.9078 15.623C51.6543 15.1128 52.8137 15.3828 53.2578 16.1705C54.8191 18.4512 55.7296 21.2225 55.7296 24.1818C55.7296 28.8381 53.466 32.981 49.985 35.5682L58.7468 49.4773C59.2293 50.2 58.9971 51.3007 58.2637 51.767C57.5303 52.2332 56.4351 51.9765 55.9853 51.2329L47.1553 37.2045C45.4332 37.9502 43.5386 38.3636 41.547 38.3636C33.7336 38.3636 27.3645 31.9949 27.3645 24.1818ZM16.4549 13.2727C16.4506 12.4699 17.1223 11.7201 17.9208 11.6364H28.4554C29.32 11.6241 30.1152 12.4081 30.1152 13.2727C30.1152 14.1373 29.32 14.9213 28.4554 14.9091H19.7277V47.6364H44.2744V40C44.2622 39.1355 45.0462 38.3403 45.9108 38.3403C46.7755 38.3403 47.5595 39.1355 47.5473 40V49.2727C47.5472 50.1295 46.7677 50.909 45.9108 50.9091H42.0925V54.1818C42.0924 55.0386 41.3128 55.8181 40.456 55.8182H12.6365C11.7797 55.8181 11.0001 55.0386 11.0001 54.1818V18.1818C10.9958 17.379 11.6675 16.6291 12.466 16.5455H16.4549V13.2727ZM41.547 14.9091C36.445 14.9091 32.2738 19.08 32.2738 24.1818C32.2738 29.2836 36.445 33.4545 41.547 33.4545C46.6491 33.4545 50.8202 29.2836 50.8202 24.1818C50.8202 19.08 46.6491 14.9091 41.547 14.9091ZM47.5473 24.1818C47.5473 20.8487 44.8803 18.1818 41.547 18.1818C39.6636 18.1818 37.992 19.0201 36.8934 20.3636L38.4278 20.3637C40.7327 20.3637 43.0251 20.3638 43.1835 20.3636C44.048 20.3514 44.8432 21.1354 44.8432 22C44.8432 22.8646 44.048 23.6486 43.1835 23.6364C42.9791 23.6365 40.391 23.6365 37.8784 23.6364L35.5638 23.6364C35.5476 23.8171 35.5467 23.9966 35.5467 24.1818C35.5467 24.557 35.5842 24.9172 35.649 25.2727C39.0025 25.2729 41.5899 25.2621 42.6643 25.2576C42.9453 25.2564 43.1228 25.2557 43.1835 25.2557C44.048 25.2435 44.8432 26.0275 44.8432 26.8921C44.8432 27.7567 44.048 28.5406 43.1835 28.5284C43.1323 28.5284 42.8641 28.5294 42.4472 28.5308H42.4471H42.4464C41.3706 28.5346 39.3053 28.5419 37.4218 28.5454C38.4958 29.5597 39.9424 30.1818 41.547 30.1818C44.8803 30.1818 47.5473 27.5149 47.5473 24.1818ZM16.4548 49.2727C16.4549 50.1295 17.2345 50.909 18.0913 50.9091H38.8196V52.5455H14.2729V19.8182H16.4548V49.2727ZM21.2787 22.0852C21.234 21.2283 21.9732 20.4081 22.8302 20.3636C23.329 20.3633 23.8485 20.3634 24.3651 20.3635L25.1825 20.3636C26.0471 20.3514 26.8423 21.1354 26.8423 22C26.8423 22.8646 26.0471 23.6486 25.1825 23.6364C25.1825 23.6364 23.5428 23.6358 23.0006 23.6364C22.1437 23.6811 21.3233 22.9421 21.2787 22.0852ZM23.0006 25.2557C22.1361 25.2435 21.3409 26.0274 21.3409 26.892C21.3409 27.7566 22.1361 28.5406 23.0006 28.5284C23.2528 28.5292 23.6161 28.5328 23.9883 28.5365L23.9898 28.5365C24.432 28.5409 24.8866 28.5454 25.1826 28.5454C26.0471 28.5576 26.8423 27.7737 26.8423 26.9091C26.8423 26.0445 26.0471 25.2605 25.1826 25.2727C24.9226 25.2727 24.5372 25.2692 24.1467 25.2653C24.0909 25.2648 24.035 25.2642 23.9793 25.2637H23.9792L23.9787 25.2637L23.9784 25.2637H23.9783L23.9775 25.2637C23.606 25.26 23.2456 25.2564 23.0006 25.2557ZM21.2787 31.9034C21.234 31.0465 21.9732 30.2263 22.8302 30.1818H26.819C27.6836 30.1696 28.4788 30.9536 28.4788 31.8182C28.4788 32.6828 27.6836 33.4665 26.819 33.4545H23.0006C22.1437 33.4993 21.3233 32.7603 21.2787 31.9034Z" fill="white"/>
</mask>
<g mask="url(#mask0_1112_93515)">
<rect width="64" height="64" fill="white"/>
<mask id="mask1_1112_93515" style="mask-type:alpha" maskUnits="userSpaceOnUse" x="0" y="0" width="64" height="64">
<rect opacity="0.4" width="64" height="64" fill="white"/>
</mask>
<g mask="url(#mask1_1112_93515)">
</g>
</g>
</g>
</svg>
