<svg width="24" height="24" viewBox="0 0 24 24" fill="none" xmlns="http://www.w3.org/2000/svg">
<path fill-rule="evenodd" clip-rule="evenodd" d="M9.13668 8.31818C9.13668 5.3883 11.5251 3 14.4551 3C15.5666 3 16.6025 3.33762 17.4595 3.92685C17.7549 4.09341 17.8562 4.52814 17.6648 4.80807C17.4735 5.08801 17.0316 5.15151 16.7692 4.93679C16.1121 4.48505 15.32 4.22727 14.4551 4.22727C12.1884 4.22727 10.364 6.05157 10.364 8.31818C10.364 10.5848 12.1884 12.4091 14.4551 12.4091C16.7219 12.4091 18.5462 10.5848 18.5462 8.31818C18.5462 7.45858 18.2855 6.65995 17.8367 6.00426C17.622 5.74182 17.6855 5.29999 17.9654 5.10864C18.2454 4.91729 18.6801 5.01856 18.8467 5.31392C19.4322 6.16921 19.7736 7.20845 19.7736 8.31818C19.7736 10.0643 18.9247 11.6179 17.6193 12.5881L20.905 17.804C21.086 18.075 20.9989 18.4878 20.7239 18.6626C20.4488 18.8375 20.0381 18.7412 19.8695 18.4623L16.5582 13.2017C15.9125 13.4813 15.2019 13.6364 14.4551 13.6364C11.5251 13.6364 9.13668 11.2481 9.13668 8.31818ZM5.04556 4.22727C5.04395 3.92621 5.29587 3.64502 5.59531 3.61364H9.54579C9.87 3.60905 10.1682 3.90305 10.1682 4.22727C10.1682 4.5515 9.87 4.84549 9.54579 4.84091H6.2729V17.1136H15.4779V14.25C15.4733 13.9258 15.7673 13.6276 16.0916 13.6276C16.4158 13.6276 16.7098 13.9258 16.7052 14.25V17.7273C16.7052 18.0485 16.4129 18.3409 16.0916 18.3409H14.6597V19.5682C14.6596 19.8895 14.3673 20.1818 14.046 20.1818H3.61367C3.29237 20.1818 3.00004 19.8895 3.00001 19.5682V6.06818C2.9984 5.76712 3.25031 5.48593 3.54975 5.45454H5.04556V4.22727ZM14.4551 4.84091C12.5419 4.84091 10.9777 6.405 10.9777 8.31818C10.9777 10.2314 12.5419 11.7955 14.4551 11.7955C16.3684 11.7955 17.9326 10.2314 17.9326 8.31818C17.9326 6.405 16.3684 4.84091 14.4551 4.84091ZM16.7052 8.31818C16.7052 7.06827 15.7051 6.06818 14.4551 6.06818C13.7488 6.06818 13.122 6.38253 12.71 6.88636H15.0688C15.393 6.88178 15.6912 7.17577 15.6912 7.5C15.6912 7.82422 15.393 8.11822 15.0688 8.11363H12.2114C12.2053 8.18142 12.205 8.24873 12.205 8.31818C12.205 8.45887 12.219 8.59393 12.2434 8.72727C13.5009 8.72733 14.4712 8.72329 14.8741 8.72161L15.0688 8.72089C15.393 8.7163 15.6912 9.0103 15.6912 9.33452C15.6912 9.65875 15.393 9.95274 15.0688 9.94816L14.7927 9.94907H14.7926L14.7922 9.94907C14.3887 9.95049 13.6144 9.95322 12.9082 9.95454C13.3109 10.3349 13.8534 10.5682 14.4551 10.5682C15.7051 10.5682 16.7052 9.56809 16.7052 8.31818ZM4.22734 6.68182H5.04556V17.7273C5.0456 18.0485 5.33792 18.3409 5.65923 18.3409H13.4323V18.9545H4.22734V6.68182ZM6.8545 7.53196C6.83776 7.21063 7.11495 6.90303 7.43631 6.88636C7.62344 6.88624 7.8183 6.88628 8.01207 6.88632L8.31845 6.88636C8.64266 6.88178 8.94086 7.17577 8.94086 7.5C8.94086 7.82422 8.64266 8.11822 8.31845 8.11363C8.31845 8.11363 7.70356 8.11343 7.50023 8.11363C7.17888 8.13043 6.87123 7.8533 6.8545 7.53196ZM7.50023 8.72088C7.17602 8.7163 6.87783 9.01029 6.87783 9.33451C6.87783 9.65874 7.17602 9.95274 7.50023 9.94815C7.5949 9.94843 7.73132 9.94979 7.87107 9.95118L7.87118 9.95118L7.87127 9.95118C8.03705 9.95284 8.20749 9.95453 8.31845 9.95453C8.64266 9.95911 8.94086 9.66512 8.94086 9.3409C8.94086 9.01667 8.64266 8.72268 8.31845 8.72726C8.20695 8.72726 8.03392 8.72554 7.86685 8.72388C7.72744 8.72249 7.59216 8.72115 7.50023 8.72088ZM6.8545 11.2138C6.83776 10.8924 7.11495 10.5848 7.43631 10.5682H8.93212C9.25633 10.5636 9.55453 10.8576 9.55453 11.1818C9.55453 11.506 9.25633 11.8 8.93212 11.7955H7.50023C7.17888 11.8122 6.87123 11.5351 6.8545 11.2138Z" fill="black"/>
<mask id="mask0_5737_45919" style="mask-type:luminance" maskUnits="userSpaceOnUse" x="3" y="3" width="18" height="18">
<path fill-rule="evenodd" clip-rule="evenodd" d="M9.13668 8.31818C9.13668 5.3883 11.5251 3 14.4551 3C15.5666 3 16.6025 3.33762 17.4595 3.92685C17.7549 4.09341 17.8562 4.52814 17.6648 4.80807C17.4735 5.08801 17.0316 5.15151 16.7692 4.93679C16.1121 4.48505 15.32 4.22727 14.4551 4.22727C12.1884 4.22727 10.364 6.05157 10.364 8.31818C10.364 10.5848 12.1884 12.4091 14.4551 12.4091C16.7219 12.4091 18.5462 10.5848 18.5462 8.31818C18.5462 7.45858 18.2855 6.65995 17.8367 6.00426C17.622 5.74182 17.6855 5.29999 17.9654 5.10864C18.2454 4.91729 18.6801 5.01856 18.8467 5.31392C19.4322 6.16921 19.7736 7.20845 19.7736 8.31818C19.7736 10.0643 18.9247 11.6179 17.6193 12.5881L20.905 17.804C21.086 18.075 20.9989 18.4878 20.7239 18.6626C20.4488 18.8375 20.0381 18.7412 19.8695 18.4623L16.5582 13.2017C15.9125 13.4813 15.2019 13.6364 14.4551 13.6364C11.5251 13.6364 9.13668 11.2481 9.13668 8.31818ZM5.04556 4.22727C5.04395 3.92621 5.29587 3.64502 5.59531 3.61364H9.54579C9.87 3.60905 10.1682 3.90305 10.1682 4.22727C10.1682 4.5515 9.87 4.84549 9.54579 4.84091H6.2729V17.1136H15.4779V14.25C15.4733 13.9258 15.7673 13.6276 16.0916 13.6276C16.4158 13.6276 16.7098 13.9258 16.7052 14.25V17.7273C16.7052 18.0485 16.4129 18.3409 16.0916 18.3409H14.6597V19.5682C14.6596 19.8895 14.3673 20.1818 14.046 20.1818H3.61367C3.29237 20.1818 3.00004 19.8895 3.00001 19.5682V6.06818C2.9984 5.76712 3.25031 5.48593 3.54975 5.45454H5.04556V4.22727ZM14.4551 4.84091C12.5419 4.84091 10.9777 6.405 10.9777 8.31818C10.9777 10.2314 12.5419 11.7955 14.4551 11.7955C16.3684 11.7955 17.9326 10.2314 17.9326 8.31818C17.9326 6.405 16.3684 4.84091 14.4551 4.84091ZM16.7052 8.31818C16.7052 7.06827 15.7051 6.06818 14.4551 6.06818C13.7488 6.06818 13.122 6.38253 12.71 6.88636H15.0688C15.393 6.88178 15.6912 7.17577 15.6912 7.5C15.6912 7.82422 15.393 8.11822 15.0688 8.11363H12.2114C12.2053 8.18142 12.205 8.24873 12.205 8.31818C12.205 8.45887 12.219 8.59393 12.2434 8.72727C13.5009 8.72733 14.4712 8.72329 14.8741 8.72161L15.0688 8.72089C15.393 8.7163 15.6912 9.0103 15.6912 9.33452C15.6912 9.65875 15.393 9.95274 15.0688 9.94816L14.7927 9.94907H14.7926L14.7922 9.94907C14.3887 9.95049 13.6144 9.95322 12.9082 9.95454C13.3109 10.3349 13.8534 10.5682 14.4551 10.5682C15.7051 10.5682 16.7052 9.56809 16.7052 8.31818ZM4.22734 6.68182H5.04556V17.7273C5.0456 18.0485 5.33792 18.3409 5.65923 18.3409H13.4323V18.9545H4.22734V6.68182ZM6.8545 7.53196C6.83776 7.21063 7.11495 6.90303 7.43631 6.88636C7.62344 6.88624 7.8183 6.88628 8.01207 6.88632L8.31845 6.88636C8.64266 6.88178 8.94086 7.17577 8.94086 7.5C8.94086 7.82422 8.64266 8.11822 8.31845 8.11363C8.31845 8.11363 7.70356 8.11343 7.50023 8.11363C7.17888 8.13043 6.87123 7.8533 6.8545 7.53196ZM7.50023 8.72088C7.17602 8.7163 6.87783 9.01029 6.87783 9.33451C6.87783 9.65874 7.17602 9.95274 7.50023 9.94815C7.5949 9.94843 7.73132 9.94979 7.87107 9.95118L7.87118 9.95118L7.87127 9.95118C8.03705 9.95284 8.20749 9.95453 8.31845 9.95453C8.64266 9.95911 8.94086 9.66512 8.94086 9.3409C8.94086 9.01667 8.64266 8.72268 8.31845 8.72726C8.20695 8.72726 8.03392 8.72554 7.86685 8.72388C7.72744 8.72249 7.59216 8.72115 7.50023 8.72088ZM6.8545 11.2138C6.83776 10.8924 7.11495 10.5848 7.43631 10.5682H8.93212C9.25633 10.5636 9.55453 10.8576 9.55453 11.1818C9.55453 11.506 9.25633 11.8 8.93212 11.7955H7.50023C7.17888 11.8122 6.87123 11.5351 6.8545 11.2138Z" fill="white"/>
</mask>
<g mask="url(#mask0_5737_45919)">
<rect x="-13" y="-13" width="50" height="50" fill="#2196F3"/>
<mask id="mask1_5737_45919" style="mask-type:luminance" maskUnits="userSpaceOnUse" x="-13" y="-13" width="50" height="50">
<rect x="-13" y="-13" width="50" height="50" fill="white"/>
</mask>
<g mask="url(#mask1_5737_45919)">
</g>
</g>
</svg>
