<svg width="62" height="64" viewBox="0 0 62 64" fill="none" xmlns="http://www.w3.org/2000/svg">
<path opacity="0.3" fill-rule="evenodd" clip-rule="evenodd" d="M6 0C2.68629 0 0 2.68629 0 6V58C0 61.3137 2.68629 64 6 64H58C61.3137 64 64 61.3137 64 58V6C64 2.68629 61.3137 0 58 0H6ZM43.3111 23.1111H49.5556V27.5556H44.9111C45.0222 28.2889 45.1111 29.0222 45.1111 29.7778V32H49.5556V36.4444H45.1111V38.6667C45.1111 39.4222 45.0222 40.1556 44.9111 40.8889H49.5556V45.3333H43.3111C41 49.3111 36.7111 52 31.7778 52C26.8444 52 22.5556 49.3111 20.2444 45.3333H14V40.8889H18.6444C18.5333 40.1556 18.4444 39.4222 18.4444 38.6667V36.4444H14V32H18.4444V29.7778C18.4444 29.0222 18.5333 28.2889 18.6444 27.5556H14V23.1111H20.2444C21.2444 21.3778 22.6222 19.8889 24.2667 18.7556L20.6667 15.1333L23.8 12L28.6445 16.8222C29.6445 16.5778 30.6889 16.4444 31.7778 16.4444C32.8667 16.4444 33.9111 16.5778 34.9333 16.8222L39.7556 12L42.8889 15.1333L39.2667 18.7556C40.9333 19.8889 42.3111 21.3778 43.3111 23.1111ZM27.3334 40.8889H36.2222V36.4444H27.3334V40.8889ZM27.3334 32H36.2222V27.5556H27.3334V32Z" fill="white"/>
</svg>
