<svg width="64" height="64" viewBox="0 0 64 64" fill="none" xmlns="http://www.w3.org/2000/svg">
<path opacity="0.3" fill-rule="evenodd" clip-rule="evenodd" d="M0 6C0 2.68629 2.68629 0 6 0H58C61.3137 0 64 2.68629 64 6V58C64 61.3137 61.3137 64 58 64H6C2.68629 64 0 61.3137 0 58V6ZM43.3333 37.8333C41.25 37.8333 39.25 37.5 37.3833 36.8833C36.8 36.7 36.15 36.8333 35.6833 37.2833L32.0167 40.95C27.3 38.55 23.4333 34.7 21.0333 29.9667L24.7 26.2833C25.1667 25.85 25.3 25.2 25.1167 24.6167C24.5 22.75 24.1667 20.75 24.1667 18.6667C24.1667 17.75 23.4167 17 22.5 17H16.6667C15.75 17 15 17.75 15 18.6667C15 34.3167 27.6833 47 43.3333 47C44.25 47 45 46.25 45 45.3333V39.5C45 38.5833 44.25 37.8333 43.3333 37.8333ZM37.8643 20.0769V23.1538L28.8643 17H40.8643C45.2826 17 48.8643 20.6735 48.8643 25.2051C48.8643 29.7367 45.2826 33.4103 40.8643 33.4103H35.3017C34.6646 35.4908 32.7699 37 30.531 37C27.7695 37 25.531 34.704 25.531 31.8718C25.531 29.0396 27.7695 26.7436 30.531 26.7436C32.7699 26.7436 34.6646 28.2528 35.3017 30.3333H40.8643C43.6213 30.3333 45.8643 28.0328 45.8643 25.2051C45.8643 22.3774 43.6213 20.0769 40.8643 20.0769H37.8643ZM30.531 33.9231C31.6356 33.9231 32.531 33.0046 32.531 31.8718C32.531 30.739 31.6356 29.8205 30.531 29.8205C29.4264 29.8205 28.531 30.739 28.531 31.8718C28.531 33.0046 29.4264 33.9231 30.531 33.9231Z" fill="white"/>
</svg>
