<svg width="58" height="64" viewBox="0 0 58 64" fill="none" xmlns="http://www.w3.org/2000/svg">
<path opacity="0.4" fill-rule="evenodd" clip-rule="evenodd" d="M6 0C2.68629 0 0 2.68629 0 6V58C0 61.3137 2.68629 64 6 64H58C61.3137 64 64 61.3137 64 58V6C64 2.68629 61.3137 0 58 0H6ZM15.333 32.0002C15.333 22.7835 22.783 15.3335 31.9997 15.3335C41.2163 15.3335 48.6663 22.7835 48.6663 32.0002C48.6663 41.2168 41.2163 48.6668 31.9997 48.6668C22.783 48.6668 15.333 41.2168 15.333 32.0002ZM22 32C22 37.5125 26.4875 42 32 42C37.5125 42 42 37.5125 42 32C42 26.4875 37.5125 22 32 22C26.4875 22 22 26.4875 22 32Z" fill="white"/>
</svg>
