<svg width="72" height="72" viewBox="0 0 72 72" fill="none" xmlns="http://www.w3.org/2000/svg">
<g clip-path="url(#clip0_5774_32777)">
<g filter="url(#filter0_d_5774_32777)">
<g clip-path="url(#clip1_5774_32777)">
<circle cx="36" cy="36" r="26.6875" fill="white" stroke="#2196F3" stroke-width="2.625"/>
<path d="M35.999 57.875C38.8717 57.875 41.7162 57.3092 44.3702 56.2099C47.0242 55.1105 49.4357 53.4992 51.467 51.468C53.4983 49.4367 55.1096 47.0252 56.2089 44.3712C57.3082 41.7172 57.874 38.8727 57.874 36C57.874 33.1273 57.3082 30.2828 56.2089 27.6288C55.1096 24.9748 53.4983 22.5633 51.467 20.532C49.4357 18.5008 47.0242 16.8895 44.3702 15.7901C41.7162 14.6908 38.8717 14.125 35.999 14.125L35.999 36L35.999 57.875Z" fill="#2196F3"/>
<path opacity="0.2" d="M35.999 57.875C38.8717 57.875 41.7162 57.3092 44.3702 56.2099C47.0242 55.1105 49.4357 53.4992 51.467 51.468C53.4983 49.4367 55.1096 47.0252 56.2089 44.3712C57.3082 41.7172 57.874 38.8727 57.874 36C57.874 33.1273 57.3082 30.2828 56.2089 27.6288C55.1096 24.9748 53.4983 22.5633 51.467 20.532C49.4357 18.5008 47.0242 16.8895 44.3702 15.7901C41.7162 14.6908 38.8717 14.125 35.999 14.125L35.999 36L35.999 57.875Z" fill="white"/>
<path d="M35.999 14.125C33.1264 14.125 30.2818 14.6908 27.6278 15.7901C24.9738 16.8895 22.5623 18.5008 20.5311 20.532C18.4998 22.5633 16.8885 24.9748 15.7892 27.6288C14.6898 30.2828 14.124 33.1273 14.124 36C14.124 38.8727 14.6898 41.7172 15.7892 44.3712C16.8885 47.0252 18.4998 49.4367 20.5311 51.468C22.5623 53.4992 24.9738 55.1105 27.6278 56.2099C30.2818 57.3092 33.1264 57.875 35.999 57.875L35.999 36L35.999 14.125Z" fill="#2196F3"/>
<path opacity="0.2" d="M35.999 14.125C33.1264 14.125 30.2818 14.6908 27.6278 15.7901C24.9738 16.8895 22.5623 18.5008 20.5311 20.532C18.4998 22.5633 16.8885 24.9748 15.7892 27.6288C14.6898 30.2828 14.124 33.1273 14.124 36C14.124 38.8727 14.6898 41.7172 15.7892 44.3712C16.8885 47.0252 18.4998 49.4367 20.5311 51.468C22.5623 53.4992 24.9738 55.1105 27.6278 56.2099C30.2818 57.3092 33.1264 57.875 35.999 57.875L35.999 36L35.999 14.125Z" fill="#383B41"/>
<rect opacity="0.15" x="24.3359" y="1.875" width="6.73371" height="66.5" transform="rotate(15 24.3359 1.875)" fill="white"/>
<rect opacity="0.15" x="33.0859" y="3.625" width="1.56821" height="66.5" transform="rotate(15 33.0859 3.625)" fill="white"/>
<path d="M28.0003 30.6673C28.0003 27.7207 30.387 25.334 33.3337 25.334C36.2803 25.334 38.667 27.7207 38.667 30.6673C38.667 33.614 36.2803 36.0007 33.3337 36.0007C30.387 36.0007 28.0003 33.614 28.0003 30.6673ZM38.3191 46.6673C37.6673 44.9035 37.3337 43.0381 37.3337 41.1577V39.334C35.9603 39.014 34.947 38.6673 33.3337 38.6673C27.4403 38.6673 22.667 41.054 22.667 44.0007V46.6673H38.3191Z" fill="white"/>
<path d="M42.8889 45.4436L40.6667 43.2214L41.45 42.438L42.8889 43.8714L46.55 40.2102L47.3333 40.9991M44 36.5547L39 38.7769V42.1102C39 45.1936 41.1333 48.0769 44 48.7769C46.8667 48.0769 49 45.1936 49 42.1102V38.7769L44 36.5547Z" fill="white"/>
</g>
<path fill-rule="evenodd" clip-rule="evenodd" d="M35.9997 11.514L40.1197 14.0006L39.0263 9.31398L42.6663 6.16065L37.873 5.75398L35.9997 1.33398L34.1263 5.75398L29.333 6.16065L32.973 9.31398L31.8797 14.0006L35.9997 11.514Z" fill="#FFEFAE" stroke="#FFD100" stroke-width="0.5"/>
<path fill-rule="evenodd" clip-rule="evenodd" d="M14.9993 18.0735L18.6043 20.2493L17.6477 16.1485L20.8327 13.3893L16.6385 13.0335L14.9993 9.16602L13.3602 13.0335L9.16602 13.3893L12.351 16.1485L11.3943 20.2493L14.9993 18.0735Z" fill="#FFEFAE" stroke="#FFD100" stroke-width="0.4375"/>
<path fill-rule="evenodd" clip-rule="evenodd" d="M57.0003 18.0735L60.6053 20.2493L59.6487 16.1485L62.8337 13.3893L58.6395 13.0335L57.0003 9.16602L55.3612 13.0335L51.167 13.3893L54.352 16.1485L53.3953 20.2493L57.0003 18.0735Z" fill="#FFEFAE" stroke="#FFD100" stroke-width="0.4375"/>
</g>
</g>
<defs>
<filter id="filter0_d_5774_32777" x="2" y="-4" width="68" height="76" filterUnits="userSpaceOnUse" color-interpolation-filters="sRGB">
<feFlood flood-opacity="0" result="BackgroundImageFix"/>
<feColorMatrix in="SourceAlpha" type="matrix" values="0 0 0 0 0 0 0 0 0 0 0 0 0 0 0 0 0 0 127 0" result="hardAlpha"/>
<feOffset dy="2"/>
<feGaussianBlur stdDeviation="3"/>
<feComposite in2="hardAlpha" operator="out"/>
<feColorMatrix type="matrix" values="0 0 0 0 0 0 0 0 0 0 0 0 0 0 0 0 0 0 0.15 0"/>
<feBlend mode="normal" in2="BackgroundImageFix" result="effect1_dropShadow_5774_32777"/>
<feBlend mode="normal" in="SourceGraphic" in2="effect1_dropShadow_5774_32777" result="shape"/>
</filter>
<clipPath id="clip0_5774_32777">
<rect width="72" height="72" fill="white"/>
</clipPath>
<clipPath id="clip1_5774_32777">
<rect x="8" y="8" width="56" height="56" rx="28" fill="white"/>
</clipPath>
</defs>
</svg>
