<svg width="24" height="24" viewBox="0 0 24 24" fill="none" xmlns="http://www.w3.org/2000/svg">
<mask id="mask0_9048_74757" style="mask-type:alpha" maskUnits="userSpaceOnUse" x="2" y="4" width="20" height="16">
<path fill-rule="evenodd" clip-rule="evenodd" d="M20 4H4C2.9 4 2.01 4.9 2.01 6L2 18C2 19.1 2.9 20 4 20H20C21.1 20 22 19.1 22 18V6C22 4.9 21.1 4 20 4ZM15 18H4V14H15V18ZM15 13H4V9H15V13ZM20 18H16V9H20V18Z" fill="white"/>
</mask>
<g mask="url(#mask0_9048_74757)">
<rect x="-13" y="-13" width="50" height="50" fill="#2196F3"/>
<mask id="mask1_9048_74757" style="mask-type:alpha" maskUnits="userSpaceOnUse" x="-13" y="-13" width="50" height="50">
<rect x="-13" y="-13" width="50" height="50" fill="white"/>
</mask>
<g mask="url(#mask1_9048_74757)">
</g>
</g>
</svg>
