<svg width="72" height="72" viewBox="0 0 72 72" fill="none" xmlns="http://www.w3.org/2000/svg">
<g filter="url(#filter0_d_7094_2814)">
<g clip-path="url(#clip0_7094_2814)">
<circle cx="36" cy="36" r="26.6875" fill="white" stroke="#2196F3" stroke-width="2.625"/>
<path d="M35.999 57.875C38.8717 57.875 41.7162 57.3092 44.3702 56.2099C47.0242 55.1105 49.4357 53.4992 51.467 51.468C53.4983 49.4367 55.1096 47.0252 56.2089 44.3712C57.3082 41.7172 57.874 38.8727 57.874 36C57.874 33.1273 57.3082 30.2828 56.2089 27.6288C55.1096 24.9748 53.4983 22.5633 51.467 20.532C49.4357 18.5008 47.0242 16.8895 44.3702 15.7901C41.7162 14.6908 38.8717 14.125 35.999 14.125L35.999 36L35.999 57.875Z" fill="#2196F3"/>
<path opacity="0.2" d="M35.999 57.875C38.8717 57.875 41.7162 57.3092 44.3702 56.2099C47.0242 55.1105 49.4357 53.4992 51.467 51.468C53.4983 49.4367 55.1096 47.0252 56.2089 44.3712C57.3082 41.7172 57.874 38.8727 57.874 36C57.874 33.1273 57.3082 30.2828 56.2089 27.6288C55.1096 24.9748 53.4983 22.5633 51.467 20.532C49.4357 18.5008 47.0242 16.8895 44.3702 15.7901C41.7162 14.6908 38.8717 14.125 35.999 14.125L35.999 36L35.999 57.875Z" fill="white"/>
<path d="M35.999 14.1248C33.1264 14.1248 30.2818 14.6906 27.6278 15.7899C24.9738 16.8892 22.5623 18.5005 20.5311 20.5318C18.4998 22.5631 16.8885 24.9746 15.7892 27.6286C14.6898 30.2826 14.124 33.1271 14.124 35.9998C14.124 38.8724 14.6898 41.717 15.7892 44.371C16.8885 47.025 18.4998 49.4364 20.5311 51.4677C22.5623 53.499 24.9738 55.1103 27.6278 56.2096C30.2818 57.3089 33.1264 57.8748 35.999 57.8748L35.999 35.9998L35.999 14.1248Z" fill="#2196F3"/>
<path opacity="0.2" d="M35.999 14.1248C33.1264 14.1248 30.2818 14.6906 27.6278 15.7899C24.9738 16.8892 22.5623 18.5005 20.5311 20.5318C18.4998 22.5631 16.8885 24.9746 15.7892 27.6286C14.6898 30.2826 14.124 33.1271 14.124 35.9998C14.124 38.8724 14.6898 41.717 15.7892 44.371C16.8885 47.025 18.4998 49.4364 20.5311 51.4677C22.5623 53.499 24.9738 55.1103 27.6278 56.2096C30.2818 57.3089 33.1264 57.8748 35.999 57.8748L35.999 35.9998L35.999 14.1248Z" fill="#383B41"/>
<rect opacity="0.15" x="24.3359" y="1.87476" width="6.73371" height="66.5" transform="rotate(15 24.3359 1.87476)" fill="white"/>
<rect opacity="0.15" x="33.0859" y="3.62476" width="1.56821" height="66.5" transform="rotate(15 33.0859 3.62476)" fill="white"/>
<path d="M44.0003 28.0001C44.0003 30.4267 42.347 32.5467 40.0003 33.1467V42.6667C40.0003 44.4349 39.2979 46.1305 38.0477 47.3808C36.7975 48.631 35.1018 49.3334 33.3337 49.3334C31.5655 49.3334 29.8699 48.631 28.6196 47.3808C27.3694 46.1305 26.667 44.4349 26.667 42.6667V36.0001L33.3337 42.6667H29.3337C29.3337 43.7276 29.7551 44.745 30.5052 45.4952C31.2554 46.2453 32.2728 46.6667 33.3337 46.6667C34.3945 46.6667 35.4119 46.2453 36.1621 45.4952C36.9122 44.745 37.3337 43.7276 37.3337 42.6667V33.1467C34.9737 32.5334 33.3337 30.4001 33.3337 27.9601C33.3337 25.0134 35.7337 22.6667 38.667 22.6667C41.627 22.6667 44.0003 25.0534 44.0003 28.0001ZM38.667 30.6667C39.3742 30.6667 40.0525 30.3858 40.5526 29.8857C41.0527 29.3856 41.3337 28.7073 41.3337 28.0001C41.3337 27.2928 41.0527 26.6146 40.5526 26.1145C40.0525 25.6144 39.3742 25.3334 38.667 25.3334C37.9597 25.3334 37.2815 25.6144 36.7814 26.1145C36.2813 26.6146 36.0003 27.2928 36.0003 28.0001C36.0003 28.7073 36.2813 29.3856 36.7814 29.8857C37.2815 30.3858 37.9597 30.6667 38.667 30.6667Z" fill="white"/>
</g>
</g>
<defs>
<filter id="filter0_d_7094_2814" x="2" y="4" width="68" height="68" filterUnits="userSpaceOnUse" color-interpolation-filters="sRGB">
<feFlood flood-opacity="0" result="BackgroundImageFix"/>
<feColorMatrix in="SourceAlpha" type="matrix" values="0 0 0 0 0 0 0 0 0 0 0 0 0 0 0 0 0 0 127 0" result="hardAlpha"/>
<feOffset dy="2"/>
<feGaussianBlur stdDeviation="3"/>
<feComposite in2="hardAlpha" operator="out"/>
<feColorMatrix type="matrix" values="0 0 0 0 0 0 0 0 0 0 0 0 0 0 0 0 0 0 0.15 0"/>
<feBlend mode="normal" in2="BackgroundImageFix" result="effect1_dropShadow_7094_2814"/>
<feBlend mode="normal" in="SourceGraphic" in2="effect1_dropShadow_7094_2814" result="shape"/>
</filter>
<clipPath id="clip0_7094_2814">
<rect x="8" y="8" width="56" height="56" rx="28" fill="white"/>
</clipPath>
</defs>
</svg>
