<svg width="43" height="42" viewBox="0 0 43 42" fill="none" xmlns="http://www.w3.org/2000/svg">
<mask id="mask0_4326_5188" style="mask-type:luminance" maskUnits="userSpaceOnUse" x="5" y="5" width="33" height="35">
<path d="M28.0621 25.1497L31.7527 23.9694L32.9034 27.5678C33.9609 30.8746 32.0619 34.4474 28.6703 35.532C25.2786 36.6166 21.6589 34.8086 20.6014 31.5018L15.9107 16.8335C18.1618 15.2713 19.2452 12.4198 18.3865 9.73442C17.3273 6.42217 13.7147 4.6179 10.3177 5.70424C6.92061 6.79058 5.02532 10.3562 6.08454 13.6684C6.94331 16.3539 9.48028 18.0476 12.2201 18.0137L16.9109 32.682C18.6056 37.9815 24.3856 40.8685 29.821 39.1303C35.2563 37.3921 38.2887 31.687 36.594 26.3876L31.9912 11.9943L28.0621 25.1497ZM13.0026 14.1003C11.6439 14.5348 10.1988 13.8131 9.77512 12.4882C9.35143 11.1633 10.1096 9.73707 11.4684 9.30255C12.8271 8.86804 14.2722 9.58973 14.6959 10.9146C15.1196 12.2395 14.3614 13.6658 13.0026 14.1003Z" fill="white"/>
</mask>
<g mask="url(#mask0_4326_5188)">
<rect x="-22.0833" y="-22.75" width="87.5" height="87.5" fill="#2196F3"/>
<mask id="mask1_4326_5188" style="mask-type:luminance" maskUnits="userSpaceOnUse" x="-23" y="-23" width="89" height="88">
<rect x="-22.0833" y="-22.75" width="87.5" height="87.5" fill="white"/>
</mask>
<g mask="url(#mask1_4326_5188)">
</g>
</g>
</svg>
