<svg width="42" height="42" viewBox="0 0 42 42" fill="none" xmlns="http://www.w3.org/2000/svg">
<path fill-rule="evenodd" clip-rule="evenodd" d="M35 27.125C32.8125 27.125 30.7125 26.775 28.7525 26.1275C28.14 25.935 27.4575 26.075 26.9675 26.5475L23.1175 30.3975C18.165 27.8775 14.105 23.835 11.585 18.865L15.435 14.9975C15.925 14.5425 16.065 13.86 15.8725 13.2475C15.225 11.2875 14.875 9.1875 14.875 7C14.875 6.0375 14.0875 5.25 13.125 5.25H6.99998C6.03748 5.25 5.24998 6.0375 5.24998 7C5.24998 23.4325 18.5675 36.75 35 36.75C35.9625 36.75 36.75 35.9625 36.75 35V28.875C36.75 27.9125 35.9625 27.125 35 27.125Z" fill="#2196F3"/>
<path d="M29.2575 11.7115L29.2575 8.48077L32.4075 8.48077C35.3024 8.48077 37.6575 10.8963 37.6575 13.8654C37.6575 16.8345 35.3024 19.25 32.4075 19.25L26.5668 19.25C25.8978 17.0655 23.9084 15.4808 21.5575 15.4808C18.658 15.4808 16.3075 17.8916 16.3075 20.8654C16.3075 23.8392 18.658 26.25 21.5575 26.25C23.9084 26.25 25.8978 24.6653 26.5668 22.4808L32.4075 22.4808C37.0468 22.4808 40.8075 18.6236 40.8075 13.8654C40.8075 9.10722 37.0468 5.25 32.4075 5.25L19.8075 5.25L29.2575 11.7115ZM23.6575 20.8654C23.6575 22.0548 22.7174 23.0192 21.5575 23.0192C20.3977 23.0192 19.4575 22.0548 19.4575 20.8654C19.4575 19.6759 20.3977 18.7115 21.5575 18.7115C22.7174 18.7115 23.6575 19.6759 23.6575 20.8654Z" fill="#2196F3"/>
</svg>
