<svg width="32" height="32" viewBox="0 0 32 32" fill="none" xmlns="http://www.w3.org/2000/svg">
<path d="M13.3337 5.33334C11.9192 5.33334 10.5626 5.89525 9.56242 6.89544C8.56223 7.89563 8.00033 9.25219 8.00033 10.6667C8.00033 12.0812 8.56223 13.4377 9.56242 14.4379C10.5626 15.4381 11.9192 16 13.3337 16C14.7481 16 16.1047 15.4381 17.1049 14.4379C18.1051 13.4377 18.667 12.0812 18.667 10.6667C18.667 9.25219 18.1051 7.89563 17.1049 6.89544C16.1047 5.89525 14.7481 5.33334 13.3337 5.33334ZM13.3337 18.6667C7.44033 18.6667 2.66699 21.0533 2.66699 24V26.6667H15.3337C14.8936 25.6105 14.667 24.4776 14.667 23.3333C14.6727 21.7524 15.1107 20.2032 15.9337 18.8533C15.0937 18.7467 14.2403 18.6667 13.3337 18.6667Z" fill="#757575"/>
<path d="M23.933 21.5333H22.733V20.3333H23.933M23.933 26.3333H22.733V22.7333H23.933M23.333 17.3333C22.5451 17.3333 21.7649 17.4885 21.0369 17.7901C20.309 18.0916 19.6475 18.5336 19.0904 19.0907C17.9651 20.2159 17.333 21.742 17.333 23.3333C17.333 24.9246 17.9651 26.4508 19.0904 27.576C19.6475 28.1331 20.309 28.5751 21.0369 28.8766C21.7649 29.1782 22.5451 29.3333 23.333 29.3333C24.9243 29.3333 26.4504 28.7012 27.5756 27.576C28.7009 26.4508 29.333 24.9246 29.333 23.3333C29.333 22.5454 29.1778 21.7652 28.8763 21.0372C28.5748 20.3093 28.1328 19.6479 27.5756 19.0907C27.0185 18.5336 26.3571 18.0916 25.6291 17.7901C24.9012 17.4885 24.1209 17.3333 23.333 17.3333Z" fill="#757575"/>
</svg>
