<svg width="42" height="42" viewBox="0 0 42 42" fill="none" xmlns="http://www.w3.org/2000/svg">
<path d="M29.1152 22.9484C23.7492 22.9484 19.386 18.5853 19.386 13.2192H3.81824V34.6257H8.68281V38.1819L15.4552 34.6257H36.9019V19.0521C35.1267 21.4152 32.2967 22.9484 29.1152 22.9484ZM8.81538 17.1097H16.6022V19.0579H8.81538V17.1097ZM8.81538 21.006H16.6022V22.9541H8.81538V21.006ZM32.1642 30.7352H8.81538V28.787H32.1699V30.7352H32.1642ZM32.1642 26.8447H8.81538V24.8965H32.1699V26.8447H32.1642Z" fill="#2196F3"/>
<path d="M31.582 20.1819C29.9624 20.1819 28.3428 20.1819 26.7232 20.1819C26.6944 20.1704 26.6656 20.1589 26.631 20.1531C26.1238 20.0205 25.7953 19.6632 25.7607 19.1387C25.7319 18.7064 25.7434 18.2684 25.7434 17.8303C25.7434 17.7151 25.7088 17.6632 25.5993 17.6286C24.9019 17.4038 24.2045 17.1675 23.5128 16.937C22.7809 16.6891 22.3428 16.0782 22.3428 15.3058C22.3428 13.7842 22.337 12.2626 22.3486 10.7352C22.3486 10.349 22.3659 9.9571 22.4293 9.57669C22.729 7.75536 23.6166 6.27408 25.0979 5.17898C26.8212 3.89943 28.7521 3.53056 30.8328 4.03776C32.4293 4.42969 33.7031 5.32307 34.6714 6.64296C35.4898 7.76112 35.9394 9.01761 35.9625 10.4009C35.9855 12.0378 35.974 13.6805 35.974 15.3231C35.974 16.0724 35.5302 16.6891 34.8155 16.9312C34.1181 17.1675 33.4149 17.4038 32.7117 17.6286C32.6022 17.6632 32.5619 17.7151 32.5676 17.8303C32.5734 18.205 32.5849 18.5738 32.5676 18.9485C32.5561 19.1502 32.5215 19.3635 32.4408 19.5479C32.2737 19.911 31.9567 20.0897 31.582 20.1819ZM26.6541 15.1848C27.778 15.1848 28.6944 14.2684 28.7002 13.1444C28.7059 12.0205 27.7895 11.1041 26.6598 11.0983C25.5244 11.0925 24.6079 12.009 24.6137 13.1444C24.6137 14.2684 25.5301 15.1848 26.6541 15.1848ZM31.657 15.1848C32.7924 15.179 33.7031 14.2568 33.6916 13.1214C33.6858 11.9917 32.7636 11.0868 31.6397 11.0983C30.51 11.1098 29.5993 12.0263 29.6051 13.1502C29.6166 14.2741 30.5388 15.1905 31.657 15.1848ZM29.1498 14.7237C28.8039 15.2712 28.4466 15.7784 28.2679 16.3836C28.1757 16.7064 28.3428 17.0868 28.6368 17.2885C28.9423 17.5018 29.3688 17.5018 29.6743 17.2885C29.9682 17.081 30.1354 16.7006 30.0374 16.3836C29.8587 15.7842 29.5013 15.2712 29.1498 14.7237Z" fill="#2196F3"/>
</svg>
