<svg width="43" height="42" viewBox="0 0 43 42" fill="none" xmlns="http://www.w3.org/2000/svg">
<mask id="mask0_4326_5208" style="mask-type:luminance" maskUnits="userSpaceOnUse" x="5" y="5" width="33" height="32">
<path fill-rule="evenodd" clip-rule="evenodd" d="M35.3333 27.125C33.1458 27.125 31.0458 26.775 29.0858 26.1275C28.4733 25.935 27.7908 26.075 27.3008 26.5475L23.4508 30.3975C18.4983 27.8775 14.4383 23.835 11.9183 18.865L15.7683 14.9975C16.2583 14.5425 16.3983 13.86 16.2058 13.2475C15.5583 11.2875 15.2083 9.1875 15.2083 7C15.2083 6.0375 14.4208 5.25 13.4583 5.25H7.33331C6.37081 5.25 5.58331 6.0375 5.58331 7C5.58331 23.4325 18.9008 36.75 35.3333 36.75C36.2958 36.75 37.0833 35.9625 37.0833 35V28.875C37.0833 27.9125 36.2958 27.125 35.3333 27.125ZM33.5833 21H37.0833C37.0833 12.3025 30.0308 5.25 21.3333 5.25V8.75C28.1058 8.75 33.5833 14.2275 33.5833 21ZM26.5833 21H30.0833C30.0833 16.17 26.1633 12.25 21.3333 12.25V15.75C24.2383 15.75 26.5833 18.095 26.5833 21Z" fill="white"/>
</mask>
<g mask="url(#mask0_4326_5208)">
<rect x="-22.4167" y="-22.75" width="87.5" height="87.5" fill="#2196F3"/>
<mask id="mask1_4326_5208" style="mask-type:luminance" maskUnits="userSpaceOnUse" x="-23" y="-23" width="89" height="88">
<rect x="-22.4167" y="-22.75" width="87.5" height="87.5" fill="white"/>
</mask>
<g mask="url(#mask1_4326_5208)">
</g>
</g>
</svg>
