<svg width="43" height="42" viewBox="0 0 43 42" fill="none" xmlns="http://www.w3.org/2000/svg">
<g clip-path="url(#clip0_4326_5251)">
<path d="M6.86679 4.6665C6.37172 4.6665 5.89692 4.86317 5.54686 5.21324C5.19679 5.56331 5.00012 6.0381 5.00012 6.53317V13.9998H14.3335V4.6665H6.86679ZM12.0001 11.6665H7.33346V6.99984H12.0001V11.6665Z" fill="#2196F3"/>
<path d="M5.00012 35.4667C5.00012 35.9617 5.19679 36.4365 5.54686 36.7866C5.89692 37.1367 6.37172 37.3333 6.86679 37.3333H14.3335V28H5.00012V35.4667ZM7.33346 30.3333H12.0001V35H7.33346V30.3333Z" fill="#2196F3"/>
<path d="M28.3334 37.3333H35.8001C36.2952 37.3333 36.77 37.1367 37.12 36.7866C37.4701 36.4365 37.6668 35.9617 37.6668 35.4667V28H28.3334V37.3333ZM30.6668 30.3333H35.3334V35H30.6668V30.3333Z" fill="#2196F3"/>
<path d="M35.8001 4.6665H28.3334V13.9998H37.6668V6.53317C37.6668 6.0381 37.4701 5.56331 37.12 5.21324C36.77 4.86317 36.2952 4.6665 35.8001 4.6665ZM35.3334 11.6665H30.6668V6.99984H35.3334V11.6665Z" fill="#2196F3"/>
<path d="M23.6668 11.6668V9.3335H19.0001V14.0002H21.3335V11.6668H23.6668Z" fill="#2196F3"/>
<path d="M14.3334 14H16.6668V16.3333H14.3334V14Z" fill="#2196F3"/>
<path d="M16.6667 16.3335H21.3334V18.6668H16.6667V16.3335Z" fill="#2196F3"/>
<path d="M23.6667 6.99984V9.33317H26.0001V4.6665H16.6667V9.33317H19.0001V6.99984H23.6667Z" fill="#2196F3"/>
<path d="M5.00012 16.3335H7.33346V21.0002H5.00012V16.3335Z" fill="#2196F3"/>
<path d="M14.3335 18.6668V21.0002H12.0001V16.3335H9.66679V21.0002H7.33346V23.3335H5.00012V25.6668H9.66679V23.3335H12.0001V25.6668H14.3335V23.3335H16.6668V18.6668H14.3335Z" fill="#2196F3"/>
<path d="M23.6668 18.6665H26.0001V20.9998H28.3334V18.6665H30.6668V16.3332H26.0001V11.6665H23.6668V13.9998H21.3334V16.3332H23.6668V18.6665Z" fill="#2196F3"/>
<path d="M21.3334 34.9998H16.6667V37.3332H26.0001V34.9998H23.6667V32.6665H21.3334V34.9998Z" fill="#2196F3"/>
<path d="M26.0001 23.3332V20.9998H23.6668V18.6665H21.3335V20.9998H19.0001V23.3332H21.3335V25.6665H23.6668V23.3332H26.0001Z" fill="#2196F3"/>
<path d="M35.3334 23.3335H37.6668V25.6668H35.3334V23.3335Z" fill="#2196F3"/>
<path d="M26.0001 23.3335H33.0001V25.6668H26.0001V23.3335Z" fill="#2196F3"/>
<path d="M35.3334 16.3335H33.0001V18.6668H30.6667V21.0002H33.0001V23.3335H35.3334V21.0002H37.6667V18.6668H35.3334V16.3335Z" fill="#2196F3"/>
<path d="M23.6667 25.6665H26.0001V32.6665H23.6667V25.6665Z" fill="#2196F3"/>
<path d="M16.6667 32.6668H19.0001V30.3335H21.3334V28.0002H19.0001V23.3335H16.6667V32.6668Z" fill="#2196F3"/>
</g>
<defs>
<clipPath id="clip0_4326_5251">
<rect width="42" height="42" fill="white" transform="translate(0.333435)"/>
</clipPath>
</defs>
</svg>
