<svg width="24" height="24" viewBox="0 0 24 24" fill="none" xmlns="http://www.w3.org/2000/svg">
<path d="M22.56 12.248C22.56 11.468 22.49 10.718 22.36 9.99805H12V14.258H17.92C17.66 15.628 16.88 16.788 15.71 17.568V20.338H19.28C21.36 18.418 22.56 15.598 22.56 12.248Z" fill="#4285F4"/>
<path d="M11.9999 22.9996C14.9699 22.9996 17.4599 22.0196 19.2799 20.3396L15.7099 17.5696C14.7299 18.2296 13.4799 18.6296 11.9999 18.6296C9.13993 18.6296 6.70993 16.6996 5.83993 14.0996H2.17993V16.9396C3.98993 20.5296 7.69993 22.9996 11.9999 22.9996Z" fill="#34A853"/>
<path d="M5.84 14.0884C5.62 13.4284 5.49 12.7284 5.49 11.9984C5.49 11.2684 5.62 10.5684 5.84 9.90836V7.06836H2.18C1.43 8.54836 1 10.2184 1 11.9984C1 13.7784 1.43 15.4484 2.18 16.9284L5.03 14.7084L5.84 14.0884Z" fill="#FBBC05"/>
<path d="M11.9999 5.37805C13.6199 5.37805 15.0599 5.93805 16.2099 7.01805L19.3599 3.86805C17.4499 2.08805 14.9699 0.998047 11.9999 0.998047C7.69993 0.998047 3.98993 3.46805 2.17993 7.06805L5.83993 9.90805C6.70993 7.30805 9.13993 5.37805 11.9999 5.37805Z" fill="#EA4335"/>
</svg>
