<svg width="203" height="26" viewBox="0 0 203 26" fill="none" xmlns="http://www.w3.org/2000/svg">
<rect width="203" height="26" fill="#E5E5E5"/>
<g id="Phishing Reporter - Revised">
<g id="Frame 92135">
<g id="Settings-Add in Settings">
<rect width="8143" height="7107" transform="translate(-2435 -971)" fill="white"/>
<g id="Board">
<rect width="8143" height="6539" transform="translate(-2435 -403)" fill="#F6F6F6"/>
<g id="new-modal">
<g clip-path="url(#clip0_0_1)">
<g id="Property 1=Default">
<g id="_Base/Default" filter="url(#filter0_dd_0_1)">
<rect x="-24" y="-121" width="820" height="700" rx="12" fill="white"/>
<g id="Content">
<g id="Frame 102">
<g id="Frame 94">
<g id="Frame 14">
<g id="Google_Workspace_Logo 1" clip-path="url(#clip1_0_1)">
<path id="Vector" d="M105.961 1.96094H108.35L103.597 19.777H101.258L97.4262 8.03234H97.3267L93.4948 19.777H91.1558L86.2041 1.96094H88.5928L92.3502 15.97H92.4497L96.3065 4.34969H98.4464L102.303 15.97H102.403L105.961 1.96094Z" fill="#5F6368"/>
<g id="Clip path group">
<mask id="mask0_0_1" style="mask-type:luminance" maskUnits="userSpaceOnUse" x="0" y="0" width="203" height="26">
<g id="a">
<path id="Vector_2" d="M202.922 0H0V26H202.922V0Z" fill="white"/>
</g>
</mask>
<g mask="url(#mask0_0_1)">
<g id="Group">
<path id="Vector_3" d="M108.134 13.68C108.134 11.8058 108.723 10.2548 109.9 9.02688C111.095 7.79932 112.596 7.18555 114.404 7.18555C116.212 7.18555 117.705 7.79932 118.883 9.02688C120.078 10.2548 120.675 11.8058 120.675 13.68C120.675 15.5711 120.078 17.1221 118.883 18.333C117.705 19.5609 116.212 20.1747 114.404 20.1744C112.596 20.174 111.095 19.5598 109.9 18.3315C108.722 17.1043 108.133 15.5533 108.134 13.6784M110.423 13.6784C110.423 14.9893 110.805 16.0509 111.568 16.8634C112.331 17.6759 113.276 18.0822 114.404 18.0822C115.532 18.0822 116.478 17.6759 117.241 16.8634C118.004 16.0509 118.386 14.9893 118.386 13.6784C118.386 12.3845 118.004 11.3312 117.241 10.5183C116.462 9.68923 115.517 9.27452 114.404 9.27418C113.292 9.27384 112.346 9.68906 111.567 10.5198C110.803 11.3323 110.422 12.3857 110.422 13.68" fill="#5F6368"/>
<path id="Vector_4" d="M124.589 19.7773H122.299V7.58469H124.489V9.57531H124.591C124.823 8.92836 125.3 8.37671 126.022 7.92035C126.743 7.464 127.452 7.23599 128.149 7.23633C128.812 7.23633 129.376 7.33586 129.841 7.53492L129.142 9.75051C128.86 9.63473 128.412 9.57667 127.798 9.57633C126.936 9.57633 126.185 9.92469 125.547 10.6214C124.908 11.3181 124.589 12.1306 124.589 13.0589V19.7773Z" fill="#5F6368"/>
<path id="Vector_5" d="M141.623 19.777H138.861L135.054 14.0291L133.188 15.8704V19.777H130.898V1.96094H133.188V12.9343L138.463 7.58445H141.399V7.68398L136.646 12.4117L141.623 19.6775V19.777Z" fill="#5F6368"/>
<path id="Vector_6" d="M151.528 16.3937C151.528 17.4557 151.064 18.3515 150.135 19.0811C149.206 19.8106 148.036 20.1756 146.626 20.1759C145.399 20.1759 144.32 19.8565 143.392 19.2177C142.482 18.6033 141.786 17.7205 141.401 16.6923L143.441 15.8214C143.74 16.5516 144.175 17.1197 144.748 17.5256C145.293 17.9235 145.952 18.1369 146.627 18.135C147.357 18.135 147.966 17.9774 148.455 17.6622C148.943 17.347 149.188 16.9738 149.189 16.5425C149.189 15.7639 148.592 15.1916 147.397 14.8256L145.307 14.303C142.935 13.7059 141.75 12.5609 141.749 10.8682C141.749 9.75711 142.201 8.86539 143.106 8.19305C144.01 7.5207 145.167 7.18487 146.576 7.18555C147.655 7.18555 148.63 7.44267 149.5 7.95692C150.371 8.47116 150.981 9.15958 151.329 10.0222L149.289 10.8682C149.055 10.3521 148.657 9.92773 148.157 9.66113C147.619 9.36731 147.015 9.21739 146.402 9.22594C145.835 9.21746 145.278 9.37299 144.798 9.67383C144.324 9.97242 144.087 10.3374 144.087 10.7687C144.087 11.4654 144.742 11.963 146.052 12.2616L147.894 12.7344C150.316 13.3316 151.527 14.5504 151.527 16.3907" fill="#5F6368"/>
<path id="Vector_7" d="M159.478 20.1744C158.583 20.1744 157.766 19.9836 157.028 19.6021C156.29 19.2205 155.721 18.7146 155.323 18.0842H155.221L155.323 19.7763V25.1509H153.034V7.58367H155.223V9.2757H155.325C155.723 8.64568 156.291 8.13973 157.03 7.75785C157.768 7.37598 158.585 7.18521 159.48 7.18555C161.089 7.18555 162.449 7.81591 163.561 9.07664C164.706 10.3543 165.278 11.8887 165.278 13.68C165.278 15.4885 164.706 17.0229 163.561 18.2833C162.45 19.544 161.089 20.1744 159.48 20.1744M159.107 18.0842C160.202 18.0842 161.123 17.6695 161.869 16.8401C162.614 16.0276 162.986 14.9742 162.986 13.68C162.986 12.403 162.614 11.3496 161.869 10.5198C161.124 9.69008 160.204 9.27537 159.107 9.2757C157.996 9.2757 157.067 9.69042 156.32 10.5198C155.59 11.3496 155.225 12.403 155.225 13.68C155.225 14.9739 155.59 16.0355 156.32 16.865C157.065 17.6775 157.994 18.0837 159.107 18.0837" fill="#5F6368"/>
<path id="Vector_8" d="M171.546 7.18605C173.239 7.18605 174.574 7.63801 175.552 8.54191C176.53 9.44582 177.02 10.6859 177.02 12.2621V19.7778H174.831V18.0847H174.729C173.784 19.4782 172.523 20.1749 170.947 20.1749C169.603 20.1749 168.479 19.7768 167.575 18.9805C166.671 18.1843 166.219 17.1889 166.219 15.9946C166.219 14.7342 166.696 13.7306 167.65 12.9837C168.603 12.2369 169.877 11.8637 171.47 11.864C172.829 11.864 173.949 12.1129 174.829 12.6105V12.0859C174.829 11.2897 174.514 10.6136 173.883 10.0577C173.276 9.51104 172.485 9.21345 171.669 9.22441C170.391 9.22441 169.379 9.76354 168.633 10.8418L166.617 9.57227C167.728 7.98112 169.37 7.18555 171.543 7.18555M168.585 16.0469C168.585 16.6441 168.838 17.1417 169.344 17.5398C169.85 17.938 170.442 18.137 171.121 18.137C172.083 18.137 172.941 17.7804 173.696 17.0671C174.451 16.3538 174.829 15.516 174.829 14.5539C174.115 13.9902 173.12 13.7082 171.843 13.7079C170.913 13.7079 170.138 13.9318 169.516 14.3797C168.894 14.8276 168.584 15.3833 168.585 16.0469Z" fill="#5F6368"/>
<path id="Vector_9" d="M184.782 20.1744C182.973 20.1744 181.472 19.5606 180.278 18.333C179.1 17.0727 178.511 15.5216 178.511 13.68C178.511 11.8058 179.1 10.2548 180.278 9.02688C181.472 7.79932 182.974 7.18555 184.782 7.18555C186.026 7.18555 187.112 7.4965 188.041 8.1184C188.97 8.7403 189.667 9.59884 190.132 10.694L188.043 11.5649C187.396 10.0388 186.26 9.2757 184.634 9.2757C183.589 9.2757 182.685 9.69888 181.922 10.5452C181.176 11.3916 180.802 12.4367 180.802 13.6805C180.802 14.9243 181.176 15.9693 181.922 16.8157C182.685 17.6621 183.589 18.0852 184.634 18.0852C186.31 18.0852 187.488 17.3222 188.168 15.796L190.208 16.6669C189.76 17.7618 189.059 18.6201 188.105 19.242C187.151 19.8639 186.044 20.1751 184.784 20.1754" fill="#5F6368"/>
<path id="Vector_10" d="M197.101 20.1744C195.309 20.1744 193.833 19.5606 192.671 18.333C191.51 17.1055 190.93 15.5545 190.93 13.68C190.93 11.8224 191.494 10.2754 192.622 9.03906C193.75 7.80271 195.193 7.18487 196.951 7.18555C198.759 7.18555 200.198 7.77021 201.268 8.93953C202.338 10.1089 202.872 11.7471 202.871 13.8541L202.847 14.103H193.269C193.303 15.2973 193.701 16.2595 194.463 16.9894C195.225 17.7193 196.138 18.0842 197.2 18.0842C198.66 18.0842 199.804 17.3543 200.634 15.8945L202.674 16.8898C202.154 17.89 201.365 18.7257 200.397 19.3035C199.427 19.8837 198.328 20.174 197.101 20.1744ZM193.444 12.2119H200.434C200.366 11.3655 200.022 10.6646 199.401 10.109C198.78 9.55348 197.947 9.2757 196.901 9.2757C196.038 9.2757 195.295 9.54112 194.673 10.072C194.051 10.6028 193.641 11.3161 193.442 12.2119" fill="#5F6368"/>
</g>
</g>
</g>
<g id="Clip path group_2">
<mask id="mask1_0_1" style="mask-type:luminance" maskUnits="userSpaceOnUse" x="0" y="0" width="203" height="26">
<g id="a_2">
<path id="Vector_11" d="M202.922 0H0V26H202.922V0Z" fill="white"/>
</g>
</mask>
<g mask="url(#mask1_0_1)">
<g id="Group_2">
<path id="Vector_12" d="M10.2781 11.963V9.20766H19.5C19.6024 9.76492 19.6522 10.3306 19.6488 10.8971C19.6488 12.9629 19.0836 15.5213 17.2621 17.3413C15.4913 19.1862 13.229 20.1703 10.2289 20.1703C4.67187 20.1703 0 15.6442 0 10.0852C0 4.52613 4.67188 0 10.2299 0C13.3047 0 15.4923 1.20555 17.1402 2.77977L15.1973 4.72266C14.0156 3.61613 12.4186 2.75488 10.2299 2.75488C6.17246 2.75488 3.00016 6.02621 3.00016 10.0852C3.00016 14.1441 6.17246 17.418 10.2299 17.418C12.8614 17.418 14.3614 16.3602 15.3202 15.4009C16.1017 14.6194 16.6166 13.4982 16.8162 11.9656L10.2781 11.963Z" fill="#5F6368"/>
<path id="Vector_13" d="M33.7005 13.6755C33.7005 17.4171 30.7734 20.1695 27.1842 20.1695C23.595 20.1695 20.668 17.4171 20.668 13.6755C20.668 9.91215 23.5945 7.18164 27.1852 7.18164C30.776 7.18164 33.7015 9.91215 33.7015 13.6755M30.8491 13.6755C30.8491 11.3396 29.1525 9.74 27.1852 9.74C25.218 9.74 23.5209 11.3386 23.5209 13.6755C23.5209 15.9876 25.2175 17.6111 27.1852 17.6111C29.153 17.6111 30.8491 15.9861 30.8491 13.6755Z" fill="#5F6368"/>
<path id="Vector_14" d="M47.9168 13.6755C47.9168 17.4171 44.9923 20.1695 41.4005 20.1695C37.8088 20.1695 34.8838 17.4171 34.8838 13.6755C34.8838 9.91215 37.8098 7.18164 41.4005 7.18164C44.9913 7.18164 47.9168 9.91215 47.9168 13.6755ZM45.0644 13.6755C45.0644 11.3396 43.3678 9.74 41.4005 9.74C39.4333 9.74 37.7362 11.3386 37.7362 13.6755C37.7362 15.9876 39.4328 17.6111 41.4005 17.6111C43.3683 17.6111 45.0644 15.9861 45.0644 13.6755Z" fill="#5F6368"/>
<path id="Vector_15" d="M61.5435 7.5752V19.2346C61.5435 24.0314 58.7155 25.9991 55.371 25.9991C52.2226 25.9991 50.3295 23.8836 49.6165 22.1621L52.1017 21.1287C52.544 22.1865 53.6252 23.4408 55.3725 23.4408C57.512 23.4408 58.8399 22.1123 58.8399 19.6281V18.6937H58.7414C58.102 19.4809 56.8726 20.1695 55.3233 20.1695C52.0768 20.1695 49.1016 17.3404 49.1016 13.7004C49.1016 10.035 52.0768 7.18164 55.3233 7.18164C56.8726 7.18164 58.102 7.87023 58.7414 8.63297H58.8399V7.5752H61.5435ZM59.0349 13.7004C59.0349 11.4127 57.5114 9.73949 55.5675 9.73949C53.6003 9.73949 51.9524 11.4122 51.9524 13.7004C51.9524 15.9632 53.6003 17.6106 55.5675 17.6106C57.5104 17.6106 59.0349 15.9627 59.0349 13.7004Z" fill="#5F6368"/>
<path id="Vector_16" d="M66.3748 0.751953H63.5225V19.7761H66.3748V0.751953Z" fill="#5F6368"/>
<path id="Vector_17" d="M77.3908 15.8155L79.6038 17.2912C78.8929 18.3489 77.1694 20.1695 74.1936 20.1695C70.5049 20.1695 67.7505 17.3161 67.7505 13.6755C67.7505 9.81617 70.5297 7.18164 73.8737 7.18164C77.243 7.18164 78.8904 9.86289 79.4317 11.3142L79.7267 12.0521L71.0431 15.6433C71.7074 16.9469 72.7403 17.6111 74.1916 17.6111C75.6429 17.6111 76.6509 16.9002 77.3908 15.8155ZM70.5785 13.4795L76.3823 11.0695C76.0624 10.257 75.1036 9.69227 73.9722 9.69227C72.5214 9.69227 70.5049 10.9714 70.5785 13.4805" fill="#5F6368"/>
</g>
</g>
</g>
</g>
</g>
</g>
</g>
</g>
</g>
</g>
</g>
<rect x="-43.5" y="-140.5" width="1762" height="739" rx="4.5" stroke="#9747FF" stroke-dasharray="10 5"/>
</g>
</g>
</g>
</g>
</g>
<defs>
<filter id="filter0_dd_0_1" x="-64" y="-153" width="900" height="780" filterUnits="userSpaceOnUse" color-interpolation-filters="sRGB">
<feFlood flood-opacity="0" result="BackgroundImageFix"/>
<feColorMatrix in="SourceAlpha" type="matrix" values="0 0 0 0 0 0 0 0 0 0 0 0 0 0 0 0 0 0 127 0" result="hardAlpha"/>
<feOffset dy="8"/>
<feGaussianBlur stdDeviation="20"/>
<feColorMatrix type="matrix" values="0 0 0 0 0 0 0 0 0 0 0 0 0 0 0 0 0 0 0.15 0"/>
<feBlend mode="normal" in2="BackgroundImageFix" result="effect1_dropShadow_0_1"/>
<feColorMatrix in="SourceAlpha" type="matrix" values="0 0 0 0 0 0 0 0 0 0 0 0 0 0 0 0 0 0 127 0" result="hardAlpha"/>
<feOffset/>
<feGaussianBlur stdDeviation="2"/>
<feColorMatrix type="matrix" values="0 0 0 0 0 0 0 0 0 0 0 0 0 0 0 0 0 0 0.1 0"/>
<feBlend mode="normal" in2="effect1_dropShadow_0_1" result="effect2_dropShadow_0_1"/>
<feBlend mode="normal" in="SourceGraphic" in2="effect2_dropShadow_0_1" result="shape"/>
</filter>
<clipPath id="clip0_0_1">
<rect x="-44" y="-141" width="1763" height="740" rx="5" fill="white"/>
</clipPath>
<clipPath id="clip1_0_1">
<rect width="202.873" height="26" fill="white"/>
</clipPath>
</defs>
</svg>
