<svg width="63" height="64" viewBox="0 0 63 64" fill="none" xmlns="http://www.w3.org/2000/svg">
<rect opacity="0.3" width="64" height="64" rx="6" fill="white"/>
<mask id="mask0_390_36178" style="mask-type:alpha" maskUnits="userSpaceOnUse" x="15" y="15" width="34" height="34">
<path fill-rule="evenodd" clip-rule="evenodd" d="M31.9997 15.3333C22.7997 15.3333 15.333 22.8 15.333 32C15.333 41.2 22.7997 48.6666 31.9997 48.6666C41.1997 48.6666 48.6663 41.2 48.6663 32C48.6663 22.8 41.1997 15.3333 31.9997 15.3333ZM33.6663 43.6666H30.333V40.3333H33.6663V43.6666ZM37.1163 30.75L35.6163 32.2833C34.4163 33.5 33.6663 34.5 33.6663 37H30.333V36.1666C30.333 34.3333 31.083 32.6666 32.283 31.45L34.3497 29.35C34.9663 28.75 35.333 27.9166 35.333 27C35.333 25.1666 33.833 23.6666 31.9997 23.6666C30.1663 23.6666 28.6663 25.1666 28.6663 27H25.333C25.333 23.3166 28.3163 20.3333 31.9997 20.3333C35.683 20.3333 38.6663 23.3166 38.6663 27C38.6663 28.4666 38.0663 29.8 37.1163 30.75Z" fill="white"/>
</mask>
<g mask="url(#mask0_390_36178)">
<rect x="-9.66699" y="-9.66669" width="83.3333" height="83.3333" fill="#B83A3A"/>
<mask id="mask1_390_36178" style="mask-type:alpha" maskUnits="userSpaceOnUse" x="-10" y="-10" width="84" height="84">
<rect x="-9.66699" y="-9.66669" width="83.3333" height="83.3333" fill="white"/>
</mask>
<g mask="url(#mask1_390_36178)">
</g>
</g>
</svg>
