<svg width="62" height="64" viewBox="0 0 62 64" fill="none" xmlns="http://www.w3.org/2000/svg">
<path opacity="0.4" fill-rule="evenodd" clip-rule="evenodd" d="M6 -1.52588e-05C2.68629 -1.52588e-05 0 2.68628 0 5.99998V58C0 61.3137 2.68629 64 6 64H58C61.3137 64 64 61.3137 64 58V5.99998C64 2.68628 61.3137 -1.52588e-05 58 -1.52588e-05H6ZM46.4085 35.2421L41.1363 36.9281L46.7492 18.1347L53.3247 38.6965C55.7457 46.2672 51.4137 54.4174 43.6489 56.9005C35.8841 59.3836 27.627 55.2593 25.206 47.6886L18.5049 26.7339C14.5909 26.7823 10.9666 24.3627 9.7398 20.5264C8.22662 15.7946 10.9342 10.7009 15.7871 9.14895C20.6401 7.59703 25.8008 10.1746 27.314 14.9064C28.5408 18.7427 26.993 22.8162 23.7771 25.0479L30.4782 46.0026C31.9889 50.7267 37.1599 53.3094 42.0051 51.76C46.8503 50.2106 49.5631 45.1066 48.0524 40.3826L46.4085 35.2421ZM15.0121 18.8404C15.6173 20.7331 17.6817 21.7641 19.6228 21.1433C21.5639 20.5226 22.647 18.4851 22.0417 16.5924C21.4365 14.6996 19.372 13.6687 17.431 14.2894C15.4899 14.9101 14.4068 16.9477 15.0121 18.8404Z" fill="white"/>
</svg>
