<svg width="64" height="64" viewBox="0 0 64 64" fill="none" xmlns="http://www.w3.org/2000/svg">
<rect opacity="0.3" x="0.333496" width="64" height="64" rx="6" fill="white"/>
<mask id="mask0_1_36882" style="mask-type:alpha" maskUnits="userSpaceOnUse" x="19" y="13" width="27" height="38">
<path fill-rule="evenodd" clip-rule="evenodd" d="M32.3333 43.6667C30.5 43.6667 29 45.1667 29 47C29 48.8334 30.5 50.3334 32.3333 50.3334C34.1667 50.3334 35.6667 48.8334 35.6667 47C35.6667 45.1667 34.1667 43.6667 32.3333 43.6667ZM22.3333 13.6667C20.5 13.6667 19 15.1667 19 17C19 18.8334 20.5 20.3334 22.3333 20.3334C24.1667 20.3334 25.6667 18.8334 25.6667 17C25.6667 15.1667 24.1667 13.6667 22.3333 13.6667ZM22.3333 23.6667C20.5 23.6667 19 25.1667 19 27C19 28.8334 20.5 30.3334 22.3333 30.3334C24.1667 30.3334 25.6667 28.8334 25.6667 27C25.6667 25.1667 24.1667 23.6667 22.3333 23.6667ZM22.3333 33.6667C20.5 33.6667 19 35.1667 19 37C19 38.8334 20.5 40.3334 22.3333 40.3334C24.1667 40.3334 25.6667 38.8334 25.6667 37C25.6667 35.1667 24.1667 33.6667 22.3333 33.6667ZM42.3333 20.3334C44.1667 20.3334 45.6667 18.8334 45.6667 17C45.6667 15.1667 44.1667 13.6667 42.3333 13.6667C40.5 13.6667 39 15.1667 39 17C39 18.8334 40.5 20.3334 42.3333 20.3334ZM32.3333 33.6667C30.5 33.6667 29 35.1667 29 37C29 38.8334 30.5 40.3334 32.3333 40.3334C34.1667 40.3334 35.6667 38.8334 35.6667 37C35.6667 35.1667 34.1667 33.6667 32.3333 33.6667ZM42.3333 33.6667C40.5 33.6667 39 35.1667 39 37C39 38.8334 40.5 40.3334 42.3333 40.3334C44.1667 40.3334 45.6667 38.8334 45.6667 37C45.6667 35.1667 44.1667 33.6667 42.3333 33.6667ZM42.3333 23.6667C40.5 23.6667 39 25.1667 39 27C39 28.8334 40.5 30.3334 42.3333 30.3334C44.1667 30.3334 45.6667 28.8334 45.6667 27C45.6667 25.1667 44.1667 23.6667 42.3333 23.6667ZM32.3333 23.6667C30.5 23.6667 29 25.1667 29 27C29 28.8334 30.5 30.3334 32.3333 30.3334C34.1667 30.3334 35.6667 28.8334 35.6667 27C35.6667 25.1667 34.1667 23.6667 32.3333 23.6667ZM32.3333 13.6667C30.5 13.6667 29 15.1667 29 17C29 18.8334 30.5 20.3334 32.3333 20.3334C34.1667 20.3334 35.6667 18.8334 35.6667 17C35.6667 15.1667 34.1667 13.6667 32.3333 13.6667Z" fill="white"/>
</mask>
<g mask="url(#mask0_1_36882)">
<rect x="-9.33301" y="-9.66669" width="83.3333" height="83.3333" fill="#B83A3A"/>
<mask id="mask1_1_36882" style="mask-type:alpha" maskUnits="userSpaceOnUse" x="-10" y="-10" width="85" height="84">
<rect x="-9.33301" y="-9.66669" width="83.3333" height="83.3333" fill="white"/>
</mask>
<g mask="url(#mask1_1_36882)">
</g>
</g>
</svg>
