<svg width="62" height="64" viewBox="0 0 62 64" fill="none" xmlns="http://www.w3.org/2000/svg">
<path opacity="0.4" fill-rule="evenodd" clip-rule="evenodd" d="M6 0C2.68629 0 0 2.68629 0 6V58C0 61.3137 2.68629 64 6 64H58C61.3137 64 64 61.3137 64 58V6C64 2.68629 61.3137 0 58 0H6ZM22.4631 12.6852C23.6926 12.3557 24.9563 13.0854 25.2857 14.3148L25.8822 16.541C26.2117 17.7704 25.4821 19.0342 24.2526 19.3636C23.0231 19.6931 21.7594 18.9634 21.4299 17.734L20.8334 15.5078C20.504 14.2784 21.2336 13.0146 22.4631 12.6852ZM12.6852 22.4631C13.0146 21.2336 14.2783 20.504 15.5078 20.8335L17.734 21.43C18.9634 21.7594 19.6931 23.0231 19.3636 24.2526C19.0342 25.4821 17.7704 26.2117 16.541 25.8823L14.3148 25.2858C13.0853 24.9563 12.3557 23.6926 12.6852 22.4631ZM35.8201 16.2641C36.72 17.1642 36.72 18.6234 35.8201 19.5235L34.1904 21.1531C33.2905 22.0531 31.8311 22.0531 30.931 21.1531C30.031 20.2531 30.031 18.7938 30.931 17.8938L32.5607 16.2641C33.4608 15.3641 34.9201 15.3641 35.8201 16.2641ZM21.1531 34.1905L19.5235 35.8201C18.6234 36.7201 17.1642 36.7201 16.2641 35.8201C15.3641 34.9199 15.3641 33.4608 16.2641 32.5607L17.8938 30.9311C18.7938 30.031 20.2531 30.031 21.1531 30.9311C22.0531 31.8311 22.0531 33.2903 21.1531 34.1905ZM24.4127 24.4126C25.0646 23.7607 26.0423 23.56 26.8983 23.9024L49.945 33.1211C50.7879 33.4583 51.3541 34.2585 51.3919 35.1651C51.4297 36.072 50.9317 36.9165 50.1199 37.3223L43.7611 40.5016L50.7189 47.4595C51.6189 48.3595 51.6189 49.8188 50.7189 50.7188C49.8187 51.6188 48.3596 51.6188 47.4594 50.7188L40.5018 43.7612L37.3225 50.1198C36.9166 50.9315 36.072 51.4295 35.1653 51.3918C34.2584 51.3542 33.4582 50.7877 33.1213 49.9451L23.9025 26.8982C23.5601 26.0422 23.7608 25.0645 24.4127 24.4126Z" fill="white"/>
</svg>
