<svg width="58" height="64" viewBox="0 0 58 64" fill="none" xmlns="http://www.w3.org/2000/svg">
<rect opacity="0.4" width="64" height="64" rx="6" fill="white"/>
<path d="M51.5495 25.271L32.1872 38.6232C32.0524 38.7159 31.8922 38.7665 31.7405 38.7665C31.5887 38.7665 31.4286 38.7159 31.2937 38.6232L11.9314 25.271C11.1643 25.8779 10.667 26.8136 10.667 27.8757V48.0809C10.667 49.9101 12.1506 51.3937 13.9797 51.3937H49.4928C51.322 51.3937 52.8055 49.9101 52.8055 48.0809V27.8673C52.814 26.8136 52.3166 25.8779 51.5495 25.271ZM25.9326 38.2523L16.1461 48.0388C16.0702 48.1147 15.9691 48.1568 15.8679 48.1568C15.7668 48.1568 15.6656 48.1147 15.5898 48.0388C15.438 47.8871 15.438 47.6342 15.5898 47.4825L25.3763 37.6959C25.528 37.5442 25.7809 37.5442 25.9326 37.6959C26.0928 37.8477 26.0928 38.1005 25.9326 38.2523ZM47.8912 48.0388C47.8153 48.1147 47.7142 48.1568 47.613 48.1568C47.5119 48.1568 47.4107 48.1147 47.3349 48.0388L37.5483 38.2523C37.3966 38.1005 37.3966 37.8477 37.5483 37.6959C37.7001 37.5442 37.9529 37.5442 38.1047 37.6959L47.8912 47.4825C48.0429 47.6342 48.0429 47.8871 47.8912 48.0388Z" fill="#E6A23C"/>
<path d="M40.8452 28.0527H22.6377V29.2329H40.8452V28.0527Z" fill="#E6A23C"/>
<path d="M22.6377 30.7333L23.8431 31.5678H39.6398L40.8452 30.7333V30.3877H22.6377V30.7333Z" fill="#E6A23C"/>
<path d="M40.8452 25.7178H22.6377V26.8979H40.8452V25.7178Z" fill="#E6A23C"/>
<path d="M49.2741 24.2259L33.0053 12.9979C32.2382 12.4753 31.2351 12.4753 30.4681 12.9979L14.2078 24.2259C13.9633 24.3945 13.9633 24.7485 14.2078 24.9171L19.6026 28.6429V22.0848H43.8793V28.6429L49.2741 24.9171C49.5185 24.7485 49.5185 24.3945 49.2741 24.2259Z" fill="#E6A23C"/>
<path d="M25.5117 32.7144L27.2229 33.8945H36.2592L37.9704 32.7144H25.5117Z" fill="#E6A23C"/>
<path d="M34.5902 35.0493H28.9004L30.4767 36.1367C30.5273 36.1704 30.5694 36.1957 30.62 36.2294H32.8706C32.9212 36.2041 32.9634 36.1704 33.0139 36.1367L34.5902 35.0493Z" fill="#E6A23C"/>
</svg>
