<svg xmlns="http://www.w3.org/2000/svg" width="61" height="64" viewBox="0 0 61 64" fill="none">
    <rect opacity="0.3" width="64" height="64" rx="6" fill="white"/>
    <svg x="11" y="12" width="40" height="40" viewBox="0 0 40 40" fill="none" xmlns="http://www.w3.org/2000/svg">
        <g id="quishing" clip-path="url(#clip0_4769_29250)">
            <path id="Vector" d="M6.22211 4.44531C5.75062 4.44531 5.29843 4.63261 4.96504 4.96601C4.63164 5.29941 4.44434 5.75159 4.44434 6.22309V13.3342H13.3332V4.44531H6.22211ZM11.111 11.112H6.66656V6.66753H11.111V11.112Z" fill="#F56C6C"/>
            <path id="Vector_2" d="M4.44434 33.7791C4.44434 34.2506 4.63164 34.7028 4.96504 35.0362C5.29843 35.3696 5.75062 35.5569 6.22211 35.5569H13.3332V26.668H4.44434V33.7791ZM6.66656 28.8902H11.111V33.3346H6.66656V28.8902Z" fill="#F56C6C"/>
            <path id="Vector_3" d="M26.667 35.5569H33.7781C34.2496 35.5569 34.7018 35.3696 35.0352 35.0362C35.3686 34.7028 35.5559 34.2506 35.5559 33.7791V26.668H26.667V35.5569ZM28.8892 28.8902H33.3337V33.3346H28.8892V28.8902Z" fill="#F56C6C"/>
            <path id="Vector_4" d="M33.7781 4.44531H26.667V13.3342H35.5559V6.22309C35.5559 5.75159 35.3686 5.29941 35.0352 4.96601C34.7018 4.63261 34.2496 4.44531 33.7781 4.44531ZM33.3337 11.112H28.8892V6.66753H33.3337V11.112Z" fill="#F56C6C"/>
            <path id="Vector_5" d="M22.2218 11.1128V8.89062H17.7773V13.3351H19.9996V11.1128H22.2218Z" fill="#F56C6C"/>
            <path id="Vector_6" d="M13.333 13.332H15.5552V15.5543H13.333V13.332Z" fill="#F56C6C"/>
            <path id="Vector_7" d="M15.5557 15.5547H20.0001V17.7769H15.5557V15.5547Z" fill="#F56C6C"/>
            <path id="Vector_8" d="M22.2223 6.66753V8.88976H24.4446V4.44531H15.5557V8.88976H17.7779V6.66753H22.2223Z" fill="#F56C6C"/>
            <path id="Vector_9" d="M4.44434 15.5547H6.66656V19.9991H4.44434V15.5547Z" fill="#F56C6C"/>
            <path id="Vector_10" d="M13.3332 17.7769V19.9991H11.111V15.5547H8.88878V19.9991H6.66656V22.2214H4.44434V24.4436H8.88878V22.2214H11.111V24.4436H13.3332V22.2214H15.5554V17.7769H13.3332Z" fill="#F56C6C"/>
            <path id="Vector_11" d="M22.2222 17.776H24.4444V19.9983H26.6667V17.776H28.8889V15.5538H24.4444V11.1094H22.2222V13.3316H20V15.5538H22.2222V17.776Z" fill="#F56C6C"/>
            <path id="Vector_12" d="M20.0001 33.3316H15.5557V35.5538H24.4446V33.3316H22.2223V31.1094H20.0001V33.3316Z" fill="#F56C6C"/>
            <path id="Vector_13" d="M24.444 22.2218V19.9996H22.2218V17.7773H19.9996V19.9996H17.7773V22.2218H19.9996V24.444H22.2218V22.2218H24.444Z" fill="#F56C6C"/>
            <path id="Vector_14" d="M33.333 22.2227H35.5552V24.4449H33.333V22.2227Z" fill="#F56C6C"/>
            <path id="Vector_15" d="M24.4443 22.2227H31.111V24.4449H24.4443V22.2227Z" fill="#F56C6C"/>
            <path id="Vector_16" d="M33.3331 15.5547H31.1109V17.7769H28.8887V19.9991H31.1109V22.2214H33.3331V19.9991H35.5553V17.7769H33.3331V15.5547Z" fill="#F56C6C"/>
            <path id="Vector_17" d="M22.2227 24.4453H24.4449V31.112H22.2227V24.4453Z" fill="#F56C6C"/>
            <path id="Vector_18" d="M15.5557 31.1115H17.7779V28.8893H20.0001V26.6671H17.7779V22.2227H15.5557V31.1115Z" fill="#F56C6C"/>
        </g>
        <defs>
            <clipPath id="clip0_4769_29250">
                <rect width="40" height="40" fill="white"/>
            </clipPath>
        </defs>
    </svg>

</svg>