<svg xmlns="http://www.w3.org/2000/svg" width="32" height="32" viewBox="0 0 32 32">
    <g fill="none" fill-rule="evenodd">
        <g fill-rule="nonzero">
            <g>
                <g>
                    <g>
                        <g>
                            <g>
                                <g transform="translate(-784 -1471) translate(96 186) translate(0 576) translate(2 40) translate(322 265) translate(204 404) translate(160)">
                                    <rect width="32" height="32" fill="#2A5B83" rx="16"/>
                                    <path fill="#FFF" d="M7.774 5.76c-.098.018-.195.02-.293.042-.908.207-1.571.948-1.7 1.868-.006.038-.015.066-.021.104v16.452c.019.103.039.211.062.315.201.887.946 1.563 1.848 1.679.043.005.083.014.126.02h16.408c.107-.017.21-.02.315-.042.836-.178 1.515-.88 1.679-1.721.017-.092.027-.182.042-.273V7.796c-.014-.09-.025-.163-.042-.252-.18-.918-.939-1.636-1.868-1.764-.039-.004-.066-.013-.104-.02H7.774zm13.493 1.657h1.93c.462.001.818.377.818.84v1.93c0 .435-.342.809-.776.82-.338.007-.67 0-1.007 0-.311 0-.633.02-.944.02-.382-.002-.682-.225-.798-.566-.03-.091-.062-.177-.062-.273-.005-.641 0-1.29 0-1.93 0-.464.377-.84.839-.84zM16 11.845c2.325-.001 4.205 1.916 4.155 4.24-.05 2.253-1.94 4.12-4.26 4.07-2.229-.048-4.083-1.894-4.05-4.217.032-2.262 1.883-4.094 4.155-4.093zM7.963 14.07h1.952c-.508 1.736-.362 3.4.504 4.994.581 1.07 1.415 1.903 2.475 2.497 2.099 1.178 4.696 1.053 6.673-.294.762-.52 1.388-1.164 1.868-1.95.48-.788.773-1.646.88-2.56.109-.916.026-1.805-.25-2.687h1.95v9.149c0 .44-.356.796-.796.796H8.78c-.436 0-.818-.36-.818-.796V14.07z"/>
                                </g>
                            </g>
                        </g>
                    </g>
                </g>
            </g>
        </g>
    </g>
</svg>
