<svg xmlns="http://www.w3.org/2000/svg" width="32" height="32" viewBox="0 0 32 32">
    <g fill="none" fill-rule="evenodd">
        <g fill-rule="nonzero">
            <g>
                <g>
                    <g>
                        <g>
                            <g>
                                <g transform="translate(-704 -1471) translate(96 186) translate(0 576) translate(2 40) translate(322 265) translate(204 404) translate(80)">
                                    <rect width="32" height="32" fill="#55ACEE" rx="16"/>
                                    <path fill="#FFF" d="M19.83 7.677c-2.27.057-4.09 1.915-4.09 4.2 0 .329.034.65.106.958-3.492-.175-6.588-1.848-8.66-4.39-.362.62-.57 1.343-.57 2.113 0 1.458.743 2.743 1.87 3.496-.688-.022-1.337-.211-1.904-.526v.054c0 2.036 1.45 3.732 3.372 4.119-.353.095-.724.147-1.108.147-.27 0-.533-.026-.79-.075.535 1.669 2.085 2.885 3.923 2.918-1.438 1.127-3.247 1.799-5.216 1.799-.339 0-.674-.019-1.003-.058 1.86 1.193 4.067 1.888 6.44 1.888 7.729 0 11.955-6.403 11.955-11.955 0-.182-.003-.365-.011-.546.82-.591 1.533-1.331 2.096-2.174-.753.334-1.563.561-2.413.662.868-.52 1.534-1.343 1.848-2.325-.812.482-1.711.832-2.669 1.021-.766-.816-1.858-1.326-3.067-1.326h-.109z"/>
                                </g>
                            </g>
                        </g>
                    </g>
                </g>
            </g>
        </g>
    </g>
</svg>
