<svg width="82" height="32" viewBox="0 0 82 32" fill="none" xmlns="http://www.w3.org/2000/svg">
<path d="M16.8983 6.05686L18.1244 5.94959C18.8016 5.89035 19.3985 6.39126 19.4578 7.06841L19.9405 12.5858L17.4883 12.8003L16.8983 6.05686Z" fill="#5B3700"/>
<path d="M60.5316 3.47491C60.4724 2.79776 60.9733 2.2008 61.6505 2.14156L62.8765 2.03429L63.4665 8.77776L61.0143 8.9923L60.5316 3.47491Z" fill="#5B3700"/>
<path d="M3.41138 7.23682L16.8983 6.05686L18.6683 26.2873L5.18131 27.4672L8.58764 16.9766L3.41138 7.23682Z" fill="#905600"/>
<path d="M76.3635 0.854336L62.8765 2.03429L64.6465 22.2647L78.1334 21.0848L72.9571 11.345L76.3635 0.854336Z" fill="#905600"/>
<path d="M14.2622 11.2294C14.2029 10.5522 14.7038 9.95527 15.381 9.89602L65.0375 5.55164C65.7146 5.4924 66.3116 5.99331 66.3708 6.67046L67.9262 24.4487C67.9855 25.1259 67.4846 25.7228 66.8074 25.7821L17.1509 30.1264C16.4738 30.1857 15.8768 29.6848 15.8176 29.0076L14.2622 11.2294Z" fill="#D68100"/>
<path d="M24.8146 23.2786L25.7904 15.2556L27.9294 15.0684C28.2886 15.037 28.6308 15.0595 28.9561 15.1361C29.2849 15.2123 29.5607 15.3655 29.7835 15.5957C30.0061 15.8224 30.1362 16.1513 30.1739 16.5823C30.2006 16.8876 30.1738 17.1813 30.0935 17.4635C30.0165 17.7417 29.8828 17.9922 29.6924 18.2152C29.5019 18.4382 29.2518 18.6193 28.9418 18.7587L28.9456 18.8018C29.1918 18.8852 29.3977 19.0463 29.5634 19.2852C29.7287 19.5205 29.8268 19.8142 29.8576 20.1662C29.8969 20.6152 29.8301 21.0517 29.6573 21.4759C29.4878 21.8961 29.2094 22.2516 28.8222 22.5425C28.435 22.8334 27.9379 23.0053 27.3309 23.0585L24.8146 23.2786ZM26.8498 21.5315L27.1839 21.5022C27.3778 21.4853 27.5346 21.4155 27.6542 21.2928C27.7734 21.1665 27.8556 21.0091 27.9006 20.8206C27.9492 20.6317 27.9644 20.4332 27.9462 20.2248C27.9292 20.0308 27.8752 19.889 27.7841 19.7992C27.6963 19.7056 27.5715 19.6658 27.4099 19.6799L27.0705 19.7096L26.8498 21.5315ZM27.2494 18.2172L27.5457 18.1913C27.7109 18.1768 27.8483 18.1123 27.9577 17.9978C28.0671 17.8832 28.1471 17.7423 28.1976 17.575C28.2478 17.4041 28.2654 17.2325 28.2503 17.0601C28.2364 16.902 28.1846 16.7853 28.0948 16.7099C28.0049 16.6345 27.8774 16.6041 27.7121 16.6185L27.4481 16.6416L27.2494 18.2172Z" fill="#383B41" fill-opacity="0.72"/>
<path d="M30.526 22.7789L31.5017 14.7559L33.2798 14.6003C34.0916 14.5293 34.6984 14.6391 35.1003 14.9297C35.5018 15.2167 35.7288 15.6602 35.7813 16.26C35.8206 16.709 35.7947 17.1167 35.7037 17.483C35.6163 17.849 35.4724 18.1692 35.272 18.4437C35.0713 18.7147 34.826 18.9316 34.5362 19.0945L35.6662 22.3292L33.6241 22.5079L32.8401 19.6283L32.7162 19.6392L32.3687 22.6177L30.526 22.7789ZM32.9202 18.1228L33.0764 18.1092C33.2309 18.0957 33.3603 18.0445 33.4648 17.9558C33.5689 17.8634 33.6511 17.7476 33.7113 17.6084C33.7715 17.4692 33.8126 17.319 33.8347 17.1579C33.8568 16.9967 33.8611 16.8388 33.8476 16.6844C33.8309 16.494 33.7753 16.3541 33.6806 16.2646C33.5859 16.1752 33.4487 16.1383 33.2691 16.1541L33.1506 16.1644L32.9202 18.1228Z" fill="#383B41" fill-opacity="0.72"/>
<path d="M38.8438 22.1598C38.323 22.2054 37.8838 22.1497 37.5262 21.9927C37.1719 21.8319 36.895 21.563 36.6955 21.1859C36.4957 20.8052 36.3689 20.3077 36.3152 19.6935C36.279 19.2804 36.2782 18.857 36.3126 18.4233C36.3471 17.9895 36.4166 17.5636 36.5212 17.1454C36.629 16.7234 36.7717 16.3272 36.9492 15.957C37.1268 15.5867 37.3403 15.2549 37.5897 14.9617C37.8391 14.6684 38.1243 14.4317 38.4451 14.2516C38.7696 14.0712 39.1294 13.9637 39.5245 13.9291C40.3183 13.8597 40.9129 14.0357 41.3081 14.4572C41.7066 14.8748 41.944 15.52 42.0204 16.3928C42.0512 16.7449 42.0538 17.1265 42.0282 17.5377C42.0059 17.9451 41.9499 18.359 41.86 18.7795C41.7698 19.1964 41.6439 19.5983 41.4823 19.9853C41.3206 20.3722 41.1161 20.7231 40.8685 21.0379C40.6243 21.3489 40.3335 21.6042 39.9963 21.8038C39.6626 22.0031 39.2785 22.1218 38.8438 22.1598ZM38.8294 20.5051C38.9982 20.4903 39.1488 20.412 39.2812 20.2701C39.4171 20.1279 39.5349 19.9439 39.6346 19.718C39.734 19.4885 39.8166 19.2333 39.8825 18.9525C39.9521 18.6713 40.0048 18.3844 40.0407 18.0917C40.0763 17.7954 40.0985 17.5111 40.1072 17.2389C40.1157 16.9631 40.1106 16.7192 40.0921 16.5073C40.0626 16.1696 39.9976 15.9237 39.8973 15.7696C39.7966 15.6119 39.6672 15.54 39.5092 15.5538C39.3404 15.5686 39.1898 15.6469 39.0574 15.7888C38.9247 15.9271 38.8069 16.1111 38.7039 16.3409C38.6043 16.5668 38.5213 16.8184 38.4551 17.0957C38.3888 17.3729 38.3361 17.6599 38.2969 17.9565C38.261 18.2492 38.2387 18.5317 38.2299 18.8039C38.2211 19.0761 38.2262 19.32 38.245 19.5355C38.2692 19.8121 38.3057 20.0225 38.3545 20.1666C38.4066 20.3068 38.4727 20.4006 38.5529 20.4479C38.633 20.4951 38.7252 20.5142 38.8294 20.5051Z" fill="#383B41" fill-opacity="0.72"/>
<path d="M42.4336 21.7371L43.4094 13.7141L45.4514 13.5355L46.6587 17.9633L46.6964 17.96C46.7081 17.7635 46.7202 17.5706 46.7326 17.3813C46.7483 17.1881 46.7631 17.0059 46.7771 16.8345C46.7946 16.6629 46.8105 16.5131 46.8246 16.3852L47.1918 13.3832L48.9268 13.2314L47.951 21.2544L45.8982 21.434L44.6728 16.8612L44.6513 16.863C44.6412 17.0377 44.6305 17.2051 44.6192 17.3654C44.6115 17.5253 44.603 17.6762 44.5937 17.8182C44.5844 17.9602 44.5743 18.0932 44.5634 18.2172C44.5523 18.3376 44.5418 18.4453 44.532 18.5403L44.1524 21.5868L42.4336 21.7371Z" fill="#383B41" fill-opacity="0.72"/>
<path d="M48.7377 21.1856L48.8886 19.8694L51.7868 14.5828L49.5777 14.7761L49.7727 13.1574L54.0831 12.7803L53.9318 14.0911L51.0267 19.362L53.3652 19.1574L53.1613 20.7986L48.7377 21.1856Z" fill="#383B41" fill-opacity="0.72"/>
<path d="M53.9533 20.7293L54.9291 12.7063L58.5067 12.3933L58.3117 14.012L56.5822 14.1633L56.3941 15.6131L58.0051 15.4721L57.8048 17.0913L56.2045 17.2313L55.9838 18.9283L57.7295 18.7756L57.5256 20.4168L53.9533 20.7293Z" fill="#383B41" fill-opacity="0.72"/>
</svg>
