<svg width="73" height="86" viewBox="0 0 73 86" fill="none" xmlns="http://www.w3.org/2000/svg">
<path d="M52.1667 10H20.1667V13.9974L31.7867 22.7116C24.4467 25.13 20.4467 33.0448 22.8667 40.38C25.2867 47.7152 33.1667 51.7126 40.5467 49.2941C47.8867 46.8757 51.8867 38.9809 49.4667 31.6258C48.0667 27.4085 44.7667 24.0907 40.5467 22.7116L52.1667 13.9974V10Z" fill="#383B41"/>
<path d="M36.1965 20.033C38.5299 20.0331 40.7833 20.8831 42.5355 22.424L42.9975 22.859L45.0915 24.953C45.6662 25.5239 46.4166 25.8843 47.2215 25.976L47.6265 26H50.6265C53.0782 25.9998 55.437 26.9377 57.2192 28.6212C59.0015 30.3047 60.0721 32.6063 60.2115 35.054L60.2265 35.6V38.6C60.2265 39.41 60.5025 40.199 61.0005 40.829L61.2705 41.129L63.3615 43.223C65.0947 44.9463 66.1052 47.2658 66.1872 49.7086C66.2691 52.1513 65.4163 54.5333 63.8025 56.369L63.3675 56.831L61.2735 58.925C60.7026 59.4996 60.3422 60.2501 60.2505 61.055L60.2265 61.46V64.46C60.2267 66.9116 59.2888 69.2704 57.6053 71.0527C55.9218 72.8349 53.6202 73.9055 51.1725 74.045L50.6265 74.06H47.6265C46.8177 74.0602 46.0325 74.3329 45.3975 74.834L45.0975 75.104L43.0035 77.195C41.2802 78.9281 38.9607 79.9387 36.5179 80.0206C34.0752 80.1026 31.6931 79.2497 29.8575 77.636L29.3955 77.201L27.3015 75.107C26.7268 74.536 25.9764 74.1756 25.1715 74.084L24.7665 74.06H21.7665C19.3149 74.0601 16.9561 73.1223 15.1738 71.4387C13.3916 69.7552 12.321 67.4536 12.1815 65.006L12.1665 64.46V61.46C12.1663 60.6511 11.8936 59.8659 11.3925 59.231L11.1225 58.931L9.03152 56.837C7.29836 55.1136 6.28779 52.7941 6.20584 50.3514C6.1239 47.9086 6.97675 45.5266 8.59052 43.691L9.02552 43.229L11.1195 41.135C11.6905 40.5603 12.0509 39.8098 12.1425 39.005L12.1665 38.6V35.6L12.1815 35.054C12.3155 32.7003 13.3108 30.4782 14.9778 28.8112C16.6448 27.1442 18.8669 26.1489 21.2205 26.015L21.7665 26H24.7665C25.5754 25.9997 26.3606 25.727 26.9955 25.226L27.2955 24.956L29.3895 22.865C30.2815 21.9676 31.3421 21.2555 32.5103 20.7695C33.6785 20.2834 34.9313 20.0331 36.1965 20.033Z" fill="#FFD100"/>
<mask id="mask0_4213_935" style="mask-type:alpha" maskUnits="userSpaceOnUse" x="6" y="20" width="61" height="61">
<path d="M36.1965 20.033C38.5299 20.0331 40.7833 20.8831 42.5355 22.424L42.9975 22.859L45.0915 24.953C45.6662 25.5239 46.4166 25.8843 47.2215 25.976L47.6265 26H50.6265C53.0782 25.9998 55.437 26.9377 57.2192 28.6212C59.0015 30.3047 60.0721 32.6063 60.2115 35.054L60.2265 35.6V38.6C60.2265 39.41 60.5025 40.199 61.0005 40.829L61.2705 41.129L63.3615 43.223C65.0947 44.9463 66.1052 47.2658 66.1872 49.7086C66.2691 52.1513 65.4163 54.5333 63.8025 56.369L63.3675 56.831L61.2735 58.925C60.7026 59.4996 60.3422 60.2501 60.2505 61.055L60.2265 61.46V64.46C60.2267 66.9116 59.2888 69.2704 57.6053 71.0527C55.9218 72.8349 53.6202 73.9055 51.1725 74.045L50.6265 74.06H47.6265C46.8177 74.0602 46.0325 74.3329 45.3975 74.834L45.0975 75.104L43.0035 77.195C41.2802 78.9281 38.9607 79.9387 36.5179 80.0206C34.0752 80.1026 31.6931 79.2497 29.8575 77.636L29.3955 77.201L27.3015 75.107C26.7268 74.536 25.9764 74.1756 25.1715 74.084L24.7665 74.06H21.7665C19.3149 74.0601 16.9561 73.1223 15.1738 71.4387C13.3916 69.7552 12.321 67.4536 12.1815 65.006L12.1665 64.46V61.46C12.1663 60.6511 11.8936 59.8659 11.3925 59.231L11.1225 58.931L9.03152 56.837C7.29836 55.1136 6.28779 52.7941 6.20584 50.3514C6.1239 47.9086 6.97675 45.5266 8.59052 43.691L9.02552 43.229L11.1195 41.135C11.6905 40.5603 12.0509 39.8098 12.1425 39.005L12.1665 38.6V35.6L12.1815 35.054C12.3155 32.7003 13.3108 30.4782 14.9778 28.8112C16.6448 27.1442 18.8669 26.1489 21.2205 26.015L21.7665 26H24.7665C25.5754 25.9997 26.3606 25.727 26.9955 25.226L27.2955 24.956L29.3895 22.865C30.2815 21.9676 31.3421 21.2555 32.5103 20.7695C33.6785 20.2834 34.9313 20.0331 36.1965 20.033Z" fill="#FFD100"/>
</mask>
<g mask="url(#mask0_4213_935)">
<rect x="61.3022" y="24.7339" width="30.546" height="64.6522" transform="rotate(70 61.3022 24.7339)" fill="#FFDF4B"/>
</g>
<path d="M30.632 68.3529L34.8964 48.2927C35.0271 47.6566 35.1905 46.9536 35.3866 46.1837C35.599 45.397 35.8277 44.6271 36.0728 43.8739C36.3179 43.104 36.5467 42.4345 36.7591 41.8654C36.2852 42.3005 35.7297 42.7776 35.0925 43.2964C34.4716 43.7986 33.9569 44.1835 33.5485 44.4514L28.5733 47.5897L24.8726 41.2628L40.0677 31.647H47.6897L40.1657 68.3529H30.632Z" fill="#383B41"/>
</svg>
