<svg width="73" height="86" viewBox="0 0 73 86" fill="none" xmlns="http://www.w3.org/2000/svg">
<path d="M52.8333 10H20.8333V13.9974L32.4533 22.7116C25.1133 25.13 21.1133 33.0448 23.5333 40.38C25.9533 47.7152 33.8333 51.7126 41.2133 49.2941C48.5533 46.8757 52.5533 38.9809 50.1333 31.6258C48.7333 27.4085 45.4333 24.0907 41.2133 22.7116L52.8333 13.9974V10Z" fill="#383B41"/>
<path d="M36.863 20.033C39.1964 20.0331 41.4498 20.8831 43.202 22.424L43.664 22.859L45.758 24.953C46.3327 25.5239 47.0831 25.8843 47.888 25.976L48.293 26H51.293C53.7447 25.9998 56.1035 26.9377 57.8857 28.6212C59.668 30.3047 60.7386 32.6063 60.878 35.054L60.893 35.6V38.6C60.893 39.41 61.169 40.199 61.667 40.829L61.937 41.129L64.028 43.223C65.7612 44.9463 66.7718 47.2658 66.8537 49.7086C66.9356 52.1513 66.0828 54.5333 64.469 56.369L64.034 56.831L61.94 58.925C61.3691 59.4996 61.0087 60.2501 60.917 61.055L60.893 61.46V64.46C60.8932 66.9116 59.9553 69.2704 58.2718 71.0527C56.5883 72.8349 54.2867 73.9055 51.839 74.045L51.293 74.06H48.293C47.4842 74.0602 46.699 74.3329 46.064 74.834L45.764 75.104L43.67 77.195C41.9467 78.9281 39.6272 79.9387 37.1844 80.0206C34.7417 80.1026 32.3596 79.2497 30.524 77.636L30.062 77.201L27.968 75.107C27.3933 74.536 26.6429 74.1756 25.838 74.084L25.433 74.06H22.433C19.9814 74.0601 17.6226 73.1223 15.8403 71.4387C14.0581 69.7552 12.9875 67.4536 12.848 65.006L12.833 64.46V61.46C12.8328 60.6511 12.5601 59.8659 12.059 59.231L11.789 58.931L9.69802 56.837C7.96487 55.1136 6.95429 52.7941 6.87235 50.3514C6.7904 47.9086 7.64326 45.5266 9.25702 43.691L9.69202 43.229L11.786 41.135C12.357 40.5603 12.7174 39.8098 12.809 39.005L12.833 38.6V35.6L12.848 35.054C12.982 32.7003 13.9773 30.4782 15.6443 28.8112C17.3113 27.1442 19.5334 26.1489 21.887 26.015L22.433 26H25.433C26.2419 25.9997 27.0271 25.727 27.662 25.226L27.962 24.956L30.056 22.865C30.948 21.9676 32.0086 21.2555 33.1768 20.7695C34.345 20.2834 35.5978 20.0331 36.863 20.033Z" fill="#BC7100"/>
<mask id="mask0_4213_414" style="mask-type:alpha" maskUnits="userSpaceOnUse" x="6" y="20" width="61" height="61">
<path d="M36.863 20.033C39.1964 20.0331 41.4498 20.8831 43.202 22.424L43.664 22.859L45.758 24.953C46.3327 25.5239 47.0831 25.8843 47.888 25.976L48.293 26H51.293C53.7447 25.9998 56.1035 26.9377 57.8857 28.6212C59.668 30.3047 60.7386 32.6063 60.878 35.054L60.893 35.6V38.6C60.893 39.41 61.169 40.199 61.667 40.829L61.937 41.129L64.028 43.223C65.7612 44.9463 66.7718 47.2658 66.8537 49.7086C66.9356 52.1513 66.0828 54.5333 64.469 56.369L64.034 56.831L61.94 58.925C61.3691 59.4996 61.0087 60.2501 60.917 61.055L60.893 61.46V64.46C60.8932 66.9116 59.9553 69.2704 58.2718 71.0527C56.5883 72.8349 54.2867 73.9055 51.839 74.045L51.293 74.06H48.293C47.4842 74.0602 46.699 74.3329 46.064 74.834L45.764 75.104L43.67 77.195C41.9467 78.9281 39.6272 79.9387 37.1844 80.0206C34.7417 80.1026 32.3596 79.2497 30.524 77.636L30.062 77.201L27.968 75.107C27.3933 74.536 26.6429 74.1756 25.838 74.084L25.433 74.06H22.433C19.9814 74.0601 17.6226 73.1223 15.8403 71.4387C14.0581 69.7552 12.9875 67.4536 12.848 65.006L12.833 64.46V61.46C12.8328 60.6511 12.5601 59.8659 12.059 59.231L11.789 58.931L9.69802 56.837C7.96487 55.1136 6.95429 52.7941 6.87235 50.3514C6.7904 47.9086 7.64326 45.5266 9.25702 43.691L9.69202 43.229L11.786 41.135C12.357 40.5603 12.7174 39.8098 12.809 39.005L12.833 38.6V35.6L12.848 35.054C12.982 32.7003 13.9773 30.4782 15.6443 28.8112C17.3113 27.1442 19.5334 26.1489 21.887 26.015L22.433 26H25.433C26.2419 25.9997 27.0271 25.727 27.662 25.226L27.962 24.956L30.056 22.865C30.948 21.9676 32.0086 21.2555 33.1768 20.7695C34.345 20.2834 35.5978 20.0331 36.863 20.033Z" fill="#FF7B00"/>
</mask>
<g mask="url(#mask0_4213_414)">
<rect x="61.9688" y="24.7339" width="30.546" height="64.6522" transform="rotate(70 61.9688 24.7339)" fill="#D68100"/>
</g>
<path d="M32.7083 68.3529C30.9555 68.3529 29.2348 68.19 27.5462 67.8644C25.8577 67.5225 24.4827 67.0422 23.4214 66.4235V58.3155C24.8526 59.1947 26.3321 59.8215 27.8598 60.196C29.4036 60.5705 30.9555 60.7577 32.5153 60.7577C33.4641 60.7577 34.3406 60.6763 35.1446 60.5135C35.9648 60.3507 36.6723 60.0983 37.2673 59.7564C37.8624 59.4145 38.3207 58.9668 38.6423 58.4132C38.98 57.8434 39.1489 57.1596 39.1489 56.3618C39.1489 55.6617 38.98 55.0756 38.6423 54.6034C38.3046 54.115 37.6533 53.7487 36.6884 53.5044C35.7235 53.2439 34.3004 53.1137 32.4188 53.1137H30.3926L31.6711 46.007H33.5526C34.7104 46.007 35.7477 45.9174 36.6643 45.7383C37.5809 45.5429 38.3689 45.2662 39.0282 44.908C39.6876 44.5335 40.1861 44.0858 40.5238 43.5648C40.8776 43.0438 41.0545 42.4414 41.0545 41.7576C41.0545 41.1877 40.8133 40.6342 40.3308 40.0969C39.8645 39.5433 39.0202 39.2666 37.798 39.2666C36.7206 39.2666 35.6431 39.4538 34.5657 39.8283C33.4883 40.2027 32.3947 40.6993 31.2851 41.318L27.4739 35.2614C29.1946 34.1543 30.9635 33.2751 32.7807 32.6238C34.5979 31.9726 36.8653 31.647 39.583 31.647C41.6897 31.647 43.539 31.9889 45.1311 32.6727C46.7392 33.3402 47.9935 34.3008 48.8941 35.5545C49.7946 36.8081 50.2449 38.3222 50.2449 40.0969C50.2449 41.839 49.8911 43.3368 49.1836 44.5905C48.476 45.8279 47.5031 46.8292 46.2648 47.5944C45.0266 48.3596 43.6034 48.9131 41.9952 49.2551V49.4504C44.1823 49.8737 45.8306 50.8099 46.9402 52.2589C48.0659 53.7079 48.6288 55.4093 48.6288 57.3631C48.6288 59.3005 48.2106 60.9612 47.3744 62.3451C46.5382 63.729 45.3803 64.8687 43.9009 65.7642C42.4375 66.6433 40.7489 67.2946 38.8353 67.7179C36.9216 68.1412 34.8793 68.3529 32.7083 68.3529Z" fill="#383B41"/>
</svg>
