<svg width="82" height="32" viewBox="0 0 82 32" fill="none" xmlns="http://www.w3.org/2000/svg">
<path d="M16.5651 6.05686L17.7912 5.94959C18.4683 5.89035 19.0653 6.39126 19.1245 7.06841L19.6072 12.5858L17.155 12.8003L16.5651 6.05686Z" fill="#888888"/>
<path d="M60.1984 3.47491C60.1391 2.79776 60.64 2.2008 61.3172 2.14156L62.5433 2.03429L63.1333 8.77776L60.6811 8.9923L60.1984 3.47491Z" fill="#888888"/>
<path d="M3.07812 7.23682L16.5651 6.05686L18.335 26.2873L4.84806 27.4672L8.25439 16.9766L3.07812 7.23682Z" fill="#AFAFAF"/>
<path d="M76.0302 0.854336L62.5433 2.03429L64.3132 22.2647L77.8002 21.0848L72.6239 11.345L76.0302 0.854336Z" fill="#AFAFAF"/>
<path d="M13.9289 11.2294C13.8697 10.5522 14.3706 9.95527 15.0477 9.89602L64.7042 5.55164C65.3814 5.4924 65.9783 5.99331 66.0376 6.67046L67.593 24.4487C67.6522 25.1259 67.1513 25.7228 66.4742 25.7821L16.8177 30.1264C16.1405 30.1857 15.5436 29.6848 15.4843 29.0076L13.9289 11.2294Z" fill="#DADADA"/>
<path d="M28.4091 23.0436C28.0176 23.0778 27.6678 23.0722 27.3598 23.0268C27.0515 22.9777 26.7612 22.8656 26.4888 22.6903L26.7235 20.7804C26.9247 20.9293 27.1698 21.0617 27.4586 21.1776C27.7472 21.2899 28.0171 21.335 28.2686 21.313C28.3512 21.3058 28.4366 21.2893 28.5249 21.2635C28.6164 21.2337 28.6994 21.1903 28.7741 21.1331C28.8487 21.0759 28.9071 20.9984 28.9492 20.9006C28.991 20.7992 29.0051 20.6713 28.9916 20.5168C28.9819 20.4055 28.9566 20.3027 28.9158 20.2086C28.8747 20.1108 28.8025 20.0103 28.6994 19.9072C28.5998 19.8037 28.4574 19.6858 28.2721 19.5536C28.0292 19.3831 27.8272 19.2053 27.6662 19.0203C27.5053 18.8353 27.3803 18.6272 27.2913 18.3961C27.2059 18.1647 27.1497 17.8945 27.1227 17.5856C27.0919 17.2336 27.1168 16.8984 27.1976 16.5801C27.2816 16.2578 27.4228 15.9686 27.6211 15.7123C27.8231 15.4558 28.0871 15.2463 28.4131 15.0838C28.7427 14.9211 29.1357 14.8197 29.5918 14.7798C29.89 14.7537 30.2067 14.7749 30.5421 14.8433C30.8775 14.9117 31.1924 15.0361 31.4869 15.2167L30.8126 16.9425C30.5781 16.7856 30.3598 16.669 30.1576 16.5926C29.9552 16.5126 29.7821 16.4788 29.6384 16.4914C29.5558 16.4986 29.4762 16.5201 29.3997 16.5557C29.3265 16.5875 29.2599 16.6331 29.2 16.6926C29.1436 16.7519 29.1014 16.828 29.0734 16.9209C29.045 17.0102 29.0363 17.1178 29.0473 17.2435C29.0551 17.3333 29.0795 17.4253 29.1203 17.5194C29.1608 17.61 29.2346 17.7085 29.3416 17.815C29.4486 17.9214 29.6075 18.0415 29.8183 18.175C30.0636 18.3309 30.2615 18.5037 30.412 18.6932C30.5658 18.8788 30.6819 19.0894 30.7605 19.3251C30.8426 19.5604 30.8967 19.8271 30.9228 20.1253C30.9523 20.4629 30.9254 20.7965 30.842 21.1259C30.7586 21.4553 30.6149 21.7575 30.4109 22.0323C30.2106 22.3068 29.9445 22.5346 29.6129 22.7156C29.2809 22.8931 28.8797 23.0024 28.4091 23.0436Z" fill="#383B41" fill-opacity="0.72"/>
<path d="M31.4655 22.6676L32.452 14.6436L34.2948 14.4824L33.3082 22.5063L31.4655 22.6676Z" fill="#383B41" fill-opacity="0.72"/>
<path d="M34.4828 22.4036L35.4586 14.3806L37.3013 14.2193L36.5133 20.6026L38.3668 20.4404L38.1791 22.0802L34.4828 22.4036Z" fill="#383B41" fill-opacity="0.72"/>
<path d="M40.1349 21.9091L39.2895 14.0454L41.1915 13.879L41.4384 17.8805C41.448 18.0317 41.4536 18.1778 41.455 18.3188C41.4598 18.456 41.4616 18.6006 41.4604 18.7527C41.4589 18.9012 41.4556 19.0698 41.4504 19.2585L41.4719 19.2566C41.4947 19.1026 41.5211 18.9501 41.5513 18.799C41.5816 18.648 41.6154 18.4966 41.6528 18.345C41.6935 18.1894 41.7376 18.0317 41.7851 17.8719L43.0342 13.7178L45.0062 13.5452L42.2524 21.7238L40.1349 21.9091Z" fill="#383B41" fill-opacity="0.72"/>
<path d="M44.634 21.5155L45.6097 13.4925L49.1874 13.1794L48.9924 14.7982L47.2628 14.9495L47.0748 16.3993L48.6858 16.2583L48.4854 17.8775L46.8851 18.0175L46.6644 19.7145L48.4102 19.5617L48.2063 21.2029L44.634 21.5155Z" fill="#383B41" fill-opacity="0.72"/>
<path d="M49.2569 21.111L50.2327 13.088L52.0107 12.9324C52.8225 12.8614 53.4294 12.9712 53.8312 13.2618C54.2328 13.5488 54.4598 13.9923 54.5123 14.5921C54.5515 15.0411 54.5257 15.4488 54.4347 15.8151C54.3472 16.1811 54.2033 16.5013 54.0029 16.7758C53.8022 17.0468 53.557 17.2637 53.2672 17.4266L54.3972 20.6613L52.3551 20.84L51.5711 17.9604L51.4472 17.9713L51.0997 20.9498L49.2569 21.111ZM51.6511 16.4549L51.8074 16.4413C51.9618 16.4278 52.0913 16.3766 52.1957 16.2879C52.2998 16.1955 52.382 16.0797 52.4422 15.9405C52.5024 15.8013 52.5436 15.6511 52.5657 15.49C52.5878 15.3288 52.5921 15.1709 52.5785 15.0165C52.5619 14.8261 52.5062 14.6862 52.4115 14.5967C52.3168 14.5073 52.1797 14.4704 52.0001 14.4862L51.8815 14.4965L51.6511 16.4549Z" fill="#383B41" fill-opacity="0.72"/>
</svg>
