<svg width="73" height="86" viewBox="0 0 73 86" fill="none" xmlns="http://www.w3.org/2000/svg">
<path d="M52.5 10H20.5V13.9974L32.12 22.7116C24.78 25.13 20.78 33.0448 23.2 40.38C25.62 47.7152 33.5 51.7126 40.88 49.2941C48.22 46.8757 52.22 38.9809 49.8 31.6258C48.4 27.4085 45.1 24.0907 40.88 22.7116L52.5 13.9974V10Z" fill="#383B41"/>
<path d="M36.5298 20.033C38.8631 20.0331 41.1166 20.8831 42.8688 22.424L43.3308 22.859L45.4248 24.953C45.9994 25.5239 46.7499 25.8843 47.5548 25.976L47.9598 26H50.9598C53.4114 25.9998 55.7702 26.9377 57.5525 28.6212C59.3347 30.3047 60.4053 32.6063 60.5448 35.054L60.5598 35.6V38.6C60.5598 39.41 60.8358 40.199 61.3338 40.829L61.6038 41.129L63.6948 43.223C65.4279 44.9463 66.4385 47.2658 66.5204 49.7086C66.6024 52.1513 65.7495 54.5333 64.1358 56.369L63.7008 56.831L61.6068 58.925C61.0358 59.4996 60.6754 60.2501 60.5838 61.055L60.5598 61.46V64.46C60.5599 66.9116 59.6221 69.2704 57.9385 71.0527C56.255 72.8349 53.9535 73.9055 51.5058 74.045L50.9598 74.06H47.9598C47.1509 74.0602 46.3657 74.3329 45.7308 74.834L45.4308 75.104L43.3368 77.195C41.6134 78.9281 39.2939 79.9387 36.8512 80.0206C34.4084 80.1026 32.0264 79.2497 30.1908 77.636L29.7288 77.201L27.6348 75.107C27.0601 74.536 26.3096 74.1756 25.5048 74.084L25.0998 74.06H22.0998C19.6481 74.0601 17.2893 73.1223 15.5071 71.4387C13.7248 69.7552 12.6542 67.4536 12.5148 65.006L12.4998 64.46V61.46C12.4995 60.6511 12.2269 59.8659 11.7258 59.231L11.4558 58.931L9.36477 56.837C7.63161 55.1136 6.62104 52.7941 6.53909 50.3514C6.45715 47.9086 7.31001 45.5266 8.92377 43.691L9.35877 43.229L11.4528 41.135C12.0237 40.5603 12.3841 39.8098 12.4758 39.005L12.4998 38.6V35.6L12.5148 35.054C12.6487 32.7003 13.644 30.4782 15.311 28.8112C16.978 27.1442 19.2001 26.1489 21.5538 26.015L22.0998 26H25.0998C25.9086 25.9997 26.6938 25.727 27.3288 25.226L27.6288 24.956L29.7228 22.865C30.6148 21.9676 31.6754 21.2555 32.8436 20.7695C34.0118 20.2834 35.2645 20.0331 36.5298 20.033Z" fill="#C7C7C7"/>
<mask id="mask0_4213_868" style="mask-type:alpha" maskUnits="userSpaceOnUse" x="6" y="20" width="61" height="61">
<path d="M36.5298 20.033C38.8631 20.0331 41.1166 20.8831 42.8688 22.424L43.3308 22.859L45.4248 24.953C45.9994 25.5239 46.7499 25.8843 47.5548 25.976L47.9598 26H50.9598C53.4114 25.9998 55.7702 26.9377 57.5525 28.6212C59.3347 30.3047 60.4053 32.6063 60.5448 35.054L60.5598 35.6V38.6C60.5598 39.41 60.8358 40.199 61.3338 40.829L61.6038 41.129L63.6948 43.223C65.4279 44.9463 66.4385 47.2658 66.5204 49.7086C66.6024 52.1513 65.7495 54.5333 64.1358 56.369L63.7008 56.831L61.6068 58.925C61.0358 59.4996 60.6754 60.2501 60.5838 61.055L60.5598 61.46V64.46C60.5599 66.9116 59.6221 69.2704 57.9385 71.0527C56.255 72.8349 53.9535 73.9055 51.5058 74.045L50.9598 74.06H47.9598C47.1509 74.0602 46.3657 74.3329 45.7308 74.834L45.4308 75.104L43.3368 77.195C41.6134 78.9281 39.2939 79.9387 36.8512 80.0206C34.4084 80.1026 32.0264 79.2497 30.1908 77.636L29.7288 77.201L27.6348 75.107C27.0601 74.536 26.3096 74.1756 25.5048 74.084L25.0998 74.06H22.0998C19.6481 74.0601 17.2893 73.1223 15.5071 71.4387C13.7248 69.7552 12.6542 67.4536 12.5148 65.006L12.4998 64.46V61.46C12.4995 60.6511 12.2269 59.8659 11.7258 59.231L11.4558 58.931L9.36477 56.837C7.63161 55.1136 6.62104 52.7941 6.53909 50.3514C6.45715 47.9086 7.31001 45.5266 8.92377 43.691L9.35877 43.229L11.4528 41.135C12.0237 40.5603 12.3841 39.8098 12.4758 39.005L12.4998 38.6V35.6L12.5148 35.054C12.6487 32.7003 13.644 30.4782 15.311 28.8112C16.978 27.1442 19.2001 26.1489 21.5538 26.015L22.0998 26H25.0998C25.9086 25.9997 26.6938 25.727 27.3288 25.226L27.6288 24.956L29.7228 22.865C30.6148 21.9676 31.6754 21.2555 32.8436 20.7695C34.0118 20.2834 35.2645 20.0331 36.5298 20.033Z" fill="#FFD100"/>
</mask>
<g mask="url(#mask0_4213_868)">
<rect x="61.6355" y="24.7339" width="30.546" height="64.6522" transform="rotate(70 61.6355 24.7339)" fill="#DADADA"/>
</g>
<path d="M21.6765 68.3529L22.9883 62.0166L34.9431 51.2251C36.1477 50.1525 37.146 49.1708 37.938 48.2797C38.73 47.3722 39.357 46.5554 39.8191 45.8294C40.2811 45.1033 40.6029 44.4515 40.7844 43.874C40.9824 43.28 41.0814 42.752 41.0814 42.2899C41.0814 41.4814 40.8669 40.8791 40.4378 40.4831C40.0088 40.0706 39.4643 39.8643 38.8043 39.8643C38.0947 39.8643 37.3687 40.0046 36.6262 40.2851C35.8836 40.5491 35.1164 40.9534 34.3243 41.4979C33.5488 42.0424 32.7238 42.7107 31.8492 43.5027L27.2455 37.117C29.0111 35.4504 30.9994 34.1221 33.2105 33.132C35.4216 32.142 37.8967 31.647 40.6359 31.647C42.6324 31.647 44.3815 32.0182 45.8831 32.7608C47.4012 33.4868 48.581 34.5346 49.4225 35.9042C50.2805 37.2572 50.7096 38.8825 50.7096 40.7801C50.7096 42.3477 50.429 43.8658 49.868 45.3343C49.307 46.7864 48.3334 48.3375 46.9474 49.9875C45.5778 51.6211 43.6555 53.5022 41.1804 55.6308L36.1064 59.987V60.284H48.2344L46.5514 68.3529H21.6765Z" fill="#383B41"/>
</svg>
