<svg width="82" height="32" viewBox="0 0 82 32" fill="none" xmlns="http://www.w3.org/2000/svg">
<path d="M17.2318 6.05686L18.4579 5.94959C19.135 5.89035 19.732 6.39126 19.7913 7.06841L20.274 12.5858L17.8218 12.8003L17.2318 6.05686Z" fill="#AF8F02"/>
<path d="M60.8651 3.47491C60.8059 2.79777 61.3068 2.2008 61.9839 2.14156L63.21 2.03429L63.8 8.77776L61.3478 8.9923L60.8651 3.47491Z" fill="#AF8F02"/>
<path d="M3.74487 7.23682L17.2318 6.05686L19.0017 26.2873L5.51481 27.4672L8.92114 16.9766L3.74487 7.23682Z" fill="#E5BB00"/>
<path d="M76.697 0.854336L63.21 2.03429L64.98 22.2647L78.4669 21.0848L73.2906 11.345L76.697 0.854336Z" fill="#E5BB00"/>
<path d="M14.5957 11.2294C14.5364 10.5522 15.0373 9.95527 15.7145 9.89602L65.371 5.55165C66.0481 5.4924 66.6451 5.99331 66.7043 6.67046L68.2597 24.4487C68.319 25.1259 67.818 25.7228 67.1409 25.7821L17.4844 30.1264C16.8073 30.1857 16.2103 29.6848 16.1511 29.0076L14.5957 11.2294Z" fill="#FFD100"/>
<path d="M33.2678 22.6768C32.4344 22.7497 31.8024 22.5788 31.3715 22.164C30.9404 21.7457 30.6893 21.1306 30.6183 20.3188C30.5749 19.8231 30.5809 19.3122 30.6362 18.7862C30.6948 18.2562 30.8074 17.7433 30.974 17.2473C31.1441 16.751 31.3743 16.3001 31.6646 15.8947C31.9549 15.4892 32.3113 15.1576 32.734 14.8999C33.1563 14.6385 33.6495 14.4832 34.2134 14.4338C34.5978 14.4002 34.9648 14.4169 35.3145 14.4841C35.664 14.5476 35.9493 14.6439 36.1705 14.7729L35.5201 16.3989C35.31 16.2725 35.0901 16.1796 34.8605 16.12C34.6344 16.0602 34.4047 16.0404 34.1712 16.0609C33.873 16.087 33.6124 16.231 33.3892 16.4931C33.1692 16.7512 32.9897 17.0782 32.8506 17.474C32.7112 17.8663 32.6138 18.2838 32.5584 18.7266C32.5063 19.1655 32.4971 19.5771 32.5307 19.9615C32.5527 20.2129 32.5945 20.421 32.6559 20.5858C32.721 20.7502 32.8058 20.8713 32.9103 20.949C33.0145 21.0231 33.1385 21.0539 33.2822 21.0413C33.354 21.035 33.429 21.0231 33.507 21.0054C33.5887 20.9874 33.6699 20.964 33.7507 20.9352L33.9296 19.4428L33.1698 19.5092L33.3506 17.9135L35.9368 17.6872L35.412 21.9897C35.0062 22.1917 34.6129 22.351 34.2322 22.4676C33.8515 22.5841 33.53 22.6539 33.2678 22.6768Z" fill="#383B41" fill-opacity="0.72"/>
<path d="M39.1731 22.1602C38.6523 22.2057 38.2131 22.15 37.8555 21.9931C37.5012 21.8323 37.2243 21.5633 37.0248 21.1862C36.825 20.8056 36.6982 20.3081 36.6445 19.6939C36.6083 19.2808 36.6075 18.8574 36.6419 18.4236C36.6764 17.9899 36.7459 17.564 36.8505 17.1458C36.9583 16.7237 37.101 16.3276 37.2786 15.9573C37.4561 15.5871 37.6696 15.2553 37.919 14.962C38.1684 14.6687 38.4536 14.432 38.7744 14.252C39.0989 14.0715 39.4587 13.9641 39.8538 13.9295C40.6476 13.86 41.2422 14.0361 41.6374 14.4575C42.0359 14.8751 42.2733 15.5203 42.3497 16.3932C42.3805 16.7452 42.3831 17.1269 42.3575 17.5381C42.3353 17.9454 42.2792 18.3594 42.1893 18.7799C42.0991 19.1968 41.9732 19.5987 41.8116 19.9856C41.6499 20.3726 41.4454 20.7235 41.1978 21.0383C40.9536 21.3493 40.6628 21.6045 40.3256 21.8042C39.9919 22.0035 39.6078 22.1221 39.1731 22.1602ZM39.1587 20.5055C39.3275 20.4907 39.4781 20.4124 39.6105 20.2705C39.7464 20.1283 39.8642 19.9443 39.9639 19.7184C40.0633 19.4889 40.1459 19.2337 40.2118 18.9529C40.2814 18.6717 40.3341 18.3848 40.37 18.092C40.4056 17.7957 40.4278 17.5115 40.4365 17.2392C40.445 16.9634 40.4399 16.7195 40.4214 16.5076C40.3919 16.17 40.3269 15.9241 40.2266 15.77C40.1259 15.6123 39.9965 15.5404 39.8385 15.5542C39.6697 15.569 39.5191 15.6473 39.3867 15.7892C39.254 15.9275 39.1362 16.1115 39.0332 16.3413C38.9336 16.5672 38.8506 16.8188 38.7844 17.096C38.7181 17.3733 38.6654 17.6602 38.6262 17.9569C38.5903 18.2496 38.568 18.532 38.5592 18.8043C38.5504 19.0765 38.5555 19.3204 38.5743 19.5359C38.5985 19.8125 38.635 20.0228 38.6838 20.167C38.7359 20.3072 38.802 20.4009 38.8822 20.4482C38.9623 20.4955 39.0545 20.5146 39.1587 20.5055Z" fill="#383B41" fill-opacity="0.72"/>
<path d="M42.7629 21.7375L43.7387 13.7145L45.5814 13.5533L44.7934 19.9365L46.6469 19.7743L46.4591 21.4141L42.7629 21.7375Z" fill="#383B41" fill-opacity="0.72"/>
<path d="M47.1811 21.351L48.1569 13.3279L49.9673 13.1695C50.8114 13.0957 51.4721 13.2623 51.9493 13.6694C52.4265 14.0765 52.6992 14.6697 52.7674 15.4492C52.8104 15.9413 52.8038 16.445 52.7475 16.9603C52.6949 17.4753 52.5846 17.9735 52.4168 18.4551C52.2523 18.9328 52.0262 19.3689 51.7386 19.7632C51.4506 20.154 51.0968 20.4745 50.6771 20.7248C50.2574 20.975 49.7656 21.1248 49.2017 21.1742L47.1811 21.351ZM49.2205 19.5275L49.3336 19.5176C49.5994 19.4943 49.8254 19.3877 50.0115 19.1977C50.2011 19.0073 50.3539 18.7677 50.4698 18.4789C50.5893 18.1897 50.6781 17.8815 50.7364 17.5543C50.7982 17.2267 50.8357 16.9104 50.8488 16.6052C50.8652 16.2961 50.8638 16.032 50.8446 15.8129C50.8123 15.4429 50.7221 15.1775 50.5741 15.0167C50.4258 14.8523 50.2187 14.7818 49.9529 14.805L49.802 14.8182L49.2205 19.5275Z" fill="#383B41" fill-opacity="0.72"/>
</svg>
