<svg width="25" height="25" viewBox="0 0 25 25" fill="none" xmlns="http://www.w3.org/2000/svg">
<mask id="mask0_6631_30438" style="mask-type:alpha" maskUnits="userSpaceOnUse" x="0" y="0" width="25" height="25">
<rect x="0.699219" y="0.625" width="24" height="24" fill="#D9D9D9"/>
</mask>
<g mask="url(#mask0_6631_30438)">
<path d="M11.6992 17.625H7.69922C6.31589 17.625 5.13672 17.1375 4.16172 16.1625C3.18672 15.1875 2.69922 14.0083 2.69922 12.625C2.69922 11.2417 3.18672 10.0625 4.16172 9.0875C5.13672 8.1125 6.31589 7.625 7.69922 7.625H11.6992V9.625H7.69922C6.86589 9.625 6.15755 9.91667 5.57422 10.5C4.99089 11.0833 4.69922 11.7917 4.69922 12.625C4.69922 13.4583 4.99089 14.1667 5.57422 14.75C6.15755 15.3333 6.86589 15.625 7.69922 15.625H11.6992V17.625ZM8.69922 13.625V11.625H16.6992V13.625H8.69922ZM13.6992 17.625V15.625H17.6992C18.5326 15.625 19.2409 15.3333 19.8242 14.75C20.4076 14.1667 20.6992 13.4583 20.6992 12.625C20.6992 11.7917 20.4076 11.0833 19.8242 10.5C19.2409 9.91667 18.5326 9.625 17.6992 9.625H13.6992V7.625H17.6992C19.0826 7.625 20.2617 8.1125 21.2367 9.0875C22.2117 10.0625 22.6992 11.2417 22.6992 12.625C22.6992 14.0083 22.2117 15.1875 21.2367 16.1625C20.2617 17.1375 19.0826 17.625 17.6992 17.625H13.6992Z" fill="#757575"/>
</g>
</svg>
