<svg width="25" height="24" viewBox="0 0 25 24" fill="none" xmlns="http://www.w3.org/2000/svg">
<path d="M20.5 2C21.6 2 22.5 2.89 22.5 4V16C22.5 16.5304 22.2891 17.039 21.9141 17.4141C21.539 17.7891 21.0304 18 20.5 18H6.5L2.5 22V4C2.5 3.46957 2.71086 2.96101 3.08594 2.58594C3.46101 2.21086 3.96957 2 4.5 2H20.5ZM14.1367 10.3633L15.7686 10.5264C15.7283 11.335 15.3896 12.1025 14.8145 12.6777C14.2007 13.2915 13.368 13.6367 12.5 13.6367C11.9546 13.6367 11.4254 13.5003 10.9727 13.2549L10.1768 14.0508C10.8476 14.4761 11.6437 14.7275 12.5 14.7275C13.6573 14.7275 14.7676 14.2676 15.5859 13.4492C16.4042 12.6309 16.8633 11.5205 16.8633 10.3633H18.5L16.3184 8.18164L14.1367 10.3633ZM12.5 6C11.3427 6 10.2324 6.45998 9.41406 7.27832C8.596 8.09655 8.13681 9.20625 8.13672 10.3633H6.5L8.68164 12.5459L10.8633 10.3633L9.23145 10.2012C9.27161 9.39249 9.61038 8.62512 10.1855 8.0498C10.7993 7.43605 11.632 7.09082 12.5 7.09082C13.0455 7.09082 13.5746 7.2272 14.0273 7.47266L14.8232 6.67676C14.1524 6.25134 13.3563 6 12.5 6Z" fill="white"/>
</svg>
