<svg width="150" height="32" viewBox="0 0 200 32" fill="none" xmlns="http://www.w3.org/2000/svg">
<path d="M165.177 15.524V15.577C166.571 15.7388 167.656 16.224 168.457 17.0356C168.855 17.4387 169.167 17.9185 169.374 18.4459C169.581 18.9732 169.679 19.5372 169.662 20.1035C169.689 20.9083 169.53 21.7086 169.197 22.4416C168.863 23.1747 168.365 23.8206 167.74 24.3287C166.457 25.3978 164.715 25.9314 162.514 25.9295C161.627 25.93 160.744 25.8289 159.881 25.6283C159.187 25.4952 158.52 25.2483 157.906 24.8976V21.7768C158.54 22.267 159.253 22.6444 160.015 22.8924C160.796 23.1653 161.616 23.3075 162.444 23.3135C163.641 23.3135 164.589 23.0346 165.286 22.4768C165.624 22.2059 165.894 21.8594 166.074 21.4651C166.255 21.0708 166.34 20.6398 166.323 20.2066C166.344 19.7426 166.241 19.2813 166.025 18.8701C165.809 18.4589 165.487 18.1126 165.093 17.8667C164.271 17.3285 163.099 17.0607 161.571 17.0607H159.898V14.3861H161.49C162.84 14.3861 163.879 14.1351 164.608 13.6331C164.962 13.3892 165.247 13.0578 165.434 12.6712C165.622 12.2846 165.706 11.856 165.679 11.4271C165.704 11.0455 165.642 10.6633 165.497 10.3095C165.352 9.95565 165.128 9.63965 164.842 9.38557C164.285 8.90866 163.47 8.66881 162.424 8.6716C161.759 8.67153 161.098 8.78665 160.472 9.01185C159.811 9.255 159.191 9.60038 158.637 10.0354V7.12932C159.289 6.77285 159.989 6.50997 160.715 6.34841C161.546 6.15818 162.397 6.0646 163.25 6.06952C164.923 6.06952 166.301 6.50274 167.383 7.36917C167.897 7.76669 168.311 8.27938 168.591 8.86598C168.871 9.45259 169.009 10.0967 168.995 10.7466C169.04 11.8543 168.689 12.9419 168.005 13.8144C167.27 14.6728 166.279 15.2722 165.177 15.524Z" fill="#737474"/>
<path d="M174.881 15.6107C175.254 14.9009 175.852 14.3356 176.582 14.0043C177.381 13.6269 178.256 13.4361 179.14 13.4465C180.589 13.4265 181.99 13.9717 183.044 14.9665C184.138 15.9816 184.684 17.4542 184.684 19.3841C184.684 21.4201 184.058 23.0181 182.804 24.1783C181.565 25.333 179.924 25.9576 178.231 25.9186C176.133 25.9186 174.482 25.1396 173.277 23.5815C172.073 22.0234 171.473 19.8518 171.479 17.0665C171.479 13.4409 172.279 10.7003 173.88 8.84475C174.611 7.95529 175.533 7.24247 176.578 6.75953C177.623 6.2766 178.764 6.03604 179.915 6.05582C180.59 6.05067 181.265 6.09448 181.934 6.18689C182.448 6.25067 182.949 6.39073 183.421 6.60245V9.51131C182.891 9.23365 182.329 9.02197 181.747 8.88101C181.2 8.74623 180.638 8.67696 180.074 8.67463C179.342 8.65468 178.616 8.80917 177.955 9.12536C177.295 9.44154 176.719 9.91033 176.276 10.493C175.318 11.7053 174.831 13.4084 174.814 15.6023L174.881 15.6107ZM174.934 19.3869C174.903 20.3924 175.236 21.3753 175.874 22.1536C176.16 22.5095 176.523 22.7951 176.937 22.9885C177.35 23.1819 177.802 23.2779 178.258 23.2691C178.688 23.2856 179.116 23.2078 179.512 23.0411C179.908 22.8743 180.263 22.6228 180.551 22.3042C181.137 21.659 181.429 20.773 181.427 19.6463C181.427 18.4526 181.14 17.549 180.568 16.9355C180.266 16.6244 179.901 16.3818 179.497 16.224C179.093 16.0662 178.661 15.9969 178.228 16.0207C177.787 16.0023 177.347 16.0753 176.936 16.2351C176.524 16.3949 176.15 16.6381 175.838 16.9494C175.531 17.2751 175.293 17.6594 175.138 18.0792C174.984 18.499 174.915 18.9456 174.937 19.3925L174.934 19.3869Z" fill="#737474"/>
<path d="M198.015 19.6073C198.015 21.5112 197.377 23.0442 196.101 24.2062C194.826 25.3683 193.072 25.9428 190.839 25.9298C189.948 25.9357 189.06 25.8203 188.2 25.5867C187.523 25.4149 186.868 25.166 186.248 24.8449V21.83C186.887 22.3178 187.604 22.6949 188.368 22.9456C189.044 23.1717 189.752 23.2912 190.465 23.2998C191.742 23.2998 192.765 22.9828 193.533 22.3488C193.912 22.0376 194.213 21.6426 194.413 21.1948C194.613 20.747 194.706 20.2589 194.685 19.769C194.707 19.2904 194.612 18.8135 194.407 18.3802C194.202 17.947 193.895 17.5706 193.51 17.2841C192.722 16.6928 191.586 16.3981 190.102 16.4C189.664 16.4 189.093 16.4195 188.382 16.4586C187.67 16.4976 187.182 16.5366 186.915 16.5729L187.598 6.40723H197.144V9.15712H190.275L189.96 13.8342C190.334 13.8035 190.624 13.7895 190.822 13.7868H191.659C193.676 13.7775 195.242 14.2925 196.358 15.3318C197.474 16.3712 198.026 17.7963 198.015 19.6073Z" fill="#737474"/>
<path d="M62.3881 6.40617V25.6052H59.0413V10.5533H58.9884L53.0312 25.6136H50.8224L44.7202 10.5533H44.6811V25.6136H41.6133V6.40617H46.3935L51.8905 20.6297H51.9714L57.7975 6.40617H62.3881ZM65.177 7.86478C65.1723 7.61205 65.2218 7.36124 65.3224 7.12932C65.423 6.89741 65.5722 6.68979 65.7599 6.52052C66.1418 6.16751 66.6427 5.97144 67.1627 5.97144C67.6828 5.97144 68.1837 6.16751 68.5656 6.52052C68.7439 6.69341 68.8853 6.90071 68.9812 7.12986C69.0771 7.35901 69.1254 7.60524 69.1234 7.85363C69.1313 8.10535 69.0843 8.35579 68.9855 8.58747C68.8868 8.81916 68.7387 9.02652 68.5516 9.19511C68.175 9.54957 67.6742 9.74188 67.1572 9.73058C66.9008 9.73686 66.6456 9.69255 66.4064 9.60019C66.1671 9.50784 65.9484 9.36924 65.7627 9.19232C65.5777 9.02573 65.4304 8.8217 65.3303 8.59378C65.2303 8.36585 65.18 8.11925 65.1826 7.87036L65.177 7.86478ZM68.7524 11.8446V25.6136H65.5061V11.839L68.7524 11.8446ZM78.5806 23.243C79.1237 23.231 79.6599 23.1185 80.162 22.9111C80.7356 22.6906 81.2762 22.3922 81.7684 22.0242V25.0391C81.2172 25.346 80.6244 25.5714 80.0086 25.7084C79.298 25.8654 78.572 25.9421 77.8444 25.9371C75.8196 25.9371 74.1741 25.2956 72.9079 24.0127C71.6418 22.7298 71.0077 21.0946 71.0059 19.107C71.0059 16.8963 71.6566 15.0779 72.9581 13.6518C74.2596 12.2257 76.0929 11.5006 78.4579 11.4765C79.0797 11.4789 79.6988 11.5576 80.3014 11.7107C80.8161 11.8322 81.3129 12.0197 81.7795 12.2685V15.3782C81.3082 15.0315 80.7923 14.7501 80.2456 14.5415C79.7344 14.3329 79.1885 14.2222 78.6364 14.2152C78.0622 14.1917 77.4895 14.2904 76.9563 14.5048C76.4231 14.7193 75.9415 15.0445 75.5435 15.4591C74.757 16.2902 74.3647 17.4113 74.3666 18.8225C74.3684 20.2337 74.7449 21.3177 75.4961 22.0744C76.2398 22.8497 77.2624 23.2355 78.5639 23.2318L78.5806 23.243ZM90.9942 11.6103C91.2277 11.6071 91.4611 11.6248 91.6914 11.6633C91.8682 11.6912 92.042 11.736 92.2102 11.7972V15.077C91.9814 14.9235 91.7315 14.8042 91.4683 14.7228C91.0848 14.6033 90.6846 14.5468 90.283 14.5554C89.8921 14.5552 89.5065 14.6458 89.1566 14.82C88.8067 14.9943 88.502 15.2474 88.2666 15.5595C87.7088 16.2288 87.4346 17.2598 87.4439 18.6524V25.5996H84.2143V11.8307H87.4522V13.9977H87.508C87.7709 13.301 88.2337 12.6975 88.8383 12.2629C89.4695 11.822 90.2245 11.5935 90.9942 11.6103ZM92.3887 18.9201C92.3887 16.6444 93.032 14.8418 94.3186 13.5124C95.6052 12.183 97.3911 11.5174 99.6762 11.5155C101.827 11.5155 103.507 12.156 104.716 13.4371C105.924 14.7181 106.53 16.4501 106.534 18.6329C106.534 20.864 105.892 22.6406 104.607 23.9625C103.322 25.2845 101.573 25.9445 99.3582 25.9427C97.2256 25.9427 95.5327 25.3161 94.2796 24.0629C93.0264 22.8098 92.3952 21.0955 92.3859 18.9201H92.3887ZM95.7688 18.8114C95.7688 20.2505 96.0942 21.3484 96.745 22.1051C97.3957 22.8618 98.3254 23.2411 99.5339 23.243C100.713 23.243 101.61 22.8637 102.225 22.1051C102.841 21.3465 103.149 20.2207 103.151 18.7277C103.151 17.2403 102.831 16.1247 102.192 15.381C101.552 14.6372 100.658 14.2589 99.5088 14.2459C98.3207 14.2459 97.3994 14.641 96.745 15.4312C96.0905 16.2214 95.7605 17.35 95.7549 18.8169L95.7688 18.8114ZM111.356 15.4646C111.346 15.6677 111.381 15.8706 111.457 16.059C111.534 16.2473 111.651 16.4167 111.8 16.5551C112.095 16.8173 112.746 17.1501 113.752 17.5535C115.053 18.0723 115.961 18.6542 116.474 19.2994C117.001 19.9624 117.277 20.7899 117.255 21.6366C117.27 22.2362 117.143 22.8309 116.882 23.3713C116.622 23.9116 116.236 24.382 115.757 24.7434C114.764 25.5336 113.42 25.9287 111.724 25.9287C111.087 25.9204 110.452 25.8503 109.828 25.7196C109.225 25.6111 108.636 25.4371 108.071 25.2008V22.0242C108.657 22.4346 109.297 22.7631 109.973 23.0003C110.563 23.2252 111.188 23.3478 111.819 23.3629C112.376 23.399 112.932 23.2934 113.437 23.0561C113.611 22.9475 113.752 22.7929 113.844 22.6094C113.936 22.4258 113.976 22.2204 113.958 22.0158C113.96 21.7988 113.912 21.5842 113.818 21.3885C113.725 21.1927 113.587 21.021 113.417 20.8863C112.787 20.4345 112.094 20.0757 111.362 19.821C110.163 19.3208 109.314 18.763 108.815 18.1476C108.296 17.4641 108.032 16.6207 108.068 15.7631C108.055 15.1714 108.183 14.5851 108.44 14.052C108.696 13.5189 109.076 13.054 109.546 12.6952C110.533 11.8957 111.813 11.495 113.384 11.4932C113.927 11.4986 114.468 11.5518 115.001 11.6522C115.515 11.7362 116.018 11.8755 116.502 12.0677V15.1439C116.033 14.8395 115.529 14.5923 115.001 14.4076C114.461 14.2078 113.89 14.1031 113.314 14.0981C112.808 14.0687 112.306 14.1963 111.875 14.4634C111.709 14.5689 111.573 14.7155 111.48 14.8889C111.387 15.0624 111.341 15.2568 111.345 15.4535L111.356 15.4646ZM118.655 18.9313C118.655 16.6555 119.297 14.8529 120.582 13.5235C121.867 12.1941 123.652 11.5285 125.937 11.5267C128.09 11.5267 129.771 12.1672 130.979 13.4482C132.188 14.7293 132.794 16.4612 132.798 18.644C132.798 20.8752 132.155 22.6517 130.87 23.9737C129.586 25.2956 127.835 25.9557 125.619 25.9538C123.484 25.9538 121.791 25.3272 120.54 24.0741C119.289 22.8209 118.658 21.1067 118.646 18.9313H118.655ZM122.032 18.8225C122.032 20.2616 122.359 21.3595 123.011 22.1162C123.664 22.873 124.593 23.2486 125.797 23.243C126.974 23.243 127.871 22.8637 128.489 22.1051C129.106 21.3465 129.414 20.2207 129.412 18.7277C129.412 17.2403 129.093 16.1247 128.455 15.381C127.817 14.6372 126.922 14.2589 125.769 14.2459C124.585 14.2459 123.664 14.641 123.006 15.4312C122.347 16.2214 122.023 17.35 122.032 18.8169V18.8225ZM143.546 14.4941H138.707V25.6052H135.428V14.4941H133.124V11.8446H135.428V9.92023C135.404 9.26259 135.518 8.60728 135.761 7.9957C136.003 7.38412 136.371 6.82958 136.839 6.36712C137.318 5.90316 137.887 5.54057 138.51 5.30099C139.133 5.06141 139.797 4.94975 140.464 4.97266C140.812 4.97077 141.16 4.99127 141.505 5.03401C141.778 5.06788 142.047 5.1286 142.308 5.21529V8.00423C142.128 7.91295 141.942 7.83646 141.75 7.77554C141.452 7.6833 141.142 7.63906 140.83 7.64446C140.539 7.6274 140.248 7.67566 139.978 7.78569C139.708 7.89572 139.467 8.06473 139.271 8.28033C138.899 8.70425 138.713 9.33083 138.713 10.1601V11.8334H143.538V8.7433L146.792 7.75323V11.839H150.061V14.4941H146.787V20.9282C146.787 21.776 146.94 22.3738 147.247 22.7214C147.554 23.0691 148.038 23.243 148.7 23.243C148.931 23.2351 149.159 23.1899 149.375 23.1091C149.615 23.0278 149.845 22.9193 150.061 22.7856V25.4658C149.736 25.6185 149.392 25.7264 149.038 25.7865C148.572 25.8817 148.099 25.9313 147.624 25.9343C146.257 25.9343 145.234 25.5699 144.556 24.841C143.877 24.1122 143.536 23.0171 143.532 21.5557L143.546 14.4941Z" fill="#737474"/>
<path d="M15.2081 0H0V15.2081H15.2081V0Z" fill="#F05125"/>
<path d="M31.9971 0H16.7891V15.2081H31.9971V0Z" fill="#7EBB42"/>
<path d="M15.2081 16.792H0V32.0001H15.2081V16.792Z" fill="#33A0DA"/>
<path d="M31.9971 16.792H16.7891V32.0001H31.9971V16.792Z" fill="#FDB813"/>
</svg>
