<svg width="24" height="24" viewBox="0 0 24 24" fill="none" xmlns="http://www.w3.org/2000/svg">
<path d="M20 2C21.1 2 22 2.89 22 4V16C22 16.5304 21.7891 17.039 21.4141 17.4141C21.039 17.7891 20.5304 18 20 18H6L2 22V4C2 3.46957 2.21086 2.96101 2.58594 2.58594C2.96101 2.21086 3.46957 2 4 2H20ZM13.6367 10.3633L15.2686 10.5264C15.2283 11.335 14.8896 12.1025 14.3145 12.6777C13.7007 13.2915 12.868 13.6367 12 13.6367C11.4546 13.6367 10.9254 13.5003 10.4727 13.2549L9.67676 14.0508C10.3476 14.4761 11.1437 14.7275 12 14.7275C13.1573 14.7275 14.2676 14.2676 15.0859 13.4492C15.9042 12.6309 16.3633 11.5205 16.3633 10.3633H18L15.8184 8.18164L13.6367 10.3633ZM12 6C10.8427 6 9.7324 6.45998 8.91406 7.27832C8.096 8.09655 7.63681 9.20625 7.63672 10.3633H6L8.18164 12.5459L10.3633 10.3633L8.73145 10.2012C8.77161 9.39249 9.11038 8.62512 9.68555 8.0498C10.2993 7.43605 11.132 7.09082 12 7.09082C12.5455 7.09082 13.0746 7.2272 13.5273 7.47266L14.3232 6.67676C13.6524 6.25134 12.8563 6 12 6Z" fill="#757575"/>
</svg>
