<svg width="128" height="26" viewBox="0 0 128 26" fill="none" xmlns="http://www.w3.org/2000/svg">
<path d="M16.1162 5.50195V10.6143L17.9177 11.7342C17.9664 11.7342 18.0638 11.7342 18.1125 11.7342L25.7567 6.57311C25.7567 5.94015 25.1724 5.50195 24.8803 5.50195H16.1162Z" fill="#0072C6"/>
<path d="M16.1162 12.5123L17.723 13.6322C17.9664 13.7782 18.2098 13.6322 18.2098 13.6322C17.9177 13.7782 25.708 8.61719 25.708 8.61719V17.9655C25.708 18.988 25.075 19.4262 24.3447 19.4262H16.1162V12.5123Z" fill="#0072C6"/>
<path d="M43.2361 22.883C40.5096 22.883 38.3672 22.0066 36.7118 20.2051C35.0564 18.4036 34.2773 16.0665 34.2773 13.2426C34.2773 10.1752 35.1051 7.69201 36.7605 5.89051C38.4159 4.04033 40.7043 3.11523 43.577 3.11523C46.2062 3.11523 48.3485 3.99164 49.9552 5.79314C51.562 7.59463 52.3897 9.88302 52.3897 12.7557C52.3897 15.8718 51.562 18.3549 49.9066 20.1564C48.2511 22.0066 46.0114 22.883 43.2361 22.883ZM43.4309 5.16018C41.4346 5.16018 39.7792 5.89051 38.5133 7.35119C37.2474 8.81186 36.6144 10.7107 36.6144 13.0478C36.6144 15.3849 37.2474 17.2838 38.4646 18.7444C39.6818 20.2051 41.2886 20.8868 43.2361 20.8868C45.3298 20.8868 46.9852 20.2051 48.2024 18.8418C49.4197 17.4785 50.0039 15.531 50.0039 13.0965C50.0039 10.5647 49.4197 8.61711 48.2511 7.25381C47.0826 5.84183 45.4758 5.16018 43.4309 5.16018Z" fill="#0072C6"/>
<path d="M66.2171 22.5918H64.0261V20.4495H63.9774C63.0523 22.1049 61.6403 22.9326 59.7415 22.9326C56.4793 22.9326 54.8726 20.9851 54.8726 17.0899V8.91016H57.0636V16.7491C57.0636 19.6218 58.1834 21.0824 60.3744 21.0824C61.4456 21.0824 62.322 20.6929 63.0036 19.9139C63.6853 19.1349 64.0261 18.1124 64.0261 16.7978V8.91016H66.2171V22.5918Z" fill="#0072C6"/>
<path d="M76.296 22.4459C75.7605 22.738 75.0788 22.8841 74.2511 22.8841C71.8653 22.8841 70.6481 21.5695 70.6481 18.8916V10.8092H68.311V8.95902H70.6481V5.59948L72.8391 4.86914V8.91034H76.296V10.7605H72.8391V18.4534C72.8391 19.3785 72.9852 20.0115 73.326 20.401C73.6182 20.7905 74.1537 20.9852 74.8841 20.9852C75.4196 20.9852 75.9065 20.8392 76.296 20.547V22.4459Z" fill="#0072C6"/>
<path d="M7.6931 10.127C7.15752 10.127 6.71932 10.3704 6.37849 10.906C6.03767 11.4416 5.8916 12.1232 5.8916 12.9509C5.8916 13.8273 6.03767 14.509 6.37849 14.9959C6.71932 15.4828 7.10883 15.7749 7.64441 15.7749C8.17999 15.7749 8.61819 15.5314 8.95902 15.0446C9.29984 14.5577 9.44591 13.876 9.44591 12.9996C9.44591 12.0745 9.29984 11.3929 8.95902 10.8573C8.66688 10.4191 8.22868 10.127 7.6931 10.127Z" fill="#0072C6"/>
<path d="M0 2.92135V22.8352L15.1423 26V0L0 2.92135ZM10.1273 16.2622C9.49438 17.0899 8.66666 17.5281 7.64419 17.5281C6.62172 17.5281 5.84269 17.1386 5.20974 16.3109C4.57678 15.4831 4.28464 14.412 4.28464 13.0974C4.28464 11.7341 4.62547 10.6142 5.25843 9.73783C5.89139 8.86142 6.76779 8.47191 7.79026 8.47191C8.81273 8.47191 9.59176 8.86142 10.2247 9.68913C10.8577 10.5168 11.1498 11.588 11.1498 12.9026C11.1011 14.3146 10.7603 15.3858 10.1273 16.2622Z" fill="#0072C6"/>
<path d="M81.4083 2.33789H79.2173V22.5926H81.4083V2.33789Z" fill="#0072C6"/>
<path d="M90.8541 22.883C88.8092 22.883 87.2025 22.25 86.0339 20.9841C84.8167 19.7182 84.2324 18.0141 84.2324 15.9204C84.2324 13.632 84.8654 11.8305 86.1313 10.5159C87.3972 9.20132 89.1013 8.56836 91.2437 8.56836C93.2886 8.56836 94.8953 9.20132 96.0152 10.4672C97.135 11.7332 97.7193 13.486 97.7193 15.677C97.7193 17.868 97.0863 19.6208 95.8691 20.9354C94.6032 22.25 92.9478 22.883 90.8541 22.883ZM91.0002 10.4185C89.5882 10.4185 88.4684 10.9054 87.6407 11.8305C86.8129 12.8043 86.4234 14.1189 86.4234 15.7744C86.4234 17.3811 86.8616 18.6957 87.6894 19.6208C88.5171 20.5459 89.6369 21.0328 91.0002 21.0328C92.4122 21.0328 93.4834 20.5946 94.2624 19.6695C95.0414 18.7444 95.3822 17.4298 95.3822 15.7744C95.3822 14.0702 94.9927 12.7556 94.2624 11.8305C93.532 10.9054 92.4609 10.4185 91.0002 10.4185Z" fill="#0072C6"/>
<path d="M106.191 22.883C104.146 22.883 102.539 22.25 101.371 20.9841C100.154 19.7182 99.5693 18.0141 99.5693 15.9204C99.5693 13.632 100.202 11.8305 101.468 10.5159C102.734 9.20132 104.438 8.56836 106.581 8.56836C108.626 8.56836 110.232 9.20132 111.352 10.4672C112.472 11.7332 113.056 13.486 113.056 15.677C113.056 17.868 112.423 19.6208 111.206 20.9354C109.94 22.25 108.285 22.883 106.191 22.883ZM106.386 10.4185C104.974 10.4185 103.854 10.9054 103.026 11.8305C102.199 12.8043 101.809 14.1189 101.809 15.7744C101.809 17.3811 102.247 18.6957 103.075 19.6208C103.903 20.5459 105.023 21.0328 106.386 21.0328C107.798 21.0328 108.869 20.5946 109.648 19.6695C110.427 18.7444 110.768 17.4298 110.768 15.7744C110.768 14.0702 110.378 12.7556 109.648 11.8305C108.869 10.9054 107.798 10.4185 106.386 10.4185Z" fill="#0072C6"/>
<path d="M127.176 22.5926H124.109L118.071 16.0195H118.023V22.5926H115.832V2.33789H118.023V15.1918H118.071L123.817 8.91092H126.689L120.36 15.5326L127.176 22.5926Z" fill="#0072C6"/>
</svg>
