<svg width="24" height="24" viewBox="0 0 24 24" fill="none" xmlns="http://www.w3.org/2000/svg">
<path d="M14 2H6C5.46957 2 4.96086 2.21071 4.58579 2.58579C4.21071 2.96086 4 3.46957 4 4V20C4 20.5304 4.21071 21.0391 4.58579 21.4142C4.96086 21.7893 5.46957 22 6 22H18C18.5304 22 19.0391 21.7893 19.4142 21.4142C19.7893 21.0391 20 20.5304 20 20V8L14 2ZM18 20H6V4H13V9H18V20Z" fill="#2196F3"/>
<path d="M7.45455 13.4545V13H7V13.4545H7.45455ZM11.0909 13.4545V13H10.6364V13.4545H11.0909ZM11.0909 17.0909H10.6364V17.5455H11.0909V17.0909ZM7.45455 13.9091H8.36364V13H7.45455V13.9091ZM7.90909 17.5455V15.2727H7V17.5455H7.90909ZM7.90909 15.2727V13.4545H7V15.2727H7.90909ZM8.36364 14.8182H7.45455V15.7273H8.36364V14.8182ZM8.81818 14.3636C8.81818 14.4842 8.77029 14.5998 8.68505 14.685C8.5998 14.7703 8.48419 14.8182 8.36364 14.8182V15.7273C8.7253 15.7273 9.07214 15.5836 9.32787 15.3279C9.5836 15.0721 9.72727 14.7253 9.72727 14.3636H8.81818ZM8.36364 13.9091C8.48419 13.9091 8.5998 13.957 8.68505 14.0422C8.77029 14.1275 8.81818 14.2431 8.81818 14.3636H9.72727C9.72727 14.002 9.5836 13.6551 9.32787 13.3994C9.07214 13.1437 8.7253 13 8.36364 13V13.9091ZM10.6364 13.4545V17.0909H11.5455V13.4545H10.6364ZM11.0909 17.5455H12V16.6364H11.0909V17.5455ZM13.3636 16.1818V14.3636H12.4545V16.1818H13.3636ZM12 13H11.0909V13.9091H12V13ZM13.3636 14.3636C13.3636 14.002 13.22 13.6551 12.9642 13.3994C12.7085 13.1437 12.3617 13 12 13V13.9091C12.1206 13.9091 12.2362 13.957 12.3214 14.0422C12.4067 14.1275 12.4545 14.2431 12.4545 14.3636H13.3636ZM12 17.5455C12.3617 17.5455 12.7085 17.4018 12.9642 17.1461C13.22 16.8903 13.3636 16.5435 13.3636 16.1818H12.4545C12.4545 16.3024 12.4067 16.418 12.3214 16.5032C12.2362 16.5885 12.1206 16.6364 12 16.6364V17.5455ZM14.2727 13V17.5455H15.1818V13H14.2727ZM14.7273 13.9091H17V13H14.7273V13.9091ZM14.7273 15.7273H16.0909V14.8182H14.7273V15.7273Z" fill="#2196F3"/>
</svg>
