<svg width="72" height="72" viewBox="0 0 72 72" fill="none" xmlns="http://www.w3.org/2000/svg">
<g filter="url(#filter0_d_7094_3205)">
<g clip-path="url(#clip0_7094_3205)">
<circle cx="36" cy="36" r="26.6875" fill="white" stroke="#2196F3" stroke-width="2.625"/>
<path d="M35.999 57.875C38.8717 57.875 41.7162 57.3092 44.3702 56.2099C47.0242 55.1105 49.4357 53.4992 51.467 51.468C53.4983 49.4367 55.1096 47.0252 56.2089 44.3712C57.3082 41.7172 57.874 38.8727 57.874 36C57.874 33.1273 57.3082 30.2828 56.2089 27.6288C55.1096 24.9748 53.4983 22.5633 51.467 20.532C49.4357 18.5008 47.0242 16.8895 44.3702 15.7901C41.7162 14.6908 38.8717 14.125 35.999 14.125L35.999 36L35.999 57.875Z" fill="#2196F3"/>
<path opacity="0.2" d="M35.999 57.875C38.8717 57.875 41.7162 57.3092 44.3702 56.2099C47.0242 55.1105 49.4357 53.4992 51.467 51.468C53.4983 49.4367 55.1096 47.0252 56.2089 44.3712C57.3082 41.7172 57.874 38.8727 57.874 36C57.874 33.1273 57.3082 30.2828 56.2089 27.6288C55.1096 24.9748 53.4983 22.5633 51.467 20.532C49.4357 18.5008 47.0242 16.8895 44.3702 15.7901C41.7162 14.6908 38.8717 14.125 35.999 14.125L35.999 36L35.999 57.875Z" fill="white"/>
<path d="M35.999 14.1248C33.1264 14.1248 30.2818 14.6906 27.6278 15.7899C24.9738 16.8892 22.5623 18.5005 20.5311 20.5318C18.4998 22.5631 16.8885 24.9746 15.7892 27.6286C14.6898 30.2826 14.124 33.1271 14.124 35.9998C14.124 38.8724 14.6898 41.717 15.7892 44.371C16.8885 47.025 18.4998 49.4364 20.5311 51.4677C22.5623 53.499 24.9738 55.1103 27.6278 56.2096C30.2818 57.3089 33.1264 57.8748 35.999 57.8748L35.999 35.9998L35.999 14.1248Z" fill="#2196F3"/>
<path opacity="0.2" d="M35.999 14.1248C33.1264 14.1248 30.2818 14.6906 27.6278 15.7899C24.9738 16.8892 22.5623 18.5005 20.5311 20.5318C18.4998 22.5631 16.8885 24.9746 15.7892 27.6286C14.6898 30.2826 14.124 33.1271 14.124 35.9998C14.124 38.8724 14.6898 41.717 15.7892 44.371C16.8885 47.025 18.4998 49.4364 20.5311 51.4677C22.5623 53.499 24.9738 55.1103 27.6278 56.2096C30.2818 57.3089 33.1264 57.8748 35.999 57.8748L35.999 35.9998L35.999 14.1248Z" fill="#383B41"/>
<rect opacity="0.15" x="24.3359" y="1.87476" width="6.73371" height="66.5" transform="rotate(15 24.3359 1.87476)" fill="white"/>
<rect opacity="0.15" x="33.0859" y="3.62476" width="1.56821" height="66.5" transform="rotate(15 33.0859 3.62476)" fill="white"/>
<path d="M36.0003 22.6667C34.2494 22.6667 32.5156 23.0116 30.8979 23.6817C29.2802 24.3518 27.8103 25.3339 26.5722 26.572C24.0717 29.0725 22.667 32.4639 22.667 36.0001C22.667 39.5363 24.0717 42.9277 26.5722 45.4282C27.8103 46.6663 29.2802 47.6484 30.8979 48.3185C32.5156 48.9885 34.2494 49.3334 36.0003 49.3334C39.5365 49.3334 42.9279 47.9287 45.4284 45.4282C47.9289 42.9277 49.3337 39.5363 49.3337 36.0001C49.3337 34.4534 49.0537 32.9201 48.5203 31.4801L46.387 33.6134C46.5737 34.4001 46.667 35.2001 46.667 36.0001C46.667 38.8291 45.5432 41.5422 43.5428 43.5426C41.5424 45.5429 38.8293 46.6667 36.0003 46.6667C33.1713 46.6667 30.4582 45.5429 28.4579 43.5426C26.4575 41.5422 25.3337 38.8291 25.3337 36.0001C25.3337 33.1711 26.4575 30.458 28.4579 28.4576C30.4582 26.4572 33.1713 25.3334 36.0003 25.3334C36.8003 25.3334 37.6003 25.4267 38.387 25.6134L40.5337 23.4667C39.0803 22.9467 37.547 22.6667 36.0003 22.6667ZM45.3337 22.6667L40.0003 28.0001V30.0001L36.6003 33.4001C36.4003 33.3334 36.2003 33.3334 36.0003 33.3334C35.2931 33.3334 34.6148 33.6144 34.1147 34.1145C33.6146 34.6146 33.3337 35.2928 33.3337 36.0001C33.3337 36.7073 33.6146 37.3856 34.1147 37.8857C34.6148 38.3858 35.2931 38.6667 36.0003 38.6667C36.7076 38.6667 37.3858 38.3858 37.8859 37.8857C38.386 37.3856 38.667 36.7073 38.667 36.0001C38.667 35.8001 38.667 35.6001 38.6003 35.4001L42.0003 32.0001H44.0003L49.3337 26.6667H45.3337V22.6667ZM36.0003 28.0001C33.8786 28.0001 31.8438 28.8429 30.3435 30.3432C28.8432 31.8435 28.0003 33.8783 28.0003 36.0001C28.0003 38.1218 28.8432 40.1566 30.3435 41.6569C31.8438 43.1572 33.8786 44.0001 36.0003 44.0001C38.1221 44.0001 40.1569 43.1572 41.6572 41.6569C43.1575 40.1566 44.0003 38.1218 44.0003 36.0001H41.3337C41.3337 37.4146 40.7718 38.7711 39.7716 39.7713C38.7714 40.7715 37.4148 41.3334 36.0003 41.3334C34.5858 41.3334 33.2293 40.7715 32.2291 39.7713C31.2289 38.7711 30.667 37.4146 30.667 36.0001C30.667 34.5856 31.2289 33.229 32.2291 32.2288C33.2293 31.2287 34.5858 30.6667 36.0003 30.6667V28.0001Z" fill="white"/>
</g>
<path fill-rule="evenodd" clip-rule="evenodd" d="M14.9993 18.074L18.6043 20.2498L17.6477 16.149L20.8327 13.3898L16.6385 13.034L14.9993 9.1665L13.3602 13.034L9.16602 13.3898L12.351 16.149L11.3943 20.2498L14.9993 18.074Z" fill="#FFEFAE" stroke="#FFD100" stroke-width="0.4375"/>
<path fill-rule="evenodd" clip-rule="evenodd" d="M57.0003 18.074L60.6053 20.2498L59.6487 16.149L62.8337 13.3898L58.6395 13.034L57.0003 9.1665L55.3612 13.034L51.167 13.3898L54.352 16.149L53.3953 20.2498L57.0003 18.074Z" fill="#FFEFAE" stroke="#FFD100" stroke-width="0.4375"/>
</g>
<defs>
<filter id="filter0_d_7094_3205" x="2" y="4" width="68" height="68" filterUnits="userSpaceOnUse" color-interpolation-filters="sRGB">
<feFlood flood-opacity="0" result="BackgroundImageFix"/>
<feColorMatrix in="SourceAlpha" type="matrix" values="0 0 0 0 0 0 0 0 0 0 0 0 0 0 0 0 0 0 127 0" result="hardAlpha"/>
<feOffset dy="2"/>
<feGaussianBlur stdDeviation="3"/>
<feComposite in2="hardAlpha" operator="out"/>
<feColorMatrix type="matrix" values="0 0 0 0 0 0 0 0 0 0 0 0 0 0 0 0 0 0 0.15 0"/>
<feBlend mode="normal" in2="BackgroundImageFix" result="effect1_dropShadow_7094_3205"/>
<feBlend mode="normal" in="SourceGraphic" in2="effect1_dropShadow_7094_3205" result="shape"/>
</filter>
<clipPath id="clip0_7094_3205">
<rect x="8" y="8" width="56" height="56" rx="28" fill="white"/>
</clipPath>
</defs>
</svg>
