<svg xmlns="http://www.w3.org/2000/svg" width="73" height="66" viewBox="0 0 73 66">
    <g fill="none" fill-rule="evenodd" opacity=".3">
        <g fill="#FFF">
            <g>
                <g>
                    <path d="M6 0h54c3.314 0 6 2.686 6 6v54c0 3.314-2.686 6-6 6H6c-3.314 0-6-2.686-6-6V6c0-3.314 2.686-6 6-6zm54.463 14.463c-1.95 1.952-1.95 5.127 0 7.078.973.973 2.25 1.459 3.53 1.459 1.281 0 2.565-.489 3.542-1.465 1.95-1.952 1.954-5.124.007-7.072-1.952-1.952-5.127-1.95-7.079 0zm5.657 5.658c-1.172 1.17-3.074 1.172-4.242.006-1.171-1.171-1.17-3.077 0-4.249.586-.585 1.356-.878 2.126-.878.769 0 1.538.292 2.124.878 1.166 1.168 1.162 3.071-.008 4.243zm4.066-8.293C68.361 10.004 65.936 9 63.36 9s-5.002 1.004-6.828 2.828c-2.682 2.678-3.528 6.696-2.216 10.213L30.276 46.05c-3.943 3.94-10.363 3.941-14.31 0-3.941-3.937-3.938-10.345.008-14.285l1.914-1.911 4.434 5.223 1.201-21.307-12.785 12.767c-7.646 7.637-7.651 17.12-.014 24.748C14.468 55.025 18.751 57 23.111 57h.007c4.36-.002 8.647-1.981 12.393-5.722l23.877-23.845c3.606 1.614 7.931.852 10.777-1.99 1.825-1.822 2.832-4.242 2.835-6.815.003-2.571-.996-4.986-2.814-6.8z" transform="translate(-223 -93) translate(16) translate(207 93)"/>
                </g>
            </g>
        </g>
    </g>
</svg>
