<svg width="72" height="72" viewBox="0 0 72 72" fill="none" xmlns="http://www.w3.org/2000/svg">
<g filter="url(#filter0_d_7094_2389)">
<g clip-path="url(#clip0_7094_2389)">
<circle cx="36" cy="36" r="26.6875" fill="white" stroke="#2196F3" stroke-width="2.625"/>
<path d="M35.999 57.875C38.8717 57.875 41.7162 57.3092 44.3702 56.2099C47.0242 55.1105 49.4357 53.4992 51.467 51.468C53.4983 49.4367 55.1096 47.0252 56.2089 44.3712C57.3082 41.7172 57.874 38.8727 57.874 36C57.874 33.1273 57.3082 30.2828 56.2089 27.6288C55.1096 24.9748 53.4983 22.5633 51.467 20.532C49.4357 18.5008 47.0242 16.8895 44.3702 15.7901C41.7162 14.6908 38.8717 14.125 35.999 14.125L35.999 36L35.999 57.875Z" fill="#2196F3"/>
<path opacity="0.2" d="M35.999 57.875C38.8717 57.875 41.7162 57.3092 44.3702 56.2099C47.0242 55.1105 49.4357 53.4992 51.467 51.468C53.4983 49.4367 55.1096 47.0252 56.2089 44.3712C57.3082 41.7172 57.874 38.8727 57.874 36C57.874 33.1273 57.3082 30.2828 56.2089 27.6288C55.1096 24.9748 53.4983 22.5633 51.467 20.532C49.4357 18.5008 47.0242 16.8895 44.3702 15.7901C41.7162 14.6908 38.8717 14.125 35.999 14.125L35.999 36L35.999 57.875Z" fill="white"/>
<path d="M35.999 14.1248C33.1264 14.1248 30.2818 14.6906 27.6278 15.7899C24.9738 16.8892 22.5623 18.5005 20.5311 20.5318C18.4998 22.5631 16.8885 24.9746 15.7892 27.6286C14.6898 30.2826 14.124 33.1271 14.124 35.9998C14.124 38.8724 14.6898 41.717 15.7892 44.371C16.8885 47.025 18.4998 49.4364 20.5311 51.4677C22.5623 53.499 24.9738 55.1103 27.6278 56.2096C30.2818 57.3089 33.1264 57.8748 35.999 57.8748L35.999 35.9998L35.999 14.1248Z" fill="#2196F3"/>
<path opacity="0.2" d="M35.999 14.1248C33.1264 14.1248 30.2818 14.6906 27.6278 15.7899C24.9738 16.8892 22.5623 18.5005 20.5311 20.5318C18.4998 22.5631 16.8885 24.9746 15.7892 27.6286C14.6898 30.2826 14.124 33.1271 14.124 35.9998C14.124 38.8724 14.6898 41.717 15.7892 44.371C16.8885 47.025 18.4998 49.4364 20.5311 51.4677C22.5623 53.499 24.9738 55.1103 27.6278 56.2096C30.2818 57.3089 33.1264 57.8748 35.999 57.8748L35.999 35.9998L35.999 14.1248Z" fill="#383B41"/>
<rect opacity="0.15" x="24.3359" y="1.87476" width="6.73371" height="66.5" transform="rotate(15 24.3359 1.87476)" fill="white"/>
<rect opacity="0.15" x="33.0859" y="3.62488" width="1.56821" height="66.5" transform="rotate(15 33.0859 3.62488)" fill="white"/>
<path d="M23.9997 25.3333H45.333C46.0403 25.3333 46.7185 25.6142 47.2186 26.1143C47.7187 26.6144 47.9997 27.2927 47.9997 27.9999V34.4266C46.6663 33.1333 44.933 32.3066 43.0797 32.0799L45.333 30.6666V27.9999L34.6663 34.6666L23.9997 27.9999V30.6666L34.1597 37.0133C33.613 38.1599 33.333 39.3999 33.333 40.6666C33.333 42.9066 34.1997 45.0533 35.7463 46.6666H23.9997C23.2924 46.6666 22.6142 46.3856 22.1141 45.8855C21.614 45.3854 21.333 44.7072 21.333 43.9999V27.9999C21.333 26.5199 22.5197 25.3333 23.9997 25.3333ZM41.9997 34.6666C45.333 34.6666 47.9997 37.3333 47.9997 40.6666C47.9997 41.8399 47.6663 42.9466 47.0797 43.8666L51.1863 47.9999L49.333 49.8533L45.173 45.7599C44.253 46.3333 43.1597 46.6666 41.9997 46.6666C38.6663 46.6666 35.9997 43.9999 35.9997 40.6666C35.9997 37.3333 38.6663 34.6666 41.9997 34.6666ZM41.9997 37.3333C41.1156 37.3333 40.2678 37.6844 39.6427 38.3096C39.0175 38.9347 38.6663 39.7825 38.6663 40.6666C38.6663 41.5506 39.0175 42.3985 39.6427 43.0236C40.2678 43.6487 41.1156 43.9999 41.9997 43.9999C42.8837 43.9999 43.7316 43.6487 44.3567 43.0236C44.9818 42.3985 45.333 41.5506 45.333 40.6666C45.333 39.7825 44.9818 38.9347 44.3567 38.3096C43.7316 37.6844 42.8837 37.3333 41.9997 37.3333Z" fill="white"/>
</g>
<path fill-rule="evenodd" clip-rule="evenodd" d="M14.9993 18.0739L18.6043 20.2497L17.6477 16.1489L20.8327 13.3897L16.6385 13.0339L14.9993 9.16638L13.3602 13.0339L9.16602 13.3897L12.351 16.1489L11.3943 20.2497L14.9993 18.0739Z" fill="#FFEFAE" stroke="#FFD100" stroke-width="0.4375"/>
<path fill-rule="evenodd" clip-rule="evenodd" d="M57.0003 18.0738L60.6053 20.2496L59.6487 16.1488L62.8337 13.3896L58.6395 13.0338L57.0003 9.16626L55.3612 13.0338L51.167 13.3896L54.352 16.1488L53.3953 20.2496L57.0003 18.0738Z" fill="#FFEFAE" stroke="#FFD100" stroke-width="0.4375"/>
</g>
<defs>
<filter id="filter0_d_7094_2389" x="2" y="3.99988" width="68" height="68.0001" filterUnits="userSpaceOnUse" color-interpolation-filters="sRGB">
<feFlood flood-opacity="0" result="BackgroundImageFix"/>
<feColorMatrix in="SourceAlpha" type="matrix" values="0 0 0 0 0 0 0 0 0 0 0 0 0 0 0 0 0 0 127 0" result="hardAlpha"/>
<feOffset dy="2"/>
<feGaussianBlur stdDeviation="3"/>
<feComposite in2="hardAlpha" operator="out"/>
<feColorMatrix type="matrix" values="0 0 0 0 0 0 0 0 0 0 0 0 0 0 0 0 0 0 0.15 0"/>
<feBlend mode="normal" in2="BackgroundImageFix" result="effect1_dropShadow_7094_2389"/>
<feBlend mode="normal" in="SourceGraphic" in2="effect1_dropShadow_7094_2389" result="shape"/>
</filter>
<clipPath id="clip0_7094_2389">
<rect x="8" y="8" width="56" height="56" rx="28" fill="white"/>
</clipPath>
</defs>
</svg>
