<svg width="40" height="40" viewBox="0 0 40 40" fill="none" xmlns="http://www.w3.org/2000/svg">
<mask id="mask0_2429_43285" style="mask-type:alpha" maskUnits="userSpaceOnUse" x="5" y="5" width="30" height="30">
<path fill-rule="evenodd" clip-rule="evenodd" d="M26.2167 5H13.7833L5 13.7833V26.2167L13.7833 35H26.2167L35 26.2167V13.7833L26.2167 5V5ZM20 28.8333C18.8 28.8333 17.8333 27.8667 17.8333 26.6667C17.8333 25.4667 18.8 24.5 20 24.5C21.2 24.5 22.1667 25.4667 22.1667 26.6667C22.1667 27.8667 21.2 28.8333 20 28.8333V28.8333ZM21.6667 21.6667H18.3333V11.6667H21.6667V21.6667V21.6667Z" fill="white"/>
</mask>
<g mask="url(#mask0_2429_43285)">
<rect x="-21.6667" y="-21.6665" width="83.3333" height="83.3333" fill="#217124"/>
<mask id="mask1_2429_43285" style="mask-type:alpha" maskUnits="userSpaceOnUse" x="-22" y="-22" width="84" height="84">
<rect x="-21.6667" y="-21.6665" width="83.3333" height="83.3333" fill="white"/>
</mask>
<g mask="url(#mask1_2429_43285)">
</g>
</g>
</svg>
