<svg width="41" height="40" viewBox="0 0 41 40" fill="none" xmlns="http://www.w3.org/2000/svg">
<mask id="mask0_3713_76224" style="mask-type:luminance" maskUnits="userSpaceOnUse" x="7" y="1" width="29" height="38">
<path fill-rule="evenodd" clip-rule="evenodd" d="M32.417 1.66797H15.7503C13.917 1.66797 12.417 3.16797 12.417 5.0013V10.0013H15.7503V6.66797H32.417V33.3346H15.7503V30.0013H12.417V35.0013C12.417 36.8346 13.917 38.3346 15.7503 38.3346H32.417C34.2503 38.3346 35.7503 36.8346 35.7503 35.0013V5.0013C35.7503 3.16797 34.2503 1.66797 32.417 1.66797ZM18.7503 18.3346V15.8346C18.7503 13.5013 16.417 11.668 14.0837 11.668C11.7503 11.668 9.41699 13.5013 9.41699 15.8346V18.3346C8.41699 18.3346 7.41699 19.3346 7.41699 20.3346V26.168C7.41699 27.3346 8.41699 28.3346 9.41699 28.3346H18.5837C19.7503 28.3346 20.7503 27.3346 20.7503 26.3346V20.5013C20.7503 19.3346 19.7503 18.3346 18.7503 18.3346ZM16.5837 18.3346H11.5837V15.8346C11.5837 14.5013 12.7503 13.668 14.0837 13.668C15.417 13.668 16.5837 14.5013 16.5837 15.8346V18.3346Z" fill="white"/>
</mask>
<g mask="url(#mask0_3713_76224)">
<rect x="-20.917" y="-21.668" width="83.3333" height="83.3333" fill="#B83A3A"/>
<mask id="mask1_3713_76224" style="mask-type:luminance" maskUnits="userSpaceOnUse" x="-21" y="-22" width="84" height="84">
<rect x="-20.917" y="-21.668" width="83.3333" height="83.3333" fill="white"/>
</mask>
<g mask="url(#mask1_3713_76224)">
</g>
</g>
</svg>
