<svg width="22" height="22" viewBox="0 0 22 22" fill="none" xmlns="http://www.w3.org/2000/svg">
<g clip-path="url(#clip0_5227_989)">
<path d="M3.42224 2.44434C3.16291 2.44434 2.91421 2.54735 2.73084 2.73072C2.54747 2.91409 2.44446 3.16279 2.44446 3.42211V7.33323H7.33335V2.44434H3.42224ZM6.11112 6.111H3.66668V3.66656H6.11112V6.111Z" fill="#757575"/>
<path d="M2.44446 18.5779C2.44446 18.8372 2.54747 19.0859 2.73084 19.2693C2.91421 19.4526 3.16291 19.5556 3.42224 19.5556H7.33335V14.6667H2.44446V18.5779ZM3.66668 15.889H6.11112V18.3334H3.66668V15.889Z" fill="#757575"/>
<path d="M14.6666 19.5556H18.5777C18.8371 19.5556 19.0858 19.4526 19.2691 19.2693C19.4525 19.0859 19.5555 18.8372 19.5555 18.5779V14.6667H14.6666V19.5556ZM15.8888 15.889H18.3333V18.3334H15.8888V15.889Z" fill="#757575"/>
<path d="M18.5777 2.44434H14.6666V7.33323H19.5555V3.42211C19.5555 3.16279 19.4525 2.91409 19.2691 2.73072C19.0858 2.54735 18.8371 2.44434 18.5777 2.44434ZM18.3333 6.111H15.8888V3.66656H18.3333V6.111Z" fill="#757575"/>
<path d="M12.2223 6.11114V4.88892H9.77783V7.33336H11.0001V6.11114H12.2223Z" fill="#757575"/>
<path d="M7.33337 7.33325H8.5556V8.55547H7.33337V7.33325Z" fill="#757575"/>
<path d="M8.55554 8.55566H11V9.77789H8.55554V8.55566Z" fill="#757575"/>
<path d="M12.2222 3.66656V4.88878H13.4444V2.44434H8.55554V4.88878H9.77776V3.66656H12.2222Z" fill="#757575"/>
<path d="M2.44446 8.55566H3.66668V11.0001H2.44446V8.55566Z" fill="#757575"/>
<path d="M7.33335 9.77789V11.0001H6.11112V8.55566H4.8889V11.0001H3.66668V12.2223H2.44446V13.4446H4.8889V12.2223H6.11112V13.4446H7.33335V12.2223H8.55557V9.77789H7.33335Z" fill="#757575"/>
<path d="M12.2222 9.77775H13.4444V11H14.6667V9.77775H15.8889V8.55553H13.4444V6.11108H12.2222V7.33331H11V8.55553H12.2222V9.77775Z" fill="#757575"/>
<path d="M11 18.3333H8.55554V19.5555H13.4444V18.3333H12.2222V17.1111H11V18.3333Z" fill="#757575"/>
<path d="M13.4445 12.2223V11.0001H12.2223V9.77783H11.0001V11.0001H9.77783V12.2223H11.0001V13.4445H12.2223V12.2223H13.4445Z" fill="#757575"/>
<path d="M18.3334 12.2222H19.5556V13.4444H18.3334V12.2222Z" fill="#757575"/>
<path d="M13.4445 12.2222H17.1111V13.4444H13.4445V12.2222Z" fill="#757575"/>
<path d="M18.3334 8.55566H17.1111V9.77789H15.8889V11.0001H17.1111V12.2223H18.3334V11.0001H19.5556V9.77789H18.3334V8.55566Z" fill="#757575"/>
<path d="M12.2222 13.4443H13.4444V17.111H12.2222V13.4443Z" fill="#757575"/>
<path d="M8.55554 17.1111H9.77776V15.8888H11V14.6666H9.77776V12.2222H8.55554V17.1111Z" fill="#757575"/>
</g>
<defs>
<clipPath id="clip0_5227_989">
<rect width="22" height="22" fill="white"/>
</clipPath>
</defs>
</svg>
