<svg width="22" height="22" viewBox="0 0 22 22" fill="none" xmlns="http://www.w3.org/2000/svg">
<g clip-path="url(#clip0_12465_3764)">
<path d="M3.42211 2.44531C3.16279 2.44531 2.91409 2.54833 2.73072 2.7317C2.54735 2.91507 2.44434 3.16377 2.44434 3.42309V7.3342H7.33323V2.44531H3.42211ZM6.111 6.11198H3.66656V3.66753H6.111V6.11198Z" fill="#2196F3"/>
<path d="M2.44434 18.5771C2.44434 18.8364 2.54735 19.0852 2.73072 19.2685C2.91409 19.4519 3.16279 19.5549 3.42211 19.5549H7.33323V14.666H2.44434V18.5771ZM3.66656 15.8882H6.111V18.3327H3.66656V15.8882Z" fill="#2196F3"/>
<path d="M14.6667 19.5549H18.5779C18.8372 19.5549 19.0859 19.4519 19.2693 19.2685C19.4526 19.0852 19.5556 18.8364 19.5556 18.5771V14.666H14.6667V19.5549ZM15.889 15.8882H18.3334V18.3327H15.889V15.8882Z" fill="#2196F3"/>
<path d="M18.5779 2.44531H14.6667V7.3342H19.5556V3.42309C19.5556 3.16377 19.4526 2.91507 19.2693 2.7317C19.0859 2.54833 18.8372 2.44531 18.5779 2.44531ZM18.3334 6.11198H15.889V3.66753H18.3334V6.11198Z" fill="#2196F3"/>
<path d="M12.2223 6.11089V4.88867H9.77783V7.33312H11.0001V6.11089H12.2223Z" fill="#2196F3"/>
<path d="M7.33325 7.33398H8.55547V8.55621H7.33325V7.33398Z" fill="#2196F3"/>
<path d="M8.55566 8.55469H11.0001V9.77691H8.55566V8.55469Z" fill="#2196F3"/>
<path d="M12.2223 3.66753V4.88976H13.4446V2.44531H8.55566V4.88976H9.77789V3.66753H12.2223Z" fill="#2196F3"/>
<path d="M2.44434 8.55469H3.66656V10.9991H2.44434V8.55469Z" fill="#2196F3"/>
<path d="M7.33322 9.77691V10.9991H6.111V8.55469H4.88878V10.9991H3.66656V12.2214H2.44434V13.4436H4.88878V12.2214H6.111V13.4436H7.33322V12.2214H8.55545V9.77691H7.33322Z" fill="#2196F3"/>
<path d="M12.2222 9.77799H13.4444V11.0002H14.6667V9.77799H15.8889V8.55577H13.4444V6.11133H12.2222V7.33355H11V8.55577H12.2222V9.77799Z" fill="#2196F3"/>
<path d="M11.0001 18.3336H8.55566V19.5558H13.4446V18.3336H12.2223V17.1113H11.0001V18.3336Z" fill="#2196F3"/>
<path d="M13.4445 12.2218V10.9996H12.2223V9.77734H11.0001V10.9996H9.77783V12.2218H11.0001V13.444H12.2223V12.2218H13.4445Z" fill="#2196F3"/>
<path d="M18.3333 12.2227H19.5555V13.4449H18.3333V12.2227Z" fill="#2196F3"/>
<path d="M13.4443 12.2227H17.111V13.4449H13.4443V12.2227Z" fill="#2196F3"/>
<path d="M18.3334 8.55469H17.1111V9.77691H15.8889V10.9991H17.1111V12.2214H18.3334V10.9991H19.5556V9.77691H18.3334V8.55469Z" fill="#2196F3"/>
<path d="M12.2222 13.4453H13.4444V17.112H12.2222V13.4453Z" fill="#2196F3"/>
<path d="M8.55566 17.1115H9.77789V15.8893H11.0001V14.6671H9.77789V12.2227H8.55566V17.1115Z" fill="#2196F3"/>
</g>
<defs>
<clipPath id="clip0_12465_3764">
<rect width="22" height="22" fill="white"/>
</clipPath>
</defs>
</svg>
