<svg width="24" height="24" viewBox="0 0 24 24" fill="none" xmlns="http://www.w3.org/2000/svg">
<g id="quishing" clip-path="url(#clip0_6596_27721)">
<path id="Vector" d="M3.73366 2.66602C3.45076 2.66602 3.17945 2.7784 2.97941 2.97844C2.77937 3.17847 2.66699 3.44978 2.66699 3.73268V7.99935H8.00033V2.66602H3.73366ZM6.66699 6.66602H4.00033V3.99935H6.66699V6.66602Z" fill="#757575"/>
<path id="Vector_2" d="M2.66699 20.2667C2.66699 20.5496 2.77937 20.8209 2.97941 21.0209C3.17945 21.221 3.45076 21.3333 3.73366 21.3333H8.00033V16H2.66699V20.2667ZM4.00033 17.3333H6.66699V20H4.00033V17.3333Z" fill="#757575"/>
<path id="Vector_3" d="M16 21.3333H20.2667C20.5496 21.3333 20.8209 21.221 21.0209 21.0209C21.221 20.8209 21.3333 20.5496 21.3333 20.2667V16H16V21.3333ZM17.3333 17.3333H20V20H17.3333V17.3333Z" fill="#757575"/>
<path id="Vector_4" d="M20.2667 2.66602H16V7.99935H21.3333V3.73268C21.3333 3.44978 21.221 3.17847 21.0209 2.97844C20.8209 2.7784 20.5496 2.66602 20.2667 2.66602ZM20 6.66602H17.3333V3.99935H20V6.66602Z" fill="#757575"/>
<path id="Vector_5" d="M13.3337 6.66732V5.33398H10.667V8.00065H12.0003V6.66732H13.3337Z" fill="#757575"/>
<path id="Vector_6" d="M8 8H9.33333V9.33333H8V8Z" fill="#757575"/>
<path id="Vector_7" d="M9.33301 9.33398H11.9997V10.6673H9.33301V9.33398Z" fill="#757575"/>
<path id="Vector_8" d="M13.333 3.99935V5.33268H14.6663V2.66602H9.33301V5.33268H10.6663V3.99935H13.333Z" fill="#757575"/>
<path id="Vector_9" d="M2.66699 9.33398H4.00033V12.0007H2.66699V9.33398Z" fill="#757575"/>
<path id="Vector_10" d="M8.00033 10.6673V12.0007H6.66699V9.33398H5.33366V12.0007H4.00033V13.334H2.66699V14.6673H5.33366V13.334H6.66699V14.6673H8.00033V13.334H9.33366V10.6673H8.00033Z" fill="#757575"/>
<path id="Vector_11" d="M13.3333 10.666H14.6667V11.9993H16V10.666H17.3333V9.33268H14.6667V6.66602H13.3333V7.99935H12V9.33268H13.3333V10.666Z" fill="#757575"/>
<path id="Vector_12" d="M11.9997 19.9993H9.33301V21.3327H14.6663V19.9993H13.333V18.666H11.9997V19.9993Z" fill="#757575"/>
<path id="Vector_13" d="M14.667 13.3327V11.9993H13.3337V10.666H12.0003V11.9993H10.667V13.3327H12.0003V14.666H13.3337V13.3327H14.667Z" fill="#757575"/>
<path id="Vector_14" d="M20 13.334H21.3333V14.6673H20V13.334Z" fill="#757575"/>
<path id="Vector_15" d="M14.667 13.334H18.667V14.6673H14.667V13.334Z" fill="#757575"/>
<path id="Vector_16" d="M19.9997 9.33398H18.6663V10.6673H17.333V12.0007H18.6663V13.334H19.9997V12.0007H21.333V10.6673H19.9997V9.33398Z" fill="#757575"/>
<path id="Vector_17" d="M13.333 14.666H14.6663V18.666H13.333V14.666Z" fill="#757575"/>
<path id="Vector_18" d="M9.33301 18.6673H10.6663V17.334H11.9997V16.0007H10.6663V13.334H9.33301V18.6673Z" fill="#757575"/>
</g>
<defs>
<clipPath id="clip0_6596_27721">
<rect width="24" height="24" fill="white"/>
</clipPath>
</defs>
</svg>
