<svg width="72" height="72" viewBox="0 0 72 72" fill="none" xmlns="http://www.w3.org/2000/svg">
<g clip-path="url(#clip0_5774_32700)">
<g filter="url(#filter0_d_5774_32700)">
<g clip-path="url(#clip1_5774_32700)">
<circle cx="36" cy="36" r="26.6875" fill="white" stroke="#2196F3" stroke-width="2.625"/>
<path d="M35.999 57.875C38.8717 57.875 41.7162 57.3092 44.3702 56.2099C47.0242 55.1105 49.4357 53.4992 51.467 51.468C53.4983 49.4367 55.1096 47.0252 56.2089 44.3712C57.3082 41.7172 57.874 38.8727 57.874 36C57.874 33.1273 57.3082 30.2828 56.2089 27.6288C55.1096 24.9748 53.4983 22.5633 51.467 20.532C49.4357 18.5008 47.0242 16.8895 44.3702 15.7901C41.7162 14.6908 38.8717 14.125 35.999 14.125L35.999 36L35.999 57.875Z" fill="#2196F3"/>
<path opacity="0.2" d="M35.999 57.875C38.8717 57.875 41.7162 57.3092 44.3702 56.2099C47.0242 55.1105 49.4357 53.4992 51.467 51.468C53.4983 49.4367 55.1096 47.0252 56.2089 44.3712C57.3082 41.7172 57.874 38.8727 57.874 36C57.874 33.1273 57.3082 30.2828 56.2089 27.6288C55.1096 24.9748 53.4983 22.5633 51.467 20.532C49.4357 18.5008 47.0242 16.8895 44.3702 15.7901C41.7162 14.6908 38.8717 14.125 35.999 14.125L35.999 36L35.999 57.875Z" fill="white"/>
<path d="M35.999 14.125C33.1264 14.125 30.2818 14.6908 27.6278 15.7901C24.9738 16.8895 22.5623 18.5008 20.5311 20.532C18.4998 22.5633 16.8885 24.9748 15.7892 27.6288C14.6898 30.2828 14.124 33.1273 14.124 36C14.124 38.8727 14.6898 41.7172 15.7892 44.3712C16.8885 47.0252 18.4998 49.4367 20.5311 51.468C22.5623 53.4992 24.9738 55.1105 27.6278 56.2099C30.2818 57.3092 33.1264 57.875 35.999 57.875L35.999 36L35.999 14.125Z" fill="#2196F3"/>
<path opacity="0.2" d="M35.999 14.125C33.1264 14.125 30.2818 14.6908 27.6278 15.7901C24.9738 16.8895 22.5623 18.5008 20.5311 20.532C18.4998 22.5633 16.8885 24.9748 15.7892 27.6288C14.6898 30.2828 14.124 33.1273 14.124 36C14.124 38.8727 14.6898 41.7172 15.7892 44.3712C16.8885 47.0252 18.4998 49.4367 20.5311 51.468C22.5623 53.4992 24.9738 55.1105 27.6278 56.2099C30.2818 57.3092 33.1264 57.875 35.999 57.875L35.999 36L35.999 14.125Z" fill="#383B41"/>
<rect opacity="0.15" x="24.3359" y="1.875" width="6.73371" height="66.5" transform="rotate(15 24.3359 1.875)" fill="white"/>
<rect opacity="0.15" x="33.0859" y="3.625" width="1.56821" height="66.5" transform="rotate(15 33.0859 3.625)" fill="white"/>
<path d="M29.333 22.667V37.3337H33.333V49.3337L42.6663 33.3337H37.333L42.6663 22.667H29.333Z" fill="white"/>
</g>
<path fill-rule="evenodd" clip-rule="evenodd" d="M35.9997 11.513L40.1197 13.9997L39.0263 9.31301L42.6663 6.15967L37.873 5.75301L35.9997 1.33301L34.1263 5.75301L29.333 6.15967L32.973 9.31301L31.8797 13.9997L35.9997 11.513Z" fill="#FFEFAE" stroke="#FFD100" stroke-width="0.5"/>
</g>
</g>
<defs>
<filter id="filter0_d_5774_32700" x="2" y="-4" width="68" height="76" filterUnits="userSpaceOnUse" color-interpolation-filters="sRGB">
<feFlood flood-opacity="0" result="BackgroundImageFix"/>
<feColorMatrix in="SourceAlpha" type="matrix" values="0 0 0 0 0 0 0 0 0 0 0 0 0 0 0 0 0 0 127 0" result="hardAlpha"/>
<feOffset dy="2"/>
<feGaussianBlur stdDeviation="3"/>
<feComposite in2="hardAlpha" operator="out"/>
<feColorMatrix type="matrix" values="0 0 0 0 0 0 0 0 0 0 0 0 0 0 0 0 0 0 0.15 0"/>
<feBlend mode="normal" in2="BackgroundImageFix" result="effect1_dropShadow_5774_32700"/>
<feBlend mode="normal" in="SourceGraphic" in2="effect1_dropShadow_5774_32700" result="shape"/>
</filter>
<clipPath id="clip0_5774_32700">
<rect width="72" height="72" fill="white"/>
</clipPath>
<clipPath id="clip1_5774_32700">
<rect x="8" y="8" width="56" height="56" rx="28" fill="white"/>
</clipPath>
</defs>
</svg>
