<svg width="24" height="24" viewBox="0 0 24 24" fill="none" xmlns="http://www.w3.org/2000/svg">
<mask id="mask0_2158_102787" style="mask-type:alpha" maskUnits="userSpaceOnUse" x="2" y="2" width="21" height="20">
<path d="M12.0206 11.4927L18.7348 7.39062H5.30664L12.0206 11.4927Z" fill="black"/>
<path d="M19.5318 15.7365V7.87915L12.2374 12.336C12.1706 12.3777 12.0955 12.3985 12.0204 12.3985C11.9453 12.3985 11.8702 12.3777 11.8034 12.336L4.50903 7.87915V15.7365C4.50903 16.1974 4.88262 16.571 5.34354 16.571H18.6968C19.1581 16.571 19.5316 16.1974 19.5316 15.7365H19.5318Z" fill="black"/>
<path d="M11.5635 6.46065C11.4005 6.62366 11.4005 6.88782 11.5635 7.05082C11.7265 7.21383 11.9905 7.21383 12.1537 7.05082L14.5 5.38162C15.5 4.5 15.5 4.5 14.5 3.79145L12.1537 2.12225C11.9906 1.95925 11.7265 1.95925 11.5635 2.12225C11.4005 2.28526 11.4005 2.54942 11.5635 2.71242L12.5203 3.66921H3.25195C2.56167 3.66921 2 4.23069 2 4.92116V9.39995C2 9.63034 2.18687 9.81721 2.41725 9.81721C2.64779 9.81721 2.83451 9.63033 2.83451 9.39995L2.83465 5.92116C2.83465 5.69106 3.02196 5.5039 3.25191 5.5039H12.5202L11.5635 6.46065Z" fill="black"/>
<path d="M12.6865 17.3565C12.8495 17.1935 12.8495 16.9293 12.6865 16.7663C12.5235 16.6033 12.2595 16.6033 12.0963 16.7663L9.75 18.4355C8.75 19.3171 8.75 19.3171 9.75 20.0257L12.0963 21.6949C12.2594 21.8579 12.5235 21.8579 12.6865 21.6949C12.8495 21.5319 12.8495 21.2677 12.6865 21.1047L11.7297 20.1479L20.9981 20.1479C21.6883 20.1479 22.25 19.5864 22.25 18.896L22.25 14.4172C22.25 14.1868 22.0631 13.9999 21.8327 13.9999C21.6022 13.9999 21.4155 14.1868 21.4155 14.4172L21.4153 17.896C21.4153 18.1261 21.228 18.3132 20.9981 18.3132L11.7298 18.3132L12.6865 17.3565Z" fill="black"/>
</mask>
<g mask="url(#mask0_2158_102787)">
<rect x="-13" y="-13" width="50" height="50" fill="#757575"/>
<mask id="mask1_2158_102787" style="mask-type:luminance" maskUnits="userSpaceOnUse" x="-13" y="-13" width="50" height="50">
<rect x="-13" y="-13" width="50" height="50" fill="white"/>
</mask>
<g mask="url(#mask1_2158_102787)">
</g>
</g>
</svg>
