<svg width="24" height="24" viewBox="0 0 24 24" fill="none" xmlns="http://www.w3.org/2000/svg">
<mask id="mask0_492_13944" style="mask-type:alpha" maskUnits="userSpaceOnUse" x="2" y="2" width="20" height="20">
<path d="M12.0206 11.4927L18.7348 7.39062H5.30664L12.0206 11.4927Z" fill="black"/>
<path d="M19.5316 15.7363V7.87891L12.2372 12.3357C12.1704 12.3775 12.0953 12.3983 12.0202 12.3983C11.9451 12.3983 11.87 12.3775 11.8032 12.3357L4.50879 7.87891V15.7363C4.50879 16.1972 4.88238 16.5708 5.3433 16.5708H18.6966C19.1578 16.5708 19.5314 16.1972 19.5314 15.7363H19.5316Z" fill="black"/>
<path d="M11.5635 5.46065C11.4005 5.62366 11.4005 5.88782 11.5635 6.05082C11.7265 6.21383 11.9905 6.21383 12.1537 6.05082L13.8229 4.38162C13.9859 4.21862 13.9859 3.95446 13.8229 3.79145L12.1537 2.12225C11.9906 1.95925 11.7265 1.95925 11.5635 2.12225C11.4005 2.28526 11.4005 2.54942 11.5635 2.71242L12.5203 3.66921H3.25195C2.56167 3.66921 2 4.23069 2 4.92116V9.39995C2 9.63034 2.18687 9.81721 2.41725 9.81721C2.64779 9.81721 2.83451 9.63033 2.83451 9.39995L2.83465 4.92116C2.83465 4.69106 3.02196 4.5039 3.25191 4.5039H12.5202L11.5635 5.46065Z" fill="black"/>
<path d="M21.5824 14.107C21.352 14.107 21.1651 14.2938 21.1651 14.5242V19.003C21.1651 19.2331 20.9778 19.4203 20.7478 19.4203H11.4795L12.4363 18.4635C12.5993 18.3005 12.5993 18.0363 12.4363 17.8733C12.2733 17.7103 12.0091 17.7103 11.8461 17.8733L10.1769 19.5425C10.0139 19.7055 10.0139 19.9695 10.1769 20.1327L11.8461 21.8019C12.0091 21.9649 12.2732 21.9649 12.4363 21.8019C12.5993 21.6389 12.5993 21.3747 12.4363 21.2117L11.4795 20.2549H20.7478C21.4381 20.2549 21.9998 19.6934 21.9998 19.003L21.9996 14.5242C21.9996 14.2937 21.8128 14.1069 21.5824 14.1069L21.5824 14.107Z" fill="black"/>
<path d="M12.0206 11.4927L18.7348 7.39062H5.30664L12.0206 11.4927Z" fill="black"/>
<path d="M19.5316 15.7363V7.87891L12.2372 12.3357C12.1704 12.3775 12.0953 12.3983 12.0202 12.3983C11.9451 12.3983 11.87 12.3775 11.8032 12.3357L4.50879 7.87891V15.7363C4.50879 16.1972 4.88238 16.5708 5.3433 16.5708H18.6966C19.1578 16.5708 19.5314 16.1972 19.5314 15.7363H19.5316Z" fill="black"/>
<path d="M11.5635 5.46065C11.4005 5.62366 11.4005 5.88782 11.5635 6.05082C11.7265 6.21383 11.9905 6.21383 12.1537 6.05082L13.8229 4.38162C13.9859 4.21862 13.9859 3.95446 13.8229 3.79145L12.1537 2.12225C11.9906 1.95925 11.7265 1.95925 11.5635 2.12225C11.4005 2.28526 11.4005 2.54942 11.5635 2.71242L12.5203 3.66921H3.25195C2.56167 3.66921 2 4.23069 2 4.92116V9.39995C2 9.63034 2.18687 9.81721 2.41725 9.81721C2.64779 9.81721 2.83451 9.63033 2.83451 9.39995L2.83465 4.92116C2.83465 4.69106 3.02196 4.5039 3.25191 4.5039H12.5202L11.5635 5.46065Z" fill="black"/>
<path d="M21.5824 14.107C21.352 14.107 21.1651 14.2938 21.1651 14.5242V19.003C21.1651 19.2331 20.9778 19.4203 20.7478 19.4203H11.4795L12.4363 18.4635C12.5993 18.3005 12.5993 18.0363 12.4363 17.8733C12.2733 17.7103 12.0091 17.7103 11.8461 17.8733L10.1769 19.5425C10.0139 19.7055 10.0139 19.9695 10.1769 20.1327L11.8461 21.8019C12.0091 21.9649 12.2732 21.9649 12.4363 21.8019C12.5993 21.6389 12.5993 21.3747 12.4363 21.2117L11.4795 20.2549H20.7478C21.4381 20.2549 21.9998 19.6934 21.9998 19.003L21.9996 14.5242C21.9996 14.2937 21.8128 14.1069 21.5824 14.1069L21.5824 14.107Z" fill="black"/>
</mask>
<g mask="url(#mask0_492_13944)">
<rect x="-13" y="-13" width="50" height="50" fill="#757575"/>
<mask id="mask1_492_13944" style="mask-type:alpha" maskUnits="userSpaceOnUse" x="-13" y="-13" width="50" height="50">
<rect x="-13" y="-13" width="50" height="50" fill="white"/>
</mask>
<g mask="url(#mask1_492_13944)">
</g>
</g>
</svg>
