<svg width="24" height="24" viewBox="0 0 24 24" fill="none" xmlns="http://www.w3.org/2000/svg">
<path fill-rule="evenodd" clip-rule="evenodd" d="M11.5635 6.46065C11.4005 6.62366 11.4005 6.88782 11.5635 7.05082C11.7265 7.21383 11.9905 7.21383 12.1537 7.05082L14.5 5.38162C15.013 4.92933 15.2628 4.70908 15.2495 4.50615C15.2368 4.31352 14.987 4.1365 14.5 3.79145L12.1537 2.12225C11.9906 1.95925 11.7265 1.95925 11.5635 2.12225C11.4005 2.28526 11.4005 2.54942 11.5635 2.71242L12.5203 3.66921H3.25195C2.56167 3.66921 2 4.23069 2 4.92116V9.39995C2 9.63034 2.18687 9.81721 2.41725 9.81721C2.64779 9.81721 2.83451 9.63033 2.83451 9.39995L2.83465 5.92116C2.83465 5.69106 3.02196 5.5039 3.25191 5.5039H12.5202L11.5635 6.46065ZM18.7348 7.39062L12.0206 11.4927L5.30661 7.39062H18.7348ZM19.5318 7.87915V15.7365C19.5318 16.1974 19.1581 16.571 18.6968 16.571H5.34354C4.88262 16.571 4.50903 16.1974 4.50903 15.7365V7.87915L11.8034 12.336C11.8702 12.3777 11.9453 12.3985 12.0204 12.3985C12.0955 12.3985 12.1706 12.3777 12.2374 12.336L19.5318 7.87915ZM12.6865 16.7663C12.8495 16.9293 12.8495 17.1935 12.6865 17.3565L11.7298 18.3132H20.9981C21.228 18.3132 21.4153 18.1261 21.4153 17.896L21.4155 14.4172C21.4155 14.1868 21.6022 13.9999 21.8327 13.9999C22.0631 13.9999 22.25 14.1868 22.25 14.4172V18.896C22.25 19.5864 21.6883 20.1479 20.9981 20.1479H11.7297L12.6865 21.1047C12.8495 21.2677 12.8495 21.5319 12.6865 21.6949C12.5235 21.8579 12.2594 21.8579 12.0963 21.6949L9.75002 20.0257C9.26303 19.6806 9.0132 19.5036 9.00053 19.311C8.98717 19.108 9.237 18.8878 9.75002 18.4355L12.0963 16.7663C12.2595 16.6033 12.5235 16.6033 12.6865 16.7663Z" fill="#757575"/>
</svg>
