<svg width="72" height="72" viewBox="0 0 72 72" fill="none" xmlns="http://www.w3.org/2000/svg">
<g clip-path="url(#clip0_7094_2553)">
<g filter="url(#filter0_d_7094_2553)">
<g clip-path="url(#clip1_7094_2553)">
<circle cx="36" cy="36" r="26.6875" fill="white" stroke="#2196F3" stroke-width="2.625"/>
<path d="M35.999 57.875C38.8717 57.875 41.7162 57.3092 44.3702 56.2099C47.0242 55.1105 49.4357 53.4992 51.467 51.468C53.4983 49.4367 55.1096 47.0252 56.2089 44.3712C57.3082 41.7172 57.874 38.8727 57.874 36C57.874 33.1273 57.3082 30.2828 56.2089 27.6288C55.1096 24.9748 53.4983 22.5633 51.467 20.532C49.4357 18.5008 47.0242 16.8895 44.3702 15.7901C41.7162 14.6908 38.8717 14.125 35.999 14.125L35.999 36L35.999 57.875Z" fill="#2196F3"/>
<path opacity="0.2" d="M35.999 57.875C38.8717 57.875 41.7162 57.3092 44.3702 56.2099C47.0242 55.1105 49.4357 53.4992 51.467 51.468C53.4983 49.4367 55.1096 47.0252 56.2089 44.3712C57.3082 41.7172 57.874 38.8727 57.874 36C57.874 33.1273 57.3082 30.2828 56.2089 27.6288C55.1096 24.9748 53.4983 22.5633 51.467 20.532C49.4357 18.5008 47.0242 16.8895 44.3702 15.7901C41.7162 14.6908 38.8717 14.125 35.999 14.125L35.999 36L35.999 57.875Z" fill="white"/>
<path d="M35.999 14.1248C33.1264 14.1248 30.2818 14.6906 27.6278 15.7899C24.9738 16.8892 22.5623 18.5005 20.5311 20.5318C18.4998 22.5631 16.8885 24.9746 15.7892 27.6286C14.6898 30.2826 14.124 33.1271 14.124 35.9998C14.124 38.8724 14.6898 41.717 15.7892 44.371C16.8885 47.025 18.4998 49.4364 20.5311 51.4677C22.5623 53.499 24.9738 55.1103 27.6278 56.2096C30.2818 57.3089 33.1264 57.8748 35.999 57.8748L35.999 35.9998L35.999 14.1248Z" fill="#2196F3"/>
<path opacity="0.2" d="M35.999 14.1248C33.1264 14.1248 30.2818 14.6906 27.6278 15.7899C24.9738 16.8892 22.5623 18.5005 20.5311 20.5318C18.4998 22.5631 16.8885 24.9746 15.7892 27.6286C14.6898 30.2826 14.124 33.1271 14.124 35.9998C14.124 38.8724 14.6898 41.717 15.7892 44.371C16.8885 47.025 18.4998 49.4364 20.5311 51.4677C22.5623 53.499 24.9738 55.1103 27.6278 56.2096C30.2818 57.3089 33.1264 57.8748 35.999 57.8748L35.999 35.9998L35.999 14.1248Z" fill="#383B41"/>
<rect opacity="0.15" x="24.3359" y="1.87476" width="6.73371" height="66.5" transform="rotate(15 24.3359 1.87476)" fill="white"/>
<rect opacity="0.15" x="33.0859" y="3.62488" width="1.56821" height="66.5" transform="rotate(15 33.0859 3.62488)" fill="white"/>
<path d="M42.666 22.667V25.333H49.333V34.667C49.3328 36.1333 48.1333 37.3327 46.667 37.333H42.5332C41.9999 39.9463 39.9463 41.9999 37.333 42.5332V45.4404C41.3114 46.0505 41.3329 49.298 41.333 49.333H30.667C30.6671 49.2979 30.6886 46.0504 34.667 45.4404V42.5332C32.0537 41.9999 30.0001 39.9463 29.4668 37.333H25.333C23.8665 37.3329 22.6662 36.1334 22.666 34.667V25.333H29.333V22.667H42.666ZM32.1406 28.7715V31.2979C32.1406 33.6347 33.7571 35.82 35.9297 36.3506C38.1023 35.82 39.7188 33.6347 39.7188 31.2979V28.7715L35.9297 27.0879L32.1406 28.7715ZM25.333 28V34.667H29.333V28H25.333ZM42.666 28V34.667H46.667V28H42.666ZM38.4561 30.4561L35.1582 33.8945L34.2451 32.9824L33.4033 32.1406L33.9971 31.5469L34.542 32.0898L35.0879 32.6328L37.8623 29.8584L38.4561 30.4561Z" fill="white"/>
</g>
<path fill-rule="evenodd" clip-rule="evenodd" d="M35.9997 11.5133L40.1197 13.9999L39.0263 9.31325L42.6663 6.15992L37.873 5.75325L35.9997 1.33325L34.1263 5.75325L29.333 6.15992L32.973 9.31325L31.8797 13.9999L35.9997 11.5133Z" fill="#FFEFAE" stroke="#FFD100" stroke-width="0.5"/>
<path fill-rule="evenodd" clip-rule="evenodd" d="M14.9993 18.0739L18.6043 20.2497L17.6477 16.1489L20.8327 13.3897L16.6385 13.0339L14.9993 9.16638L13.3602 13.0339L9.16602 13.3897L12.351 16.1489L11.3943 20.2497L14.9993 18.0739Z" fill="#FFEFAE" stroke="#FFD100" stroke-width="0.4375"/>
<path fill-rule="evenodd" clip-rule="evenodd" d="M57.0003 18.0738L60.6053 20.2496L59.6487 16.1488L62.8337 13.3896L58.6395 13.0338L57.0003 9.16626L55.3612 13.0338L51.167 13.3896L54.352 16.1488L53.3953 20.2496L57.0003 18.0738Z" fill="#FFEFAE" stroke="#FFD100" stroke-width="0.4375"/>
</g>
</g>
<defs>
<filter id="filter0_d_7094_2553" x="2" y="-4.00012" width="68" height="76.0001" filterUnits="userSpaceOnUse" color-interpolation-filters="sRGB">
<feFlood flood-opacity="0" result="BackgroundImageFix"/>
<feColorMatrix in="SourceAlpha" type="matrix" values="0 0 0 0 0 0 0 0 0 0 0 0 0 0 0 0 0 0 127 0" result="hardAlpha"/>
<feOffset dy="2"/>
<feGaussianBlur stdDeviation="3"/>
<feComposite in2="hardAlpha" operator="out"/>
<feColorMatrix type="matrix" values="0 0 0 0 0 0 0 0 0 0 0 0 0 0 0 0 0 0 0.15 0"/>
<feBlend mode="normal" in2="BackgroundImageFix" result="effect1_dropShadow_7094_2553"/>
<feBlend mode="normal" in="SourceGraphic" in2="effect1_dropShadow_7094_2553" result="shape"/>
</filter>
<clipPath id="clip0_7094_2553">
<rect width="72" height="72" fill="white"/>
</clipPath>
<clipPath id="clip1_7094_2553">
<rect x="8" y="8" width="56" height="56" rx="28" fill="white"/>
</clipPath>
</defs>
</svg>
