<svg width="58" height="64" viewBox="0 0 58 64" fill="none" xmlns="http://www.w3.org/2000/svg">
<g opacity="0.4">
<mask id="mask0_36_57886" style="mask-type:alpha" maskUnits="userSpaceOnUse" x="0" y="0" width="64" height="64">
<path fill-rule="evenodd" clip-rule="evenodd" d="M56.8889 0H7.11111C3.16444 0 0 3.2 0 7.11111V56.8889C0 60.8 3.16444 64 7.11111 64H56.8889C60.8356 64 64 60.8 64 56.8889V7.11111C64 3.2 60.8356 0 56.8889 0V0ZM26.4583 46.546L12.6055 32.5868L16.512 28.6503L26.4583 38.6451L47.4869 17.4551L51.3933 21.4195L26.4583 46.546V46.546Z" fill="white"/>
</mask>
<g mask="url(#mask0_36_57886)">
<rect width="64" height="64" fill="white"/>
<mask id="mask1_36_57886" style="mask-type:alpha" maskUnits="userSpaceOnUse" x="0" y="0" width="64" height="64">
<rect opacity="0.4" width="64" height="64" fill="white"/>
</mask>
<g mask="url(#mask1_36_57886)">
</g>
</g>
</g>
</svg>
