<svg width="20" height="20" viewBox="0 0 20 20" fill="none" xmlns="http://www.w3.org/2000/svg">
<mask id="mask0_1517_894" style="mask-type:alpha" maskUnits="userSpaceOnUse" x="0" y="0" width="20" height="20">
<path d="M4.99972 10.7154V3.57254H9.99972V16.2623C9.1143 15.7935 8.32189 15.2839 7.62249 14.7333C5.87398 13.3642 4.99972 12.0249 4.99972 10.7154ZM2.85686 2.14397V10.7154C2.85686 11.3553 2.98149 11.9896 3.23075 12.6183C3.48 13.247 3.78878 13.8051 4.15709 14.2924C4.52539 14.7798 4.96438 15.2541 5.47405 15.7154C5.98372 16.1767 6.45433 16.5599 6.88588 16.865C7.31743 17.17 7.76758 17.4583 8.23633 17.7299C8.70508 18.0015 9.03804 18.1856 9.23521 18.2824C9.43238 18.3791 9.59049 18.4535 9.70954 18.5056C9.79883 18.5502 9.89555 18.5725 9.99972 18.5725C10.1039 18.5725 10.2006 18.5502 10.2899 18.5056C10.4089 18.4535 10.5671 18.3791 10.7642 18.2824C10.9614 18.1856 11.2944 18.0015 11.7631 17.7299C12.2319 17.4583 12.682 17.17 13.1136 16.865C13.5451 16.5599 14.0157 16.1767 14.5254 15.7154C15.0351 15.2541 15.4741 14.7798 15.8424 14.2924C16.2107 13.8051 16.5194 13.247 16.7687 12.6183C17.018 11.9896 17.1426 11.3553 17.1426 10.7154V2.14397C17.1426 1.95052 17.0719 1.78311 16.9305 1.64174C16.7892 1.50037 16.6217 1.42969 16.4283 1.42969H3.57115C3.3777 1.42969 3.21029 1.50037 3.06892 1.64174C2.92755 1.78311 2.85686 1.95052 2.85686 2.14397Z" fill="black"/>
</mask>
<g mask="url(#mask0_1517_894)">
<path fill-rule="evenodd" clip-rule="evenodd" d="M-15 -17H35V33H-15V-17Z" fill="#2196F3"/>
</g>
</svg>
