<svg width="61" height="64" viewBox="0 0 61 64" fill="none" xmlns="http://www.w3.org/2000/svg">
<path opacity="0.3" fill-rule="evenodd" clip-rule="evenodd" d="M6 0C2.68629 0 0 2.68629 0 6V58C0 61.3137 2.68629 64 6 64H58C61.3137 64 64 61.3137 64 58V6C64 2.68629 61.3137 0 58 0H6ZM40.6667 25.6667H42.3333C44.1667 25.6667 45.6667 27.1667 45.6667 29V45.6667C45.6667 47.5 44.1667 49 42.3333 49H22.3333C20.5 49 19 47.5 19 45.6667V29C19 27.1667 20.5 25.6667 22.3333 25.6667H24V22.3333C24 17.7333 27.7333 14 32.3333 14C36.9333 14 40.6667 17.7333 40.6667 22.3333V25.6667ZM32.3333 17.1667C29.4833 17.1667 27.1667 19.4833 27.1667 22.3333V25.6667H37.5V22.3333C37.5 19.4833 35.1833 17.1667 32.3333 17.1667ZM34 39H39V35.6667H34V30.6667H30.6667V35.6667H25.6667V39H30.6667V44H34V39Z" fill="white"/>
</svg>
