<svg width="61" height="64" viewBox="0 0 61 64" fill="none" xmlns="http://www.w3.org/2000/svg">
<path opacity="0.3" fill-rule="evenodd" clip-rule="evenodd" d="M0 6C0 2.68629 2.68629 0 6 0H58C61.3137 0 64 2.68629 64 6V58C64 61.3137 61.3137 64 58 64H6C2.68629 64 0 61.3137 0 58V6ZM43 14H26.3333C24.5 14 23 15.5 23 17.3333V22.3333H26.3333V19H43V45.6667H26.3333V42.3333H23V47.3333C23 49.1667 24.5 50.6667 26.3333 50.6667H43C44.8333 50.6667 46.3333 49.1667 46.3333 47.3333V17.3333C46.3333 15.5 44.8333 14 43 14ZM29.3333 28.1667V30.6667C30.3333 30.6667 31.3333 31.6667 31.3333 32.8333V38.6667C31.3333 39.6667 30.3333 40.6667 29.1667 40.6667H20C19 40.6667 18 39.6667 18 38.5V32.6667C18 31.6667 19 30.6667 20 30.6667V28.1667C20 25.8333 22.3333 24 24.6667 24C27 24 29.3333 25.8333 29.3333 28.1667ZM22.167 30.6667H27.167V28.1667C27.167 26.8333 26.0003 26 24.667 26C23.3337 26 22.167 26.8333 22.167 28.1667V30.6667Z" fill="white"/>
</svg>
