<svg width="20" height="20" viewBox="0 0 20 20" fill="none" xmlns="http://www.w3.org/2000/svg">
<mask id="mask0_3691_49228" style="mask-type:alpha" maskUnits="userSpaceOnUse" x="1" y="1" width="18" height="18">
<path d="M6.29342 15.1117C6.29342 15.4525 6.16822 15.7435 5.91782 15.9846C5.66742 16.2257 5.36527 16.3463 5.01137 16.3463C4.66415 16.3463 4.36367 16.2241 4.10993 15.9798C3.85619 15.7354 3.72932 15.4461 3.72932 15.1117C3.72932 14.7709 3.85452 14.48 4.10492 14.2388C4.35532 13.9977 4.65747 13.8772 5.01137 13.8772C5.36527 13.8772 5.66742 13.9977 5.91782 14.2388C6.16822 14.48 6.29342 14.7709 6.29342 15.1117ZM11.2814 17.0986C11.2814 17.4394 11.1562 17.7304 10.9058 17.9715C10.6554 18.2126 10.3532 18.3332 9.99935 18.3332C9.64545 18.3332 9.3433 18.2126 9.0929 17.9715C8.8425 17.7304 8.7173 17.4394 8.7173 17.0986C8.7173 16.7578 8.8425 16.4669 9.0929 16.2257C9.3433 15.9846 9.64545 15.864 9.99935 15.864C10.3532 15.864 10.6554 15.9846 10.9058 16.2257C11.1562 16.4669 11.2814 16.7578 11.2814 17.0986ZM4.23012 10.3085C4.23012 10.6493 4.10492 10.9402 3.85452 11.1814C3.60412 11.4225 3.30197 11.543 2.94807 11.543C2.59417 11.543 2.29202 11.4225 2.04162 11.1814C1.79122 10.9402 1.66602 10.6493 1.66602 10.3085C1.66602 9.96769 1.79122 9.67673 2.04162 9.4356C2.29202 9.19448 2.59417 9.07391 2.94807 9.07391C3.30197 9.07391 3.60412 9.19448 3.85452 9.4356C4.10492 9.67673 4.23012 9.96769 4.23012 10.3085ZM16.2694 15.1117C16.2694 15.4461 16.1425 15.7354 15.8888 15.9798C15.635 16.2241 15.3346 16.3463 14.9873 16.3463C14.6334 16.3463 14.3313 16.2257 14.0809 15.9846C13.8305 15.7435 13.7053 15.4525 13.7053 15.1117C13.7053 14.7709 13.8305 14.48 14.0809 14.2388C14.3313 13.9977 14.6334 13.8772 14.9873 13.8772C15.3412 13.8772 15.6434 13.9977 15.8938 14.2388C16.1442 14.48 16.2694 14.7709 16.2694 15.1117ZM6.61393 5.50524C6.61393 5.92962 6.45701 6.29292 6.14318 6.59513C5.82934 6.89734 5.45207 7.04845 5.01137 7.04845C4.57066 7.04845 4.19339 6.89734 3.87956 6.59513C3.56572 6.29292 3.4088 5.92962 3.4088 5.50524C3.4088 5.08086 3.56572 4.71756 3.87956 4.41535C4.19339 4.11313 4.57066 3.96203 5.01137 3.96203C5.45207 3.96203 5.82934 4.11313 6.14318 4.41535C6.45701 4.71756 6.61393 5.08086 6.61393 5.50524ZM18.3327 10.3085C18.3327 10.6493 18.2075 10.9402 17.9571 11.1814C17.7067 11.4225 17.4045 11.543 17.0506 11.543C16.6967 11.543 16.3946 11.4225 16.1442 11.1814C15.8938 10.9402 15.7686 10.6493 15.7686 10.3085C15.7686 9.96769 15.8938 9.67673 16.1442 9.4356C16.3946 9.19448 16.6967 9.07391 17.0506 9.07391C17.4045 9.07391 17.7067 9.19448 17.9571 9.4356C18.2075 9.67673 18.3327 9.96769 18.3327 10.3085ZM11.9224 3.51836C11.9224 4.03276 11.7355 4.47 11.3615 4.83008C10.9876 5.19017 10.5335 5.37021 9.99935 5.37021C9.46516 5.37021 9.0111 5.19017 8.63717 4.83008C8.26324 4.47 8.07627 4.03276 8.07627 3.51836C8.07627 3.00395 8.26324 2.56671 8.63717 2.20663C9.0111 1.84655 9.46516 1.6665 9.99935 1.6665C10.5335 1.6665 10.9876 1.84655 11.3615 2.20663C11.7355 2.56671 11.9224 3.00395 11.9224 3.51836ZM17.2309 5.50524C17.2309 6.10323 17.0106 6.61281 16.5699 7.03398C16.1292 7.45515 15.6016 7.66573 14.9873 7.66573C14.3663 7.66573 13.8372 7.45515 13.3998 7.03398C12.9624 6.61281 12.7437 6.10323 12.7437 5.50524C12.7437 4.91368 12.9624 4.4057 13.3998 3.98132C13.8372 3.55694 14.3663 3.34474 14.9873 3.34474C15.6016 3.34474 16.1292 3.55694 16.5699 3.98132C17.0106 4.4057 17.2309 4.91368 17.2309 5.50524Z" fill="black"/>
</mask>
<g mask="url(#mask0_3691_49228)">
<rect x="-10.834" y="-10.8335" width="41.6667" height="41.6667" fill="#00BCD4"/>
<mask id="mask1_3691_49228" style="mask-type:alpha" maskUnits="userSpaceOnUse" x="-11" y="-11" width="42" height="42">
<rect x="-10.834" y="-10.8335" width="41.6667" height="41.6667" fill="white"/>
</mask>
<g mask="url(#mask1_3691_49228)">
</g>
</g>
</svg>
