
  <svg
    width="22"
    height="22"
    viewBox="0 0 22 22"
    class="v-icon__svg"
    xmlns="http://www.w3.org/2000/svg"
  >
    <mask
      id="mask0_5400_35603"
      style="mask-type: alpha;"
      maskUnits="userSpaceOnUse"
      x="1"
      y="1"
      width="20"
      height="20"
    >
      <g clip-path="url(#clip0_5400_35603)">
        <path
          d="M20.0173 17.7376L15.1996 12.7022C14.9915 12.4846 14.6449 12.4806 14.4317 12.6937L14.0604 13.0651L12.7628 11.6738C13.5649 10.6404 14.0433 9.34365 14.0433 7.93717C14.0433 4.57079 11.3045 1.83203 7.93815 1.83203C4.57176 1.83203 1.83301 4.57079 1.83301 7.93717C1.83301 11.3036 4.57176 14.0423 7.93815 14.0423C9.51113 14.0423 10.947 13.4442 12.0306 12.4637L13.3003 13.8252L12.9125 14.213C12.706 14.4195 12.7023 14.7532 12.9042 14.9642L17.7218 19.9996C17.9299 20.2171 18.2766 20.2212 18.4897 20.008L20.009 18.4887C20.2155 18.2823 20.2192 17.9486 20.0173 17.7376ZM5.27051 5.23372H8.49316C8.78979 5.23372 9.03027 5.47421 9.03027 5.77083C9.03027 6.06746 8.78979 6.30794 8.49316 6.30794H5.27051C4.97388 6.30794 4.7334 6.06746 4.7334 5.77083C4.7334 5.47421 4.97388 5.23372 5.27051 5.23372ZM5.27051 7.38216H5.80762C6.10424 7.38216 6.34473 7.62264 6.34473 7.91927C6.34473 8.2159 6.10424 8.45638 5.80762 8.45638H5.27051C4.97388 8.45638 4.7334 8.2159 4.7334 7.91927C4.7334 7.62264 4.97388 7.38216 5.27051 7.38216ZM8.49316 10.6406H5.27051C4.97388 10.6406 4.7334 10.4001 4.7334 10.1035C4.7334 9.80689 4.97388 9.56641 5.27051 9.56641H8.49316C8.78979 9.56641 9.03027 9.80689 9.03027 10.1035C9.03027 10.4001 8.78979 10.6406 8.49316 10.6406ZM10.6416 10.6764H10.1045C9.80786 10.6764 9.56738 10.436 9.56738 10.1393C9.56738 9.84269 9.80786 9.60221 10.1045 9.60221H10.6416C10.9382 9.60221 11.1787 9.84269 11.1787 10.1393C11.1787 10.436 10.9382 10.6764 10.6416 10.6764ZM10.6416 8.45638H7.41894C7.12232 8.45638 6.88184 8.2159 6.88184 7.91927C6.88184 7.62264 7.12232 7.38216 7.41894 7.38216H10.6416C10.9382 7.38216 11.1787 7.62264 11.1787 7.91927C11.1787 8.2159 10.9382 8.45638 10.6416 8.45638ZM10.6416 6.34375H10.1045C9.80786 6.34375 9.56738 6.10327 9.56738 5.80664C9.56738 5.51001 9.80786 5.26953 10.1045 5.26953H10.6416C10.9382 5.26953 11.1787 5.51001 11.1787 5.80664C11.1787 6.10327 10.9382 6.34375 10.6416 6.34375Z"
          fill="black"
        />
      </g>
    </mask>
    <g mask="url(#mask0_5400_35603)">
      <path
        fill-rule="evenodd"
        clip-rule="evenodd"
        d="M-11.917 -11.918H33.9163V33.9154H-11.917V-11.918Z"
        fill="currentColor"
      />
    </g>
    <defs>
      <clipPath id="clip0_5400_35603">
        <rect
          width="18.3333"
          height="18.3333"
          fill="white"
          transform="translate(1.83301 1.83203)"
        />
      </clipPath>
    </defs>
  </svg>