<svg width="32" height="32" viewBox="0 0 32 32" fill="none" xmlns="http://www.w3.org/2000/svg">
<rect width="32" height="32" rx="16" fill="#F56C6C"/>
<path d="M19.0915 16.7422C17.0473 16.7422 15.3852 15.0801 15.3852 13.0359H9.45459V21.1907H11.3078V22.5455L13.8877 21.1907H22.0579V15.2579C21.3816 16.1582 20.3035 16.7422 19.0915 16.7422ZM11.3583 14.518H14.3247V15.2601H11.3583V14.518ZM11.3583 16.0023H14.3247V16.7444H11.3583V16.0023ZM20.253 19.7086H11.3583V18.9665H20.2552V19.7086H20.253ZM20.253 18.2265H11.3583V17.4844H20.2552V18.2265H20.253Z" fill="white"/>
<path d="M20.0315 15.6883C19.4145 15.6883 18.7975 15.6883 18.1805 15.6883C18.1695 15.6839 18.1586 15.6795 18.1454 15.6773C17.9522 15.6268 17.827 15.4907 17.8138 15.2909C17.8029 15.1262 17.8072 14.9594 17.8072 14.7925C17.8072 14.7486 17.7941 14.7288 17.7523 14.7156C17.4867 14.63 17.221 14.54 16.9575 14.4521C16.6787 14.3577 16.5118 14.125 16.5118 13.8308C16.5118 13.2511 16.5096 12.6714 16.514 12.0896C16.514 11.9425 16.5206 11.7932 16.5447 11.6482C16.6589 10.9544 16.997 10.3901 17.5613 9.97292C18.2178 9.48548 18.9534 9.34495 19.746 9.53817C20.3543 9.68748 20.8395 10.0278 21.2084 10.5306C21.5202 10.9566 21.6914 11.4353 21.7002 11.9622C21.709 12.5858 21.7046 13.2116 21.7046 13.8374C21.7046 14.1228 21.5355 14.3577 21.2633 14.45C20.9976 14.54 20.7297 14.63 20.4618 14.7156C20.4201 14.7288 20.4048 14.7486 20.407 14.7925C20.4091 14.9352 20.4135 15.0757 20.407 15.2184C20.4026 15.2953 20.3894 15.3765 20.3586 15.4468C20.295 15.5851 20.1742 15.6532 20.0315 15.6883ZM18.1542 13.7847C18.5823 13.7847 18.9314 13.4355 18.9336 13.0074C18.9358 12.5792 18.5867 12.2301 18.1564 12.2279C17.7238 12.2257 17.3747 12.5748 17.3769 13.0074C17.3769 13.4355 17.726 13.7847 18.1542 13.7847ZM20.06 13.7847C20.4926 13.7825 20.8395 13.4311 20.8351 12.9986C20.8329 12.5682 20.4816 12.2235 20.0534 12.2279C19.6231 12.2323 19.2762 12.5814 19.2784 13.0096C19.2828 13.4377 19.6341 13.7869 20.06 13.7847ZM19.1049 13.609C18.9732 13.8176 18.837 14.0108 18.769 14.2414C18.7338 14.3643 18.7975 14.5092 18.9095 14.5861C19.0259 14.6673 19.1883 14.6673 19.3047 14.5861C19.4167 14.507 19.4804 14.3621 19.443 14.2414C19.375 14.013 19.2388 13.8176 19.1049 13.609Z" fill="white"/>
</svg>
