<svg width="32" height="32" viewBox="0 0 32 32" fill="none" xmlns="http://www.w3.org/2000/svg">
<rect width="32" height="32" rx="16" fill="#1173C1"/>
<path fill-rule="evenodd" clip-rule="evenodd" d="M21.3333 18.3333C20.5 18.3333 19.7 18.2 18.9533 17.9533C18.72 17.88 18.46 17.9333 18.2733 18.1133L16.8067 19.58C14.92 18.62 13.3733 17.08 12.4133 15.1867L13.88 13.7133C14.0667 13.54 14.12 13.28 14.0467 13.0467C13.8 12.3 13.6667 11.5 13.6667 10.6667C13.6667 10.3 13.3667 10 13 10H10.6667C10.3 10 10 10.3 10 10.6667C10 16.9267 15.0733 22 21.3333 22C21.7 22 22 21.7 22 21.3333V19C22 18.6333 21.7 18.3333 21.3333 18.3333Z" fill="white"/>
<path d="M19.1462 12.4615L19.1462 11.2308L20.3462 11.2308C21.449 11.2308 22.3462 12.151 22.3462 13.2821C22.3462 14.4131 21.449 15.3333 20.3462 15.3333L18.1212 15.3333C17.8663 14.5011 17.1085 13.8974 16.2129 13.8974C15.1083 13.8974 14.2129 14.8158 14.2129 15.9487C14.2129 17.0816 15.1083 18 16.2129 18C17.1085 18 17.8663 17.3963 18.1212 16.5641L20.3462 16.5641C22.1135 16.5641 23.5462 15.0947 23.5462 13.2821C23.5462 11.4694 22.1135 10 20.3462 10L15.5462 10L19.1462 12.4615ZM17.0129 15.9487C17.0129 16.4018 16.6547 16.7692 16.2129 16.7692C15.7711 16.7692 15.4129 16.4018 15.4129 15.9487C15.4129 15.4956 15.7711 15.1282 16.2129 15.1282C16.6547 15.1282 17.0129 15.4956 17.0129 15.9487Z" fill="white"/>
</svg>
