<svg width="32" height="32" viewBox="0 0 32 32" fill="none" xmlns="http://www.w3.org/2000/svg">
<rect width="32" height="32" rx="16" fill="#43A047"/>
<g clip-path="url(#clip0_4307_21671)">
<path d="M10.4889 9.77783C10.3003 9.77783 10.1195 9.85275 9.98611 9.98611C9.85275 10.1195 9.77783 10.3003 9.77783 10.4889V13.3334H13.3334V9.77783H10.4889ZM12.4445 12.4445H10.6667V10.6667H12.4445V12.4445Z" fill="white"/>
<path d="M9.77783 21.5111C9.77783 21.6997 9.85275 21.8805 9.98611 22.0139C10.1195 22.1473 10.3003 22.2222 10.4889 22.2222H13.3334V18.6666H9.77783V21.5111ZM10.6667 19.5555H12.4445V21.3333H10.6667V19.5555Z" fill="white"/>
<path d="M18.6665 22.2222H21.5109C21.6995 22.2222 21.8804 22.1473 22.0138 22.0139C22.1471 21.8805 22.2221 21.6997 22.2221 21.5111V18.6666H18.6665V22.2222ZM19.5554 19.5555H21.3332V21.3333H19.5554V19.5555Z" fill="white"/>
<path d="M21.5109 9.77783H18.6665V13.3334H22.2221V10.4889C22.2221 10.3003 22.1471 10.1195 22.0138 9.98611C21.8804 9.85275 21.6995 9.77783 21.5109 9.77783ZM21.3332 12.4445H19.5554V10.6667H21.3332V12.4445Z" fill="white"/>
<path d="M16.8891 12.4444V11.5555H15.1113V13.3333H16.0002V12.4444H16.8891Z" fill="white"/>
<path d="M13.3335 13.3334H14.2224V14.2223H13.3335V13.3334Z" fill="white"/>
<path d="M14.2222 14.2222H15.9999V15.1111H14.2222V14.2222Z" fill="white"/>
<path d="M16.8888 10.6667V11.5556H17.7777V9.77783H14.2222V11.5556H15.1111V10.6667H16.8888Z" fill="white"/>
<path d="M9.77783 14.2222H10.6667V15.9999H9.77783V14.2222Z" fill="white"/>
<path d="M13.3334 15.1111V15.9999H12.4445V14.2222H11.5556V15.9999H10.6667V16.8888H9.77783V17.7777H11.5556V16.8888H12.4445V17.7777H13.3334V16.8888H14.2223V15.1111H13.3334Z" fill="white"/>
<path d="M16.8889 15.1111H17.7778V16H18.6667V15.1111H19.5556V14.2222H17.7778V12.4445H16.8889V13.3333H16V14.2222H16.8889V15.1111Z" fill="white"/>
<path d="M15.9999 21.3333H14.2222V22.2222H17.7777V21.3333H16.8888V20.4445H15.9999V21.3333Z" fill="white"/>
<path d="M17.778 16.8889V16H16.8891V15.1111H16.0002V16H15.1113V16.8889H16.0002V17.7778H16.8891V16.8889H17.778Z" fill="white"/>
<path d="M21.3335 16.8889H22.2224V17.7778H21.3335V16.8889Z" fill="white"/>
<path d="M17.7778 16.8889H20.4445V17.7778H17.7778V16.8889Z" fill="white"/>
<path d="M21.3334 14.2222H20.4446V15.1111H19.5557V15.9999H20.4446V16.8888H21.3334V15.9999H22.2223V15.1111H21.3334V14.2222Z" fill="white"/>
<path d="M16.8887 17.7778H17.7776V20.4445H16.8887V17.7778Z" fill="white"/>
<path d="M14.2222 20.4445H15.1111V19.5556H15.9999V18.6667H15.1111V16.8889H14.2222V20.4445Z" fill="white"/>
</g>
<defs>
<clipPath id="clip0_4307_21671">
<rect width="16" height="16" fill="white" transform="translate(8 8)"/>
</clipPath>
</defs>
</svg>
