<svg width="32" height="32" viewBox="0 0 32 32" fill="none" xmlns="http://www.w3.org/2000/svg">
<rect width="32" height="32" rx="16" fill="#1173C1"/>
<g clip-path="url(#clip0_13366_68534)">
<path d="M10.4885 9.77734C10.2999 9.77734 10.119 9.85226 9.98562 9.98562C9.85226 10.119 9.77734 10.2999 9.77734 10.4885V13.3329H13.3329V9.77734H10.4885ZM12.444 12.444H10.6662V10.6662H12.444V12.444Z" fill="white"/>
<path d="M9.77734 21.5105C9.77734 21.6991 9.85226 21.8799 9.98562 22.0133C10.119 22.1467 10.2999 22.2216 10.4885 22.2216H13.3329V18.666H9.77734V21.5105ZM10.6662 19.5549H12.444V21.3327H10.6662V19.5549Z" fill="white"/>
<path d="M18.667 22.2216H21.5114C21.7 22.2216 21.8809 22.1467 22.0143 22.0133C22.1476 21.8799 22.2225 21.6991 22.2225 21.5105V18.666H18.667V22.2216ZM19.5559 19.5549H21.3337V21.3327H19.5559V19.5549Z" fill="white"/>
<path d="M21.5114 9.77734H18.667V13.3329H22.2225V10.4885C22.2225 10.2999 22.1476 10.119 22.0143 9.98562C21.8809 9.85226 21.7 9.77734 21.5114 9.77734ZM21.3337 12.444H19.5559V10.6662H21.3337V12.444Z" fill="white"/>
<path d="M16.8891 12.4436V11.5547H15.1113V13.3325H16.0002V12.4436H16.8891Z" fill="white"/>
<path d="M13.333 13.334H14.2219V14.2229H13.333V13.334Z" fill="white"/>
<path d="M14.2227 14.2227H16.0004V15.1115H14.2227V14.2227Z" fill="white"/>
<path d="M16.8893 10.6662V11.5551H17.7782V9.77734H14.2227V11.5551H15.1115V10.6662H16.8893Z" fill="white"/>
<path d="M9.77734 14.2227H10.6662V16.0004H9.77734V14.2227Z" fill="white"/>
<path d="M13.3329 15.1115V16.0004H12.444V14.2227H11.5551V16.0004H10.6662V16.8893H9.77734V17.7782H11.5551V16.8893H12.444V17.7782H13.3329V16.8893H14.2218V15.1115H13.3329Z" fill="white"/>
<path d="M16.8889 15.112H17.7778V16.0009H18.6667V15.112H19.5556V14.2231H17.7778V12.4453H16.8889V13.3342H16V14.2231H16.8889V15.112Z" fill="white"/>
<path d="M16.0004 21.3342H14.2227V22.2231H17.7782V21.3342H16.8893V20.4453H16.0004V21.3342Z" fill="white"/>
<path d="M17.778 16.8891V16.0002H16.8891V15.1113H16.0002V16.0002H15.1113V16.8891H16.0002V17.778H16.8891V16.8891H17.778Z" fill="white"/>
<path d="M21.333 16.8887H22.2219V17.7776H21.333V16.8887Z" fill="white"/>
<path d="M17.7773 16.8887H20.444V17.7776H17.7773V16.8887Z" fill="white"/>
<path d="M21.3334 14.2227H20.4446V15.1115H19.5557V16.0004H20.4446V16.8893H21.3334V16.0004H22.2223V15.1115H21.3334V14.2227Z" fill="white"/>
<path d="M16.8887 17.7773H17.7776V20.444H16.8887V17.7773Z" fill="white"/>
<path d="M14.2227 20.4442H15.1115V19.5553H16.0004V18.6665H15.1115V16.8887H14.2227V20.4442Z" fill="white"/>
</g>
<defs>
<clipPath id="clip0_13366_68534">
<rect width="16" height="16" fill="white" transform="translate(8 8)"/>
</clipPath>
</defs>
</svg>
