<svg width="32" height="32" viewBox="0 0 32 32" fill="none" xmlns="http://www.w3.org/2000/svg">
<rect width="32" height="32" rx="16" fill="#1173C1"/>
<mask id="mask0_13366_68526" style="mask-type:luminance" maskUnits="userSpaceOnUse" x="9" y="10" width="13" height="14">
<path d="M18.4365 17.5809L19.8424 17.1313L20.2808 18.5021C20.6836 19.7619 19.9602 21.1229 18.6681 21.5361C17.3761 21.9493 15.9972 21.2605 15.5943 20.0008L13.8074 14.4129C14.6649 13.8177 15.0777 12.7315 14.7505 11.7084C14.347 10.4466 12.9708 9.75929 11.6767 10.1731C10.3826 10.587 9.66055 11.9453 10.0641 13.2071C10.3912 14.2301 11.3577 14.8754 12.4014 14.8625L14.1884 20.4504C14.834 22.4692 17.0359 23.569 19.1065 22.9069C21.1771 22.2447 22.3323 20.0713 21.6867 18.0525L19.9333 12.5693L18.4365 17.5809ZM12.6995 13.3716C12.1819 13.5372 11.6314 13.2622 11.47 12.7575C11.3086 12.2528 11.5974 11.7095 12.115 11.5439C12.6327 11.3784 13.1832 11.6533 13.3446 12.158C13.506 12.6628 13.2172 13.2061 12.6995 13.3716Z" fill="white"/>
</mask>
<g mask="url(#mask0_13366_68526)">
<rect x="-0.666992" y="-0.666016" width="33.3333" height="33.3333" fill="white"/>
<mask id="mask1_13366_68526" style="mask-type:luminance" maskUnits="userSpaceOnUse" x="-1" y="-1" width="34" height="34">
<rect x="-0.666992" y="-0.666016" width="33.3333" height="33.3333" fill="white"/>
</mask>
<g mask="url(#mask1_13366_68526)">
</g>
</g>
</svg>
