<svg width="32" height="32" viewBox="0 0 32 32" fill="none" xmlns="http://www.w3.org/2000/svg">
<rect width="32" height="32" rx="16" fill="#1173C1"/>
<path d="M19.091 16.7435C17.0468 16.7435 15.3847 15.0813 15.3847 13.0371H9.4541V21.1919H11.3073V22.5467L13.8872 21.1919H22.0574V15.2592C21.3811 16.1594 20.3031 16.7435 19.091 16.7435ZM11.3578 14.5192H14.3242V15.2614H11.3578V14.5192ZM11.3578 16.0035H14.3242V16.7456H11.3578V16.0035ZM20.2526 19.7098H11.3578V18.9677H20.2548V19.7098H20.2526ZM20.2526 18.2277H11.3578V17.4856H20.2548V18.2277H20.2526Z" fill="white"/>
<path d="M20.031 15.6888C19.414 15.6888 18.797 15.6888 18.18 15.6888C18.169 15.6844 18.1581 15.68 18.1449 15.6778C17.9517 15.6273 17.8265 15.4912 17.8133 15.2914C17.8024 15.1267 17.8068 14.9598 17.8068 14.793C17.8068 14.7491 17.7936 14.7293 17.7519 14.7161C17.4862 14.6305 17.2205 14.5405 16.957 14.4526C16.6782 14.3582 16.5113 14.1255 16.5113 13.8313C16.5113 13.2516 16.5091 12.6719 16.5135 12.0901C16.5135 11.943 16.5201 11.7936 16.5442 11.6487C16.6584 10.9549 16.9965 10.3906 17.5608 9.97341C18.2174 9.48596 18.9529 9.34544 19.7456 9.53866C20.3538 9.68797 20.839 10.0283 21.2079 10.5311C21.5197 10.9571 21.6909 11.4357 21.6997 11.9627C21.7085 12.5863 21.7041 13.2121 21.7041 13.8378C21.7041 14.1233 21.5351 14.3582 21.2628 14.4504C20.9971 14.5405 20.7292 14.6305 20.4614 14.7161C20.4196 14.7293 20.4043 14.7491 20.4065 14.793C20.4087 14.9357 20.413 15.0762 20.4065 15.2189C20.4021 15.2958 20.3889 15.377 20.3582 15.4473C20.2945 15.5856 20.1737 15.6537 20.031 15.6888ZM18.1537 13.7851C18.5818 13.7851 18.931 13.436 18.9331 13.0079C18.9353 12.5797 18.5862 12.2306 18.1559 12.2284C17.7233 12.2262 17.3742 12.5753 17.3764 13.0079C17.3764 13.436 17.7255 13.7851 18.1537 13.7851ZM20.0595 13.7851C20.4921 13.7829 20.839 13.4316 20.8346 12.9991C20.8324 12.5687 20.4811 12.224 20.053 12.2284C19.6226 12.2328 19.2757 12.5819 19.2779 13.0101C19.2823 13.4382 19.6336 13.7873 20.0595 13.7851ZM19.1044 13.6095C18.9727 13.8181 18.8365 14.0113 18.7685 14.2418C18.7333 14.3648 18.797 14.5097 18.909 14.5866C19.0254 14.6678 19.1878 14.6678 19.3042 14.5866C19.4162 14.5075 19.4799 14.3626 19.4426 14.2418C19.3745 14.0135 19.2384 13.8181 19.1044 13.6095Z" fill="white"/>
</svg>
