<svg width="32" height="32" viewBox="0 0 32 32" fill="none" xmlns="http://www.w3.org/2000/svg">
<rect width="32" height="32" rx="16" fill="#F56C6C"/>
<mask id="mask0_4307_21681" style="mask-type:luminance" maskUnits="userSpaceOnUse" x="9" y="10" width="13" height="14">
<path d="M18.4365 17.5808L19.8424 17.1312L20.2808 18.502C20.6836 19.7617 19.9602 21.1228 18.6681 21.536C17.3761 21.9491 15.9972 21.2604 15.5943 20.0007L13.8074 14.4127C14.6649 13.8176 15.0777 12.7313 14.7505 11.7083C14.347 10.4465 12.9708 9.75917 11.6767 10.173C10.3826 10.5869 9.66055 11.9452 10.0641 13.207C10.3912 14.23 11.3577 14.8752 12.4014 14.8623L14.1884 20.4503C14.834 22.4691 17.0359 23.5689 19.1065 22.9067C21.1771 22.2446 22.3323 20.0712 21.6867 18.0524L19.9333 12.5692L18.4365 17.5808ZM12.6995 13.3715C12.1819 13.537 11.6314 13.2621 11.47 12.7574C11.3086 12.2527 11.5974 11.7093 12.115 11.5438C12.6327 11.3783 13.1832 11.6532 13.3446 12.1579C13.506 12.6626 13.2172 13.206 12.6995 13.3715Z" fill="white"/>
</mask>
<g mask="url(#mask0_4307_21681)">
<rect x="-0.666504" y="-0.666626" width="33.3333" height="33.3333" fill="white"/>
<mask id="mask1_4307_21681" style="mask-type:luminance" maskUnits="userSpaceOnUse" x="-1" y="-1" width="34" height="34">
<rect x="-0.666504" y="-0.666626" width="33.3333" height="33.3333" fill="white"/>
</mask>
<g mask="url(#mask1_4307_21681)">
</g>
</g>
</svg>
