<svg width="58" height="64" viewBox="0 0 58 64" fill="none" xmlns="http://www.w3.org/2000/svg">
<g opacity="0.4">
<mask id="mask0_36_57867" style="mask-type:alpha" maskUnits="userSpaceOnUse" x="0" y="0" width="64" height="64">
<path fill-rule="evenodd" clip-rule="evenodd" d="M56.8889 0H7.11111C3.16444 0 0 3.2 0 7.11111V56.8889C0 60.8 3.16444 64 7.11111 64H56.8889C60.8356 64 64 60.8 64 56.8889V7.11111C64 3.2 60.8356 0 56.8889 0V0ZM50.3727 13.6269C50.7296 13.9838 50.8831 14.4964 50.781 14.9908L48.7407 24.8755C48.6688 25.2236 48.4757 25.5348 48.1958 25.7538L34.0807 36.7939C35.3818 38.4822 36.5436 40.2849 37.5501 42.1859C37.9377 42.918 37.6584 43.8257 36.9263 44.2134L31.2922 47.1966L30.5903 45.8709L29.2646 46.5726C28.6714 45.4518 28.0063 44.3763 27.2752 43.3522L20.2554 50.372C19.6696 50.9578 18.7199 50.9578 18.1341 50.372L13.6268 45.8647C13.3455 45.5834 13.1875 45.2019 13.1875 44.8041C13.1875 44.4062 13.3455 44.0247 13.6268 43.7434L20.6465 36.7237C19.6227 35.993 18.5476 35.3282 17.4272 34.7353C17.0756 34.5491 16.8123 34.2309 16.6953 33.8507C16.5782 33.4704 16.6171 33.0592 16.8033 32.7076L19.7865 27.0735C20.1741 26.3414 21.0818 26.0621 21.814 26.4498C23.7148 27.4561 25.5174 28.6179 27.2056 29.9188L38.2457 15.8037C38.4647 15.5238 38.7759 15.3307 39.124 15.2588L49.0088 13.2185C49.5031 13.1164 50.0157 13.2699 50.3727 13.6269ZM23.0073 38.6055L16.8088 44.8041L19.1948 47.19L25.3933 40.9914C24.6459 40.1496 23.8492 39.3529 23.0073 38.6055ZM45.9139 23.7299L32.1557 34.4909C31.3175 33.5655 30.4341 32.682 29.5086 31.8439L40.2696 18.0856L47.382 16.6175L45.9139 23.7299ZM31.1827 43.86L34.1684 42.2791C31.1533 37.133 26.8669 32.8465 21.7207 29.8315L20.1398 32.8172C24.6904 35.511 28.4889 39.3094 31.1827 43.86Z" fill="white"/>
</mask>
<g mask="url(#mask0_36_57867)">
<rect width="64" height="64" fill="white"/>
<mask id="mask1_36_57867" style="mask-type:alpha" maskUnits="userSpaceOnUse" x="0" y="0" width="64" height="64">
<rect opacity="0.4" width="64" height="64" fill="white"/>
</mask>
<g mask="url(#mask1_36_57867)">
</g>
</g>
</g>
</svg>
