<svg width="72" height="72" viewBox="0 0 72 72" fill="none" xmlns="http://www.w3.org/2000/svg">
<g clip-path="url(#clip0_7094_2172)">
<g filter="url(#filter0_d_7094_2172)">
<g clip-path="url(#clip1_7094_2172)">
<circle cx="36" cy="36" r="26.6875" fill="white" stroke="#2196F3" stroke-width="2.625"/>
<path d="M35.999 57.875C38.8717 57.875 41.7162 57.3092 44.3702 56.2099C47.0242 55.1105 49.4357 53.4992 51.467 51.468C53.4983 49.4367 55.1096 47.0252 56.2089 44.3712C57.3082 41.7172 57.874 38.8727 57.874 36C57.874 33.1273 57.3082 30.2828 56.2089 27.6288C55.1096 24.9748 53.4983 22.5633 51.467 20.532C49.4357 18.5008 47.0242 16.8895 44.3702 15.7901C41.7162 14.6908 38.8717 14.125 35.999 14.125L35.999 36L35.999 57.875Z" fill="#2196F3"/>
<path opacity="0.2" d="M35.999 57.875C38.8717 57.875 41.7162 57.3092 44.3702 56.2099C47.0242 55.1105 49.4357 53.4992 51.467 51.468C53.4983 49.4367 55.1096 47.0252 56.2089 44.3712C57.3082 41.7172 57.874 38.8727 57.874 36C57.874 33.1273 57.3082 30.2828 56.2089 27.6288C55.1096 24.9748 53.4983 22.5633 51.467 20.532C49.4357 18.5008 47.0242 16.8895 44.3702 15.7901C41.7162 14.6908 38.8717 14.125 35.999 14.125L35.999 36L35.999 57.875Z" fill="white"/>
<path d="M35.999 14.1248C33.1264 14.1248 30.2818 14.6906 27.6278 15.7899C24.9738 16.8892 22.5623 18.5005 20.5311 20.5318C18.4998 22.5631 16.8885 24.9746 15.7892 27.6286C14.6898 30.2826 14.124 33.1271 14.124 35.9998C14.124 38.8724 14.6898 41.717 15.7892 44.371C16.8885 47.025 18.4998 49.4364 20.5311 51.4677C22.5623 53.499 24.9738 55.1103 27.6278 56.2096C30.2818 57.3089 33.1264 57.8748 35.999 57.8748L35.999 35.9998L35.999 14.1248Z" fill="#2196F3"/>
<path opacity="0.2" d="M35.999 14.1248C33.1264 14.1248 30.2818 14.6906 27.6278 15.7899C24.9738 16.8892 22.5623 18.5005 20.5311 20.5318C18.4998 22.5631 16.8885 24.9746 15.7892 27.6286C14.6898 30.2826 14.124 33.1271 14.124 35.9998C14.124 38.8724 14.6898 41.717 15.7892 44.371C16.8885 47.025 18.4998 49.4364 20.5311 51.4677C22.5623 53.499 24.9738 55.1103 27.6278 56.2096C30.2818 57.3089 33.1264 57.8748 35.999 57.8748L35.999 35.9998L35.999 14.1248Z" fill="#383B41"/>
<rect opacity="0.15" x="24.3359" y="1.87476" width="6.73371" height="66.5" transform="rotate(15 24.3359 1.87476)" fill="white"/>
<rect opacity="0.15" x="33.0859" y="3.62476" width="1.56821" height="66.5" transform="rotate(15 33.0859 3.62476)" fill="white"/>
<path d="M35.9997 24L21.333 32L35.9997 40L47.9997 33.4533V42.6667H50.6663V32M26.6663 37.5733V42.9067L35.9997 48L45.333 42.9067V37.5733L35.9997 42.6667L26.6663 37.5733Z" fill="white"/>
</g>
<path fill-rule="evenodd" clip-rule="evenodd" d="M35.9997 11.5133L40.1197 13.9999L39.0263 9.31325L42.6663 6.15992L37.873 5.75325L35.9997 1.33325L34.1263 5.75325L29.333 6.15992L32.973 9.31325L31.8797 13.9999L35.9997 11.5133Z" fill="#FFEFAE" stroke="#FFD100" stroke-width="0.5"/>
</g>
</g>
<defs>
<filter id="filter0_d_7094_2172" x="2" y="-4" width="68" height="76" filterUnits="userSpaceOnUse" color-interpolation-filters="sRGB">
<feFlood flood-opacity="0" result="BackgroundImageFix"/>
<feColorMatrix in="SourceAlpha" type="matrix" values="0 0 0 0 0 0 0 0 0 0 0 0 0 0 0 0 0 0 127 0" result="hardAlpha"/>
<feOffset dy="2"/>
<feGaussianBlur stdDeviation="3"/>
<feComposite in2="hardAlpha" operator="out"/>
<feColorMatrix type="matrix" values="0 0 0 0 0 0 0 0 0 0 0 0 0 0 0 0 0 0 0.15 0"/>
<feBlend mode="normal" in2="BackgroundImageFix" result="effect1_dropShadow_7094_2172"/>
<feBlend mode="normal" in="SourceGraphic" in2="effect1_dropShadow_7094_2172" result="shape"/>
</filter>
<clipPath id="clip0_7094_2172">
<rect width="72" height="72" fill="white"/>
</clipPath>
<clipPath id="clip1_7094_2172">
<rect x="8" y="8" width="56" height="56" rx="28" fill="white"/>
</clipPath>
</defs>
</svg>
