<svg width="63" height="64" viewBox="0 0 63 64" fill="none" xmlns="http://www.w3.org/2000/svg">
<path opacity="0.6" fill-rule="evenodd" clip-rule="evenodd" d="M6 0C2.68629 0 0 2.68629 0 6V58C0 61.3137 2.68629 64 6 64H58C61.3137 64 64 61.3137 64 58V6C64 2.68629 61.3137 0 58 0H6ZM33.6673 42.0013H30.334V38.668H33.6673V42.0013ZM15.334 32.0007C15.334 22.8007 22.8007 15.334 32.0007 15.334C41.2007 15.334 48.6673 22.8007 48.6673 32.0007C48.6673 41.2007 41.2007 48.6673 32.0007 48.6673C22.8007 48.6673 15.334 41.2007 15.334 32.0007ZM18.668 32.0013C18.668 39.3513 24.6513 45.3346 32.0013 45.3346C39.3513 45.3346 45.3346 39.3513 45.3346 32.0013C45.3346 24.6513 39.3513 18.668 32.0013 18.668C24.6513 18.668 18.668 24.6513 18.668 32.0013ZM25.334 28.6667C25.334 24.9833 28.3173 22 32.0007 22C35.684 22 38.6673 24.9833 38.6673 28.6667C38.6673 30.8049 37.3506 31.9555 36.0686 33.0759C34.8523 34.1388 33.6673 35.1744 33.6673 37H30.334C30.334 33.9645 31.9042 32.761 33.2847 31.7028C34.3677 30.8727 35.334 30.132 35.334 28.6667C35.334 26.8333 33.834 25.3333 32.0007 25.3333C30.1673 25.3333 28.6673 26.8333 28.6673 28.6667H25.334Z" fill="white"/>
</svg>
