<svg width="24" height="25" viewBox="0 0 24 25" fill="none" xmlns="http://www.w3.org/2000/svg">
<mask id="mask0_968_13765" style="mask-type:alpha" maskUnits="userSpaceOnUse" x="2" y="4" width="20" height="17">
<path fill-rule="evenodd" clip-rule="evenodd" d="M20 4.5H4C2.9 4.5 2.01 5.4 2.01 6.5L2 18.5C2 19.6 2.9 20.5 4 20.5H20C21.1 20.5 22 19.6 22 18.5V6.5C22 5.4 21.1 4.5 20 4.5ZM15 18.5H4V14.5H15V18.5ZM15 13.5H4V9.5H15V13.5ZM20 18.5H16V9.5H20V18.5Z" fill="white"/>
</mask>
<g mask="url(#mask0_968_13765)">
<rect x="-13" y="-12.5" width="50" height="50" fill="#2196F3"/>
<mask id="mask1_968_13765" style="mask-type:alpha" maskUnits="userSpaceOnUse" x="-13" y="-13" width="50" height="51">
<rect x="-13" y="-12.5" width="50" height="50" fill="white"/>
</mask>
<g mask="url(#mask1_968_13765)">
</g>
</g>
</svg>
