<svg width="72" height="72" viewBox="0 0 72 72" fill="none" xmlns="http://www.w3.org/2000/svg">
<g clip-path="url(#clip0_5774_32733)">
<g filter="url(#filter0_d_5774_32733)">
<g clip-path="url(#clip1_5774_32733)">
<circle cx="36" cy="36" r="26.6875" fill="white" stroke="#2196F3" stroke-width="2.625"/>
<path d="M35.999 57.875C38.8717 57.875 41.7162 57.3092 44.3702 56.2099C47.0242 55.1105 49.4357 53.4992 51.467 51.468C53.4983 49.4367 55.1096 47.0252 56.2089 44.3712C57.3082 41.7172 57.874 38.8727 57.874 36C57.874 33.1273 57.3082 30.2828 56.2089 27.6288C55.1096 24.9748 53.4983 22.5633 51.467 20.532C49.4357 18.5008 47.0242 16.8895 44.3702 15.7901C41.7162 14.6908 38.8717 14.125 35.999 14.125L35.999 36L35.999 57.875Z" fill="#2196F3"/>
<path opacity="0.2" d="M35.999 57.875C38.8717 57.875 41.7162 57.3092 44.3702 56.2099C47.0242 55.1105 49.4357 53.4992 51.467 51.468C53.4983 49.4367 55.1096 47.0252 56.2089 44.3712C57.3082 41.7172 57.874 38.8727 57.874 36C57.874 33.1273 57.3082 30.2828 56.2089 27.6288C55.1096 24.9748 53.4983 22.5633 51.467 20.532C49.4357 18.5008 47.0242 16.8895 44.3702 15.7901C41.7162 14.6908 38.8717 14.125 35.999 14.125L35.999 36L35.999 57.875Z" fill="white"/>
<path d="M35.999 14.125C33.1264 14.125 30.2818 14.6908 27.6278 15.7901C24.9738 16.8895 22.5623 18.5008 20.5311 20.532C18.4998 22.5633 16.8885 24.9748 15.7892 27.6288C14.6898 30.2828 14.124 33.1273 14.124 36C14.124 38.8727 14.6898 41.7172 15.7892 44.3712C16.8885 47.0252 18.4998 49.4367 20.5311 51.468C22.5623 53.4992 24.9738 55.1105 27.6278 56.2099C30.2818 57.3092 33.1264 57.875 35.999 57.875L35.999 36L35.999 14.125Z" fill="#2196F3"/>
<path opacity="0.2" d="M35.999 14.125C33.1264 14.125 30.2818 14.6908 27.6278 15.7901C24.9738 16.8895 22.5623 18.5008 20.5311 20.532C18.4998 22.5633 16.8885 24.9748 15.7892 27.6288C14.6898 30.2828 14.124 33.1273 14.124 36C14.124 38.8727 14.6898 41.7172 15.7892 44.3712C16.8885 47.0252 18.4998 49.4367 20.5311 51.468C22.5623 53.4992 24.9738 55.1105 27.6278 56.2099C30.2818 57.3092 33.1264 57.875 35.999 57.875L35.999 36L35.999 14.125Z" fill="#383B41"/>
<rect opacity="0.15" x="24.3359" y="1.875" width="6.73371" height="66.5" transform="rotate(15 24.3359 1.875)" fill="white"/>
<rect opacity="0.15" x="33.0859" y="3.625" width="1.56821" height="66.5" transform="rotate(15 33.0859 3.625)" fill="white"/>
<path d="M33.3337 25.334C31.9192 25.334 30.5626 25.8959 29.5624 26.8961C28.5622 27.8963 28.0003 29.2528 28.0003 30.6673C28.0003 32.0818 28.5622 33.4384 29.5624 34.4386C30.5626 35.4387 31.9192 36.0007 33.3337 36.0007C34.7481 36.0007 36.1047 35.4387 37.1049 34.4386C38.1051 33.4384 38.667 32.0818 38.667 30.6673C38.667 29.2528 38.1051 27.8963 37.1049 26.8961C36.1047 25.8959 34.7481 25.334 33.3337 25.334ZM33.3337 38.6673C27.4403 38.6673 22.667 41.054 22.667 44.0007V46.6673H35.3337C34.8936 45.6111 34.667 44.4782 34.667 43.334C34.6727 41.7531 35.1107 40.2038 35.9337 38.854C35.0937 38.7473 34.2403 38.6673 33.3337 38.6673Z" fill="white"/>
<path d="M43.3338 37.2227C39.9727 37.2227 37.2227 39.9727 37.2227 43.3338C37.2227 46.6949 39.9727 49.4449 43.3338 49.4449C46.6949 49.4449 49.4449 46.6949 49.4449 43.3338C49.4449 39.9727 46.6949 37.2227 43.3338 37.2227ZM42.1115 46.3893L39.056 43.3338L39.9177 42.4721L42.1115 44.6599L46.7499 40.0215L47.6115 40.8893L42.1115 46.3893Z" fill="white"/>
</g>
<path fill-rule="evenodd" clip-rule="evenodd" d="M35.9997 11.513L40.1197 13.9997L39.0263 9.31301L42.6663 6.15967L37.873 5.75301L35.9997 1.33301L34.1263 5.75301L29.333 6.15967L32.973 9.31301L31.8797 13.9997L35.9997 11.513Z" fill="#FFEFAE" stroke="#FFD100" stroke-width="0.5"/>
</g>
</g>
<defs>
<filter id="filter0_d_5774_32733" x="2" y="-4" width="68" height="76" filterUnits="userSpaceOnUse" color-interpolation-filters="sRGB">
<feFlood flood-opacity="0" result="BackgroundImageFix"/>
<feColorMatrix in="SourceAlpha" type="matrix" values="0 0 0 0 0 0 0 0 0 0 0 0 0 0 0 0 0 0 127 0" result="hardAlpha"/>
<feOffset dy="2"/>
<feGaussianBlur stdDeviation="3"/>
<feComposite in2="hardAlpha" operator="out"/>
<feColorMatrix type="matrix" values="0 0 0 0 0 0 0 0 0 0 0 0 0 0 0 0 0 0 0.15 0"/>
<feBlend mode="normal" in2="BackgroundImageFix" result="effect1_dropShadow_5774_32733"/>
<feBlend mode="normal" in="SourceGraphic" in2="effect1_dropShadow_5774_32733" result="shape"/>
</filter>
<clipPath id="clip0_5774_32733">
<rect width="72" height="72" fill="white"/>
</clipPath>
<clipPath id="clip1_5774_32733">
<rect x="8" y="8" width="56" height="56" rx="28" fill="white"/>
</clipPath>
</defs>
</svg>
