<svg width="72" height="72" viewBox="0 0 72 72" fill="none" xmlns="http://www.w3.org/2000/svg">
<g filter="url(#filter0_d_5774_32659)">
<g clip-path="url(#clip0_5774_32659)">
<circle cx="36" cy="36" r="26.6875" fill="white" stroke="#2196F3" stroke-width="2.625"/>
<path d="M35.999 57.875C38.8717 57.875 41.7162 57.3092 44.3702 56.2099C47.0242 55.1105 49.4357 53.4992 51.467 51.468C53.4983 49.4367 55.1096 47.0252 56.2089 44.3712C57.3082 41.7172 57.874 38.8727 57.874 36C57.874 33.1273 57.3082 30.2828 56.2089 27.6288C55.1096 24.9748 53.4983 22.5633 51.467 20.532C49.4357 18.5008 47.0242 16.8895 44.3702 15.7901C41.7162 14.6908 38.8717 14.125 35.999 14.125L35.999 36L35.999 57.875Z" fill="#2196F3"/>
<path opacity="0.2" d="M35.999 57.875C38.8717 57.875 41.7162 57.3092 44.3702 56.2099C47.0242 55.1105 49.4357 53.4992 51.467 51.468C53.4983 49.4367 55.1096 47.0252 56.2089 44.3712C57.3082 41.7172 57.874 38.8727 57.874 36C57.874 33.1273 57.3082 30.2828 56.2089 27.6288C55.1096 24.9748 53.4983 22.5633 51.467 20.532C49.4357 18.5008 47.0242 16.8895 44.3702 15.7901C41.7162 14.6908 38.8717 14.125 35.999 14.125L35.999 36L35.999 57.875Z" fill="white"/>
<path d="M35.999 14.125C33.1264 14.125 30.2818 14.6908 27.6278 15.7901C24.9738 16.8895 22.5623 18.5008 20.5311 20.532C18.4998 22.5633 16.8885 24.9748 15.7892 27.6288C14.6898 30.2828 14.124 33.1273 14.124 36C14.124 38.8727 14.6898 41.7172 15.7892 44.3712C16.8885 47.0252 18.4998 49.4367 20.5311 51.468C22.5623 53.4992 24.9738 55.1105 27.6278 56.2099C30.2818 57.3092 33.1264 57.875 35.999 57.875L35.999 36L35.999 14.125Z" fill="#2196F3"/>
<path opacity="0.2" d="M35.999 14.125C33.1264 14.125 30.2818 14.6908 27.6278 15.7901C24.9738 16.8895 22.5623 18.5008 20.5311 20.532C18.4998 22.5633 16.8885 24.9748 15.7892 27.6288C14.6898 30.2828 14.124 33.1273 14.124 36C14.124 38.8727 14.6898 41.7172 15.7892 44.3712C16.8885 47.0252 18.4998 49.4367 20.5311 51.468C22.5623 53.4992 24.9738 55.1105 27.6278 56.2099C30.2818 57.3092 33.1264 57.875 35.999 57.875L35.999 36L35.999 14.125Z" fill="#383B41"/>
<rect opacity="0.15" x="24.3359" y="1.875" width="6.73371" height="66.5" transform="rotate(15 24.3359 1.875)" fill="white"/>
<rect opacity="0.15" x="33.0859" y="3.625" width="1.56821" height="66.5" transform="rotate(15 33.0859 3.625)" fill="white"/>
<path d="M50.667 48H21.333L36 22.667L50.667 48ZM37.8525 32.6318C36.3706 32.6319 35.1584 33.8171 35.1582 35.3057C35.1582 36.5384 35.9864 37.6168 37.1787 37.9268V42.7373C37.1786 43.2732 36.9658 43.7871 36.5869 44.166C36.208 44.5449 35.6941 44.7577 35.1582 44.7578C34.6222 44.7578 34.1075 44.545 33.7285 44.166C33.3497 43.7871 33.1368 43.2731 33.1367 42.7373H35.1582L31.7891 39.3682V42.7373C31.7892 43.6305 32.1448 44.4875 32.7764 45.1191C33.408 45.7506 34.265 46.1055 35.1582 46.1055C36.0514 46.1054 36.9084 45.7507 37.54 45.1191C38.1716 44.4875 38.5262 43.6305 38.5264 42.7373V37.9268C39.712 37.6236 40.5479 36.5523 40.5479 35.3262C40.5478 33.8374 39.3481 32.6318 37.8525 32.6318ZM37.8525 33.9785C38.2099 33.9785 38.553 34.1213 38.8057 34.374C39.0581 34.6266 39.2002 34.9691 39.2002 35.3262C39.2002 35.6835 39.0583 36.0266 38.8057 36.2793C38.553 36.532 38.2099 36.6738 37.8525 36.6738C37.4952 36.6738 37.1521 36.532 36.8994 36.2793C36.6468 36.0266 36.5049 35.6835 36.5049 35.3262C36.5049 34.9691 36.6471 34.6266 36.8994 34.374C37.1521 34.1214 37.4952 33.9785 37.8525 33.9785Z" fill="white"/>
</g>
<path fill-rule="evenodd" clip-rule="evenodd" d="M14.9993 18.0735L18.6043 20.2493L17.6477 16.1485L20.8327 13.3893L16.6385 13.0335L14.9993 9.16602L13.3602 13.0335L9.16602 13.3893L12.351 16.1485L11.3943 20.2493L14.9993 18.0735Z" fill="#FFEFAE" stroke="#FFD100" stroke-width="0.4375"/>
<path fill-rule="evenodd" clip-rule="evenodd" d="M57.0003 18.0735L60.6053 20.2493L59.6487 16.1485L62.8337 13.3893L58.6395 13.0335L57.0003 9.16602L55.3612 13.0335L51.167 13.3893L54.352 16.1485L53.3953 20.2493L57.0003 18.0735Z" fill="#FFEFAE" stroke="#FFD100" stroke-width="0.4375"/>
</g>
<defs>
<filter id="filter0_d_5774_32659" x="2" y="4" width="68" height="68" filterUnits="userSpaceOnUse" color-interpolation-filters="sRGB">
<feFlood flood-opacity="0" result="BackgroundImageFix"/>
<feColorMatrix in="SourceAlpha" type="matrix" values="0 0 0 0 0 0 0 0 0 0 0 0 0 0 0 0 0 0 127 0" result="hardAlpha"/>
<feOffset dy="2"/>
<feGaussianBlur stdDeviation="3"/>
<feComposite in2="hardAlpha" operator="out"/>
<feColorMatrix type="matrix" values="0 0 0 0 0 0 0 0 0 0 0 0 0 0 0 0 0 0 0.15 0"/>
<feBlend mode="normal" in2="BackgroundImageFix" result="effect1_dropShadow_5774_32659"/>
<feBlend mode="normal" in="SourceGraphic" in2="effect1_dropShadow_5774_32659" result="shape"/>
</filter>
<clipPath id="clip0_5774_32659">
<rect x="8" y="8" width="56" height="56" rx="28" fill="white"/>
</clipPath>
</defs>
</svg>
