<svg width="138" height="84" viewBox="0 0 138 84" fill="none" xmlns="http://www.w3.org/2000/svg">
<path d="M128.941 64.4455C128.941 56.3197 127.34 48.2735 124.23 40.7662C121.121 33.2589 116.563 26.4377 110.817 20.6919C105.071 14.946 98.2501 10.3882 90.7429 7.2786C83.2356 4.16899 75.1894 2.56849 67.0635 2.56849C58.9377 2.56849 50.8915 4.16899 43.3842 7.2786C35.877 10.3882 29.0557 14.946 23.3099 20.6919C17.5641 26.4377 13.0062 33.2589 9.89663 40.7662C6.78702 48.2735 5.18652 56.3197 5.18652 64.4455H17.5619C17.5619 57.9449 18.8423 51.5079 21.33 45.5021C23.8177 39.4963 27.464 34.0392 32.0606 29.4426C36.6573 24.8459 42.1143 21.1997 48.1201 18.712C54.1259 16.2243 60.5629 14.9439 67.0635 14.9439C73.5642 14.9439 80.0012 16.2243 86.007 18.712C92.0128 21.1997 97.4698 24.8459 102.066 29.4426C106.663 34.0392 110.309 39.4963 112.797 45.5021C115.285 51.5079 116.565 57.9449 116.565 64.4455H128.941Z" fill="#43A047"/>
<path d="M128.941 64.4455C128.941 51.3276 124.772 38.549 117.036 27.955C109.3 17.3609 98.3969 9.49945 85.9016 5.50578C73.4064 1.5121 59.9652 1.59283 47.5189 5.7363C35.0725 9.87978 24.265 17.8716 16.6568 28.5578L26.7381 35.7354C32.8247 27.1864 41.4707 20.7929 51.4278 17.4781C61.3849 14.1634 72.1378 14.0988 82.134 17.2937C92.1302 20.4887 100.852 26.7778 107.041 35.2531C113.23 43.7283 116.565 53.9512 116.565 64.4455H128.941Z" fill="#FBF280"/>
<path d="M128.941 64.4455C128.941 54.5999 126.591 44.8963 122.087 36.1411C117.584 27.3859 111.056 19.8318 103.046 14.1064C95.0363 8.38099 85.7759 4.64959 76.0342 3.22221C66.2926 1.79483 56.351 2.71267 47.0353 5.89949L51.041 17.6087C58.4935 15.0592 66.4468 14.325 74.2401 15.4669C82.0334 16.6088 89.4417 19.5939 95.8495 24.1742C102.257 28.7546 107.48 34.7978 111.083 41.802C114.686 48.8062 116.565 56.569 116.565 64.4455H128.941Z" fill="#E6A23C"/>
<path d="M128.941 64.4455C128.941 51.205 124.693 38.3137 116.823 27.6661C108.953 17.0184 97.8753 9.17605 85.2175 5.29147L81.5867 17.1223C91.7129 20.2299 100.575 26.5038 106.871 35.022C113.167 43.5401 116.565 53.8531 116.565 64.4455H128.941Z" fill="#B6791D"/>
<path d="M128.941 64.4455C128.941 51.0648 124.603 38.0446 116.579 27.3371L106.676 34.7588C113.095 43.3247 116.565 53.7409 116.565 64.4455H128.941Z" fill="#B83A3A"/>
<path d="M2.45632 62.3721C2.45632 62.7754 2.39247 63.0766 2.26477 63.2756C2.13814 63.4745 1.94394 63.574 1.68217 63.574C1.43104 63.574 1.24003 63.4724 1.10914 63.2692C0.978254 63.0649 0.91281 62.7658 0.91281 62.3721C0.91281 61.9656 0.976125 61.6639 1.10276 61.4671C1.22939 61.2702 1.42252 61.1718 1.68217 61.1718C1.93543 61.1718 2.1275 61.2745 2.25839 61.4799C2.39034 61.6852 2.45632 61.9826 2.45632 62.3721ZM1.18097 62.3721C1.18097 62.7116 1.22087 62.959 1.30068 63.1143C1.38049 63.2686 1.50765 63.3458 1.68217 63.3458C1.85881 63.3458 1.98651 63.2676 2.06525 63.1111C2.14506 62.9537 2.18497 62.7073 2.18497 62.3721C2.18497 62.0369 2.14506 61.7916 2.06525 61.6363C1.98651 61.4799 1.85881 61.4016 1.68217 61.4016C1.50765 61.4016 1.38049 61.4788 1.30068 61.6331C1.22087 61.7863 1.18097 62.0327 1.18097 62.3721Z" fill="#383B41"/>
<path d="M12.9509 27.8168H11.4169V27.5885L12.0315 26.9708C12.2188 26.7814 12.3422 26.6462 12.4018 26.5654C12.4614 26.4845 12.5061 26.4057 12.5359 26.3291C12.5657 26.2525 12.5806 26.17 12.5806 26.0817C12.5806 25.9572 12.5428 25.8588 12.4672 25.7864C12.3917 25.713 12.2869 25.6763 12.1528 25.6763C12.0559 25.6763 11.9639 25.6923 11.8766 25.7242C11.7904 25.7561 11.6941 25.8141 11.5877 25.8982L11.4473 25.7178C11.6622 25.539 11.8963 25.4496 12.1496 25.4496C12.3688 25.4496 12.5407 25.506 12.6652 25.6188C12.7897 25.7306 12.8519 25.8811 12.8519 26.0706C12.8519 26.2185 12.8104 26.3648 12.7274 26.5095C12.6444 26.6542 12.489 26.8373 12.2613 27.0586L11.7505 27.5582V27.571H12.9509V27.8168ZM14.8344 26.6468C14.8344 27.0501 14.7705 27.3512 14.6428 27.5502C14.5162 27.7492 14.322 27.8487 14.0602 27.8487C13.8091 27.8487 13.6181 27.7471 13.4872 27.5438C13.3563 27.3395 13.2909 27.0405 13.2909 26.6468C13.2909 26.2403 13.3542 25.9386 13.4808 25.7417C13.6074 25.5449 13.8006 25.4464 14.0602 25.4464C14.3135 25.4464 14.5055 25.5491 14.6364 25.7545C14.7684 25.9599 14.8344 26.2573 14.8344 26.6468ZM13.559 26.6468C13.559 26.9862 13.5989 27.2336 13.6787 27.389C13.7585 27.5433 13.8857 27.6204 14.0602 27.6204C14.2369 27.6204 14.3646 27.5422 14.4433 27.3858C14.5231 27.2283 14.563 26.982 14.563 26.6468C14.563 26.3116 14.5231 26.0663 14.4433 25.9109C14.3646 25.7545 14.2369 25.6763 14.0602 25.6763C13.8857 25.6763 13.7585 25.7534 13.6787 25.9077C13.5989 26.061 13.559 26.3073 13.559 26.6468Z" fill="#383B41"/>
<path d="M119.365 25.4496C119.578 25.4496 119.747 25.4991 119.871 25.5981C119.996 25.697 120.058 25.8338 120.058 26.0083C120.058 26.1232 120.022 26.228 119.951 26.3227C119.88 26.4175 119.766 26.5036 119.609 26.5813C119.799 26.6718 119.934 26.767 120.013 26.867C120.093 26.966 120.133 27.0809 120.133 27.2118C120.133 27.4055 120.065 27.5603 119.93 27.6763C119.795 27.7912 119.61 27.8487 119.375 27.8487C119.126 27.8487 118.934 27.7944 118.8 27.6859C118.666 27.5763 118.599 27.4215 118.599 27.2214C118.599 26.9543 118.762 26.7463 119.088 26.5973C118.941 26.5143 118.835 26.4249 118.771 26.3291C118.708 26.2323 118.676 26.1243 118.676 26.0051C118.676 25.8359 118.738 25.7013 118.862 25.6013C118.988 25.5002 119.156 25.4496 119.365 25.4496ZM118.861 27.2278C118.861 27.3555 118.905 27.455 118.993 27.5263C119.083 27.5976 119.208 27.6332 119.368 27.6332C119.527 27.6332 119.65 27.596 119.739 27.5215C119.827 27.447 119.871 27.3448 119.871 27.215C119.871 27.1118 119.83 27.0203 119.747 26.9405C119.664 26.8596 119.519 26.7814 119.313 26.7058C119.154 26.7739 119.039 26.8495 118.968 26.9325C118.897 27.0144 118.861 27.1129 118.861 27.2278ZM119.362 25.6651C119.229 25.6651 119.125 25.697 119.049 25.7609C118.974 25.8247 118.936 25.9099 118.936 26.0163C118.936 26.1142 118.967 26.1982 119.03 26.2685C119.093 26.3387 119.209 26.4089 119.378 26.4792C119.53 26.4153 119.638 26.3467 119.7 26.2733C119.764 26.1998 119.796 26.1142 119.796 26.0163C119.796 25.9088 119.757 25.8237 119.68 25.7609C119.603 25.697 119.497 25.6651 119.362 25.6651ZM122.01 26.6468C122.01 27.0501 121.946 27.3512 121.819 27.5502C121.692 27.7492 121.498 27.8487 121.236 27.8487C120.985 27.8487 120.794 27.7471 120.663 27.5438C120.532 27.3395 120.467 27.0405 120.467 26.6468C120.467 26.2403 120.53 25.9386 120.657 25.7417C120.783 25.5449 120.976 25.4464 121.236 25.4464C121.489 25.4464 121.681 25.5491 121.812 25.7545C121.944 25.9599 122.01 26.2573 122.01 26.6468ZM120.735 26.6468C120.735 26.9862 120.775 27.2336 120.855 27.389C120.934 27.5433 121.061 27.6204 121.236 27.6204C121.413 27.6204 121.54 27.5422 121.619 27.3858C121.699 27.2283 121.739 26.982 121.739 26.6468C121.739 26.3116 121.699 26.0663 121.619 25.9109C121.54 25.7545 121.413 25.6763 121.236 25.6763C121.061 25.6763 120.934 25.7534 120.855 25.9077C120.775 26.061 120.735 26.3073 120.735 26.6468Z" fill="#383B41"/>
<path d="M44.8169 3.46368H44.4705V4H44.2167V3.46368H43.0818V3.23224L44.1896 1.65362H44.4705V3.22266H44.8169V3.46368ZM44.2167 3.22266V2.44692C44.2167 2.29475 44.222 2.12289 44.2327 1.93135H44.2199C44.1688 2.03351 44.1209 2.1181 44.0762 2.18514L43.3468 3.22266H44.2167ZM46.5902 2.83C46.5902 3.2333 46.5264 3.53445 46.3987 3.73344C46.272 3.93243 46.0778 4.03192 45.8161 4.03192C45.5649 4.03192 45.3739 3.9303 45.243 3.72705C45.1122 3.52274 45.0467 3.22372 45.0467 2.83C45.0467 2.42351 45.11 2.12183 45.2367 1.92497C45.3633 1.7281 45.5564 1.62967 45.8161 1.62967C46.0693 1.62967 46.2614 1.73236 46.3923 1.93774C46.5242 2.14311 46.5902 2.44053 46.5902 2.83ZM45.3149 2.83C45.3149 3.16945 45.3548 3.41686 45.4346 3.57222C45.5144 3.72652 45.6416 3.80367 45.8161 3.80367C45.9927 3.80367 46.1204 3.72546 46.1992 3.56903C46.279 3.41154 46.3189 3.1652 46.3189 2.83C46.3189 2.4948 46.279 2.24952 46.1992 2.09416C46.1204 1.93774 45.9927 1.85952 45.8161 1.85952C45.6416 1.85952 45.5144 1.93667 45.4346 2.09097C45.3548 2.2442 45.3149 2.49055 45.3149 2.83Z" fill="#383B41"/>
<path d="M85.9304 3.00239C85.9304 2.54375 86.0193 2.20111 86.197 1.97445C86.3757 1.74673 86.6396 1.63287 86.9887 1.63287C87.1089 1.63287 87.2036 1.64298 87.2728 1.66319V1.89145C87.1909 1.86484 87.0972 1.85154 86.9919 1.85154C86.7418 1.85154 86.5508 1.92976 86.4188 2.08618C86.2869 2.24154 86.2145 2.48629 86.2018 2.82042H86.2209C86.338 2.63739 86.5231 2.54588 86.7764 2.54588C86.986 2.54588 87.151 2.6092 87.2712 2.73583C87.3925 2.86246 87.4532 3.03431 87.4532 3.25139C87.4532 3.49401 87.3867 3.68502 87.2536 3.82442C87.1217 3.96276 86.9429 4.03192 86.7173 4.03192C86.4758 4.03192 86.2842 3.94147 86.1427 3.76057C86.0012 3.57861 85.9304 3.32588 85.9304 3.00239ZM86.7141 3.80686C86.8652 3.80686 86.9823 3.75951 87.0653 3.6648C87.1494 3.56903 87.1914 3.43123 87.1914 3.25139C87.1914 3.09709 87.1525 2.97578 87.0749 2.88746C86.9972 2.79914 86.8812 2.75498 86.7269 2.75498C86.6311 2.75498 86.5433 2.77467 86.4635 2.81404C86.3837 2.85341 86.3199 2.90768 86.272 2.97685C86.2252 3.04602 86.2018 3.11784 86.2018 3.19233C86.2018 3.30194 86.223 3.40409 86.2656 3.4988C86.3082 3.59351 86.3683 3.66853 86.446 3.72386C86.5247 3.7792 86.6141 3.80686 86.7141 3.80686ZM89.3207 2.83C89.3207 3.2333 89.2568 3.53445 89.1291 3.73344C89.0025 3.93243 88.8083 4.03192 88.5465 4.03192C88.2954 4.03192 88.1044 3.9303 87.9735 3.72705C87.8426 3.52274 87.7772 3.22372 87.7772 2.83C87.7772 2.42351 87.8405 2.12183 87.9671 1.92497C88.0938 1.7281 88.2869 1.62967 88.5465 1.62967C88.7998 1.62967 88.9919 1.73236 89.1228 1.93774C89.2547 2.14311 89.3207 2.44053 89.3207 2.83ZM88.0453 2.83C88.0453 3.16945 88.0852 3.41686 88.1651 3.57222C88.2449 3.72652 88.372 3.80367 88.5465 3.80367C88.7232 3.80367 88.8509 3.72546 88.9296 3.56903C89.0094 3.41154 89.0493 3.1652 89.0493 2.83C89.0493 2.4948 89.0094 2.24952 88.9296 2.09416C88.8509 1.93774 88.7232 1.85952 88.5465 1.85952C88.372 1.85952 88.2449 1.93667 88.1651 2.09097C88.0852 2.2442 88.0453 2.49055 88.0453 2.83Z" fill="#383B41"/>
<path d="M132.417 63.5421H132.158V61.8789C132.158 61.7406 132.162 61.6097 132.171 61.4862C132.149 61.5086 132.123 61.532 132.096 61.5565C132.068 61.5809 131.942 61.6847 131.716 61.8677L131.575 61.6858L132.193 61.2085H132.417V63.5421ZM134.852 62.3721C134.852 62.7754 134.789 63.0766 134.661 63.2756C134.534 63.4745 134.34 63.574 134.078 63.574C133.827 63.574 133.636 63.4724 133.505 63.2692C133.374 63.0649 133.309 62.7658 133.309 62.3721C133.309 61.9656 133.372 61.6639 133.499 61.4671C133.625 61.2702 133.819 61.1718 134.078 61.1718C134.332 61.1718 134.524 61.2745 134.655 61.4799C134.786 61.6852 134.852 61.9826 134.852 62.3721ZM133.577 62.3721C133.577 62.7116 133.617 62.959 133.697 63.1143C133.777 63.2686 133.904 63.3458 134.078 63.3458C134.255 63.3458 134.383 63.2676 134.461 63.1111C134.541 62.9537 134.581 62.7073 134.581 62.3721C134.581 62.0369 134.541 61.7916 134.461 61.6363C134.383 61.4799 134.255 61.4016 134.078 61.4016C133.904 61.4016 133.777 61.4788 133.697 61.6331C133.617 61.7863 133.577 62.0327 133.577 62.3721ZM136.723 62.3721C136.723 62.7754 136.659 63.0766 136.532 63.2756C136.405 63.4745 136.211 63.574 135.949 63.574C135.698 63.574 135.507 63.4724 135.376 63.2692C135.245 63.0649 135.18 62.7658 135.18 62.3721C135.18 61.9656 135.243 61.6639 135.37 61.4671C135.496 61.2702 135.689 61.1718 135.949 61.1718C136.202 61.1718 136.394 61.2745 136.525 61.4799C136.657 61.6852 136.723 61.9826 136.723 62.3721ZM135.448 62.3721C135.448 62.7116 135.488 62.959 135.568 63.1143C135.647 63.2686 135.774 63.3458 135.949 63.3458C136.126 63.3458 136.253 63.2676 136.332 63.1111C136.412 62.9537 136.452 62.7073 136.452 62.3721C136.452 62.0369 136.412 61.7916 136.332 61.6363C136.253 61.4799 136.126 61.4016 135.949 61.4016C135.774 61.4016 135.647 61.4788 135.568 61.6331C135.488 61.7863 135.448 62.0327 135.448 62.3721Z" fill="#383B41"/>
<path d="M67.9275 71.4008C67.9275 71.7626 67.8254 72.0585 67.6213 72.2885C67.4197 72.5185 67.1329 72.6722 66.7607 72.7498V72.7808C67.2156 72.8376 67.5528 72.9823 67.7725 73.2149C67.9921 73.4475 68.102 73.7525 68.102 74.1298C68.102 74.6699 67.9146 75.086 67.5399 75.378C67.1652 75.6674 66.6328 75.8121 65.9428 75.8121C65.643 75.8121 65.3678 75.7889 65.1171 75.7424C64.869 75.6984 64.6274 75.6196 64.3922 75.5059V74.8934C64.6377 75.0149 64.8987 75.1079 65.1753 75.1725C65.4544 75.2346 65.718 75.2656 65.966 75.2656C66.9455 75.2656 67.4352 74.8818 67.4352 74.1143C67.4352 73.4268 66.8951 73.0831 65.8149 73.0831H65.2567V72.5288H65.8226C66.2645 72.5288 66.6147 72.4319 66.8731 72.2381C67.1316 72.0417 67.2608 71.7703 67.2608 71.424C67.2608 71.1475 67.1652 70.9304 66.9739 70.7728C66.7853 70.6151 66.5281 70.5363 66.2025 70.5363C65.9544 70.5363 65.7205 70.5699 65.5009 70.6371C65.2812 70.7043 65.0305 70.8283 64.7488 71.0092L64.4232 70.5751C64.6558 70.3916 64.9233 70.2482 65.2257 70.1448C65.5306 70.0388 65.851 69.9859 66.187 69.9859C66.7375 69.9859 67.1652 70.1125 67.4701 70.3658C67.7751 70.6164 67.9275 70.9614 67.9275 71.4008ZM72.7149 72.8932C72.7149 73.8726 72.5599 74.604 72.2498 75.0873C71.9422 75.5705 71.4706 75.8121 70.8349 75.8121C70.225 75.8121 69.7611 75.5653 69.4432 75.0717C69.1253 74.5756 68.9664 73.8494 68.9664 72.8932C68.9664 71.906 69.1202 71.1733 69.4277 70.6953C69.7352 70.2172 70.2043 69.9781 70.8349 69.9781C71.4499 69.9781 71.9164 70.2275 72.2342 70.7263C72.5547 71.225 72.7149 71.9473 72.7149 72.8932ZM69.6177 72.8932C69.6177 73.7176 69.7146 74.3184 69.9084 74.6957C70.1022 75.0705 70.411 75.2578 70.8349 75.2578C71.2638 75.2578 71.574 75.0679 71.7652 74.688C71.959 74.3055 72.0559 73.7072 72.0559 72.8932C72.0559 72.0791 71.959 71.4835 71.7652 71.1062C71.574 70.7263 71.2638 70.5363 70.8349 70.5363C70.411 70.5363 70.1022 70.7237 69.9084 71.0984C69.7146 71.4705 69.6177 72.0688 69.6177 72.8932Z" fill="#383B41"/>
<path d="M51.0255 82.1174V79.3781H51.3441V82.1174H51.0255ZM53.4557 82.1174V80.789C53.4557 80.6216 53.4176 80.4967 53.3414 80.4142C53.2652 80.3318 53.1459 80.2906 52.9836 80.2906C52.7687 80.2906 52.6113 80.3487 52.5114 80.4648C52.4115 80.581 52.3615 80.7727 52.3615 81.0401V82.1174H52.0505V80.0638H52.3034L52.354 80.3449H52.369C52.4327 80.2437 52.522 80.1657 52.6369 80.1107C52.7518 80.0545 52.8799 80.0264 53.021 80.0264C53.2684 80.0264 53.4545 80.0863 53.5794 80.2063C53.7043 80.3249 53.7668 80.5154 53.7668 80.7777V82.1174H53.4557ZM55.8054 81.842H55.7885C55.6449 82.0506 55.43 82.1549 55.1439 82.1549C54.8754 82.1549 54.6662 82.0631 54.5163 81.8795C54.3676 81.6958 54.2933 81.4348 54.2933 81.0963C54.2933 80.7577 54.3682 80.4948 54.5181 80.3074C54.668 80.1201 54.8766 80.0264 55.1439 80.0264C55.4225 80.0264 55.6361 80.1276 55.7848 80.3299H55.8091L55.796 80.1819L55.7885 80.0376V79.2019H56.0995V82.1174H55.8466L55.8054 81.842ZM55.1833 81.8945C55.3956 81.8945 55.5493 81.837 55.6442 81.7221C55.7404 81.6059 55.7885 81.4192 55.7885 81.1618V81.0963C55.7885 80.8052 55.7398 80.5979 55.6424 80.4742C55.5462 80.3493 55.3919 80.2868 55.1795 80.2868C54.9972 80.2868 54.8573 80.358 54.7598 80.5004C54.6637 80.6416 54.6156 80.8414 54.6156 81.1C54.6156 81.3623 54.6637 81.5603 54.7598 81.694C54.856 81.8276 54.9972 81.8945 55.1833 81.8945ZM57.0533 80.0638V81.3961C57.0533 81.5634 57.0914 81.6884 57.1675 81.7708C57.2437 81.8532 57.363 81.8945 57.5254 81.8945C57.7403 81.8945 57.897 81.8358 57.9957 81.7183C58.0957 81.6009 58.1456 81.4092 58.1456 81.1431V80.0638H58.4567V82.1174H58.2L58.155 81.842H58.1381C58.0744 81.9432 57.9857 82.0206 57.8721 82.0743C57.7596 82.128 57.631 82.1549 57.4861 82.1549C57.2363 82.1549 57.0489 82.0956 56.924 81.9769C56.8003 81.8582 56.7385 81.6684 56.7385 81.4073V80.0638H57.0533ZM60.4428 81.5572C60.4428 81.7483 60.3716 81.8957 60.2292 81.9994C60.0868 82.1031 59.8869 82.1549 59.6296 82.1549C59.3573 82.1549 59.1449 82.1118 58.9925 82.0256V81.7371C59.0912 81.787 59.1968 81.8264 59.3092 81.8551C59.4229 81.8838 59.5322 81.8982 59.6371 81.8982C59.7995 81.8982 59.9244 81.8726 60.0118 81.8214C60.0993 81.7689 60.143 81.6896 60.143 81.5834C60.143 81.5035 60.108 81.4354 60.0381 81.3792C59.9694 81.3217 59.8345 81.2543 59.6333 81.1768C59.4422 81.1056 59.3061 81.0438 59.2249 80.9913C59.1449 80.9376 59.085 80.877 59.045 80.8096C59.0063 80.7421 58.9869 80.6616 58.9869 80.5679C58.9869 80.4005 59.055 80.2687 59.1912 80.1725C59.3273 80.0751 59.5141 80.0264 59.7514 80.0264C59.9725 80.0264 60.1886 80.0713 60.3997 80.1613L60.2891 80.4142C60.083 80.3293 59.8963 80.2868 59.7289 80.2868C59.5815 80.2868 59.4703 80.3099 59.3954 80.3561C59.3204 80.4024 59.283 80.4661 59.283 80.5473C59.283 80.6022 59.2967 80.6491 59.3242 80.6878C59.3529 80.7265 59.3985 80.7634 59.461 80.7983C59.5234 80.8333 59.6433 80.8839 59.8207 80.9501C60.0643 81.0388 60.2286 81.1281 60.3135 81.2181C60.3997 81.308 60.4428 81.421 60.4428 81.5572ZM61.6139 81.8982C61.6688 81.8982 61.7219 81.8945 61.7731 81.887C61.8243 81.8782 61.8649 81.8695 61.8949 81.8607V82.0987C61.8612 82.1149 61.8112 82.128 61.745 82.138C61.6801 82.1493 61.6213 82.1549 61.5689 82.1549C61.1717 82.1549 60.973 81.9457 60.973 81.5272V80.3056H60.6789V80.1557L60.973 80.0264L61.1042 79.5879H61.2841V80.0638H61.8799V80.3056H61.2841V81.5141C61.2841 81.6378 61.3134 81.7327 61.3721 81.7989C61.4309 81.8651 61.5114 81.8982 61.6139 81.8982ZM63.244 80.0264C63.3352 80.0264 63.417 80.0339 63.4894 80.0489L63.4463 80.3374C63.3614 80.3187 63.2864 80.3093 63.2215 80.3093C63.0554 80.3093 62.913 80.3768 62.7943 80.5117C62.6769 80.6466 62.6182 80.8146 62.6182 81.0157V82.1174H62.3071V80.0638H62.5638L62.5994 80.4442H62.6144C62.6906 80.3106 62.7824 80.2075 62.8898 80.1351C62.9973 80.0626 63.1153 80.0264 63.244 80.0264ZM63.5475 80.0638H63.881L64.3307 81.2349C64.4294 81.5022 64.4906 81.6952 64.5143 81.8139H64.5293C64.5456 81.7502 64.5793 81.6415 64.6305 81.4879C64.683 81.333 64.8529 80.8583 65.1402 80.0638H65.4737L64.5912 82.4022C64.5037 82.6333 64.4013 82.797 64.2839 82.8931C64.1677 82.9906 64.0247 83.0393 63.8548 83.0393C63.7599 83.0393 63.6662 83.0287 63.5737 83.0074V82.7582C63.6425 82.7732 63.7193 82.7807 63.8042 82.7807C64.0178 82.7807 64.1702 82.6608 64.2614 82.421L64.3757 82.1287L63.5475 80.0638ZM68.5728 82.1174L68.2318 81.2462H67.1338L66.7965 82.1174H66.4742L67.5572 79.3668H67.8252L68.9026 82.1174H68.5728ZM68.1325 80.9595L67.8139 80.1107C67.7727 80.0033 67.7303 79.8715 67.6865 79.7153C67.659 79.8353 67.6197 79.967 67.5685 80.1107L67.2462 80.9595H68.1325ZM69.682 82.1174L68.9026 80.0638H69.2361L69.6783 81.2818C69.7782 81.5666 69.8369 81.7514 69.8544 81.8364H69.8694C69.8831 81.7702 69.9262 81.6334 69.9987 81.426C70.0724 81.2174 70.2367 80.7634 70.4915 80.0638H70.825L70.0455 82.1174H69.682ZM72.0223 82.1549C71.7187 82.1549 71.4789 82.0625 71.3028 81.8776C71.1279 81.6927 71.0405 81.436 71.0405 81.1075C71.0405 80.7765 71.1217 80.5135 71.284 80.3187C71.4477 80.1238 71.6669 80.0264 71.9417 80.0264C72.199 80.0264 72.4026 80.1113 72.5525 80.2812C72.7024 80.4498 72.7774 80.6728 72.7774 80.9501V81.1469H71.3627C71.369 81.3879 71.4296 81.5709 71.5445 81.6958C71.6607 81.8208 71.8237 81.8832 72.0335 81.8832C72.2546 81.8832 72.4732 81.837 72.6893 81.7446V82.0219C72.5794 82.0693 72.4751 82.1031 72.3764 82.1231C72.279 82.1443 72.1609 82.1549 72.0223 82.1549ZM71.938 80.2868C71.7731 80.2868 71.6413 80.3405 71.5426 80.448C71.4452 80.5554 71.3877 80.704 71.3702 80.8939H72.4439C72.4439 80.6978 72.4002 80.5479 72.3127 80.4442C72.2253 80.3393 72.1004 80.2868 71.938 80.2868ZM74.2464 80.0264C74.3376 80.0264 74.4194 80.0339 74.4918 80.0489L74.4487 80.3374C74.3638 80.3187 74.2888 80.3093 74.2239 80.3093C74.0578 80.3093 73.9154 80.3768 73.7967 80.5117C73.6793 80.6466 73.6206 80.8146 73.6206 81.0157V82.1174H73.3095V80.0638H73.5662L73.6018 80.4442H73.6168C73.693 80.3106 73.7848 80.2075 73.8922 80.1351C73.9997 80.0626 74.1177 80.0264 74.2464 80.0264ZM76.1388 82.1174L76.077 81.8251H76.062C75.9596 81.9538 75.8571 82.0412 75.7547 82.0875C75.6535 82.1324 75.5267 82.1549 75.3744 82.1549C75.1707 82.1549 75.0109 82.1024 74.8947 81.9975C74.7798 81.8926 74.7223 81.7433 74.7223 81.5497C74.7223 81.135 75.0539 80.9176 75.7172 80.8976L76.0657 80.8864V80.759C76.0657 80.5979 76.0308 80.4792 75.9608 80.403C75.8921 80.3255 75.7816 80.2868 75.6292 80.2868C75.458 80.2868 75.2644 80.3393 75.0483 80.4442L74.9528 80.2063C75.0539 80.1513 75.1645 80.1082 75.2844 80.077C75.4056 80.0457 75.5267 80.0301 75.6479 80.0301C75.8927 80.0301 76.0739 80.0845 76.1913 80.1931C76.31 80.3018 76.3693 80.4761 76.3693 80.7159V82.1174H76.1388ZM75.4362 81.8982C75.6298 81.8982 75.7816 81.8451 75.8915 81.7389C76.0027 81.6328 76.0583 81.4841 76.0583 81.293V81.1075L75.7472 81.1206C75.4999 81.1294 75.3213 81.1681 75.2113 81.2368C75.1027 81.3042 75.0483 81.4098 75.0483 81.5534C75.0483 81.6659 75.0821 81.7514 75.1495 81.8101C75.2182 81.8689 75.3138 81.8982 75.4362 81.8982ZM78.6927 80.0638V80.2606L78.3123 80.3056C78.3473 80.3493 78.3785 80.4067 78.406 80.4779C78.4335 80.5479 78.4472 80.6272 78.4472 80.7159C78.4472 80.917 78.3785 81.0775 78.2411 81.1974C78.1037 81.3174 77.9151 81.3773 77.6753 81.3773C77.6141 81.3773 77.5566 81.3723 77.5029 81.3623C77.3705 81.4323 77.3043 81.5203 77.3043 81.6265C77.3043 81.6827 77.3274 81.7246 77.3736 81.7521C77.4198 81.7783 77.4991 81.7914 77.6116 81.7914H77.9751C78.1974 81.7914 78.3679 81.8382 78.4866 81.9319C78.6065 82.0256 78.6665 82.1618 78.6665 82.3404C78.6665 82.5677 78.5753 82.7408 78.3929 82.8594C78.2105 82.9793 77.9445 83.0393 77.5947 83.0393C77.3261 83.0393 77.1188 82.9893 76.9726 82.8894C76.8277 82.7895 76.7553 82.6483 76.7553 82.4659C76.7553 82.341 76.7952 82.233 76.8752 82.1418C76.9551 82.0506 77.0676 81.9888 77.2125 81.9563C77.16 81.9326 77.1156 81.8957 77.0794 81.8457C77.0444 81.7958 77.027 81.7377 77.027 81.6715C77.027 81.5965 77.0469 81.531 77.0869 81.4748C77.1269 81.4185 77.19 81.3642 77.2762 81.3117C77.17 81.268 77.0832 81.1937 77.0157 81.0888C76.9495 80.9838 76.9164 80.8639 76.9164 80.729C76.9164 80.5042 76.9839 80.3312 77.1188 80.21C77.2537 80.0876 77.4448 80.0264 77.6921 80.0264C77.7996 80.0264 77.8964 80.0389 77.9825 80.0638H78.6927ZM77.0551 82.4622C77.0551 82.5734 77.1019 82.6577 77.1956 82.7151C77.2893 82.7726 77.4236 82.8013 77.5984 82.8013C77.8595 82.8013 78.0525 82.762 78.1774 82.6833C78.3036 82.6058 78.3667 82.5003 78.3667 82.3666C78.3667 82.2555 78.3323 82.178 78.2636 82.1343C78.1949 82.0918 78.0656 82.0706 77.8757 82.0706H77.5029C77.3617 82.0706 77.2518 82.1043 77.1731 82.1718C77.0944 82.2392 77.0551 82.336 77.0551 82.4622ZM77.2237 80.7215C77.2237 80.8652 77.2643 80.9738 77.3455 81.0475C77.4267 81.1212 77.5397 81.1581 77.6846 81.1581C77.9882 81.1581 78.1399 81.0107 78.1399 80.7159C78.1399 80.4074 77.9863 80.2531 77.679 80.2531C77.5329 80.2531 77.4204 80.2924 77.3417 80.3711C77.263 80.4498 77.2237 80.5666 77.2237 80.7215ZM79.9818 82.1549C79.6783 82.1549 79.4384 82.0625 79.2623 81.8776C79.0874 81.6927 79 81.436 79 81.1075C79 80.7765 79.0812 80.5135 79.2436 80.3187C79.4072 80.1238 79.6264 80.0264 79.9012 80.0264C80.1585 80.0264 80.3622 80.1113 80.512 80.2812C80.6619 80.4498 80.7369 80.6728 80.7369 80.9501V81.1469H79.3222C79.3285 81.3879 79.3891 81.5709 79.504 81.6958C79.6202 81.8208 79.7832 81.8832 79.993 81.8832C80.2141 81.8832 80.4327 81.837 80.6488 81.7446V82.0219C80.5389 82.0693 80.4346 82.1031 80.3359 82.1231C80.2385 82.1443 80.1204 82.1549 79.9818 82.1549ZM79.8975 80.2868C79.7326 80.2868 79.6008 80.3405 79.5021 80.448C79.4047 80.5554 79.3472 80.704 79.3297 80.8939H80.4034C80.4034 80.6978 80.3597 80.5479 80.2722 80.4442C80.1848 80.3393 80.0599 80.2868 79.8975 80.2868ZM81.2241 81.9188C81.2241 81.8351 81.2428 81.772 81.2803 81.7296C81.319 81.6859 81.374 81.664 81.4452 81.664C81.5176 81.664 81.5738 81.6859 81.6138 81.7296C81.655 81.772 81.6756 81.8351 81.6756 81.9188C81.6756 82 81.655 82.0625 81.6138 82.1062C81.5726 82.1499 81.5164 82.1718 81.4452 82.1718C81.3814 82.1718 81.3284 82.1524 81.2859 82.1137C81.2447 82.0737 81.2241 82.0088 81.2241 81.9188ZM81.2241 80.2643C81.2241 80.0957 81.2978 80.0114 81.4452 80.0114C81.5988 80.0114 81.6756 80.0957 81.6756 80.2643C81.6756 80.3455 81.655 80.408 81.6138 80.4517C81.5726 80.4954 81.5164 80.5173 81.4452 80.5173C81.3814 80.5173 81.3284 80.4979 81.2859 80.4592C81.2447 80.4192 81.2241 80.3543 81.2241 80.2643ZM85.0764 81.4879H84.6698V82.1174H84.3719V81.4879H83.0397V81.2162L84.34 79.3631H84.6698V81.2049H85.0764V81.4879ZM84.3719 81.2049V80.2943C84.3719 80.1157 84.3781 79.914 84.3906 79.6891H84.3756C84.3157 79.809 84.2595 79.9083 84.207 79.987L83.3507 81.2049H84.3719ZM87.1431 82.1174H85.3425V81.8495L86.0638 81.1244C86.2837 80.902 86.4286 80.7434 86.4985 80.6484C86.5685 80.5535 86.621 80.4611 86.6559 80.3711C86.6909 80.2812 86.7084 80.1844 86.7084 80.0807C86.7084 79.9346 86.664 79.819 86.5754 79.7341C86.4867 79.6479 86.3636 79.6048 86.2062 79.6048C86.0926 79.6048 85.9845 79.6235 85.8821 79.661C85.7809 79.6985 85.6679 79.7666 85.5429 79.8652L85.3781 79.6535C85.6304 79.4437 85.9052 79.3387 86.2025 79.3387C86.4598 79.3387 86.6615 79.4049 86.8077 79.5373C86.9538 79.6685 87.0269 79.8453 87.0269 80.0676C87.0269 80.2412 86.9782 80.413 86.8808 80.5829C86.7833 80.7527 86.601 80.9676 86.3337 81.2274L85.7341 81.8139V81.8289H87.1431V82.1174Z" fill="#383B41"/>
<path d="M36.6919 12.1419L67.5764 61.8995L67.0467 64.7179L64.341 63.7675L36.6919 12.1419Z" fill="#757575"/>
</svg>
