<svg width="216" height="64" viewBox="0 0 216 64" fill="none" xmlns="http://www.w3.org/2000/svg">
<rect width="216" height="63.2791" transform="translate(0 0.279053)" fill="white"/>
<circle cx="49.8508" cy="4.99391" r="1.40651" fill="#F56C6C"/>
<path d="M53.0328 3.92452C52.9378 3.92452 52.8523 3.941 52.7762 3.97397C52.7008 4.00615 52.6365 4.05324 52.5831 4.11525C52.5305 4.17647 52.4901 4.25064 52.4618 4.33776C52.4336 4.42488 52.4194 4.523 52.4194 4.63209C52.4194 4.77651 52.4418 4.90209 52.4865 5.00884C52.5321 5.1148 52.5996 5.19682 52.689 5.2549C52.7793 5.31298 52.8919 5.34202 53.0269 5.34202C53.1038 5.34202 53.1761 5.33574 53.2436 5.32318C53.3118 5.30984 53.3782 5.29336 53.4425 5.27374V5.44798C53.3797 5.47153 53.3138 5.48879 53.2447 5.49978C53.1757 5.51156 53.0936 5.51744 52.9987 5.51744C52.8236 5.51744 52.6773 5.48134 52.5595 5.40913C52.4426 5.33613 52.3547 5.23332 52.2958 5.10067C52.2377 4.96802 52.2087 4.81144 52.2087 4.63092C52.2087 4.50063 52.2267 4.38172 52.2628 4.27419C52.2997 4.16587 52.3531 4.07247 52.423 3.99398C52.4936 3.9155 52.5799 3.85506 52.682 3.81268C52.7848 3.76951 52.9025 3.74792 53.0352 3.74792C53.1223 3.74792 53.2063 3.75656 53.2871 3.77382C53.368 3.79109 53.441 3.81582 53.5061 3.848L53.426 4.01753C53.3711 3.99241 53.3107 3.97083 53.2447 3.95278C53.1796 3.93394 53.109 3.92452 53.0328 3.92452ZM53.9829 5.4939H53.7863V3.66198H53.9829V5.4939ZM54.5916 4.20355V5.4939H54.3962V4.20355H54.5916ZM54.4962 3.72084C54.5284 3.72084 54.5559 3.73144 54.5786 3.75263C54.6022 3.77304 54.614 3.80522 54.614 3.84917C54.614 3.89234 54.6022 3.92452 54.5786 3.94571C54.5559 3.96691 54.5284 3.9775 54.4962 3.9775C54.4625 3.9775 54.4342 3.96691 54.4115 3.94571C54.3895 3.92452 54.3785 3.89234 54.3785 3.84917C54.3785 3.80522 54.3895 3.77304 54.4115 3.75263C54.4342 3.73144 54.4625 3.72084 54.4962 3.72084ZM55.5229 5.51744C55.4067 5.51744 55.3043 5.4935 55.2156 5.44563C55.1269 5.39775 55.0578 5.32475 55.0084 5.22664C54.9589 5.12853 54.9342 5.00491 54.9342 4.85579C54.9342 4.69959 54.9601 4.57205 55.0119 4.47316C55.0645 4.37348 55.1367 4.2997 55.2285 4.25182C55.3204 4.20394 55.4247 4.18 55.5417 4.18C55.6061 4.18 55.6681 4.18667 55.7277 4.20002C55.7882 4.21257 55.8376 4.22866 55.8761 4.24829L55.8172 4.41193C55.7779 4.39624 55.7324 4.38211 55.6806 4.36955C55.6296 4.35699 55.5817 4.35071 55.537 4.35071C55.4475 4.35071 55.3729 4.36994 55.3133 4.4084C55.2544 4.44686 55.2101 4.50337 55.1803 4.57794C55.1512 4.6525 55.1367 4.74433 55.1367 4.85343C55.1367 4.95782 55.1508 5.04691 55.1791 5.12068C55.2081 5.19446 55.2509 5.25097 55.3074 5.29022C55.3647 5.32868 55.4361 5.34791 55.5217 5.34791C55.59 5.34791 55.6516 5.34084 55.7065 5.32672C55.7615 5.3118 55.8113 5.29454 55.856 5.27491V5.44916C55.8129 5.47113 55.7646 5.48801 55.7112 5.49978C55.6586 5.51156 55.5959 5.51744 55.5229 5.51744ZM56.3564 3.66198V4.61326C56.3564 4.64465 56.3552 4.68311 56.3529 4.72863C56.3505 4.77337 56.3486 4.81301 56.347 4.84754H56.3552C56.3717 4.82714 56.3957 4.79692 56.427 4.75689C56.4592 4.71686 56.4863 4.68468 56.5083 4.66035L56.9368 4.20355H57.1664L56.6472 4.75454L57.2041 5.4939H56.9686L56.513 4.88286L56.3564 5.0265V5.4939L56.1621 5.4939V3.66198H56.3564ZM58.5345 3.77265C58.7566 3.77265 58.9187 3.81621 59.0207 3.90333C59.1235 3.98967 59.1749 4.11368 59.1749 4.27536C59.1749 4.34836 59.1628 4.41782 59.1384 4.48375C59.1149 4.5489 59.0764 4.60659 59.023 4.65682C58.9697 4.70627 58.8994 4.74551 58.8123 4.77455C58.726 4.80281 58.62 4.81693 58.4944 4.81693H58.2849V5.4939H58.0847V3.77265H58.5345ZM58.5156 3.94336H58.2849V4.64504H58.4721C58.5819 4.64504 58.6734 4.63327 58.7464 4.60973C58.8202 4.58618 58.8755 4.54811 58.9124 4.49552C58.9493 4.44215 58.9677 4.37151 58.9677 4.28361C58.9677 4.16901 58.9312 4.08385 58.8582 4.02813C58.7852 3.97161 58.671 3.94336 58.5156 3.94336ZM59.7012 3.66198V4.20943C59.7012 4.24083 59.7004 4.27262 59.6988 4.3048C59.6973 4.33619 59.6945 4.36523 59.6906 4.39192H59.7035C59.7302 4.3464 59.764 4.30833 59.8048 4.27772C59.8464 4.24632 59.8935 4.22278 59.9461 4.20708C59.9987 4.1906 60.0544 4.18236 60.1133 4.18236C60.2169 4.18236 60.3032 4.19884 60.3723 4.2318C60.4421 4.26477 60.4943 4.31579 60.5288 4.38486C60.5642 4.45393 60.5818 4.5434 60.5818 4.65329V5.4939H60.3887V4.66624C60.3887 4.55871 60.364 4.47826 60.3146 4.42488C60.2659 4.37151 60.191 4.34483 60.0897 4.34483C59.9939 4.34483 59.9174 4.36327 59.8601 4.40016C59.8036 4.43627 59.7628 4.48964 59.7377 4.56028C59.7134 4.63092 59.7012 4.71725 59.7012 4.81929V5.4939H59.5058V3.66198H59.7012ZM61.1799 4.20355V5.4939H60.9845V4.20355H61.1799ZM61.0845 3.72084C61.1167 3.72084 61.1442 3.73144 61.167 3.75263C61.1905 3.77304 61.2023 3.80522 61.2023 3.84917C61.2023 3.89234 61.1905 3.92452 61.167 3.94571C61.1442 3.96691 61.1167 3.9775 61.0845 3.9775C61.0508 3.9775 61.0225 3.96691 60.9998 3.94571C60.9778 3.92452 60.9668 3.89234 60.9668 3.84917C60.9668 3.80522 60.9778 3.77304 60.9998 3.75263C61.0225 3.73144 61.0508 3.72084 61.0845 3.72084ZM62.4291 5.1407C62.4291 5.22311 62.4083 5.29257 62.3667 5.34909C62.3258 5.40481 62.267 5.4468 62.1901 5.47506C62.1139 5.50332 62.0229 5.51744 61.9169 5.51744C61.8267 5.51744 61.7486 5.51038 61.6826 5.49625C61.6167 5.48212 61.559 5.46211 61.5096 5.43621V5.25608C61.5621 5.28198 61.6249 5.30552 61.6979 5.32672C61.7709 5.34791 61.8455 5.3585 61.9216 5.3585C62.0331 5.3585 62.1139 5.34045 62.1642 5.30435C62.2144 5.26824 62.2395 5.21919 62.2395 5.15718C62.2395 5.12186 62.2293 5.09086 62.2089 5.06417C62.1893 5.0367 62.1559 5.01041 62.1088 4.98529C62.0617 4.95939 61.9966 4.93113 61.9134 4.90052C61.831 4.86913 61.7595 4.83813 61.6991 4.80752C61.6395 4.77612 61.5932 4.73805 61.5602 4.69332C61.528 4.64858 61.5119 4.5905 61.5119 4.51907C61.5119 4.40997 61.5559 4.32638 61.6438 4.2683C61.7325 4.20943 61.8486 4.18 61.9923 4.18C62.07 4.18 62.1426 4.18785 62.2101 4.20355C62.2784 4.21846 62.3419 4.23887 62.4008 4.26477L62.3349 4.42135C62.2815 4.39859 62.2246 4.37936 62.1642 4.36366C62.1037 4.34797 62.0421 4.34012 61.9793 4.34012C61.8891 4.34012 61.8196 4.35503 61.7709 4.38486C61.723 4.41468 61.6991 4.4555 61.6991 4.5073C61.6991 4.54733 61.7101 4.58029 61.7321 4.60619C61.7548 4.63209 61.7909 4.65643 61.8404 4.67919C61.8898 4.70195 61.955 4.72863 62.0358 4.75925C62.1167 4.78907 62.1865 4.82007 62.2454 4.85225C62.3043 4.88365 62.3494 4.92211 62.3808 4.96763C62.413 5.01237 62.4291 5.07006 62.4291 5.1407ZM62.9388 3.66198V4.20943C62.9388 4.24083 62.938 4.27262 62.9365 4.3048C62.9349 4.33619 62.9322 4.36523 62.9282 4.39192H62.9412C62.9679 4.3464 63.0016 4.30833 63.0424 4.27772C63.084 4.24632 63.1311 4.22278 63.1837 4.20708C63.2363 4.1906 63.292 4.18236 63.3509 4.18236C63.4545 4.18236 63.5408 4.19884 63.6099 4.2318C63.6798 4.26477 63.732 4.31579 63.7665 4.38486C63.8018 4.45393 63.8195 4.5434 63.8195 4.65329V5.4939H63.6264V4.66624C63.6264 4.55871 63.6017 4.47826 63.5522 4.42488C63.5036 4.37151 63.4286 4.34483 63.3274 4.34483C63.2316 4.34483 63.1551 4.36327 63.0978 4.40016C63.0413 4.43627 63.0004 4.48964 62.9753 4.56028C62.951 4.63092 62.9388 4.71725 62.9388 4.81929V5.4939H62.7434V3.66198H62.9388ZM66.18 3.77265V4.8864C66.18 5.00805 66.1553 5.11637 66.1058 5.21134C66.0572 5.30631 65.9834 5.38127 65.8845 5.43621C65.7856 5.49036 65.6616 5.51744 65.5125 5.51744C65.2998 5.51744 65.1377 5.45975 65.0262 5.34438C64.9156 5.229 64.8602 5.07477 64.8602 4.88169V3.77265H65.0616V4.88757C65.0616 5.03356 65.1 5.14619 65.1769 5.22547C65.2546 5.30474 65.3704 5.34438 65.5242 5.34438C65.6294 5.34438 65.7154 5.32554 65.7821 5.28786C65.8496 5.24941 65.8994 5.19603 65.9316 5.12775C65.9646 5.05868 65.981 4.97901 65.981 4.88875V3.77265H66.18ZM67.1019 3.77265C67.2431 3.77265 67.3597 3.79031 67.4515 3.82563C67.5441 3.86016 67.6132 3.91314 67.6587 3.98457C67.7043 4.05599 67.727 4.14704 67.727 4.2577C67.727 4.34875 67.7105 4.42488 67.6776 4.48611C67.6446 4.54654 67.6014 4.5956 67.5481 4.63327C67.4947 4.67095 67.4378 4.69999 67.3774 4.72039L67.8495 5.4939H67.6163L67.1949 4.77573H66.837V5.4939H66.6368V3.77265L67.1019 3.77265ZM67.0901 3.94571L66.837 3.94571V4.60619H67.1101C67.2506 4.60619 67.3538 4.57754 67.4197 4.52025C67.4864 4.46295 67.5198 4.37858 67.5198 4.26712C67.5198 4.15018 67.4845 4.06737 67.4138 4.01871C67.344 3.97004 67.2361 3.94571 67.0901 3.94571ZM68.125 5.4939V3.77265H68.3251V5.31494H69.0892V5.4939H68.125Z" fill="#383B41"/>
<circle cx="74.6819" cy="4.99391" r="1.40651" fill="#FD4D4D"/>
<path d="M78.0993 5.03592C78.0993 5.13795 78.0738 5.22507 78.0228 5.29728C77.9726 5.36871 77.9019 5.42326 77.8109 5.46093C77.7198 5.49861 77.6127 5.51744 77.4895 5.51744C77.4243 5.51744 77.3627 5.5143 77.3046 5.50802C77.2466 5.50175 77.1932 5.49272 77.1445 5.48095C77.0959 5.46917 77.0531 5.45465 77.0162 5.43738V5.24548C77.0751 5.26981 77.1469 5.29257 77.2316 5.31377C77.3164 5.33417 77.4051 5.34438 77.4977 5.34438C77.5841 5.34438 77.6571 5.333 77.7167 5.31023C77.7764 5.28669 77.8215 5.25333 77.8521 5.21016C77.8835 5.16621 77.8992 5.11362 77.8992 5.0524C77.8992 4.99353 77.8862 4.94448 77.8603 4.90523C77.8344 4.8652 77.7913 4.8291 77.7308 4.79692C77.6712 4.76395 77.5896 4.72903 77.486 4.69214C77.413 4.66624 77.3486 4.63798 77.2929 4.60737C77.2371 4.57598 77.1904 4.54066 77.1528 4.50141C77.1151 4.46217 77.0864 4.41664 77.0668 4.36484C77.048 4.31304 77.0386 4.25378 77.0386 4.18707C77.0386 4.09523 77.0617 4.01675 77.108 3.9516C77.1551 3.88567 77.2199 3.83544 77.3023 3.8009C77.3855 3.76558 77.4808 3.74792 77.5884 3.74792C77.6802 3.74792 77.765 3.75656 77.8427 3.77382C77.9212 3.79109 77.993 3.81425 78.0581 3.84329L77.9957 4.01518C77.9337 3.98927 77.8678 3.96769 77.7979 3.95042C77.7289 3.93316 77.6574 3.92452 77.5837 3.92452C77.5099 3.92452 77.4475 3.93551 77.3965 3.95749C77.3462 3.97868 77.3078 4.0089 77.2811 4.04814C77.2544 4.08738 77.2411 4.13409 77.2411 4.18824C77.2411 4.24868 77.2536 4.29891 77.2787 4.33894C77.3046 4.37897 77.3455 4.41468 77.4012 4.44608C77.4577 4.47669 77.5323 4.50887 77.6249 4.54262C77.7261 4.57951 77.8121 4.61875 77.8827 4.66035C77.9533 4.70116 78.0071 4.7514 78.044 4.81105C78.0809 4.86991 78.0993 4.94487 78.0993 5.03592ZM79.4874 4.20355V5.4939H79.3273L79.299 5.31259H79.2884C79.2617 5.35733 79.2272 5.395 79.1848 5.42561C79.1424 5.45622 79.0946 5.47898 79.0412 5.4939C78.9886 5.50959 78.9325 5.51744 78.8728 5.51744C78.7708 5.51744 78.6853 5.50096 78.6162 5.468C78.5471 5.43503 78.4949 5.38401 78.4596 5.31494C78.4251 5.24587 78.4078 5.15718 78.4078 5.04887V4.20355H78.6056V5.03474C78.6056 5.14227 78.6299 5.22272 78.6786 5.27609C78.7272 5.32868 78.8014 5.35497 78.9011 5.35497C78.9969 5.35497 79.073 5.33692 79.1295 5.30082C79.1868 5.26471 79.228 5.21173 79.2531 5.14188C79.2782 5.07124 79.2908 4.9849 79.2908 4.88286V4.20355H79.4874ZM80.0961 3.66198V4.11996C80.0961 4.17254 80.0945 4.22356 80.0914 4.27301C80.089 4.32246 80.0871 4.36092 80.0855 4.38839H80.0961C80.1314 4.33031 80.1824 4.28125 80.2491 4.24122C80.3158 4.20119 80.401 4.18118 80.5046 4.18118C80.6663 4.18118 80.795 4.2373 80.8908 4.34954C80.9873 4.46099 81.0356 4.62699 81.0356 4.84754C81.0356 4.99275 81.0136 5.11519 80.9697 5.21487C80.9257 5.31455 80.8637 5.3899 80.7836 5.44092C80.7036 5.49193 80.609 5.51744 80.4999 5.51744C80.3979 5.51744 80.3139 5.49861 80.248 5.46093C80.1828 5.42247 80.1326 5.37577 80.0973 5.32083H80.082L80.0419 5.4939H79.9006V3.66198H80.0961ZM80.4728 4.34483C80.3794 4.34483 80.3053 4.36327 80.2503 4.40016C80.1954 4.43627 80.1557 4.49121 80.1314 4.56499C80.1079 4.63798 80.0961 4.7306 80.0961 4.84284V4.85343C80.0961 5.0159 80.1232 5.14031 80.1773 5.22664C80.2315 5.3122 80.33 5.35497 80.4728 5.35497C80.5929 5.35497 80.6828 5.31102 80.7424 5.22311C80.8029 5.1352 80.8331 5.00962 80.8331 4.84637C80.8331 4.67997 80.8033 4.55478 80.7436 4.4708C80.6847 4.38682 80.5945 4.34483 80.4728 4.34483ZM82.778 4.18C82.9201 4.18 83.0272 4.21728 83.0994 4.29185C83.1716 4.36563 83.2078 4.48454 83.2078 4.64858V5.4939H83.0147V4.658C83.0147 4.55361 82.9919 4.47551 82.9464 4.42371C82.9016 4.37112 82.8349 4.34483 82.7462 4.34483C82.6214 4.34483 82.5308 4.38093 82.4743 4.45314C82.4178 4.52535 82.3895 4.6317 82.3895 4.7722V5.4939H82.1953V4.658C82.1953 4.58814 82.185 4.53006 82.1646 4.48375C82.145 4.43744 82.1152 4.40291 82.0752 4.38015C82.0359 4.3566 81.9861 4.34483 81.9256 4.34483C81.8401 4.34483 81.7714 4.36249 81.7196 4.39781C81.6678 4.43313 81.6301 4.48571 81.6066 4.55557C81.5838 4.62464 81.5724 4.7098 81.5724 4.81105V5.4939H81.377V4.20355H81.5348L81.5642 4.38603H81.5748C81.6007 4.34129 81.6333 4.30362 81.6725 4.27301C81.7118 4.2424 81.7557 4.21925 81.8044 4.20355C81.853 4.18785 81.9048 4.18 81.9598 4.18C82.0579 4.18 82.1399 4.19845 82.2058 4.23534C82.2726 4.27144 82.3208 4.32677 82.3507 4.40134H82.3613C82.4036 4.32677 82.4617 4.27144 82.5355 4.23534C82.6093 4.19845 82.6901 4.18 82.778 4.18ZM83.8047 4.20355V5.4939L83.6092 5.4939V4.20355H83.8047ZM83.7093 3.72084C83.7415 3.72084 83.7689 3.73144 83.7917 3.75263C83.8153 3.77304 83.827 3.80522 83.827 3.84917C83.827 3.89234 83.8153 3.92452 83.7917 3.94571C83.7689 3.96691 83.7415 3.9775 83.7093 3.9775C83.6755 3.9775 83.6473 3.96691 83.6245 3.94571C83.6025 3.92452 83.5916 3.89234 83.5916 3.84917C83.5916 3.80522 83.6025 3.77304 83.6245 3.75263C83.6473 3.73144 83.6755 3.72084 83.7093 3.72084ZM84.6358 5.35733C84.668 5.35733 84.701 5.35458 84.7347 5.34909C84.7685 5.34359 84.796 5.33692 84.8172 5.32907V5.48095C84.7944 5.49115 84.7626 5.49978 84.7218 5.50685C84.6818 5.51391 84.6425 5.51744 84.6041 5.51744C84.5358 5.51744 84.4738 5.50567 84.418 5.48212C84.3623 5.45779 84.3176 5.41698 84.2838 5.35968C84.2509 5.30238 84.2344 5.22311 84.2344 5.12186V4.3566H84.0507V4.26124L84.2356 4.18471L84.3133 3.90451H84.431V4.20355H84.8089V4.3566H84.431V5.11598C84.431 5.19682 84.4494 5.25725 84.4863 5.29728C84.524 5.33731 84.5738 5.35733 84.6358 5.35733ZM86.184 3.77265C86.4062 3.77265 86.5682 3.81621 86.6703 3.90333C86.7731 3.98967 86.8245 4.11368 86.8245 4.27536C86.8245 4.34836 86.8123 4.41782 86.788 4.48375C86.7645 4.5489 86.726 4.60659 86.6726 4.65682C86.6192 4.70627 86.549 4.74551 86.4619 4.77455C86.3755 4.80281 86.2696 4.81693 86.144 4.81693H85.9344V5.4939H85.7343V3.77265H86.184ZM86.1652 3.94336H85.9344V4.64504H86.1216C86.2315 4.64504 86.323 4.63327 86.3959 4.60973C86.4697 4.58618 86.5251 4.54811 86.562 4.49552C86.5988 4.44215 86.6173 4.37151 86.6173 4.28361C86.6173 4.16901 86.5808 4.08385 86.5078 4.02813C86.4348 3.97161 86.3206 3.94336 86.1652 3.94336ZM87.638 4.18236C87.7919 4.18236 87.9061 4.21689 87.9806 4.28596C88.0552 4.35503 88.0925 4.46531 88.0925 4.61679V5.4939H87.95L87.9123 5.30317H87.9029C87.8668 5.35026 87.8291 5.3899 87.7899 5.42208C87.7507 5.45347 87.7051 5.47741 87.6533 5.4939C87.6023 5.50959 87.5395 5.51744 87.465 5.51744C87.3865 5.51744 87.3166 5.50371 87.2554 5.47624C87.195 5.44877 87.1471 5.40717 87.1118 5.35144C87.0772 5.29571 87.06 5.22507 87.06 5.13952C87.06 5.0108 87.111 4.91191 87.213 4.84284C87.315 4.77377 87.4705 4.73609 87.6792 4.72981L87.9017 4.72039V4.64151C87.9017 4.53006 87.8778 4.45196 87.8299 4.40723C87.7821 4.36249 87.7146 4.34012 87.6274 4.34012C87.5599 4.34012 87.4956 4.34993 87.4344 4.36955C87.3731 4.38917 87.315 4.41233 87.2601 4.43901L87.2001 4.29067C87.2581 4.26084 87.3249 4.23534 87.4002 4.21414C87.4756 4.19295 87.5548 4.18236 87.638 4.18236ZM87.8994 4.85814L87.7028 4.86638C87.5419 4.87266 87.4285 4.89895 87.3625 4.94526C87.2966 4.99157 87.2636 5.05711 87.2636 5.14188C87.2636 5.21566 87.286 5.2702 87.3307 5.30552C87.3755 5.34084 87.4347 5.3585 87.5085 5.3585C87.6231 5.3585 87.7169 5.32672 87.7899 5.26314C87.8629 5.19957 87.8994 5.1042 87.8994 4.97705V4.85814ZM89.3298 5.1407C89.3298 5.22311 89.309 5.29257 89.2674 5.34909C89.2266 5.40481 89.1678 5.4468 89.0908 5.47506C89.0147 5.50332 88.9237 5.51744 88.8177 5.51744C88.7274 5.51744 88.6494 5.51038 88.5834 5.49625C88.5175 5.48212 88.4598 5.46211 88.4104 5.43621V5.25608C88.4629 5.28198 88.5257 5.30552 88.5987 5.32672C88.6717 5.34791 88.7463 5.3585 88.8224 5.3585C88.9339 5.3585 89.0147 5.34045 89.0649 5.30435C89.1152 5.26824 89.1403 5.21919 89.1403 5.15718C89.1403 5.12186 89.1301 5.09086 89.1097 5.06417C89.0901 5.0367 89.0567 5.01041 89.0096 4.98529C88.9625 4.95939 88.8974 4.93113 88.8142 4.90052C88.7318 4.86913 88.6603 4.83813 88.5999 4.80752C88.5403 4.77612 88.4939 4.73805 88.461 4.69332C88.4288 4.64858 88.4127 4.5905 88.4127 4.51907C88.4127 4.40997 88.4567 4.32638 88.5446 4.2683C88.6333 4.20943 88.7494 4.18 88.8931 4.18C88.9708 4.18 89.0434 4.18785 89.1109 4.20355C89.1791 4.21846 89.2427 4.23887 89.3016 4.26477L89.2357 4.42135C89.1823 4.39859 89.1254 4.37936 89.0649 4.36366C89.0045 4.34797 88.9429 4.34012 88.8801 4.34012C88.7898 4.34012 88.7204 4.35503 88.6717 4.38486C88.6238 4.41468 88.5999 4.4555 88.5999 4.5073C88.5999 4.54733 88.6109 4.58029 88.6329 4.60619C88.6556 4.63209 88.6917 4.65643 88.7412 4.67919C88.7906 4.70195 88.8558 4.72863 88.9366 4.75925C89.0175 4.78907 89.0873 4.82007 89.1462 4.85225C89.205 4.88365 89.2502 4.92211 89.2816 4.96763C89.3138 5.01237 89.3298 5.07006 89.3298 5.1407ZM90.4789 5.1407C90.4789 5.22311 90.4581 5.29257 90.4165 5.34909C90.3757 5.40481 90.3168 5.4468 90.2399 5.47506C90.1638 5.50332 90.0727 5.51744 89.9668 5.51744C89.8765 5.51744 89.7984 5.51038 89.7325 5.49625C89.6666 5.48212 89.6089 5.46211 89.5594 5.43621V5.25608C89.612 5.28198 89.6748 5.30552 89.7478 5.32672C89.8208 5.34791 89.8954 5.3585 89.9715 5.3585C90.0829 5.3585 90.1638 5.34045 90.214 5.30435C90.2642 5.26824 90.2894 5.21919 90.2894 5.15718C90.2894 5.12186 90.2792 5.09086 90.2588 5.06417C90.2391 5.0367 90.2058 5.01041 90.1587 4.98529C90.1116 4.95939 90.0464 4.93113 89.9632 4.90052C89.8808 4.86913 89.8094 4.83813 89.749 4.80752C89.6893 4.77612 89.643 4.73805 89.61 4.69332C89.5779 4.64858 89.5618 4.5905 89.5618 4.51907C89.5618 4.40997 89.6057 4.32638 89.6936 4.2683C89.7823 4.20943 89.8985 4.18 90.0421 4.18C90.1198 4.18 90.1924 4.18785 90.2599 4.20355C90.3282 4.21846 90.3918 4.23887 90.4507 4.26477L90.3847 4.42135C90.3314 4.39859 90.2745 4.37936 90.214 4.36366C90.1536 4.34797 90.092 4.34012 90.0292 4.34012C89.9389 4.34012 89.8695 4.35503 89.8208 4.38486C89.7729 4.41468 89.749 4.4555 89.749 4.5073C89.749 4.54733 89.76 4.58029 89.7819 4.60619C89.8047 4.63209 89.8408 4.65643 89.8903 4.67919C89.9397 4.70195 90.0048 4.72863 90.0857 4.75925C90.1665 4.78907 90.2364 4.82007 90.2953 4.85225C90.3541 4.88365 90.3992 4.92211 90.4306 4.96763C90.4628 5.01237 90.4789 5.07006 90.4789 5.1407ZM91.8434 5.49154L91.6139 4.74041C91.6037 4.70823 91.5938 4.67683 91.5844 4.64622C91.5758 4.61483 91.5675 4.585 91.5597 4.55675C91.5526 4.5277 91.546 4.50102 91.5397 4.47669C91.5342 4.45157 91.5295 4.42999 91.5256 4.41193H91.5173C91.5142 4.42999 91.5099 4.45157 91.5044 4.47669C91.4989 4.50102 91.4922 4.5277 91.4843 4.55675C91.4773 4.58579 91.4694 4.6164 91.4608 4.64858C91.4522 4.67997 91.4424 4.71176 91.4314 4.74394L91.1912 5.49154H90.971L90.6155 4.20119H90.818L91.004 4.91348C91.0166 4.96057 91.0283 5.00727 91.0393 5.05358C91.0511 5.0991 91.0609 5.14227 91.0688 5.18308C91.0774 5.22311 91.0837 5.25804 91.0876 5.28786H91.097C91.1017 5.26824 91.1068 5.2447 91.1123 5.21722C91.1186 5.18975 91.1253 5.16071 91.1323 5.1301C91.1402 5.09871 91.1484 5.0677 91.1571 5.03709C91.1657 5.0057 91.1743 4.97627 91.183 4.94879L91.4208 4.20119H91.6315L91.8611 4.94762C91.8729 4.98529 91.8842 5.02454 91.8952 5.06535C91.907 5.10616 91.9176 5.1458 91.927 5.18426C91.9364 5.22193 91.9431 5.25568 91.947 5.28551H91.9565C91.9596 5.25882 91.9655 5.22586 91.9741 5.18661C91.9828 5.14737 91.9926 5.1042 92.0036 5.05711C92.0153 5.01002 92.0275 4.96214 92.04 4.91348L92.2284 4.20119H92.4274L92.0707 5.49154H91.8434ZM93.7754 4.84637C93.7754 4.95233 93.7617 5.04691 93.7342 5.1301C93.7067 5.2133 93.6671 5.28355 93.6153 5.34084C93.5635 5.39814 93.5007 5.44209 93.4269 5.4727C93.3539 5.50253 93.2711 5.51744 93.1785 5.51744C93.0922 5.51744 93.0129 5.50253 92.9407 5.4727C92.8693 5.44209 92.8073 5.39814 92.7547 5.34084C92.7029 5.28355 92.6625 5.2133 92.6334 5.1301C92.6052 5.04691 92.591 4.95233 92.591 4.84637C92.591 4.70509 92.615 4.585 92.6629 4.48611C92.7107 4.38643 92.779 4.31068 92.8677 4.25888C92.9572 4.20629 93.0635 4.18 93.1868 4.18C93.3045 4.18 93.4073 4.20629 93.4952 4.25888C93.5839 4.31147 93.6526 4.3876 93.7013 4.48728C93.7507 4.58618 93.7754 4.70587 93.7754 4.84637ZM92.7935 4.84637C92.7935 4.94997 92.8073 5.03984 92.8347 5.11598C92.8622 5.19211 92.9046 5.25097 92.9619 5.29257C93.0192 5.33417 93.093 5.35497 93.1832 5.35497C93.2727 5.35497 93.3461 5.33417 93.4034 5.29257C93.4615 5.25097 93.5042 5.19211 93.5317 5.11598C93.5592 5.03984 93.5729 4.94997 93.5729 4.84637C93.5729 4.74355 93.5592 4.65486 93.5317 4.58029C93.5042 4.50494 93.4619 4.44686 93.4046 4.40605C93.3473 4.36523 93.2731 4.34483 93.1821 4.34483C93.0478 4.34483 92.9493 4.38917 92.8865 4.47786C92.8245 4.56656 92.7935 4.68939 92.7935 4.84637ZM94.6996 4.18C94.7255 4.18 94.7526 4.18157 94.7809 4.18471C94.8091 4.18707 94.8342 4.1906 94.8562 4.19531L94.8315 4.37661C94.8103 4.37112 94.7867 4.3668 94.7608 4.36366C94.7349 4.36052 94.7106 4.35895 94.6879 4.35895C94.6361 4.35895 94.587 4.36955 94.5407 4.39074C94.4952 4.41115 94.4551 4.44098 94.4206 4.48022C94.3861 4.51868 94.359 4.56538 94.3394 4.62032C94.3197 4.67448 94.3099 4.73491 94.3099 4.80163V5.4939H94.1133V4.20355H94.2758L94.297 4.44137H94.3052C94.3319 4.39349 94.3641 4.34993 94.4018 4.31068C94.4394 4.27066 94.483 4.23887 94.5324 4.21532C94.5827 4.19177 94.6384 4.18 94.6996 4.18ZM95.5591 5.51744C95.3958 5.51744 95.2663 5.46172 95.1706 5.35026C95.0756 5.23881 95.0281 5.0732 95.0281 4.85343C95.0281 4.63131 95.0768 4.46374 95.1741 4.35071C95.2714 4.23691 95.4009 4.18 95.5626 4.18C95.6309 4.18 95.6905 4.18903 95.7416 4.20708C95.7926 4.22513 95.8365 4.24946 95.8734 4.28007C95.9103 4.3099 95.9413 4.34404 95.9664 4.3825H95.9806C95.9774 4.35817 95.9743 4.32481 95.9711 4.28243C95.968 4.24004 95.9664 4.20551 95.9664 4.17882V3.66198H96.1619V5.4939H96.0041L95.9747 5.31023H95.9664C95.9421 5.34869 95.9111 5.38362 95.8734 5.41502C95.8365 5.44641 95.7922 5.47153 95.7404 5.49036C95.6894 5.50842 95.6289 5.51744 95.5591 5.51744ZM95.5897 5.35497C95.7278 5.35497 95.8255 5.31573 95.8828 5.23724C95.9401 5.15875 95.9688 5.0422 95.9688 4.88757V4.85225C95.9688 4.68821 95.9413 4.56224 95.8864 4.47433C95.8322 4.38643 95.7333 4.34247 95.5897 4.34247C95.4696 4.34247 95.3797 4.38878 95.3201 4.4814C95.2604 4.57323 95.2306 4.69881 95.2306 4.85814C95.2306 5.01669 95.26 5.13913 95.3189 5.22547C95.3786 5.3118 95.4688 5.35497 95.5897 5.35497ZM97.2285 3.77265L96.5881 5.4939H96.395L97.0366 3.77265H97.2285ZM98.4624 5.03592C98.4624 5.13795 98.4368 5.22507 98.3858 5.29728C98.3356 5.36871 98.265 5.42326 98.1739 5.46093C98.0829 5.49861 97.9757 5.51744 97.8525 5.51744C97.7874 5.51744 97.7257 5.5143 97.6677 5.50802C97.6096 5.50175 97.5562 5.49272 97.5075 5.48095C97.4589 5.46917 97.4161 5.45465 97.3792 5.43738V5.24548C97.4381 5.26981 97.5099 5.29257 97.5947 5.31377C97.6794 5.33417 97.7681 5.34438 97.8607 5.34438C97.9471 5.34438 98.0201 5.333 98.0797 5.31023C98.1394 5.28669 98.1845 5.25333 98.2151 5.21016C98.2465 5.16621 98.2622 5.11362 98.2622 5.0524C98.2622 4.99353 98.2493 4.94448 98.2234 4.90523C98.1975 4.8652 98.1543 4.8291 98.0939 4.79692C98.0342 4.76395 97.9526 4.72903 97.849 4.69214C97.776 4.66624 97.7116 4.63798 97.6559 4.60737C97.6002 4.57598 97.5535 4.54066 97.5158 4.50141C97.4781 4.46217 97.4495 4.41664 97.4298 4.36484C97.411 4.31304 97.4016 4.25378 97.4016 4.18707C97.4016 4.09523 97.4247 4.01675 97.4711 3.9516C97.5181 3.88567 97.5829 3.83544 97.6653 3.8009C97.7485 3.76558 97.8439 3.74792 97.9514 3.74792C98.0432 3.74792 98.128 3.75656 98.2057 3.77382C98.2842 3.79109 98.356 3.81425 98.4212 3.84329L98.3588 4.01518C98.2967 3.98927 98.2308 3.96769 98.161 3.95042C98.0919 3.93316 98.0205 3.92452 97.9467 3.92452C97.8729 3.92452 97.8105 3.93551 97.7595 3.95749C97.7093 3.97868 97.6708 4.0089 97.6441 4.04814C97.6174 4.08738 97.6041 4.13409 97.6041 4.18824C97.6041 4.24868 97.6166 4.29891 97.6418 4.33894C97.6677 4.37897 97.7085 4.41468 97.7642 4.44608C97.8207 4.47669 97.8953 4.50887 97.9879 4.54262C98.0891 4.57951 98.1751 4.61875 98.2457 4.66035C98.3164 4.70116 98.3701 4.7514 98.407 4.81105C98.4439 4.86991 98.4624 4.94487 98.4624 5.03592ZM99.2818 4.18C99.3917 4.18 99.4858 4.20433 99.5643 4.253C99.6428 4.30166 99.7029 4.36994 99.7445 4.45785C99.7861 4.54497 99.8069 4.64701 99.8069 4.76395V4.88522H98.9156C98.918 5.0367 98.9557 5.15208 99.0287 5.23135C99.1016 5.31063 99.2045 5.35026 99.3371 5.35026C99.4187 5.35026 99.4909 5.34281 99.5537 5.32789C99.6165 5.31298 99.6817 5.291 99.7492 5.26196V5.43385C99.684 5.46289 99.6193 5.48409 99.5549 5.49743C99.4913 5.51077 99.416 5.51744 99.3289 5.51744C99.2049 5.51744 99.0965 5.49233 99.0039 5.44209C98.9121 5.39108 98.8407 5.31651 98.7897 5.2184C98.7386 5.12029 98.7131 5.0002 98.7131 4.85814C98.7131 4.71922 98.7363 4.59913 98.7826 4.49788C98.8297 4.39584 98.8956 4.31736 98.9804 4.26241C99.0659 4.20747 99.1664 4.18 99.2818 4.18ZM99.2794 4.34012C99.175 4.34012 99.0918 4.37426 99.0298 4.44254C98.9678 4.51083 98.9309 4.60619 98.9192 4.72863H99.602C99.6012 4.65172 99.5891 4.58422 99.5655 4.52613C99.5427 4.46727 99.5078 4.42175 99.4607 4.38957C99.4136 4.3566 99.3532 4.34012 99.2794 4.34012ZM100.75 4.18C100.903 4.18 101.019 4.21768 101.097 4.29302C101.176 4.36759 101.215 4.48768 101.215 4.65329V5.4939H101.022V4.66624C101.022 4.55871 100.997 4.47826 100.948 4.42488C100.899 4.37151 100.824 4.34483 100.723 4.34483C100.58 4.34483 100.48 4.38525 100.421 4.46609C100.363 4.54693 100.334 4.66427 100.334 4.81811V5.4939H100.139V4.20355H100.297L100.326 4.38957H100.337C100.364 4.34404 100.399 4.30598 100.441 4.27536C100.484 4.24397 100.531 4.22042 100.584 4.20473C100.636 4.18824 100.692 4.18 100.75 4.18ZM102.452 5.1407C102.452 5.22311 102.432 5.29257 102.39 5.34909C102.349 5.40481 102.29 5.4468 102.213 5.47506C102.137 5.50332 102.046 5.51744 101.94 5.51744C101.85 5.51744 101.772 5.51038 101.706 5.49625C101.64 5.48212 101.582 5.46211 101.533 5.43621V5.25608C101.585 5.28198 101.648 5.30552 101.721 5.32672C101.794 5.34791 101.869 5.3585 101.945 5.3585C102.056 5.3585 102.137 5.34045 102.187 5.30435C102.238 5.26824 102.263 5.21919 102.263 5.15718C102.263 5.12186 102.253 5.09086 102.232 5.06417C102.213 5.0367 102.179 5.01041 102.132 4.98529C102.085 4.95939 102.02 4.93113 101.937 4.90052C101.854 4.86913 101.783 4.83813 101.722 4.80752C101.663 4.77612 101.616 4.73805 101.583 4.69332C101.551 4.64858 101.535 4.5905 101.535 4.51907C101.535 4.40997 101.579 4.32638 101.667 4.2683C101.756 4.20943 101.872 4.18 102.016 4.18C102.093 4.18 102.166 4.18785 102.233 4.20355C102.302 4.21846 102.365 4.23887 102.424 4.26477L102.358 4.42135C102.305 4.39859 102.248 4.37936 102.187 4.36366C102.127 4.34797 102.065 4.34012 102.003 4.34012C101.912 4.34012 101.843 4.35503 101.794 4.38486C101.746 4.41468 101.722 4.4555 101.722 4.5073C101.722 4.54733 101.733 4.58029 101.755 4.60619C101.778 4.63209 101.814 4.65643 101.864 4.67919C101.913 4.70195 101.978 4.72863 102.059 4.75925C102.14 4.78907 102.21 4.82007 102.269 4.85225C102.328 4.88365 102.373 4.92211 102.404 4.96763C102.436 5.01237 102.452 5.07006 102.452 5.1407ZM102.962 4.20355V5.4939H102.767V4.20355H102.962ZM102.867 3.72084C102.899 3.72084 102.926 3.73144 102.949 3.75263C102.973 3.77304 102.984 3.80522 102.984 3.84917C102.984 3.89234 102.973 3.92452 102.949 3.94571C102.926 3.96691 102.899 3.9775 102.867 3.9775C102.833 3.9775 102.805 3.96691 102.782 3.94571C102.76 3.92452 102.749 3.89234 102.749 3.84917C102.749 3.80522 102.76 3.77304 102.782 3.75263C102.805 3.73144 102.833 3.72084 102.867 3.72084ZM103.793 5.35733C103.825 5.35733 103.858 5.35458 103.892 5.34909C103.926 5.34359 103.953 5.33692 103.975 5.32907V5.48095C103.952 5.49115 103.92 5.49978 103.879 5.50685C103.839 5.51391 103.8 5.51744 103.762 5.51744C103.693 5.51744 103.631 5.50567 103.575 5.48212C103.52 5.45779 103.475 5.41698 103.441 5.35968C103.408 5.30238 103.392 5.22311 103.392 5.12186V4.3566H103.208V4.26124L103.393 4.18471L103.471 3.90451H103.588V4.20355H103.966V4.3566H103.588V5.11598C103.588 5.19682 103.607 5.25725 103.644 5.29728C103.681 5.33731 103.731 5.35733 103.793 5.35733ZM104.431 4.20355V5.4939H104.236V4.20355H104.431ZM104.336 3.72084C104.368 3.72084 104.396 3.73144 104.418 3.75263C104.442 3.77304 104.454 3.80522 104.454 3.84917C104.454 3.89234 104.442 3.92452 104.418 3.94571C104.396 3.96691 104.368 3.9775 104.336 3.9775C104.302 3.9775 104.274 3.96691 104.251 3.94571C104.229 3.92452 104.218 3.89234 104.218 3.84917C104.218 3.80522 104.229 3.77304 104.251 3.75263C104.274 3.73144 104.302 3.72084 104.336 3.72084ZM105.13 5.4939L104.64 4.20355H104.849L105.133 4.98411C105.153 5.03749 105.173 5.09635 105.193 5.16071C105.214 5.22507 105.228 5.27688 105.236 5.31612H105.244C105.253 5.27688 105.269 5.22507 105.291 5.16071C105.313 5.09557 105.333 5.0367 105.351 4.98411L105.635 4.20355H105.844L105.353 5.4939H105.13ZM106.548 4.18C106.658 4.18 106.752 4.20433 106.831 4.253C106.909 4.30166 106.969 4.36994 107.011 4.45785C107.053 4.54497 107.073 4.64701 107.073 4.76395V4.88522L106.182 4.88522C106.184 5.0367 106.222 5.15208 106.295 5.23135C106.368 5.31063 106.471 5.35026 106.604 5.35026C106.685 5.35026 106.757 5.34281 106.82 5.32789C106.883 5.31298 106.948 5.291 107.016 5.26196V5.43385C106.95 5.46289 106.886 5.48409 106.821 5.49743C106.758 5.51077 106.682 5.51744 106.595 5.51744C106.471 5.51744 106.363 5.49233 106.27 5.44209C106.179 5.39108 106.107 5.31651 106.056 5.2184C106.005 5.12029 105.98 5.0002 105.98 4.85814C105.98 4.71922 106.003 4.59913 106.049 4.49788C106.096 4.39584 106.162 4.31736 106.247 4.26241C106.332 4.20747 106.433 4.18 106.548 4.18ZM106.546 4.34012C106.441 4.34012 106.358 4.37426 106.296 4.44254C106.234 4.51083 106.197 4.60619 106.186 4.72863L106.868 4.72863C106.868 4.65172 106.856 4.58422 106.832 4.52613C106.809 4.46727 106.774 4.42175 106.727 4.38957C106.68 4.3566 106.62 4.34012 106.546 4.34012ZM109.428 4.61679C109.428 4.81066 109.393 4.97273 109.322 5.10302C109.251 5.23253 109.149 5.33025 109.015 5.39618C108.881 5.46132 108.719 5.4939 108.528 5.4939H108.061V3.77265L108.58 3.77265C108.755 3.77265 108.906 3.80483 109.032 3.86919C109.159 3.93276 109.256 4.02734 109.324 4.15292C109.393 4.27772 109.428 4.43234 109.428 4.61679ZM109.217 4.62385C109.217 4.46923 109.191 4.34169 109.14 4.24122C109.089 4.14076 109.013 4.06619 108.913 4.01753C108.815 3.96808 108.693 3.94336 108.55 3.94336L108.261 3.94336V5.32201H108.505C108.742 5.32201 108.92 5.26353 109.038 5.14659C109.158 5.02964 109.217 4.85539 109.217 4.62385ZM110.264 4.18236C110.418 4.18236 110.532 4.21689 110.606 4.28596C110.681 4.35503 110.718 4.46531 110.718 4.61679V5.4939H110.576L110.538 5.30317H110.529C110.493 5.35026 110.455 5.3899 110.416 5.42208C110.377 5.45347 110.331 5.47741 110.279 5.4939C110.228 5.50959 110.165 5.51744 110.091 5.51744C110.012 5.51744 109.942 5.50371 109.881 5.47624C109.821 5.44877 109.773 5.40717 109.738 5.35144C109.703 5.29571 109.686 5.22507 109.686 5.13952C109.686 5.0108 109.737 4.91191 109.839 4.84284C109.941 4.77377 110.096 4.73609 110.305 4.72981L110.528 4.72039V4.64151C110.528 4.53006 110.504 4.45196 110.456 4.40723C110.408 4.36249 110.34 4.34012 110.253 4.34012C110.186 4.34012 110.121 4.34993 110.06 4.36955C109.999 4.38917 109.941 4.41233 109.886 4.43901L109.826 4.29067C109.884 4.26084 109.951 4.23534 110.026 4.21414C110.101 4.19295 110.181 4.18236 110.264 4.18236ZM110.525 4.85814L110.329 4.86638C110.168 4.87266 110.054 4.89895 109.988 4.94526C109.922 4.99157 109.889 5.05711 109.889 5.14188C109.889 5.21566 109.912 5.2702 109.957 5.30552C110.001 5.34084 110.061 5.3585 110.134 5.3585C110.249 5.3585 110.343 5.32672 110.416 5.26314C110.489 5.19957 110.525 5.1042 110.525 4.97705V4.85814ZM111.538 5.35733C111.57 5.35733 111.603 5.35458 111.637 5.34909C111.67 5.34359 111.698 5.33692 111.719 5.32907V5.48095C111.696 5.49115 111.664 5.49978 111.624 5.50685C111.584 5.51391 111.544 5.51744 111.506 5.51744C111.438 5.51744 111.376 5.50567 111.32 5.48212C111.264 5.45779 111.219 5.41698 111.186 5.35968C111.153 5.30238 111.136 5.22311 111.136 5.12186V4.3566H110.953V4.26124L111.137 4.18471L111.215 3.90451H111.333V4.20355H111.711V4.3566H111.333V5.11598C111.333 5.19682 111.351 5.25725 111.388 5.29728C111.426 5.33731 111.476 5.35733 111.538 5.35733ZM112.463 4.18236C112.617 4.18236 112.731 4.21689 112.806 4.28596C112.88 4.35503 112.918 4.46531 112.918 4.61679V5.4939H112.775L112.737 5.30317H112.728C112.692 5.35026 112.654 5.3899 112.615 5.42208C112.576 5.45347 112.53 5.47741 112.478 5.4939C112.427 5.50959 112.365 5.51744 112.29 5.51744C112.212 5.51744 112.142 5.50371 112.08 5.47624C112.02 5.44877 111.972 5.40717 111.937 5.35144C111.902 5.29571 111.885 5.22507 111.885 5.13952C111.885 5.0108 111.936 4.91191 112.038 4.84284C112.14 4.77377 112.296 4.73609 112.504 4.72981L112.727 4.72039V4.64151C112.727 4.53006 112.703 4.45196 112.655 4.40723C112.607 4.36249 112.54 4.34012 112.453 4.34012C112.385 4.34012 112.321 4.34993 112.259 4.36955C112.198 4.38917 112.14 4.41233 112.085 4.43901L112.025 4.29067C112.083 4.26084 112.15 4.23534 112.225 4.21414C112.301 4.19295 112.38 4.18236 112.463 4.18236ZM112.724 4.85814L112.528 4.86638C112.367 4.87266 112.254 4.89895 112.188 4.94526C112.122 4.99157 112.089 5.05711 112.089 5.14188C112.089 5.21566 112.111 5.2702 112.156 5.30552C112.201 5.34084 112.26 5.3585 112.334 5.3585C112.448 5.3585 112.542 5.32672 112.615 5.26314C112.688 5.19957 112.724 5.1042 112.724 4.97705V4.85814Z" fill="#383B41"/>
<circle cx="118.514" cy="4.99391" r="1.40651" fill="#B83A3A"/>
<path d="M121.931 5.03592C121.931 5.13795 121.906 5.22507 121.855 5.29728C121.805 5.36871 121.734 5.42326 121.643 5.46093C121.552 5.49861 121.445 5.51744 121.322 5.51744C121.256 5.51744 121.195 5.5143 121.137 5.50802C121.079 5.50175 121.025 5.49272 120.977 5.48095C120.928 5.46917 120.885 5.45465 120.848 5.43738V5.24548C120.907 5.26981 120.979 5.29257 121.064 5.31377C121.148 5.33417 121.237 5.34438 121.33 5.34438C121.416 5.34438 121.489 5.333 121.549 5.31023C121.608 5.28669 121.654 5.25333 121.684 5.21016C121.716 5.16621 121.731 5.11362 121.731 5.0524C121.731 4.99353 121.718 4.94448 121.692 4.90523C121.666 4.8652 121.623 4.8291 121.563 4.79692C121.503 4.76395 121.422 4.72903 121.318 4.69214C121.245 4.66624 121.181 4.63798 121.125 4.60737C121.069 4.57598 121.022 4.54066 120.985 4.50141C120.947 4.46217 120.918 4.41664 120.899 4.36484C120.88 4.31304 120.871 4.25378 120.871 4.18707C120.871 4.09523 120.894 4.01675 120.94 3.9516C120.987 3.88567 121.052 3.83544 121.134 3.8009C121.218 3.76558 121.313 3.74792 121.42 3.74792C121.512 3.74792 121.597 3.75656 121.675 3.77382C121.753 3.79109 121.825 3.81425 121.89 3.84329L121.828 4.01518C121.766 3.98927 121.7 3.96769 121.63 3.95042C121.561 3.93316 121.489 3.92452 121.416 3.92452C121.342 3.92452 121.28 3.93551 121.229 3.95749C121.178 3.97868 121.14 4.0089 121.113 4.04814C121.086 4.08738 121.073 4.13409 121.073 4.18824C121.073 4.24868 121.086 4.29891 121.111 4.33894C121.137 4.37897 121.177 4.41468 121.233 4.44608C121.29 4.47669 121.364 4.50887 121.457 4.54262C121.558 4.57951 121.644 4.61875 121.715 4.66035C121.785 4.70116 121.839 4.7514 121.876 4.81105C121.913 4.86991 121.931 4.94487 121.931 5.03592ZM123.319 4.20355V5.4939H123.159L123.131 5.31259H123.12C123.094 5.35733 123.059 5.395 123.017 5.42561C122.974 5.45622 122.927 5.47898 122.873 5.4939C122.821 5.50959 122.765 5.51744 122.705 5.51744C122.603 5.51744 122.517 5.50096 122.448 5.468C122.379 5.43503 122.327 5.38401 122.292 5.31494C122.257 5.24587 122.24 5.15718 122.24 5.04887V4.20355H122.438V5.03474C122.438 5.14227 122.462 5.22272 122.511 5.27609C122.559 5.32868 122.633 5.35497 122.733 5.35497C122.829 5.35497 122.905 5.33692 122.962 5.30082C123.019 5.26471 123.06 5.21173 123.085 5.14188C123.11 5.07124 123.123 4.9849 123.123 4.88286V4.20355H123.319ZM123.928 3.66198V4.11996C123.928 4.17254 123.927 4.22356 123.923 4.27301C123.921 4.32246 123.919 4.36092 123.918 4.38839H123.928C123.963 4.33031 124.014 4.28125 124.081 4.24122C124.148 4.20119 124.233 4.18118 124.337 4.18118C124.498 4.18118 124.627 4.2373 124.723 4.34954C124.819 4.46099 124.868 4.62699 124.868 4.84754C124.868 4.99275 124.846 5.11519 124.802 5.21487C124.758 5.31455 124.696 5.3899 124.616 5.44092C124.536 5.49193 124.441 5.51744 124.332 5.51744C124.23 5.51744 124.146 5.49861 124.08 5.46093C124.015 5.42247 123.965 5.37577 123.929 5.32083H123.914L123.874 5.4939H123.733V3.66198H123.928ZM124.305 4.34483C124.211 4.34483 124.137 4.36327 124.082 4.40016C124.027 4.43627 123.988 4.49121 123.963 4.56499C123.94 4.63798 123.928 4.7306 123.928 4.84284V4.85343C123.928 5.0159 123.955 5.14031 124.009 5.22664C124.064 5.3122 124.162 5.35497 124.305 5.35497C124.425 5.35497 124.515 5.31102 124.574 5.22311C124.635 5.1352 124.665 5.00962 124.665 4.84637C124.665 4.67997 124.635 4.55478 124.576 4.4708C124.517 4.38682 124.427 4.34483 124.305 4.34483ZM126.61 4.18C126.752 4.18 126.859 4.21728 126.931 4.29185C127.004 4.36563 127.04 4.48454 127.04 4.64858V5.4939H126.847V4.658C126.847 4.55361 126.824 4.47551 126.778 4.42371C126.734 4.37112 126.667 4.34483 126.578 4.34483C126.453 4.34483 126.363 4.38093 126.306 4.45314C126.25 4.52535 126.222 4.6317 126.222 4.7722V5.4939H126.027V4.658C126.027 4.58814 126.017 4.53006 125.997 4.48375C125.977 4.43744 125.947 4.40291 125.907 4.38015C125.868 4.3566 125.818 4.34483 125.758 4.34483C125.672 4.34483 125.603 4.36249 125.552 4.39781C125.5 4.43313 125.462 4.48571 125.439 4.55557C125.416 4.62464 125.404 4.7098 125.404 4.81105V5.4939H125.209V4.20355H125.367L125.396 4.38603H125.407C125.433 4.34129 125.465 4.30362 125.505 4.27301C125.544 4.2424 125.588 4.21925 125.636 4.20355C125.685 4.18785 125.737 4.18 125.792 4.18C125.89 4.18 125.972 4.19845 126.038 4.23534C126.105 4.27144 126.153 4.32677 126.183 4.40134H126.193C126.236 4.32677 126.294 4.27144 126.368 4.23534C126.441 4.19845 126.522 4.18 126.61 4.18ZM127.637 4.20355V5.4939L127.441 5.4939V4.20355H127.637ZM127.541 3.72084C127.574 3.72084 127.601 3.73144 127.624 3.75263C127.647 3.77304 127.659 3.80522 127.659 3.84917C127.659 3.89234 127.647 3.92452 127.624 3.94571C127.601 3.96691 127.574 3.9775 127.541 3.9775C127.508 3.9775 127.479 3.96691 127.457 3.94571C127.435 3.92452 127.424 3.89234 127.424 3.84917C127.424 3.80522 127.435 3.77304 127.457 3.75263C127.479 3.73144 127.508 3.72084 127.541 3.72084ZM128.468 5.35733C128.5 5.35733 128.533 5.35458 128.567 5.34909C128.601 5.34359 128.628 5.33692 128.649 5.32907V5.48095C128.626 5.49115 128.595 5.49978 128.554 5.50685C128.514 5.51391 128.475 5.51744 128.436 5.51744C128.368 5.51744 128.306 5.50567 128.25 5.48212C128.194 5.45779 128.15 5.41698 128.116 5.35968C128.083 5.30238 128.066 5.22311 128.066 5.12186V4.3566H127.883V4.26124L128.068 4.18471L128.145 3.90451H128.263V4.20355H128.641V4.3566H128.263V5.11598C128.263 5.19682 128.281 5.25725 128.318 5.29728C128.356 5.33731 128.406 5.35733 128.468 5.35733ZM130.323 5.4939L129.745 3.97044H129.736C129.739 4.00262 129.742 4.04186 129.744 4.08817C129.746 4.13448 129.748 4.1851 129.75 4.24004C129.752 4.2942 129.752 4.34954 129.752 4.40605V5.4939H129.566V3.77265H129.863L130.408 5.20427H130.416L130.97 3.77265H131.264V5.4939H131.066V4.39192C131.066 4.3409 131.067 4.28988 131.069 4.23887C131.07 4.18707 131.072 4.1384 131.074 4.09288C131.077 4.04657 131.079 4.00654 131.082 3.97279H131.072L130.487 5.4939H130.323ZM131.935 5.4939H131.735V3.77265H132.693V3.94925H131.935V4.58029H132.647V4.75571H131.935V5.4939ZM134.06 5.4939L133.848 4.94762H133.158L132.948 5.4939H132.745L133.419 3.76558H133.599L134.267 5.4939H134.06ZM133.788 4.76984L133.587 4.22709C133.582 4.21297 133.574 4.18981 133.563 4.15763C133.553 4.12545 133.543 4.09209 133.532 4.05756C133.521 4.02302 133.512 3.99516 133.504 3.97397C133.497 4.00615 133.488 4.03833 133.479 4.07051C133.47 4.10191 133.461 4.13134 133.453 4.15881C133.444 4.1855 133.437 4.20826 133.43 4.22709L133.225 4.76984H133.788ZM135.869 3.92452C135.774 3.92452 135.688 3.941 135.612 3.97397C135.537 4.00615 135.472 4.05324 135.419 4.11525C135.366 4.17647 135.326 4.25064 135.298 4.33776C135.269 4.42488 135.255 4.523 135.255 4.63209C135.255 4.77651 135.278 4.90209 135.322 5.00884C135.368 5.1148 135.435 5.19682 135.525 5.2549C135.615 5.31298 135.728 5.34202 135.863 5.34202C135.94 5.34202 136.012 5.33574 136.079 5.32318C136.148 5.30984 136.214 5.29336 136.278 5.27374V5.44798C136.215 5.47153 136.15 5.48879 136.08 5.49978C136.011 5.51156 135.929 5.51744 135.834 5.51744C135.659 5.51744 135.513 5.48134 135.395 5.40913C135.278 5.33613 135.19 5.23332 135.132 5.10067C135.073 4.96802 135.044 4.81144 135.044 4.63092C135.044 4.50063 135.062 4.38172 135.099 4.27419C135.135 4.16587 135.189 4.07247 135.259 3.99398C135.329 3.9155 135.416 3.85506 135.518 3.81268C135.621 3.76951 135.738 3.74792 135.871 3.74792C135.958 3.74792 136.042 3.75656 136.123 3.77382C136.204 3.79109 136.277 3.81582 136.342 3.848L136.262 4.01753C136.207 3.99241 136.146 3.97083 136.08 3.95278C136.015 3.93394 135.945 3.92452 135.869 3.92452ZM137.735 4.84637C137.735 4.95233 137.721 5.04691 137.693 5.1301C137.666 5.2133 137.626 5.28355 137.574 5.34084C137.523 5.39814 137.46 5.44209 137.386 5.4727C137.313 5.50253 137.23 5.51744 137.138 5.51744C137.051 5.51744 136.972 5.50253 136.9 5.4727C136.828 5.44209 136.766 5.39814 136.714 5.34084C136.662 5.28355 136.622 5.2133 136.593 5.1301C136.564 5.04691 136.55 4.95233 136.55 4.84637C136.55 4.70509 136.574 4.585 136.622 4.48611C136.67 4.38643 136.738 4.31068 136.827 4.25888C136.916 4.20629 137.023 4.18 137.146 4.18C137.264 4.18 137.366 4.20629 137.454 4.25888C137.543 4.31147 137.612 4.3876 137.66 4.48728C137.71 4.58618 137.735 4.70587 137.735 4.84637ZM136.753 4.84637C136.753 4.94997 136.766 5.03984 136.794 5.11598C136.821 5.19211 136.864 5.25097 136.921 5.29257C136.978 5.33417 137.052 5.35497 137.142 5.35497C137.232 5.35497 137.305 5.33417 137.363 5.29257C137.421 5.25097 137.463 5.19211 137.491 5.11598C137.518 5.03984 137.532 4.94997 137.532 4.84637C137.532 4.74355 137.518 4.65486 137.491 4.58029C137.463 4.50494 137.421 4.44686 137.364 4.40605C137.306 4.36523 137.232 4.34483 137.141 4.34483C137.007 4.34483 136.909 4.38917 136.846 4.47786C136.784 4.56656 136.753 4.68939 136.753 4.84637ZM138.532 5.51744C138.368 5.51744 138.239 5.46172 138.143 5.35026C138.048 5.23881 138.001 5.0732 138.001 4.85343C138.001 4.63131 138.049 4.46374 138.147 4.35071C138.244 4.23691 138.374 4.18 138.535 4.18C138.603 4.18 138.663 4.18903 138.714 4.20708C138.765 4.22513 138.809 4.24946 138.846 4.28007C138.883 4.3099 138.914 4.34404 138.939 4.3825H138.953C138.95 4.35817 138.947 4.32481 138.944 4.28243C138.941 4.24004 138.939 4.20551 138.939 4.17882V3.66198H139.134V5.4939H138.977L138.947 5.31023H138.939C138.915 5.34869 138.884 5.38362 138.846 5.41502C138.809 5.44641 138.765 5.47153 138.713 5.49036C138.662 5.50842 138.602 5.51744 138.532 5.51744ZM138.562 5.35497C138.7 5.35497 138.798 5.31573 138.855 5.23724C138.913 5.15875 138.941 5.0422 138.941 4.88757V4.85225C138.941 4.68821 138.914 4.56224 138.859 4.47433C138.805 4.38643 138.706 4.34247 138.562 4.34247C138.442 4.34247 138.352 4.38878 138.293 4.4814C138.233 4.57323 138.203 4.69881 138.203 4.85814C138.203 5.01669 138.233 5.13913 138.291 5.22547C138.351 5.3118 138.441 5.35497 138.562 5.35497ZM140.046 4.18C140.156 4.18 140.25 4.20433 140.328 4.253C140.407 4.30166 140.467 4.36994 140.508 4.45785C140.55 4.54497 140.571 4.64701 140.571 4.76395V4.88522H139.68C139.682 5.0367 139.72 5.15208 139.793 5.23135C139.866 5.31063 139.968 5.35026 140.101 5.35026C140.183 5.35026 140.255 5.34281 140.318 5.32789C140.38 5.31298 140.446 5.291 140.513 5.26196V5.43385C140.448 5.46289 140.383 5.48409 140.319 5.49743C140.255 5.51077 140.18 5.51744 140.093 5.51744C139.969 5.51744 139.86 5.49233 139.768 5.44209C139.676 5.39108 139.605 5.31651 139.554 5.2184C139.503 5.12029 139.477 5.0002 139.477 4.85814C139.477 4.71922 139.5 4.59913 139.547 4.49788C139.594 4.39584 139.66 4.31736 139.744 4.26241C139.83 4.20747 139.93 4.18 140.046 4.18ZM140.043 4.34012C139.939 4.34012 139.856 4.37426 139.794 4.44254C139.732 4.51083 139.695 4.60619 139.683 4.72863H140.366C140.365 4.65172 140.353 4.58422 140.329 4.52613C140.307 4.46727 140.272 4.42175 140.225 4.38957C140.178 4.3566 140.117 4.34012 140.043 4.34012Z" fill="#383B41"/>
<circle cx="145.346" cy="4.99391" r="1.40651" fill="#801717"/>
<path d="M149.285 4.63092C149.285 4.76356 149.268 4.88443 149.234 4.99353C149.201 5.10185 149.15 5.19525 149.084 5.27374C149.018 5.35144 148.936 5.41148 148.838 5.45387C148.739 5.49625 148.626 5.51744 148.496 5.51744C148.363 5.51744 148.246 5.49625 148.146 5.45387C148.048 5.41148 147.965 5.35105 147.899 5.27256C147.834 5.19407 147.785 5.10028 147.752 4.99118C147.72 4.88208 147.704 4.76121 147.704 4.62856C147.704 4.45275 147.733 4.29852 147.791 4.16587C147.849 4.03323 147.937 3.93002 148.055 3.85624C148.173 3.78246 148.322 3.74557 148.5 3.74557C148.67 3.74557 148.813 3.78207 148.929 3.85506C149.046 3.92805 149.135 4.03087 149.194 4.16352C149.255 4.29538 149.285 4.45118 149.285 4.63092ZM147.915 4.63092C147.915 4.77691 147.935 4.90327 147.977 5.01002C148.019 5.11676 148.082 5.19917 148.168 5.25725C148.254 5.31534 148.364 5.34438 148.496 5.34438C148.63 5.34438 148.739 5.31534 148.823 5.25725C148.909 5.19917 148.972 5.11676 149.013 5.01002C149.054 4.90327 149.074 4.77691 149.074 4.63092C149.074 4.40879 149.028 4.23534 148.934 4.11054C148.841 3.98496 148.697 3.92217 148.5 3.92217C148.366 3.92217 148.256 3.95082 148.17 4.00811C148.084 4.06541 148.019 4.14704 147.977 4.253C147.935 4.35817 147.915 4.48414 147.915 4.63092ZM150.246 4.18C150.407 4.18 150.535 4.23534 150.631 4.346C150.726 4.45667 150.774 4.62307 150.774 4.84519C150.774 4.99196 150.752 5.11519 150.708 5.21487C150.664 5.31455 150.602 5.3899 150.522 5.44092C150.443 5.49193 150.349 5.51744 150.241 5.51744C150.173 5.51744 150.113 5.50842 150.061 5.49036C150.009 5.47231 149.965 5.44798 149.928 5.41737C149.891 5.38676 149.86 5.3534 149.836 5.3173H149.822C149.824 5.34791 149.827 5.3848 149.83 5.42797C149.834 5.47113 149.836 5.50881 149.836 5.54099V6.07079H149.639V4.20355H149.801L149.827 4.39427H149.836C149.861 4.35503 149.892 4.31932 149.928 4.28714C149.964 4.25417 150.008 4.22827 150.06 4.20943C150.112 4.18981 150.174 4.18 150.246 4.18ZM150.212 4.34483C150.122 4.34483 150.05 4.36209 149.995 4.39663C149.941 4.43116 149.901 4.48297 149.876 4.55204C149.851 4.62032 149.838 4.70627 149.836 4.80987V4.84754C149.836 4.95664 149.848 5.04887 149.871 5.12422C149.896 5.19957 149.935 5.25686 149.99 5.29611C150.046 5.33535 150.12 5.35497 150.214 5.35497C150.294 5.35497 150.361 5.33339 150.414 5.29022C150.467 5.24705 150.507 5.18701 150.533 5.11009C150.56 5.03238 150.573 4.9433 150.573 4.84284C150.573 4.69057 150.543 4.5697 150.483 4.48022C150.425 4.38996 150.334 4.34483 150.212 4.34483ZM151.613 4.18C151.722 4.18 151.817 4.20433 151.895 4.253C151.974 4.30166 152.034 4.36994 152.075 4.45785C152.117 4.54497 152.138 4.64701 152.138 4.76395V4.88522H151.246C151.249 5.0367 151.286 5.15208 151.359 5.23135C151.432 5.31063 151.535 5.35026 151.668 5.35026C151.749 5.35026 151.822 5.34281 151.884 5.32789C151.947 5.31298 152.012 5.291 152.08 5.26196V5.43385C152.015 5.46289 151.95 5.48409 151.886 5.49743C151.822 5.51077 151.747 5.51744 151.66 5.51744C151.536 5.51744 151.427 5.49233 151.335 5.44209C151.243 5.39108 151.171 5.31651 151.12 5.2184C151.069 5.12029 151.044 5.0002 151.044 4.85814C151.044 4.71922 151.067 4.59913 151.113 4.49788C151.16 4.39584 151.226 4.31736 151.311 4.26241C151.397 4.20747 151.497 4.18 151.613 4.18ZM151.61 4.34012C151.506 4.34012 151.423 4.37426 151.361 4.44254C151.299 4.51083 151.262 4.60619 151.25 4.72863H151.933C151.932 4.65172 151.92 4.58422 151.896 4.52613C151.874 4.46727 151.839 4.42175 151.791 4.38957C151.744 4.3566 151.684 4.34012 151.61 4.34012ZM153.081 4.18C153.234 4.18 153.349 4.21768 153.428 4.29302C153.506 4.36759 153.546 4.48768 153.546 4.65329V5.4939H153.353V4.66624C153.353 4.55871 153.328 4.47826 153.278 4.42488C153.23 4.37151 153.155 4.34483 153.054 4.34483C152.911 4.34483 152.81 4.38525 152.752 4.46609C152.694 4.54693 152.665 4.66427 152.665 4.81811V5.4939H152.47V4.20355H152.627L152.657 4.38957H152.667C152.695 4.34404 152.73 4.30598 152.772 4.27536C152.815 4.24397 152.862 4.22042 152.915 4.20473C152.967 4.18824 153.023 4.18 153.081 4.18ZM155.684 5.4939L155.472 4.94762L154.782 4.94762L154.571 5.4939L154.369 5.4939L155.042 3.76558H155.222L155.891 5.4939H155.684ZM155.412 4.76984L155.21 4.22709C155.206 4.21297 155.198 4.18981 155.187 4.15763C155.177 4.12545 155.166 4.09209 155.155 4.05756C155.144 4.02302 155.135 3.99516 155.128 3.97397C155.12 4.00615 155.112 4.03833 155.102 4.07051C155.093 4.10191 155.085 4.13134 155.076 4.15881C155.068 4.1855 155.06 4.20826 155.054 4.22709L154.849 4.76984L155.412 4.76984ZM156.517 5.35733C156.549 5.35733 156.582 5.35458 156.616 5.34909C156.65 5.34359 156.677 5.33692 156.699 5.32907V5.48095C156.676 5.49115 156.644 5.49978 156.603 5.50685C156.563 5.51391 156.524 5.51744 156.485 5.51744C156.417 5.51744 156.355 5.50567 156.299 5.48212C156.244 5.45779 156.199 5.41698 156.165 5.35968C156.132 5.30238 156.116 5.22311 156.116 5.12186V4.3566H155.932V4.26124L156.117 4.18471L156.195 3.90451H156.312V4.20355H156.69V4.3566H156.312V5.11598C156.312 5.19682 156.331 5.25725 156.368 5.29728C156.405 5.33731 156.455 5.35733 156.517 5.35733ZM157.377 5.35733C157.409 5.35733 157.442 5.35458 157.476 5.34909C157.509 5.34359 157.537 5.33692 157.558 5.32907V5.48095C157.535 5.49115 157.503 5.49978 157.463 5.50685C157.423 5.51391 157.383 5.51744 157.345 5.51744C157.277 5.51744 157.215 5.50567 157.159 5.48212C157.103 5.45779 157.058 5.41698 157.025 5.35968C156.992 5.30238 156.975 5.22311 156.975 5.12186V4.3566H156.792V4.26124L156.976 4.18471L157.054 3.90451H157.172V4.20355H157.55V4.3566H157.172V5.11598C157.172 5.19682 157.19 5.25725 157.227 5.29728C157.265 5.33731 157.315 5.35733 157.377 5.35733ZM158.302 4.18236C158.456 4.18236 158.57 4.21689 158.645 4.28596C158.719 4.35503 158.757 4.46531 158.757 4.61679V5.4939H158.614L158.576 5.30317H158.567C158.531 5.35026 158.493 5.3899 158.454 5.42208C158.415 5.45347 158.369 5.47741 158.317 5.4939C158.266 5.50959 158.204 5.51744 158.129 5.51744C158.051 5.51744 157.981 5.50371 157.919 5.47624C157.859 5.44877 157.811 5.40717 157.776 5.35144C157.741 5.29571 157.724 5.22507 157.724 5.13952C157.724 5.0108 157.775 4.91191 157.877 4.84284C157.979 4.77377 158.135 4.73609 158.343 4.72981L158.566 4.72039V4.64151C158.566 4.53006 158.542 4.45196 158.494 4.40723C158.446 4.36249 158.379 4.34012 158.291 4.34012C158.224 4.34012 158.16 4.34993 158.098 4.36955C158.037 4.38917 157.979 4.41233 157.924 4.43901L157.864 4.29067C157.922 4.26084 157.989 4.23534 158.064 4.21414C158.14 4.19295 158.219 4.18236 158.302 4.18236ZM158.563 4.85814L158.367 4.86638C158.206 4.87266 158.093 4.89895 158.027 4.94526C157.961 4.99157 157.928 5.05711 157.928 5.14188C157.928 5.21566 157.95 5.2702 157.995 5.30552C158.04 5.34084 158.099 5.3585 158.173 5.3585C158.287 5.3585 158.381 5.32672 158.454 5.26314C158.527 5.19957 158.563 5.1042 158.563 4.97705V4.85814ZM159.676 5.51744C159.56 5.51744 159.457 5.4935 159.369 5.44563C159.28 5.39775 159.211 5.32475 159.162 5.22664C159.112 5.12853 159.087 5.00491 159.087 4.85579C159.087 4.69959 159.113 4.57205 159.165 4.47316C159.218 4.37348 159.29 4.2997 159.382 4.25182C159.474 4.20394 159.578 4.18 159.695 4.18C159.759 4.18 159.821 4.18667 159.881 4.20002C159.941 4.21257 159.991 4.22866 160.029 4.24829L159.97 4.41193C159.931 4.39624 159.886 4.38211 159.834 4.36955C159.783 4.35699 159.735 4.35071 159.69 4.35071C159.601 4.35071 159.526 4.36994 159.466 4.4084C159.408 4.44686 159.363 4.50337 159.333 4.57794C159.304 4.6525 159.29 4.74433 159.29 4.85343C159.29 4.95782 159.304 5.04691 159.332 5.12068C159.361 5.19446 159.404 5.25097 159.461 5.29022C159.518 5.32868 159.589 5.34791 159.675 5.34791C159.743 5.34791 159.805 5.34084 159.86 5.32672C159.915 5.3118 159.964 5.29454 160.009 5.27491V5.44916C159.966 5.47113 159.918 5.48801 159.864 5.49978C159.812 5.51156 159.749 5.51744 159.676 5.51744ZM160.511 3.66198V4.20943C160.511 4.24083 160.51 4.27262 160.508 4.3048C160.507 4.33619 160.504 4.36523 160.5 4.39192H160.513C160.54 4.3464 160.574 4.30833 160.614 4.27772C160.656 4.24632 160.703 4.22278 160.756 4.20708C160.808 4.1906 160.864 4.18236 160.923 4.18236C161.026 4.18236 161.113 4.19884 161.182 4.2318C161.252 4.26477 161.304 4.31579 161.338 4.38486C161.374 4.45393 161.391 4.5434 161.391 4.65329V5.4939H161.198V4.66624C161.198 4.55871 161.174 4.47826 161.124 4.42488C161.075 4.37151 161.001 4.34483 160.899 4.34483C160.804 4.34483 160.727 4.36327 160.67 4.40016C160.613 4.43627 160.572 4.48964 160.547 4.56028C160.523 4.63092 160.511 4.71725 160.511 4.81929V5.4939H160.315V3.66198H160.511ZM163.195 4.18C163.337 4.18 163.444 4.21728 163.516 4.29185C163.589 4.36563 163.625 4.48454 163.625 4.64858V5.4939H163.432V4.658C163.432 4.55361 163.409 4.47551 163.363 4.42371C163.319 4.37112 163.252 4.34483 163.163 4.34483C163.038 4.34483 162.948 4.38093 162.891 4.45314C162.835 4.52535 162.807 4.6317 162.807 4.7722V5.4939L162.612 5.4939V4.658C162.612 4.58814 162.602 4.53006 162.582 4.48375C162.562 4.43744 162.532 4.40291 162.492 4.38015C162.453 4.3566 162.403 4.34483 162.343 4.34483C162.257 4.34483 162.188 4.36249 162.137 4.39781C162.085 4.43313 162.047 4.48571 162.024 4.55557C162.001 4.62464 161.989 4.7098 161.989 4.81105V5.4939H161.794V4.20355H161.952L161.981 4.38603H161.992C162.018 4.34129 162.05 4.30362 162.09 4.27301C162.129 4.2424 162.173 4.21925 162.221 4.20355C162.27 4.18785 162.322 4.18 162.377 4.18C162.475 4.18 162.557 4.19845 162.623 4.23534C162.69 4.27144 162.738 4.32677 162.768 4.40134H162.778C162.821 4.32677 162.879 4.27144 162.953 4.23534C163.026 4.19845 163.107 4.18 163.195 4.18ZM164.523 4.18C164.633 4.18 164.727 4.20433 164.806 4.253C164.884 4.30166 164.944 4.36994 164.986 4.45785C165.027 4.54497 165.048 4.64701 165.048 4.76395V4.88522H164.157C164.159 5.0367 164.197 5.15208 164.27 5.23135C164.343 5.31063 164.446 5.35026 164.578 5.35026C164.66 5.35026 164.732 5.34281 164.795 5.32789C164.858 5.31298 164.923 5.291 164.99 5.26196V5.43385C164.925 5.46289 164.861 5.48409 164.796 5.49743C164.733 5.51077 164.657 5.51744 164.57 5.51744C164.446 5.51744 164.338 5.49233 164.245 5.44209C164.153 5.39108 164.082 5.31651 164.031 5.2184C163.98 5.12029 163.954 5.0002 163.954 4.85814C163.954 4.71922 163.978 4.59913 164.024 4.49788C164.071 4.39584 164.137 4.31736 164.222 4.26241C164.307 4.20747 164.408 4.18 164.523 4.18ZM164.521 4.34012C164.416 4.34012 164.333 4.37426 164.271 4.44254C164.209 4.51083 164.172 4.60619 164.16 4.72863H164.843C164.843 4.65172 164.83 4.58422 164.807 4.52613C164.784 4.46727 164.749 4.42175 164.702 4.38957C164.655 4.3566 164.595 4.34012 164.521 4.34012ZM165.991 4.18C166.144 4.18 166.26 4.21768 166.339 4.29302C166.417 4.36759 166.456 4.48768 166.456 4.65329V5.4939H166.263V4.66624C166.263 4.55871 166.238 4.47826 166.189 4.42488C166.14 4.37151 166.065 4.34483 165.964 4.34483C165.821 4.34483 165.721 4.38525 165.663 4.46609C165.605 4.54693 165.576 4.66427 165.576 4.81811V5.4939L165.38 5.4939V4.20355H165.538L165.567 4.38957H165.578C165.605 4.34404 165.64 4.30598 165.683 4.27536C165.725 4.24397 165.773 4.22042 165.825 4.20473C165.878 4.18824 165.933 4.18 165.991 4.18ZM167.276 5.35733C167.308 5.35733 167.341 5.35458 167.375 5.34909C167.408 5.34359 167.436 5.33692 167.457 5.32907V5.48095C167.434 5.49115 167.402 5.49978 167.362 5.50685C167.322 5.51391 167.282 5.51744 167.244 5.51744C167.176 5.51744 167.114 5.50567 167.058 5.48212C167.002 5.45779 166.957 5.41698 166.924 5.35968C166.891 5.30238 166.874 5.22311 166.874 5.12186V4.3566H166.691V4.26124L166.875 4.18471L166.953 3.90451H167.071V4.20355H167.449V4.3566H167.071V5.11598C167.071 5.19682 167.089 5.25725 167.126 5.29728C167.164 5.33731 167.214 5.35733 167.276 5.35733Z" fill="#383B41"/>
<rect width="209.57" height="50.6344" transform="translate(3.21484 9.70874)" fill="white"/>
<rect x="17.6816" y="47.283" width="193.496" height="0.40186" fill="#757575"/>
<rect x="17.6816" y="40.4512" width="193.496" height="0.40186" fill="#F2F2F2"/>
<rect x="17.6816" y="33.6199" width="193.496" height="0.40186" fill="#F2F2F2"/>
<rect x="17.6816" y="26.7878" width="193.496" height="0.40186" fill="#F2F2F2"/>
<rect x="17.6816" y="19.9558" width="193.496" height="0.40186" fill="#F2F2F2"/>
<rect x="17.6816" y="13.1245" width="193.496" height="0.40186" fill="#F2F2F2"/>
<path d="M13.1849 20.7521H12.9294V21.1477H12.7422V20.7521H11.9051V20.5814L12.7222 19.417H12.9294V20.5743H13.1849V20.7521ZM12.7422 20.5743V20.0022C12.7422 19.8899 12.7461 19.7632 12.754 19.6219H12.7446C12.7069 19.6972 12.6716 19.7596 12.6386 19.8091L12.1006 20.5743H12.7422ZM14.4929 20.2847C14.4929 20.5822 14.4458 20.8043 14.3516 20.9511C14.2582 21.0979 14.115 21.1713 13.9219 21.1713C13.7366 21.1713 13.5958 21.0963 13.4992 20.9464C13.4027 20.7957 13.3544 20.5751 13.3544 20.2847C13.3544 19.9849 13.4011 19.7624 13.4945 19.6172C13.5879 19.472 13.7304 19.3994 13.9219 19.3994C14.1087 19.3994 14.2503 19.4751 14.3469 19.6266C14.4442 19.7781 14.4929 19.9975 14.4929 20.2847ZM13.5522 20.2847C13.5522 20.5351 13.5816 20.7176 13.6405 20.8322C13.6994 20.946 13.7932 21.0029 13.9219 21.0029C14.0522 21.0029 14.1464 20.9452 14.2044 20.8298C14.2633 20.7137 14.2927 20.532 14.2927 20.2847C14.2927 20.0375 14.2633 19.8566 14.2044 19.742C14.1464 19.6266 14.0522 19.5689 13.9219 19.5689C13.7932 19.5689 13.6994 19.6258 13.6405 19.7396C13.5816 19.8526 13.5522 20.0343 13.5522 20.2847ZM15.8727 20.2847C15.8727 20.5822 15.8256 20.8043 15.7314 20.9511C15.638 21.0979 15.4948 21.1713 15.3017 21.1713C15.1165 21.1713 14.9756 21.0963 14.879 20.9464C14.7825 20.7957 14.7342 20.5751 14.7342 20.2847C14.7342 19.9849 14.7809 19.7624 14.8743 19.6172C14.9677 19.472 15.1102 19.3994 15.3017 19.3994C15.4885 19.3994 15.6302 19.4751 15.7267 19.6266C15.824 19.7781 15.8727 19.9975 15.8727 20.2847ZM14.932 20.2847C14.932 20.5351 14.9615 20.7176 15.0203 20.8322C15.0792 20.946 15.173 21.0029 15.3017 21.0029C15.432 21.0029 15.5262 20.9452 15.5843 20.8298C15.6431 20.7137 15.6726 20.532 15.6726 20.2847C15.6726 20.0375 15.6431 19.8566 15.5843 19.742C15.5262 19.6266 15.432 19.5689 15.3017 19.5689C15.173 19.5689 15.0792 19.6258 15.0203 19.7396C14.9615 19.8526 14.932 20.0343 14.932 20.2847Z" fill="#383B41" fill-opacity="0.72"/>
<path d="M12.5103 13.2648C12.6916 13.2648 12.834 13.3099 12.9376 13.4002C13.042 13.4897 13.0942 13.6125 13.0942 13.7687C13.0942 13.9469 13.0373 14.0866 12.9235 14.1878C12.8105 14.2891 12.6543 14.3397 12.4549 14.3397C12.2611 14.3397 12.1131 14.3087 12.0111 14.2467V14.0583C12.066 14.0936 12.1343 14.1215 12.2159 14.1419C12.2976 14.1615 12.378 14.1714 12.4573 14.1714C12.5954 14.1714 12.7026 14.1388 12.7787 14.0736C12.8556 14.0085 12.8941 13.9143 12.8941 13.7911C12.8941 13.5509 12.7469 13.4308 12.4526 13.4308C12.378 13.4308 12.2783 13.4422 12.1535 13.465L12.0523 13.4002L12.117 12.5949H12.973V12.775H12.2842L12.2407 13.2919C12.3309 13.2738 12.4208 13.2648 12.5103 13.2648ZM14.4929 13.4532C14.4929 13.7507 14.4458 13.9728 14.3516 14.1195C14.2582 14.2663 14.115 14.3397 13.9219 14.3397C13.7366 14.3397 13.5958 14.2648 13.4992 14.1148C13.4027 13.9641 13.3544 13.7436 13.3544 13.4532C13.3544 13.1534 13.4011 12.9308 13.4945 12.7856C13.5879 12.6404 13.7304 12.5678 13.9219 12.5678C14.1087 12.5678 14.2503 12.6436 14.3469 12.7951C14.4442 12.9465 14.4929 13.1659 14.4929 13.4532ZM13.5522 13.4532C13.5522 13.7036 13.5816 13.886 13.6405 14.0006C13.6994 14.1144 13.7932 14.1714 13.9219 14.1714C14.0522 14.1714 14.1464 14.1137 14.2044 13.9983C14.2633 13.8821 14.2927 13.7004 14.2927 13.4532C14.2927 13.2059 14.2633 13.025 14.2044 12.9104C14.1464 12.7951 14.0522 12.7374 13.9219 12.7374C13.7932 12.7374 13.6994 12.7943 13.6405 12.9081C13.5816 13.0211 13.5522 13.2028 13.5522 13.4532ZM15.8727 13.4532C15.8727 13.7507 15.8256 13.9728 15.7314 14.1195C15.638 14.2663 15.4948 14.3397 15.3017 14.3397C15.1165 14.3397 14.9756 14.2648 14.879 14.1148C14.7825 13.9641 14.7342 13.7436 14.7342 13.4532C14.7342 13.1534 14.7809 12.9308 14.8743 12.7856C14.9677 12.6404 15.1102 12.5678 15.3017 12.5678C15.4885 12.5678 15.6302 12.6436 15.7267 12.7951C15.824 12.9465 15.8727 13.1659 15.8727 13.4532ZM14.932 13.4532C14.932 13.7036 14.9615 13.886 15.0203 14.0006C15.0792 14.1144 15.173 14.1714 15.3017 14.1714C15.432 14.1714 15.5262 14.1137 15.5843 13.9983C15.6431 13.8821 15.6726 13.7004 15.6726 13.4532C15.6726 13.2059 15.6431 13.025 15.5843 12.9104C15.5262 12.7951 15.432 12.7374 15.3017 12.7374C15.173 12.7374 15.0792 12.7943 15.0203 12.9081C14.9615 13.0211 14.932 13.2028 14.932 13.4532Z" fill="#383B41" fill-opacity="0.72"/>
<path d="M13.0389 26.6632C13.0389 26.7731 13.0079 26.863 12.9459 26.9328C12.8847 27.0027 12.7975 27.0494 12.6845 27.073V27.0824C12.8226 27.0996 12.9251 27.1436 12.9918 27.2142C13.0585 27.2849 13.0919 27.3775 13.0919 27.4921C13.0919 27.6561 13.035 27.7825 12.9211 27.8712C12.8073 27.9591 12.6457 28.003 12.4361 28.003C12.345 28.003 12.2615 27.996 12.1853 27.9818C12.11 27.9685 12.0366 27.9446 11.9652 27.91V27.724C12.0397 27.7609 12.119 27.7892 12.203 27.8088C12.2877 27.8276 12.3678 27.837 12.4432 27.837C12.7406 27.837 12.8894 27.7205 12.8894 27.4874C12.8894 27.2786 12.7253 27.1742 12.3972 27.1742H12.2277V27.0058H12.3996C12.5338 27.0058 12.6402 26.9764 12.7186 26.9175C12.7971 26.8579 12.8364 26.7755 12.8364 26.6703C12.8364 26.5863 12.8073 26.5204 12.7493 26.4725C12.692 26.4246 12.6139 26.4007 12.515 26.4007C12.4396 26.4007 12.3686 26.4109 12.3019 26.4313C12.2352 26.4517 12.159 26.4894 12.0735 26.5443L11.9746 26.4125C12.0452 26.3567 12.1265 26.3132 12.2183 26.2818C12.3109 26.2496 12.4082 26.2335 12.5103 26.2335C12.6774 26.2335 12.8073 26.272 12.9 26.3489C12.9926 26.425 13.0389 26.5298 13.0389 26.6632ZM14.4929 27.1165C14.4929 27.414 14.4458 27.6361 14.3516 27.7829C14.2582 27.9297 14.115 28.003 13.9219 28.003C13.7366 28.003 13.5958 27.9281 13.4992 27.7782C13.4027 27.6275 13.3544 27.4069 13.3544 27.1165C13.3544 26.8167 13.4011 26.5942 13.4945 26.449C13.5879 26.3038 13.7304 26.2312 13.9219 26.2312C14.1087 26.2312 14.2503 26.3069 14.3469 26.4584C14.4442 26.6099 14.4929 26.8292 14.4929 27.1165ZM13.5522 27.1165C13.5522 27.3669 13.5816 27.5494 13.6405 27.664C13.6994 27.7778 13.7932 27.8347 13.9219 27.8347C14.0522 27.8347 14.1464 27.777 14.2044 27.6616C14.2633 27.5455 14.2927 27.3638 14.2927 27.1165C14.2927 26.8693 14.2633 26.6884 14.2044 26.5738C14.1464 26.4584 14.0522 26.4007 13.9219 26.4007C13.7932 26.4007 13.6994 26.4576 13.6405 26.5714C13.5816 26.6844 13.5522 26.8661 13.5522 27.1165ZM15.8727 27.1165C15.8727 27.414 15.8256 27.6361 15.7314 27.7829C15.638 27.9297 15.4948 28.003 15.3017 28.003C15.1165 28.003 14.9756 27.9281 14.879 27.7782C14.7825 27.6275 14.7342 27.4069 14.7342 27.1165C14.7342 26.8167 14.7809 26.5942 14.8743 26.449C14.9677 26.3038 15.1102 26.2312 15.3017 26.2312C15.4885 26.2312 15.6302 26.3069 15.7267 26.4584C15.824 26.6099 15.8727 26.8292 15.8727 27.1165ZM14.932 27.1165C14.932 27.3669 14.9615 27.5494 15.0203 27.664C15.0792 27.7778 15.173 27.8347 15.3017 27.8347C15.432 27.8347 15.5262 27.777 15.5843 27.6616C15.6431 27.5455 15.6726 27.3638 15.6726 27.1165C15.6726 26.8693 15.6431 26.6884 15.5843 26.5738C15.5262 26.4584 15.432 26.4007 15.3017 26.4007C15.173 26.4007 15.0792 26.4576 15.0203 26.5714C14.9615 26.6844 14.932 26.8661 14.932 27.1165Z" fill="#383B41" fill-opacity="0.72"/>
<path d="M13.1036 34.811H11.9722V34.6427L12.4255 34.1871C12.5636 34.0473 12.6547 33.9477 12.6986 33.888C12.7426 33.8284 12.7756 33.7703 12.7975 33.7138C12.8195 33.6573 12.8305 33.5964 12.8305 33.5313C12.8305 33.4395 12.8026 33.3668 12.7469 33.3135C12.6912 33.2593 12.6139 33.2322 12.515 33.2322C12.4435 33.2322 12.3757 33.244 12.3113 33.2676C12.2477 33.2911 12.1767 33.3339 12.0982 33.3959L11.9946 33.2629C12.1531 33.131 12.3258 33.0651 12.5126 33.0651C12.6743 33.0651 12.8011 33.1067 12.8929 33.1899C12.9847 33.2723 13.0306 33.3833 13.0306 33.523C13.0306 33.6321 13 33.7401 12.9388 33.8468C12.8776 33.9535 12.763 34.0885 12.595 34.2518L12.2183 34.6203V34.6297H13.1036V34.811ZM14.4929 33.9481C14.4929 34.2455 14.4458 34.4676 14.3516 34.6144C14.2582 34.7612 14.115 34.8346 13.9219 34.8346C13.7366 34.8346 13.5958 34.7596 13.4992 34.6097C13.4027 34.459 13.3544 34.2385 13.3544 33.9481C13.3544 33.6482 13.4011 33.4257 13.4945 33.2805C13.5879 33.1353 13.7304 33.0627 13.9219 33.0627C14.1087 33.0627 14.2503 33.1384 14.3469 33.2899C14.4442 33.4414 14.4929 33.6608 14.4929 33.9481ZM13.5522 33.9481C13.5522 34.1984 13.5816 34.3809 13.6405 34.4955C13.6994 34.6093 13.7932 34.6662 13.9219 34.6662C14.0522 34.6662 14.1464 34.6085 14.2044 34.4932C14.2633 34.377 14.2927 34.1953 14.2927 33.9481C14.2927 33.7008 14.2633 33.5199 14.2044 33.4053C14.1464 33.2899 14.0522 33.2322 13.9219 33.2322C13.7932 33.2322 13.6994 33.2891 13.6405 33.403C13.5816 33.516 13.5522 33.6977 13.5522 33.9481ZM15.8727 33.9481C15.8727 34.2455 15.8256 34.4676 15.7314 34.6144C15.638 34.7612 15.4948 34.8346 15.3017 34.8346C15.1165 34.8346 14.9756 34.7596 14.879 34.6097C14.7825 34.459 14.7342 34.2385 14.7342 33.9481C14.7342 33.6482 14.7809 33.4257 14.8743 33.2805C14.9677 33.1353 15.1102 33.0627 15.3017 33.0627C15.4885 33.0627 15.6302 33.1384 15.7267 33.2899C15.824 33.4414 15.8727 33.6608 15.8727 33.9481ZM14.932 33.9481C14.932 34.1984 14.9615 34.3809 15.0203 34.4955C15.0792 34.6093 15.173 34.6662 15.3017 34.6662C15.432 34.6662 15.5262 34.6085 15.5843 34.4932C15.6431 34.377 15.6726 34.1953 15.6726 33.9481C15.6726 33.7008 15.6431 33.5199 15.5843 33.4053C15.5262 33.2899 15.432 33.2322 15.3017 33.2322C15.173 33.2322 15.0792 33.2891 15.0203 33.403C14.9615 33.516 14.932 33.6977 14.932 33.9481Z" fill="#383B41" fill-opacity="0.72"/>
<path d="M12.6963 41.6426H12.5056V40.4158C12.5056 40.3138 12.5087 40.2172 12.515 40.1262C12.4985 40.1427 12.48 40.1599 12.4596 40.178C12.4392 40.196 12.3458 40.2726 12.1794 40.4076L12.0758 40.2733L12.5315 39.9213H12.6963V41.6426ZM14.4929 40.7796C14.4929 41.0771 14.4458 41.2992 14.3516 41.446C14.2582 41.5927 14.115 41.6661 13.9219 41.6661C13.7366 41.6661 13.5958 41.5912 13.4992 41.4413C13.4027 41.2906 13.3544 41.07 13.3544 40.7796C13.3544 40.4798 13.4011 40.2573 13.4945 40.1121C13.5879 39.9669 13.7304 39.8942 13.9219 39.8942C14.1087 39.8942 14.2503 39.97 14.3469 40.1215C14.4442 40.273 14.4929 40.4923 14.4929 40.7796ZM13.5522 40.7796C13.5522 41.03 13.5816 41.2125 13.6405 41.3271C13.6994 41.4409 13.7932 41.4978 13.9219 41.4978C14.0522 41.4978 14.1464 41.4401 14.2044 41.3247C14.2633 41.2085 14.2927 41.0268 14.2927 40.7796C14.2927 40.5324 14.2633 40.3514 14.2044 40.2369C14.1464 40.1215 14.0522 40.0638 13.9219 40.0638C13.7932 40.0638 13.6994 40.1207 13.6405 40.2345C13.5816 40.3475 13.5522 40.5292 13.5522 40.7796ZM15.8727 40.7796C15.8727 41.0771 15.8256 41.2992 15.7314 41.446C15.638 41.5927 15.4948 41.6661 15.3017 41.6661C15.1165 41.6661 14.9756 41.5912 14.879 41.4413C14.7825 41.2906 14.7342 41.07 14.7342 40.7796C14.7342 40.4798 14.7809 40.2573 14.8743 40.1121C14.9677 39.9669 15.1102 39.8942 15.3017 39.8942C15.4885 39.8942 15.6302 39.97 15.7267 40.1215C15.824 40.273 15.8727 40.4923 15.8727 40.7796ZM14.932 40.7796C14.932 41.03 14.9615 41.2125 15.0203 41.3271C15.0792 41.4409 15.173 41.4978 15.3017 41.4978C15.432 41.4978 15.5262 41.4401 15.5843 41.3247C15.6431 41.2085 15.6726 41.0268 15.6726 40.7796C15.6726 40.5324 15.6431 40.3514 15.5843 40.2369C15.5262 40.1215 15.432 40.0638 15.3017 40.0638C15.173 40.0638 15.0792 40.1207 15.0203 40.2345C14.9615 40.3475 14.932 40.5292 14.932 40.7796Z" fill="#383B41" fill-opacity="0.72"/>
<path d="M28.3397 51.292L27.9653 50.2139H27.9582C27.9682 50.374 27.9732 50.5241 27.9732 50.6642V51.292H27.7816V50.0011H28.0792L28.4377 51.028H28.443L28.8121 50.0011H29.1105V51.292H28.9074V50.6536C28.9074 50.5894 28.9089 50.5058 28.9119 50.4028C28.9154 50.2998 28.9183 50.2374 28.9207 50.2156H28.9136L28.526 51.292H28.3397ZM30.2946 50.8019C30.2946 50.9615 30.2537 51.086 30.1719 51.1754C30.0901 51.2649 29.9762 51.3097 29.8302 51.3097C29.7389 51.3097 29.6583 51.289 29.5882 51.2478C29.5182 51.2066 29.4643 51.1475 29.4266 51.0704C29.389 50.9932 29.3701 50.9038 29.3701 50.8019C29.3701 50.6436 29.4108 50.52 29.492 50.4311C29.5732 50.3422 29.6877 50.2977 29.8355 50.2977C29.9767 50.2977 30.0886 50.3434 30.171 50.4346C30.2534 50.5253 30.2946 50.6477 30.2946 50.8019ZM29.5838 50.8019C29.5838 51.0274 29.6671 51.1401 29.8337 51.1401C29.9985 51.1401 30.0809 51.0274 30.0809 50.8019C30.0809 50.5788 29.9979 50.4673 29.8319 50.4673C29.7448 50.4673 29.6815 50.4961 29.6421 50.5538C29.6032 50.6115 29.5838 50.6942 29.5838 50.8019ZM31.3931 51.292H31.1847V50.6916C31.1847 50.6162 31.1694 50.56 31.1388 50.5229C31.1087 50.4858 31.0608 50.4673 30.9948 50.4673C30.9071 50.4673 30.843 50.4932 30.8023 50.545C30.7617 50.5968 30.7414 50.6836 30.7414 50.8055V51.292H30.5339V50.3154H30.6964L30.7255 50.4434H30.7361C30.7656 50.3969 30.8074 50.361 30.8615 50.3357C30.9157 50.3104 30.9757 50.2977 31.0416 50.2977C31.2759 50.2977 31.3931 50.4169 31.3931 50.6554V51.292ZM32.0456 51.1419C32.0962 51.1419 32.1469 51.1339 32.1975 51.118V51.2743C32.1745 51.2843 32.1448 51.2926 32.1083 51.2991C32.0724 51.3061 32.035 51.3097 31.9962 51.3097C31.7995 51.3097 31.7012 51.206 31.7012 50.9988V50.4726H31.5679V50.3807L31.711 50.3048L31.7816 50.0982H31.9096V50.3154H32.1878V50.4726H31.9096V50.9953C31.9096 51.0453 31.922 51.0824 31.9467 51.1066C31.972 51.1301 32.005 51.1419 32.0456 51.1419ZM33.2527 51.292H33.0443V50.6916C33.0443 50.6162 33.029 50.56 32.9984 50.5229C32.9683 50.4858 32.9204 50.4673 32.8544 50.4673C32.7673 50.4673 32.7031 50.4935 32.6619 50.5459C32.6213 50.5977 32.601 50.6848 32.601 50.8072V51.292H32.3935V49.9181H32.601V50.2668C32.601 50.3228 32.5975 50.3825 32.5904 50.4461H32.6037C32.6319 50.399 32.6711 50.3625 32.7211 50.3366C32.7717 50.3107 32.8306 50.2977 32.8977 50.2977C33.1343 50.2977 33.2527 50.4169 33.2527 50.6554V51.292ZM34.0836 50.0011L33.6032 51.292H33.4072L33.8884 50.0011H34.0836ZM34.6345 50.59L34.9401 50.0011H35.1696L34.7396 50.7913V51.292H34.5277V50.7984L34.0994 50.0011H34.329L34.6345 50.59ZM35.7445 51.3097C35.5926 51.3097 35.4737 51.2655 35.3877 51.1772C35.3024 51.0883 35.2597 50.9662 35.2597 50.8108C35.2597 50.6512 35.2994 50.5258 35.3789 50.4346C35.4584 50.3434 35.5676 50.2977 35.7065 50.2977C35.8354 50.2977 35.9373 50.3369 36.012 50.4152C36.0868 50.4935 36.1242 50.6012 36.1242 50.7384V50.8505H35.4734C35.4763 50.9453 35.5019 51.0183 35.5502 51.0695C35.5985 51.1201 35.6665 51.1454 35.7542 51.1454C35.8119 51.1454 35.8654 51.1401 35.9149 51.1295C35.9649 51.1183 36.0185 51.1001 36.0756 51.0748V51.2434C36.025 51.2676 35.9738 51.2846 35.9219 51.2946C35.8701 51.3046 35.811 51.3097 35.7445 51.3097ZM35.7065 50.4549C35.6406 50.4549 35.5876 50.4758 35.5476 50.5176C35.5081 50.5594 35.4846 50.6203 35.4769 50.7004H35.9202C35.919 50.6197 35.8996 50.5588 35.8619 50.5176C35.8242 50.4758 35.7724 50.4549 35.7065 50.4549ZM36.9709 51.292L36.9294 51.156H36.9224C36.8753 51.2155 36.8279 51.2561 36.7802 51.2779C36.7325 51.2991 36.6713 51.3097 36.5966 51.3097C36.5006 51.3097 36.4255 51.2838 36.3714 51.2319C36.3178 51.1801 36.291 51.1069 36.291 51.0121C36.291 50.9114 36.3284 50.8355 36.4032 50.7843C36.4779 50.7331 36.5918 50.7051 36.7449 50.7004L36.9136 50.6951V50.643C36.9136 50.5806 36.8988 50.5341 36.8694 50.5035C36.8406 50.4723 36.7955 50.4567 36.7343 50.4567C36.6843 50.4567 36.6363 50.464 36.5904 50.4788C36.5445 50.4935 36.5003 50.5108 36.4579 50.5309L36.3908 50.3825C36.4438 50.3548 36.5018 50.3339 36.5648 50.3198C36.6278 50.3051 36.6872 50.2977 36.7431 50.2977C36.8673 50.2977 36.9609 50.3248 37.0239 50.379C37.0875 50.4331 37.1193 50.5182 37.1193 50.6342V51.292H36.9709ZM36.6619 51.1507C36.7372 51.1507 36.7976 51.1298 36.8429 51.088C36.8888 51.0456 36.9118 50.9865 36.9118 50.9105V50.8258L36.7864 50.8311C36.6887 50.8346 36.6175 50.8511 36.5727 50.8805C36.5286 50.9094 36.5065 50.9538 36.5065 51.0138C36.5065 51.0574 36.5194 51.0913 36.5453 51.1154C36.5712 51.1389 36.6101 51.1507 36.6619 51.1507ZM37.9043 50.2977C37.9461 50.2977 37.9805 50.3007 38.0076 50.3066L37.9873 50.4999C37.9578 50.4929 37.9272 50.4894 37.8954 50.4894C37.8124 50.4894 37.745 50.5164 37.6932 50.5706C37.642 50.6247 37.6164 50.6951 37.6164 50.7816V51.292H37.4089V50.3154H37.5714L37.5988 50.4876H37.6094C37.6417 50.4293 37.6838 50.3831 37.7356 50.349C37.788 50.3148 37.8442 50.2977 37.9043 50.2977Z" fill="#383B41" fill-opacity="0.72"/>
<path d="M109.943 51.292L109.569 50.2139H109.562C109.572 50.374 109.577 50.5241 109.577 50.6642V51.292H109.385V50.0011H109.683L110.041 51.028H110.047L110.416 50.0011H110.714V51.292H110.511V50.6536C110.511 50.5894 110.512 50.5058 110.515 50.4028C110.519 50.2998 110.522 50.2374 110.524 50.2156H110.517L110.13 51.292H109.943ZM111.898 50.8019C111.898 50.9615 111.857 51.086 111.775 51.1754C111.694 51.2649 111.58 51.3097 111.434 51.3097C111.342 51.3097 111.262 51.289 111.192 51.2478C111.122 51.2066 111.068 51.1475 111.03 51.0704C110.992 50.9932 110.974 50.9038 110.974 50.8019C110.974 50.6436 111.014 50.52 111.096 50.4311C111.177 50.3422 111.291 50.2977 111.439 50.2977C111.58 50.2977 111.692 50.3434 111.775 50.4346C111.857 50.5253 111.898 50.6477 111.898 50.8019ZM111.187 50.8019C111.187 51.0274 111.271 51.1401 111.437 51.1401C111.602 51.1401 111.684 51.0274 111.684 50.8019C111.684 50.5788 111.601 50.4673 111.435 50.4673C111.348 50.4673 111.285 50.4961 111.246 50.5538C111.207 50.6115 111.187 50.6942 111.187 50.8019ZM112.997 51.292H112.788V50.6916C112.788 50.6162 112.773 50.56 112.742 50.5229C112.712 50.4858 112.664 50.4673 112.598 50.4673C112.511 50.4673 112.446 50.4932 112.406 50.545C112.365 50.5968 112.345 50.6836 112.345 50.8055V51.292H112.137V50.3154H112.3L112.329 50.4434H112.34C112.369 50.3969 112.411 50.361 112.465 50.3357C112.519 50.3104 112.579 50.2977 112.645 50.2977C112.879 50.2977 112.997 50.4169 112.997 50.6554V51.292ZM113.649 51.1419C113.7 51.1419 113.75 51.1339 113.801 51.118V51.2743C113.778 51.2843 113.748 51.2926 113.712 51.2991C113.676 51.3061 113.639 51.3097 113.6 51.3097C113.403 51.3097 113.305 51.206 113.305 50.9988V50.4726H113.171V50.3807L113.314 50.3048L113.385 50.0982H113.513V50.3154H113.791V50.4726H113.513V50.9953C113.513 51.0453 113.526 51.0824 113.55 51.1066C113.576 51.1301 113.609 51.1419 113.649 51.1419ZM114.856 51.292H114.648V50.6916C114.648 50.6162 114.632 50.56 114.602 50.5229C114.572 50.4858 114.524 50.4673 114.458 50.4673C114.371 50.4673 114.307 50.4935 114.265 50.5459C114.225 50.5977 114.205 50.6848 114.205 50.8072V51.292H113.997V49.9181H114.205V50.2668C114.205 50.3228 114.201 50.3825 114.194 50.4461H114.207C114.235 50.399 114.275 50.3625 114.325 50.3366C114.375 50.3107 114.434 50.2977 114.501 50.2977C114.738 50.2977 114.856 50.4169 114.856 50.6554V51.292ZM115.687 50.0011L115.207 51.292H115.011L115.492 50.0011H115.687ZM116.238 50.59L116.544 50.0011H116.773L116.343 50.7913V51.292H116.131V50.7984L115.703 50.0011H115.933L116.238 50.59ZM117.348 51.3097C117.196 51.3097 117.077 51.2655 116.991 51.1772C116.906 51.0883 116.863 50.9662 116.863 50.8108C116.863 50.6512 116.903 50.5258 116.982 50.4346C117.062 50.3434 117.171 50.2977 117.31 50.2977C117.439 50.2977 117.541 50.3369 117.616 50.4152C117.69 50.4935 117.728 50.6012 117.728 50.7384V50.8505H117.077C117.08 50.9453 117.105 51.0183 117.154 51.0695C117.202 51.1201 117.27 51.1454 117.358 51.1454C117.415 51.1454 117.469 51.1401 117.518 51.1295C117.568 51.1183 117.622 51.1001 117.679 51.0748V51.2434C117.628 51.2676 117.577 51.2846 117.525 51.2946C117.474 51.3046 117.415 51.3097 117.348 51.3097ZM117.31 50.4549C117.244 50.4549 117.191 50.4758 117.151 50.5176C117.112 50.5594 117.088 50.6203 117.08 50.7004H117.524C117.523 50.6197 117.503 50.5588 117.465 50.5176C117.428 50.4758 117.376 50.4549 117.31 50.4549ZM118.574 51.292L118.533 51.156H118.526C118.479 51.2155 118.431 51.2561 118.384 51.2779C118.336 51.2991 118.275 51.3097 118.2 51.3097C118.104 51.3097 118.029 51.2838 117.975 51.2319C117.921 51.1801 117.895 51.1069 117.895 51.0121C117.895 50.9114 117.932 50.8355 118.007 50.7843C118.081 50.7331 118.195 50.7051 118.348 50.7004L118.517 50.6951V50.643C118.517 50.5806 118.502 50.5341 118.473 50.5035C118.444 50.4723 118.399 50.4567 118.338 50.4567C118.288 50.4567 118.24 50.464 118.194 50.4788C118.148 50.4935 118.104 50.5108 118.061 50.5309L117.994 50.3825C118.047 50.3548 118.105 50.3339 118.168 50.3198C118.231 50.3051 118.291 50.2977 118.347 50.2977C118.471 50.2977 118.564 50.3248 118.627 50.379C118.691 50.4331 118.723 50.5182 118.723 50.6342V51.292H118.574ZM118.265 51.1507C118.341 51.1507 118.401 51.1298 118.446 51.088C118.492 51.0456 118.515 50.9865 118.515 50.9105V50.8258L118.39 50.8311C118.292 50.8346 118.221 50.8511 118.176 50.8805C118.132 50.9094 118.11 50.9538 118.11 51.0138C118.11 51.0574 118.123 51.0913 118.149 51.1154C118.175 51.1389 118.214 51.1507 118.265 51.1507ZM119.508 50.2977C119.55 50.2977 119.584 50.3007 119.611 50.3066L119.591 50.4999C119.561 50.4929 119.531 50.4894 119.499 50.4894C119.416 50.4894 119.349 50.5164 119.297 50.5706C119.246 50.6247 119.22 50.6951 119.22 50.7816V51.292H119.012V50.3154H119.175L119.202 50.4876H119.213C119.245 50.4293 119.287 50.3831 119.339 50.349C119.392 50.3148 119.448 50.2977 119.508 50.2977Z" fill="#383B41" fill-opacity="0.72"/>
<path d="M191.547 51.292L191.172 50.2139H191.165C191.175 50.374 191.18 50.5241 191.18 50.6642V51.292H190.989V50.0011H191.286L191.645 51.028H191.65L192.019 50.0011H192.318V51.292H192.114V50.6536C192.114 50.5894 192.116 50.5058 192.119 50.4028C192.122 50.2998 192.125 50.2374 192.128 50.2156H192.121L191.733 51.292H191.547ZM193.502 50.8019C193.502 50.9615 193.461 51.086 193.379 51.1754C193.297 51.2649 193.183 51.3097 193.037 51.3097C192.946 51.3097 192.865 51.289 192.795 51.2478C192.725 51.2066 192.671 51.1475 192.634 51.0704C192.596 50.9932 192.577 50.9038 192.577 50.8019C192.577 50.6436 192.618 50.52 192.699 50.4311C192.78 50.3422 192.895 50.2977 193.043 50.2977C193.184 50.2977 193.296 50.3434 193.378 50.4346C193.46 50.5253 193.502 50.6477 193.502 50.8019ZM192.791 50.8019C192.791 51.0274 192.874 51.1401 193.041 51.1401C193.206 51.1401 193.288 51.0274 193.288 50.8019C193.288 50.5788 193.205 50.4673 193.039 50.4673C192.952 50.4673 192.889 50.4961 192.849 50.5538C192.81 50.6115 192.791 50.6942 192.791 50.8019ZM194.6 51.292H194.392V50.6916C194.392 50.6162 194.376 50.56 194.346 50.5229C194.316 50.4858 194.268 50.4673 194.202 50.4673C194.114 50.4673 194.05 50.4932 194.009 50.545C193.969 50.5968 193.948 50.6836 193.948 50.8055V51.292H193.741V50.3154H193.903L193.933 50.4434H193.943C193.973 50.3969 194.014 50.361 194.069 50.3357C194.123 50.3104 194.183 50.2977 194.249 50.2977C194.483 50.2977 194.6 50.4169 194.6 50.6554V51.292ZM195.253 51.1419C195.303 51.1419 195.354 51.1339 195.405 51.118V51.2743C195.382 51.2843 195.352 51.2926 195.315 51.2991C195.279 51.3061 195.242 51.3097 195.203 51.3097C195.007 51.3097 194.908 51.206 194.908 50.9988V50.4726H194.775V50.3807L194.918 50.3048L194.989 50.0982H195.117V50.3154H195.395V50.4726H195.117V50.9953C195.117 51.0453 195.129 51.0824 195.154 51.1066C195.179 51.1301 195.212 51.1419 195.253 51.1419ZM196.46 51.292H196.251V50.6916C196.251 50.6162 196.236 50.56 196.205 50.5229C196.175 50.4858 196.127 50.4673 196.061 50.4673C195.974 50.4673 195.91 50.4935 195.869 50.5459C195.828 50.5977 195.808 50.6848 195.808 50.8072V51.292H195.601V49.9181H195.808V50.2668C195.808 50.3228 195.805 50.3825 195.797 50.4461H195.811C195.839 50.399 195.878 50.3625 195.928 50.3366C195.979 50.3107 196.038 50.2977 196.105 50.2977C196.341 50.2977 196.46 50.4169 196.46 50.6554V51.292ZM197.291 50.0011L196.81 51.292H196.614L197.095 50.0011H197.291ZM197.842 50.59L198.147 50.0011H198.377L197.947 50.7913V51.292H197.735V50.7984L197.306 50.0011H197.536L197.842 50.59ZM198.951 51.3097C198.8 51.3097 198.681 51.2655 198.595 51.1772C198.509 51.0883 198.467 50.9662 198.467 50.8108C198.467 50.6512 198.506 50.5258 198.586 50.4346C198.665 50.3434 198.775 50.2977 198.914 50.2977C199.042 50.2977 199.144 50.3369 199.219 50.4152C199.294 50.4935 199.331 50.6012 199.331 50.7384V50.8505H198.68C198.683 50.9453 198.709 51.0183 198.757 51.0695C198.806 51.1201 198.874 51.1454 198.961 51.1454C199.019 51.1454 199.072 51.1401 199.122 51.1295C199.172 51.1183 199.226 51.1001 199.283 51.0748V51.2434C199.232 51.2676 199.181 51.2846 199.129 51.2946C199.077 51.3046 199.018 51.3097 198.951 51.3097ZM198.914 50.4549C198.848 50.4549 198.795 50.4758 198.755 50.5176C198.715 50.5594 198.692 50.6203 198.684 50.7004H199.127C199.126 50.6197 199.107 50.5588 199.069 50.5176C199.031 50.4758 198.979 50.4549 198.914 50.4549ZM200.178 51.292L200.136 51.156H200.129C200.082 51.2155 200.035 51.2561 199.987 51.2779C199.94 51.2991 199.878 51.3097 199.804 51.3097C199.708 51.3097 199.633 51.2838 199.578 51.2319C199.525 51.1801 199.498 51.1069 199.498 51.0121C199.498 50.9114 199.535 50.8355 199.61 50.7843C199.685 50.7331 199.799 50.7051 199.952 50.7004L200.121 50.6951V50.643C200.121 50.5806 200.106 50.5341 200.076 50.5035C200.048 50.4723 200.003 50.4567 199.941 50.4567C199.891 50.4567 199.843 50.464 199.797 50.4788C199.751 50.4935 199.707 50.5108 199.665 50.5309L199.598 50.3825C199.651 50.3548 199.709 50.3339 199.772 50.3198C199.835 50.3051 199.894 50.2977 199.95 50.2977C200.074 50.2977 200.168 50.3248 200.231 50.379C200.295 50.4331 200.326 50.5182 200.326 50.6342V51.292H200.178ZM199.869 51.1507C199.944 51.1507 200.005 51.1298 200.05 51.088C200.096 51.0456 200.119 50.9865 200.119 50.9105V50.8258L199.993 50.8311C199.896 50.8346 199.824 50.8511 199.78 50.8805C199.736 50.9094 199.714 50.9538 199.714 51.0138C199.714 51.0574 199.726 51.0913 199.752 51.1154C199.778 51.1389 199.817 51.1507 199.869 51.1507ZM201.111 50.2977C201.153 50.2977 201.188 50.3007 201.215 50.3066L201.194 50.4999C201.165 50.4929 201.134 50.4894 201.102 50.4894C201.019 50.4894 200.952 50.5164 200.9 50.5706C200.849 50.6247 200.823 50.6951 200.823 50.7816V51.292H200.616V50.3154H200.778L200.806 50.4876H200.816C200.849 50.4293 200.891 50.3831 200.943 50.349C200.995 50.3148 201.051 50.2977 201.111 50.2977Z" fill="#383B41" fill-opacity="0.72"/>
<path d="M15.9265 47.6114C15.9265 47.9089 15.8794 48.131 15.7853 48.2778C15.6918 48.4245 15.5486 48.4979 15.3555 48.4979C15.1703 48.4979 15.0294 48.423 14.9329 48.273C14.8363 48.1223 14.7881 47.9018 14.7881 47.6114C14.7881 47.3116 14.8348 47.089 14.9282 46.9438C15.0216 46.7986 15.164 46.726 15.3555 46.726C15.5423 46.726 15.684 46.8018 15.7805 46.9533C15.8779 47.1047 15.9265 47.3241 15.9265 47.6114ZM14.9858 47.6114C14.9858 47.8618 15.0153 48.0442 15.0741 48.1588C15.133 48.2727 15.2268 48.3296 15.3555 48.3296C15.4858 48.3296 15.58 48.2719 15.6381 48.1565C15.697 48.0403 15.7264 47.8586 15.7264 47.6114C15.7264 47.3641 15.697 47.1832 15.6381 47.0686C15.58 46.9533 15.4858 46.8956 15.3555 46.8956C15.2268 46.8956 15.133 46.9525 15.0741 47.0663C15.0153 47.1793 14.9858 47.361 14.9858 47.6114Z" fill="#383B41" fill-opacity="0.72"/>
<path d="M7.82227 38.8993L7.82227 39.1277L6.37769 40.0684L6.37769 40.0778C6.54722 40.0653 6.70263 40.059 6.84391 40.059L7.82227 40.059L7.82227 40.2438L6.10102 40.2438L6.10102 40.0178L7.53971 39.0795L7.53971 39.07C7.51852 39.0716 7.45062 39.0751 7.33603 39.0806C7.22065 39.0861 7.13824 39.0881 7.08879 39.0865L6.10102 39.0865L6.10102 38.8993L7.82227 38.8993ZM6.53192 38.2718L7.369 38.2718C7.47417 38.2718 7.55266 38.2479 7.60446 38.2C7.65626 38.1521 7.68216 38.0772 7.68216 37.9751C7.68216 37.8401 7.64527 37.7416 7.5715 37.6796C7.49772 37.6168 7.37724 37.5854 7.21006 37.5854L6.53192 37.5854L6.53192 37.39L7.82227 37.39L7.82227 37.5513L7.6492 37.5795L7.6492 37.5901C7.71277 37.6302 7.76144 37.6859 7.79519 37.7573C7.82894 37.828 7.84581 37.9088 7.84581 37.9998C7.84581 38.1568 7.80853 38.2746 7.73397 38.353C7.6594 38.4307 7.5401 38.4696 7.37606 38.4696L6.53192 38.4696L6.53192 38.2718ZM7.82227 35.3297L6.98283 35.3297C6.88001 35.3297 6.80309 35.3516 6.75208 35.3956C6.70027 35.4396 6.67437 35.5078 6.67437 35.6005C6.67437 35.7221 6.7093 35.812 6.77916 35.8701C6.84901 35.9281 6.95654 35.9572 7.10174 35.9572L7.82227 35.9572L7.82227 36.1526L6.98283 36.1526C6.88001 36.1526 6.80309 36.1746 6.75208 36.2186C6.70027 36.2625 6.67437 36.3312 6.67437 36.4246C6.67437 36.547 6.71126 36.6369 6.78504 36.6942C6.85804 36.7507 6.97812 36.779 7.1453 36.779L7.82227 36.779L7.82227 36.9744L6.53192 36.9744L6.53192 36.8155L6.70852 36.7837L6.70852 36.7742C6.64572 36.7374 6.59667 36.6856 6.56135 36.6188C6.52603 36.5513 6.50837 36.476 6.50837 36.3928C6.50837 36.1911 6.58136 36.0592 6.72735 35.9972L6.72735 35.9878C6.65985 35.9493 6.60648 35.8936 6.56724 35.8206C6.52799 35.7476 6.50837 35.6644 6.50837 35.571C6.50837 35.425 6.54604 35.3159 6.62139 35.2437C6.69596 35.1707 6.81565 35.1342 6.98048 35.1342L7.82227 35.1342L7.82227 35.3297ZM6.51072 34.13C6.51072 33.9604 6.56881 33.829 6.68497 33.7356C6.80035 33.6414 6.964 33.5943 7.17591 33.5943C7.38783 33.5943 7.55266 33.6418 7.67039 33.7367C7.78734 33.8309 7.84581 33.962 7.84581 34.13C7.84581 34.214 7.83051 34.2909 7.7999 34.3607C7.7685 34.4298 7.72062 34.4879 7.65626 34.535L7.65626 34.5491L7.82227 34.5903L7.82227 34.7304L5.99035 34.7304L5.99035 34.535L6.43538 34.535C6.53506 34.535 6.62453 34.5381 6.70381 34.5444L6.70381 34.535C6.57509 34.4439 6.51072 34.3089 6.51072 34.13ZM6.67437 34.1582C6.67437 34.2917 6.71283 34.3878 6.78975 34.4467C6.86588 34.5055 6.99461 34.535 7.17591 34.535C7.35722 34.535 7.48712 34.5048 7.56561 34.4443C7.64331 34.3839 7.68216 34.287 7.68216 34.1535C7.68216 34.0334 7.6386 33.944 7.55148 33.8851C7.46357 33.8262 7.3376 33.7968 7.17356 33.7968C7.00559 33.7968 6.8804 33.8262 6.79799 33.8851C6.71558 33.944 6.67437 34.035 6.67437 34.1582ZM7.84581 32.7066C7.84581 32.8973 7.78773 33.048 7.67157 33.1587C7.5554 33.2686 7.39411 33.3235 7.18769 33.3235C6.97969 33.3235 6.81447 33.2725 6.69203 33.1705C6.56959 33.0676 6.50837 32.9299 6.50837 32.7572C6.50837 32.5955 6.56174 32.4676 6.66849 32.3734C6.77445 32.2792 6.91455 32.2321 7.08879 32.2321L7.21241 32.2321L7.21241 33.121C7.36389 33.1171 7.47888 33.079 7.55737 33.0068C7.63586 32.9338 7.6751 32.8314 7.6751 32.6995C7.6751 32.5606 7.64606 32.4232 7.58798 32.2875L7.76222 32.2875C7.79205 32.3565 7.81324 32.4221 7.8258 32.4841C7.83914 32.5453 7.84581 32.6195 7.84581 32.7066ZM6.67202 32.7596C6.67202 32.8632 6.70577 32.946 6.77327 33.008C6.84077 33.0692 6.93417 33.1053 7.05347 33.1163L7.05347 32.4417C6.93024 32.4417 6.83606 32.4692 6.77091 32.5241C6.70498 32.579 6.67202 32.6575 6.67202 32.7596ZM6.50837 31.3091C6.50837 31.2518 6.51308 31.2004 6.5225 31.1549L6.70381 31.182C6.69203 31.2353 6.68615 31.2824 6.68615 31.3232C6.68615 31.4276 6.72853 31.5171 6.8133 31.5917C6.89806 31.6654 7.00363 31.7023 7.13 31.7023L7.82227 31.7023L7.82227 31.8978L6.53192 31.8978L6.53192 31.7365L6.77091 31.7141L6.77091 31.7047C6.68693 31.6568 6.62218 31.5991 6.57665 31.5316C6.53113 31.4641 6.50837 31.3899 6.50837 31.3091ZM6.95929 28.7637C7.23478 28.7637 7.45141 28.8336 7.60917 28.9733C7.76693 29.1122 7.84581 29.3057 7.84581 29.5537C7.84581 29.8072 7.7685 30.0031 7.61388 30.1412C7.45847 30.2786 7.23949 30.3472 6.95693 30.3472C6.67673 30.3472 6.45971 30.2782 6.30587 30.14C6.15125 30.0019 6.07394 29.8057 6.07394 29.5514C6.07394 29.3041 6.15243 29.111 6.3094 28.9721C6.46638 28.8332 6.68301 28.7637 6.95929 28.7637ZM6.95929 30.1353C7.1924 30.1353 7.36939 30.0859 7.49026 29.987C7.61035 29.8873 7.67039 29.7429 7.67039 29.5537C7.67039 29.363 7.61035 29.219 7.49026 29.1216C7.37017 29.0243 7.19318 28.9756 6.95929 28.9756C6.72774 28.9756 6.55232 29.0243 6.43302 29.1216C6.31293 29.2182 6.25289 29.3614 6.25289 29.5514C6.25289 29.7421 6.31333 29.8873 6.4342 29.987C6.55429 30.0859 6.72931 30.1353 6.95929 30.1353ZM6.68379 27.8266L6.68379 28.155L7.82227 28.155L7.82227 28.3505L6.68379 28.3505L6.68379 28.5812L6.59549 28.5812L6.52485 28.3505L6.45304 28.3505C6.13594 28.3505 5.9774 28.212 5.9774 27.9349C5.9774 27.8666 5.99113 27.7865 6.0186 27.6947L6.17519 27.7453C6.15086 27.8207 6.13869 27.885 6.13869 27.9384C6.13869 28.0122 6.16341 28.0667 6.21286 28.1021C6.26152 28.1374 6.34001 28.155 6.44833 28.155L6.53192 28.155L6.53192 27.8266L6.68379 27.8266ZM6.10102 25.6356L7.21477 25.6356C7.41099 25.6356 7.56522 25.6948 7.67745 25.8133C7.78969 25.9319 7.84581 26.0947 7.84581 26.3019C7.84581 26.5091 7.7893 26.6697 7.67628 26.7835C7.56325 26.8965 7.40785 26.953 7.21006 26.953L6.10102 26.953L6.10102 26.7529L7.22418 26.7529C7.36782 26.7529 7.47809 26.7136 7.55501 26.6351C7.63193 26.5566 7.67039 26.4413 7.67039 26.289C7.67039 26.1438 7.63193 26.0319 7.55501 25.9534C7.47731 25.875 7.36625 25.8357 7.22183 25.8357L6.10102 25.8357L6.10102 25.6356ZM7.47024 24.3758C7.59033 24.3758 7.68295 24.4206 7.74809 24.51C7.81324 24.5995 7.84581 24.7251 7.84581 24.8868C7.84581 25.0579 7.81873 25.1913 7.76458 25.2871L7.58327 25.2871C7.61466 25.2251 7.63939 25.1588 7.65744 25.0881C7.67549 25.0167 7.68452 24.948 7.68452 24.8821C7.68452 24.78 7.66843 24.7016 7.63625 24.6466C7.60328 24.5917 7.55344 24.5642 7.48673 24.5642C7.43649 24.5642 7.39372 24.5862 7.3584 24.6301C7.32229 24.6733 7.27991 24.7581 7.23125 24.8844C7.18651 25.0045 7.14766 25.0901 7.11469 25.1411C7.08094 25.1913 7.04288 25.229 7.00049 25.2541C6.95811 25.2784 6.90748 25.2906 6.84862 25.2906C6.74344 25.2906 6.66064 25.2478 6.6002 25.1623C6.53898 25.0767 6.50837 24.9594 6.50837 24.8103C6.50837 24.6713 6.53663 24.5356 6.59314 24.4029L6.75208 24.4724C6.6987 24.6019 6.67202 24.7192 6.67202 24.8244C6.67202 24.917 6.68654 24.9869 6.71558 25.034C6.74462 25.0811 6.78465 25.1046 6.83567 25.1046C6.8702 25.1046 6.89963 25.096 6.92397 25.0787C6.9483 25.0606 6.97145 25.032 6.99343 24.9928C7.0154 24.9535 7.04719 24.8782 7.08879 24.7667C7.14452 24.6137 7.20064 24.5104 7.25715 24.4571C7.31366 24.4029 7.38469 24.3758 7.47024 24.3758ZM7.84581 23.5117C7.84581 23.7024 7.78773 23.8531 7.67157 23.9638C7.5554 24.0737 7.39411 24.1286 7.18769 24.1286C6.97969 24.1286 6.81447 24.0776 6.69203 23.9755C6.56959 23.8727 6.50837 23.735 6.50837 23.5623C6.50837 23.4006 6.56174 23.2727 6.66849 23.1785C6.77445 23.0843 6.91455 23.0372 7.08879 23.0372L7.21241 23.0372L7.21241 23.9261C7.36389 23.9222 7.47888 23.8841 7.55737 23.8119C7.63586 23.7389 7.6751 23.6365 7.6751 23.5046C7.6751 23.3657 7.64606 23.2283 7.58798 23.0925L7.76222 23.0925C7.79205 23.1616 7.81324 23.2272 7.8258 23.2892C7.83914 23.3504 7.84581 23.4246 7.84581 23.5117ZM6.67202 23.5647C6.67202 23.6683 6.70577 23.7511 6.77327 23.8131C6.84077 23.8743 6.93417 23.9104 7.05347 23.9214L7.05347 23.2468C6.93024 23.2468 6.83606 23.2743 6.77091 23.3292C6.70498 23.3841 6.67202 23.4626 6.67202 23.5647ZM6.50837 22.1142C6.50837 22.0569 6.51308 22.0055 6.5225 21.96L6.70381 21.987C6.69203 22.0404 6.68615 22.0875 6.68615 22.1283C6.68615 22.2327 6.72853 22.3222 6.8133 22.3967C6.89806 22.4705 7.00363 22.5074 7.13 22.5074L7.82226 22.5074L7.82226 22.7029L6.53192 22.7029L6.53192 22.5416L6.77091 22.5192L6.77091 22.5098C6.68693 22.4619 6.62218 22.4042 6.57665 22.3367C6.53113 22.2692 6.50837 22.195 6.50837 22.1142ZM7.47024 20.8862C7.59033 20.8862 7.68295 20.931 7.74809 21.0205C7.81324 21.1099 7.84581 21.2355 7.84581 21.3972C7.84581 21.5683 7.81873 21.7017 7.76458 21.7975L7.58327 21.7975C7.61466 21.7355 7.63939 21.6692 7.65744 21.5985C7.67549 21.5271 7.68452 21.4584 7.68452 21.3925C7.68452 21.2905 7.66843 21.212 7.63625 21.157C7.60328 21.1021 7.55344 21.0746 7.48673 21.0746C7.43649 21.0746 7.39372 21.0966 7.3584 21.1405C7.32229 21.1837 7.27991 21.2685 7.23125 21.3948C7.18651 21.5149 7.14766 21.6005 7.11469 21.6515C7.08094 21.7017 7.04288 21.7394 7.00049 21.7645C6.95811 21.7889 6.90748 21.801 6.84862 21.801C6.74344 21.801 6.66064 21.7582 6.6002 21.6727C6.53898 21.5871 6.50837 21.4698 6.50837 21.3207C6.50837 21.1817 6.53663 21.046 6.59314 20.9133L6.75208 20.9828C6.6987 21.1123 6.67202 21.2296 6.67202 21.3348C6.67202 21.4274 6.68654 21.4973 6.71558 21.5444C6.74462 21.5915 6.78465 21.615 6.83567 21.615C6.8702 21.615 6.89963 21.6064 6.92397 21.5891C6.9483 21.5711 6.97145 21.5424 6.99343 21.5032C7.0154 21.4639 7.04719 21.3886 7.08879 21.2771C7.14452 21.1241 7.20064 21.0208 7.25715 20.9675C7.31366 20.9133 7.38469 20.8862 7.47024 20.8862Z" fill="#383B41"/>
<rect x="29.3359" y="42.0854" width="6.42977" height="5.22419" fill="#F56C6C"/>
<rect x="111.315" y="42.0854" width="6.42977" height="5.22419" fill="#F56C6C"/>
<rect x="193.094" y="42.0854" width="6.42977" height="5.22419" fill="#F56C6C"/>
<rect x="29.3359" y="36.5842" width="6.42977" height="5.22419" fill="#FD4D4D"/>
<rect x="111.315" y="36.5842" width="6.42977" height="5.22419" fill="#FD4D4D"/>
<rect x="193.094" y="36.5842" width="6.42977" height="5.22419" fill="#FD4D4D"/>
<rect x="29.3359" y="31.0833" width="6.42977" height="5.22419" fill="#B83A3A"/>
<rect x="111.315" y="31.0833" width="6.42977" height="5.22419" fill="#B83A3A"/>
<rect x="193.094" y="31.0833" width="6.42977" height="5.22419" fill="#B83A3A"/>
<rect x="29.3359" y="25.5823" width="6.42977" height="5.22419" fill="#801717"/>
<rect x="111.315" y="25.5823" width="6.42977" height="5.22419" fill="#801717"/>
<rect x="193.094" y="25.5823" width="6.42977" height="5.22419" fill="#801717"/>
<path d="M108.428 57.9939L107.844 56.4681H107.835C107.846 56.589 107.851 56.7326 107.851 56.899V57.9939H107.666V56.2726H107.968L108.513 57.6925H108.522L109.072 56.2726H109.371V57.9939H109.171V56.8849C109.171 56.7577 109.176 56.6196 109.187 56.4704H109.178L108.589 57.9939H108.428ZM110.929 57.3475C110.929 57.5579 110.876 57.7223 110.77 57.8408C110.664 57.9586 110.517 58.0174 110.331 58.0174C110.215 58.0174 110.113 57.9904 110.023 57.9362C109.934 57.8821 109.865 57.8043 109.816 57.7031C109.767 57.6018 109.743 57.4833 109.743 57.3475C109.743 57.1372 109.796 56.9735 109.901 56.8566C110.006 56.7389 110.152 56.68 110.339 56.68C110.519 56.68 110.663 56.74 110.769 56.8601C110.875 56.9802 110.929 57.1427 110.929 57.3475ZM109.946 57.3475C109.946 57.5124 109.979 57.638 110.045 57.7243C110.11 57.8106 110.207 57.8538 110.335 57.8538C110.463 57.8538 110.56 57.811 110.626 57.7255C110.693 57.6391 110.726 57.5132 110.726 57.3475C110.726 57.1835 110.693 57.0591 110.626 56.9743C110.56 56.8888 110.462 56.846 110.333 56.846C110.205 56.846 110.108 56.888 110.043 56.972C109.978 57.056 109.946 57.1811 109.946 57.3475ZM112.155 57.9939V57.1592C112.155 57.054 112.132 56.9755 112.084 56.9237C112.036 56.8719 111.961 56.846 111.859 56.846C111.724 56.846 111.625 56.8825 111.562 56.9555C111.499 57.0285 111.468 57.149 111.468 57.3169V57.9939H111.272V56.7035H111.431L111.463 56.8801H111.473C111.513 56.8166 111.569 56.7675 111.641 56.733C111.713 56.6977 111.794 56.68 111.882 56.68C112.038 56.68 112.155 56.7177 112.233 56.793C112.312 56.8676 112.351 56.9873 112.351 57.1521V57.9939H112.155ZM113.17 57.8561C113.205 57.8561 113.238 57.8538 113.27 57.8491C113.303 57.8436 113.328 57.8381 113.347 57.8326V57.9821C113.326 57.9923 113.294 58.0006 113.253 58.0068C113.212 58.0139 113.175 58.0174 113.142 58.0174C112.892 58.0174 112.768 57.886 112.768 57.623V56.8554H112.583V56.7612L112.768 56.68L112.85 56.4045H112.963V56.7035H113.338V56.8554H112.963V57.6148C112.963 57.6925 112.982 57.7522 113.018 57.7938C113.055 57.8353 113.106 57.8561 113.17 57.8561ZM114.489 57.9939V57.1592C114.489 57.054 114.465 56.9755 114.417 56.9237C114.369 56.8719 114.294 56.846 114.192 56.846C114.056 56.846 113.957 56.8829 113.894 56.9567C113.832 57.0305 113.801 57.1513 113.801 57.3193V57.9939H113.606V56.162H113.801V56.7165C113.801 56.7832 113.798 56.8385 113.792 56.8825H113.804C113.842 56.8205 113.897 56.7718 113.967 56.7365C114.039 56.7004 114.12 56.6824 114.211 56.6824C114.369 56.6824 114.487 56.72 114.565 56.7954C114.645 56.8699 114.684 56.9889 114.684 57.1521V57.9939H114.489ZM115.74 56.2726L115.099 57.9939H114.903L115.545 56.2726H115.74ZM116.44 57.1333L116.899 56.2726H117.116L116.541 57.3264V57.9939H116.339V57.3358L115.765 56.2726H115.984L116.44 57.1333ZM117.869 58.0174C117.678 58.0174 117.528 57.9594 117.417 57.8432C117.307 57.727 117.252 57.5657 117.252 57.3593C117.252 57.1513 117.303 56.9861 117.405 56.8637C117.508 56.7412 117.646 56.68 117.818 56.68C117.98 56.68 118.108 56.7334 118.202 56.8401C118.296 56.9461 118.343 57.0862 118.343 57.2604V57.384H117.455C117.459 57.5355 117.497 57.6505 117.569 57.729C117.642 57.8075 117.744 57.8467 117.876 57.8467C118.015 57.8467 118.152 57.8177 118.288 57.7596V57.9339C118.219 57.9637 118.154 57.9849 118.092 57.9974C118.03 58.0108 117.956 58.0174 117.869 58.0174ZM117.816 56.8436C117.712 56.8436 117.63 56.8774 117.568 56.9449C117.506 57.0124 117.47 57.1058 117.459 57.2251H118.134C118.134 57.1019 118.106 57.0077 118.052 56.9425C117.997 56.8766 117.918 56.8436 117.816 56.8436ZM119.471 57.9939L119.433 57.8102H119.423C119.359 57.8911 119.294 57.946 119.23 57.9751C119.166 58.0033 119.087 58.0174 118.991 58.0174C118.863 58.0174 118.763 57.9845 118.69 57.9185C118.617 57.8526 118.581 57.7588 118.581 57.6372C118.581 57.3766 118.79 57.24 119.206 57.2275L119.425 57.2204V57.1403C119.425 57.0391 119.403 56.9645 119.36 56.9166C119.316 56.868 119.247 56.8436 119.151 56.8436C119.044 56.8436 118.922 56.8766 118.786 56.9425L118.726 56.793C118.79 56.7585 118.859 56.7314 118.935 56.7118C119.011 56.6922 119.087 56.6824 119.163 56.6824C119.317 56.6824 119.431 56.7165 119.504 56.7848C119.579 56.8531 119.616 56.9626 119.616 57.1133V57.9939H119.471ZM119.03 57.8561C119.152 57.8561 119.247 57.8228 119.316 57.7561C119.386 57.6894 119.421 57.596 119.421 57.4759V57.3593L119.225 57.3676C119.07 57.3731 118.958 57.3974 118.889 57.4406C118.82 57.4829 118.786 57.5493 118.786 57.6395C118.786 57.7102 118.807 57.7639 118.85 57.8008C118.893 57.8377 118.953 57.8561 119.03 57.8561ZM120.609 56.68C120.666 56.68 120.717 56.6847 120.763 56.6941L120.736 56.8754C120.682 56.8637 120.635 56.8578 120.595 56.8578C120.49 56.8578 120.401 56.9002 120.326 56.9849C120.252 57.0697 120.215 57.1753 120.215 57.3016V57.9939H120.02V56.7035H120.181L120.204 56.9425H120.213C120.261 56.8586 120.319 56.7938 120.386 56.7483C120.454 56.7028 120.528 56.68 120.609 56.68Z" fill="#383B41"/>
</svg>
