<svg width="216" height="64" viewBox="0 0 216 64" fill="none" xmlns="http://www.w3.org/2000/svg">
<rect width="216" height="63.2791" fill="white"/>
<circle cx="69.2669" cy="4.71486" r="1.40651" fill="#43A047"/>
<path d="M73.0587 5.21484H72.8279L71.8896 3.76909H71.8802C71.8825 3.80755 71.8853 3.8515 71.8884 3.90095C71.8916 3.94961 71.8939 4.00181 71.8955 4.05753C71.8978 4.11247 71.899 4.16859 71.899 4.22589V5.21484H71.713V3.49359H71.9426L72.8774 4.93464H72.8856C72.8841 4.90717 72.8821 4.86832 72.8797 4.81809C72.8774 4.76707 72.875 4.71252 72.8727 4.65444C72.8711 4.59557 72.8703 4.54102 72.8703 4.49079V3.49359L73.0587 3.49359V5.21484ZM74.6116 4.56731C74.6116 4.67327 74.5978 4.76785 74.5704 4.85105C74.5429 4.93425 74.5033 5.00449 74.4515 5.06179C74.3997 5.11909 74.3369 5.16304 74.2631 5.19365C74.1901 5.22348 74.1073 5.23839 74.0147 5.23839C73.9283 5.23839 73.8491 5.22348 73.7769 5.19365C73.7054 5.16304 73.6434 5.11909 73.5908 5.06179C73.539 5.00449 73.4986 4.93425 73.4696 4.85105C73.4413 4.76785 73.4272 4.67327 73.4272 4.56731C73.4272 4.42604 73.4511 4.30595 73.499 4.20705C73.5469 4.10737 73.6152 4.03163 73.7039 3.97983C73.7933 3.92724 73.8997 3.90095 74.0229 3.90095C74.1406 3.90095 74.2435 3.92724 74.3314 3.97983C74.4201 4.03242 74.4887 4.10855 74.5374 4.20823C74.5869 4.30713 74.6116 4.42682 74.6116 4.56731ZM73.6297 4.56731C73.6297 4.67092 73.6434 4.76079 73.6709 4.83692C73.6984 4.91306 73.7408 4.97192 73.798 5.01352C73.8553 5.05512 73.9291 5.07592 74.0194 5.07592C74.1089 5.07592 74.1822 5.05512 74.2395 5.01352C74.2976 4.97192 74.3404 4.91306 74.3679 4.83692C74.3953 4.76079 74.4091 4.67092 74.4091 4.56731C74.4091 4.46449 74.3953 4.3758 74.3679 4.30124C74.3404 4.22589 74.298 4.16781 74.2407 4.12699C74.1834 4.08618 74.1093 4.06577 74.0182 4.06577C73.884 4.06577 73.7855 4.11012 73.7227 4.19881C73.6607 4.2875 73.6297 4.41034 73.6297 4.56731ZM75.3662 5.07827C75.3984 5.07827 75.4314 5.07553 75.4651 5.07003C75.4989 5.06454 75.5264 5.05787 75.5476 5.05002V5.20189C75.5248 5.2121 75.493 5.22073 75.4522 5.22779C75.4122 5.23486 75.3729 5.23839 75.3345 5.23839C75.2662 5.23839 75.2042 5.22662 75.1484 5.20307C75.0927 5.17874 75.048 5.13793 75.0142 5.08063C74.9813 5.02333 74.9648 4.94406 74.9648 4.84281V4.07755H74.7811V3.98218L74.966 3.90566L75.0437 3.62545H75.1614V3.9245L75.5393 3.9245V4.07755H75.1614V4.83692C75.1614 4.91777 75.1798 4.9782 75.2167 5.01823C75.2544 5.05826 75.3042 5.07827 75.3662 5.07827ZM76.9297 3.49359C77.071 3.49359 77.1876 3.51125 77.2794 3.54657C77.372 3.58111 77.4411 3.63409 77.4866 3.70551C77.5321 3.77694 77.5549 3.86798 77.5549 3.97865C77.5549 4.0697 77.5384 4.14583 77.5054 4.20705C77.4725 4.26749 77.4293 4.31654 77.3759 4.35422C77.3226 4.39189 77.2657 4.42093 77.2052 4.44134L77.6773 5.21484H77.4442L77.0227 4.49668H76.6648V5.21484H76.4647V3.49359H76.9297ZM76.918 3.66666H76.6648V4.32714H76.938C77.0785 4.32714 77.1817 4.29849 77.2476 4.2412C77.3143 4.1839 77.3477 4.09952 77.3477 3.98807C77.3477 3.87112 77.3124 3.78832 77.2417 3.73965C77.1719 3.69099 77.0639 3.66666 76.918 3.66666ZM78.4202 3.90095C78.5301 3.90095 78.6243 3.92528 78.7028 3.97394C78.7813 4.02261 78.8413 4.09089 78.8829 4.1788C78.9245 4.26592 78.9453 4.36795 78.9453 4.4849V4.60617H78.0541C78.0564 4.75765 78.0941 4.87303 78.1671 4.9523C78.2401 5.03157 78.3429 5.07121 78.4756 5.07121C78.5572 5.07121 78.6294 5.06375 78.6922 5.04884C78.755 5.03393 78.8201 5.01195 78.8876 4.98291V5.1548C78.8225 5.18384 78.7577 5.20503 78.6934 5.21838C78.6298 5.23172 78.5544 5.23839 78.4673 5.23839C78.3433 5.23839 78.235 5.21327 78.1424 5.16304C78.0505 5.11202 77.9791 5.03746 77.9281 4.93935C77.8771 4.84124 77.8516 4.72115 77.8516 4.57909C77.8516 4.44016 77.8747 4.32008 77.921 4.21883C77.9681 4.11679 78.0341 4.0383 78.1188 3.98336C78.2044 3.92842 78.3048 3.90095 78.4202 3.90095ZM78.4179 4.06106C78.3135 4.06106 78.2303 4.09521 78.1683 4.16349C78.1063 4.23178 78.0694 4.32714 78.0576 4.44958H78.7405C78.7397 4.37266 78.7275 4.30516 78.704 4.24708C78.6812 4.18822 78.6463 4.14269 78.5992 4.11051C78.5521 4.07755 78.4917 4.06106 78.4179 4.06106ZM80.112 4.86165C80.112 4.94406 80.0912 5.01352 80.0496 5.07003C80.0088 5.12576 79.95 5.16775 79.873 5.19601C79.7969 5.22426 79.7059 5.23839 79.5999 5.23839C79.5096 5.23839 79.4315 5.23133 79.3656 5.2172C79.2997 5.20307 79.242 5.18306 79.1926 5.15715V4.97702C79.2451 5.00293 79.3079 5.02647 79.3809 5.04766C79.4539 5.06886 79.5285 5.07945 79.6046 5.07945C79.7161 5.07945 79.7969 5.0614 79.8471 5.02529C79.8974 4.98919 79.9225 4.94013 79.9225 4.87813C79.9225 4.84281 79.9123 4.81181 79.8919 4.78512C79.8723 4.75765 79.8389 4.73136 79.7918 4.70624C79.7447 4.68034 79.6796 4.65208 79.5964 4.62147C79.514 4.59008 79.4425 4.55907 79.3821 4.52846C79.3225 4.49707 79.2761 4.459 79.2432 4.41426C79.211 4.36952 79.1949 4.31144 79.1949 4.24002C79.1949 4.13092 79.2389 4.04733 79.3268 3.98925C79.4155 3.93038 79.5316 3.90095 79.6753 3.90095C79.753 3.90095 79.8256 3.9088 79.8931 3.9245C79.9613 3.93941 80.0249 3.95981 80.0838 3.98572L80.0179 4.1423C79.9645 4.11954 79.9076 4.10031 79.8471 4.08461C79.7867 4.06891 79.7251 4.06106 79.6623 4.06106C79.572 4.06106 79.5026 4.07598 79.4539 4.1058C79.406 4.13563 79.3821 4.17644 79.3821 4.22824C79.3821 4.26827 79.3931 4.30124 79.4151 4.32714C79.4378 4.35304 79.4739 4.37737 79.5234 4.40013C79.5728 4.4229 79.638 4.44958 79.7188 4.48019C79.7997 4.51002 79.8695 4.54102 79.9284 4.5732C79.9872 4.6046 80.0324 4.64306 80.0638 4.68858C80.096 4.73332 80.112 4.79101 80.112 4.86165ZM81.0327 3.90095C81.1936 3.90095 81.3219 3.95628 81.4177 4.06695C81.5135 4.17762 81.5613 4.34402 81.5613 4.56614C81.5613 4.71291 81.5394 4.83614 81.4954 4.93582C81.4514 5.0355 81.3894 5.11085 81.3094 5.16186C81.2301 5.21288 81.1363 5.23839 81.028 5.23839C80.9597 5.23839 80.8997 5.22936 80.8479 5.21131C80.7961 5.19326 80.7517 5.16893 80.7148 5.13832C80.6779 5.10771 80.6473 5.07435 80.623 5.03824H80.6089C80.6112 5.06886 80.614 5.10574 80.6171 5.14891C80.621 5.19208 80.623 5.22976 80.623 5.26194V5.79173H80.4264V3.9245H80.5877L80.6136 4.11522H80.623C80.6481 4.07598 80.6787 4.04027 80.7148 4.00809C80.7509 3.97512 80.7949 3.94922 80.8467 3.93038C80.8993 3.91076 80.9613 3.90095 81.0327 3.90095ZM80.9986 4.06577C80.9091 4.06577 80.8369 4.08304 80.7819 4.11758C80.7278 4.15211 80.6881 4.20391 80.663 4.27298C80.6379 4.34127 80.6246 4.42721 80.623 4.53082V4.56849C80.623 4.67759 80.6348 4.76981 80.6583 4.84516C80.6827 4.92051 80.7223 4.97781 80.7772 5.01705C80.833 5.0563 80.9075 5.07592 81.0009 5.07592C81.081 5.07592 81.1477 5.05434 81.2011 5.01117C81.2544 4.968 81.2941 4.90795 81.32 4.83104C81.3467 4.75333 81.36 4.66425 81.36 4.56378C81.36 4.41152 81.3302 4.29064 81.2705 4.20117C81.2117 4.1109 81.121 4.06577 80.9986 4.06577ZM83.0153 4.56731C83.0153 4.67327 83.0016 4.76785 82.9741 4.85105C82.9467 4.93425 82.907 5.00449 82.8552 5.06179C82.8034 5.11909 82.7406 5.16304 82.6668 5.19365C82.5938 5.22348 82.511 5.23839 82.4184 5.23839C82.3321 5.23839 82.2528 5.22348 82.1806 5.19365C82.1092 5.16304 82.0472 5.11909 81.9946 5.06179C81.9428 5.00449 81.9024 4.93425 81.8733 4.85105C81.8451 4.76785 81.8309 4.67327 81.8309 4.56731C81.8309 4.42604 81.8549 4.30595 81.9028 4.20705C81.9506 4.10737 82.0189 4.03163 82.1076 3.97983C82.1971 3.92724 82.3034 3.90095 82.4267 3.90095C82.5444 3.90095 82.6472 3.92724 82.7351 3.97983C82.8238 4.03242 82.8925 4.10855 82.9412 4.20823C82.9906 4.30713 83.0153 4.42682 83.0153 4.56731ZM82.0334 4.56731C82.0334 4.67092 82.0472 4.76079 82.0746 4.83692C82.1021 4.91306 82.1445 4.97192 82.2018 5.01352C82.2591 5.05512 82.3329 5.07592 82.4231 5.07592C82.5126 5.07592 82.586 5.05512 82.6433 5.01352C82.7014 4.97192 82.7442 4.91306 82.7716 4.83692C82.7991 4.76079 82.8128 4.67092 82.8128 4.56731C82.8128 4.46449 82.7991 4.3758 82.7716 4.30124C82.7442 4.22589 82.7018 4.16781 82.6445 4.12699C82.5872 4.08618 82.513 4.06577 82.422 4.06577C82.2877 4.06577 82.1892 4.11012 82.1264 4.19881C82.0644 4.2875 82.0334 4.41034 82.0334 4.56731ZM83.9643 3.90095C84.1173 3.90095 84.2331 3.93862 84.3116 4.01397C84.3901 4.08854 84.4293 4.20862 84.4293 4.37423V5.21484H84.2362V4.38718C84.2362 4.27965 84.2115 4.1992 84.162 4.14583C84.1134 4.09246 84.0384 4.06577 83.9372 4.06577C83.7943 4.06577 83.6939 4.1062 83.6358 4.18704C83.5777 4.26788 83.5487 4.38522 83.5487 4.53906V5.21484H83.3532V3.9245H83.511L83.5404 4.11051H83.551C83.5785 4.06499 83.6134 4.02692 83.6558 3.99631C83.6982 3.96492 83.7457 3.94137 83.7983 3.92567C83.8508 3.90919 83.9062 3.90095 83.9643 3.90095ZM85.2911 5.23839C85.1278 5.23839 84.9983 5.18266 84.9026 5.07121C84.8076 4.95976 84.7601 4.79415 84.7601 4.57438C84.7601 4.35226 84.8088 4.18468 84.9061 4.07166C85.0034 3.95785 85.1329 3.90095 85.2946 3.90095C85.3629 3.90095 85.4226 3.90997 85.4736 3.92803C85.5246 3.94608 85.5686 3.97041 85.6054 4.00102C85.6423 4.03085 85.6733 4.06499 85.6985 4.10345H85.7126C85.7094 4.07912 85.7063 4.04576 85.7032 4.00338C85.7 3.96099 85.6985 3.92646 85.6985 3.89977V3.38293H85.8939V5.21484H85.7361L85.7067 5.03118H85.6985C85.6741 5.06964 85.6431 5.10457 85.6054 5.13596C85.5686 5.16736 85.5242 5.19247 85.4724 5.21131C85.4214 5.22936 85.361 5.23839 85.2911 5.23839ZM85.3217 5.07592C85.4598 5.07592 85.5576 5.03668 85.6149 4.95819C85.6722 4.8797 85.7008 4.76314 85.7008 4.60852V4.5732C85.7008 4.40916 85.6733 4.28319 85.6184 4.19528C85.5642 4.10737 85.4653 4.06342 85.3217 4.06342C85.2016 4.06342 85.1118 4.10973 85.0521 4.20234C84.9925 4.29418 84.9626 4.41976 84.9626 4.57909C84.9626 4.73763 84.9921 4.86008 85.0509 4.94641C85.1106 5.03275 85.2008 5.07592 85.3217 5.07592ZM86.8051 3.90095C86.915 3.90095 87.0092 3.92528 87.0877 3.97394C87.1662 4.02261 87.2262 4.09089 87.2678 4.1788C87.3094 4.26592 87.3302 4.36795 87.3302 4.4849V4.60617H86.439C86.4413 4.75765 86.479 4.87303 86.552 4.9523C86.625 5.03157 86.7278 5.07121 86.8605 5.07121C86.9421 5.07121 87.0143 5.06375 87.0771 5.04884C87.1399 5.03393 87.205 5.01195 87.2725 4.98291V5.1548C87.2074 5.18384 87.1426 5.20503 87.0783 5.21838C87.0147 5.23172 86.9394 5.23839 86.8522 5.23839C86.7282 5.23839 86.6199 5.21327 86.5273 5.16304C86.4355 5.11202 86.364 5.03746 86.313 4.93935C86.262 4.84124 86.2365 4.72115 86.2365 4.57909C86.2365 4.44016 86.2596 4.32008 86.306 4.21883C86.353 4.11679 86.419 4.0383 86.5037 3.98336C86.5893 3.92842 86.6898 3.90095 86.8051 3.90095ZM86.8028 4.06106C86.6984 4.06106 86.6152 4.09521 86.5532 4.16349C86.4912 4.23178 86.4543 4.32714 86.4425 4.44958H87.1254C87.1246 4.37266 87.1124 4.30516 87.0889 4.24708C87.0661 4.18822 87.0312 4.14269 86.9841 4.11051C86.937 4.07755 86.8766 4.06106 86.8028 4.06106ZM88.1214 5.23839C87.9581 5.23839 87.8286 5.18266 87.7329 5.07121C87.6379 4.95976 87.5904 4.79415 87.5904 4.57438C87.5904 4.35226 87.6391 4.18468 87.7364 4.07166C87.8337 3.95785 87.9632 3.90095 88.1249 3.90095C88.1932 3.90095 88.2529 3.90997 88.3039 3.92803C88.3549 3.94608 88.3988 3.97041 88.4357 4.00102C88.4726 4.03085 88.5036 4.06499 88.5287 4.10345H88.5429C88.5397 4.07912 88.5366 4.04576 88.5335 4.00338C88.5303 3.96099 88.5287 3.92646 88.5287 3.89977V3.38293H88.7242V5.21484H88.5664L88.537 5.03118H88.5287C88.5044 5.06964 88.4734 5.10457 88.4357 5.13596C88.3988 5.16736 88.3545 5.19247 88.3027 5.21131C88.2517 5.22936 88.1912 5.23839 88.1214 5.23839ZM88.152 5.07592C88.2901 5.07592 88.3879 5.03668 88.4452 4.95819C88.5025 4.8797 88.5311 4.76314 88.5311 4.60852V4.5732C88.5311 4.40916 88.5036 4.28319 88.4487 4.19528C88.3945 4.10737 88.2956 4.06342 88.152 4.06342C88.0319 4.06342 87.942 4.10973 87.8824 4.20234C87.8227 4.29418 87.7929 4.41976 87.7929 4.57909C87.7929 4.73763 87.8223 4.86008 87.8812 4.94641C87.9409 5.03275 88.0311 5.07592 88.152 5.07592ZM91.0965 3.49359V4.60734C91.0965 4.729 91.0718 4.83731 91.0223 4.93229C90.9737 5.02726 90.8999 5.10221 90.801 5.15715C90.7021 5.21131 90.5781 5.23839 90.4289 5.23839C90.2162 5.23839 90.0542 5.1807 89.9427 5.06532C89.832 4.94995 89.7767 4.79572 89.7767 4.60263V3.49359H89.978V4.60852C89.978 4.75451 90.0165 4.86714 90.0934 4.94641C90.1711 5.02569 90.2869 5.06532 90.4407 5.06532C90.5459 5.06532 90.6318 5.04649 90.6986 5.00881C90.7661 4.97035 90.8159 4.91698 90.8481 4.8487C90.881 4.77963 90.8975 4.69996 90.8975 4.6097V3.49359H91.0965ZM92.3586 4.86165C92.3586 4.94406 92.3378 5.01352 92.2962 5.07003C92.2554 5.12576 92.1965 5.16775 92.1196 5.19601C92.0435 5.22426 91.9524 5.23839 91.8464 5.23839C91.7562 5.23839 91.6781 5.23133 91.6122 5.2172C91.5462 5.20307 91.4885 5.18306 91.4391 5.15715V4.97702C91.4917 5.00293 91.5545 5.02647 91.6275 5.04766C91.7005 5.06886 91.775 5.07945 91.8512 5.07945C91.9626 5.07945 92.0435 5.0614 92.0937 5.02529C92.1439 4.98919 92.169 4.94013 92.169 4.87813C92.169 4.84281 92.1588 4.81181 92.1384 4.78512C92.1188 4.75765 92.0854 4.73136 92.0384 4.70624C91.9913 4.68034 91.9261 4.65208 91.8429 4.62147C91.7605 4.59008 91.6891 4.55907 91.6286 4.52846C91.569 4.49707 91.5227 4.459 91.4897 4.41426C91.4575 4.36952 91.4414 4.31144 91.4414 4.24002C91.4414 4.13092 91.4854 4.04733 91.5733 3.98925C91.662 3.93038 91.7782 3.90095 91.9218 3.90095C91.9995 3.90095 92.0721 3.9088 92.1396 3.9245C92.2079 3.93941 92.2715 3.95981 92.3303 3.98572L92.2644 4.1423C92.211 4.11954 92.1541 4.10031 92.0937 4.08461C92.0332 4.06891 91.9716 4.06106 91.9088 4.06106C91.8186 4.06106 91.7491 4.07598 91.7005 4.1058C91.6526 4.13563 91.6286 4.17644 91.6286 4.22824C91.6286 4.26827 91.6396 4.30124 91.6616 4.32714C91.6844 4.35304 91.7205 4.37737 91.7699 4.40013C91.8194 4.4229 91.8845 4.44958 91.9654 4.48019C92.0462 4.51002 92.1161 4.54102 92.1749 4.5732C92.2338 4.6046 92.2789 4.64306 92.3103 4.68858C92.3425 4.73332 92.3586 4.79101 92.3586 4.86165ZM93.1698 3.90095C93.2796 3.90095 93.3738 3.92528 93.4523 3.97394C93.5308 4.02261 93.5909 4.09089 93.6325 4.1788C93.674 4.26592 93.6948 4.36795 93.6948 4.4849V4.60617H92.8036C92.806 4.75765 92.8436 4.87303 92.9166 4.9523C92.9896 5.03157 93.0925 5.07121 93.2251 5.07121C93.3067 5.07121 93.3789 5.06375 93.4417 5.04884C93.5045 5.03393 93.5697 5.01195 93.6372 4.98291V5.1548C93.572 5.18384 93.5073 5.20503 93.4429 5.21838C93.3793 5.23172 93.304 5.23839 93.2169 5.23839C93.0928 5.23839 92.9845 5.21327 92.8919 5.16304C92.8001 5.11202 92.7287 5.03746 92.6776 4.93935C92.6266 4.84124 92.6011 4.72115 92.6011 4.57909C92.6011 4.44016 92.6243 4.32008 92.6706 4.21883C92.7177 4.11679 92.7836 4.0383 92.8684 3.98336C92.9539 3.92842 93.0544 3.90095 93.1698 3.90095ZM93.1674 4.06106C93.063 4.06106 92.9798 4.09521 92.9178 4.16349C92.8558 4.23178 92.8189 4.32714 92.8071 4.44958H93.49C93.4892 4.37266 93.477 4.30516 93.4535 4.24708C93.4307 4.18822 93.3958 4.14269 93.3487 4.11051C93.3016 4.07755 93.2412 4.06106 93.1674 4.06106ZM94.6132 3.90095C94.6391 3.90095 94.6661 3.90252 94.6944 3.90566C94.7227 3.90801 94.7478 3.91154 94.7697 3.91625L94.745 4.09756C94.7238 4.09207 94.7003 4.08775 94.6744 4.08461C94.6485 4.08147 94.6242 4.0799 94.6014 4.0799C94.5496 4.0799 94.5005 4.0905 94.4542 4.11169C94.4087 4.1321 94.3687 4.16192 94.3341 4.20117C94.2996 4.23963 94.2725 4.28633 94.2529 4.34127C94.2333 4.39543 94.2235 4.45586 94.2235 4.52258V5.21484H94.0269V3.9245H94.1893L94.2105 4.16231H94.2188C94.2454 4.11444 94.2776 4.07088 94.3153 4.03163C94.353 3.9916 94.3965 3.95981 94.446 3.93627C94.4962 3.91272 94.5519 3.90095 94.6132 3.90095ZM95.8482 4.86165C95.8482 4.94406 95.8274 5.01352 95.7858 5.07003C95.745 5.12576 95.6861 5.16775 95.6092 5.19601C95.533 5.22426 95.442 5.23839 95.336 5.23839C95.2458 5.23839 95.1677 5.23133 95.1018 5.2172C95.0358 5.20307 94.9781 5.18306 94.9287 5.15715V4.97702C94.9813 5.00293 95.0441 5.02647 95.1171 5.04766C95.1901 5.06886 95.2646 5.07945 95.3407 5.07945C95.4522 5.07945 95.533 5.0614 95.5833 5.02529C95.6335 4.98919 95.6586 4.94013 95.6586 4.87813C95.6586 4.84281 95.6484 4.81181 95.628 4.78512C95.6084 4.75765 95.575 4.73136 95.5279 4.70624C95.4809 4.68034 95.4157 4.65208 95.3325 4.62147C95.2501 4.59008 95.1787 4.55907 95.1182 4.52846C95.0586 4.49707 95.0123 4.459 94.9793 4.41426C94.9471 4.36952 94.931 4.31144 94.931 4.24002C94.931 4.13092 94.975 4.04733 95.0629 3.98925C95.1516 3.93038 95.2678 3.90095 95.4114 3.90095C95.4891 3.90095 95.5617 3.9088 95.6292 3.9245C95.6975 3.93941 95.7611 3.95981 95.8199 3.98572L95.754 4.1423C95.7006 4.11954 95.6437 4.10031 95.5833 4.08461C95.5228 4.06891 95.4612 4.06106 95.3984 4.06106C95.3082 4.06106 95.2387 4.07598 95.1901 4.1058C95.1422 4.13563 95.1182 4.17644 95.1182 4.22824C95.1182 4.26827 95.1292 4.30124 95.1512 4.32714C95.174 4.35304 95.2101 4.37737 95.2595 4.40013C95.309 4.4229 95.3741 4.44958 95.4549 4.48019C95.5358 4.51002 95.6056 4.54102 95.6645 4.5732C95.7234 4.6046 95.7685 4.64306 95.7999 4.68858C95.8321 4.73332 95.8482 4.79101 95.8482 4.86165Z" fill="#383B41"/>
<circle cx="101.099" cy="4.71486" r="1.40651" fill="#00BCD4"/>
<path d="M104.074 5.21484H103.872V3.67019H103.331V3.49359H104.613V3.67019H104.074V5.21484ZM105.956 4.56731C105.956 4.67327 105.942 4.76785 105.915 4.85105C105.888 4.93425 105.848 5.00449 105.796 5.06179C105.744 5.11909 105.681 5.16304 105.608 5.19365C105.535 5.22348 105.452 5.23839 105.359 5.23839C105.273 5.23839 105.194 5.22348 105.121 5.19365C105.05 5.16304 104.988 5.11909 104.935 5.06179C104.884 5.00449 104.843 4.93425 104.814 4.85105C104.786 4.76785 104.772 4.67327 104.772 4.56731C104.772 4.42604 104.796 4.30595 104.844 4.20705C104.892 4.10737 104.96 4.03163 105.048 3.97983C105.138 3.92724 105.244 3.90095 105.368 3.90095C105.485 3.90095 105.588 3.92724 105.676 3.97983C105.765 4.03242 105.833 4.10855 105.882 4.20823C105.931 4.30713 105.956 4.42682 105.956 4.56731ZM104.974 4.56731C104.974 4.67092 104.988 4.76079 105.016 4.83692C105.043 4.91306 105.085 4.97192 105.143 5.01352C105.2 5.05512 105.274 5.07592 105.364 5.07592C105.453 5.07592 105.527 5.05512 105.584 5.01352C105.642 4.97192 105.685 4.91306 105.712 4.83692C105.74 4.76079 105.754 4.67092 105.754 4.56731C105.754 4.46449 105.74 4.3758 105.712 4.30124C105.685 4.22589 105.643 4.16781 105.585 4.12699C105.528 4.08618 105.454 4.06577 105.363 4.06577C105.229 4.06577 105.13 4.11012 105.067 4.19881C105.005 4.2875 104.974 4.41034 104.974 4.56731ZM106.711 5.07827C106.743 5.07827 106.776 5.07553 106.81 5.07003C106.844 5.06454 106.871 5.05787 106.892 5.05002V5.20189C106.869 5.2121 106.838 5.22073 106.797 5.22779C106.757 5.23486 106.718 5.23839 106.679 5.23839C106.611 5.23839 106.549 5.22662 106.493 5.20307C106.437 5.17874 106.393 5.13793 106.359 5.08063C106.326 5.02333 106.309 4.94406 106.309 4.84281V4.07755H106.126V3.98218L106.311 3.90566L106.388 3.62545H106.506V3.9245H106.884V4.07755H106.506V4.83692C106.506 4.91777 106.524 4.9782 106.561 5.01823C106.599 5.05826 106.649 5.07827 106.711 5.07827ZM107.636 3.9033C107.79 3.9033 107.904 3.93784 107.979 4.00691C108.053 4.07598 108.091 4.18625 108.091 4.33774V5.21484H107.948L107.911 5.02412H107.901C107.865 5.07121 107.827 5.11085 107.788 5.14303C107.749 5.17442 107.703 5.19836 107.652 5.21484C107.601 5.23054 107.538 5.23839 107.463 5.23839C107.385 5.23839 107.315 5.22465 107.254 5.19718C107.193 5.16971 107.145 5.12811 107.11 5.07239C107.075 5.01666 107.058 4.94602 107.058 4.86047C107.058 4.73175 107.109 4.63285 107.211 4.56378C107.313 4.49471 107.469 4.45704 107.677 4.45076L107.9 4.44134V4.36246C107.9 4.25101 107.876 4.17291 107.828 4.12817C107.78 4.08343 107.713 4.06106 107.626 4.06106C107.558 4.06106 107.494 4.07088 107.433 4.0905C107.371 4.11012 107.313 4.13327 107.258 4.15996L107.198 4.01162C107.256 3.98179 107.323 3.95628 107.398 3.93509C107.474 3.9139 107.553 3.9033 107.636 3.9033ZM107.898 4.57909L107.701 4.58733C107.54 4.59361 107.427 4.6199 107.361 4.66621C107.295 4.71252 107.262 4.77806 107.262 4.86282C107.262 4.9366 107.284 4.99115 107.329 5.02647C107.374 5.06179 107.433 5.07945 107.507 5.07945C107.621 5.07945 107.715 5.04766 107.788 4.98409C107.861 4.92051 107.898 4.82515 107.898 4.698V4.57909ZM108.69 5.21484H108.493V3.38293H108.69V5.21484ZM110.288 5.21484L110.086 5.21484V3.67019H109.545V3.49359L110.827 3.49359V3.67019L110.288 3.67019V5.21484ZM111.54 3.9033C111.694 3.9033 111.808 3.93784 111.883 4.00691C111.957 4.07598 111.995 4.18625 111.995 4.33774V5.21484H111.852L111.815 5.02412H111.805C111.769 5.07121 111.731 5.11085 111.692 5.14303C111.653 5.17442 111.607 5.19836 111.556 5.21484C111.505 5.23054 111.442 5.23839 111.367 5.23839C111.289 5.23839 111.219 5.22465 111.158 5.19718C111.097 5.16971 111.049 5.12811 111.014 5.07239C110.979 5.01666 110.962 4.94602 110.962 4.86047C110.962 4.73175 111.013 4.63285 111.115 4.56378C111.217 4.49471 111.373 4.45704 111.581 4.45076L111.804 4.44134V4.36246C111.804 4.25101 111.78 4.17291 111.732 4.12817C111.684 4.08343 111.617 4.06106 111.53 4.06106C111.462 4.06106 111.398 4.07088 111.337 4.0905C111.275 4.11012 111.217 4.13327 111.162 4.15996L111.102 4.01162C111.16 3.98179 111.227 3.95628 111.302 3.93509C111.378 3.9139 111.457 3.9033 111.54 3.9033ZM111.802 4.57909L111.605 4.58733C111.444 4.59361 111.331 4.6199 111.265 4.66621C111.199 4.71252 111.166 4.77806 111.166 4.86282C111.166 4.9366 111.188 4.99115 111.233 5.02647C111.278 5.06179 111.337 5.07945 111.411 5.07945C111.525 5.07945 111.619 5.04766 111.692 4.98409C111.765 4.92051 111.802 4.82515 111.802 4.698V4.57909ZM112.984 3.90095C113.01 3.90095 113.037 3.90252 113.065 3.90566C113.093 3.90801 113.118 3.91154 113.14 3.91625L113.116 4.09756C113.094 4.09207 113.071 4.08775 113.045 4.08461C113.019 4.08147 112.995 4.0799 112.972 4.0799C112.92 4.0799 112.871 4.0905 112.825 4.11169C112.779 4.1321 112.739 4.16192 112.705 4.20117C112.67 4.23963 112.643 4.28633 112.623 4.34127C112.604 4.39543 112.594 4.45586 112.594 4.52258V5.21484H112.397V3.9245H112.56L112.581 4.16231H112.589C112.616 4.11444 112.648 4.07088 112.686 4.03163C112.723 3.9916 112.767 3.95981 112.816 3.93627C112.867 3.91272 112.922 3.90095 112.984 3.90095ZM113.744 5.79409C113.575 5.79409 113.444 5.7623 113.352 5.69872C113.26 5.63593 113.214 5.54763 113.214 5.43383C113.214 5.35298 113.24 5.28391 113.291 5.22662C113.343 5.16932 113.414 5.13125 113.505 5.11242C113.471 5.09672 113.442 5.07317 113.418 5.04178C113.395 5.01038 113.383 4.97428 113.383 4.93346C113.383 4.88637 113.396 4.84516 113.422 4.80984C113.448 4.77374 113.489 4.7392 113.543 4.70624C113.475 4.67877 113.42 4.63246 113.378 4.56731C113.336 4.50138 113.316 4.42486 113.316 4.33774C113.316 4.24512 113.335 4.16624 113.373 4.10109C113.412 4.03516 113.468 3.98493 113.541 3.9504C113.614 3.91586 113.702 3.89859 113.805 3.89859C113.828 3.89859 113.851 3.89977 113.874 3.90213C113.897 3.9037 113.92 3.90644 113.941 3.91037C113.962 3.91351 113.98 3.91743 113.996 3.92214H114.439V4.04811L114.201 4.07755C114.225 4.10816 114.244 4.14505 114.26 4.18822C114.276 4.23138 114.283 4.27926 114.283 4.33185C114.283 4.46057 114.24 4.563 114.153 4.63913C114.066 4.71448 113.946 4.75215 113.794 4.75215C113.758 4.75215 113.721 4.74902 113.683 4.74274C113.645 4.76393 113.615 4.78747 113.595 4.81338C113.575 4.83928 113.565 4.8691 113.565 4.90285C113.565 4.92797 113.573 4.94798 113.588 4.9629C113.603 4.97781 113.626 4.9888 113.655 4.99586C113.684 5.00214 113.719 5.00528 113.76 5.00528H113.987C114.127 5.00528 114.235 5.03471 114.309 5.09358C114.385 5.15245 114.422 5.23839 114.422 5.35141C114.422 5.49426 114.364 5.60375 114.248 5.67989C114.132 5.75602 113.964 5.79409 113.744 5.79409ZM113.75 5.64104C113.857 5.64104 113.945 5.63005 114.015 5.60807C114.086 5.58688 114.138 5.55588 114.173 5.51506C114.208 5.47503 114.226 5.42715 114.226 5.37143C114.226 5.31963 114.214 5.28038 114.19 5.2537C114.167 5.22779 114.132 5.21053 114.087 5.20189C114.041 5.19247 113.986 5.18777 113.92 5.18777H113.696C113.638 5.18777 113.587 5.19679 113.544 5.21484C113.501 5.2329 113.468 5.25958 113.444 5.2949C113.421 5.33022 113.41 5.37418 113.41 5.42676C113.41 5.49662 113.439 5.5496 113.498 5.5857C113.557 5.62259 113.641 5.64104 113.75 5.64104ZM113.801 4.6097C113.894 4.6097 113.964 4.58615 114.011 4.53906C114.059 4.49197 114.082 4.42329 114.082 4.33303C114.082 4.23649 114.058 4.16428 114.01 4.1164C113.962 4.06774 113.892 4.0434 113.798 4.0434C113.709 4.0434 113.64 4.06852 113.591 4.11875C113.543 4.1682 113.519 4.2408 113.519 4.33656C113.519 4.42447 113.544 4.49197 113.592 4.53906C113.641 4.58615 113.71 4.6097 113.801 4.6097ZM115.19 3.90095C115.3 3.90095 115.394 3.92528 115.473 3.97394C115.551 4.02261 115.611 4.09089 115.653 4.1788C115.694 4.26592 115.715 4.36795 115.715 4.4849V4.60617H114.824C114.826 4.75765 114.864 4.87303 114.937 4.9523C115.01 5.03157 115.113 5.07121 115.245 5.07121C115.327 5.07121 115.399 5.06375 115.462 5.04884C115.525 5.03393 115.59 5.01195 115.657 4.98291V5.1548C115.592 5.18384 115.527 5.20503 115.463 5.21838C115.4 5.23172 115.324 5.23839 115.237 5.23839C115.113 5.23839 115.005 5.21327 114.912 5.16304C114.82 5.11202 114.749 5.03746 114.698 4.93935C114.647 4.84124 114.621 4.72115 114.621 4.57909C114.621 4.44016 114.644 4.32008 114.691 4.21883C114.738 4.11679 114.804 4.0383 114.889 3.98336C114.974 3.92842 115.075 3.90095 115.19 3.90095ZM115.188 4.06106C115.083 4.06106 115 4.09521 114.938 4.16349C114.876 4.23178 114.839 4.32714 114.827 4.44958H115.51C115.509 4.37266 115.497 4.30516 115.474 4.24708C115.451 4.18822 115.416 4.14269 115.369 4.11051C115.322 4.07755 115.261 4.06106 115.188 4.06106ZM116.464 5.07827C116.496 5.07827 116.529 5.07553 116.563 5.07003C116.596 5.06454 116.624 5.05787 116.645 5.05002V5.20189C116.622 5.2121 116.591 5.22073 116.55 5.22779C116.51 5.23486 116.47 5.23839 116.432 5.23839C116.364 5.23839 116.302 5.22662 116.246 5.20307C116.19 5.17874 116.146 5.13793 116.112 5.08063C116.079 5.02333 116.062 4.94406 116.062 4.84281V4.07755H115.879V3.98218L116.064 3.90566L116.141 3.62545H116.259V3.9245H116.637V4.07755H116.259V4.83692C116.259 4.91777 116.277 4.9782 116.314 5.01823C116.352 5.05826 116.402 5.07827 116.464 5.07827ZM118.864 3.49359V4.60734C118.864 4.729 118.84 4.83731 118.79 4.93229C118.742 5.02726 118.668 5.10221 118.569 5.15715C118.47 5.21131 118.346 5.23839 118.197 5.23839C117.984 5.23839 117.822 5.1807 117.711 5.06532C117.6 4.94995 117.545 4.79572 117.545 4.60263V3.49359H117.746V4.60852C117.746 4.75451 117.784 4.86714 117.861 4.94641C117.939 5.02569 118.055 5.06532 118.209 5.06532C118.314 5.06532 118.4 5.04649 118.466 5.00881C118.534 4.97035 118.584 4.91698 118.616 4.8487C118.649 4.77963 118.665 4.69996 118.665 4.6097V3.49359H118.864ZM120.126 4.86165C120.126 4.94406 120.106 5.01352 120.064 5.07003C120.023 5.12576 119.964 5.16775 119.887 5.19601C119.811 5.22426 119.72 5.23839 119.614 5.23839C119.524 5.23839 119.446 5.23133 119.38 5.2172C119.314 5.20307 119.256 5.18306 119.207 5.15715V4.97702C119.26 5.00293 119.322 5.02647 119.395 5.04766C119.468 5.06886 119.543 5.07945 119.619 5.07945C119.731 5.07945 119.811 5.0614 119.862 5.02529C119.912 4.98919 119.937 4.94013 119.937 4.87813C119.937 4.84281 119.927 4.81181 119.906 4.78512C119.887 4.75765 119.853 4.73136 119.806 4.70624C119.759 4.68034 119.694 4.65208 119.611 4.62147C119.528 4.59008 119.457 4.55907 119.397 4.52846C119.337 4.49707 119.291 4.459 119.258 4.41426C119.225 4.36952 119.209 4.31144 119.209 4.24002C119.209 4.13092 119.253 4.04733 119.341 3.98925C119.43 3.93038 119.546 3.90095 119.69 3.90095C119.767 3.90095 119.84 3.9088 119.908 3.9245C119.976 3.93941 120.039 3.95981 120.098 3.98572L120.032 4.1423C119.979 4.11954 119.922 4.10031 119.862 4.08461C119.801 4.06891 119.74 4.06106 119.677 4.06106C119.586 4.06106 119.517 4.07598 119.468 4.1058C119.42 4.13563 119.397 4.17644 119.397 4.22824C119.397 4.26827 119.408 4.30124 119.43 4.32714C119.452 4.35304 119.488 4.37737 119.538 4.40013C119.587 4.4229 119.652 4.44958 119.733 4.48019C119.814 4.51002 119.884 4.54102 119.943 4.5732C120.002 4.6046 120.047 4.64306 120.078 4.68858C120.11 4.73332 120.126 4.79101 120.126 4.86165ZM120.938 3.90095C121.048 3.90095 121.142 3.92528 121.22 3.97394C121.299 4.02261 121.359 4.09089 121.4 4.1788C121.442 4.26592 121.463 4.36795 121.463 4.4849V4.60617H120.572C120.574 4.75765 120.612 4.87303 120.685 4.9523C120.758 5.03157 120.86 5.07121 120.993 5.07121C121.075 5.07121 121.147 5.06375 121.21 5.04884C121.272 5.03393 121.338 5.01195 121.405 4.98291V5.1548C121.34 5.18384 121.275 5.20503 121.211 5.21838C121.147 5.23172 121.072 5.23839 120.985 5.23839C120.861 5.23839 120.752 5.21327 120.66 5.16304C120.568 5.11202 120.497 5.03746 120.446 4.93935C120.395 4.84124 120.369 4.72115 120.369 4.57909C120.369 4.44016 120.392 4.32008 120.438 4.21883C120.486 4.11679 120.552 4.0383 120.636 3.98336C120.722 3.92842 120.822 3.90095 120.938 3.90095ZM120.935 4.06106C120.831 4.06106 120.748 4.09521 120.686 4.16349C120.624 4.23178 120.587 4.32714 120.575 4.44958H121.258C121.257 4.37266 121.245 4.30516 121.221 4.24708C121.199 4.18822 121.164 4.14269 121.117 4.11051C121.07 4.07755 121.009 4.06106 120.935 4.06106ZM122.381 3.90095C122.407 3.90095 122.434 3.90252 122.462 3.90566C122.491 3.90801 122.516 3.91154 122.538 3.91625L122.513 4.09756C122.492 4.09207 122.468 4.08775 122.442 4.08461C122.416 4.08147 122.392 4.0799 122.369 4.0799C122.317 4.0799 122.268 4.0905 122.222 4.11169C122.177 4.1321 122.137 4.16192 122.102 4.20117C122.068 4.23963 122.04 4.28633 122.021 4.34127C122.001 4.39543 121.991 4.45586 121.991 4.52258V5.21484H121.795V3.9245H121.957L121.978 4.16231H121.987C122.013 4.11444 122.046 4.07088 122.083 4.03163C122.121 3.9916 122.164 3.95981 122.214 3.93627C122.264 3.91272 122.32 3.90095 122.381 3.90095ZM123.616 4.86165C123.616 4.94406 123.595 5.01352 123.554 5.07003C123.513 5.12576 123.454 5.16775 123.377 5.19601C123.301 5.22426 123.21 5.23839 123.104 5.23839C123.014 5.23839 122.936 5.23133 122.87 5.2172C122.804 5.20307 122.746 5.18306 122.697 5.15715V4.97702C122.749 5.00293 122.812 5.02647 122.885 5.04766C122.958 5.06886 123.033 5.07945 123.109 5.07945C123.22 5.07945 123.301 5.0614 123.351 5.02529C123.401 4.98919 123.427 4.94013 123.427 4.87813C123.427 4.84281 123.416 4.81181 123.396 4.78512C123.376 4.75765 123.343 4.73136 123.296 4.70624C123.249 4.68034 123.184 4.65208 123.1 4.62147C123.018 4.59008 122.947 4.55907 122.886 4.52846C122.826 4.49707 122.78 4.459 122.747 4.41426C122.715 4.36952 122.699 4.31144 122.699 4.24002C122.699 4.13092 122.743 4.04733 122.831 3.98925C122.919 3.93038 123.036 3.90095 123.179 3.90095C123.257 3.90095 123.33 3.9088 123.397 3.9245C123.465 3.93941 123.529 3.95981 123.588 3.98572L123.522 4.1423C123.469 4.11954 123.412 4.10031 123.351 4.08461C123.291 4.06891 123.229 4.06106 123.166 4.06106C123.076 4.06106 123.007 4.07598 122.958 4.1058C122.91 4.13563 122.886 4.17644 122.886 4.22824C122.886 4.26827 122.897 4.30124 122.919 4.32714C122.942 4.35304 122.978 4.37737 123.027 4.40013C123.077 4.4229 123.142 4.44958 123.223 4.48019C123.304 4.51002 123.374 4.54102 123.432 4.5732C123.491 4.6046 123.536 4.64306 123.568 4.68858C123.6 4.73332 123.616 4.79101 123.616 4.86165Z" fill="#383B41"/>
<circle cx="128.93" cy="4.71486" r="1.40651" fill="#801717"/>
<path d="M131.826 3.49359C132.048 3.49359 132.21 3.53715 132.312 3.62428C132.415 3.71061 132.466 3.83463 132.466 3.99631C132.466 4.06931 132.454 4.13877 132.43 4.2047C132.406 4.26984 132.368 4.32753 132.314 4.37777C132.261 4.42721 132.191 4.46646 132.104 4.4955C132.017 4.52375 131.911 4.53788 131.786 4.53788H131.576V5.21484H131.376V3.49359H131.826ZM131.807 3.66431H131.576V4.36599H131.763C131.873 4.36599 131.965 4.35422 132.038 4.33067C132.112 4.30713 132.167 4.26906 132.204 4.21647C132.241 4.1631 132.259 4.09246 132.259 4.00455C132.259 3.88996 132.223 3.8048 132.15 3.74907C132.077 3.69256 131.962 3.66431 131.807 3.66431ZM132.993 3.38293V3.93038C132.993 3.96178 132.992 3.99356 132.99 4.02574C132.989 4.05714 132.986 4.08618 132.982 4.11287H132.995C133.022 4.06734 133.055 4.02928 133.096 3.99867C133.138 3.96727 133.185 3.94372 133.237 3.92803C133.29 3.91154 133.346 3.9033 133.405 3.9033C133.508 3.9033 133.595 3.91979 133.664 3.95275C133.733 3.98572 133.786 4.03673 133.82 4.1058C133.856 4.17487 133.873 4.26435 133.873 4.37423V5.21484H133.68V4.38718C133.68 4.27965 133.655 4.1992 133.606 4.14583C133.557 4.09246 133.482 4.06577 133.381 4.06577C133.285 4.06577 133.209 4.08422 133.151 4.12111C133.095 4.15721 133.054 4.21059 133.029 4.28122C133.005 4.35186 132.993 4.4382 132.993 4.54024V5.21484H132.797V3.38293H132.993ZM134.471 3.9245V5.21484H134.276V3.9245H134.471ZM134.376 3.44179C134.408 3.44179 134.436 3.45239 134.458 3.47358C134.482 3.49399 134.494 3.52617 134.494 3.57012C134.494 3.61329 134.482 3.64547 134.458 3.66666C134.436 3.68785 134.408 3.69845 134.376 3.69845C134.342 3.69845 134.314 3.68785 134.291 3.66666C134.269 3.64547 134.258 3.61329 134.258 3.57012C134.258 3.52617 134.269 3.49399 134.291 3.47358C134.314 3.45239 134.342 3.44179 134.376 3.44179ZM135.72 4.86165C135.72 4.94406 135.7 5.01352 135.658 5.07003C135.617 5.12576 135.558 5.16775 135.481 5.19601C135.405 5.22426 135.314 5.23839 135.208 5.23839C135.118 5.23839 135.04 5.23133 134.974 5.2172C134.908 5.20307 134.85 5.18306 134.801 5.15715V4.97702C134.854 5.00293 134.916 5.02647 134.989 5.04766C135.062 5.06886 135.137 5.07945 135.213 5.07945C135.324 5.07945 135.405 5.0614 135.456 5.02529C135.506 4.98919 135.531 4.94013 135.531 4.87813C135.531 4.84281 135.521 4.81181 135.5 4.78512C135.481 4.75765 135.447 4.73136 135.4 4.70624C135.353 4.68034 135.288 4.65208 135.205 4.62147C135.122 4.59008 135.051 4.55907 134.99 4.52846C134.931 4.49707 134.885 4.459 134.852 4.41426C134.819 4.36952 134.803 4.31144 134.803 4.24002C134.803 4.13092 134.847 4.04733 134.935 3.98925C135.024 3.93038 135.14 3.90095 135.284 3.90095C135.361 3.90095 135.434 3.9088 135.501 3.9245C135.57 3.93941 135.633 3.95981 135.692 3.98572L135.626 4.1423C135.573 4.11954 135.516 4.10031 135.456 4.08461C135.395 4.06891 135.333 4.06106 135.271 4.06106C135.18 4.06106 135.111 4.07598 135.062 4.1058C135.014 4.13563 134.99 4.17644 134.99 4.22824C134.99 4.26827 135.001 4.30124 135.023 4.32714C135.046 4.35304 135.082 4.37737 135.132 4.40013C135.181 4.4229 135.246 4.44958 135.327 4.48019C135.408 4.51002 135.478 4.54102 135.537 4.5732C135.596 4.6046 135.641 4.64306 135.672 4.68858C135.704 4.73332 135.72 4.79101 135.72 4.86165ZM136.23 3.38293V3.93038C136.23 3.96178 136.229 3.99356 136.228 4.02574C136.226 4.05714 136.224 4.08618 136.22 4.11287H136.233C136.259 4.06734 136.293 4.02928 136.334 3.99867C136.375 3.96727 136.422 3.94372 136.475 3.92803C136.528 3.91154 136.583 3.9033 136.642 3.9033C136.746 3.9033 136.832 3.91979 136.901 3.95275C136.971 3.98572 137.023 4.03673 137.058 4.1058C137.093 4.17487 137.111 4.26435 137.111 4.37423V5.21484H136.918V4.38718C136.918 4.27965 136.893 4.1992 136.844 4.14583C136.795 4.09246 136.72 4.06577 136.619 4.06577C136.523 4.06577 136.446 4.08422 136.389 4.12111C136.333 4.15721 136.292 4.21059 136.267 4.28122C136.242 4.35186 136.23 4.4382 136.23 4.54024V5.21484H136.035V3.38293H136.23ZM138.01 3.90095C138.12 3.90095 138.214 3.92528 138.293 3.97394C138.371 4.02261 138.431 4.09089 138.473 4.1788C138.515 4.26592 138.535 4.36795 138.535 4.4849V4.60617H137.644C137.647 4.75765 137.684 4.87303 137.757 4.9523C137.83 5.03157 137.933 5.07121 138.066 5.07121C138.147 5.07121 138.219 5.06375 138.282 5.04884C138.345 5.03393 138.41 5.01195 138.478 4.98291V5.1548C138.413 5.18384 138.348 5.20503 138.283 5.21838C138.22 5.23172 138.145 5.23839 138.057 5.23839C137.933 5.23839 137.825 5.21327 137.732 5.16304C137.641 5.11202 137.569 5.03746 137.518 4.93935C137.467 4.84124 137.442 4.72115 137.442 4.57909C137.442 4.44016 137.465 4.32008 137.511 4.21883C137.558 4.11679 137.624 4.0383 137.709 3.98336C137.794 3.92842 137.895 3.90095 138.01 3.90095ZM138.008 4.06106C137.904 4.06106 137.82 4.09521 137.758 4.16349C137.696 4.23178 137.659 4.32714 137.648 4.44958H138.331C138.33 4.37266 138.318 4.30516 138.294 4.24708C138.271 4.18822 138.236 4.14269 138.189 4.11051C138.142 4.07755 138.082 4.06106 138.008 4.06106ZM139.327 5.23839C139.163 5.23839 139.034 5.18266 138.938 5.07121C138.843 4.95976 138.796 4.79415 138.796 4.57438C138.796 4.35226 138.844 4.18468 138.942 4.07166C139.039 3.95785 139.168 3.90095 139.33 3.90095C139.398 3.90095 139.458 3.90997 139.509 3.92803C139.56 3.94608 139.604 3.97041 139.641 4.00102C139.678 4.03085 139.709 4.06499 139.734 4.10345H139.748C139.745 4.07912 139.742 4.04576 139.739 4.00338C139.735 3.96099 139.734 3.92646 139.734 3.89977V3.38293H139.929V5.21484H139.772L139.742 5.03118H139.734C139.71 5.06964 139.679 5.10457 139.641 5.13596C139.604 5.16736 139.56 5.19247 139.508 5.21131C139.457 5.22936 139.396 5.23839 139.327 5.23839ZM139.357 5.07592C139.495 5.07592 139.593 5.03668 139.65 4.95819C139.708 4.8797 139.736 4.76314 139.736 4.60852V4.5732C139.736 4.40916 139.709 4.28319 139.654 4.19528C139.6 4.10737 139.501 4.06342 139.357 4.06342C139.237 4.06342 139.147 4.10973 139.088 4.20234C139.028 4.29418 138.998 4.41976 138.998 4.57909C138.998 4.73763 139.028 4.86008 139.086 4.94641C139.146 5.03275 139.236 5.07592 139.357 5.07592ZM142.302 3.49359V4.60734C142.302 4.729 142.277 4.83731 142.227 4.93229C142.179 5.02726 142.105 5.10221 142.006 5.15715C141.907 5.21131 141.783 5.23839 141.634 5.23839C141.421 5.23839 141.259 5.1807 141.148 5.06532C141.037 4.94995 140.982 4.79572 140.982 4.60263V3.49359H141.183V4.60852C141.183 4.75451 141.222 4.86714 141.299 4.94641C141.376 5.02569 141.492 5.06532 141.646 5.06532C141.751 5.06532 141.837 5.04649 141.904 5.00881C141.971 4.97035 142.021 4.91698 142.053 4.8487C142.086 4.77963 142.103 4.69996 142.103 4.6097V3.49359H142.302ZM143.564 4.86165C143.564 4.94406 143.543 5.01352 143.501 5.07003C143.461 5.12576 143.402 5.16775 143.325 5.19601C143.249 5.22426 143.158 5.23839 143.052 5.23839C142.961 5.23839 142.883 5.23133 142.817 5.2172C142.751 5.20307 142.694 5.18306 142.644 5.15715V4.97702C142.697 5.00293 142.76 5.02647 142.833 5.04766C142.906 5.06886 142.98 5.07945 143.056 5.07945C143.168 5.07945 143.249 5.0614 143.299 5.02529C143.349 4.98919 143.374 4.94013 143.374 4.87813C143.374 4.84281 143.364 4.81181 143.344 4.78512C143.324 4.75765 143.291 4.73136 143.244 4.70624C143.196 4.68034 143.131 4.65208 143.048 4.62147C142.966 4.59008 142.894 4.55907 142.834 4.52846C142.774 4.49707 142.728 4.459 142.695 4.41426C142.663 4.36952 142.647 4.31144 142.647 4.24002C142.647 4.13092 142.691 4.04733 142.778 3.98925C142.867 3.93038 142.983 3.90095 143.127 3.90095C143.205 3.90095 143.277 3.9088 143.345 3.9245C143.413 3.93941 143.477 3.95981 143.536 3.98572L143.47 4.1423C143.416 4.11954 143.359 4.10031 143.299 4.08461C143.238 4.06891 143.177 4.06106 143.114 4.06106C143.024 4.06106 142.954 4.07598 142.906 4.1058C142.858 4.13563 142.834 4.17644 142.834 4.22824C142.834 4.26827 142.845 4.30124 142.867 4.32714C142.89 4.35304 142.926 4.37737 142.975 4.40013C143.025 4.4229 143.09 4.44958 143.171 4.48019C143.251 4.51002 143.321 4.54102 143.38 4.5732C143.439 4.6046 143.484 4.64306 143.515 4.68858C143.548 4.73332 143.564 4.79101 143.564 4.86165ZM144.375 3.90095C144.485 3.90095 144.579 3.92528 144.657 3.97394C144.736 4.02261 144.796 4.09089 144.838 4.1788C144.879 4.26592 144.9 4.36795 144.9 4.4849V4.60617H144.009C144.011 4.75765 144.049 4.87303 144.122 4.9523C144.195 5.03157 144.298 5.07121 144.43 5.07121C144.512 5.07121 144.584 5.06375 144.647 5.04884C144.71 5.03393 144.775 5.01195 144.842 4.98291V5.1548C144.777 5.18384 144.712 5.20503 144.648 5.21838C144.585 5.23172 144.509 5.23839 144.422 5.23839C144.298 5.23839 144.19 5.21327 144.097 5.16304C144.005 5.11202 143.934 5.03746 143.883 4.93935C143.832 4.84124 143.806 4.72115 143.806 4.57909C143.806 4.44016 143.829 4.32008 143.876 4.21883C143.923 4.11679 143.989 4.0383 144.074 3.98336C144.159 3.92842 144.26 3.90095 144.375 3.90095ZM144.373 4.06106C144.268 4.06106 144.185 4.09521 144.123 4.16349C144.061 4.23178 144.024 4.32714 144.012 4.44958H144.695C144.694 4.37266 144.682 4.30516 144.659 4.24708C144.636 4.18822 144.601 4.14269 144.554 4.11051C144.507 4.07755 144.446 4.06106 144.373 4.06106ZM145.818 3.90095C145.844 3.90095 145.871 3.90252 145.9 3.90566C145.928 3.90801 145.953 3.91154 145.975 3.91625L145.95 4.09756C145.929 4.09207 145.905 4.08775 145.88 4.08461C145.854 4.08147 145.829 4.0799 145.807 4.0799C145.755 4.0799 145.706 4.0905 145.659 4.11169C145.614 4.1321 145.574 4.16192 145.539 4.20117C145.505 4.23963 145.478 4.28633 145.458 4.34127C145.438 4.39543 145.429 4.45586 145.429 4.52258V5.21484H145.232V3.9245H145.395L145.416 4.16231H145.424C145.451 4.11444 145.483 4.07088 145.52 4.03163C145.558 3.9916 145.602 3.95981 145.651 3.93627C145.701 3.91272 145.757 3.90095 145.818 3.90095ZM147.053 4.86165C147.053 4.94406 147.033 5.01352 146.991 5.07003C146.95 5.12576 146.891 5.16775 146.814 5.19601C146.738 5.22426 146.647 5.23839 146.541 5.23839C146.451 5.23839 146.373 5.23133 146.307 5.2172C146.241 5.20307 146.183 5.18306 146.134 5.15715V4.97702C146.186 5.00293 146.249 5.02647 146.322 5.04766C146.395 5.06886 146.47 5.07945 146.546 5.07945C146.657 5.07945 146.738 5.0614 146.788 5.02529C146.839 4.98919 146.864 4.94013 146.864 4.87813C146.864 4.84281 146.854 4.81181 146.833 4.78512C146.814 4.75765 146.78 4.73136 146.733 4.70624C146.686 4.68034 146.621 4.65208 146.538 4.62147C146.455 4.59008 146.384 4.55907 146.323 4.52846C146.264 4.49707 146.217 4.459 146.184 4.41426C146.152 4.36952 146.136 4.31144 146.136 4.24002C146.136 4.13092 146.18 4.04733 146.268 3.98925C146.357 3.93038 146.473 3.90095 146.617 3.90095C146.694 3.90095 146.767 3.9088 146.834 3.9245C146.903 3.93941 146.966 3.95981 147.025 3.98572L146.959 4.1423C146.906 4.11954 146.849 4.10031 146.788 4.08461C146.728 4.06891 146.666 4.06106 146.604 4.06106C146.513 4.06106 146.444 4.07598 146.395 4.1058C146.347 4.13563 146.323 4.17644 146.323 4.22824C146.323 4.26827 146.334 4.30124 146.356 4.32714C146.379 4.35304 146.415 4.37737 146.465 4.40013C146.514 4.4229 146.579 4.44958 146.66 4.48019C146.741 4.51002 146.811 4.54102 146.87 4.5732C146.929 4.6046 146.974 4.64306 147.005 4.68858C147.037 4.73332 147.053 4.79101 147.053 4.86165Z" fill="#383B41"/>
<rect width="209.57" height="50.6344" transform="translate(3.21484 9.42969)" fill="white"/>
<rect x="17.6816" y="47.0039" width="193.496" height="0.40186" fill="#757575"/>
<rect x="17.6816" y="40.1721" width="193.496" height="0.40186" fill="#F2F2F2"/>
<rect x="17.6816" y="33.3408" width="193.496" height="0.40186" fill="#F2F2F2"/>
<rect x="17.6816" y="26.5088" width="193.496" height="0.40186" fill="#F2F2F2"/>
<rect x="17.6816" y="19.6768" width="193.496" height="0.40186" fill="#F2F2F2"/>
<rect x="17.6816" y="12.8455" width="193.496" height="0.40186" fill="#F2F2F2"/>
<path d="M13.1872 20.4695H12.9294V20.8687H12.7387V20.4695H11.9063V20.3047L12.7257 19.138H12.9294V20.2929H13.1872V20.4695ZM12.7387 20.2929V19.7302C12.7387 19.687 12.7391 19.6482 12.7398 19.6136C12.7406 19.5783 12.7418 19.5457 12.7434 19.5159C12.7449 19.4853 12.7461 19.4563 12.7469 19.4288C12.7485 19.4013 12.7497 19.3742 12.7504 19.3475H12.741C12.7261 19.3789 12.7088 19.4123 12.6892 19.4476C12.6704 19.4822 12.6511 19.5132 12.6315 19.5406L12.1006 20.2929H12.7387ZM14.4905 20.0057C14.4905 20.1454 14.4799 20.2702 14.4587 20.3801C14.4375 20.4899 14.4042 20.583 14.3587 20.6591C14.3131 20.7352 14.2543 20.7933 14.1821 20.8333C14.1099 20.8726 14.0231 20.8922 13.9219 20.8922C13.7939 20.8922 13.688 20.8573 13.604 20.7874C13.5208 20.7176 13.4584 20.6167 13.4168 20.4848C13.376 20.3522 13.3556 20.1925 13.3556 20.0057C13.3556 19.822 13.374 19.6642 13.4109 19.5324C13.4486 19.3997 13.509 19.2981 13.5922 19.2275C13.6754 19.156 13.7853 19.1203 13.9219 19.1203C14.0514 19.1203 14.1581 19.1556 14.2421 19.2263C14.3261 19.2961 14.3885 19.3974 14.4293 19.53C14.4701 19.6619 14.4905 19.8204 14.4905 20.0057ZM13.5522 20.0057C13.5522 20.1658 13.5644 20.2992 13.5887 20.406C13.613 20.5127 13.6523 20.5928 13.7064 20.6461C13.7614 20.6987 13.8332 20.725 13.9219 20.725C14.0106 20.725 14.082 20.6987 14.1361 20.6461C14.1911 20.5936 14.2307 20.5139 14.2551 20.4071C14.2802 20.3004 14.2927 20.1666 14.2927 20.0057C14.2927 19.8479 14.2806 19.7161 14.2562 19.6101C14.2319 19.5033 14.1927 19.4233 14.1385 19.3699C14.0843 19.3158 14.0121 19.2887 13.9219 19.2887C13.8316 19.2887 13.7594 19.3158 13.7052 19.3699C13.6511 19.4233 13.6118 19.5033 13.5875 19.6101C13.564 19.7161 13.5522 19.8479 13.5522 20.0057ZM15.8703 20.0057C15.8703 20.1454 15.8598 20.2702 15.8386 20.3801C15.8174 20.4899 15.784 20.583 15.7385 20.6591C15.693 20.7352 15.6341 20.7933 15.5619 20.8333C15.4897 20.8726 15.403 20.8922 15.3017 20.8922C15.1738 20.8922 15.0678 20.8573 14.9838 20.7874C14.9006 20.7176 14.8382 20.6167 14.7966 20.4848C14.7558 20.3522 14.7354 20.1925 14.7354 20.0057C14.7354 19.822 14.7539 19.6642 14.7907 19.5324C14.8284 19.3997 14.8889 19.2981 14.9721 19.2275C15.0552 19.156 15.1651 19.1203 15.3017 19.1203C15.4312 19.1203 15.538 19.1556 15.6219 19.2263C15.7059 19.2961 15.7683 19.3974 15.8091 19.53C15.8499 19.6619 15.8703 19.8204 15.8703 20.0057ZM14.932 20.0057C14.932 20.1658 14.9442 20.2992 14.9685 20.406C14.9928 20.5127 15.0321 20.5928 15.0863 20.6461C15.1412 20.6987 15.213 20.725 15.3017 20.725C15.3904 20.725 15.4618 20.6987 15.516 20.6461C15.5709 20.5936 15.6106 20.5139 15.6349 20.4071C15.66 20.3004 15.6726 20.1666 15.6726 20.0057C15.6726 19.8479 15.6604 19.7161 15.6361 19.6101C15.6117 19.5033 15.5725 19.4233 15.5183 19.3699C15.4642 19.3158 15.392 19.2887 15.3017 19.2887C15.2114 19.2887 15.1392 19.3158 15.0851 19.3699C15.0309 19.4233 14.9917 19.5033 14.9673 19.6101C14.9438 19.7161 14.932 19.8479 14.932 20.0057Z" fill="#383B41" fill-opacity="0.72"/>
<path d="M12.5173 12.9846C12.6343 12.9846 12.7359 13.0046 12.8223 13.0446C12.9086 13.0839 12.9753 13.1412 13.0224 13.2165C13.0703 13.2919 13.0942 13.3833 13.0942 13.4908C13.0942 13.6086 13.0687 13.7102 13.0177 13.7958C12.9667 13.8805 12.8933 13.9461 12.7975 13.9924C12.7018 14.0379 12.5872 14.0607 12.4538 14.0607C12.3643 14.0607 12.2811 14.0528 12.2042 14.0371C12.1272 14.0214 12.0625 13.9979 12.0099 13.9665V13.7805C12.0672 13.815 12.1367 13.8425 12.2183 13.8629C12.2999 13.8833 12.3792 13.8935 12.4561 13.8935C12.5432 13.8935 12.6194 13.8797 12.6845 13.8523C12.7504 13.824 12.8015 13.7816 12.8376 13.7251C12.8744 13.6678 12.8929 13.596 12.8929 13.5097C12.8929 13.3951 12.8576 13.3068 12.7869 13.2448C12.7171 13.182 12.6064 13.1506 12.4549 13.1506C12.4063 13.1506 12.3529 13.1545 12.2948 13.1624C12.2367 13.1702 12.1889 13.1788 12.1512 13.1883L12.0523 13.1235L12.1182 12.3159H12.9741V12.4948H12.2854L12.2418 13.014C12.2717 13.0077 12.3101 13.0015 12.3572 12.9952C12.4043 12.9881 12.4577 12.9846 12.5173 12.9846ZM14.4905 13.1741C14.4905 13.3138 14.4799 13.4386 14.4587 13.5485C14.4375 13.6584 14.4042 13.7514 14.3587 13.8275C14.3131 13.9037 14.2543 13.9618 14.1821 14.0018C14.1099 14.041 14.0231 14.0607 13.9219 14.0607C13.7939 14.0607 13.688 14.0257 13.604 13.9559C13.5208 13.886 13.4584 13.7852 13.4168 13.6533C13.376 13.5207 13.3556 13.3609 13.3556 13.1741C13.3556 12.9905 13.374 12.8327 13.4109 12.7008C13.4486 12.5682 13.509 12.4666 13.5922 12.3959C13.6754 12.3245 13.7853 12.2888 13.9219 12.2888C14.0514 12.2888 14.1581 12.3241 14.2421 12.3947C14.3261 12.4646 14.3885 12.5658 14.4293 12.6985C14.4701 12.8304 14.4905 12.9889 14.4905 13.1741ZM13.5522 13.1741C13.5522 13.3342 13.5644 13.4677 13.5887 13.5744C13.613 13.6812 13.6523 13.7612 13.7064 13.8146C13.7614 13.8672 13.8332 13.8935 13.9219 13.8935C14.0106 13.8935 14.082 13.8672 14.1361 13.8146C14.1911 13.762 14.2307 13.6823 14.2551 13.5756C14.2802 13.4689 14.2927 13.335 14.2927 13.1741C14.2927 13.0164 14.2806 12.8845 14.2562 12.7785C14.2319 12.6718 14.1927 12.5917 14.1385 12.5384C14.0843 12.4842 14.0121 12.4571 13.9219 12.4571C13.8316 12.4571 13.7594 12.4842 13.7052 12.5384C13.6511 12.5917 13.6118 12.6718 13.5875 12.7785C13.564 12.8845 13.5522 13.0164 13.5522 13.1741ZM15.8703 13.1741C15.8703 13.3138 15.8598 13.4386 15.8386 13.5485C15.8174 13.6584 15.784 13.7514 15.7385 13.8275C15.693 13.9037 15.6341 13.9618 15.5619 14.0018C15.4897 14.041 15.403 14.0607 15.3017 14.0607C15.1738 14.0607 15.0678 14.0257 14.9838 13.9559C14.9006 13.886 14.8382 13.7852 14.7966 13.6533C14.7558 13.5207 14.7354 13.3609 14.7354 13.1741C14.7354 12.9905 14.7539 12.8327 14.7907 12.7008C14.8284 12.5682 14.8889 12.4666 14.9721 12.3959C15.0552 12.3245 15.1651 12.2888 15.3017 12.2888C15.4312 12.2888 15.538 12.3241 15.6219 12.3947C15.7059 12.4646 15.7683 12.5658 15.8091 12.6985C15.8499 12.8304 15.8703 12.9889 15.8703 13.1741ZM14.932 13.1741C14.932 13.3342 14.9442 13.4677 14.9685 13.5744C14.9928 13.6812 15.0321 13.7612 15.0863 13.8146C15.1412 13.8672 15.213 13.8935 15.3017 13.8935C15.3904 13.8935 15.4618 13.8672 15.516 13.8146C15.5709 13.762 15.6106 13.6823 15.6349 13.5756C15.66 13.4689 15.6726 13.335 15.6726 13.1741C15.6726 13.0164 15.6604 12.8845 15.6361 12.7785C15.6117 12.6718 15.5725 12.5917 15.5183 12.5384C15.4642 12.4842 15.392 12.4571 15.3017 12.4571C15.2114 12.4571 15.1392 12.4842 15.0851 12.5384C15.0309 12.5917 14.9917 12.6718 14.9673 12.7785C14.9438 12.8845 14.932 13.0164 14.932 13.1741Z" fill="#383B41" fill-opacity="0.72"/>
<path d="M13.0377 26.3807C13.0377 26.4576 13.0228 26.5243 12.993 26.5808C12.9631 26.6373 12.9215 26.6836 12.8682 26.7197C12.8148 26.755 12.752 26.7798 12.6798 26.7939V26.8033C12.8164 26.8206 12.9188 26.8645 12.9871 26.9352C13.0561 27.0058 13.0907 27.0984 13.0907 27.213C13.0907 27.3127 13.0671 27.401 13.02 27.4779C12.9737 27.5548 12.9023 27.6153 12.8058 27.6592C12.71 27.7024 12.5872 27.724 12.4373 27.724C12.3462 27.724 12.2618 27.7165 12.1841 27.7016C12.1072 27.6875 12.0334 27.6635 11.9628 27.6298V27.4461C12.0342 27.4815 12.1119 27.5093 12.1959 27.5297C12.2799 27.5493 12.3611 27.5592 12.4396 27.5592C12.5966 27.5592 12.71 27.5282 12.7799 27.4662C12.8497 27.4034 12.8847 27.3178 12.8847 27.2095C12.8847 27.1349 12.865 27.0749 12.8258 27.0294C12.7873 26.9831 12.7316 26.9493 12.6586 26.9281C12.5864 26.9061 12.4993 26.8951 12.3972 26.8951H12.2253V26.728H12.3984C12.4918 26.728 12.5711 26.7142 12.6362 26.6868C12.7014 26.6593 12.7508 26.6208 12.7846 26.5714C12.8191 26.5212 12.8364 26.4619 12.8364 26.3936C12.8364 26.3065 12.8073 26.2394 12.7493 26.1923C12.6912 26.1444 12.6123 26.1205 12.5126 26.1205C12.4514 26.1205 12.3957 26.1267 12.3454 26.1393C12.2952 26.1519 12.2481 26.1691 12.2042 26.1911C12.1602 26.2131 12.1163 26.2386 12.0723 26.2676L11.9734 26.1334C12.0362 26.0848 12.1127 26.0428 12.203 26.0074C12.2932 25.9721 12.3957 25.9545 12.5103 25.9545C12.6861 25.9545 12.8179 25.9945 12.9058 26.0746C12.9938 26.1546 13.0377 26.2566 13.0377 26.3807ZM14.4905 26.8375C14.4905 26.9772 14.4799 27.102 14.4587 27.2118C14.4375 27.3217 14.4042 27.4147 14.3587 27.4909C14.3131 27.567 14.2543 27.6251 14.1821 27.6651C14.1099 27.7044 14.0231 27.724 13.9219 27.724C13.7939 27.724 13.688 27.6891 13.604 27.6192C13.5208 27.5493 13.4584 27.4485 13.4168 27.3166C13.376 27.184 13.3556 27.0243 13.3556 26.8375C13.3556 26.6538 13.374 26.496 13.4109 26.3642C13.4486 26.2315 13.509 26.1299 13.5922 26.0592C13.6754 25.9878 13.7853 25.9521 13.9219 25.9521C14.0514 25.9521 14.1581 25.9874 14.2421 26.0581C14.3261 26.1279 14.3885 26.2292 14.4293 26.3618C14.4701 26.4937 14.4905 26.6522 14.4905 26.8375ZM13.5522 26.8375C13.5522 26.9976 13.5644 27.131 13.5887 27.2378C13.613 27.3445 13.6523 27.4246 13.7064 27.4779C13.7614 27.5305 13.8332 27.5568 13.9219 27.5568C14.0106 27.5568 14.082 27.5305 14.1361 27.4779C14.1911 27.4253 14.2307 27.3457 14.2551 27.2389C14.2802 27.1322 14.2927 26.9984 14.2927 26.8375C14.2927 26.6797 14.2806 26.5478 14.2562 26.4419C14.2319 26.3351 14.1927 26.2551 14.1385 26.2017C14.0843 26.1475 14.0121 26.1205 13.9219 26.1205C13.8316 26.1205 13.7594 26.1475 13.7052 26.2017C13.6511 26.2551 13.6118 26.3351 13.5875 26.4419C13.564 26.5478 13.5522 26.6797 13.5522 26.8375ZM15.8703 26.8375C15.8703 26.9772 15.8598 27.102 15.8386 27.2118C15.8174 27.3217 15.784 27.4147 15.7385 27.4909C15.693 27.567 15.6341 27.6251 15.5619 27.6651C15.4897 27.7044 15.403 27.724 15.3017 27.724C15.1738 27.724 15.0678 27.6891 14.9838 27.6192C14.9006 27.5493 14.8382 27.4485 14.7966 27.3166C14.7558 27.184 14.7354 27.0243 14.7354 26.8375C14.7354 26.6538 14.7539 26.496 14.7907 26.3642C14.8284 26.2315 14.8889 26.1299 14.9721 26.0592C15.0552 25.9878 15.1651 25.9521 15.3017 25.9521C15.4312 25.9521 15.538 25.9874 15.6219 26.0581C15.7059 26.1279 15.7683 26.2292 15.8091 26.3618C15.8499 26.4937 15.8703 26.6522 15.8703 26.8375ZM14.932 26.8375C14.932 26.9976 14.9442 27.131 14.9685 27.2378C14.9928 27.3445 15.0321 27.4246 15.0863 27.4779C15.1412 27.5305 15.213 27.5568 15.3017 27.5568C15.3904 27.5568 15.4618 27.5305 15.516 27.4779C15.5709 27.4253 15.6106 27.3457 15.6349 27.2389C15.66 27.1322 15.6726 26.9984 15.6726 26.8375C15.6726 26.6797 15.6604 26.5478 15.6361 26.4419C15.6117 26.3351 15.5725 26.2551 15.5183 26.2017C15.4642 26.1475 15.392 26.1205 15.3017 26.1205C15.2114 26.1205 15.1392 26.1475 15.0851 26.2017C15.0309 26.2551 14.9917 26.3351 14.9673 26.4419C14.9438 26.5478 14.932 26.6797 14.932 26.8375Z" fill="#383B41" fill-opacity="0.72"/>
<path d="M13.1013 34.532H11.9734V34.3683L12.4337 33.9009C12.5193 33.8146 12.5911 33.7377 12.6492 33.6702C12.7081 33.6027 12.7528 33.5364 12.7834 33.4712C12.814 33.4053 12.8293 33.3331 12.8293 33.2546C12.8293 33.1573 12.8003 33.0831 12.7422 33.0321C12.6849 32.9803 12.6092 32.9544 12.515 32.9544C12.4326 32.9544 12.3596 32.9685 12.296 32.9967C12.2324 33.025 12.1673 33.065 12.1006 33.1168L11.9958 32.985C12.0413 32.9465 12.0907 32.9124 12.1441 32.8825C12.1983 32.8527 12.256 32.8292 12.3172 32.8119C12.3792 32.7946 12.4451 32.786 12.515 32.786C12.6209 32.786 12.7124 32.8045 12.7893 32.8413C12.8662 32.8782 12.9255 32.9308 12.9671 32.9991C13.0094 33.0674 13.0306 33.1486 13.0306 33.2428C13.0306 33.3339 13.0126 33.4186 12.9765 33.4971C12.9404 33.5748 12.8898 33.6521 12.8246 33.729C12.7595 33.8052 12.6833 33.886 12.5962 33.9716L12.2218 34.3448V34.353H13.1013V34.532ZM14.4905 33.669C14.4905 33.8087 14.4799 33.9335 14.4587 34.0434C14.4375 34.1533 14.4042 34.2463 14.3587 34.3224C14.3131 34.3986 14.2543 34.4566 14.1821 34.4967C14.1099 34.5359 14.0231 34.5555 13.9219 34.5555C13.7939 34.5555 13.688 34.5206 13.604 34.4507C13.5208 34.3809 13.4584 34.28 13.4168 34.1482C13.376 34.0155 13.3556 33.8558 13.3556 33.669C13.3556 33.4853 13.374 33.3276 13.4109 33.1957C13.4486 33.0631 13.509 32.9614 13.5922 32.8908C13.6754 32.8194 13.7853 32.7837 13.9219 32.7837C14.0514 32.7837 14.1581 32.819 14.2421 32.8896C14.3261 32.9595 14.3885 33.0607 14.4293 33.1934C14.4701 33.3252 14.4905 33.4838 14.4905 33.669ZM13.5522 33.669C13.5522 33.8291 13.5644 33.9625 13.5887 34.0693C13.613 34.176 13.6523 34.2561 13.7064 34.3095C13.7614 34.3621 13.8332 34.3883 13.9219 34.3883C14.0106 34.3883 14.082 34.3621 14.1361 34.3095C14.1911 34.2569 14.2307 34.1772 14.2551 34.0705C14.2802 33.9637 14.2927 33.8299 14.2927 33.669C14.2927 33.5112 14.2806 33.3794 14.2562 33.2734C14.2319 33.1667 14.1927 33.0866 14.1385 33.0332C14.0843 32.9791 14.0121 32.952 13.9219 32.952C13.8316 32.952 13.7594 32.9791 13.7052 33.0332C13.6511 33.0866 13.6118 33.1667 13.5875 33.2734C13.564 33.3794 13.5522 33.5112 13.5522 33.669ZM15.8703 33.669C15.8703 33.8087 15.8598 33.9335 15.8386 34.0434C15.8174 34.1533 15.784 34.2463 15.7385 34.3224C15.693 34.3986 15.6341 34.4566 15.5619 34.4967C15.4897 34.5359 15.403 34.5555 15.3017 34.5555C15.1738 34.5555 15.0678 34.5206 14.9838 34.4507C14.9006 34.3809 14.8382 34.28 14.7966 34.1482C14.7558 34.0155 14.7354 33.8558 14.7354 33.669C14.7354 33.4853 14.7539 33.3276 14.7907 33.1957C14.8284 33.0631 14.8889 32.9614 14.9721 32.8908C15.0552 32.8194 15.1651 32.7837 15.3017 32.7837C15.4312 32.7837 15.538 32.819 15.6219 32.8896C15.7059 32.9595 15.7683 33.0607 15.8091 33.1934C15.8499 33.3252 15.8703 33.4838 15.8703 33.669ZM14.932 33.669C14.932 33.8291 14.9442 33.9625 14.9685 34.0693C14.9928 34.176 15.0321 34.2561 15.0863 34.3095C15.1412 34.3621 15.213 34.3883 15.3017 34.3883C15.3904 34.3883 15.4618 34.3621 15.516 34.3095C15.5709 34.2569 15.6106 34.1772 15.6349 34.0705C15.66 33.9637 15.6726 33.8299 15.6726 33.669C15.6726 33.5112 15.6604 33.3794 15.6361 33.2734C15.6117 33.1667 15.5725 33.0866 15.5183 33.0332C15.4642 32.9791 15.392 32.952 15.3017 32.952C15.2114 32.952 15.1392 32.9791 15.0851 33.0332C15.0309 33.0866 14.9917 33.1667 14.9673 33.2734C14.9438 33.3794 14.932 33.5112 14.932 33.669Z" fill="#383B41" fill-opacity="0.72"/>
<path d="M12.701 41.3635H12.5103V40.1438C12.5103 40.0975 12.5103 40.0579 12.5103 40.0249C12.511 39.9912 12.5118 39.9605 12.5126 39.9331C12.5142 39.9048 12.5161 39.8762 12.5185 39.8471C12.4942 39.8722 12.4714 39.8938 12.4502 39.9119C12.429 39.9292 12.4027 39.9507 12.3713 39.9766L12.1747 40.1344L12.0723 40.0014L12.5385 39.6423H12.701V41.3635ZM14.4905 40.5005C14.4905 40.6403 14.4799 40.7651 14.4587 40.8749C14.4375 40.9848 14.4042 41.0778 14.3587 41.154C14.3131 41.2301 14.2543 41.2882 14.1821 41.3282C14.1099 41.3674 14.0231 41.3871 13.9219 41.3871C13.7939 41.3871 13.688 41.3521 13.604 41.2823C13.5208 41.2124 13.4584 41.1116 13.4168 40.9797C13.376 40.8471 13.3556 40.6873 13.3556 40.5005C13.3556 40.3169 13.374 40.1591 13.4109 40.0273C13.4486 39.8946 13.509 39.793 13.5922 39.7223C13.6754 39.6509 13.7853 39.6152 13.9219 39.6152C14.0514 39.6152 14.1581 39.6505 14.2421 39.7212C14.3261 39.791 14.3885 39.8923 14.4293 40.0249C14.4701 40.1568 14.4905 40.3153 14.4905 40.5005ZM13.5522 40.5005C13.5522 40.6607 13.5644 40.7941 13.5887 40.9008C13.613 41.0076 13.6523 41.0876 13.7064 41.141C13.7614 41.1936 13.8332 41.2199 13.9219 41.2199C14.0106 41.2199 14.082 41.1936 14.1361 41.141C14.1911 41.0884 14.2307 41.0088 14.2551 40.902C14.2802 40.7953 14.2927 40.6614 14.2927 40.5005C14.2927 40.3428 14.2806 40.2109 14.2562 40.105C14.2319 39.9982 14.1927 39.9182 14.1385 39.8648C14.0843 39.8106 14.0121 39.7836 13.9219 39.7836C13.8316 39.7836 13.7594 39.8106 13.7052 39.8648C13.6511 39.9182 13.6118 39.9982 13.5875 40.105C13.564 40.2109 13.5522 40.3428 13.5522 40.5005ZM15.8703 40.5005C15.8703 40.6403 15.8598 40.7651 15.8386 40.8749C15.8174 40.9848 15.784 41.0778 15.7385 41.154C15.693 41.2301 15.6341 41.2882 15.5619 41.3282C15.4897 41.3674 15.403 41.3871 15.3017 41.3871C15.1738 41.3871 15.0678 41.3521 14.9838 41.2823C14.9006 41.2124 14.8382 41.1116 14.7966 40.9797C14.7558 40.8471 14.7354 40.6873 14.7354 40.5005C14.7354 40.3169 14.7539 40.1591 14.7907 40.0273C14.8284 39.8946 14.8889 39.793 14.9721 39.7223C15.0552 39.6509 15.1651 39.6152 15.3017 39.6152C15.4312 39.6152 15.538 39.6505 15.6219 39.7212C15.7059 39.791 15.7683 39.8923 15.8091 40.0249C15.8499 40.1568 15.8703 40.3153 15.8703 40.5005ZM14.932 40.5005C14.932 40.6607 14.9442 40.7941 14.9685 40.9008C14.9928 41.0076 15.0321 41.0876 15.0863 41.141C15.1412 41.1936 15.213 41.2199 15.3017 41.2199C15.3904 41.2199 15.4618 41.1936 15.516 41.141C15.5709 41.0884 15.6106 41.0088 15.6349 40.902C15.66 40.7953 15.6726 40.6614 15.6726 40.5005C15.6726 40.3428 15.6604 40.2109 15.6361 40.105C15.6117 39.9982 15.5725 39.9182 15.5183 39.8648C15.4642 39.8106 15.392 39.7836 15.3017 39.7836C15.2114 39.7836 15.1392 39.8106 15.0851 39.8648C15.0309 39.9182 14.9917 39.9982 14.9673 40.105C14.9438 40.2109 14.932 40.3428 14.932 40.5005Z" fill="#383B41" fill-opacity="0.72"/>
<path d="M28.3361 51.0129L27.9644 49.9348H27.9565C27.9582 49.9589 27.9603 49.9919 27.9626 50.0337C27.965 50.0755 27.9671 50.1202 27.9688 50.1679C27.9706 50.2156 27.9715 50.2612 27.9715 50.3048V51.0129H27.779V49.722H28.0765L28.4342 50.7525H28.4395L28.8094 49.722H29.1061V51.0129H28.9039V50.2942C28.9039 50.2547 28.9045 50.2121 28.9057 50.1661C28.9074 50.1202 28.9092 50.0767 28.911 50.0355C28.9133 49.9943 28.9151 49.9613 28.9163 49.9366H28.9092L28.5233 51.0129H28.3361ZM30.2902 50.522C30.2902 50.6032 30.2796 50.6753 30.2584 50.7383C30.2372 50.8013 30.2063 50.8546 30.1657 50.8982C30.1251 50.9411 30.0762 50.9741 30.0191 50.997C29.962 51.0194 29.8976 51.0306 29.8258 51.0306C29.7586 51.0306 29.6971 51.0194 29.6412 50.997C29.5853 50.9741 29.5367 50.9411 29.4955 50.8982C29.4549 50.8546 29.4234 50.8013 29.401 50.7383C29.3787 50.6753 29.3675 50.6032 29.3675 50.522C29.3675 50.4143 29.386 50.323 29.4231 50.2483C29.4608 50.1729 29.5144 50.1155 29.5838 50.0761C29.6533 50.0366 29.736 50.0169 29.8319 50.0169C29.922 50.0169 30.0015 50.0366 30.0703 50.0761C30.1392 50.1155 30.1931 50.1729 30.2319 50.2483C30.2708 50.3236 30.2902 50.4149 30.2902 50.522ZM29.5812 50.522C29.5812 50.5932 29.5897 50.6541 29.6068 50.7048C29.6244 50.7554 29.6515 50.7943 29.688 50.8213C29.7245 50.8478 29.7716 50.8611 29.8293 50.8611C29.887 50.8611 29.9341 50.8478 29.9706 50.8213C30.0071 50.7943 30.0338 50.7554 30.0509 50.7048C30.068 50.6541 30.0765 50.5932 30.0765 50.522C30.0765 50.4508 30.068 50.3904 30.0509 50.341C30.0338 50.2909 30.0071 50.253 29.9706 50.2271C29.9341 50.2006 29.8867 50.1873 29.8284 50.1873C29.7425 50.1873 29.6798 50.2162 29.6403 50.2739C29.6009 50.3316 29.5812 50.4143 29.5812 50.522ZM31.0381 50.0169C31.1482 50.0169 31.2338 50.0455 31.2951 50.1026C31.3569 50.1591 31.3878 50.25 31.3878 50.3754V51.0129H31.1803V50.4143C31.1803 50.3383 31.1647 50.2815 31.1335 50.2439C31.1023 50.2056 31.054 50.1865 30.9887 50.1865C30.8939 50.1865 30.828 50.2156 30.7909 50.2739C30.7544 50.3322 30.7361 50.4166 30.7361 50.5273V51.0129H30.5286V50.0355H30.6902L30.7193 50.1679H30.7308C30.752 50.1338 30.7782 50.1058 30.8094 50.084C30.8412 50.0617 30.8765 50.0449 30.9154 50.0337C30.9548 50.0225 30.9957 50.0169 31.0381 50.0169ZM32.0421 50.8628C32.0692 50.8628 32.0959 50.8605 32.1224 50.8558C32.1489 50.8505 32.1731 50.8443 32.1948 50.8372V50.9944C32.1719 51.0044 32.1421 51.0129 32.1056 51.02C32.0692 51.0271 32.0312 51.0306 31.9917 51.0306C31.9364 51.0306 31.8867 51.0215 31.8425 51.0032C31.7984 50.9844 31.7633 50.9523 31.7374 50.907C31.7115 50.8617 31.6986 50.799 31.6986 50.7189V50.1935H31.5653V50.1008L31.7083 50.0275L31.7763 49.8182H31.907V50.0355H32.1869V50.1935H31.907V50.7163C31.907 50.7657 31.9193 50.8025 31.9441 50.8266C31.9688 50.8508 32.0015 50.8628 32.0421 50.8628ZM32.601 49.639V49.9843C32.601 50.0202 32.5998 50.0552 32.5975 50.0893C32.5957 50.1235 32.5936 50.15 32.5913 50.1688H32.6028C32.6234 50.1347 32.6487 50.1067 32.6787 50.0849C32.7087 50.0625 32.7423 50.0458 32.7794 50.0346C32.817 50.0234 32.8571 50.0178 32.8995 50.0178C32.9742 50.0178 33.0378 50.0305 33.0902 50.0558C33.1426 50.0805 33.1826 50.1191 33.2103 50.1714C33.2385 50.2238 33.2527 50.2918 33.2527 50.3754V51.0129H33.0452V50.4143C33.0452 50.3383 33.0296 50.2815 32.9984 50.2439C32.9672 50.2056 32.9189 50.1865 32.8535 50.1865C32.7906 50.1865 32.7405 50.1997 32.7034 50.2262C32.6669 50.2521 32.6407 50.2907 32.6248 50.3419C32.609 50.3925 32.601 50.4543 32.601 50.5273V51.0129H32.3935V49.639H32.601ZM34.0862 49.722L33.605 51.0129H33.4107L33.8919 49.722H34.0862ZM34.6363 50.311L34.9427 49.722H35.1714L34.7423 50.5114V51.0129H34.5312V50.5193L34.1012 49.722H34.3317L34.6363 50.311ZM35.7091 50.0169C35.7963 50.0169 35.871 50.0349 35.9334 50.0708C35.9958 50.1067 36.0438 50.1576 36.0774 50.2235C36.1109 50.2895 36.1277 50.3684 36.1277 50.4602V50.5714H35.4752C35.4775 50.6662 35.5028 50.7392 35.5511 50.7904C35.6 50.8416 35.6682 50.8672 35.7559 50.8672C35.8183 50.8672 35.8743 50.8614 35.9237 50.8496C35.9738 50.8372 36.0253 50.8193 36.0782 50.7957V50.9644C36.0294 50.9873 35.9796 51.0041 35.929 51.0147C35.8784 51.0253 35.8178 51.0306 35.7471 51.0306C35.6512 51.0306 35.5667 51.0121 35.4937 50.975C35.4213 50.9373 35.3645 50.8814 35.3233 50.8072C35.2827 50.733 35.2624 50.6409 35.2624 50.5308C35.2624 50.4213 35.2809 50.3283 35.318 50.2518C35.3551 50.1753 35.4072 50.117 35.4743 50.077C35.5414 50.0369 35.6197 50.0169 35.7091 50.0169ZM35.7091 50.1732C35.6438 50.1732 35.5908 50.1944 35.5502 50.2368C35.5102 50.2792 35.4866 50.3413 35.4796 50.4231H35.9246C35.924 50.3742 35.9158 50.331 35.8999 50.2933C35.8846 50.2556 35.861 50.2262 35.8292 50.205C35.798 50.1838 35.758 50.1732 35.7091 50.1732ZM36.7449 50.0169C36.8685 50.0169 36.9618 50.0443 37.0248 50.099C37.0884 50.1538 37.1202 50.2391 37.1202 50.3551V51.0129H36.9727L36.933 50.8743H36.9259C36.8982 50.9096 36.8697 50.9388 36.8403 50.9617C36.8108 50.9847 36.7767 51.0018 36.7378 51.0129C36.6996 51.0247 36.6528 51.0306 36.5974 51.0306C36.5392 51.0306 36.4871 51.02 36.4411 50.9988C36.3952 50.977 36.359 50.9441 36.3325 50.8999C36.3061 50.8558 36.2928 50.7998 36.2928 50.7321C36.2928 50.6315 36.3302 50.5558 36.4049 50.5052C36.4803 50.4546 36.5939 50.4266 36.7458 50.4213L36.9153 50.4152V50.3639C36.9153 50.2962 36.8994 50.248 36.8676 50.2191C36.8364 50.1903 36.7923 50.1759 36.7352 50.1759C36.6863 50.1759 36.6389 50.1829 36.593 50.1971C36.5471 50.2112 36.5024 50.2285 36.4588 50.2491L36.3917 50.1026C36.4394 50.0773 36.4935 50.0567 36.5542 50.0408C36.6154 50.0249 36.679 50.0169 36.7449 50.0169ZM36.9144 50.5458L36.7882 50.5503C36.6846 50.5538 36.6119 50.5714 36.5701 50.6032C36.5283 50.635 36.5074 50.6786 36.5074 50.7339C36.5074 50.7822 36.5218 50.8175 36.5506 50.8399C36.5795 50.8617 36.6175 50.8725 36.6645 50.8725C36.7364 50.8725 36.7958 50.8522 36.8429 50.8116C36.8906 50.7704 36.9144 50.7101 36.9144 50.6306V50.5458ZM37.906 50.0169C37.9225 50.0169 37.9405 50.0178 37.9599 50.0196C37.9793 50.0213 37.9961 50.0237 38.0102 50.0266L37.9908 50.2209C37.9784 50.2174 37.9631 50.2147 37.9449 50.2129C37.9272 50.2112 37.9113 50.2103 37.8972 50.2103C37.8601 50.2103 37.8248 50.2165 37.7912 50.2288C37.7577 50.2406 37.728 50.2589 37.7021 50.2836C37.6762 50.3077 37.6559 50.338 37.6411 50.3745C37.6264 50.411 37.6191 50.4534 37.6191 50.5017V51.0129H37.4107V50.0355H37.5731L37.6014 50.2076H37.6111C37.6305 50.1729 37.6547 50.1411 37.6835 50.1123C37.7124 50.0834 37.7453 50.0605 37.7824 50.0434C37.8201 50.0258 37.8613 50.0169 37.906 50.0169Z" fill="#383B41" fill-opacity="0.72"/>
<path d="M109.94 51.0129L109.568 49.9348H109.56C109.562 49.9589 109.564 49.9919 109.566 50.0337C109.569 50.0755 109.571 50.1202 109.572 50.1679C109.574 50.2156 109.575 50.2612 109.575 50.3048V51.0129H109.382V49.722H109.68L110.038 50.7525H110.043L110.413 49.722H110.71V51.0129H110.507V50.2942C110.507 50.2547 110.508 50.2121 110.509 50.1661C110.511 50.1202 110.513 50.0767 110.514 50.0355C110.517 49.9943 110.519 49.9613 110.52 49.9366H110.513L110.127 51.0129H109.94ZM111.894 50.522C111.894 50.6032 111.883 50.6753 111.862 50.7383C111.841 50.8013 111.81 50.8546 111.769 50.8982C111.729 50.9411 111.68 50.9741 111.623 50.997C111.566 51.0194 111.501 51.0306 111.429 51.0306C111.362 51.0306 111.301 51.0194 111.245 50.997C111.189 50.9741 111.14 50.9411 111.099 50.8982C111.058 50.8546 111.027 50.8013 111.005 50.7383C110.982 50.6753 110.971 50.6032 110.971 50.522C110.971 50.4143 110.99 50.323 111.027 50.2483C111.064 50.1729 111.118 50.1155 111.187 50.0761C111.257 50.0366 111.34 50.0169 111.435 50.0169C111.526 50.0169 111.605 50.0366 111.674 50.0761C111.743 50.1155 111.797 50.1729 111.835 50.2483C111.874 50.3236 111.894 50.4149 111.894 50.522ZM111.185 50.522C111.185 50.5932 111.193 50.6541 111.21 50.7048C111.228 50.7554 111.255 50.7943 111.292 50.8213C111.328 50.8478 111.375 50.8611 111.433 50.8611C111.49 50.8611 111.538 50.8478 111.574 50.8213C111.611 50.7943 111.637 50.7554 111.654 50.7048C111.672 50.6541 111.68 50.5932 111.68 50.522C111.68 50.4508 111.672 50.3904 111.654 50.341C111.637 50.2909 111.611 50.253 111.574 50.2271C111.538 50.2006 111.49 50.1873 111.432 50.1873C111.346 50.1873 111.283 50.2162 111.244 50.2739C111.204 50.3316 111.185 50.4143 111.185 50.522ZM112.642 50.0169C112.752 50.0169 112.837 50.0455 112.899 50.1026C112.96 50.1591 112.991 50.25 112.991 50.3754V51.0129H112.784V50.4143C112.784 50.3383 112.768 50.2815 112.737 50.2439C112.706 50.2056 112.658 50.1865 112.592 50.1865C112.497 50.1865 112.431 50.2156 112.394 50.2739C112.358 50.3322 112.34 50.4166 112.34 50.5273V51.0129H112.132V50.0355H112.294L112.323 50.1679H112.334C112.356 50.1338 112.382 50.1058 112.413 50.084C112.445 50.0617 112.48 50.0449 112.519 50.0337C112.558 50.0225 112.599 50.0169 112.642 50.0169ZM113.646 50.8628C113.673 50.8628 113.699 50.8605 113.726 50.8558C113.752 50.8505 113.777 50.8443 113.798 50.8372V50.9944C113.775 51.0044 113.746 51.0129 113.709 51.02C113.673 51.0271 113.635 51.0306 113.595 51.0306C113.54 51.0306 113.49 51.0215 113.446 51.0032C113.402 50.9844 113.367 50.9523 113.341 50.907C113.315 50.8617 113.302 50.799 113.302 50.7189V50.1935H113.169V50.1008L113.312 50.0275L113.38 49.8182H113.51V50.0355H113.79V50.1935H113.51V50.7163C113.51 50.7657 113.523 50.8025 113.548 50.8266C113.572 50.8508 113.605 50.8628 113.646 50.8628ZM114.205 49.639V49.9843C114.205 50.0202 114.203 50.0552 114.201 50.0893C114.199 50.1235 114.197 50.15 114.195 50.1688H114.206C114.227 50.1347 114.252 50.1067 114.282 50.0849C114.312 50.0625 114.346 50.0458 114.383 50.0346C114.421 50.0234 114.461 50.0178 114.503 50.0178C114.578 50.0178 114.641 50.0305 114.694 50.0558C114.746 50.0805 114.786 50.1191 114.814 50.1714C114.842 50.2238 114.856 50.2918 114.856 50.3754V51.0129H114.649V50.4143C114.649 50.3383 114.633 50.2815 114.602 50.2439C114.571 50.2056 114.522 50.1865 114.457 50.1865C114.394 50.1865 114.344 50.1997 114.307 50.2262C114.27 50.2521 114.244 50.2907 114.228 50.3419C114.212 50.3925 114.205 50.4543 114.205 50.5273V51.0129H113.997V49.639H114.205ZM115.69 49.722L115.208 51.0129H115.014L115.495 49.722H115.69ZM116.24 50.311L116.546 49.722H116.775L116.346 50.5114V51.0129H116.135V50.5193L115.705 49.722H115.935L116.24 50.311ZM117.313 50.0169C117.4 50.0169 117.475 50.0349 117.537 50.0708C117.599 50.1067 117.647 50.1576 117.681 50.2235C117.714 50.2895 117.731 50.3684 117.731 50.4602V50.5714H117.079C117.081 50.6662 117.106 50.7392 117.155 50.7904C117.203 50.8416 117.272 50.8672 117.359 50.8672C117.422 50.8672 117.478 50.8614 117.527 50.8496C117.577 50.8372 117.629 50.8193 117.682 50.7957V50.9644C117.633 50.9873 117.583 51.0041 117.533 51.0147C117.482 51.0253 117.421 51.0306 117.351 51.0306C117.255 51.0306 117.17 51.0121 117.097 50.975C117.025 50.9373 116.968 50.8814 116.927 50.8072C116.886 50.733 116.866 50.6409 116.866 50.5308C116.866 50.4213 116.884 50.3283 116.921 50.2518C116.959 50.1753 117.011 50.117 117.078 50.077C117.145 50.0369 117.223 50.0169 117.313 50.0169ZM117.313 50.1732C117.247 50.1732 117.194 50.1944 117.154 50.2368C117.114 50.2792 117.09 50.3413 117.083 50.4231H117.528C117.528 50.3742 117.519 50.331 117.503 50.2933C117.488 50.2556 117.465 50.2262 117.433 50.205C117.402 50.1838 117.362 50.1732 117.313 50.1732ZM118.348 50.0169C118.472 50.0169 118.565 50.0443 118.628 50.099C118.692 50.1538 118.724 50.2391 118.724 50.3551V51.0129H118.576L118.536 50.8743H118.529C118.502 50.9096 118.473 50.9388 118.444 50.9617C118.414 50.9847 118.38 51.0018 118.341 51.0129C118.303 51.0247 118.256 51.0306 118.201 51.0306C118.143 51.0306 118.091 51.02 118.045 50.9988C117.999 50.977 117.963 50.9441 117.936 50.8999C117.91 50.8558 117.896 50.7998 117.896 50.7321C117.896 50.6315 117.934 50.5558 118.008 50.5052C118.084 50.4546 118.197 50.4266 118.349 50.4213L118.519 50.4152V50.3639C118.519 50.2962 118.503 50.248 118.471 50.2191C118.44 50.1903 118.396 50.1759 118.339 50.1759C118.29 50.1759 118.242 50.1829 118.197 50.1971C118.151 50.2112 118.106 50.2285 118.062 50.2491L117.995 50.1026C118.043 50.0773 118.097 50.0567 118.158 50.0408C118.219 50.0249 118.282 50.0169 118.348 50.0169ZM118.518 50.5458L118.392 50.5503C118.288 50.5538 118.215 50.5714 118.174 50.6032C118.132 50.635 118.111 50.6786 118.111 50.7339C118.111 50.7822 118.125 50.8175 118.154 50.8399C118.183 50.8617 118.221 50.8725 118.268 50.8725C118.34 50.8725 118.399 50.8522 118.446 50.8116C118.494 50.7704 118.518 50.7101 118.518 50.6306V50.5458ZM119.51 50.0169C119.526 50.0169 119.544 50.0178 119.563 50.0196C119.583 50.0213 119.6 50.0237 119.614 50.0266L119.594 50.2209C119.582 50.2174 119.567 50.2147 119.548 50.2129C119.531 50.2112 119.515 50.2103 119.501 50.2103C119.464 50.2103 119.428 50.2165 119.395 50.2288C119.361 50.2406 119.331 50.2589 119.306 50.2836C119.28 50.3077 119.259 50.338 119.245 50.3745C119.23 50.411 119.223 50.4534 119.223 50.5017V51.0129H119.014V50.0355H119.177L119.205 50.2076H119.215C119.234 50.1729 119.258 50.1411 119.287 50.1123C119.316 50.0834 119.349 50.0605 119.386 50.0434C119.424 50.0258 119.465 50.0169 119.51 50.0169Z" fill="#383B41" fill-opacity="0.72"/>
<path d="M191.543 51.0129L191.171 49.9348H191.163C191.165 49.9589 191.167 49.9919 191.17 50.0337C191.172 50.0755 191.174 50.1202 191.176 50.1679C191.178 50.2156 191.179 50.2612 191.179 50.3048V51.0129H190.986V49.722H191.284L191.641 50.7525H191.646L192.016 49.722H192.313V51.0129H192.111V50.2942C192.111 50.2547 192.112 50.2121 192.113 50.1661C192.114 50.1202 192.116 50.0767 192.118 50.0355C192.12 49.9943 192.122 49.9613 192.123 49.9366H192.116L191.73 51.0129H191.543ZM193.497 50.522C193.497 50.6032 193.487 50.6753 193.465 50.7383C193.444 50.8013 193.413 50.8546 193.373 50.8982C193.332 50.9411 193.283 50.9741 193.226 50.997C193.169 51.0194 193.105 51.0306 193.033 51.0306C192.966 51.0306 192.904 51.0194 192.848 50.997C192.792 50.9741 192.744 50.9411 192.703 50.8982C192.662 50.8546 192.63 50.8013 192.608 50.7383C192.586 50.6753 192.575 50.6032 192.575 50.522C192.575 50.4143 192.593 50.323 192.63 50.2483C192.668 50.1729 192.721 50.1155 192.791 50.0761C192.86 50.0366 192.943 50.0169 193.039 50.0169C193.129 50.0169 193.209 50.0366 193.277 50.0761C193.346 50.1155 193.4 50.1729 193.439 50.2483C193.478 50.3236 193.497 50.4149 193.497 50.522ZM192.788 50.522C192.788 50.5932 192.797 50.6541 192.814 50.7048C192.831 50.7554 192.859 50.7943 192.895 50.8213C192.932 50.8478 192.979 50.8611 193.036 50.8611C193.094 50.8611 193.141 50.8478 193.178 50.8213C193.214 50.7943 193.241 50.7554 193.258 50.7048C193.275 50.6541 193.284 50.5932 193.284 50.522C193.284 50.4508 193.275 50.3904 193.258 50.341C193.241 50.2909 193.214 50.253 193.178 50.2271C193.141 50.2006 193.094 50.1873 193.035 50.1873C192.949 50.1873 192.887 50.2162 192.847 50.2739C192.808 50.3316 192.788 50.4143 192.788 50.522ZM194.245 50.0169C194.355 50.0169 194.441 50.0455 194.502 50.1026C194.564 50.1591 194.595 50.25 194.595 50.3754V51.0129H194.387V50.4143C194.387 50.3383 194.372 50.2815 194.341 50.2439C194.309 50.2056 194.261 50.1865 194.196 50.1865C194.101 50.1865 194.035 50.2156 193.998 50.2739C193.961 50.3322 193.943 50.4166 193.943 50.5273V51.0129H193.736V50.0355H193.897L193.926 50.1679H193.938C193.959 50.1338 193.985 50.1058 194.016 50.084C194.048 50.0617 194.084 50.0449 194.122 50.0337C194.162 50.0225 194.203 50.0169 194.245 50.0169ZM195.249 50.8628C195.276 50.8628 195.303 50.8605 195.329 50.8558C195.356 50.8505 195.38 50.8443 195.402 50.8372V50.9944C195.379 51.0044 195.349 51.0129 195.313 51.02C195.276 51.0271 195.238 51.0306 195.199 51.0306C195.143 51.0306 195.094 51.0215 195.05 51.0032C195.005 50.9844 194.97 50.9523 194.944 50.907C194.919 50.8617 194.906 50.799 194.906 50.7189V50.1935H194.772V50.1008L194.915 50.0275L194.983 49.8182H195.114V50.0355H195.394V50.1935H195.114V50.7163C195.114 50.7657 195.126 50.8025 195.151 50.8266C195.176 50.8508 195.208 50.8628 195.249 50.8628ZM195.808 49.639V49.9843C195.808 50.0202 195.807 50.0552 195.805 50.0893C195.803 50.1235 195.801 50.15 195.798 50.1688H195.81C195.83 50.1347 195.856 50.1067 195.886 50.0849C195.916 50.0625 195.949 50.0458 195.986 50.0346C196.024 50.0234 196.064 50.0178 196.106 50.0178C196.181 50.0178 196.245 50.0305 196.297 50.0558C196.35 50.0805 196.39 50.1191 196.417 50.1714C196.446 50.2238 196.46 50.2918 196.46 50.3754V51.0129H196.252V50.4143C196.252 50.3383 196.237 50.2815 196.205 50.2439C196.174 50.2056 196.126 50.1865 196.061 50.1865C195.998 50.1865 195.948 50.1997 195.91 50.2262C195.874 50.2521 195.848 50.2907 195.832 50.3419C195.816 50.3925 195.808 50.4543 195.808 50.5273V51.0129H195.601V49.639H195.808ZM197.293 49.722L196.812 51.0129H196.618L197.099 49.722H197.293ZM197.843 50.311L198.15 49.722H198.378L197.949 50.5114V51.0129H197.738V50.5193L197.308 49.722H197.539L197.843 50.311ZM198.916 50.0169C199.003 50.0169 199.078 50.0349 199.14 50.0708C199.203 50.1067 199.251 50.1576 199.284 50.2235C199.318 50.2895 199.335 50.3684 199.335 50.4602V50.5714H198.682C198.685 50.6662 198.71 50.7392 198.758 50.7904C198.807 50.8416 198.875 50.8672 198.963 50.8672C199.025 50.8672 199.081 50.8614 199.131 50.8496C199.181 50.8372 199.232 50.8193 199.285 50.7957V50.9644C199.236 50.9873 199.187 51.0041 199.136 51.0147C199.085 51.0253 199.025 51.0306 198.954 51.0306C198.858 51.0306 198.774 51.0121 198.701 50.975C198.628 50.9373 198.572 50.8814 198.53 50.8072C198.49 50.733 198.469 50.6409 198.469 50.5308C198.469 50.4213 198.488 50.3283 198.525 50.2518C198.562 50.1753 198.614 50.117 198.681 50.077C198.748 50.0369 198.827 50.0169 198.916 50.0169ZM198.916 50.1732C198.851 50.1732 198.798 50.1944 198.757 50.2368C198.717 50.2792 198.694 50.3413 198.687 50.4231H199.132C199.131 50.3742 199.123 50.331 199.107 50.2933C199.092 50.2556 199.068 50.2262 199.036 50.205C199.005 50.1838 198.965 50.1732 198.916 50.1732ZM199.952 50.0169C200.076 50.0169 200.169 50.0443 200.232 50.099C200.295 50.1538 200.327 50.2391 200.327 50.3551V51.0129H200.18L200.14 50.8743H200.133C200.105 50.9096 200.077 50.9388 200.047 50.9617C200.018 50.9847 199.984 51.0018 199.945 51.0129C199.907 51.0247 199.86 51.0306 199.804 51.0306C199.746 51.0306 199.694 51.02 199.648 50.9988C199.602 50.977 199.566 50.9441 199.54 50.8999C199.513 50.8558 199.5 50.7998 199.5 50.7321C199.5 50.6315 199.537 50.5558 199.612 50.5052C199.687 50.4546 199.801 50.4266 199.953 50.4213L200.122 50.4152V50.3639C200.122 50.2962 200.106 50.248 200.075 50.2191C200.043 50.1903 199.999 50.1759 199.942 50.1759C199.893 50.1759 199.846 50.1829 199.8 50.1971C199.754 50.2112 199.709 50.2285 199.666 50.2491L199.599 50.1026C199.646 50.0773 199.701 50.0567 199.761 50.0408C199.822 50.0249 199.886 50.0169 199.952 50.0169ZM200.121 50.5458L199.995 50.5503C199.892 50.5538 199.819 50.5714 199.777 50.6032C199.735 50.635 199.714 50.6786 199.714 50.7339C199.714 50.7822 199.729 50.8175 199.758 50.8399C199.787 50.8617 199.824 50.8725 199.872 50.8725C199.943 50.8725 200.003 50.8522 200.05 50.8116C200.098 50.7704 200.121 50.7101 200.121 50.6306V50.5458ZM201.113 50.0169C201.13 50.0169 201.148 50.0178 201.167 50.0196C201.186 50.0213 201.203 50.0237 201.217 50.0266L201.198 50.2209C201.185 50.2174 201.17 50.2147 201.152 50.2129C201.134 50.2112 201.118 50.2103 201.104 50.2103C201.067 50.2103 201.032 50.2165 200.998 50.2288C200.965 50.2406 200.935 50.2589 200.909 50.2836C200.883 50.3077 200.863 50.338 200.848 50.3745C200.833 50.411 200.826 50.4534 200.826 50.5017V51.0129H200.618V50.0355H200.78L200.808 50.2076H200.818C200.838 50.1729 200.862 50.1411 200.891 50.1123C200.919 50.0834 200.952 50.0605 200.989 50.0434C201.027 50.0258 201.068 50.0169 201.113 50.0169Z" fill="#383B41" fill-opacity="0.72"/>
<path d="M15.9242 47.3323C15.9242 47.472 15.9136 47.5968 15.8924 47.7067C15.8712 47.8166 15.8378 47.9096 15.7923 47.9857C15.7468 48.0619 15.6879 48.12 15.6157 48.16C15.5435 48.1992 15.4568 48.2189 15.3555 48.2189C15.2276 48.2189 15.1216 48.1839 15.0376 48.1141C14.9545 48.0442 14.8921 47.9434 14.8505 47.8115C14.8096 47.6789 14.7892 47.5191 14.7892 47.3323C14.7892 47.1487 14.8077 46.9909 14.8446 46.859C14.8822 46.7264 14.9427 46.6248 15.0259 46.5541C15.1091 46.4827 15.219 46.447 15.3555 46.447C15.485 46.447 15.5918 46.4823 15.6758 46.5529C15.7597 46.6228 15.8221 46.724 15.863 46.8567C15.9038 46.9886 15.9242 47.1471 15.9242 47.3323ZM14.9858 47.3323C14.9858 47.4924 14.998 47.6259 15.0223 47.7326C15.0467 47.8394 15.0859 47.9194 15.1401 47.9728C15.195 48.0254 15.2668 48.0517 15.3555 48.0517C15.4442 48.0517 15.5156 48.0254 15.5698 47.9728C15.6247 47.9202 15.6644 47.8405 15.6887 47.7338C15.7138 47.6271 15.7264 47.4932 15.7264 47.3323C15.7264 47.1746 15.7142 47.0427 15.6899 46.9368C15.6656 46.83 15.6263 46.7499 15.5722 46.6966C15.518 46.6424 15.4458 46.6153 15.3555 46.6153C15.2653 46.6153 15.1931 46.6424 15.1389 46.6966C15.0847 46.7499 15.0455 46.83 15.0212 46.9368C14.9976 47.0427 14.9858 47.1746 14.9858 47.3323Z" fill="#383B41" fill-opacity="0.72"/>
<path d="M7.82227 38.6203L7.82227 38.851L6.37651 39.7894L6.37651 39.7988C6.41497 39.7964 6.45892 39.7937 6.50837 39.7905C6.55703 39.7874 6.60923 39.785 6.66495 39.7835C6.7199 39.7811 6.77602 39.7799 6.83331 39.7799L7.82227 39.7799L7.82227 39.966L6.10102 39.966L6.10102 39.7364L7.54206 38.8016L7.54206 38.7933C7.51459 38.7949 7.47574 38.7969 7.42551 38.7992C7.37449 38.8016 7.31994 38.8039 7.26186 38.8063C7.20299 38.8079 7.14844 38.8086 7.09821 38.8086L6.10102 38.8086L6.10102 38.6203L7.82227 38.6203ZM6.53192 37.1145L7.82227 37.1145L7.82227 37.2746L7.64096 37.3028L7.64096 37.3134C7.6857 37.3401 7.72337 37.3747 7.75398 37.417C7.78459 37.4594 7.80735 37.5073 7.82227 37.5607C7.83796 37.6133 7.84581 37.6694 7.84581 37.729C7.84581 37.8311 7.82933 37.9166 7.79636 37.9857C7.7634 38.0548 7.71238 38.107 7.64331 38.1423C7.57424 38.1768 7.48555 38.1941 7.37724 38.1941L6.53192 38.1941L6.53192 37.9963L7.36311 37.9963C7.47064 37.9963 7.55109 37.972 7.60446 37.9233C7.65705 37.8746 7.68334 37.8005 7.68334 37.7008C7.68334 37.605 7.66529 37.5289 7.62918 37.4724C7.59308 37.4151 7.5401 37.3739 7.47025 37.3488C7.39961 37.3236 7.31327 37.3111 7.21123 37.3111L6.53192 37.3111L6.53192 37.1145ZM6.50837 35.3002C6.50837 35.1581 6.54565 35.051 6.62022 34.9788C6.694 34.9066 6.81291 34.8705 6.97695 34.8705L7.82227 34.8705L7.82227 35.0636L6.98636 35.0636C6.88197 35.0636 6.80388 35.0863 6.75208 35.1319C6.69949 35.1766 6.6732 35.2433 6.6732 35.332C6.6732 35.4568 6.7093 35.5474 6.78151 35.604C6.85372 35.6605 6.96007 35.6887 7.10056 35.6887L7.82227 35.6887L7.82227 35.883L6.98636 35.883C6.91651 35.883 6.85843 35.8932 6.81212 35.9136C6.76581 35.9332 6.73128 35.963 6.70852 36.0031C6.68497 36.0423 6.6732 36.0922 6.6732 36.1526C6.6732 36.2381 6.69086 36.3068 6.72618 36.3586C6.7615 36.4104 6.81408 36.4481 6.88394 36.4716C6.95301 36.4944 7.03817 36.5058 7.13942 36.5058L7.82227 36.5058L7.82227 36.7012L6.53192 36.7012L6.53192 36.5435L6.7144 36.514L6.7144 36.5034C6.66966 36.4775 6.63199 36.445 6.60138 36.4057C6.57077 36.3665 6.54761 36.3225 6.53192 36.2739C6.51622 36.2252 6.50837 36.1734 6.50837 36.1185C6.50837 36.0203 6.52681 35.9383 6.5637 35.8724C6.59981 35.8057 6.65514 35.7574 6.72971 35.7276L6.72971 35.717C6.65514 35.6746 6.59981 35.6165 6.5637 35.5427C6.52681 35.469 6.50837 35.3881 6.50837 35.3002ZM5.99035 34.2736L6.44833 34.2736C6.50091 34.2736 6.55193 34.2752 6.60138 34.2783C6.65083 34.2806 6.68929 34.2826 6.71676 34.2842L6.71676 34.2736C6.65868 34.2383 6.60962 34.1872 6.56959 34.1205C6.52956 34.0538 6.50955 33.9687 6.50955 33.8651C6.50955 33.7034 6.56567 33.5746 6.6779 33.4789C6.78936 33.3823 6.95536 33.3341 7.17591 33.3341C7.32112 33.3341 7.44356 33.3561 7.54324 33.4C7.64292 33.444 7.71827 33.506 7.76929 33.586C7.8203 33.6661 7.84581 33.7607 7.84581 33.8698C7.84581 33.9718 7.82697 34.0558 7.7893 34.1217C7.75084 34.1869 7.70414 34.2371 7.6492 34.2724L7.6492 34.2877L7.82227 34.3277L7.82227 34.469L5.99035 34.469L5.99035 34.2736ZM6.6732 33.8968C6.6732 33.9902 6.69164 34.0644 6.72853 34.1194C6.76463 34.1743 6.81958 34.2139 6.89336 34.2383C6.96635 34.2618 7.05897 34.2736 7.1712 34.2736L7.1818 34.2736C7.34427 34.2736 7.46868 34.2465 7.55501 34.1923C7.64056 34.1382 7.68334 34.0397 7.68334 33.8968C7.68334 33.7768 7.63939 33.6869 7.55148 33.6272C7.46357 33.5668 7.33799 33.5366 7.17474 33.5366C7.00834 33.5366 6.88315 33.5664 6.79917 33.6261C6.71519 33.6849 6.6732 33.7752 6.6732 33.8968ZM6.50837 32.4958C6.50837 32.3859 6.5327 32.2918 6.58136 32.2133C6.63003 32.1348 6.69831 32.0747 6.78622 32.0331C6.87334 31.9915 6.97538 31.9707 7.09232 31.9707L7.21359 31.9707L7.21359 32.862C7.36507 32.8596 7.48045 32.8219 7.55972 32.7489C7.63899 32.676 7.67863 32.5731 7.67863 32.4405C7.67863 32.3589 7.67118 32.2866 7.65626 32.2239C7.64135 32.1611 7.61937 32.0959 7.59033 32.0284L7.76222 32.0284C7.79126 32.0936 7.81245 32.1583 7.8258 32.2227C7.83914 32.2863 7.84581 32.3616 7.84581 32.4487C7.84581 32.5727 7.8207 32.6811 7.77046 32.7737C7.71945 32.8655 7.64488 32.9369 7.54677 32.9879C7.44866 33.039 7.32857 33.0645 7.18651 33.0645C7.04759 33.0645 6.9275 33.0413 6.82625 32.995C6.72421 32.9479 6.64572 32.882 6.59078 32.7972C6.53584 32.7117 6.50837 32.6112 6.50837 32.4958ZM6.66849 32.4982C6.66849 32.6026 6.70263 32.6858 6.77091 32.7478C6.8392 32.8098 6.93456 32.8467 7.057 32.8584L7.057 32.1756C6.98009 32.1764 6.91259 32.1885 6.8545 32.2121C6.79564 32.2348 6.75011 32.2698 6.71793 32.3169C6.68497 32.364 6.66849 32.4244 6.66849 32.4982ZM6.50837 31.0524C6.50837 31.0265 6.50994 30.9994 6.51308 30.9712C6.51543 30.9429 6.51897 30.9178 6.52368 30.8958L6.70498 30.9206C6.69949 30.9418 6.69517 30.9653 6.69203 30.9912C6.68889 31.0171 6.68732 31.0414 6.68732 31.0642C6.68732 31.116 6.69792 31.1651 6.71911 31.2114C6.73952 31.2569 6.76934 31.2969 6.80859 31.3314C6.84705 31.366 6.89375 31.3931 6.94869 31.4127C7.00285 31.4323 7.06328 31.4421 7.13 31.4421L7.82227 31.4421L7.82227 31.6387L6.53192 31.6387L6.53192 31.4763L6.76974 31.4551L6.76974 31.4468C6.72186 31.4201 6.6783 31.388 6.63905 31.3503C6.59902 31.3126 6.56724 31.269 6.54369 31.2196C6.52014 31.1694 6.50837 31.1136 6.50837 31.0524ZM6.95929 28.5035C7.09193 28.5035 7.2128 28.5204 7.3219 28.5541C7.43022 28.5879 7.52362 28.6381 7.60211 28.7048C7.67981 28.7708 7.73985 28.8528 7.78224 28.9509C7.82462 29.049 7.84581 29.1628 7.84581 29.2923C7.84581 29.4257 7.82462 29.5423 7.78224 29.642C7.73985 29.7409 7.67942 29.8233 7.60093 29.8892C7.52244 29.9544 7.42865 30.0034 7.31955 30.0364C7.21045 30.0686 7.08958 30.0847 6.95693 30.0847C6.78112 30.0847 6.62689 30.0556 6.49424 29.9975C6.3616 29.9395 6.25838 29.8515 6.18461 29.7338C6.11083 29.6153 6.07394 29.467 6.07394 29.2888C6.07394 29.1185 6.11043 28.9752 6.18343 28.8591C6.25642 28.7421 6.35924 28.6538 6.49189 28.5942C6.62375 28.5337 6.77955 28.5035 6.95929 28.5035ZM6.95929 29.8739C7.10527 29.8739 7.23164 29.8531 7.33838 29.8115C7.44513 29.7699 7.52754 29.7063 7.58562 29.6208C7.6437 29.5345 7.67274 29.425 7.67274 29.2923C7.67274 29.1589 7.6437 29.0498 7.58562 28.965C7.52754 28.8795 7.44513 28.8163 7.33838 28.7755C7.23164 28.7347 7.10527 28.7143 6.95929 28.7143C6.73716 28.7143 6.5637 28.761 6.43891 28.8544C6.31333 28.947 6.25054 29.0918 6.25054 29.2888C6.25054 29.4222 6.27918 29.5321 6.33648 29.6184C6.39378 29.7048 6.4754 29.7691 6.58136 29.8115C6.68654 29.8531 6.81251 29.8739 6.95929 29.8739ZM6.68497 27.5746L6.68497 27.896L7.82227 27.896L7.82227 28.0914L6.68497 28.0914L6.68497 28.3198L6.59078 28.3198L6.52603 28.0914L6.44008 28.0914C6.33177 28.0914 6.24386 28.0754 6.17636 28.0432C6.10808 28.011 6.05785 27.9643 6.02567 27.9031C5.99349 27.8419 5.9774 27.7673 5.9774 27.6794C5.9774 27.6299 5.98171 27.5848 5.99035 27.544C5.99898 27.5024 6.00879 27.4659 6.01978 27.4345L6.17401 27.4851C6.16538 27.5118 6.15753 27.542 6.15046 27.5758C6.14261 27.6087 6.13869 27.6425 6.13869 27.677C6.13869 27.7516 6.16302 27.8069 6.21168 27.843C6.25956 27.8783 6.33491 27.896 6.43773 27.896L6.53192 27.896L6.53192 27.5746L6.68497 27.5746ZM6.10102 25.3789L7.21477 25.3789C7.33642 25.3789 7.44474 25.4036 7.53971 25.4531C7.63468 25.5017 7.70963 25.5755 7.76458 25.6744C7.81873 25.7733 7.84581 25.8973 7.84581 26.0464C7.84581 26.2591 7.78812 26.4212 7.67274 26.5327C7.55737 26.6433 7.40314 26.6987 7.21006 26.6987L6.10102 26.6987L6.10102 26.4973L7.21594 26.4973C7.36193 26.4973 7.47456 26.4589 7.55383 26.382C7.63311 26.3043 7.67274 26.1885 7.67274 26.0347C7.67274 25.9295 7.65391 25.8435 7.61623 25.7768C7.57777 25.7093 7.5244 25.6595 7.45612 25.6273C7.38705 25.5943 7.30738 25.5779 7.21712 25.5779L6.10102 25.5779L6.10102 25.3789ZM7.46907 24.1168C7.55148 24.1168 7.62094 24.1376 7.67745 24.1792C7.73318 24.22 7.77517 24.2789 7.80343 24.3558C7.83168 24.4319 7.84581 24.523 7.84581 24.6289C7.84581 24.7192 7.83875 24.7973 7.82462 24.8632C7.81049 24.9291 7.79048 24.9868 7.76458 25.0363L7.58445 25.0363C7.61035 24.9837 7.63389 24.9209 7.65508 24.8479C7.67628 24.7749 7.68687 24.7004 7.68687 24.6242C7.68687 24.5128 7.66882 24.4319 7.63272 24.3817C7.59661 24.3315 7.54756 24.3063 7.48555 24.3063C7.45023 24.3063 7.41923 24.3165 7.39254 24.337C7.36507 24.3566 7.33878 24.3899 7.31366 24.437C7.28776 24.4841 7.2595 24.5493 7.22889 24.6325C7.1975 24.7149 7.16649 24.7863 7.13588 24.8467C7.10449 24.9064 7.06642 24.9527 7.02168 24.9857C6.97695 25.0178 6.91886 25.0339 6.84744 25.0339C6.73834 25.0339 6.65475 24.99 6.59667 24.9021C6.5378 24.8134 6.50837 24.6972 6.50837 24.5536C6.50837 24.4759 6.51622 24.4033 6.53192 24.3358C6.54683 24.2675 6.56724 24.2039 6.59314 24.1451L6.74972 24.211C6.72696 24.2644 6.70773 24.3213 6.69203 24.3817C6.67633 24.4421 6.66849 24.5037 6.66849 24.5665C6.66849 24.6568 6.6834 24.7263 6.71322 24.7749C6.74305 24.8228 6.78386 24.8467 6.83567 24.8467C6.8757 24.8467 6.90866 24.8357 6.93456 24.8138C6.96046 24.791 6.98479 24.7549 7.00756 24.7055C7.03032 24.656 7.057 24.5909 7.08761 24.51C7.11744 24.4292 7.14844 24.3593 7.18062 24.3005C7.21202 24.2416 7.25048 24.1965 7.296 24.1651C7.34074 24.1329 7.39843 24.1168 7.46907 24.1168ZM6.50837 23.3056C6.50837 23.1957 6.5327 23.1015 6.58136 23.0231C6.63003 22.9446 6.69831 22.8845 6.78622 22.8429C6.87334 22.8013 6.97538 22.7805 7.09232 22.7805L7.21359 22.7805L7.21359 23.6718C7.36507 23.6694 7.48045 23.6317 7.55972 23.5587C7.63899 23.4857 7.67863 23.3829 7.67863 23.2503C7.67863 23.1687 7.67117 23.0964 7.65626 23.0337C7.64135 22.9709 7.61937 22.9057 7.59033 22.8382L7.76222 22.8382C7.79126 22.9034 7.81245 22.9681 7.8258 23.0325C7.83914 23.0961 7.84581 23.1714 7.84581 23.2585C7.84581 23.3825 7.8207 23.4909 7.77046 23.5835C7.71945 23.6753 7.64488 23.7467 7.54677 23.7977C7.44866 23.8488 7.32857 23.8743 7.18651 23.8743C7.04758 23.8743 6.9275 23.8511 6.82625 23.8048C6.72421 23.7577 6.64572 23.6918 6.59078 23.607C6.53584 23.5215 6.50837 23.421 6.50837 23.3056ZM6.66849 23.308C6.66849 23.4124 6.70263 23.4956 6.77091 23.5576C6.8392 23.6196 6.93456 23.6565 7.057 23.6682L7.057 22.9854C6.98008 22.9862 6.91258 22.9983 6.8545 23.0219C6.79564 23.0446 6.75011 23.0796 6.71793 23.1267C6.68497 23.1738 6.66849 23.2342 6.66849 23.308ZM6.50837 21.8622C6.50837 21.8363 6.50994 21.8092 6.51308 21.781C6.51543 21.7527 6.51897 21.7276 6.52367 21.7056L6.70498 21.7304C6.69949 21.7515 6.69517 21.7751 6.69203 21.801C6.68889 21.8269 6.68732 21.8512 6.68732 21.874C6.68732 21.9258 6.69792 21.9748 6.71911 22.0212C6.73952 22.0667 6.76934 22.1067 6.80859 22.1412C6.84705 22.1758 6.89375 22.2029 6.94869 22.2225C7.00285 22.2421 7.06328 22.2519 7.13 22.2519L7.82226 22.2519L7.82226 22.4485L6.53192 22.4485L6.53192 22.2861L6.76974 22.2649L6.76974 22.2566C6.72186 22.2299 6.6783 22.1978 6.63905 22.1601C6.59902 22.1224 6.56724 22.0788 6.54369 22.0294C6.52014 21.9792 6.50837 21.9234 6.50837 21.8622ZM7.46907 20.6272C7.55148 20.6272 7.62094 20.648 7.67745 20.6896C7.73318 20.7304 7.77517 20.7893 7.80343 20.8662C7.83168 20.9423 7.84581 21.0334 7.84581 21.1393C7.84581 21.2296 7.83875 21.3077 7.82462 21.3736C7.81049 21.4396 7.79048 21.4972 7.76458 21.5467L7.58445 21.5467C7.61035 21.4941 7.63389 21.4313 7.65508 21.3583C7.67628 21.2853 7.68687 21.2108 7.68687 21.1346C7.68687 21.0232 7.66882 20.9423 7.63272 20.8921C7.59661 20.8419 7.54756 20.8168 7.48555 20.8168C7.45023 20.8168 7.41923 20.827 7.39254 20.8474C7.36507 20.867 7.33878 20.9003 7.31366 20.9474C7.28776 20.9945 7.2595 21.0597 7.22889 21.1429C7.1975 21.2253 7.16649 21.2967 7.13588 21.3571C7.10449 21.4168 7.06642 21.4631 7.02168 21.4961C6.97695 21.5282 6.91886 21.5443 6.84744 21.5443C6.73834 21.5443 6.65475 21.5004 6.59667 21.4125C6.5378 21.3238 6.50837 21.2076 6.50837 21.064C6.50837 20.9863 6.51622 20.9137 6.53192 20.8462C6.54683 20.7779 6.56724 20.7143 6.59314 20.6555L6.74972 20.7214C6.72696 20.7748 6.70773 20.8317 6.69203 20.8921C6.67633 20.9525 6.66849 21.0141 6.66849 21.0769C6.66849 21.1672 6.6834 21.2367 6.71322 21.2853C6.74305 21.3332 6.78386 21.3571 6.83567 21.3571C6.8757 21.3571 6.90866 21.3462 6.93456 21.3242C6.96046 21.3014 6.98479 21.2653 7.00756 21.2159C7.03032 21.1664 7.057 21.1013 7.08761 21.0204C7.11744 20.9396 7.14844 20.8697 7.18062 20.8109C7.21202 20.752 7.25048 20.7069 7.296 20.6755C7.34074 20.6433 7.39843 20.6272 7.46907 20.6272Z" fill="#383B41"/>
<path d="M108.422 57.7148L107.844 56.1914H107.835C107.838 56.2236 107.841 56.2628 107.843 56.3091C107.845 56.3554 107.847 56.4061 107.849 56.461C107.85 56.5151 107.851 56.5705 107.851 56.627V57.7148H107.665V55.9936H107.962L108.507 57.4252H108.515L109.069 55.9936H109.363V57.7148H109.165V56.6129C109.165 56.5618 109.166 56.5108 109.167 56.4598C109.169 56.408 109.171 56.3593 109.173 56.3138C109.176 56.2675 109.178 56.2275 109.18 56.1937H109.171L108.586 57.7148H108.422ZM110.917 57.0673C110.917 57.1733 110.903 57.2679 110.876 57.3511C110.848 57.4342 110.809 57.5045 110.757 57.5618C110.705 57.6191 110.642 57.663 110.568 57.6937C110.495 57.7235 110.413 57.7384 110.32 57.7384C110.234 57.7384 110.154 57.7235 110.082 57.6937C110.011 57.663 109.949 57.6191 109.896 57.5618C109.844 57.5045 109.804 57.4342 109.775 57.3511C109.747 57.2679 109.733 57.1733 109.733 57.0673C109.733 56.926 109.756 56.8059 109.804 56.7071C109.852 56.6074 109.921 56.5316 110.009 56.4798C110.099 56.4272 110.205 56.4009 110.328 56.4009C110.446 56.4009 110.549 56.4272 110.637 56.4798C110.725 56.5324 110.794 56.6086 110.843 56.7082C110.892 56.8071 110.917 56.9268 110.917 57.0673ZM109.935 57.0673C109.935 57.1709 109.949 57.2608 109.976 57.3369C110.004 57.4131 110.046 57.4719 110.103 57.5135C110.161 57.5551 110.234 57.5759 110.325 57.5759C110.414 57.5759 110.488 57.5551 110.545 57.5135C110.603 57.4719 110.646 57.4131 110.673 57.3369C110.701 57.2608 110.714 57.1709 110.714 57.0673C110.714 56.9645 110.701 56.8758 110.673 56.8012C110.646 56.7259 110.603 56.6678 110.546 56.627C110.489 56.5862 110.415 56.5658 110.324 56.5658C110.189 56.5658 110.091 56.6101 110.028 56.6988C109.966 56.7875 109.935 56.9103 109.935 57.0673ZM111.866 56.4009C112.019 56.4009 112.135 56.4386 112.213 56.514C112.292 56.5885 112.331 56.7086 112.331 56.8742V57.7148H112.138V56.8872C112.138 56.7797 112.113 56.6992 112.064 56.6458C112.015 56.5925 111.94 56.5658 111.839 56.5658C111.696 56.5658 111.595 56.6062 111.537 56.687C111.479 56.7679 111.45 56.8852 111.45 57.0391V57.7148H111.255V56.4245H111.413L111.442 56.6105H111.453C111.48 56.565 111.515 56.5269 111.557 56.4963C111.6 56.4649 111.647 56.4414 111.7 56.4257C111.752 56.4092 111.808 56.4009 111.866 56.4009ZM113.15 57.5783C113.182 57.5783 113.215 57.5755 113.249 57.57C113.283 57.5645 113.31 57.5579 113.332 57.55V57.7019C113.309 57.7121 113.277 57.7207 113.236 57.7278C113.196 57.7349 113.157 57.7384 113.119 57.7384C113.05 57.7384 112.988 57.7266 112.933 57.7031C112.877 57.6787 112.832 57.6379 112.798 57.5806C112.765 57.5233 112.749 57.4441 112.749 57.3428V56.5775H112.565V56.4822L112.75 56.4057L112.828 56.1255H112.945V56.4245H113.323V56.5775H112.945V57.3369C112.945 57.4178 112.964 57.4782 113.001 57.5182C113.038 57.5583 113.088 57.5783 113.15 57.5783ZM113.788 55.8829V56.4304C113.788 56.4618 113.788 56.4936 113.786 56.5257C113.784 56.5571 113.782 56.5862 113.778 56.6129H113.791C113.817 56.5673 113.851 56.5293 113.892 56.4987C113.934 56.4673 113.981 56.4437 114.033 56.428C114.086 56.4115 114.142 56.4033 114.2 56.4033C114.304 56.4033 114.39 56.4198 114.459 56.4528C114.529 56.4857 114.582 56.5367 114.616 56.6058C114.651 56.6749 114.669 56.7643 114.669 56.8742V57.7148H114.476V56.8872C114.476 56.7797 114.451 56.6992 114.402 56.6458C114.353 56.5925 114.278 56.5658 114.177 56.5658C114.081 56.5658 114.005 56.5842 113.947 56.6211C113.891 56.6572 113.85 56.7106 113.825 56.7812C113.801 56.8519 113.788 56.9382 113.788 57.0402V57.7148H113.593V55.8829H113.788ZM115.724 55.9936L115.083 57.7148H114.89L115.532 55.9936H115.724ZM116.426 56.8566L116.884 55.9936H117.099L116.526 57.0473V57.7148H116.326V57.0567L115.751 55.9936H115.97L116.426 56.8566ZM117.803 56.4009C117.913 56.4009 118.007 56.4253 118.086 56.4739C118.164 56.5226 118.224 56.5909 118.266 56.6788C118.307 56.7659 118.328 56.868 118.328 56.9849V57.1062H117.437C117.439 57.2576 117.477 57.373 117.55 57.4523C117.623 57.5316 117.726 57.5712 117.858 57.5712C117.94 57.5712 118.012 57.5638 118.075 57.5488C118.138 57.5339 118.203 57.512 118.271 57.4829V57.6548C118.205 57.6838 118.141 57.705 118.076 57.7184C118.013 57.7317 117.937 57.7384 117.85 57.7384C117.726 57.7384 117.618 57.7133 117.525 57.663C117.433 57.612 117.362 57.5375 117.311 57.4393C117.26 57.3412 117.234 57.2212 117.234 57.0791C117.234 56.9402 117.258 56.8201 117.304 56.7188C117.351 56.6168 117.417 56.5383 117.502 56.4834C117.587 56.4284 117.688 56.4009 117.803 56.4009ZM117.801 56.5611C117.696 56.5611 117.613 56.5952 117.551 56.6635C117.489 56.7318 117.452 56.8271 117.44 56.9496H118.123C118.123 56.8727 118.11 56.8052 118.087 56.7471C118.064 56.6882 118.029 56.6427 117.982 56.6105C117.935 56.5775 117.875 56.5611 117.801 56.5611ZM119.143 56.4033C119.297 56.4033 119.411 56.4378 119.486 56.5069C119.56 56.576 119.597 56.6863 119.597 56.8377V57.7148H119.455L119.417 57.5241H119.408C119.372 57.5712 119.334 57.6108 119.295 57.643C119.256 57.6744 119.21 57.6984 119.158 57.7148C119.107 57.7305 119.044 57.7384 118.97 57.7384C118.891 57.7384 118.821 57.7247 118.76 57.6972C118.7 57.6697 118.652 57.6281 118.617 57.5724C118.582 57.5167 118.565 57.446 118.565 57.3605C118.565 57.2317 118.616 57.1329 118.718 57.0638C118.82 56.9947 118.975 56.957 119.184 56.9508L119.407 56.9413V56.8625C119.407 56.751 119.383 56.6729 119.335 56.6282C119.287 56.5834 119.219 56.5611 119.132 56.5611C119.065 56.5611 119 56.5709 118.939 56.5905C118.878 56.6101 118.82 56.6333 118.765 56.66L118.705 56.5116C118.763 56.4818 118.83 56.4563 118.905 56.4351C118.98 56.4139 119.06 56.4033 119.143 56.4033ZM119.404 57.0791L119.208 57.0873C119.047 57.0936 118.933 57.1199 118.867 57.1662C118.801 57.2125 118.769 57.2781 118.769 57.3628C118.769 57.4366 118.791 57.4912 118.836 57.5265C118.88 57.5618 118.94 57.5795 119.013 57.5795C119.128 57.5795 119.222 57.5477 119.295 57.4841C119.368 57.4205 119.404 57.3251 119.404 57.198V57.0791ZM120.586 56.4009C120.612 56.4009 120.639 56.4025 120.668 56.4057C120.696 56.408 120.721 56.4115 120.743 56.4163L120.718 56.5976C120.697 56.5921 120.673 56.5878 120.648 56.5846C120.622 56.5815 120.597 56.5799 120.575 56.5799C120.523 56.5799 120.474 56.5905 120.427 56.6117C120.382 56.6321 120.342 56.6619 120.307 56.7012C120.273 56.7396 120.246 56.7863 120.226 56.8413C120.206 56.8954 120.197 56.9559 120.197 57.0226V57.7148H120V56.4245H120.162L120.184 56.6623H120.192C120.219 56.6144 120.251 56.5709 120.288 56.5316C120.326 56.4916 120.37 56.4598 120.419 56.4363C120.469 56.4127 120.525 56.4009 120.586 56.4009Z" fill="#383B41"/>
<circle cx="32.5508" cy="18.8733" r="0.803721" fill="#00BCD4"/>
<circle cx="196.309" cy="39.1672" r="0.803721" fill="#43A047"/>
<circle cx="32.5508" cy="40.574" r="0.803721" fill="#43A047"/>
<circle cx="32.5508" cy="28.719" r="0.803721" fill="#801717"/>
<circle cx="114.53" cy="31.7329" r="0.803721" fill="#43A047"/>
<circle cx="114.53" cy="25.5042" r="0.803721" fill="#801717"/>
<circle cx="196.309" cy="26.7097" r="0.803721" fill="#801717"/>
<circle cx="114.53" cy="19.2752" r="0.803721" fill="#00BCD4"/>
<circle cx="196.309" cy="20.481" r="0.803721" fill="#00BCD4"/>
<path d="M32.5508 40.5738L114.53 31.7329L196.309 39.1673" stroke="#43A047" stroke-width="0.40186"/>
<path d="M32.5508 18.8733L114.53 19.2752L196.309 20.4807" stroke="#00BCD4" stroke-width="0.40186"/>
<path d="M32.5508 28.719L114.53 25.5042L196.309 26.7097" stroke="#801717" stroke-width="0.40186"/>
</svg>
