<svg width="216" height="83" viewBox="0 0 216 83" fill="none" xmlns="http://www.w3.org/2000/svg">
<g clip-path="url(#clip0_2930_46282)">
<rect width="216" height="83" fill="white"/>
<rect x="24.0352" y="66.7291" width="189.435" height="0.632504" fill="#757575"/>
<rect x="24.0352" y="55.9766" width="189.435" height="0.632504" fill="#F2F2F2"/>
<rect x="24.0352" y="45.224" width="189.435" height="0.632504" fill="#F2F2F2"/>
<rect x="24.0352" y="34.4714" width="189.435" height="0.632504" fill="#F2F2F2"/>
<rect x="24.0352" y="23.7189" width="189.435" height="0.632504" fill="#F2F2F2"/>
<rect x="24.0352" y="12.9663" width="189.435" height="0.632504" fill="#F2F2F2"/>
<path d="M15.6963 24.2444H15.2905V24.8726H14.9903V24.2444H13.6802V23.985L14.9699 22.1486H15.2905V23.9664H15.6963V24.2444ZM14.9903 23.9664V23.0807C14.9903 23.0127 14.9909 22.9516 14.9921 22.8972C14.9934 22.8416 14.9952 22.7904 14.9977 22.7434C15.0001 22.6952 15.002 22.6495 15.0032 22.6063C15.0057 22.5631 15.0076 22.5204 15.0088 22.4784H14.994C14.9705 22.5278 14.9433 22.5804 14.9124 22.6359C14.8828 22.6903 14.8525 22.7391 14.8216 22.7823L13.9859 23.9664H14.9903ZM17.7476 23.5143C17.7476 23.7342 17.7309 23.9306 17.6976 24.1035C17.6642 24.2765 17.6117 24.4229 17.54 24.5427C17.4684 24.6625 17.3757 24.754 17.2621 24.817C17.1484 24.8787 17.0119 24.9096 16.8526 24.9096C16.6512 24.9096 16.4844 24.8546 16.3522 24.7447C16.2213 24.6348 16.1231 24.476 16.0576 24.2685C15.9934 24.0597 15.9613 23.8083 15.9613 23.5143C15.9613 23.2252 15.9903 22.9769 16.0483 22.7694C16.1076 22.5606 16.2028 22.4006 16.3337 22.2894C16.4647 22.177 16.6376 22.1208 16.8526 22.1208C17.0564 22.1208 17.2244 22.1764 17.3566 22.2876C17.4888 22.3975 17.587 22.5569 17.6512 22.7657C17.7155 22.9732 17.7476 23.2227 17.7476 23.5143ZM16.2707 23.5143C16.2707 23.7663 16.2899 23.9763 16.3282 24.1443C16.3665 24.3123 16.4282 24.4383 16.5135 24.5223C16.5999 24.6051 16.713 24.6465 16.8526 24.6465C16.9922 24.6465 17.1046 24.6051 17.1898 24.5223C17.2763 24.4396 17.3387 24.3142 17.377 24.1462C17.4165 23.9782 17.4363 23.7675 17.4363 23.5143C17.4363 23.266 17.4171 23.0584 17.3788 22.8917C17.3405 22.7237 17.2788 22.5976 17.1935 22.5136C17.1083 22.4284 16.9946 22.3858 16.8526 22.3858C16.7105 22.3858 16.5968 22.4284 16.5116 22.5136C16.4264 22.5976 16.3646 22.7237 16.3263 22.8917C16.2892 23.0584 16.2707 23.266 16.2707 23.5143ZM19.9193 23.5143C19.9193 23.7342 19.9027 23.9306 19.8693 24.1035C19.836 24.2765 19.7835 24.4229 19.7118 24.5427C19.6402 24.6625 19.5475 24.754 19.4338 24.817C19.3202 24.8787 19.1837 24.9096 19.0243 24.9096C18.823 24.9096 18.6562 24.8546 18.524 24.7447C18.3931 24.6348 18.2948 24.476 18.2294 24.2685C18.1651 24.0597 18.133 23.8083 18.133 23.5143C18.133 23.2252 18.162 22.9769 18.2201 22.7694C18.2794 22.5606 18.3745 22.4006 18.5055 22.2894C18.6364 22.177 18.8094 22.1208 19.0243 22.1208C19.2282 22.1208 19.3962 22.1764 19.5284 22.2876C19.6605 22.3975 19.7587 22.5569 19.823 22.7657C19.8872 22.9732 19.9193 23.2227 19.9193 23.5143ZM18.4425 23.5143C18.4425 23.7663 18.4616 23.9763 18.4999 24.1443C18.5382 24.3123 18.6 24.4383 18.6852 24.5223C18.7717 24.6051 18.8847 24.6465 19.0243 24.6465C19.1639 24.6465 19.2763 24.6051 19.3616 24.5223C19.4481 24.4396 19.5104 24.3142 19.5487 24.1462C19.5883 23.9782 19.608 23.7675 19.608 23.5143C19.608 23.266 19.5889 23.0584 19.5506 22.8917C19.5123 22.7237 19.4505 22.5976 19.3653 22.5136C19.28 22.4284 19.1664 22.3858 19.0243 22.3858C18.8823 22.3858 18.7686 22.4284 18.6834 22.5136C18.5981 22.5976 18.5364 22.7237 18.4981 22.8917C18.461 23.0584 18.4425 23.266 18.4425 23.5143Z" fill="#383B41" fill-opacity="0.72"/>
<path d="M14.6419 12.4635C14.826 12.4635 14.9859 12.495 15.1218 12.558C15.2577 12.6198 15.3627 12.71 15.4368 12.8285C15.5122 12.9471 15.5499 13.0911 15.5499 13.2603C15.5499 13.4456 15.5097 13.6056 15.4294 13.7402C15.3491 13.8737 15.2336 13.9768 15.0829 14.0497C14.9322 14.1214 14.7518 14.1572 14.5418 14.1572C14.401 14.1572 14.2701 14.1448 14.149 14.1201C14.0279 14.0954 13.926 14.0583 13.8432 14.0089V13.7162C13.9334 13.7705 14.0427 13.8137 14.1712 13.8459C14.2997 13.878 14.4245 13.894 14.5455 13.894C14.6827 13.894 14.8025 13.8724 14.905 13.8292C15.0088 13.7847 15.0891 13.718 15.1459 13.6291C15.204 13.5389 15.233 13.4258 15.233 13.29C15.233 13.1096 15.1774 12.9706 15.0662 12.873C14.9563 12.7742 14.7821 12.7248 14.5437 12.7248C14.4671 12.7248 14.3831 12.731 14.2917 12.7433C14.2003 12.7557 14.1249 12.7693 14.0656 12.7841L13.9099 12.6822L14.0137 11.411H15.3609V11.6926H14.2768L14.2083 12.5098C14.2552 12.4999 14.3158 12.4901 14.3899 12.4802C14.464 12.4691 14.548 12.4635 14.6419 12.4635ZM17.7476 12.7618C17.7476 12.9817 17.7309 13.1782 17.6976 13.3511C17.6642 13.5241 17.6117 13.6704 17.54 13.7903C17.4684 13.9101 17.3757 14.0015 17.2621 14.0645C17.1484 14.1263 17.0119 14.1572 16.8526 14.1572C16.6512 14.1572 16.4844 14.1022 16.3522 13.9923C16.2213 13.8823 16.1231 13.7236 16.0576 13.516C15.9934 13.3073 15.9613 13.0559 15.9613 12.7618C15.9613 12.4728 15.9903 12.2245 16.0483 12.0169C16.1076 11.8081 16.2028 11.6482 16.3337 11.537C16.4647 11.4246 16.6376 11.3684 16.8526 11.3684C17.0564 11.3684 17.2244 11.4239 17.3566 11.5351C17.4888 11.6451 17.587 11.8044 17.6512 12.0132C17.7155 12.2208 17.7476 12.4703 17.7476 12.7618ZM16.2707 12.7618C16.2707 13.0139 16.2899 13.2239 16.3282 13.3919C16.3665 13.5599 16.4282 13.6859 16.5135 13.7699C16.5999 13.8527 16.713 13.894 16.8526 13.894C16.9922 13.894 17.1046 13.8527 17.1898 13.7699C17.2763 13.6871 17.3387 13.5617 17.377 13.3937C17.4165 13.2257 17.4363 13.0151 17.4363 12.7618C17.4363 12.5135 17.4171 12.306 17.3788 12.1392C17.3405 11.9712 17.2788 11.8452 17.1935 11.7612C17.1083 11.676 16.9946 11.6333 16.8526 11.6333C16.7105 11.6333 16.5968 11.676 16.5116 11.7612C16.4264 11.8452 16.3646 11.9712 16.3263 12.1392C16.2892 12.306 16.2707 12.5135 16.2707 12.7618ZM19.9193 12.7618C19.9193 12.9817 19.9027 13.1782 19.8693 13.3511C19.836 13.5241 19.7835 13.6704 19.7118 13.7903C19.6402 13.9101 19.5475 14.0015 19.4338 14.0645C19.3202 14.1263 19.1837 14.1572 19.0243 14.1572C18.823 14.1572 18.6562 14.1022 18.524 13.9923C18.3931 13.8823 18.2948 13.7236 18.2294 13.516C18.1651 13.3073 18.133 13.0559 18.133 12.7618C18.133 12.4728 18.162 12.2245 18.2201 12.0169C18.2794 11.8081 18.3745 11.6482 18.5055 11.537C18.6364 11.4246 18.8094 11.3684 19.0243 11.3684C19.2282 11.3684 19.3962 11.4239 19.5284 11.5351C19.6605 11.6451 19.7587 11.8044 19.823 12.0132C19.8872 12.2208 19.9193 12.4703 19.9193 12.7618ZM18.4425 12.7618C18.4425 13.0139 18.4616 13.2239 18.4999 13.3919C18.5382 13.5599 18.6 13.6859 18.6852 13.7699C18.7717 13.8527 18.8847 13.894 19.0243 13.894C19.1639 13.894 19.2763 13.8527 19.3616 13.7699C19.4481 13.6871 19.5104 13.5617 19.5487 13.3937C19.5883 13.2257 19.608 13.0151 19.608 12.7618C19.608 12.5135 19.5889 12.306 19.5506 12.1392C19.5123 11.9712 19.4505 11.8452 19.3653 11.7612C19.28 11.676 19.1664 11.6333 19.0243 11.6333C18.8823 11.6333 18.7686 11.676 18.6834 11.7612C18.5981 11.8452 18.5364 11.9712 18.4981 12.1392C18.461 12.306 18.4425 12.5135 18.4425 12.7618Z" fill="#383B41" fill-opacity="0.72"/>
<path d="M15.4609 33.5479C15.4609 33.6689 15.4375 33.7739 15.3905 33.8629C15.3436 33.9518 15.2781 34.0247 15.1941 34.0815C15.1101 34.1371 15.0113 34.176 14.8976 34.1983V34.2131C15.1126 34.2403 15.2738 34.3095 15.3813 34.4206C15.49 34.5318 15.5443 34.6776 15.5443 34.858C15.5443 35.0149 15.5073 35.1538 15.4331 35.2749C15.3603 35.396 15.2478 35.4911 15.0959 35.5603C14.9452 35.6282 14.7518 35.6622 14.5159 35.6622C14.3726 35.6622 14.2398 35.6504 14.1175 35.627C13.9964 35.6047 13.8803 35.5671 13.7691 35.5139V35.2249C13.8815 35.2805 14.0038 35.3243 14.136 35.3564C14.2682 35.3873 14.3961 35.4028 14.5196 35.4028C14.7667 35.4028 14.9452 35.354 15.0551 35.2564C15.1651 35.1575 15.22 35.0229 15.22 34.8524C15.22 34.735 15.1892 34.6405 15.1274 34.5689C15.0669 34.496 14.9791 34.4429 14.8643 34.4095C14.7506 34.3749 14.6135 34.3576 14.4529 34.3576H14.1823V34.0945H14.4547C14.6017 34.0945 14.7265 34.0729 14.8291 34.0297C14.9316 33.9864 15.0094 33.9259 15.0625 33.8481C15.1169 33.769 15.1441 33.6757 15.1441 33.5682C15.1441 33.4311 15.0984 33.3255 15.0069 33.2514C14.9155 33.176 14.7914 33.1383 14.6345 33.1383C14.5381 33.1383 14.4504 33.1482 14.3713 33.168C14.2923 33.1878 14.2182 33.2149 14.149 33.2495C14.0798 33.2841 14.0106 33.3243 13.9414 33.37L13.7858 33.1587C13.8846 33.0821 14.0051 33.016 14.1471 32.9605C14.2892 32.9049 14.4504 32.8771 14.6308 32.8771C14.9075 32.8771 15.115 32.9401 15.2534 33.0661C15.3918 33.1921 15.4609 33.3527 15.4609 33.5479ZM17.7476 34.2668C17.7476 34.4867 17.7309 34.6832 17.6976 34.8561C17.6642 35.0291 17.6117 35.1755 17.54 35.2953C17.4684 35.4151 17.3757 35.5065 17.2621 35.5695C17.1484 35.6313 17.0119 35.6622 16.8526 35.6622C16.6512 35.6622 16.4844 35.6072 16.3522 35.4973C16.2213 35.3873 16.1231 35.2286 16.0576 35.021C15.9934 34.8123 15.9613 34.5609 15.9613 34.2668C15.9613 33.9778 15.9903 33.7295 16.0483 33.5219C16.1076 33.3131 16.2028 33.1532 16.3337 33.042C16.4647 32.9296 16.6376 32.8734 16.8526 32.8734C17.0564 32.8734 17.2244 32.929 17.3566 33.0401C17.4888 33.1501 17.587 33.3094 17.6512 33.5182C17.7155 33.7258 17.7476 33.9753 17.7476 34.2668ZM16.2707 34.2668C16.2707 34.5189 16.2899 34.7289 16.3282 34.8969C16.3665 35.0649 16.4282 35.1909 16.5135 35.2749C16.5999 35.3577 16.713 35.3991 16.8526 35.3991C16.9922 35.3991 17.1046 35.3577 17.1898 35.2749C17.2763 35.1921 17.3387 35.0667 17.377 34.8987C17.4165 34.7307 17.4363 34.5201 17.4363 34.2668C17.4363 34.0185 17.4171 33.811 17.3788 33.6442C17.3405 33.4762 17.2788 33.3502 17.1935 33.2662C17.1083 33.181 16.9946 33.1383 16.8526 33.1383C16.7105 33.1383 16.5968 33.181 16.5116 33.2662C16.4264 33.3502 16.3646 33.4762 16.3263 33.6442C16.2892 33.811 16.2707 34.0185 16.2707 34.2668ZM19.9193 34.2668C19.9193 34.4867 19.9027 34.6832 19.8693 34.8561C19.836 35.0291 19.7835 35.1755 19.7118 35.2953C19.6402 35.4151 19.5475 35.5065 19.4338 35.5695C19.3202 35.6313 19.1837 35.6622 19.0243 35.6622C18.823 35.6622 18.6562 35.6072 18.524 35.4973C18.3931 35.3873 18.2948 35.2286 18.2294 35.021C18.1651 34.8123 18.133 34.5609 18.133 34.2668C18.133 33.9778 18.162 33.7295 18.2201 33.5219C18.2794 33.3131 18.3745 33.1532 18.5055 33.042C18.6364 32.9296 18.8094 32.8734 19.0243 32.8734C19.2282 32.8734 19.3962 32.929 19.5284 33.0401C19.6605 33.1501 19.7587 33.3094 19.823 33.5182C19.8872 33.7258 19.9193 33.9753 19.9193 34.2668ZM18.4425 34.2668C18.4425 34.5189 18.4616 34.7289 18.4999 34.8969C18.5382 35.0649 18.6 35.1909 18.6852 35.2749C18.7717 35.3577 18.8847 35.3991 19.0243 35.3991C19.1639 35.3991 19.2763 35.3577 19.3616 35.2749C19.4481 35.1921 19.5104 35.0667 19.5487 34.8987C19.5883 34.7307 19.608 34.5201 19.608 34.2668C19.608 34.0185 19.5889 33.811 19.5506 33.6442C19.5123 33.4762 19.4505 33.3502 19.3653 33.2662C19.28 33.181 19.1664 33.1383 19.0243 33.1383C18.8823 33.1383 18.7686 33.181 18.6834 33.2662C18.5981 33.3502 18.5364 33.4762 18.4981 33.6442C18.461 33.811 18.4425 34.0185 18.4425 34.2668Z" fill="#383B41" fill-opacity="0.72"/>
<path d="M15.561 46.3777H13.7858V46.1201L14.5103 45.3845C14.645 45.2486 14.758 45.1275 14.8494 45.0213C14.9421 44.915 15.0125 44.8106 15.0607 44.7081C15.1089 44.6043 15.1329 44.4907 15.1329 44.3671C15.1329 44.214 15.0872 44.0972 14.9958 44.0169C14.9056 43.9354 14.7864 43.8946 14.6382 43.8946C14.5085 43.8946 14.3936 43.9169 14.2935 43.9613C14.1935 44.0058 14.0909 44.0688 13.9859 44.1503L13.821 43.9428C13.8926 43.8823 13.9705 43.8285 14.0545 43.7816C14.1397 43.7346 14.2305 43.6976 14.3269 43.6704C14.4245 43.6432 14.5282 43.6296 14.6382 43.6296C14.805 43.6296 14.9489 43.6587 15.0699 43.7167C15.191 43.7748 15.2843 43.8576 15.3498 43.965C15.4165 44.0725 15.4498 44.2004 15.4498 44.3486C15.4498 44.4919 15.4214 44.6253 15.3646 44.7489C15.3078 44.8712 15.2281 44.9928 15.1255 45.1139C15.023 45.2337 14.9032 45.361 14.766 45.4956L14.1768 46.0831V46.096H15.561V46.3777ZM17.7476 45.0194C17.7476 45.2393 17.7309 45.4357 17.6976 45.6087C17.6642 45.7816 17.6117 45.928 17.54 46.0478C17.4684 46.1677 17.3757 46.2591 17.2621 46.3221C17.1484 46.3839 17.0119 46.4147 16.8526 46.4147C16.6512 46.4147 16.4844 46.3598 16.3522 46.2498C16.2213 46.1399 16.1231 45.9811 16.0576 45.7736C15.9934 45.5648 15.9613 45.3134 15.9613 45.0194C15.9613 44.7303 15.9903 44.482 16.0483 44.2745C16.1076 44.0657 16.2028 43.9057 16.3337 43.7946C16.4647 43.6821 16.6376 43.6259 16.8526 43.6259C17.0564 43.6259 17.2244 43.6815 17.3566 43.7927C17.4888 43.9026 17.587 44.062 17.6512 44.2708C17.7155 44.4783 17.7476 44.7279 17.7476 45.0194ZM16.2707 45.0194C16.2707 45.2714 16.2899 45.4814 16.3282 45.6494C16.3665 45.8175 16.4282 45.9435 16.5135 46.0275C16.5999 46.1102 16.713 46.1516 16.8526 46.1516C16.9922 46.1516 17.1046 46.1102 17.1898 46.0275C17.2763 45.9447 17.3387 45.8193 17.377 45.6513C17.4165 45.4833 17.4363 45.2727 17.4363 45.0194C17.4363 44.7711 17.4171 44.5636 17.3788 44.3968C17.3405 44.2288 17.2788 44.1028 17.1935 44.0188C17.1083 43.9335 16.9946 43.8909 16.8526 43.8909C16.7105 43.8909 16.5968 43.9335 16.5116 44.0188C16.4264 44.1028 16.3646 44.2288 16.3263 44.3968C16.2892 44.5636 16.2707 44.7711 16.2707 45.0194ZM19.9193 45.0194C19.9193 45.2393 19.9027 45.4357 19.8693 45.6087C19.836 45.7816 19.7835 45.928 19.7118 46.0478C19.6402 46.1677 19.5475 46.2591 19.4338 46.3221C19.3202 46.3839 19.1837 46.4147 19.0243 46.4147C18.823 46.4147 18.6562 46.3598 18.524 46.2498C18.3931 46.1399 18.2948 45.9811 18.2294 45.7736C18.1651 45.5648 18.133 45.3134 18.133 45.0194C18.133 44.7303 18.162 44.482 18.2201 44.2745C18.2794 44.0657 18.3745 43.9057 18.5055 43.7946C18.6364 43.6821 18.8094 43.6259 19.0243 43.6259C19.2282 43.6259 19.3962 43.6815 19.5284 43.7927C19.6605 43.9026 19.7587 44.062 19.823 44.2708C19.8872 44.4783 19.9193 44.7279 19.9193 45.0194ZM18.4425 45.0194C18.4425 45.2714 18.4616 45.4814 18.4999 45.6494C18.5382 45.8175 18.6 45.9435 18.6852 46.0275C18.7717 46.1102 18.8847 46.1516 19.0243 46.1516C19.1639 46.1516 19.2763 46.1102 19.3616 46.0275C19.4481 45.9447 19.5104 45.8193 19.5487 45.6513C19.5883 45.4833 19.608 45.2727 19.608 45.0194C19.608 44.7711 19.5889 44.5636 19.5506 44.3968C19.5123 44.2288 19.4505 44.1028 19.3653 44.0188C19.28 43.9335 19.1664 43.8909 19.0243 43.8909C18.8823 43.8909 18.7686 43.9335 18.6834 44.0188C18.5981 44.1028 18.5364 44.2288 18.4981 44.3968C18.461 44.5636 18.4425 44.7711 18.4425 45.0194Z" fill="#383B41" fill-opacity="0.72"/>
<path d="M14.931 57.1302H14.6308V55.2105C14.6308 55.1376 14.6308 55.0752 14.6308 55.0233C14.632 54.9702 14.6332 54.922 14.6345 54.8788C14.637 54.8343 14.64 54.7892 14.6437 54.7435C14.6055 54.7831 14.5696 54.817 14.5363 54.8455C14.5029 54.8726 14.4615 54.9066 14.4121 54.9474L14.1027 55.1957L13.9414 54.9863L14.6752 54.4211H14.931V57.1302ZM17.7476 55.772C17.7476 55.9919 17.7309 56.1883 17.6976 56.3612C17.6642 56.5342 17.6117 56.6806 17.54 56.8004C17.4684 56.9202 17.3757 57.0117 17.2621 57.0747C17.1484 57.1364 17.0119 57.1673 16.8526 57.1673C16.6512 57.1673 16.4844 57.1123 16.3522 57.0024C16.2213 56.8924 16.1231 56.7337 16.0576 56.5262C15.9934 56.3174 15.9613 56.066 15.9613 55.772C15.9613 55.4829 15.9903 55.2346 16.0483 55.0271C16.1076 54.8183 16.2028 54.6583 16.3337 54.5471C16.4647 54.4347 16.6376 54.3785 16.8526 54.3785C17.0564 54.3785 17.2244 54.4341 17.3566 54.5453C17.4888 54.6552 17.587 54.8146 17.6512 55.0233C17.7155 55.2309 17.7476 55.4804 17.7476 55.772ZM16.2707 55.772C16.2707 56.024 16.2899 56.234 16.3282 56.402C16.3665 56.57 16.4282 56.696 16.5135 56.78C16.5999 56.8628 16.713 56.9042 16.8526 56.9042C16.9922 56.9042 17.1046 56.8628 17.1898 56.78C17.2763 56.6973 17.3387 56.5719 17.377 56.4039C17.4165 56.2358 17.4363 56.0252 17.4363 55.772C17.4363 55.5237 17.4171 55.3161 17.3788 55.1494C17.3405 54.9813 17.2788 54.8553 17.1935 54.7713C17.1083 54.6861 16.9946 54.6435 16.8526 54.6435C16.7105 54.6435 16.5968 54.6861 16.5116 54.7713C16.4264 54.8553 16.3646 54.9813 16.3263 55.1494C16.2892 55.3161 16.2707 55.5237 16.2707 55.772ZM19.9193 55.772C19.9193 55.9919 19.9027 56.1883 19.8693 56.3612C19.836 56.5342 19.7835 56.6806 19.7118 56.8004C19.6402 56.9202 19.5475 57.0117 19.4338 57.0747C19.3202 57.1364 19.1837 57.1673 19.0243 57.1673C18.823 57.1673 18.6562 57.1123 18.524 57.0024C18.3931 56.8924 18.2948 56.7337 18.2294 56.5262C18.1651 56.3174 18.133 56.066 18.133 55.772C18.133 55.4829 18.162 55.2346 18.2201 55.0271C18.2794 54.8183 18.3745 54.6583 18.5055 54.5471C18.6364 54.4347 18.8094 54.3785 19.0243 54.3785C19.2282 54.3785 19.3962 54.4341 19.5284 54.5453C19.6605 54.6552 19.7587 54.8146 19.823 55.0233C19.8872 55.2309 19.9193 55.4804 19.9193 55.772ZM18.4425 55.772C18.4425 56.024 18.4616 56.234 18.4999 56.402C18.5382 56.57 18.6 56.696 18.6852 56.78C18.7717 56.8628 18.8847 56.9042 19.0243 56.9042C19.1639 56.9042 19.2763 56.8628 19.3616 56.78C19.4481 56.6973 19.5104 56.5719 19.5487 56.4039C19.5883 56.2358 19.608 56.0252 19.608 55.772C19.608 55.5237 19.5889 55.3161 19.5506 55.1494C19.5123 54.9813 19.4505 54.8553 19.3653 54.7713C19.28 54.6861 19.1664 54.6435 19.0243 54.6435C18.8823 54.6435 18.7686 54.6861 18.6834 54.7713C18.5981 54.8553 18.5364 54.9813 18.4981 55.1494C18.461 55.3161 18.4425 55.5237 18.4425 55.772Z" fill="#383B41" fill-opacity="0.72"/>
<path d="M40.7413 72.8916L40.5426 72.3274H39.7657L39.5669 72.8916H39.2153L39.9714 70.8514H40.3411L41.0957 72.8916H40.7413ZM40.4564 72.0411L40.2632 71.4851C40.2558 71.4611 40.2452 71.4272 40.2313 71.3837C40.2174 71.3392 40.2035 71.2943 40.1896 71.2489C40.1757 71.2026 40.1641 71.1636 40.1548 71.1321C40.1456 71.1701 40.134 71.2127 40.1201 71.26C40.1071 71.3063 40.0941 71.3499 40.0812 71.3906C40.0691 71.4314 40.0599 71.4629 40.0534 71.4851L39.8588 72.0411H40.4564ZM42.12 71.3239C42.3025 71.3239 42.4489 71.3906 42.5591 71.5241C42.6703 71.6575 42.7259 71.8558 42.7259 72.1189C42.7259 72.2931 42.7 72.4399 42.6481 72.5594C42.5971 72.678 42.5253 72.7679 42.4327 72.8291C42.3409 72.8893 42.2339 72.9194 42.1116 72.9194C42.0338 72.9194 41.9662 72.9092 41.9087 72.8888C41.8513 72.8684 41.8022 72.842 41.7614 72.8096C41.7206 72.7762 41.6864 72.7401 41.6586 72.7012H41.6391C41.6437 72.7383 41.6479 72.7795 41.6516 72.8249C41.6562 72.8694 41.6586 72.9101 41.6586 72.9472V73.574H41.3306V71.3531H41.5974L41.6433 71.5658H41.6586C41.6873 71.5222 41.722 71.4819 41.7628 71.4448C41.8045 71.4078 41.8545 71.3786 41.9129 71.3573C41.9722 71.335 42.0412 71.3239 42.12 71.3239ZM42.0324 71.5908C41.9425 71.5908 41.8703 71.6088 41.8156 71.645C41.7619 71.6802 41.7225 71.7335 41.6975 71.8048C41.6734 71.8761 41.6604 71.9655 41.6586 72.073V72.1189C41.6586 72.2328 41.6701 72.3297 41.6933 72.4093C41.7174 72.4881 41.7568 72.5483 41.8114 72.59C41.867 72.6308 41.9421 72.6512 42.0366 72.6512C42.1163 72.6512 42.182 72.6294 42.2339 72.5859C42.2867 72.5423 42.3261 72.4802 42.3521 72.3996C42.378 72.319 42.391 72.224 42.391 72.1147C42.391 71.9489 42.3613 71.8201 42.302 71.7284C42.2437 71.6366 42.1538 71.5908 42.0324 71.5908ZM43.8836 71.3239C43.9095 71.3239 43.9378 71.3253 43.9684 71.3281C43.9989 71.3309 44.0254 71.3346 44.0476 71.3392L44.017 71.645C43.9976 71.6394 43.9735 71.6352 43.9447 71.6325C43.917 71.6297 43.8919 71.6283 43.8697 71.6283C43.8113 71.6283 43.7557 71.638 43.7029 71.6575C43.6501 71.676 43.6033 71.7047 43.5626 71.7436C43.5218 71.7816 43.4898 71.8293 43.4667 71.8868C43.4435 71.9442 43.4319 72.0109 43.4319 72.0869V72.8916H43.1039V71.3531H43.3597L43.4041 71.6241H43.4194C43.45 71.5695 43.488 71.5194 43.5334 71.474C43.5788 71.4286 43.6307 71.3925 43.689 71.3656C43.7483 71.3378 43.8132 71.3239 43.8836 71.3239ZM46.3421 72.8916H44.9662V72.6456L45.493 72.1119C45.5949 72.0082 45.6787 71.9188 45.7445 71.8437C45.8103 71.7677 45.8589 71.6959 45.8904 71.6283C45.9229 71.5607 45.9391 71.487 45.9391 71.4073C45.9391 71.3091 45.9108 71.235 45.8543 71.185C45.7978 71.134 45.7232 71.1085 45.6305 71.1085C45.5425 71.1085 45.461 71.1261 45.3859 71.1613C45.3118 71.1956 45.2349 71.2447 45.1552 71.3086L44.976 71.0932C45.0325 71.045 45.0927 71.001 45.1566 70.9612C45.2215 70.9214 45.2938 70.8899 45.3734 70.8667C45.4531 70.8426 45.5439 70.8306 45.6458 70.8306C45.7746 70.8306 45.8858 70.8537 45.9794 70.9C46.073 70.9454 46.1448 71.0089 46.1948 71.0904C46.2458 71.172 46.2712 71.267 46.2712 71.3754C46.2712 71.4847 46.2495 71.5857 46.2059 71.6783C46.1624 71.771 46.1003 71.8627 46.0197 71.9535C45.9391 72.0434 45.8432 72.1411 45.732 72.2467L45.3804 72.59V72.6053H46.3421V72.8916ZM47.9709 71.8743C47.9709 72.0383 47.958 72.1851 47.932 72.3148C47.907 72.4436 47.8672 72.553 47.8125 72.6428C47.7578 72.7327 47.6865 72.8013 47.5985 72.8485C47.5105 72.8958 47.4039 72.9194 47.2788 72.9194C47.1222 72.9194 46.993 72.8782 46.8911 72.7957C46.7892 72.7123 46.7137 72.5928 46.6645 72.4371C46.6154 72.2806 46.5909 72.0929 46.5909 71.8743C46.5909 71.6556 46.6131 71.4685 46.6576 71.3128C46.703 71.1562 46.7762 71.0362 46.8772 70.9529C46.9782 70.8695 47.1121 70.8278 47.2788 70.8278C47.4363 70.8278 47.566 70.8695 47.668 70.9529C47.7708 71.0353 47.8468 71.1548 47.8959 71.3114C47.9459 71.4671 47.9709 71.6547 47.9709 71.8743ZM46.9203 71.8743C46.9203 72.0457 46.9314 72.1888 46.9536 72.3037C46.9768 72.4186 47.0148 72.5048 47.0676 72.5622C47.1204 72.6187 47.1908 72.647 47.2788 72.647C47.3668 72.647 47.4373 72.6187 47.4901 72.5622C47.5429 72.5057 47.5809 72.42 47.604 72.3051C47.6281 72.1902 47.6402 72.0466 47.6402 71.8743C47.6402 71.7038 47.6286 71.5611 47.6054 71.4462C47.5823 71.3313 47.5443 71.2452 47.4915 71.1877C47.4387 71.1294 47.3678 71.1002 47.2788 71.1002C47.1899 71.1002 47.119 71.1294 47.0662 71.1877C47.0143 71.2452 46.9768 71.3313 46.9536 71.4462C46.9314 71.5611 46.9203 71.7038 46.9203 71.8743ZM49.5998 72.8916H48.2239V72.6456L48.7506 72.1119C48.8525 72.0082 48.9364 71.9188 49.0022 71.8437C49.0679 71.7677 49.1166 71.6959 49.1481 71.6283C49.1805 71.5607 49.1967 71.487 49.1967 71.4073C49.1967 71.3091 49.1685 71.235 49.1119 71.185C49.0554 71.134 48.9808 71.1085 48.8882 71.1085C48.8002 71.1085 48.7186 71.1261 48.6436 71.1613C48.5695 71.1956 48.4926 71.2447 48.4129 71.3086L48.2336 71.0932C48.2901 71.045 48.3503 71.001 48.4143 70.9612C48.4791 70.9214 48.5514 70.8899 48.6311 70.8667C48.7108 70.8426 48.8016 70.8306 48.9035 70.8306C49.0323 70.8306 49.1434 70.8537 49.237 70.9C49.3306 70.9454 49.4024 71.0089 49.4524 71.0904C49.5034 71.172 49.5289 71.267 49.5289 71.3754C49.5289 71.4847 49.5071 71.5857 49.4636 71.6783C49.42 71.771 49.3579 71.8627 49.2773 71.9535C49.1967 72.0434 49.1008 72.1411 48.9896 72.2467L48.638 72.59V72.6053H49.5998V72.8916ZM51.3022 72.4455H51.0271V72.8916H50.7046V72.4455H49.7804V72.1981L50.7088 70.8542H51.0271V72.1745H51.3022V72.4455ZM50.7046 72.1745V71.67C50.7046 71.6283 50.7051 71.5861 50.706 71.5435C50.7079 71.5 50.7097 71.4583 50.7116 71.4184C50.7134 71.3786 50.7153 71.342 50.7171 71.3086C50.719 71.2744 50.7204 71.2461 50.7213 71.2239H50.7102C50.6926 71.2609 50.6731 71.2989 50.6518 71.3378C50.6305 71.3758 50.6078 71.4129 50.5837 71.449L50.0834 72.1745H50.7046Z" fill="#383B41" fill-opacity="0.72"/>
<path d="M113.396 72.8916L112.811 71.1947H112.799C112.801 71.2327 112.805 71.2846 112.808 71.3503C112.812 71.4161 112.815 71.4865 112.818 71.5616C112.821 71.6366 112.822 71.7084 112.822 71.777V72.8916H112.519V70.8597H112.988L113.55 72.4816H113.559L114.141 70.8597H114.608V72.8916H114.29V71.7603C114.29 71.6982 114.291 71.6311 114.293 71.5588C114.295 71.4865 114.298 71.418 114.301 71.3531C114.305 71.2883 114.307 71.2364 114.309 71.1975H114.298L113.691 72.8916H113.396ZM115.713 71.3239C115.908 71.3239 116.054 71.367 116.154 71.4532C116.254 71.5393 116.304 71.6737 116.304 71.8562V72.8916H116.072L116.009 72.6734H115.998C115.954 72.729 115.909 72.7749 115.863 72.811C115.817 72.8471 115.763 72.874 115.702 72.8916C115.642 72.9101 115.568 72.9194 115.481 72.9194C115.389 72.9194 115.307 72.9027 115.235 72.8694C115.163 72.8351 115.106 72.7832 115.064 72.7137C115.022 72.6442 115.001 72.5562 115.001 72.4497C115.001 72.2912 115.06 72.1722 115.178 72.0925C115.297 72.0128 115.475 71.9688 115.714 71.9604L115.981 71.9507V71.8701C115.981 71.7636 115.956 71.6876 115.906 71.6422C115.857 71.5968 115.788 71.5741 115.698 71.5741C115.621 71.5741 115.546 71.5852 115.474 71.6074C115.402 71.6297 115.331 71.657 115.263 71.6894L115.157 71.4587C115.232 71.4189 115.317 71.3865 115.413 71.3615C115.509 71.3364 115.609 71.3239 115.713 71.3239ZM115.98 72.1564L115.781 72.1634C115.618 72.1689 115.504 72.1967 115.438 72.2467C115.372 72.2968 115.339 72.3653 115.339 72.4524C115.339 72.5284 115.362 72.584 115.407 72.6192C115.453 72.6535 115.512 72.6706 115.587 72.6706C115.7 72.6706 115.793 72.6387 115.867 72.5747C115.942 72.5099 115.98 72.4149 115.98 72.2898V72.1564ZM116.529 71.3531H116.885L117.2 72.2315C117.214 72.2713 117.226 72.3107 117.238 72.3496C117.25 72.3876 117.26 72.4251 117.268 72.4622C117.277 72.4992 117.285 72.5363 117.29 72.5733H117.299C117.308 72.5252 117.321 72.4714 117.338 72.4121C117.355 72.3519 117.375 72.2917 117.396 72.2315L117.699 71.3531H118.051L117.39 73.1028C117.352 73.2029 117.306 73.2882 117.25 73.3586C117.195 73.4299 117.131 73.4836 117.056 73.5198C116.98 73.5568 116.895 73.5754 116.798 73.5754C116.752 73.5754 116.712 73.5726 116.677 73.567C116.643 73.5624 116.614 73.5573 116.59 73.5517V73.2905C116.609 73.2951 116.634 73.2993 116.664 73.303C116.693 73.3067 116.724 73.3085 116.755 73.3085C116.814 73.3085 116.864 73.297 116.907 73.2738C116.949 73.2506 116.986 73.2177 117.015 73.1751C117.045 73.1334 117.069 73.0857 117.089 73.032L117.143 72.8874L116.529 71.3531ZM120.294 72.8916H118.918V72.6456L119.445 72.1119C119.546 72.0082 119.63 71.9188 119.696 71.8437C119.762 71.7677 119.811 71.6959 119.842 71.6283C119.874 71.5607 119.891 71.487 119.891 71.4073C119.891 71.3091 119.862 71.235 119.806 71.185C119.749 71.134 119.675 71.1085 119.582 71.1085C119.494 71.1085 119.413 71.1261 119.338 71.1613C119.263 71.1956 119.187 71.2447 119.107 71.3086L118.928 71.0932C118.984 71.045 119.044 71.001 119.108 70.9612C119.173 70.9214 119.245 70.8899 119.325 70.8667C119.405 70.8426 119.496 70.8306 119.597 70.8306C119.726 70.8306 119.837 70.8537 119.931 70.9C120.025 70.9454 120.096 71.0089 120.146 71.0904C120.197 71.172 120.223 71.267 120.223 71.3754C120.223 71.4847 120.201 71.5857 120.158 71.6783C120.114 71.771 120.052 71.8627 119.971 71.9535C119.891 72.0434 119.795 72.1411 119.684 72.2467L119.332 72.59V72.6053H120.294V72.8916ZM121.923 71.8743C121.923 72.0383 121.91 72.1851 121.884 72.3148C121.859 72.4436 121.819 72.553 121.764 72.6428C121.709 72.7327 121.638 72.8013 121.55 72.8485C121.462 72.8958 121.355 72.9194 121.23 72.9194C121.074 72.9194 120.945 72.8782 120.843 72.7957C120.741 72.7123 120.665 72.5928 120.616 72.4371C120.567 72.2806 120.542 72.0929 120.542 71.8743C120.542 71.6556 120.565 71.4685 120.609 71.3128C120.655 71.1562 120.728 71.0362 120.829 70.9529C120.93 70.8695 121.064 70.8278 121.23 70.8278C121.388 70.8278 121.518 70.8695 121.62 70.9529C121.722 71.0353 121.798 71.1548 121.847 71.3114C121.898 71.4671 121.923 71.6547 121.923 71.8743ZM120.872 71.8743C120.872 72.0457 120.883 72.1888 120.905 72.3037C120.928 72.4186 120.966 72.5048 121.019 72.5622C121.072 72.6187 121.142 72.647 121.23 72.647C121.318 72.647 121.389 72.6187 121.442 72.5622C121.494 72.5057 121.532 72.42 121.556 72.3051C121.58 72.1902 121.592 72.0466 121.592 71.8743C121.592 71.7038 121.58 71.5611 121.557 71.4462C121.534 71.3313 121.496 71.2452 121.443 71.1877C121.39 71.1294 121.319 71.1002 121.23 71.1002C121.141 71.1002 121.071 71.1294 121.018 71.1877C120.966 71.2452 120.928 71.3313 120.905 71.4462C120.883 71.5611 120.872 71.7038 120.872 71.8743ZM123.551 72.8916H122.175V72.6456L122.702 72.1119C122.804 72.0082 122.888 71.9188 122.954 71.8437C123.02 71.7677 123.068 71.6959 123.1 71.6283C123.132 71.5607 123.148 71.487 123.148 71.4073C123.148 71.3091 123.12 71.235 123.064 71.185C123.007 71.134 122.932 71.1085 122.84 71.1085C122.752 71.1085 122.67 71.1261 122.595 71.1613C122.521 71.1956 122.444 71.2447 122.364 71.3086L122.185 71.0932C122.242 71.045 122.302 71.001 122.366 70.9612C122.431 70.9214 122.503 70.8899 122.583 70.8667C122.662 70.8426 122.753 70.8306 122.855 70.8306C122.984 70.8306 123.095 70.8537 123.189 70.9C123.282 70.9454 123.354 71.0089 123.404 71.0904C123.455 71.172 123.48 71.267 123.48 71.3754C123.48 71.4847 123.459 71.5857 123.415 71.6783C123.372 71.771 123.31 71.8627 123.229 71.9535C123.148 72.0434 123.052 72.1411 122.941 72.2467L122.59 72.59V72.6053H123.551V72.8916ZM125.254 72.4455H124.979V72.8916H124.656V72.4455H123.732V72.1981L124.66 70.8542H124.979V72.1745H125.254V72.4455ZM124.656 72.1745V71.67C124.656 71.6283 124.657 71.5861 124.658 71.5435C124.659 71.5 124.661 71.4583 124.663 71.4184C124.665 71.3786 124.667 71.342 124.669 71.3086C124.671 71.2744 124.672 71.2461 124.673 71.2239H124.662C124.644 71.2609 124.625 71.2989 124.603 71.3378C124.582 71.3758 124.559 71.4129 124.535 71.449L124.035 72.1745H124.656Z" fill="#383B41" fill-opacity="0.72"/>
<path d="M186.304 73.4572C186.253 73.4572 186.209 73.454 186.171 73.4475C186.132 73.442 186.098 73.4341 186.07 73.4239V73.1445C186.1 73.152 186.132 73.1584 186.166 73.164C186.201 73.1696 186.237 73.1723 186.276 73.1723C186.327 73.1723 186.373 73.1626 186.415 73.1432C186.457 73.1237 186.49 73.0885 186.514 73.0375C186.539 72.9866 186.551 72.9148 186.551 72.8221V70.8597H186.885V72.811C186.885 72.962 186.861 73.0848 186.813 73.1793C186.764 73.2747 186.697 73.3447 186.61 73.3891C186.523 73.4345 186.421 73.4572 186.304 73.4572ZM188.718 71.3531V72.8916H188.461L188.416 72.6845H188.398C188.366 72.7373 188.325 72.7813 188.275 72.8166C188.225 72.8508 188.169 72.8763 188.108 72.893C188.047 72.9106 187.982 72.9194 187.915 72.9194C187.799 72.9194 187.7 72.8999 187.617 72.861C187.536 72.8212 187.473 72.76 187.43 72.6776C187.386 72.5951 187.364 72.4886 187.364 72.3579V71.3531H187.692V72.2968C187.692 72.4163 187.716 72.5057 187.765 72.565C187.814 72.6243 187.89 72.6539 187.993 72.6539C188.092 72.6539 188.17 72.6336 188.229 72.5928C188.287 72.552 188.328 72.4918 188.352 72.4121C188.377 72.3324 188.39 72.2347 188.39 72.1189V71.3531H188.718ZM189.988 71.3239C190.161 71.3239 190.296 71.3689 190.393 71.4587C190.49 71.5477 190.539 71.6908 190.539 71.8882V72.8916H190.212V71.9493C190.212 71.8298 190.187 71.7404 190.138 71.6811C190.089 71.6209 190.013 71.5908 189.91 71.5908C189.761 71.5908 189.657 71.6366 189.599 71.7284C189.542 71.8201 189.513 71.953 189.513 72.1272V72.8916H189.186V71.3531H189.441L189.487 71.5616H189.505C189.538 71.5078 189.579 71.4638 189.628 71.4296C189.678 71.3943 189.734 71.3679 189.795 71.3503C189.857 71.3327 189.922 71.3239 189.988 71.3239ZM193.005 72.8916H191.63V72.6456L192.156 72.1119C192.258 72.0082 192.342 71.9188 192.408 71.8437C192.474 71.7677 192.522 71.6959 192.554 71.6283C192.586 71.5607 192.602 71.487 192.602 71.4073C192.602 71.3091 192.574 71.235 192.518 71.185C192.461 71.134 192.387 71.1085 192.294 71.1085C192.206 71.1085 192.124 71.1261 192.049 71.1613C191.975 71.1956 191.898 71.2447 191.819 71.3086L191.639 71.0932C191.696 71.045 191.756 71.001 191.82 70.9612C191.885 70.9214 191.957 70.8899 192.037 70.8667C192.116 70.8426 192.207 70.8306 192.309 70.8306C192.438 70.8306 192.549 70.8537 192.643 70.9C192.736 70.9454 192.808 71.0089 192.858 71.0904C192.909 71.172 192.935 71.267 192.935 71.3754C192.935 71.4847 192.913 71.5857 192.869 71.6783C192.826 71.771 192.764 71.8627 192.683 71.9535C192.602 72.0434 192.507 72.1411 192.395 72.2467L192.044 72.59V72.6053H193.005V72.8916ZM194.634 71.8743C194.634 72.0383 194.621 72.1851 194.595 72.3148C194.57 72.4436 194.53 72.553 194.476 72.6428C194.421 72.7327 194.35 72.8013 194.262 72.8485C194.174 72.8958 194.067 72.9194 193.942 72.9194C193.786 72.9194 193.656 72.8782 193.554 72.7957C193.452 72.7123 193.377 72.5928 193.328 72.4371C193.279 72.2806 193.254 72.0929 193.254 71.8743C193.254 71.6556 193.276 71.4685 193.321 71.3128C193.366 71.1562 193.44 71.0362 193.541 70.9529C193.642 70.8695 193.775 70.8278 193.942 70.8278C194.1 70.8278 194.229 70.8695 194.331 70.9529C194.434 71.0353 194.51 71.1548 194.559 71.3114C194.609 71.4671 194.634 71.6547 194.634 71.8743ZM193.584 71.8743C193.584 72.0457 193.595 72.1888 193.617 72.3037C193.64 72.4186 193.678 72.5048 193.731 72.5622C193.784 72.6187 193.854 72.647 193.942 72.647C194.03 72.647 194.101 72.6187 194.153 72.5622C194.206 72.5057 194.244 72.42 194.267 72.3051C194.291 72.1902 194.304 72.0466 194.304 71.8743C194.304 71.7038 194.292 71.5611 194.269 71.4462C194.246 71.3313 194.208 71.2452 194.155 71.1877C194.102 71.1294 194.031 71.1002 193.942 71.1002C193.853 71.1002 193.782 71.1294 193.73 71.1877C193.678 71.2452 193.64 71.3313 193.617 71.4462C193.595 71.5611 193.584 71.7038 193.584 71.8743ZM196.263 72.8916H194.887V72.6456L195.414 72.1119C195.516 72.0082 195.6 71.9188 195.665 71.8437C195.731 71.7677 195.78 71.6959 195.811 71.6283C195.844 71.5607 195.86 71.487 195.86 71.4073C195.86 71.3091 195.832 71.235 195.775 71.185C195.719 71.134 195.644 71.1085 195.552 71.1085C195.464 71.1085 195.382 71.1261 195.307 71.1613C195.233 71.1956 195.156 71.2447 195.076 71.3086L194.897 71.0932C194.953 71.045 195.014 71.001 195.078 70.9612C195.142 70.9214 195.215 70.8899 195.294 70.8667C195.374 70.8426 195.465 70.8306 195.567 70.8306C195.696 70.8306 195.807 70.8537 195.9 70.9C195.994 70.9454 196.066 71.0089 196.116 71.0904C196.167 71.172 196.192 71.267 196.192 71.3754C196.192 71.4847 196.17 71.5857 196.127 71.6783C196.083 71.771 196.021 71.8627 195.941 71.9535C195.86 72.0434 195.764 72.1411 195.653 72.2467L195.301 72.59V72.6053H196.263V72.8916ZM197.966 72.4455H197.69V72.8916H197.368V72.4455H196.444V72.1981L197.372 70.8542H197.69V72.1745H197.966V72.4455ZM197.368 72.1745V71.67C197.368 71.6283 197.368 71.5861 197.369 71.5435C197.371 71.5 197.373 71.4583 197.375 71.4184C197.377 71.3786 197.379 71.342 197.38 71.3086C197.382 71.2744 197.384 71.2461 197.385 71.2239H197.374C197.356 71.2609 197.336 71.2989 197.315 71.3378C197.294 71.3758 197.271 71.4129 197.247 71.449L196.747 72.1745H197.368Z" fill="#383B41" fill-opacity="0.72"/>
<path d="M20.6359 66.5245C20.6359 66.7444 20.6192 66.9409 20.5859 67.1138C20.5525 67.2868 20.5 67.4331 20.4283 67.553C20.3567 67.6728 20.264 67.7642 20.1504 67.8272C20.0367 67.889 19.9002 67.9199 19.7409 67.9199C19.5395 67.9199 19.3727 67.8649 19.2405 67.755C19.1096 67.645 19.0114 67.4863 18.9459 67.2787C18.8817 67.0699 18.8496 66.8186 18.8496 66.5245C18.8496 66.2355 18.8786 65.9872 18.9366 65.7796C18.9959 65.5708 19.0911 65.4109 19.222 65.2997C19.353 65.1873 19.5259 65.1311 19.7409 65.1311C19.9447 65.1311 20.1127 65.1866 20.2449 65.2978C20.3771 65.4078 20.4753 65.5671 20.5395 65.7759C20.6038 65.9834 20.6359 66.233 20.6359 66.5245ZM19.159 66.5245C19.159 66.7765 19.1782 66.9866 19.2165 67.1546C19.2548 67.3226 19.3165 67.4486 19.4018 67.5326C19.4882 67.6154 19.6013 67.6567 19.7409 67.6567C19.8805 67.6567 19.9929 67.6154 20.0781 67.5326C20.1646 67.4498 20.227 67.3244 20.2653 67.1564C20.3048 66.9884 20.3246 66.7778 20.3246 66.5245C20.3246 66.2762 20.3054 66.0687 20.2671 65.9019C20.2288 65.7339 20.1671 65.6079 20.0818 65.5239C19.9966 65.4387 19.8829 65.396 19.7409 65.396C19.5988 65.396 19.4851 65.4387 19.3999 65.5239C19.3147 65.6079 19.2529 65.7339 19.2146 65.9019C19.1775 66.0687 19.159 66.2762 19.159 66.5245Z" fill="#383B41" fill-opacity="0.72"/>
<path d="M6.52979 55.3854L6.52979 55.7486L4.25425 57.2255L4.25425 57.2403C4.31479 57.2366 4.38397 57.2323 4.46179 57.2273C4.53839 57.2224 4.62054 57.2187 4.70825 57.2162C4.79472 57.2125 4.88305 57.2106 4.97323 57.2106L6.52979 57.2106L6.52979 57.5034L3.82064 57.5034L3.82064 57.1421L6.08876 55.6708L6.08876 55.6578C6.04552 55.6603 5.98437 55.6633 5.90531 55.6671C5.82501 55.6708 5.73916 55.6745 5.64774 55.6782C5.55509 55.6806 5.46923 55.6819 5.39017 55.6819L3.82064 55.6819L3.82064 55.3854L6.52979 55.3854ZM4.49886 53.0154L6.52978 53.0154L6.52978 53.2674L6.24442 53.3118L6.24442 53.3285C6.31483 53.3705 6.37413 53.4249 6.42231 53.4916C6.47049 53.5583 6.50631 53.6337 6.52978 53.7177C6.55449 53.8004 6.56685 53.8888 6.56685 53.9826C6.56685 54.1432 6.5409 54.2779 6.48902 54.3866C6.43713 54.4953 6.35683 54.5775 6.24812 54.6331C6.13941 54.6874 5.99982 54.7146 5.82934 54.7146L4.49886 54.7146L4.49886 54.4033L5.8071 54.4033C5.97634 54.4033 6.10297 54.365 6.18697 54.2884C6.26974 54.2118 6.31113 54.0951 6.31113 53.9382C6.31113 53.7875 6.28271 53.6676 6.22589 53.5787C6.16906 53.4885 6.08567 53.4236 5.97573 53.3841C5.86454 53.3446 5.72865 53.3248 5.56806 53.3248L4.49886 53.3248L4.49886 53.0154ZM4.46179 50.1598C4.46179 49.9362 4.52047 49.7676 4.63783 49.6539C4.75396 49.5403 4.94111 49.4835 5.1993 49.4835L6.52978 49.4835L6.52978 49.7874L5.21413 49.7874C5.04983 49.7874 4.92691 49.8232 4.84537 49.8948C4.7626 49.9653 4.72122 50.0703 4.72122 50.2099C4.72122 50.4063 4.77805 50.549 4.8917 50.6379C5.00535 50.7269 5.17274 50.7713 5.39387 50.7713L6.52978 50.7713L6.52978 51.0771L5.21413 51.0771C5.10418 51.0771 5.01276 51.0931 4.93988 51.1253C4.86699 51.1561 4.81264 51.2031 4.77681 51.2661C4.73975 51.3279 4.72122 51.4063 4.72122 51.5014C4.72122 51.6361 4.74902 51.7442 4.80461 51.8257C4.8602 51.9072 4.94297 51.9665 5.05291 52.0036C5.16163 52.0394 5.29566 52.0573 5.45502 52.0573L6.52978 52.0573L6.52978 52.3649L4.49886 52.3649L4.49886 52.1166L4.78608 52.0703L4.78608 52.0536C4.71566 52.0129 4.65636 51.9616 4.60818 51.8998C4.56001 51.8381 4.52356 51.7689 4.49886 51.6923C4.47415 51.6157 4.46179 51.5342 4.46179 51.4477C4.46179 51.2933 4.49083 51.1642 4.54889 51.0604C4.60571 50.9554 4.69281 50.8794 4.81017 50.8325L4.81017 50.8158C4.69281 50.7491 4.60571 50.6577 4.54889 50.5416C4.49083 50.4254 4.46179 50.2982 4.46179 50.1598ZM3.64646 48.544L4.36729 48.544C4.45006 48.544 4.53036 48.5464 4.60818 48.5514C4.68601 48.5551 4.74654 48.5582 4.78978 48.5607L4.78978 48.544C4.69837 48.4884 4.62116 48.4081 4.55815 48.3031C4.49515 48.1981 4.46365 48.064 4.46365 47.901C4.46365 47.6465 4.55198 47.4439 4.72863 47.2932C4.90405 47.1412 5.16533 47.0653 5.51247 47.0653C5.74101 47.0653 5.93372 47.0998 6.09061 47.169C6.24751 47.2382 6.3661 47.3358 6.4464 47.4618C6.5267 47.5878 6.56685 47.7367 6.56685 47.9084C6.56685 48.069 6.5372 48.2012 6.4779 48.3049C6.41737 48.4075 6.34386 48.4865 6.25739 48.5421L6.25739 48.5662L6.52978 48.6292L6.52978 48.8516L3.64646 48.8516L3.64646 48.544ZM4.72122 47.951C4.72122 48.098 4.75025 48.2148 4.80831 48.3012C4.86514 48.3877 4.95161 48.4501 5.06774 48.4884C5.18263 48.5254 5.3284 48.544 5.50505 48.544L5.52173 48.544C5.77745 48.544 5.97326 48.5014 6.10915 48.4161C6.2438 48.3309 6.31113 48.1758 6.31113 47.951C6.31113 47.762 6.24195 47.6205 6.10359 47.5267C5.96523 47.4315 5.76757 47.384 5.51061 47.384C5.24872 47.384 5.05168 47.4309 4.91949 47.5248C4.78731 47.6175 4.72122 47.7595 4.72122 47.951ZM4.46179 45.7459C4.46179 45.5729 4.50009 45.4247 4.57668 45.3012C4.65327 45.1776 4.76075 45.0831 4.89911 45.0176C5.03624 44.9522 5.19683 44.9194 5.3809 44.9194L5.57176 44.9194L5.57176 46.3222C5.81019 46.3185 5.99179 46.2592 6.11656 46.1443C6.24133 46.0294 6.30371 45.8676 6.30371 45.6588C6.30371 45.5303 6.29198 45.4167 6.26851 45.3178C6.24503 45.219 6.21044 45.1165 6.16474 45.0102L6.43528 45.0102C6.48099 45.1128 6.51434 45.2147 6.53534 45.316C6.55634 45.416 6.56685 45.5346 6.56685 45.6718C6.56685 45.867 6.52731 46.0374 6.44825 46.1832C6.36795 46.3277 6.25059 46.4402 6.09617 46.5205C5.94175 46.6008 5.75274 46.6409 5.52914 46.6409C5.31049 46.6409 5.12148 46.6045 4.96211 46.5316C4.80152 46.4575 4.67798 46.3537 4.59151 46.2203C4.50503 46.0856 4.46179 45.9275 4.46179 45.7459ZM4.71381 45.7496C4.71381 45.9139 4.76755 46.0448 4.87502 46.1424C4.9825 46.24 5.13259 46.2981 5.32531 46.3166L5.32531 45.2419C5.20424 45.2431 5.098 45.2622 5.00659 45.2993C4.91394 45.3351 4.84228 45.3901 4.79163 45.4642C4.73975 45.5383 4.71381 45.6335 4.71381 45.7496ZM4.46179 43.4741C4.46179 43.4333 4.46426 43.3907 4.46921 43.3462C4.47291 43.3017 4.47847 43.2622 4.48588 43.2276L4.77125 43.2665C4.7626 43.2999 4.75581 43.3369 4.75087 43.3777C4.74593 43.4185 4.74346 43.4568 4.74346 43.4926C4.74346 43.5741 4.76013 43.6513 4.79349 43.7242C4.82561 43.7959 4.87255 43.8589 4.93432 43.9132C4.99485 43.9676 5.06836 44.0102 5.15483 44.0411C5.24007 44.072 5.33519 44.0874 5.4402 44.0874L6.52978 44.0874L6.52978 44.3969L4.49885 44.3969L4.49885 44.1412L4.87317 44.1078L4.87317 44.0948C4.79781 44.0528 4.72925 44.0022 4.66748 43.9429C4.60448 43.8836 4.55445 43.815 4.51739 43.7372C4.48032 43.6581 4.46179 43.5704 4.46179 43.4741ZM5.51061 40.1071C5.67739 40.1071 5.82625 40.1287 5.9572 40.172C6.08814 40.2152 6.19871 40.2776 6.28889 40.3591C6.37907 40.4406 6.44825 40.5395 6.49643 40.6556C6.54337 40.7705 6.56685 40.9008 6.56685 41.0466C6.56685 41.1825 6.54337 41.3072 6.49643 41.4209C6.44825 41.5333 6.37907 41.6309 6.28889 41.7137C6.19871 41.7952 6.08814 41.8588 5.9572 41.9045C5.82625 41.949 5.67739 41.9713 5.51061 41.9713C5.28825 41.9713 5.09924 41.9336 4.94358 41.8582C4.78669 41.7829 4.66748 41.6754 4.58595 41.5358C4.50318 41.395 4.46179 41.2276 4.46179 41.0336C4.46179 40.8483 4.50318 40.6865 4.58595 40.5481C4.66872 40.4085 4.78855 40.3004 4.94544 40.2238C5.10109 40.146 5.28948 40.1071 5.51061 40.1071ZM5.51061 41.6525C5.67368 41.6525 5.81513 41.6309 5.93496 41.5877C6.05479 41.5444 6.14744 41.4777 6.21291 41.3875C6.27839 41.2974 6.31113 41.1812 6.31113 41.0392C6.31113 40.8983 6.27839 40.7828 6.21291 40.6927C6.14744 40.6012 6.05479 40.5339 5.93496 40.4907C5.81513 40.4474 5.67368 40.4258 5.51061 40.4258C5.34878 40.4258 5.20919 40.4474 5.09183 40.4907C4.97323 40.5339 4.88182 40.6006 4.81758 40.6908C4.75334 40.781 4.72122 40.8977 4.72122 41.041C4.72122 41.2523 4.79102 41.4073 4.93061 41.5061C5.07021 41.6037 5.26354 41.6525 5.51061 41.6525ZM4.73975 38.671L4.73975 39.1769L6.52978 39.1769L6.52978 39.4845L4.73975 39.4845L4.73975 39.844L4.59151 39.844L4.48959 39.4845L4.35432 39.4845C4.18384 39.4845 4.04548 39.4591 3.93924 39.4085C3.83176 39.3578 3.7527 39.2843 3.70205 39.188C3.6514 39.0916 3.62607 38.9743 3.62607 38.8359C3.62607 38.7581 3.63287 38.687 3.64646 38.6228C3.66005 38.5573 3.67549 38.4999 3.69278 38.4505L3.93553 38.5302C3.92194 38.5722 3.90959 38.6197 3.89847 38.6728C3.88612 38.7247 3.87994 38.7778 3.87994 38.8322C3.87994 38.9496 3.91824 39.0367 3.99483 39.0935C4.07019 39.1491 4.18878 39.1769 4.35061 39.1769L4.49885 39.1769L4.49885 38.671L4.73975 38.671ZM3.82064 35.2151L5.57362 35.2151C5.7651 35.2151 5.93558 35.254 6.08506 35.3318C6.23453 35.4084 6.35251 35.5245 6.43899 35.6802C6.52423 35.8358 6.56684 36.031 6.56684 36.2657C6.56684 36.6005 6.47605 36.8556 6.29445 37.0311C6.11285 37.2052 5.8701 37.2923 5.5662 37.2923L3.82064 37.2923L3.82064 36.9755L5.57547 36.9755C5.80525 36.9755 5.98252 36.9149 6.10729 36.7939C6.23206 36.6716 6.29445 36.4893 6.29445 36.2472C6.29445 36.0817 6.2648 35.9464 6.2055 35.8414C6.14497 35.7352 6.06097 35.6567 5.95349 35.6061C5.84478 35.5542 5.71939 35.5282 5.57732 35.5282L3.82064 35.5282L3.82064 35.2151ZM5.97387 33.2286C6.10359 33.2286 6.21291 33.2614 6.30186 33.3268C6.38957 33.3911 6.45566 33.4837 6.50014 33.6048C6.54461 33.7246 6.56684 33.8679 6.56684 34.0347C6.56684 34.1768 6.55573 34.2997 6.53349 34.4034C6.51125 34.5072 6.47975 34.598 6.43899 34.6758L6.15547 34.6758C6.19624 34.5931 6.2333 34.4942 6.26665 34.3794C6.30001 34.2645 6.31668 34.1471 6.31668 34.0273C6.31668 33.8519 6.28827 33.7246 6.23144 33.6456C6.17462 33.5665 6.09741 33.527 5.99982 33.527C5.94422 33.527 5.89543 33.543 5.85343 33.5751C5.81019 33.606 5.7688 33.6585 5.72927 33.7326C5.6885 33.8068 5.64403 33.9093 5.59585 34.0402C5.54644 34.17 5.49764 34.2824 5.44946 34.3775C5.40005 34.4714 5.34013 34.5443 5.26972 34.5962C5.1993 34.6468 5.10789 34.6721 4.99547 34.6721C4.82375 34.6721 4.69219 34.603 4.60077 34.4646C4.50812 34.325 4.46179 34.1422 4.46179 33.9161C4.46179 33.7938 4.47415 33.6795 4.49885 33.5733C4.52233 33.4658 4.55445 33.3657 4.59521 33.2731L4.84167 33.3769C4.80584 33.4609 4.77557 33.5504 4.75087 33.6456C4.72616 33.7407 4.71381 33.8376 4.71381 33.9365C4.71381 34.0785 4.73728 34.1879 4.78422 34.2645C4.83117 34.3398 4.8954 34.3775 4.97694 34.3775C5.03994 34.3775 5.09183 34.3602 5.13259 34.3256C5.17336 34.2898 5.21166 34.233 5.24748 34.1551C5.28331 34.0773 5.32531 33.9748 5.37349 33.8475C5.42043 33.7203 5.46923 33.6103 5.51988 33.5177C5.56929 33.425 5.62983 33.354 5.70148 33.3046C5.77189 33.2539 5.86269 33.2286 5.97387 33.2286ZM4.46179 31.9519C4.46179 31.7789 4.50009 31.6307 4.57668 31.5071C4.65327 31.3836 4.76075 31.2891 4.89911 31.2236C5.03624 31.1582 5.19683 31.1254 5.3809 31.1254L5.57176 31.1254L5.57176 32.5282C5.81019 32.5245 5.99179 32.4652 6.11656 32.3503C6.24133 32.2354 6.30371 32.0736 6.30371 31.8648C6.30371 31.7363 6.29198 31.6227 6.26851 31.5238C6.24503 31.425 6.21044 31.3225 6.16474 31.2162L6.43528 31.2162C6.48099 31.3188 6.51434 31.4207 6.53534 31.522C6.55634 31.622 6.56684 31.7406 6.56684 31.8778C6.56684 32.0729 6.52731 32.2434 6.44825 32.3892C6.36795 32.5337 6.25059 32.6461 6.09617 32.7264C5.94175 32.8067 5.75274 32.8469 5.52914 32.8469C5.31048 32.8469 5.12148 32.8104 4.96211 32.7376C4.80152 32.6634 4.67798 32.5597 4.59151 32.4263C4.50503 32.2916 4.46179 32.1335 4.46179 31.9519ZM4.71381 31.9556C4.71381 32.1199 4.76754 32.2508 4.87502 32.3484C4.9825 32.446 5.13259 32.5041 5.32531 32.5226L5.32531 31.4478C5.20424 31.4491 5.098 31.4682 5.00659 31.5053C4.91393 31.5411 4.84228 31.5961 4.79163 31.6702C4.73975 31.7443 4.71381 31.8395 4.71381 31.9556ZM4.46179 29.68C4.46179 29.6393 4.46426 29.5967 4.46921 29.5522C4.47291 29.5077 4.47847 29.4682 4.48588 29.4336L4.77125 29.4725C4.7626 29.5059 4.75581 29.5429 4.75087 29.5837C4.74593 29.6245 4.74346 29.6628 4.74346 29.6986C4.74346 29.7801 4.76013 29.8573 4.79349 29.9302C4.82561 30.0019 4.87255 30.0649 4.93432 30.1192C4.99485 30.1736 5.06835 30.2162 5.15483 30.2471C5.24007 30.278 5.33519 30.2934 5.4402 30.2934L6.52978 30.2934L6.52978 30.6029L4.49885 30.6029L4.49885 30.3471L4.87317 30.3138L4.87317 30.3008C4.79781 30.2588 4.72925 30.2082 4.66748 30.1489C4.60448 30.0896 4.55445 30.021 4.51738 29.9432C4.48032 29.8641 4.46179 29.7764 4.46179 29.68ZM5.97387 27.7362C6.10359 27.7362 6.21291 27.7689 6.30186 27.8344C6.38957 27.8987 6.45566 27.9913 6.50014 28.1124C6.54461 28.2322 6.56684 28.3755 6.56684 28.5423C6.56684 28.6844 6.55573 28.8073 6.53349 28.911C6.51125 29.0148 6.47975 29.1056 6.43899 29.1834L6.15547 29.1834C6.19624 29.1007 6.2333 29.0018 6.26665 28.8869C6.30001 28.7721 6.31668 28.6547 6.31668 28.5349C6.31668 28.3595 6.28827 28.2322 6.23144 28.1531C6.17462 28.0741 6.09741 28.0346 5.99981 28.0346C5.94422 28.0346 5.89543 28.0506 5.85342 28.0827C5.81019 28.1136 5.7688 28.1661 5.72927 28.2402C5.6885 28.3144 5.64403 28.4169 5.59585 28.5478C5.54644 28.6776 5.49764 28.79 5.44946 28.8851C5.40005 28.979 5.34013 29.0519 5.26972 29.1038C5.1993 29.1544 5.10789 29.1797 4.99547 29.1797C4.82375 29.1797 4.69219 29.1105 4.60077 28.9722C4.50812 28.8326 4.46179 28.6498 4.46179 28.4237C4.46179 28.3014 4.47415 28.1871 4.49885 28.0809C4.52233 27.9734 4.55445 27.8733 4.59521 27.7807L4.84167 27.8845C4.80584 27.9685 4.77557 28.058 4.75087 28.1531C4.72616 28.2483 4.71381 28.3452 4.71381 28.4441C4.71381 28.5861 4.73728 28.6955 4.78422 28.7721C4.83117 28.8474 4.8954 28.8851 4.97694 28.8851C5.03994 28.8851 5.09183 28.8678 5.13259 28.8332C5.17336 28.7974 5.21166 28.7406 5.24748 28.6627C5.28331 28.5849 5.32531 28.4824 5.37349 28.3551C5.42043 28.2279 5.46923 28.1179 5.51988 28.0253C5.56929 27.9326 5.62983 27.8616 5.70148 27.8122C5.77189 27.7615 5.86269 27.7362 5.97387 27.7362Z" fill="#383B41"/>
<rect x="41" y="51" width="10" height="16" fill="#B83A3A"/>
<rect x="114" y="30" width="10" height="37" fill="#B83A3A"/>
<rect x="188" y="48" width="10" height="19" fill="#B83A3A"/>
<circle cx="94.5258" cy="5.03005" r="2.21376" fill="#B83A3A"/>
<path d="M99.0829 3.82089C99.4325 3.82089 99.6876 3.88945 99.8482 4.02657C100.01 4.16246 100.091 4.35765 100.091 4.61213C100.091 4.72702 100.072 4.83635 100.033 4.94012C99.9964 5.04266 99.9359 5.13346 99.8519 5.21252C99.7679 5.29035 99.6573 5.35211 99.5202 5.39782C99.3843 5.4423 99.2175 5.46453 99.0199 5.46453H98.69V6.53003H98.375V3.82089H99.0829ZM99.0532 4.08958H98.69V5.19399H98.9847C99.1576 5.19399 99.3015 5.17546 99.4164 5.1384C99.5325 5.10134 99.6196 5.04142 99.6777 4.95865C99.7357 4.87465 99.7648 4.76347 99.7648 4.62511C99.7648 4.44474 99.7073 4.31071 99.5924 4.223C99.4776 4.13405 99.2978 4.08958 99.0532 4.08958ZM100.919 3.6467V4.50836C100.919 4.55778 100.918 4.60781 100.916 4.65846C100.913 4.70788 100.909 4.75358 100.903 4.79559H100.923C100.965 4.72393 101.018 4.66402 101.082 4.61584C101.148 4.56643 101.222 4.52937 101.305 4.50466C101.387 4.47872 101.475 4.46574 101.568 4.46574C101.731 4.46574 101.867 4.49169 101.975 4.54357C102.085 4.59546 102.168 4.67576 102.222 4.78447C102.278 4.89318 102.305 5.03401 102.305 5.20696V6.53003H102.001V5.22734C102.001 5.0581 101.962 4.93148 101.885 4.84747C101.808 4.76347 101.69 4.72146 101.531 4.72146C101.38 4.72146 101.26 4.7505 101.169 4.80856C101.08 4.86538 101.016 4.94939 100.977 5.06057C100.938 5.17175 100.919 5.30764 100.919 5.46824V6.53003L100.612 6.53003V3.6467H100.919ZM103.247 4.4991V6.53003H102.939V4.4991H103.247ZM103.097 3.73935C103.147 3.73935 103.19 3.75603 103.226 3.78939C103.263 3.82151 103.282 3.87215 103.282 3.94134C103.282 4.00928 103.263 4.05993 103.226 4.09328C103.19 4.12664 103.147 4.14332 103.097 4.14332C103.043 4.14332 102.999 4.12664 102.963 4.09328C102.929 4.05993 102.911 4.00928 102.911 3.94134C102.911 3.87215 102.929 3.82151 102.963 3.78939C102.999 3.75603 103.043 3.73935 103.097 3.73935ZM105.213 5.97412C105.213 6.10383 105.18 6.21316 105.115 6.30211C105.05 6.38982 104.958 6.45591 104.837 6.50038C104.717 6.54485 104.573 6.56709 104.407 6.56709C104.265 6.56709 104.142 6.55597 104.038 6.53374C103.934 6.5115 103.843 6.48 103.765 6.43923V6.15572C103.848 6.19648 103.947 6.23354 104.062 6.2669C104.177 6.30025 104.294 6.31693 104.414 6.31693C104.589 6.31693 104.717 6.28852 104.796 6.23169C104.875 6.17486 104.914 6.09765 104.914 6.00006C104.914 5.94447 104.898 5.89567 104.866 5.85367C104.835 5.81043 104.783 5.76905 104.709 5.72952C104.635 5.68875 104.532 5.64428 104.401 5.5961C104.271 5.54668 104.159 5.49789 104.064 5.44971C103.97 5.40029 103.897 5.34038 103.845 5.26996C103.795 5.19955 103.769 5.10813 103.769 4.99571C103.769 4.824 103.838 4.69243 103.977 4.60102C104.116 4.50836 104.299 4.46204 104.525 4.46204C104.648 4.46204 104.762 4.47439 104.868 4.4991C104.976 4.52257 105.076 4.55469 105.168 4.59546L105.064 4.84191C104.98 4.80609 104.891 4.77582 104.796 4.75111C104.701 4.72641 104.604 4.71405 104.505 4.71405C104.363 4.71405 104.253 4.73752 104.177 4.78447C104.102 4.83141 104.064 4.89565 104.064 4.97718C104.064 5.04019 104.081 5.09207 104.116 5.13284C104.152 5.17361 104.208 5.2119 104.286 5.24773C104.364 5.28355 104.467 5.32555 104.594 5.37373C104.721 5.42068 104.831 5.46947 104.924 5.52012C105.016 5.56954 105.087 5.63007 105.137 5.70172C105.187 5.77214 105.213 5.86294 105.213 5.97412ZM106.015 3.6467V4.50836C106.015 4.55778 106.014 4.60781 106.011 4.65846C106.009 4.70788 106.005 4.75358 105.998 4.79559H106.019C106.061 4.72393 106.114 4.66402 106.178 4.61584C106.244 4.56643 106.318 4.52937 106.401 4.50466C106.483 4.47872 106.571 4.46574 106.664 4.46574C106.827 4.46574 106.963 4.49169 107.071 4.54357C107.181 4.59546 107.263 4.67576 107.318 4.78447C107.373 4.89318 107.401 5.03401 107.401 5.20696V6.53003H107.097V5.22734C107.097 5.0581 107.058 4.93148 106.981 4.84747C106.904 4.76347 106.786 4.72146 106.627 4.72146C106.476 4.72146 106.355 4.7505 106.265 4.80856C106.176 4.86538 106.112 4.94939 106.073 5.06057C106.034 5.17175 106.015 5.30764 106.015 5.46824V6.53003H105.707V3.6467H106.015ZM108.817 4.46204C108.99 4.46204 109.138 4.50033 109.262 4.57693C109.385 4.65352 109.48 4.761 109.545 4.89936C109.611 5.03648 109.643 5.19708 109.643 5.38115V5.57201H108.241C108.244 5.81043 108.304 5.99203 108.418 6.1168C108.533 6.24157 108.695 6.30396 108.904 6.30396C109.032 6.30396 109.146 6.29222 109.245 6.26875C109.344 6.24528 109.446 6.21069 109.553 6.16498V6.43552C109.45 6.48123 109.348 6.51459 109.247 6.53559C109.147 6.55659 109.028 6.56709 108.891 6.56709C108.696 6.56709 108.525 6.52756 108.38 6.4485C108.235 6.3682 108.123 6.25084 108.042 6.09642C107.962 5.942 107.922 5.75299 107.922 5.52939C107.922 5.31073 107.958 5.12172 108.031 4.96236C108.105 4.80176 108.209 4.67823 108.342 4.59175C108.477 4.50528 108.635 4.46204 108.817 4.46204ZM108.813 4.71405C108.649 4.71405 108.518 4.76779 108.42 4.87527C108.323 4.98274 108.265 5.13284 108.246 5.32555H109.321C109.32 5.20449 109.301 5.09825 109.263 5.00683C109.228 4.91418 109.173 4.84253 109.099 4.79188C109.024 4.73999 108.929 4.71405 108.813 4.71405ZM110.889 6.56709C110.632 6.56709 110.428 6.47938 110.277 6.30396C110.128 6.12854 110.053 5.86788 110.053 5.52198C110.053 5.17237 110.129 4.90862 110.283 4.73073C110.436 4.5516 110.64 4.46204 110.894 4.46204C111.002 4.46204 111.095 4.47625 111.176 4.50466C111.256 4.53307 111.325 4.57137 111.383 4.61955C111.441 4.66649 111.49 4.72023 111.53 4.78076H111.552C111.547 4.74247 111.542 4.68996 111.537 4.62325C111.532 4.55654 111.53 4.50219 111.53 4.46019V3.6467H111.837V6.53003L111.589 6.53003L111.543 6.24096H111.53C111.491 6.30149 111.443 6.35646 111.383 6.40588C111.325 6.45529 111.255 6.49482 111.174 6.52447C111.094 6.55288 110.999 6.56709 110.889 6.56709ZM110.937 6.31137C111.154 6.31137 111.308 6.2496 111.398 6.12607C111.488 6.00253 111.533 5.81908 111.533 5.57571V5.52012C111.533 5.26193 111.49 5.06366 111.404 4.9253C111.318 4.78694 111.163 4.71776 110.937 4.71776C110.748 4.71776 110.606 4.79064 110.512 4.93642C110.419 5.08095 110.372 5.27861 110.372 5.52939C110.372 5.77893 110.418 5.97165 110.511 6.10754C110.604 6.24343 110.747 6.31137 110.937 6.31137ZM115.571 3.82089V5.57386C115.571 5.76534 115.532 5.93582 115.454 6.0853C115.378 6.23478 115.262 6.35276 115.106 6.43923C114.95 6.52447 114.755 6.56709 114.521 6.56709C114.186 6.56709 113.931 6.47629 113.755 6.29469C113.581 6.1131 113.494 5.87035 113.494 5.56645V3.82089H113.811V5.57571C113.811 5.80549 113.871 5.98277 113.992 6.10754C114.115 6.23231 114.297 6.29469 114.539 6.29469C114.705 6.29469 114.84 6.26504 114.945 6.20575C115.051 6.14522 115.13 6.06121 115.18 5.95373C115.232 5.84502 115.258 5.71963 115.258 5.57757V3.82089H115.571ZM117.558 5.97412C117.558 6.10383 117.525 6.21316 117.459 6.30211C117.395 6.38982 117.303 6.45591 117.181 6.50038C117.062 6.54485 116.918 6.56709 116.752 6.56709C116.61 6.56709 116.487 6.55597 116.383 6.53374C116.279 6.5115 116.188 6.48 116.11 6.43923V6.15572C116.193 6.19648 116.292 6.23354 116.407 6.2669C116.522 6.30025 116.639 6.31693 116.759 6.31693C116.934 6.31693 117.062 6.28852 117.141 6.23169C117.22 6.17486 117.259 6.09765 117.259 6.00006C117.259 5.94447 117.243 5.89567 117.211 5.85367C117.18 5.81043 117.128 5.76905 117.054 5.72952C116.98 5.68875 116.877 5.64428 116.746 5.5961C116.616 5.54668 116.504 5.49789 116.409 5.44971C116.315 5.40029 116.242 5.34038 116.19 5.26996C116.139 5.19955 116.114 5.10813 116.114 4.99571C116.114 4.824 116.183 4.69243 116.322 4.60102C116.461 4.50836 116.644 4.46204 116.87 4.46204C116.992 4.46204 117.107 4.47439 117.213 4.4991C117.32 4.52257 117.421 4.55469 117.513 4.59546L117.409 4.84191C117.325 4.80609 117.236 4.77582 117.141 4.75111C117.046 4.72641 116.949 4.71405 116.85 4.71405C116.708 4.71405 116.598 4.73752 116.522 4.78447C116.446 4.83141 116.409 4.89565 116.409 4.97718C116.409 5.04019 116.426 5.09207 116.461 5.13284C116.496 5.17361 116.553 5.2119 116.631 5.24773C116.709 5.28355 116.811 5.32555 116.939 5.37373C117.066 5.42068 117.176 5.46947 117.269 5.52012C117.361 5.56954 117.432 5.63007 117.482 5.70172C117.532 5.77214 117.558 5.86294 117.558 5.97412ZM118.834 4.46204C119.007 4.46204 119.156 4.50033 119.279 4.57693C119.403 4.65352 119.497 4.761 119.563 4.89936C119.628 5.03648 119.661 5.19708 119.661 5.38115V5.57201H118.258C118.262 5.81043 118.321 5.99203 118.436 6.1168C118.551 6.24157 118.713 6.30396 118.921 6.30396C119.05 6.30396 119.164 6.29222 119.262 6.26875C119.361 6.24528 119.464 6.21069 119.57 6.16498V6.43552C119.468 6.48123 119.366 6.51459 119.264 6.53559C119.164 6.55659 119.046 6.56709 118.909 6.56709C118.713 6.56709 118.543 6.52756 118.397 6.4485C118.253 6.3682 118.14 6.25084 118.06 6.09642C117.98 5.942 117.939 5.75299 117.939 5.52939C117.939 5.31073 117.976 5.12172 118.049 4.96236C118.123 4.80176 118.227 4.67823 118.36 4.59175C118.495 4.50528 118.653 4.46204 118.834 4.46204ZM118.831 4.71405C118.666 4.71405 118.535 4.76779 118.438 4.87527C118.34 4.98274 118.282 5.13284 118.264 5.32555H119.338C119.337 5.20449 119.318 5.09825 119.281 5.00683C119.245 4.91418 119.19 4.84253 119.116 4.79188C119.042 4.73999 118.947 4.71405 118.831 4.71405ZM121.106 4.46204C121.147 4.46204 121.19 4.46451 121.234 4.46945C121.279 4.47316 121.318 4.47872 121.353 4.48613L121.314 4.7715C121.28 4.76285 121.243 4.75605 121.203 4.75111C121.162 4.74617 121.124 4.7437 121.088 4.7437C121.006 4.7437 120.929 4.76038 120.856 4.79373C120.784 4.82585 120.721 4.8728 120.667 4.93456C120.613 4.9951 120.57 5.0686 120.539 5.15508C120.508 5.24031 120.493 5.33544 120.493 5.44044V6.53003H120.183V4.4991H120.439L120.472 4.87341H120.485C120.527 4.79806 120.578 4.72949 120.637 4.66773C120.697 4.60472 120.765 4.55469 120.843 4.51763C120.922 4.48057 121.01 4.46204 121.106 4.46204ZM123.05 5.97412C123.05 6.10383 123.017 6.21316 122.952 6.30211C122.888 6.38982 122.795 6.45591 122.674 6.50038C122.554 6.54485 122.411 6.56709 122.244 6.56709C122.102 6.56709 121.979 6.55597 121.875 6.53374C121.771 6.5115 121.681 6.48 121.603 6.43923V6.15572C121.686 6.19648 121.784 6.23354 121.899 6.2669C122.014 6.30025 122.132 6.31693 122.251 6.31693C122.427 6.31693 122.554 6.28852 122.633 6.23169C122.712 6.17486 122.752 6.09765 122.752 6.00006C122.752 5.94447 122.736 5.89567 122.704 5.85367C122.673 5.81043 122.62 5.76905 122.546 5.72952C122.472 5.68875 122.369 5.64428 122.238 5.5961C122.109 5.54668 121.996 5.49789 121.901 5.44971C121.807 5.40029 121.734 5.34038 121.683 5.26996C121.632 5.19955 121.607 5.10813 121.607 4.99571C121.607 4.824 121.676 4.69243 121.814 4.60102C121.954 4.50836 122.137 4.46204 122.363 4.46204C122.485 4.46204 122.599 4.47439 122.705 4.4991C122.813 4.52257 122.913 4.55469 123.006 4.59546L122.902 4.84191C122.818 4.80609 122.728 4.77582 122.633 4.75111C122.538 4.72641 122.441 4.71405 122.342 4.71405C122.2 4.71405 122.091 4.73752 122.014 4.78447C121.939 4.83141 121.901 4.89565 121.901 4.97718C121.901 5.04019 121.918 5.09207 121.953 5.13284C121.989 5.17361 122.046 5.2119 122.124 5.24773C122.201 5.28355 122.304 5.32555 122.431 5.37373C122.558 5.42068 122.668 5.46947 122.761 5.52012C122.854 5.56954 122.925 5.63007 122.974 5.70172C123.025 5.77214 123.05 5.86294 123.05 5.97412Z" fill="#383B41"/>
<path d="M98.9679 81.798L98.058 79.4001H98.0432C98.0481 79.4508 98.0525 79.5126 98.0562 79.5854C98.0599 79.6583 98.063 79.738 98.0654 79.8245C98.0679 79.9097 98.0691 79.9968 98.0691 80.0858V81.798H97.7764V79.0888H98.2433L99.1013 81.3421H99.1143L99.9852 79.0888H100.448V81.798H100.137V80.0635C100.137 79.9832 100.138 79.9029 100.141 79.8226C100.143 79.7411 100.146 79.6645 100.15 79.5929C100.154 79.52 100.158 79.457 100.161 79.4038H100.146L99.2254 81.798H98.9679ZM102.894 80.7788C102.894 80.9456 102.873 81.0944 102.83 81.2254C102.786 81.3563 102.724 81.4669 102.642 81.5571C102.561 81.6473 102.462 81.7164 102.346 81.7646C102.231 81.8116 102.101 81.835 101.955 81.835C101.819 81.835 101.694 81.8116 101.581 81.7646C101.468 81.7164 101.371 81.6473 101.288 81.5571C101.206 81.4669 101.143 81.3563 101.097 81.2254C101.053 81.0944 101.03 80.9456 101.03 80.7788C101.03 80.5564 101.068 80.3674 101.143 80.2118C101.219 80.0549 101.326 79.9357 101.466 79.8541C101.607 79.7714 101.774 79.73 101.968 79.73C102.153 79.73 102.315 79.7714 102.453 79.8541C102.593 79.9369 102.701 80.0567 102.778 80.2136C102.856 80.3693 102.894 80.5577 102.894 80.7788ZM101.349 80.7788C101.349 80.9419 101.371 81.0833 101.414 81.2031C101.457 81.323 101.524 81.4156 101.614 81.4811C101.704 81.5466 101.82 81.5793 101.962 81.5793C102.103 81.5793 102.219 81.5466 102.309 81.4811C102.4 81.4156 102.468 81.323 102.511 81.2031C102.554 81.0833 102.576 80.9419 102.576 80.7788C102.576 80.617 102.554 80.4774 102.511 80.36C102.468 80.2414 102.401 80.15 102.311 80.0858C102.221 80.0215 102.104 79.9894 101.961 79.9894C101.749 79.9894 101.594 80.0592 101.495 80.1988C101.398 80.3384 101.349 80.5317 101.349 80.7788ZM104.388 79.73C104.629 79.73 104.811 79.7893 104.935 79.9079C105.058 80.0252 105.12 80.2142 105.12 80.4749V81.798H104.816V80.4953C104.816 80.326 104.777 80.1994 104.699 80.1154C104.623 80.0314 104.505 79.9894 104.345 79.9894C104.121 79.9894 103.962 80.053 103.871 80.1803C103.78 80.3075 103.734 80.4922 103.734 80.7343V81.798H103.426V79.767H103.675L103.721 80.0598H103.738C103.781 79.9882 103.836 79.9283 103.903 79.8801C103.969 79.8307 104.044 79.7936 104.127 79.7689C104.21 79.743 104.297 79.73 104.388 79.73ZM106.41 81.583C106.46 81.583 106.512 81.5787 106.565 81.57C106.618 81.5614 106.662 81.5509 106.695 81.5385V81.7776C106.659 81.7936 106.609 81.8072 106.545 81.8184C106.482 81.8295 106.42 81.835 106.36 81.835C106.252 81.835 106.155 81.8165 106.067 81.7794C105.979 81.7411 105.909 81.6769 105.856 81.5867C105.804 81.4965 105.778 81.3718 105.778 81.2124V80.0079H105.489V79.8578L105.78 79.7374L105.902 79.2964H106.087V79.767H106.682V80.0079H106.087V81.2031C106.087 81.3304 106.116 81.4255 106.174 81.4885C106.234 81.5515 106.312 81.583 106.41 81.583ZM107.414 78.9146V79.7763C107.414 79.8257 107.413 79.8758 107.41 79.9264C107.408 79.9758 107.404 80.0215 107.397 80.0635H107.418C107.46 79.9919 107.513 79.932 107.577 79.8838C107.643 79.8344 107.717 79.7973 107.799 79.7726C107.882 79.7467 107.97 79.7337 108.063 79.7337C108.226 79.7337 108.362 79.7596 108.47 79.8115C108.58 79.8634 108.662 79.9437 108.717 80.0524C108.772 80.1611 108.8 80.302 108.8 80.4749V81.798H108.496V80.4953C108.496 80.326 108.457 80.1994 108.379 80.1154C108.303 80.0314 108.185 79.9894 108.026 79.9894C107.875 79.9894 107.754 80.0184 107.664 80.0765C107.575 80.1333 107.511 80.2173 107.471 80.3285C107.433 80.4397 107.414 80.5756 107.414 80.7362V81.798H107.106V78.9146H107.414ZM110.46 79.0888L109.452 81.798H109.148L110.158 79.0888H110.46ZM111.565 80.4471L112.286 79.0888H112.625L111.722 80.7473V81.798H111.407V80.7621L110.503 79.0888H110.848L111.565 80.4471ZM113.733 79.73C113.906 79.73 114.054 79.7683 114.178 79.8449C114.301 79.9215 114.396 80.0289 114.461 80.1673C114.527 80.3044 114.559 80.465 114.559 80.6491V80.84H113.157C113.16 81.0784 113.22 81.26 113.334 81.3847C113.449 81.5095 113.611 81.5719 113.82 81.5719C113.948 81.5719 114.062 81.5602 114.161 81.5367C114.26 81.5132 114.362 81.4786 114.469 81.4329V81.7035C114.366 81.7492 114.264 81.7825 114.163 81.8035C114.063 81.8245 113.944 81.835 113.807 81.835C113.612 81.835 113.441 81.7955 113.296 81.7164C113.151 81.6361 113.039 81.5188 112.958 81.3644C112.878 81.2099 112.838 81.0209 112.838 80.7973C112.838 80.5787 112.874 80.3897 112.947 80.2303C113.021 80.0697 113.125 79.9462 113.259 79.8597C113.393 79.7732 113.551 79.73 113.733 79.73ZM113.729 79.982C113.565 79.982 113.434 80.0357 113.336 80.1432C113.239 80.2507 113.181 80.4008 113.162 80.5935H114.237C114.236 80.4724 114.217 80.3662 114.179 80.2748C114.144 80.1821 114.089 80.1105 114.015 80.0598C113.94 80.0079 113.845 79.982 113.729 79.982ZM115.842 79.7337C116.084 79.7337 116.264 79.788 116.381 79.8968C116.498 80.0055 116.557 80.179 116.557 80.4175V81.798H116.333L116.273 81.4978H116.259C116.202 81.5719 116.142 81.6343 116.081 81.6849C116.019 81.7344 115.947 81.772 115.866 81.798C115.785 81.8227 115.687 81.835 115.569 81.835C115.446 81.835 115.336 81.8134 115.239 81.7702C115.144 81.7269 115.069 81.6615 115.013 81.5738C114.959 81.486 114.932 81.3749 114.932 81.2402C114.932 81.0376 115.012 80.882 115.173 80.7732C115.333 80.6645 115.578 80.6052 115.906 80.5954L116.257 80.5805V80.4564C116.257 80.281 116.219 80.158 116.144 80.0876C116.068 80.0172 115.962 79.982 115.825 79.982C115.719 79.982 115.617 79.9974 115.521 80.0283C115.425 80.0592 115.333 80.0956 115.247 80.1377L115.152 79.9042C115.244 79.8572 115.349 79.8171 115.467 79.7837C115.586 79.7504 115.711 79.7337 115.842 79.7337ZM116.253 80.7973L115.944 80.8103C115.69 80.8202 115.512 80.8616 115.408 80.9345C115.304 81.0073 115.252 81.1105 115.252 81.2439C115.252 81.36 115.288 81.4459 115.358 81.5015C115.428 81.5571 115.522 81.5849 115.638 81.5849C115.818 81.5849 115.966 81.5348 116.081 81.4348C116.196 81.3347 116.253 81.1846 116.253 80.9845V80.7973ZM118.113 79.73C118.154 79.73 118.197 79.7325 118.241 79.7374C118.286 79.7411 118.325 79.7467 118.36 79.7541L118.321 80.0394C118.288 80.0308 118.251 80.024 118.21 80.0191C118.169 80.0141 118.131 80.0116 118.095 80.0116C118.013 80.0116 117.936 80.0283 117.863 80.0617C117.792 80.0938 117.729 80.1407 117.674 80.2025C117.62 80.263 117.577 80.3365 117.546 80.423C117.516 80.5083 117.5 80.6034 117.5 80.7084V81.798H117.191V79.767H117.446L117.48 80.1414H117.493C117.535 80.066 117.585 79.9974 117.645 79.9357C117.704 79.8727 117.773 79.8226 117.85 79.7856C117.929 79.7485 118.017 79.73 118.113 79.73Z" fill="#383B41"/>
</g>
<defs>
<clipPath id="clip0_2930_46282">
<rect width="216" height="83" fill="white"/>
</clipPath>
</defs>
</svg>
