<svg width="216" height="64" viewBox="0 0 216 64" fill="none" xmlns="http://www.w3.org/2000/svg">
<rect width="216" height="63.2791" transform="translate(0 0.558105)" fill="white"/>
<circle cx="98.5979" cy="5.27297" r="1.40651" fill="#43A047"/>
<path d="M101.494 4.0517C101.716 4.0517 101.878 4.09526 101.98 4.18238C102.083 4.26872 102.134 4.39273 102.134 4.55442C102.134 4.62741 102.122 4.69687 102.098 4.7628C102.074 4.82795 102.036 4.88564 101.982 4.93587C101.929 4.98532 101.859 5.02456 101.772 5.0536C101.685 5.08186 101.579 5.09599 101.454 5.09599H101.244V5.77295H101.044V4.0517H101.494ZM101.475 4.22241H101.244V4.9241H101.431C101.541 4.9241 101.633 4.91232 101.706 4.88878C101.779 4.86523 101.835 4.82716 101.872 4.77458C101.909 4.72121 101.927 4.65057 101.927 4.56266C101.927 4.44807 101.891 4.36291 101.818 4.30718C101.745 4.25067 101.63 4.22241 101.475 4.22241ZM102.661 3.94103V4.48849C102.661 4.51988 102.66 4.55167 102.658 4.58385C102.657 4.61525 102.654 4.64429 102.65 4.67097H102.663C102.69 4.62545 102.723 4.58738 102.764 4.55677C102.806 4.52538 102.853 4.50183 102.905 4.48613C102.958 4.46965 103.014 4.46141 103.073 4.46141C103.176 4.46141 103.263 4.47789 103.332 4.51086C103.401 4.54382 103.454 4.59484 103.488 4.66391C103.524 4.73298 103.541 4.82246 103.541 4.93234V5.77295H103.348V4.94529C103.348 4.83776 103.323 4.75731 103.274 4.70394C103.225 4.65057 103.15 4.62388 103.049 4.62388C102.953 4.62388 102.877 4.64232 102.819 4.67921C102.763 4.71532 102.722 4.76869 102.697 4.83933C102.673 4.90997 102.661 4.99631 102.661 5.09834V5.77295H102.465V3.94103H102.661ZM104.139 4.4826V5.77295H103.944V4.4826H104.139ZM104.044 3.9999C104.076 3.9999 104.104 4.01049 104.126 4.03168C104.15 4.05209 104.162 4.08427 104.162 4.12823C104.162 4.17139 104.15 4.20357 104.126 4.22477C104.104 4.24596 104.076 4.25655 104.044 4.25655C104.01 4.25655 103.982 4.24596 103.959 4.22477C103.937 4.20357 103.926 4.17139 103.926 4.12823C103.926 4.08427 103.937 4.05209 103.959 4.03168C103.982 4.01049 104.01 3.9999 104.044 3.9999ZM105.388 5.41975C105.388 5.50216 105.368 5.57163 105.326 5.62814C105.285 5.68386 105.226 5.72586 105.149 5.75411C105.073 5.78237 104.982 5.7965 104.876 5.7965C104.786 5.7965 104.708 5.78943 104.642 5.7753C104.576 5.76118 104.518 5.74116 104.469 5.71526V5.53513C104.521 5.56103 104.584 5.58458 104.657 5.60577C104.73 5.62696 104.805 5.63756 104.881 5.63756C104.992 5.63756 105.073 5.6195 105.123 5.5834C105.174 5.5473 105.199 5.49824 105.199 5.43623C105.199 5.40091 105.189 5.36991 105.168 5.34323C105.149 5.31575 105.115 5.28946 105.068 5.26434C105.021 5.23844 104.956 5.21019 104.873 5.17958C104.79 5.14818 104.719 5.11718 104.658 5.08657C104.599 5.05517 104.552 5.01711 104.52 4.97237C104.487 4.92763 104.471 4.86955 104.471 4.79812C104.471 4.68902 104.515 4.60543 104.603 4.54735C104.692 4.48849 104.808 4.45905 104.952 4.45905C105.029 4.45905 105.102 4.4669 105.169 4.4826C105.238 4.49751 105.301 4.51792 105.36 4.54382L105.294 4.70041C105.241 4.67764 105.184 4.65841 105.123 4.64272C105.063 4.62702 105.001 4.61917 104.939 4.61917C104.848 4.61917 104.779 4.63408 104.73 4.66391C104.682 4.69373 104.658 4.73455 104.658 4.78635C104.658 4.82638 104.669 4.85934 104.691 4.88525C104.714 4.91115 104.75 4.93548 104.8 4.95824C104.849 4.981 104.914 5.00769 104.995 5.0383C105.076 5.06812 105.146 5.09913 105.205 5.13131C105.264 5.1627 105.309 5.20116 105.34 5.24668C105.372 5.29142 105.388 5.34911 105.388 5.41975ZM105.898 3.94103V4.48849C105.898 4.51988 105.897 4.55167 105.896 4.58385C105.894 4.61525 105.892 4.64429 105.888 4.67097H105.901C105.927 4.62545 105.961 4.58738 106.002 4.55677C106.043 4.52538 106.09 4.50183 106.143 4.48613C106.196 4.46965 106.251 4.46141 106.31 4.46141C106.414 4.46141 106.5 4.47789 106.569 4.51086C106.639 4.54382 106.691 4.59484 106.726 4.66391C106.761 4.73298 106.779 4.82246 106.779 4.93234V5.77295H106.586V4.94529C106.586 4.83776 106.561 4.75731 106.512 4.70394C106.463 4.65057 106.388 4.62388 106.287 4.62388C106.191 4.62388 106.114 4.64232 106.057 4.67921C106.001 4.71532 105.96 4.76869 105.935 4.83933C105.91 4.90997 105.898 4.99631 105.898 5.09834V5.77295H105.703V3.94103H105.898ZM108.302 4.0517C108.444 4.0517 108.56 4.06936 108.652 4.10468C108.745 4.13921 108.814 4.19219 108.859 4.26362C108.905 4.33504 108.927 4.42609 108.927 4.53676C108.927 4.6278 108.911 4.70394 108.878 4.76516C108.845 4.82559 108.802 4.87465 108.748 4.91232C108.695 4.95 108.638 4.97904 108.578 4.99945L109.05 5.77295H108.817L108.395 5.05478H108.037V5.77295H107.837V4.0517H108.302ZM108.29 4.22477H108.037V4.88525H108.311C108.451 4.88525 108.554 4.8566 108.62 4.7993C108.687 4.742 108.72 4.65763 108.72 4.54618C108.72 4.42923 108.685 4.34642 108.614 4.29776C108.544 4.2491 108.436 4.22477 108.29 4.22477ZM109.793 4.45905C109.903 4.45905 109.997 4.48339 110.075 4.53205C110.154 4.58071 110.214 4.649 110.255 4.7369C110.297 4.82402 110.318 4.92606 110.318 5.04301V5.16427H109.427C109.429 5.31575 109.467 5.43113 109.54 5.51041C109.613 5.58968 109.715 5.62932 109.848 5.62932C109.93 5.62932 110.002 5.62186 110.065 5.60695C110.128 5.59203 110.193 5.57006 110.26 5.54102V5.71291C110.195 5.74195 110.13 5.76314 110.066 5.77648C110.002 5.78982 109.927 5.7965 109.84 5.7965C109.716 5.7965 109.608 5.77138 109.515 5.72115C109.423 5.67013 109.352 5.59557 109.301 5.49746C109.25 5.39934 109.224 5.27926 109.224 5.13719C109.224 4.99827 109.247 4.87818 109.294 4.77693C109.341 4.6749 109.407 4.59641 109.491 4.54147C109.577 4.48652 109.677 4.45905 109.793 4.45905ZM109.79 4.61917C109.686 4.61917 109.603 4.65331 109.541 4.7216C109.479 4.78988 109.442 4.88525 109.43 5.00769H110.113C110.112 4.93077 110.1 4.86327 110.076 4.80519C110.054 4.74632 110.019 4.7008 109.972 4.66862C109.925 4.63565 109.864 4.61917 109.79 4.61917ZM111.256 4.45905C111.417 4.45905 111.545 4.51439 111.641 4.62506C111.737 4.73573 111.785 4.90212 111.785 5.12424C111.785 5.27102 111.763 5.39424 111.719 5.49392C111.675 5.5936 111.613 5.66895 111.533 5.71997C111.454 5.77099 111.36 5.7965 111.251 5.7965C111.183 5.7965 111.123 5.78747 111.071 5.76942C111.02 5.75136 110.975 5.72703 110.938 5.69642C110.901 5.66581 110.871 5.63246 110.846 5.59635H110.832C110.835 5.62696 110.837 5.66385 110.841 5.70702C110.845 5.75019 110.846 5.78786 110.846 5.82004V6.34984H110.65V4.4826H110.811L110.837 4.67333H110.846C110.872 4.63408 110.902 4.59837 110.938 4.56619C110.974 4.53323 111.018 4.50732 111.07 4.48849C111.123 4.46887 111.185 4.45905 111.256 4.45905ZM111.222 4.62388C111.133 4.62388 111.06 4.64115 111.005 4.67568C110.951 4.71022 110.912 4.76202 110.887 4.83109C110.861 4.89937 110.848 4.98532 110.846 5.08892V5.1266C110.846 5.2357 110.858 5.32792 110.882 5.40327C110.906 5.47862 110.946 5.53591 111.001 5.57516C111.056 5.6144 111.131 5.63402 111.224 5.63402C111.304 5.63402 111.371 5.61244 111.425 5.56927C111.478 5.5261 111.518 5.46606 111.543 5.38914C111.57 5.31144 111.583 5.22235 111.583 5.12189C111.583 4.96962 111.554 4.84875 111.494 4.75927C111.435 4.66901 111.344 4.62388 111.222 4.62388ZM113.239 5.12542C113.239 5.23138 113.225 5.32596 113.198 5.40916C113.17 5.49235 113.13 5.5626 113.079 5.6199C113.027 5.67719 112.964 5.72115 112.89 5.75176C112.817 5.78158 112.735 5.7965 112.642 5.7965C112.556 5.7965 112.476 5.78158 112.404 5.75176C112.333 5.72115 112.271 5.67719 112.218 5.6199C112.166 5.5626 112.126 5.49235 112.097 5.40916C112.069 5.32596 112.054 5.23138 112.054 5.12542C112.054 4.98414 112.078 4.86405 112.126 4.76516C112.174 4.66548 112.242 4.58974 112.331 4.53793C112.421 4.48535 112.527 4.45905 112.65 4.45905C112.768 4.45905 112.871 4.48535 112.959 4.53793C113.047 4.59052 113.116 4.66666 113.165 4.76634C113.214 4.86523 113.239 4.98493 113.239 5.12542ZM112.257 5.12542C112.257 5.22902 112.271 5.31889 112.298 5.39503C112.326 5.47116 112.368 5.53003 112.425 5.57163C112.483 5.61323 112.556 5.63402 112.647 5.63402C112.736 5.63402 112.809 5.61323 112.867 5.57163C112.925 5.53003 112.968 5.47116 112.995 5.39503C113.023 5.31889 113.036 5.22902 113.036 5.12542C113.036 5.0226 113.023 4.93391 112.995 4.85934C112.968 4.784 112.925 4.72591 112.868 4.6851C112.811 4.64429 112.736 4.62388 112.645 4.62388C112.511 4.62388 112.413 4.66823 112.35 4.75692C112.288 4.84561 112.257 4.96844 112.257 5.12542ZM114.163 4.45905C114.189 4.45905 114.216 4.46062 114.244 4.46376C114.272 4.46612 114.298 4.46965 114.32 4.47436L114.295 4.65567C114.274 4.65017 114.25 4.64586 114.224 4.64272C114.198 4.63958 114.174 4.63801 114.151 4.63801C114.099 4.63801 114.05 4.6486 114.004 4.6698C113.959 4.6902 113.919 4.72003 113.884 4.75927C113.849 4.79773 113.822 4.84443 113.803 4.89937C113.783 4.95353 113.773 5.01397 113.773 5.08068V5.77295H113.577V4.4826H113.739L113.76 4.72042H113.769C113.795 4.67254 113.827 4.62898 113.865 4.58974C113.903 4.54971 113.946 4.51792 113.996 4.49437C114.046 4.47083 114.102 4.45905 114.163 4.45905ZM114.98 5.63638C115.012 5.63638 115.045 5.63363 115.079 5.62814C115.113 5.62264 115.14 5.61597 115.161 5.60812V5.76C115.139 5.7702 115.107 5.77884 115.066 5.7859C115.026 5.79296 114.987 5.7965 114.948 5.7965C114.88 5.7965 114.818 5.78472 114.762 5.76118C114.707 5.73684 114.662 5.69603 114.628 5.63873C114.595 5.58144 114.579 5.50216 114.579 5.40091V4.63565H114.395V4.54029L114.58 4.46376L114.657 4.18356H114.775V4.4826L115.153 4.4826V4.63565L114.775 4.63565V5.39503C114.775 5.47587 114.794 5.53631 114.831 5.57634C114.868 5.61636 114.918 5.63638 114.98 5.63638ZM115.92 4.45905C116.029 4.45905 116.124 4.48339 116.202 4.53205C116.281 4.58071 116.341 4.649 116.382 4.7369C116.424 4.82402 116.445 4.92606 116.445 5.04301V5.16427H115.553C115.556 5.31575 115.593 5.43113 115.666 5.51041C115.739 5.58968 115.842 5.62932 115.975 5.62932C116.057 5.62932 116.129 5.62186 116.192 5.60695C116.254 5.59203 116.319 5.57006 116.387 5.54102V5.71291C116.322 5.74195 116.257 5.76314 116.193 5.77648C116.129 5.78982 116.054 5.7965 115.967 5.7965C115.843 5.7965 115.734 5.77138 115.642 5.72115C115.55 5.67013 115.478 5.59557 115.427 5.49746C115.376 5.39934 115.351 5.27926 115.351 5.13719C115.351 4.99827 115.374 4.87818 115.42 4.77693C115.467 4.6749 115.533 4.59641 115.618 4.54147C115.704 4.48652 115.804 4.45905 115.92 4.45905ZM115.917 4.61917C115.813 4.61917 115.73 4.65331 115.668 4.7216C115.606 4.78988 115.569 4.88525 115.557 5.00769H116.24C116.239 4.93077 116.227 4.86327 116.203 4.80519C116.181 4.74632 116.146 4.7008 116.099 4.66862C116.051 4.63565 115.991 4.61917 115.917 4.61917ZM117.363 4.45905C117.389 4.45905 117.416 4.46062 117.444 4.46376C117.472 4.46612 117.498 4.46965 117.52 4.47436L117.495 4.65567C117.474 4.65017 117.45 4.64586 117.424 4.64272C117.398 4.63958 117.374 4.63801 117.351 4.63801C117.299 4.63801 117.25 4.6486 117.204 4.6698C117.159 4.6902 117.118 4.72003 117.084 4.75927C117.049 4.79773 117.022 4.84443 117.003 4.89937C116.983 4.95353 116.973 5.01397 116.973 5.08068V5.77295H116.777V4.4826H116.939L116.96 4.72042H116.969C116.995 4.67254 117.027 4.62898 117.065 4.58974C117.103 4.54971 117.146 4.51792 117.196 4.49437C117.246 4.47083 117.302 4.45905 117.363 4.45905ZM118.598 5.41975C118.598 5.50216 118.577 5.57163 118.536 5.62814C118.495 5.68386 118.436 5.72586 118.359 5.75411C118.283 5.78237 118.192 5.7965 118.086 5.7965C117.996 5.7965 117.917 5.78943 117.852 5.7753C117.786 5.76118 117.728 5.74116 117.678 5.71526V5.53513C117.731 5.56103 117.794 5.58458 117.867 5.60577C117.94 5.62696 118.014 5.63756 118.091 5.63756C118.202 5.63756 118.283 5.6195 118.333 5.5834C118.383 5.5473 118.408 5.49824 118.408 5.43623C118.408 5.40091 118.398 5.36991 118.378 5.34323C118.358 5.31575 118.325 5.28946 118.278 5.26434C118.231 5.23844 118.166 5.21019 118.082 5.17958C118 5.14818 117.928 5.11718 117.868 5.08657C117.808 5.05517 117.762 5.01711 117.729 4.97237C117.697 4.92763 117.681 4.86955 117.681 4.79812C117.681 4.68902 117.725 4.60543 117.813 4.54735C117.901 4.48849 118.018 4.45905 118.161 4.45905C118.239 4.45905 118.311 4.4669 118.379 4.4826C118.447 4.49751 118.511 4.51792 118.57 4.54382L118.504 4.70041C118.45 4.67764 118.394 4.65841 118.333 4.64272C118.273 4.62702 118.211 4.61917 118.148 4.61917C118.058 4.61917 117.989 4.63408 117.94 4.66391C117.892 4.69373 117.868 4.73455 117.868 4.78635C117.868 4.82638 117.879 4.85934 117.901 4.88525C117.924 4.91115 117.96 4.93548 118.009 4.95824C118.059 4.981 118.124 5.00769 118.205 5.0383C118.286 5.06812 118.355 5.09913 118.414 5.13131C118.473 5.1627 118.518 5.20116 118.55 5.24668C118.582 5.29142 118.598 5.34911 118.598 5.41975Z" fill="#383B41"/>
<rect width="209.57" height="50.6344" transform="translate(3.21484 9.98779)" fill="white"/>
<rect x="17.6816" y="47.562" width="193.496" height="0.40186" fill="#757575"/>
<rect x="17.6816" y="40.7302" width="193.496" height="0.40186" fill="#F2F2F2"/>
<rect x="17.6816" y="33.8989" width="193.496" height="0.40186" fill="#F2F2F2"/>
<rect x="17.6816" y="27.0669" width="193.496" height="0.40186" fill="#F2F2F2"/>
<rect x="17.6816" y="20.2349" width="193.496" height="0.40186" fill="#F2F2F2"/>
<rect x="17.6816" y="13.4036" width="193.496" height="0.40186" fill="#F2F2F2"/>
<path d="M13.1872 21.0276H12.9294V21.4268H12.7387V21.0276H11.9063V20.8628L12.7257 19.6961H12.9294V20.851H13.1872V21.0276ZM12.7387 20.851V20.2883C12.7387 20.2451 12.7391 20.2063 12.7398 20.1717C12.7406 20.1364 12.7418 20.1038 12.7434 20.074C12.7449 20.0434 12.7461 20.0144 12.7469 19.9869C12.7485 19.9594 12.7497 19.9323 12.7504 19.9057H12.741C12.7261 19.937 12.7088 19.9704 12.6892 20.0057C12.6704 20.0403 12.6511 20.0713 12.6315 20.0987L12.1006 20.851H12.7387ZM14.4905 20.5638C14.4905 20.7035 14.4799 20.8283 14.4587 20.9382C14.4375 21.0481 14.4042 21.1411 14.3587 21.2172C14.3131 21.2933 14.2543 21.3514 14.1821 21.3914C14.1099 21.4307 14.0231 21.4503 13.9219 21.4503C13.7939 21.4503 13.688 21.4154 13.604 21.3455C13.5208 21.2757 13.4584 21.1748 13.4168 21.0429C13.376 20.9103 13.3556 20.7506 13.3556 20.5638C13.3556 20.3801 13.374 20.2224 13.4109 20.0905C13.4486 19.9578 13.509 19.8562 13.5922 19.7856C13.6754 19.7141 13.7853 19.6784 13.9219 19.6784C14.0514 19.6784 14.1581 19.7137 14.2421 19.7844C14.3261 19.8542 14.3885 19.9555 14.4293 20.0881C14.4701 20.22 14.4905 20.3785 14.4905 20.5638ZM13.5522 20.5638C13.5522 20.7239 13.5644 20.8573 13.5887 20.9641C13.613 21.0708 13.6523 21.1509 13.7064 21.2042C13.7614 21.2568 13.8332 21.2831 13.9219 21.2831C14.0106 21.2831 14.082 21.2568 14.1361 21.2042C14.1911 21.1517 14.2307 21.072 14.2551 20.9652C14.2802 20.8585 14.2927 20.7247 14.2927 20.5638C14.2927 20.406 14.2806 20.2742 14.2562 20.1682C14.2319 20.0615 14.1927 19.9814 14.1385 19.928C14.0843 19.8739 14.0121 19.8468 13.9219 19.8468C13.8316 19.8468 13.7594 19.8739 13.7052 19.928C13.6511 19.9814 13.6118 20.0615 13.5875 20.1682C13.564 20.2742 13.5522 20.406 13.5522 20.5638ZM15.8703 20.5638C15.8703 20.7035 15.8598 20.8283 15.8386 20.9382C15.8174 21.0481 15.784 21.1411 15.7385 21.2172C15.693 21.2933 15.6341 21.3514 15.5619 21.3914C15.4897 21.4307 15.403 21.4503 15.3017 21.4503C15.1738 21.4503 15.0678 21.4154 14.9838 21.3455C14.9006 21.2757 14.8382 21.1748 14.7966 21.0429C14.7558 20.9103 14.7354 20.7506 14.7354 20.5638C14.7354 20.3801 14.7539 20.2224 14.7907 20.0905C14.8284 19.9578 14.8889 19.8562 14.9721 19.7856C15.0552 19.7141 15.1651 19.6784 15.3017 19.6784C15.4312 19.6784 15.538 19.7137 15.6219 19.7844C15.7059 19.8542 15.7683 19.9555 15.8091 20.0881C15.8499 20.22 15.8703 20.3785 15.8703 20.5638ZM14.932 20.5638C14.932 20.7239 14.9442 20.8573 14.9685 20.9641C14.9928 21.0708 15.0321 21.1509 15.0863 21.2042C15.1412 21.2568 15.213 21.2831 15.3017 21.2831C15.3904 21.2831 15.4618 21.2568 15.516 21.2042C15.5709 21.1517 15.6106 21.072 15.6349 20.9652C15.66 20.8585 15.6726 20.7247 15.6726 20.5638C15.6726 20.406 15.6604 20.2742 15.6361 20.1682C15.6117 20.0615 15.5725 19.9814 15.5183 19.928C15.4642 19.8739 15.392 19.8468 15.3017 19.8468C15.2114 19.8468 15.1392 19.8739 15.0851 19.928C15.0309 19.9814 14.9917 20.0615 14.9673 20.1682C14.9438 20.2742 14.932 20.406 14.932 20.5638Z" fill="#383B41" fill-opacity="0.72"/>
<path d="M12.5173 13.5427C12.6343 13.5427 12.7359 13.5627 12.8223 13.6027C12.9086 13.642 12.9753 13.6993 13.0224 13.7746C13.0703 13.85 13.0942 13.9414 13.0942 14.0489C13.0942 14.1667 13.0687 14.2683 13.0177 14.3539C12.9667 14.4386 12.8933 14.5042 12.7975 14.5505C12.7018 14.596 12.5872 14.6188 12.4538 14.6188C12.3643 14.6188 12.2811 14.6109 12.2042 14.5952C12.1272 14.5795 12.0625 14.556 12.0099 14.5246V14.3386C12.0672 14.3731 12.1367 14.4006 12.2183 14.421C12.2999 14.4414 12.3792 14.4516 12.4561 14.4516C12.5432 14.4516 12.6194 14.4378 12.6845 14.4104C12.7504 14.3821 12.8015 14.3397 12.8376 14.2832C12.8744 14.2259 12.8929 14.1541 12.8929 14.0678C12.8929 13.9532 12.8576 13.8649 12.7869 13.8029C12.7171 13.7401 12.6064 13.7087 12.4549 13.7087C12.4063 13.7087 12.3529 13.7126 12.2948 13.7205C12.2367 13.7283 12.1889 13.7369 12.1512 13.7464L12.0523 13.6816L12.1182 12.874H12.9741V13.0529H12.2854L12.2418 13.5721C12.2717 13.5658 12.3101 13.5596 12.3572 13.5533C12.4043 13.5462 12.4577 13.5427 12.5173 13.5427ZM14.4905 13.7322C14.4905 13.8719 14.4799 13.9967 14.4587 14.1066C14.4375 14.2165 14.4042 14.3095 14.3587 14.3857C14.3131 14.4618 14.2543 14.5199 14.1821 14.5599C14.1099 14.5991 14.0231 14.6188 13.9219 14.6188C13.7939 14.6188 13.688 14.5838 13.604 14.514C13.5208 14.4441 13.4584 14.3433 13.4168 14.2114C13.376 14.0788 13.3556 13.919 13.3556 13.7322C13.3556 13.5486 13.374 13.3908 13.4109 13.259C13.4486 13.1263 13.509 13.0247 13.5922 12.954C13.6754 12.8826 13.7853 12.8469 13.9219 12.8469C14.0514 12.8469 14.1581 12.8822 14.2421 12.9528C14.3261 13.0227 14.3885 13.124 14.4293 13.2566C14.4701 13.3885 14.4905 13.547 14.4905 13.7322ZM13.5522 13.7322C13.5522 13.8924 13.5644 14.0258 13.5887 14.1325C13.613 14.2393 13.6523 14.3193 13.7064 14.3727C13.7614 14.4253 13.8332 14.4516 13.9219 14.4516C14.0106 14.4516 14.082 14.4253 14.1361 14.3727C14.1911 14.3201 14.2307 14.2404 14.2551 14.1337C14.2802 14.027 14.2927 13.8931 14.2927 13.7322C14.2927 13.5745 14.2806 13.4426 14.2562 13.3367C14.2319 13.2299 14.1927 13.1499 14.1385 13.0965C14.0843 13.0423 14.0121 13.0152 13.9219 13.0152C13.8316 13.0152 13.7594 13.0423 13.7052 13.0965C13.6511 13.1499 13.6118 13.2299 13.5875 13.3367C13.564 13.4426 13.5522 13.5745 13.5522 13.7322ZM15.8703 13.7322C15.8703 13.8719 15.8598 13.9967 15.8386 14.1066C15.8174 14.2165 15.784 14.3095 15.7385 14.3857C15.693 14.4618 15.6341 14.5199 15.5619 14.5599C15.4897 14.5991 15.403 14.6188 15.3017 14.6188C15.1738 14.6188 15.0678 14.5838 14.9838 14.514C14.9006 14.4441 14.8382 14.3433 14.7966 14.2114C14.7558 14.0788 14.7354 13.919 14.7354 13.7322C14.7354 13.5486 14.7539 13.3908 14.7907 13.259C14.8284 13.1263 14.8889 13.0247 14.9721 12.954C15.0552 12.8826 15.1651 12.8469 15.3017 12.8469C15.4312 12.8469 15.538 12.8822 15.6219 12.9528C15.7059 13.0227 15.7683 13.124 15.8091 13.2566C15.8499 13.3885 15.8703 13.547 15.8703 13.7322ZM14.932 13.7322C14.932 13.8924 14.9442 14.0258 14.9685 14.1325C14.9928 14.2393 15.0321 14.3193 15.0863 14.3727C15.1412 14.4253 15.213 14.4516 15.3017 14.4516C15.3904 14.4516 15.4618 14.4253 15.516 14.3727C15.5709 14.3201 15.6106 14.2404 15.6349 14.1337C15.66 14.027 15.6726 13.8931 15.6726 13.7322C15.6726 13.5745 15.6604 13.4426 15.6361 13.3367C15.6117 13.2299 15.5725 13.1499 15.5183 13.0965C15.4642 13.0423 15.392 13.0152 15.3017 13.0152C15.2114 13.0152 15.1392 13.0423 15.0851 13.0965C15.0309 13.1499 14.9917 13.2299 14.9673 13.3367C14.9438 13.4426 14.932 13.5745 14.932 13.7322Z" fill="#383B41" fill-opacity="0.72"/>
<path d="M13.0377 26.9388C13.0377 27.0157 13.0228 27.0824 12.993 27.1389C12.9631 27.1954 12.9215 27.2417 12.8682 27.2778C12.8148 27.3132 12.752 27.3379 12.6798 27.352V27.3614C12.8164 27.3787 12.9188 27.4226 12.9871 27.4933C13.0561 27.5639 13.0907 27.6565 13.0907 27.7711C13.0907 27.8708 13.0671 27.9591 13.02 28.036C12.9737 28.1129 12.9023 28.1734 12.8058 28.2173C12.71 28.2605 12.5872 28.2821 12.4373 28.2821C12.3462 28.2821 12.2618 28.2746 12.1841 28.2597C12.1072 28.2456 12.0334 28.2217 11.9628 28.1879V28.0042C12.0342 28.0396 12.1119 28.0674 12.1959 28.0878C12.2799 28.1075 12.3611 28.1173 12.4396 28.1173C12.5966 28.1173 12.71 28.0863 12.7799 28.0243C12.8497 27.9615 12.8847 27.8759 12.8847 27.7676C12.8847 27.693 12.865 27.633 12.8258 27.5875C12.7873 27.5412 12.7316 27.5074 12.6586 27.4862C12.5864 27.4642 12.4993 27.4533 12.3972 27.4533H12.2253V27.2861H12.3984C12.4918 27.2861 12.5711 27.2723 12.6362 27.2449C12.7014 27.2174 12.7508 27.1789 12.7846 27.1295C12.8191 27.0793 12.8364 27.02 12.8364 26.9517C12.8364 26.8646 12.8073 26.7975 12.7493 26.7504C12.6912 26.7025 12.6123 26.6786 12.5126 26.6786C12.4514 26.6786 12.3957 26.6849 12.3454 26.6974C12.2952 26.71 12.2481 26.7272 12.2042 26.7492C12.1602 26.7712 12.1163 26.7967 12.0723 26.8257L11.9734 26.6915C12.0362 26.6429 12.1127 26.6009 12.203 26.5656C12.2932 26.5302 12.3957 26.5126 12.5103 26.5126C12.6861 26.5126 12.8179 26.5526 12.9058 26.6327C12.9938 26.7127 13.0377 26.8148 13.0377 26.9388ZM14.4905 27.3956C14.4905 27.5353 14.4799 27.6601 14.4587 27.77C14.4375 27.8798 14.4042 27.9728 14.3587 28.049C14.3131 28.1251 14.2543 28.1832 14.1821 28.2232C14.1099 28.2625 14.0231 28.2821 13.9219 28.2821C13.7939 28.2821 13.688 28.2472 13.604 28.1773C13.5208 28.1075 13.4584 28.0066 13.4168 27.8747C13.376 27.7421 13.3556 27.5824 13.3556 27.3956C13.3556 27.2119 13.374 27.0541 13.4109 26.9223C13.4486 26.7896 13.509 26.688 13.5922 26.6174C13.6754 26.5459 13.7853 26.5102 13.9219 26.5102C14.0514 26.5102 14.1581 26.5455 14.2421 26.6162C14.3261 26.686 14.3885 26.7873 14.4293 26.9199C14.4701 27.0518 14.4905 27.2103 14.4905 27.3956ZM13.5522 27.3956C13.5522 27.5557 13.5644 27.6891 13.5887 27.7959C13.613 27.9026 13.6523 27.9827 13.7064 28.036C13.7614 28.0886 13.8332 28.1149 13.9219 28.1149C14.0106 28.1149 14.082 28.0886 14.1361 28.036C14.1911 27.9834 14.2307 27.9038 14.2551 27.797C14.2802 27.6903 14.2927 27.5565 14.2927 27.3956C14.2927 27.2378 14.2806 27.1059 14.2562 27C14.2319 26.8932 14.1927 26.8132 14.1385 26.7598C14.0843 26.7057 14.0121 26.6786 13.9219 26.6786C13.8316 26.6786 13.7594 26.7057 13.7052 26.7598C13.6511 26.8132 13.6118 26.8932 13.5875 27C13.564 27.1059 13.5522 27.2378 13.5522 27.3956ZM15.8703 27.3956C15.8703 27.5353 15.8598 27.6601 15.8386 27.77C15.8174 27.8798 15.784 27.9728 15.7385 28.049C15.693 28.1251 15.6341 28.1832 15.5619 28.2232C15.4897 28.2625 15.403 28.2821 15.3017 28.2821C15.1738 28.2821 15.0678 28.2472 14.9838 28.1773C14.9006 28.1075 14.8382 28.0066 14.7966 27.8747C14.7558 27.7421 14.7354 27.5824 14.7354 27.3956C14.7354 27.2119 14.7539 27.0541 14.7907 26.9223C14.8284 26.7896 14.8889 26.688 14.9721 26.6174C15.0552 26.5459 15.1651 26.5102 15.3017 26.5102C15.4312 26.5102 15.538 26.5455 15.6219 26.6162C15.7059 26.686 15.7683 26.7873 15.8091 26.9199C15.8499 27.0518 15.8703 27.2103 15.8703 27.3956ZM14.932 27.3956C14.932 27.5557 14.9442 27.6891 14.9685 27.7959C14.9928 27.9026 15.0321 27.9827 15.0863 28.036C15.1412 28.0886 15.213 28.1149 15.3017 28.1149C15.3904 28.1149 15.4618 28.0886 15.516 28.036C15.5709 27.9834 15.6106 27.9038 15.6349 27.797C15.66 27.6903 15.6726 27.5565 15.6726 27.3956C15.6726 27.2378 15.6604 27.1059 15.6361 27C15.6117 26.8932 15.5725 26.8132 15.5183 26.7598C15.4642 26.7057 15.392 26.6786 15.3017 26.6786C15.2114 26.6786 15.1392 26.7057 15.0851 26.7598C15.0309 26.8132 14.9917 26.8932 14.9673 27C14.9438 27.1059 14.932 27.2378 14.932 27.3956Z" fill="#383B41" fill-opacity="0.72"/>
<path d="M13.1013 35.0901H11.9734V34.9264L12.4337 34.459C12.5193 34.3727 12.5911 34.2958 12.6492 34.2283C12.7081 34.1608 12.7528 34.0945 12.7834 34.0293C12.814 33.9634 12.8293 33.8912 12.8293 33.8127C12.8293 33.7154 12.8003 33.6412 12.7422 33.5902C12.6849 33.5384 12.6092 33.5125 12.515 33.5125C12.4326 33.5125 12.3596 33.5266 12.296 33.5549C12.2324 33.5831 12.1673 33.6231 12.1006 33.6749L11.9958 33.5431C12.0413 33.5046 12.0907 33.4705 12.1441 33.4407C12.1983 33.4108 12.256 33.3873 12.3172 33.37C12.3792 33.3527 12.4451 33.3441 12.515 33.3441C12.6209 33.3441 12.7124 33.3626 12.7893 33.3994C12.8662 33.4363 12.9255 33.4889 12.9671 33.5572C13.0094 33.6255 13.0306 33.7067 13.0306 33.8009C13.0306 33.892 13.0126 33.9767 12.9765 34.0552C12.9404 34.1329 12.8898 34.2102 12.8246 34.2872C12.7595 34.3633 12.6833 34.4441 12.5962 34.5297L12.2218 34.9029V34.9111H13.1013V35.0901ZM14.4905 34.2271C14.4905 34.3668 14.4799 34.4916 14.4587 34.6015C14.4375 34.7114 14.4042 34.8044 14.3587 34.8805C14.3131 34.9567 14.2543 35.0147 14.1821 35.0548C14.1099 35.094 14.0231 35.1136 13.9219 35.1136C13.7939 35.1136 13.688 35.0787 13.604 35.0089C13.5208 34.939 13.4584 34.8381 13.4168 34.7063C13.376 34.5736 13.3556 34.4139 13.3556 34.2271C13.3556 34.0434 13.374 33.8857 13.4109 33.7538C13.4486 33.6212 13.509 33.5195 13.5922 33.4489C13.6754 33.3775 13.7853 33.3418 13.9219 33.3418C14.0514 33.3418 14.1581 33.3771 14.2421 33.4477C14.3261 33.5176 14.3885 33.6188 14.4293 33.7515C14.4701 33.8833 14.4905 34.0419 14.4905 34.2271ZM13.5522 34.2271C13.5522 34.3872 13.5644 34.5207 13.5887 34.6274C13.613 34.7341 13.6523 34.8142 13.7064 34.8676C13.7614 34.9202 13.8332 34.9465 13.9219 34.9465C14.0106 34.9465 14.082 34.9202 14.1361 34.8676C14.1911 34.815 14.2307 34.7353 14.2551 34.6286C14.2802 34.5218 14.2927 34.388 14.2927 34.2271C14.2927 34.0693 14.2806 33.9375 14.2562 33.8315C14.2319 33.7248 14.1927 33.6447 14.1385 33.5914C14.0843 33.5372 14.0121 33.5101 13.9219 33.5101C13.8316 33.5101 13.7594 33.5372 13.7052 33.5914C13.6511 33.6447 13.6118 33.7248 13.5875 33.8315C13.564 33.9375 13.5522 34.0693 13.5522 34.2271ZM15.8703 34.2271C15.8703 34.3668 15.8598 34.4916 15.8386 34.6015C15.8174 34.7114 15.784 34.8044 15.7385 34.8805C15.693 34.9567 15.6341 35.0147 15.5619 35.0548C15.4897 35.094 15.403 35.1136 15.3017 35.1136C15.1738 35.1136 15.0678 35.0787 14.9838 35.0089C14.9006 34.939 14.8382 34.8381 14.7966 34.7063C14.7558 34.5736 14.7354 34.4139 14.7354 34.2271C14.7354 34.0434 14.7539 33.8857 14.7907 33.7538C14.8284 33.6212 14.8889 33.5195 14.9721 33.4489C15.0552 33.3775 15.1651 33.3418 15.3017 33.3418C15.4312 33.3418 15.538 33.3771 15.6219 33.4477C15.7059 33.5176 15.7683 33.6188 15.8091 33.7515C15.8499 33.8833 15.8703 34.0419 15.8703 34.2271ZM14.932 34.2271C14.932 34.3872 14.9442 34.5207 14.9685 34.6274C14.9928 34.7341 15.0321 34.8142 15.0863 34.8676C15.1412 34.9202 15.213 34.9465 15.3017 34.9465C15.3904 34.9465 15.4618 34.9202 15.516 34.8676C15.5709 34.815 15.6106 34.7353 15.6349 34.6286C15.66 34.5218 15.6726 34.388 15.6726 34.2271C15.6726 34.0693 15.6604 33.9375 15.6361 33.8315C15.6117 33.7248 15.5725 33.6447 15.5183 33.5914C15.4642 33.5372 15.392 33.5101 15.3017 33.5101C15.2114 33.5101 15.1392 33.5372 15.0851 33.5914C15.0309 33.6447 14.9917 33.7248 14.9673 33.8315C14.9438 33.9375 14.932 34.0693 14.932 34.2271Z" fill="#383B41" fill-opacity="0.72"/>
<path d="M12.701 41.9216H12.5103V40.7019C12.5103 40.6556 12.5103 40.616 12.5103 40.583C12.511 40.5493 12.5118 40.5187 12.5126 40.4912C12.5142 40.4629 12.5161 40.4343 12.5185 40.4052C12.4942 40.4304 12.4714 40.4519 12.4502 40.47C12.429 40.4873 12.4027 40.5088 12.3713 40.5347L12.1747 40.6925L12.0723 40.5595L12.5385 40.2004H12.701V41.9216ZM14.4905 41.0587C14.4905 41.1984 14.4799 41.3232 14.4587 41.433C14.4375 41.5429 14.4042 41.6359 14.3587 41.7121C14.3131 41.7882 14.2543 41.8463 14.1821 41.8863C14.1099 41.9256 14.0231 41.9452 13.9219 41.9452C13.7939 41.9452 13.688 41.9103 13.604 41.8404C13.5208 41.7705 13.4584 41.6697 13.4168 41.5378C13.376 41.4052 13.3556 41.2455 13.3556 41.0587C13.3556 40.875 13.374 40.7172 13.4109 40.5854C13.4486 40.4527 13.509 40.3511 13.5922 40.2804C13.6754 40.209 13.7853 40.1733 13.9219 40.1733C14.0514 40.1733 14.1581 40.2086 14.2421 40.2793C14.3261 40.3491 14.3885 40.4504 14.4293 40.583C14.4701 40.7149 14.4905 40.8734 14.4905 41.0587ZM13.5522 41.0587C13.5522 41.2188 13.5644 41.3522 13.5887 41.4589C13.613 41.5657 13.6523 41.6457 13.7064 41.6991C13.7614 41.7517 13.8332 41.778 13.9219 41.778C14.0106 41.778 14.082 41.7517 14.1361 41.6991C14.1911 41.6465 14.2307 41.5669 14.2551 41.4601C14.2802 41.3534 14.2927 41.2196 14.2927 41.0587C14.2927 40.9009 14.2806 40.769 14.2562 40.6631C14.2319 40.5563 14.1927 40.4763 14.1385 40.4229C14.0843 40.3687 14.0121 40.3417 13.9219 40.3417C13.8316 40.3417 13.7594 40.3687 13.7052 40.4229C13.6511 40.4763 13.6118 40.5563 13.5875 40.6631C13.564 40.769 13.5522 40.9009 13.5522 41.0587ZM15.8703 41.0587C15.8703 41.1984 15.8598 41.3232 15.8386 41.433C15.8174 41.5429 15.784 41.6359 15.7385 41.7121C15.693 41.7882 15.6341 41.8463 15.5619 41.8863C15.4897 41.9256 15.403 41.9452 15.3017 41.9452C15.1738 41.9452 15.0678 41.9103 14.9838 41.8404C14.9006 41.7705 14.8382 41.6697 14.7966 41.5378C14.7558 41.4052 14.7354 41.2455 14.7354 41.0587C14.7354 40.875 14.7539 40.7172 14.7907 40.5854C14.8284 40.4527 14.8889 40.3511 14.9721 40.2804C15.0552 40.209 15.1651 40.1733 15.3017 40.1733C15.4312 40.1733 15.538 40.2086 15.6219 40.2793C15.7059 40.3491 15.7683 40.4504 15.8091 40.583C15.8499 40.7149 15.8703 40.8734 15.8703 41.0587ZM14.932 41.0587C14.932 41.2188 14.9442 41.3522 14.9685 41.4589C14.9928 41.5657 15.0321 41.6457 15.0863 41.6991C15.1412 41.7517 15.213 41.778 15.3017 41.778C15.3904 41.778 15.4618 41.7517 15.516 41.6991C15.5709 41.6465 15.6106 41.5669 15.6349 41.4601C15.66 41.3534 15.6726 41.2196 15.6726 41.0587C15.6726 40.9009 15.6604 40.769 15.6361 40.6631C15.6117 40.5563 15.5725 40.4763 15.5183 40.4229C15.4642 40.3687 15.392 40.3417 15.3017 40.3417C15.2114 40.3417 15.1392 40.3687 15.0851 40.4229C15.0309 40.4763 14.9917 40.5563 14.9673 40.6631C14.9438 40.769 14.932 40.9009 14.932 41.0587Z" fill="#383B41" fill-opacity="0.72"/>
<path d="M28.3361 51.571L27.9644 50.4929H27.9565C27.9582 50.517 27.9603 50.55 27.9626 50.5918C27.965 50.6336 27.9671 50.6783 27.9688 50.726C27.9706 50.7737 27.9715 50.8193 27.9715 50.8629V51.571H27.779V50.2801H28.0765L28.4342 51.3106H28.4395L28.8094 50.2801H29.1061V51.571H28.9039V50.8523C28.9039 50.8128 28.9045 50.7702 28.9057 50.7243C28.9074 50.6783 28.9092 50.6348 28.911 50.5936C28.9133 50.5524 28.9151 50.5194 28.9163 50.4947H28.9092L28.5233 51.571H28.3361ZM30.2902 51.0801C30.2902 51.1613 30.2796 51.2334 30.2584 51.2964C30.2372 51.3594 30.2063 51.4127 30.1657 51.4563C30.1251 51.4992 30.0762 51.5322 30.0191 51.5552C29.962 51.5775 29.8976 51.5887 29.8258 51.5887C29.7586 51.5887 29.6971 51.5775 29.6412 51.5552C29.5853 51.5322 29.5367 51.4992 29.4955 51.4563C29.4549 51.4127 29.4234 51.3594 29.401 51.2964C29.3787 51.2334 29.3675 51.1613 29.3675 51.0801C29.3675 50.9724 29.386 50.8811 29.4231 50.8064C29.4608 50.731 29.5144 50.6736 29.5838 50.6342C29.6533 50.5947 29.736 50.575 29.8319 50.575C29.922 50.575 30.0015 50.5947 30.0703 50.6342C30.1392 50.6736 30.1931 50.731 30.2319 50.8064C30.2708 50.8817 30.2902 50.973 30.2902 51.0801ZM29.5812 51.0801C29.5812 51.1513 29.5897 51.2123 29.6068 51.2629C29.6244 51.3135 29.6515 51.3524 29.688 51.3794C29.7245 51.4059 29.7716 51.4192 29.8293 51.4192C29.887 51.4192 29.9341 51.4059 29.9706 51.3794C30.0071 51.3524 30.0338 51.3135 30.0509 51.2629C30.068 51.2123 30.0765 51.1513 30.0765 51.0801C30.0765 51.0089 30.068 50.9485 30.0509 50.8991C30.0338 50.8491 30.0071 50.8111 29.9706 50.7852C29.9341 50.7587 29.8867 50.7454 29.8284 50.7454C29.7425 50.7454 29.6798 50.7743 29.6403 50.832C29.6009 50.8897 29.5812 50.9724 29.5812 51.0801ZM31.0381 50.575C31.1482 50.575 31.2338 50.6036 31.2951 50.6607C31.3569 50.7172 31.3878 50.8081 31.3878 50.9335V51.571H31.1803V50.9724C31.1803 50.8964 31.1647 50.8396 31.1335 50.802C31.1023 50.7637 31.054 50.7446 30.9887 50.7446C30.8939 50.7446 30.828 50.7737 30.7909 50.832C30.7544 50.8903 30.7361 50.9747 30.7361 51.0854V51.571H30.5286V50.5936H30.6902L30.7193 50.726H30.7308C30.752 50.6919 30.7782 50.6639 30.8094 50.6421C30.8412 50.6198 30.8765 50.603 30.9154 50.5918C30.9548 50.5806 30.9957 50.575 31.0381 50.575ZM32.0421 51.4209C32.0692 51.4209 32.0959 51.4186 32.1224 51.4139C32.1489 51.4086 32.1731 51.4024 32.1948 51.3953V51.5525C32.1719 51.5625 32.1421 51.571 32.1056 51.5781C32.0692 51.5852 32.0312 51.5887 31.9917 51.5887C31.9364 51.5887 31.8867 51.5796 31.8425 51.5613C31.7984 51.5425 31.7633 51.5104 31.7374 51.4651C31.7115 51.4198 31.6986 51.3571 31.6986 51.277V50.7516H31.5653V50.6589L31.7083 50.5856L31.7763 50.3764H31.907V50.5936H32.1869V50.7516H31.907V51.2744C31.907 51.3238 31.9193 51.3606 31.9441 51.3847C31.9688 51.4089 32.0015 51.4209 32.0421 51.4209ZM32.601 50.1971V50.5424C32.601 50.5783 32.5998 50.6133 32.5975 50.6474C32.5957 50.6816 32.5936 50.7081 32.5913 50.7269H32.6028C32.6234 50.6928 32.6487 50.6648 32.6787 50.643C32.7087 50.6206 32.7423 50.6039 32.7794 50.5927C32.817 50.5815 32.8571 50.5759 32.8995 50.5759C32.9742 50.5759 33.0378 50.5886 33.0902 50.6139C33.1426 50.6386 33.1826 50.6772 33.2103 50.7296C33.2385 50.7819 33.2527 50.8499 33.2527 50.9335V51.571H33.0452V50.9724C33.0452 50.8964 33.0296 50.8396 32.9984 50.802C32.9672 50.7637 32.9189 50.7446 32.8535 50.7446C32.7906 50.7446 32.7405 50.7578 32.7034 50.7843C32.6669 50.8102 32.6407 50.8488 32.6248 50.9C32.609 50.9506 32.601 51.0124 32.601 51.0854V51.571H32.3935V50.1971H32.601ZM34.0862 50.2801L33.605 51.571H33.4107L33.8919 50.2801H34.0862ZM34.6363 50.8691L34.9427 50.2801H35.1714L34.7423 51.0695V51.571H34.5312V51.0775L34.1012 50.2801H34.3317L34.6363 50.8691ZM35.7091 50.575C35.7963 50.575 35.871 50.593 35.9334 50.6289C35.9958 50.6648 36.0438 50.7157 36.0774 50.7816C36.1109 50.8476 36.1277 50.9265 36.1277 51.0183V51.1295H35.4752C35.4775 51.2243 35.5028 51.2973 35.5511 51.3485C35.6 51.3997 35.6682 51.4254 35.7559 51.4254C35.8183 51.4254 35.8743 51.4195 35.9237 51.4077C35.9738 51.3953 36.0253 51.3774 36.0782 51.3538V51.5225C36.0294 51.5454 35.9796 51.5622 35.929 51.5728C35.8784 51.5834 35.8178 51.5887 35.7471 51.5887C35.6512 51.5887 35.5667 51.5702 35.4937 51.5331C35.4213 51.4954 35.3645 51.4395 35.3233 51.3653C35.2827 51.2911 35.2624 51.199 35.2624 51.0889C35.2624 50.9794 35.2809 50.8864 35.318 50.8099C35.3551 50.7334 35.4072 50.6751 35.4743 50.6351C35.5414 50.595 35.6197 50.575 35.7091 50.575ZM35.7091 50.7313C35.6438 50.7313 35.5908 50.7525 35.5502 50.7949C35.5102 50.8373 35.4866 50.8994 35.4796 50.9812H35.9246C35.924 50.9323 35.9158 50.8891 35.8999 50.8514C35.8846 50.8137 35.861 50.7843 35.8292 50.7631C35.798 50.7419 35.758 50.7313 35.7091 50.7313ZM36.7449 50.575C36.8685 50.575 36.9618 50.6024 37.0248 50.6571C37.0884 50.7119 37.1202 50.7972 37.1202 50.9132V51.571H36.9727L36.933 51.4324H36.9259C36.8982 51.4677 36.8697 51.4969 36.8403 51.5198C36.8108 51.5428 36.7767 51.5599 36.7378 51.571C36.6996 51.5828 36.6528 51.5887 36.5974 51.5887C36.5392 51.5887 36.4871 51.5781 36.4411 51.5569C36.3952 51.5351 36.359 51.5022 36.3325 51.458C36.3061 51.4139 36.2928 51.3579 36.2928 51.2903C36.2928 51.1896 36.3302 51.1139 36.4049 51.0633C36.4803 51.0127 36.5939 50.9847 36.7458 50.9794L36.9153 50.9733V50.922C36.9153 50.8543 36.8994 50.8061 36.8676 50.7772C36.8364 50.7484 36.7923 50.734 36.7352 50.734C36.6863 50.734 36.6389 50.741 36.593 50.7552C36.5471 50.7693 36.5024 50.7867 36.4588 50.8073L36.3917 50.6607C36.4394 50.6354 36.4935 50.6148 36.5542 50.5989C36.6154 50.583 36.679 50.575 36.7449 50.575ZM36.9144 51.1039L36.7882 51.1084C36.6846 51.1119 36.6119 51.1295 36.5701 51.1613C36.5283 51.1931 36.5074 51.2367 36.5074 51.292C36.5074 51.3403 36.5218 51.3756 36.5506 51.398C36.5795 51.4198 36.6175 51.4306 36.6645 51.4306C36.7364 51.4306 36.7958 51.4103 36.8429 51.3697C36.8906 51.3285 36.9144 51.2682 36.9144 51.1887V51.1039ZM37.906 50.575C37.9225 50.575 37.9405 50.5759 37.9599 50.5777C37.9793 50.5794 37.9961 50.5818 38.0102 50.5847L37.9908 50.779C37.9784 50.7755 37.9631 50.7728 37.9449 50.7711C37.9272 50.7693 37.9113 50.7684 37.8972 50.7684C37.8601 50.7684 37.8248 50.7746 37.7912 50.7869C37.7577 50.7987 37.728 50.817 37.7021 50.8417C37.6762 50.8658 37.6559 50.8961 37.6411 50.9326C37.6264 50.9691 37.6191 51.0115 37.6191 51.0598V51.571H37.4107V50.5936H37.5731L37.6014 50.7658H37.6111C37.6305 50.731 37.6547 50.6992 37.6835 50.6704C37.7124 50.6415 37.7453 50.6186 37.7824 50.6015C37.8201 50.5839 37.8613 50.575 37.906 50.575Z" fill="#383B41" fill-opacity="0.72"/>
<path d="M109.94 51.571L109.568 50.4929H109.56C109.562 50.517 109.564 50.55 109.566 50.5918C109.569 50.6336 109.571 50.6783 109.572 50.726C109.574 50.7737 109.575 50.8193 109.575 50.8629V51.571H109.382V50.2801H109.68L110.038 51.3106H110.043L110.413 50.2801H110.71V51.571H110.507V50.8523C110.507 50.8128 110.508 50.7702 110.509 50.7243C110.511 50.6783 110.513 50.6348 110.514 50.5936C110.517 50.5524 110.519 50.5194 110.52 50.4947H110.513L110.127 51.571H109.94ZM111.894 51.0801C111.894 51.1613 111.883 51.2334 111.862 51.2964C111.841 51.3594 111.81 51.4127 111.769 51.4563C111.729 51.4992 111.68 51.5322 111.623 51.5552C111.566 51.5775 111.501 51.5887 111.429 51.5887C111.362 51.5887 111.301 51.5775 111.245 51.5552C111.189 51.5322 111.14 51.4992 111.099 51.4563C111.058 51.4127 111.027 51.3594 111.005 51.2964C110.982 51.2334 110.971 51.1613 110.971 51.0801C110.971 50.9724 110.99 50.8811 111.027 50.8064C111.064 50.731 111.118 50.6736 111.187 50.6342C111.257 50.5947 111.34 50.575 111.435 50.575C111.526 50.575 111.605 50.5947 111.674 50.6342C111.743 50.6736 111.797 50.731 111.835 50.8064C111.874 50.8817 111.894 50.973 111.894 51.0801ZM111.185 51.0801C111.185 51.1513 111.193 51.2123 111.21 51.2629C111.228 51.3135 111.255 51.3524 111.292 51.3794C111.328 51.4059 111.375 51.4192 111.433 51.4192C111.49 51.4192 111.538 51.4059 111.574 51.3794C111.611 51.3524 111.637 51.3135 111.654 51.2629C111.672 51.2123 111.68 51.1513 111.68 51.0801C111.68 51.0089 111.672 50.9485 111.654 50.8991C111.637 50.8491 111.611 50.8111 111.574 50.7852C111.538 50.7587 111.49 50.7454 111.432 50.7454C111.346 50.7454 111.283 50.7743 111.244 50.832C111.204 50.8897 111.185 50.9724 111.185 51.0801ZM112.642 50.575C112.752 50.575 112.837 50.6036 112.899 50.6607C112.96 50.7172 112.991 50.8081 112.991 50.9335V51.571H112.784V50.9724C112.784 50.8964 112.768 50.8396 112.737 50.802C112.706 50.7637 112.658 50.7446 112.592 50.7446C112.497 50.7446 112.431 50.7737 112.394 50.832C112.358 50.8903 112.34 50.9747 112.34 51.0854V51.571H112.132V50.5936H112.294L112.323 50.726H112.334C112.356 50.6919 112.382 50.6639 112.413 50.6421C112.445 50.6198 112.48 50.603 112.519 50.5918C112.558 50.5806 112.599 50.575 112.642 50.575ZM113.646 51.4209C113.673 51.4209 113.699 51.4186 113.726 51.4139C113.752 51.4086 113.777 51.4024 113.798 51.3953V51.5525C113.775 51.5625 113.746 51.571 113.709 51.5781C113.673 51.5852 113.635 51.5887 113.595 51.5887C113.54 51.5887 113.49 51.5796 113.446 51.5613C113.402 51.5425 113.367 51.5104 113.341 51.4651C113.315 51.4198 113.302 51.3571 113.302 51.277V50.7516H113.169V50.6589L113.312 50.5856L113.38 50.3764H113.51V50.5936H113.79V50.7516H113.51V51.2744C113.51 51.3238 113.523 51.3606 113.548 51.3847C113.572 51.4089 113.605 51.4209 113.646 51.4209ZM114.205 50.1971V50.5424C114.205 50.5783 114.203 50.6133 114.201 50.6474C114.199 50.6816 114.197 50.7081 114.195 50.7269H114.206C114.227 50.6928 114.252 50.6648 114.282 50.643C114.312 50.6206 114.346 50.6039 114.383 50.5927C114.421 50.5815 114.461 50.5759 114.503 50.5759C114.578 50.5759 114.641 50.5886 114.694 50.6139C114.746 50.6386 114.786 50.6772 114.814 50.7296C114.842 50.7819 114.856 50.8499 114.856 50.9335V51.571H114.649V50.9724C114.649 50.8964 114.633 50.8396 114.602 50.802C114.571 50.7637 114.522 50.7446 114.457 50.7446C114.394 50.7446 114.344 50.7578 114.307 50.7843C114.27 50.8102 114.244 50.8488 114.228 50.9C114.212 50.9506 114.205 51.0124 114.205 51.0854V51.571H113.997V50.1971H114.205ZM115.69 50.2801L115.208 51.571H115.014L115.495 50.2801H115.69ZM116.24 50.8691L116.546 50.2801H116.775L116.346 51.0695V51.571H116.135V51.0775L115.705 50.2801H115.935L116.24 50.8691ZM117.313 50.575C117.4 50.575 117.475 50.593 117.537 50.6289C117.599 50.6648 117.647 50.7157 117.681 50.7816C117.714 50.8476 117.731 50.9265 117.731 51.0183V51.1295H117.079C117.081 51.2243 117.106 51.2973 117.155 51.3485C117.203 51.3997 117.272 51.4254 117.359 51.4254C117.422 51.4254 117.478 51.4195 117.527 51.4077C117.577 51.3953 117.629 51.3774 117.682 51.3538V51.5225C117.633 51.5454 117.583 51.5622 117.533 51.5728C117.482 51.5834 117.421 51.5887 117.351 51.5887C117.255 51.5887 117.17 51.5702 117.097 51.5331C117.025 51.4954 116.968 51.4395 116.927 51.3653C116.886 51.2911 116.866 51.199 116.866 51.0889C116.866 50.9794 116.884 50.8864 116.921 50.8099C116.959 50.7334 117.011 50.6751 117.078 50.6351C117.145 50.595 117.223 50.575 117.313 50.575ZM117.313 50.7313C117.247 50.7313 117.194 50.7525 117.154 50.7949C117.114 50.8373 117.09 50.8994 117.083 50.9812H117.528C117.528 50.9323 117.519 50.8891 117.503 50.8514C117.488 50.8137 117.465 50.7843 117.433 50.7631C117.402 50.7419 117.362 50.7313 117.313 50.7313ZM118.348 50.575C118.472 50.575 118.565 50.6024 118.628 50.6571C118.692 50.7119 118.724 50.7972 118.724 50.9132V51.571H118.576L118.536 51.4324H118.529C118.502 51.4677 118.473 51.4969 118.444 51.5198C118.414 51.5428 118.38 51.5599 118.341 51.571C118.303 51.5828 118.256 51.5887 118.201 51.5887C118.143 51.5887 118.091 51.5781 118.045 51.5569C117.999 51.5351 117.963 51.5022 117.936 51.458C117.91 51.4139 117.896 51.3579 117.896 51.2903C117.896 51.1896 117.934 51.1139 118.008 51.0633C118.084 51.0127 118.197 50.9847 118.349 50.9794L118.519 50.9733V50.922C118.519 50.8543 118.503 50.8061 118.471 50.7772C118.44 50.7484 118.396 50.734 118.339 50.734C118.29 50.734 118.242 50.741 118.197 50.7552C118.151 50.7693 118.106 50.7867 118.062 50.8073L117.995 50.6607C118.043 50.6354 118.097 50.6148 118.158 50.5989C118.219 50.583 118.282 50.575 118.348 50.575ZM118.518 51.1039L118.392 51.1084C118.288 51.1119 118.215 51.1295 118.174 51.1613C118.132 51.1931 118.111 51.2367 118.111 51.292C118.111 51.3403 118.125 51.3756 118.154 51.398C118.183 51.4198 118.221 51.4306 118.268 51.4306C118.34 51.4306 118.399 51.4103 118.446 51.3697C118.494 51.3285 118.518 51.2682 118.518 51.1887V51.1039ZM119.51 50.575C119.526 50.575 119.544 50.5759 119.563 50.5777C119.583 50.5794 119.6 50.5818 119.614 50.5847L119.594 50.779C119.582 50.7755 119.567 50.7728 119.548 50.7711C119.531 50.7693 119.515 50.7684 119.501 50.7684C119.464 50.7684 119.428 50.7746 119.395 50.7869C119.361 50.7987 119.331 50.817 119.306 50.8417C119.28 50.8658 119.259 50.8961 119.245 50.9326C119.23 50.9691 119.223 51.0115 119.223 51.0598V51.571H119.014V50.5936H119.177L119.205 50.7658H119.215C119.234 50.731 119.258 50.6992 119.287 50.6704C119.316 50.6415 119.349 50.6186 119.386 50.6015C119.424 50.5839 119.465 50.575 119.51 50.575Z" fill="#383B41" fill-opacity="0.72"/>
<path d="M191.543 51.571L191.171 50.4929H191.163C191.165 50.517 191.167 50.55 191.17 50.5918C191.172 50.6336 191.174 50.6783 191.176 50.726C191.178 50.7737 191.179 50.8193 191.179 50.8629V51.571H190.986V50.2801H191.284L191.641 51.3106H191.646L192.016 50.2801H192.313V51.571H192.111V50.8523C192.111 50.8128 192.112 50.7702 192.113 50.7243C192.114 50.6783 192.116 50.6348 192.118 50.5936C192.12 50.5524 192.122 50.5194 192.123 50.4947H192.116L191.73 51.571H191.543ZM193.497 51.0801C193.497 51.1613 193.487 51.2334 193.465 51.2964C193.444 51.3594 193.413 51.4127 193.373 51.4563C193.332 51.4992 193.283 51.5322 193.226 51.5552C193.169 51.5775 193.105 51.5887 193.033 51.5887C192.966 51.5887 192.904 51.5775 192.848 51.5552C192.792 51.5322 192.744 51.4992 192.703 51.4563C192.662 51.4127 192.63 51.3594 192.608 51.2964C192.586 51.2334 192.575 51.1613 192.575 51.0801C192.575 50.9724 192.593 50.8811 192.63 50.8064C192.668 50.731 192.721 50.6736 192.791 50.6342C192.86 50.5947 192.943 50.575 193.039 50.575C193.129 50.575 193.209 50.5947 193.277 50.6342C193.346 50.6736 193.4 50.731 193.439 50.8064C193.478 50.8817 193.497 50.973 193.497 51.0801ZM192.788 51.0801C192.788 51.1513 192.797 51.2123 192.814 51.2629C192.831 51.3135 192.859 51.3524 192.895 51.3794C192.932 51.4059 192.979 51.4192 193.036 51.4192C193.094 51.4192 193.141 51.4059 193.178 51.3794C193.214 51.3524 193.241 51.3135 193.258 51.2629C193.275 51.2123 193.284 51.1513 193.284 51.0801C193.284 51.0089 193.275 50.9485 193.258 50.8991C193.241 50.8491 193.214 50.8111 193.178 50.7852C193.141 50.7587 193.094 50.7454 193.035 50.7454C192.949 50.7454 192.887 50.7743 192.847 50.832C192.808 50.8897 192.788 50.9724 192.788 51.0801ZM194.245 50.575C194.355 50.575 194.441 50.6036 194.502 50.6607C194.564 50.7172 194.595 50.8081 194.595 50.9335V51.571H194.387V50.9724C194.387 50.8964 194.372 50.8396 194.341 50.802C194.309 50.7637 194.261 50.7446 194.196 50.7446C194.101 50.7446 194.035 50.7737 193.998 50.832C193.961 50.8903 193.943 50.9747 193.943 51.0854V51.571H193.736V50.5936H193.897L193.926 50.726H193.938C193.959 50.6919 193.985 50.6639 194.016 50.6421C194.048 50.6198 194.084 50.603 194.122 50.5918C194.162 50.5806 194.203 50.575 194.245 50.575ZM195.249 51.4209C195.276 51.4209 195.303 51.4186 195.329 51.4139C195.356 51.4086 195.38 51.4024 195.402 51.3953V51.5525C195.379 51.5625 195.349 51.571 195.313 51.5781C195.276 51.5852 195.238 51.5887 195.199 51.5887C195.143 51.5887 195.094 51.5796 195.05 51.5613C195.005 51.5425 194.97 51.5104 194.944 51.4651C194.919 51.4198 194.906 51.3571 194.906 51.277V50.7516H194.772V50.6589L194.915 50.5856L194.983 50.3764H195.114V50.5936H195.394V50.7516H195.114V51.2744C195.114 51.3238 195.126 51.3606 195.151 51.3847C195.176 51.4089 195.208 51.4209 195.249 51.4209ZM195.808 50.1971V50.5424C195.808 50.5783 195.807 50.6133 195.805 50.6474C195.803 50.6816 195.801 50.7081 195.798 50.7269H195.81C195.83 50.6928 195.856 50.6648 195.886 50.643C195.916 50.6206 195.949 50.6039 195.986 50.5927C196.024 50.5815 196.064 50.5759 196.106 50.5759C196.181 50.5759 196.245 50.5886 196.297 50.6139C196.35 50.6386 196.39 50.6772 196.417 50.7296C196.446 50.7819 196.46 50.8499 196.46 50.9335V51.571H196.252V50.9724C196.252 50.8964 196.237 50.8396 196.205 50.802C196.174 50.7637 196.126 50.7446 196.061 50.7446C195.998 50.7446 195.948 50.7578 195.91 50.7843C195.874 50.8102 195.848 50.8488 195.832 50.9C195.816 50.9506 195.808 51.0124 195.808 51.0854V51.571H195.601V50.1971H195.808ZM197.293 50.2801L196.812 51.571H196.618L197.099 50.2801H197.293ZM197.843 50.8691L198.15 50.2801H198.378L197.949 51.0695V51.571H197.738V51.0775L197.308 50.2801H197.539L197.843 50.8691ZM198.916 50.575C199.003 50.575 199.078 50.593 199.14 50.6289C199.203 50.6648 199.251 50.7157 199.284 50.7816C199.318 50.8476 199.335 50.9265 199.335 51.0183V51.1295H198.682C198.685 51.2243 198.71 51.2973 198.758 51.3485C198.807 51.3997 198.875 51.4254 198.963 51.4254C199.025 51.4254 199.081 51.4195 199.131 51.4077C199.181 51.3953 199.232 51.3774 199.285 51.3538V51.5225C199.236 51.5454 199.187 51.5622 199.136 51.5728C199.085 51.5834 199.025 51.5887 198.954 51.5887C198.858 51.5887 198.774 51.5702 198.701 51.5331C198.628 51.4954 198.572 51.4395 198.53 51.3653C198.49 51.2911 198.469 51.199 198.469 51.0889C198.469 50.9794 198.488 50.8864 198.525 50.8099C198.562 50.7334 198.614 50.6751 198.681 50.6351C198.748 50.595 198.827 50.575 198.916 50.575ZM198.916 50.7313C198.851 50.7313 198.798 50.7525 198.757 50.7949C198.717 50.8373 198.694 50.8994 198.687 50.9812H199.132C199.131 50.9323 199.123 50.8891 199.107 50.8514C199.092 50.8137 199.068 50.7843 199.036 50.7631C199.005 50.7419 198.965 50.7313 198.916 50.7313ZM199.952 50.575C200.076 50.575 200.169 50.6024 200.232 50.6571C200.295 50.7119 200.327 50.7972 200.327 50.9132V51.571H200.18L200.14 51.4324H200.133C200.105 51.4677 200.077 51.4969 200.047 51.5198C200.018 51.5428 199.984 51.5599 199.945 51.571C199.907 51.5828 199.86 51.5887 199.804 51.5887C199.746 51.5887 199.694 51.5781 199.648 51.5569C199.602 51.5351 199.566 51.5022 199.54 51.458C199.513 51.4139 199.5 51.3579 199.5 51.2903C199.5 51.1896 199.537 51.1139 199.612 51.0633C199.687 51.0127 199.801 50.9847 199.953 50.9794L200.122 50.9733V50.922C200.122 50.8543 200.106 50.8061 200.075 50.7772C200.043 50.7484 199.999 50.734 199.942 50.734C199.893 50.734 199.846 50.741 199.8 50.7552C199.754 50.7693 199.709 50.7867 199.666 50.8073L199.599 50.6607C199.646 50.6354 199.701 50.6148 199.761 50.5989C199.822 50.583 199.886 50.575 199.952 50.575ZM200.121 51.1039L199.995 51.1084C199.892 51.1119 199.819 51.1295 199.777 51.1613C199.735 51.1931 199.714 51.2367 199.714 51.292C199.714 51.3403 199.729 51.3756 199.758 51.398C199.787 51.4198 199.824 51.4306 199.872 51.4306C199.943 51.4306 200.003 51.4103 200.05 51.3697C200.098 51.3285 200.121 51.2682 200.121 51.1887V51.1039ZM201.113 50.575C201.13 50.575 201.148 50.5759 201.167 50.5777C201.186 50.5794 201.203 50.5818 201.217 50.5847L201.198 50.779C201.185 50.7755 201.17 50.7728 201.152 50.7711C201.134 50.7693 201.118 50.7684 201.104 50.7684C201.067 50.7684 201.032 50.7746 200.998 50.7869C200.965 50.7987 200.935 50.817 200.909 50.8417C200.883 50.8658 200.863 50.8961 200.848 50.9326C200.833 50.9691 200.826 51.0115 200.826 51.0598V51.571H200.618V50.5936H200.78L200.808 50.7658H200.818C200.838 50.731 200.862 50.6992 200.891 50.6704C200.919 50.6415 200.952 50.6186 200.989 50.6015C201.027 50.5839 201.068 50.575 201.113 50.575Z" fill="#383B41" fill-opacity="0.72"/>
<path d="M15.9242 47.8904C15.9242 48.0301 15.9136 48.1549 15.8924 48.2648C15.8712 48.3747 15.8378 48.4677 15.7923 48.5439C15.7468 48.62 15.6879 48.6781 15.6157 48.7181C15.5435 48.7573 15.4568 48.777 15.3555 48.777C15.2276 48.777 15.1216 48.742 15.0376 48.6722C14.9545 48.6023 14.8921 48.5015 14.8505 48.3696C14.8096 48.237 14.7892 48.0772 14.7892 47.8904C14.7892 47.7068 14.8077 47.549 14.8446 47.4172C14.8822 47.2845 14.9427 47.1829 15.0259 47.1122C15.1091 47.0408 15.219 47.0051 15.3555 47.0051C15.485 47.0051 15.5918 47.0404 15.6758 47.111C15.7597 47.1809 15.8221 47.2822 15.863 47.4148C15.9038 47.5467 15.9242 47.7052 15.9242 47.8904ZM14.9858 47.8904C14.9858 48.0506 14.998 48.184 15.0223 48.2907C15.0467 48.3975 15.0859 48.4775 15.1401 48.5309C15.195 48.5835 15.2668 48.6098 15.3555 48.6098C15.4442 48.6098 15.5156 48.5835 15.5698 48.5309C15.6247 48.4783 15.6644 48.3987 15.6887 48.2919C15.7138 48.1852 15.7264 48.0513 15.7264 47.8904C15.7264 47.7327 15.7142 47.6008 15.6899 47.4949C15.6656 47.3881 15.6263 47.3081 15.5722 47.2547C15.518 47.2005 15.4458 47.1734 15.3555 47.1734C15.2653 47.1734 15.1931 47.2005 15.1389 47.2547C15.0847 47.3081 15.0455 47.3881 15.0212 47.4949C14.9976 47.6008 14.9858 47.7327 14.9858 47.8904Z" fill="#383B41" fill-opacity="0.72"/>
<path d="M7.82227 39.1784L7.82227 39.4091L6.37651 40.3475L6.37651 40.3569C6.41497 40.3545 6.45892 40.3518 6.50837 40.3486C6.55703 40.3455 6.60923 40.3431 6.66495 40.3416C6.7199 40.3392 6.77602 40.338 6.83331 40.338L7.82227 40.338L7.82227 40.5241L6.10102 40.5241L6.10102 40.2945L7.54206 39.3597L7.54206 39.3514C7.51459 39.353 7.47574 39.355 7.42551 39.3573C7.37449 39.3597 7.31994 39.362 7.26186 39.3644C7.20299 39.366 7.14844 39.3667 7.09821 39.3667L6.10102 39.3667L6.10102 39.1784L7.82227 39.1784ZM6.53192 37.6726L7.82227 37.6726L7.82227 37.8327L7.64096 37.8609L7.64096 37.8715C7.6857 37.8982 7.72337 37.9328 7.75398 37.9751C7.78459 38.0175 7.80735 38.0654 7.82227 38.1188C7.83796 38.1714 7.84581 38.2275 7.84581 38.2871C7.84581 38.3892 7.82933 38.4747 7.79636 38.5438C7.7634 38.6129 7.71238 38.6651 7.64331 38.7004C7.57424 38.7349 7.48555 38.7522 7.37724 38.7522L6.53192 38.7522L6.53192 38.5544L7.36311 38.5544C7.47064 38.5544 7.55109 38.5301 7.60446 38.4814C7.65705 38.4327 7.68334 38.3586 7.68334 38.2589C7.68334 38.1631 7.66529 38.087 7.62918 38.0305C7.59308 37.9732 7.5401 37.932 7.47025 37.9069C7.39961 37.8817 7.31327 37.8692 7.21123 37.8692L6.53192 37.8692L6.53192 37.6726ZM6.50837 35.8583C6.50837 35.7163 6.54565 35.6091 6.62022 35.5369C6.694 35.4647 6.81291 35.4286 6.97695 35.4286L7.82227 35.4286L7.82227 35.6217L6.98636 35.6217C6.88197 35.6217 6.80388 35.6444 6.75208 35.69C6.69949 35.7347 6.6732 35.8014 6.6732 35.8901C6.6732 36.0149 6.7093 36.1056 6.78151 36.1621C6.85372 36.2186 6.96007 36.2468 7.10056 36.2468L7.82227 36.2468L7.82227 36.4411L6.98636 36.4411C6.91651 36.4411 6.85843 36.4513 6.81212 36.4717C6.76581 36.4913 6.73128 36.5211 6.70852 36.5612C6.68497 36.6004 6.6732 36.6503 6.6732 36.7107C6.6732 36.7963 6.69086 36.8649 6.72618 36.9167C6.7615 36.9685 6.81408 37.0062 6.88394 37.0298C6.95301 37.0525 7.03817 37.0639 7.13942 37.0639L7.82227 37.0639L7.82227 37.2593L6.53192 37.2593L6.53192 37.1016L6.7144 37.0721L6.7144 37.0615C6.66966 37.0356 6.63199 37.0031 6.60138 36.9638C6.57077 36.9246 6.54761 36.8806 6.53192 36.832C6.51622 36.7833 6.50837 36.7315 6.50837 36.6766C6.50837 36.5784 6.52681 36.4964 6.5637 36.4305C6.59981 36.3638 6.65514 36.3155 6.72971 36.2857L6.72971 36.2751C6.65514 36.2327 6.59981 36.1746 6.5637 36.1008C6.52681 36.0271 6.50837 35.9462 6.50837 35.8583ZM5.99035 34.8317L6.44833 34.8317C6.50091 34.8317 6.55193 34.8333 6.60138 34.8364C6.65083 34.8388 6.68929 34.8407 6.71676 34.8423L6.71676 34.8317C6.65868 34.7964 6.60962 34.7454 6.56959 34.6786C6.52956 34.6119 6.50955 34.5268 6.50955 34.4232C6.50955 34.2615 6.56567 34.1327 6.6779 34.037C6.78936 33.9405 6.95536 33.8922 7.17591 33.8922C7.32112 33.8922 7.44356 33.9142 7.54324 33.9581C7.64292 34.0021 7.71827 34.0641 7.76929 34.1441C7.8203 34.2242 7.84581 34.3188 7.84581 34.4279C7.84581 34.5299 7.82697 34.6139 7.7893 34.6798C7.75084 34.745 7.70414 34.7952 7.6492 34.8305L7.6492 34.8458L7.82227 34.8858L7.82227 35.0271L5.99035 35.0271L5.99035 34.8317ZM6.6732 34.4549C6.6732 34.5483 6.69164 34.6225 6.72853 34.6775C6.76463 34.7324 6.81958 34.772 6.89336 34.7964C6.96635 34.8199 7.05897 34.8317 7.1712 34.8317L7.1818 34.8317C7.34427 34.8317 7.46868 34.8046 7.55501 34.7505C7.64056 34.6963 7.68334 34.5978 7.68334 34.4549C7.68334 34.3349 7.63939 34.245 7.55148 34.1853C7.46357 34.1249 7.33799 34.0947 7.17474 34.0947C7.00834 34.0947 6.88315 34.1245 6.79917 34.1842C6.71519 34.243 6.6732 34.3333 6.6732 34.4549ZM6.50837 33.0539C6.50837 32.944 6.5327 32.8499 6.58136 32.7714C6.63003 32.6929 6.69831 32.6328 6.78622 32.5912C6.87334 32.5496 6.97538 32.5288 7.09232 32.5288L7.21359 32.5288L7.21359 33.4201C7.36507 33.4177 7.48045 33.38 7.55972 33.3071C7.63899 33.2341 7.67863 33.1312 7.67863 32.9986C7.67863 32.917 7.67118 32.8448 7.65626 32.782C7.64135 32.7192 7.61937 32.654 7.59033 32.5865L7.76222 32.5865C7.79126 32.6517 7.81245 32.7164 7.8258 32.7808C7.83914 32.8444 7.84581 32.9197 7.84581 33.0068C7.84581 33.1308 7.8207 33.2392 7.77046 33.3318C7.71945 33.4236 7.64488 33.495 7.54677 33.546C7.44866 33.5971 7.32857 33.6226 7.18651 33.6226C7.04759 33.6226 6.9275 33.5994 6.82625 33.5531C6.72421 33.506 6.64572 33.4401 6.59078 33.3553C6.53584 33.2698 6.50837 33.1693 6.50837 33.0539ZM6.66849 33.0563C6.66849 33.1607 6.70263 33.2439 6.77091 33.3059C6.8392 33.3679 6.93456 33.4048 7.057 33.4165L7.057 32.7337C6.98009 32.7345 6.91259 32.7466 6.8545 32.7702C6.79564 32.793 6.75011 32.8279 6.71793 32.875C6.68497 32.9221 6.66849 32.9825 6.66849 33.0563ZM6.50837 31.6105C6.50837 31.5846 6.50994 31.5575 6.51308 31.5293C6.51543 31.501 6.51897 31.4759 6.52368 31.4539L6.70498 31.4787C6.69949 31.4999 6.69517 31.5234 6.69203 31.5493C6.68889 31.5752 6.68732 31.5995 6.68732 31.6223C6.68732 31.6741 6.69792 31.7232 6.71911 31.7695C6.73952 31.815 6.76934 31.855 6.80859 31.8896C6.84705 31.9241 6.89375 31.9512 6.94869 31.9708C7.00285 31.9904 7.06328 32.0002 7.13 32.0002L7.82227 32.0002L7.82227 32.1968L6.53192 32.1968L6.53192 32.0344L6.76974 32.0132L6.76974 32.0049C6.72186 31.9782 6.6783 31.9461 6.63905 31.9084C6.59902 31.8707 6.56724 31.8272 6.54369 31.7777C6.52014 31.7275 6.50837 31.6717 6.50837 31.6105ZM6.95929 29.0616C7.09193 29.0616 7.2128 29.0785 7.3219 29.1122C7.43022 29.146 7.52362 29.1962 7.60211 29.2629C7.67981 29.3289 7.73985 29.4109 7.78224 29.509C7.82462 29.6071 7.84581 29.7209 7.84581 29.8504C7.84581 29.9839 7.82462 30.1004 7.78224 30.2001C7.73985 30.299 7.67942 30.3814 7.60093 30.4473C7.52244 30.5125 7.42865 30.5615 7.31955 30.5945C7.21045 30.6267 7.08958 30.6428 6.95693 30.6428C6.78112 30.6428 6.62689 30.6137 6.49424 30.5556C6.3616 30.4976 6.25838 30.4097 6.18461 30.2919C6.11083 30.1734 6.07394 30.0251 6.07394 29.8469C6.07394 29.6766 6.11043 29.5333 6.18343 29.4172C6.25642 29.3002 6.35924 29.2119 6.49189 29.1523C6.62375 29.0918 6.77955 29.0616 6.95929 29.0616ZM6.95929 30.432C7.10527 30.432 7.23164 30.4112 7.33838 30.3696C7.44513 30.328 7.52754 30.2644 7.58562 30.1789C7.6437 30.0926 7.67274 29.9831 7.67274 29.8504C7.67274 29.717 7.6437 29.6079 7.58562 29.5231C7.52754 29.4376 7.44513 29.3744 7.33838 29.3336C7.23164 29.2928 7.10527 29.2724 6.95929 29.2724C6.73716 29.2724 6.5637 29.3191 6.43891 29.4125C6.31333 29.5051 6.25054 29.6499 6.25054 29.8469C6.25054 29.9803 6.27918 30.0902 6.33648 30.1765C6.39378 30.2629 6.4754 30.3272 6.58136 30.3696C6.68654 30.4112 6.81251 30.432 6.95929 30.432ZM6.68497 28.1327L6.68497 28.4541L7.82227 28.4541L7.82227 28.6496L6.68497 28.6496L6.68497 28.878L6.59078 28.878L6.52603 28.6496L6.44008 28.6496C6.33177 28.6496 6.24386 28.6335 6.17636 28.6013C6.10808 28.5691 6.05785 28.5224 6.02567 28.4612C5.99349 28.4 5.9774 28.3254 5.9774 28.2375C5.9774 28.188 5.98171 28.1429 5.99035 28.1021C5.99898 28.0605 6.00879 28.024 6.01978 27.9926L6.17401 28.0432C6.16538 28.0699 6.15753 28.1001 6.15046 28.1339C6.14261 28.1668 6.13869 28.2006 6.13869 28.2351C6.13869 28.3097 6.16302 28.365 6.21168 28.4011C6.25956 28.4365 6.33491 28.4541 6.43773 28.4541L6.53192 28.4541L6.53192 28.1327L6.68497 28.1327ZM6.10102 25.937L7.21477 25.937C7.33642 25.937 7.44474 25.9617 7.53971 26.0112C7.63468 26.0598 7.70963 26.1336 7.76458 26.2325C7.81873 26.3314 7.84581 26.4554 7.84581 26.6045C7.84581 26.8172 7.78812 26.9793 7.67274 27.0908C7.55737 27.2014 7.40314 27.2568 7.21006 27.2568L6.10102 27.2568L6.10102 27.0555L7.21594 27.0555C7.36193 27.0555 7.47456 27.017 7.55383 26.9401C7.63311 26.8624 7.67274 26.7466 7.67274 26.5928C7.67274 26.4876 7.65391 26.4016 7.61623 26.3349C7.57777 26.2674 7.5244 26.2176 7.45612 26.1854C7.38705 26.1524 7.30738 26.136 7.21712 26.136L6.10102 26.136L6.10102 25.937ZM7.46907 24.6749C7.55148 24.6749 7.62094 24.6957 7.67745 24.7373C7.73318 24.7781 7.77517 24.837 7.80343 24.9139C7.83168 24.99 7.84581 25.0811 7.84581 25.187C7.84581 25.2773 7.83875 25.3554 7.82462 25.4213C7.81049 25.4873 7.79048 25.5449 7.76458 25.5944L7.58445 25.5944C7.61035 25.5418 7.63389 25.479 7.65508 25.406C7.67628 25.333 7.68687 25.2585 7.68687 25.1823C7.68687 25.0709 7.66882 24.99 7.63272 24.9398C7.59661 24.8896 7.54756 24.8644 7.48555 24.8644C7.45023 24.8644 7.41923 24.8747 7.39254 24.8951C7.36507 24.9147 7.33878 24.948 7.31366 24.9951C7.28776 25.0422 7.2595 25.1074 7.22889 25.1906C7.1975 25.273 7.16649 25.3444 7.13588 25.4048C7.10449 25.4645 7.06642 25.5108 7.02168 25.5438C6.97695 25.5759 6.91886 25.592 6.84744 25.592C6.73834 25.592 6.65475 25.5481 6.59667 25.4602C6.5378 25.3715 6.50837 25.2553 6.50837 25.1117C6.50837 25.034 6.51622 24.9614 6.53192 24.8939C6.54683 24.8256 6.56724 24.762 6.59314 24.7032L6.74972 24.7691C6.72696 24.8225 6.70773 24.8794 6.69203 24.9398C6.67633 25.0002 6.66849 25.0618 6.66849 25.1246C6.66849 25.2149 6.6834 25.2844 6.71322 25.333C6.74305 25.3809 6.78386 25.4048 6.83567 25.4048C6.8757 25.4048 6.90866 25.3939 6.93456 25.3719C6.96046 25.3491 6.98479 25.313 7.00756 25.2636C7.03032 25.2141 7.057 25.149 7.08761 25.0681C7.11744 24.9873 7.14844 24.9174 7.18062 24.8586C7.21202 24.7997 7.25048 24.7546 7.296 24.7232C7.34074 24.691 7.39843 24.6749 7.46907 24.6749ZM6.50837 23.8637C6.50837 23.7538 6.5327 23.6597 6.58136 23.5812C6.63003 23.5027 6.69831 23.4426 6.78622 23.401C6.87334 23.3594 6.97538 23.3386 7.09232 23.3386L7.21359 23.3386L7.21359 24.2299C7.36507 24.2275 7.48045 24.1898 7.55972 24.1168C7.63899 24.0439 7.67863 23.941 7.67863 23.8084C7.67863 23.7268 7.67117 23.6546 7.65626 23.5918C7.64135 23.529 7.61937 23.4638 7.59033 23.3963L7.76222 23.3963C7.79126 23.4615 7.81245 23.5262 7.8258 23.5906C7.83914 23.6542 7.84581 23.7295 7.84581 23.8166C7.84581 23.9406 7.8207 24.049 7.77046 24.1416C7.71945 24.2334 7.64488 24.3048 7.54677 24.3558C7.44866 24.4069 7.32857 24.4324 7.18651 24.4324C7.04758 24.4324 6.9275 24.4092 6.82625 24.3629C6.72421 24.3158 6.64572 24.2499 6.59078 24.1651C6.53584 24.0796 6.50837 23.9791 6.50837 23.8637ZM6.66849 23.8661C6.66849 23.9705 6.70263 24.0537 6.77091 24.1157C6.8392 24.1777 6.93456 24.2146 7.057 24.2263L7.057 23.5435C6.98008 23.5443 6.91258 23.5564 6.8545 23.58C6.79564 23.6028 6.75011 23.6377 6.71793 23.6848C6.68497 23.7319 6.66849 23.7923 6.66849 23.8661ZM6.50837 22.4203C6.50837 22.3944 6.50994 22.3673 6.51308 22.3391C6.51543 22.3108 6.51897 22.2857 6.52367 22.2637L6.70498 22.2885C6.69949 22.3097 6.69517 22.3332 6.69203 22.3591C6.68889 22.385 6.68732 22.4093 6.68732 22.4321C6.68732 22.4839 6.69792 22.533 6.71911 22.5793C6.73952 22.6248 6.76934 22.6648 6.80859 22.6993C6.84705 22.7339 6.89375 22.761 6.94869 22.7806C7.00285 22.8002 7.06328 22.81 7.13 22.81L7.82226 22.81L7.82226 23.0066L6.53192 23.0066L6.53192 22.8442L6.76974 22.823L6.76974 22.8147C6.72186 22.788 6.6783 22.7559 6.63905 22.7182C6.59902 22.6805 6.56724 22.6369 6.54369 22.5875C6.52014 22.5373 6.50837 22.4815 6.50837 22.4203ZM7.46907 21.1853C7.55148 21.1853 7.62094 21.2061 7.67745 21.2477C7.73318 21.2885 7.77517 21.3474 7.80343 21.4243C7.83168 21.5004 7.84581 21.5915 7.84581 21.6974C7.84581 21.7877 7.83875 21.8658 7.82462 21.9317C7.81049 21.9977 7.79048 22.0554 7.76458 22.1048L7.58445 22.1048C7.61035 22.0522 7.63389 21.9894 7.65508 21.9164C7.67628 21.8434 7.68687 21.7689 7.68687 21.6927C7.68687 21.5813 7.66882 21.5004 7.63272 21.4502C7.59661 21.4 7.54756 21.3749 7.48555 21.3749C7.45023 21.3749 7.41923 21.3851 7.39254 21.4055C7.36507 21.4251 7.33878 21.4584 7.31366 21.5055C7.28776 21.5526 7.2595 21.6178 7.22889 21.701C7.1975 21.7834 7.16649 21.8548 7.13588 21.9152C7.10449 21.9749 7.06642 22.0212 7.02168 22.0542C6.97695 22.0864 6.91886 22.1024 6.84744 22.1024C6.73834 22.1024 6.65475 22.0585 6.59667 21.9706C6.5378 21.8819 6.50837 21.7657 6.50837 21.6221C6.50837 21.5444 6.51622 21.4718 6.53192 21.4043C6.54683 21.336 6.56724 21.2724 6.59314 21.2136L6.74972 21.2795C6.72696 21.3329 6.70773 21.3898 6.69203 21.4502C6.67633 21.5106 6.66849 21.5723 6.66849 21.635C6.66849 21.7253 6.6834 21.7948 6.71322 21.8434C6.74305 21.8913 6.78386 21.9152 6.83567 21.9152C6.8757 21.9152 6.90866 21.9043 6.93456 21.8823C6.96046 21.8595 6.98479 21.8234 7.00756 21.774C7.03032 21.7245 7.057 21.6594 7.08761 21.5785C7.11744 21.4977 7.14844 21.4278 7.18062 21.369C7.21202 21.3101 7.25048 21.265 7.296 21.2336C7.34074 21.2014 7.39843 21.1853 7.46907 21.1853Z" fill="#383B41"/>
<rect x="29.3359" y="38.9216" width="6.42977" height="8.64" fill="#43A047"/>
<rect x="111.315" y="30.8845" width="6.42977" height="16.6772" fill="#43A047"/>
<rect x="193.094" y="20.2354" width="6.42977" height="27.3265" fill="#43A047"/>
<path d="M108.422 58.2729L107.844 56.7495H107.835C107.838 56.7817 107.841 56.8209 107.843 56.8672C107.845 56.9135 107.847 56.9642 107.849 57.0191C107.85 57.0733 107.851 57.1286 107.851 57.1851V58.2729H107.665V56.5517H107.962L108.507 57.9833H108.515L109.069 56.5517H109.363V58.2729H109.165V57.171C109.165 57.12 109.166 57.0689 109.167 57.0179C109.169 56.9661 109.171 56.9175 109.173 56.8719C109.176 56.8256 109.178 56.7856 109.18 56.7518H109.171L108.586 58.2729H108.422ZM110.917 57.6254C110.917 57.7314 110.903 57.826 110.876 57.9092C110.848 57.9924 110.809 58.0626 110.757 58.1199C110.705 58.1772 110.642 58.2211 110.568 58.2518C110.495 58.2816 110.413 58.2965 110.32 58.2965C110.234 58.2965 110.154 58.2816 110.082 58.2518C110.011 58.2211 109.949 58.1772 109.896 58.1199C109.844 58.0626 109.804 57.9924 109.775 57.9092C109.747 57.826 109.733 57.7314 109.733 57.6254C109.733 57.4841 109.756 57.3641 109.804 57.2652C109.852 57.1655 109.921 57.0897 110.009 57.0379C110.099 56.9853 110.205 56.9591 110.328 56.9591C110.446 56.9591 110.549 56.9853 110.637 57.0379C110.725 57.0905 110.794 57.1667 110.843 57.2663C110.892 57.3652 110.917 57.4849 110.917 57.6254ZM109.935 57.6254C109.935 57.729 109.949 57.8189 109.976 57.895C110.004 57.9712 110.046 58.03 110.103 58.0716C110.161 58.1132 110.234 58.134 110.325 58.134C110.414 58.134 110.488 58.1132 110.545 58.0716C110.603 58.03 110.646 57.9712 110.673 57.895C110.701 57.8189 110.714 57.729 110.714 57.6254C110.714 57.5226 110.701 57.4339 110.673 57.3593C110.646 57.284 110.603 57.2259 110.546 57.1851C110.489 57.1443 110.415 57.1239 110.324 57.1239C110.189 57.1239 110.091 57.1682 110.028 57.2569C109.966 57.3456 109.935 57.4684 109.935 57.6254ZM111.866 56.9591C112.019 56.9591 112.135 56.9967 112.213 57.0721C112.292 57.1466 112.331 57.2667 112.331 57.4323V58.2729H112.138V57.4453C112.138 57.3378 112.113 57.2573 112.064 57.2039C112.015 57.1506 111.94 57.1239 111.839 57.1239C111.696 57.1239 111.595 57.1643 111.537 57.2451C111.479 57.326 111.45 57.4433 111.45 57.5972V58.2729H111.255V56.9826H111.413L111.442 57.1686H111.453C111.48 57.1231 111.515 57.085 111.557 57.0544C111.6 57.023 111.647 56.9995 111.7 56.9838C111.752 56.9673 111.808 56.9591 111.866 56.9591ZM113.15 58.1364C113.182 58.1364 113.215 58.1336 113.249 58.1281C113.283 58.1226 113.31 58.116 113.332 58.1081V58.26C113.309 58.2702 113.277 58.2788 113.236 58.2859C113.196 58.293 113.157 58.2965 113.119 58.2965C113.05 58.2965 112.988 58.2847 112.933 58.2612C112.877 58.2368 112.832 58.196 112.798 58.1387C112.765 58.0814 112.749 58.0022 112.749 57.9009V57.1357H112.565V57.0403L112.75 56.9638L112.828 56.6836H112.945V56.9826H113.323V57.1357H112.945V57.895C112.945 57.9759 112.964 58.0363 113.001 58.0763C113.038 58.1164 113.088 58.1364 113.15 58.1364ZM113.788 56.441V56.9885C113.788 57.0199 113.788 57.0517 113.786 57.0839C113.784 57.1152 113.782 57.1443 113.778 57.171H113.791C113.817 57.1254 113.851 57.0874 113.892 57.0568C113.934 57.0254 113.981 57.0018 114.033 56.9861C114.086 56.9696 114.142 56.9614 114.2 56.9614C114.304 56.9614 114.39 56.9779 114.459 57.0109C114.529 57.0438 114.582 57.0948 114.616 57.1639C114.651 57.233 114.669 57.3225 114.669 57.4323V58.2729H114.476V57.4453C114.476 57.3378 114.451 57.2573 114.402 57.2039C114.353 57.1506 114.278 57.1239 114.177 57.1239C114.081 57.1239 114.005 57.1423 113.947 57.1792C113.891 57.2153 113.85 57.2687 113.825 57.3393C113.801 57.41 113.788 57.4963 113.788 57.5983V58.2729H113.593V56.441H113.788ZM115.724 56.5517L115.083 58.2729H114.89L115.532 56.5517H115.724ZM116.426 57.4147L116.884 56.5517H117.099L116.526 57.6054V58.2729H116.326V57.6148L115.751 56.5517H115.97L116.426 57.4147ZM117.803 56.9591C117.913 56.9591 118.007 56.9834 118.086 57.032C118.164 57.0807 118.224 57.149 118.266 57.2369C118.307 57.324 118.328 57.4261 118.328 57.543V57.6643H117.437C117.439 57.8158 117.477 57.9311 117.55 58.0104C117.623 58.0897 117.726 58.1293 117.858 58.1293C117.94 58.1293 118.012 58.1219 118.075 58.1069C118.138 58.092 118.203 58.0701 118.271 58.041V58.2129C118.205 58.2419 118.141 58.2631 118.076 58.2765C118.013 58.2898 117.937 58.2965 117.85 58.2965C117.726 58.2965 117.618 58.2714 117.525 58.2211C117.433 58.1701 117.362 58.0956 117.311 57.9975C117.26 57.8993 117.234 57.7793 117.234 57.6372C117.234 57.4983 117.258 57.3782 117.304 57.2769C117.351 57.1749 117.417 57.0964 117.502 57.0415C117.587 56.9865 117.688 56.9591 117.803 56.9591ZM117.801 57.1192C117.696 57.1192 117.613 57.1533 117.551 57.2216C117.489 57.2899 117.452 57.3852 117.44 57.5077H118.123C118.123 57.4308 118.11 57.3633 118.087 57.3052C118.064 57.2463 118.029 57.2008 117.982 57.1686C117.935 57.1357 117.875 57.1192 117.801 57.1192ZM119.143 56.9614C119.297 56.9614 119.411 56.9959 119.486 57.065C119.56 57.1341 119.597 57.2444 119.597 57.3958V58.2729H119.455L119.417 58.0822H119.408C119.372 58.1293 119.334 58.169 119.295 58.2011C119.256 58.2325 119.21 58.2565 119.158 58.2729C119.107 58.2886 119.044 58.2965 118.97 58.2965C118.891 58.2965 118.821 58.2828 118.76 58.2553C118.7 58.2278 118.652 58.1862 118.617 58.1305C118.582 58.0748 118.565 58.0041 118.565 57.9186C118.565 57.7899 118.616 57.691 118.718 57.6219C118.82 57.5528 118.975 57.5151 119.184 57.5089L119.407 57.4994V57.4206C119.407 57.3091 119.383 57.231 119.335 57.1863C119.287 57.1415 119.219 57.1192 119.132 57.1192C119.065 57.1192 119 57.129 118.939 57.1486C118.878 57.1682 118.82 57.1914 118.765 57.2181L118.705 57.0697C118.763 57.0399 118.83 57.0144 118.905 56.9932C118.98 56.972 119.06 56.9614 119.143 56.9614ZM119.404 57.6372L119.208 57.6454C119.047 57.6517 118.933 57.678 118.867 57.7243C118.801 57.7706 118.769 57.8362 118.769 57.9209C118.769 57.9947 118.791 58.0493 118.836 58.0846C118.88 58.1199 118.94 58.1376 119.013 58.1376C119.128 58.1376 119.222 58.1058 119.295 58.0422C119.368 57.9786 119.404 57.8833 119.404 57.7561V57.6372ZM120.586 56.9591C120.612 56.9591 120.639 56.9606 120.668 56.9638C120.696 56.9661 120.721 56.9696 120.743 56.9744L120.718 57.1557C120.697 57.1502 120.673 57.1459 120.648 57.1427C120.622 57.1396 120.597 57.138 120.575 57.138C120.523 57.138 120.474 57.1486 120.427 57.1698C120.382 57.1902 120.342 57.22 120.307 57.2593C120.273 57.2977 120.246 57.3444 120.226 57.3994C120.206 57.4535 120.197 57.514 120.197 57.5807V58.2729H120V56.9826H120.162L120.184 57.2204H120.192C120.219 57.1725 120.251 57.129 120.288 57.0897C120.326 57.0497 120.37 57.0179 120.419 56.9944C120.469 56.9708 120.525 56.9591 120.586 56.9591Z" fill="#383B41"/>
</svg>
