<svg width="216" height="83" viewBox="0 0 216 83" fill="none" xmlns="http://www.w3.org/2000/svg">
<rect width="216" height="83" fill="white"/>
<rect x="19.5" y="63.3" width="194.1" height="0.6" fill="#757575"/>
<rect x="19.5" y="53.1" width="194.1" height="0.6" fill="#F2F2F2"/>
<rect x="19.5" y="42.9" width="194.1" height="0.6" fill="#F2F2F2"/>
<rect x="19.5" y="32.7" width="194.1" height="0.6" fill="#F2F2F2"/>
<rect x="19.5" y="22.5" width="194.1" height="0.6" fill="#F2F2F2"/>
<rect x="19.5" y="12.3" width="194.1" height="0.6" fill="#F2F2F2"/>
<path d="M14.8897 23.2042H14.5048V23.8H14.22V23.2042H12.9772V22.9581L14.2007 21.2161H14.5048V22.9405H14.8897V23.2042ZM14.22 22.9405V22.1002C14.22 22.0358 14.2206 21.9778 14.2218 21.9262C14.2229 21.8735 14.2247 21.8249 14.2271 21.7803C14.2294 21.7346 14.2312 21.6913 14.2323 21.6502C14.2347 21.6092 14.2364 21.5688 14.2376 21.529H14.2235C14.2013 21.5758 14.1755 21.6256 14.1462 21.6784C14.1181 21.7299 14.0894 21.7762 14.0601 21.8172L13.2673 22.9405H14.22ZM16.8356 22.5116C16.8356 22.7202 16.8198 22.9065 16.7882 23.0706C16.7565 23.2346 16.7067 23.3735 16.6388 23.4872C16.5708 23.6008 16.4829 23.6875 16.3751 23.7473C16.2673 23.8059 16.1378 23.8352 15.9866 23.8352C15.7956 23.8352 15.6374 23.7831 15.512 23.6788C15.3878 23.5745 15.2946 23.4239 15.2325 23.227C15.1716 23.029 15.1411 22.7905 15.1411 22.5116C15.1411 22.2374 15.1687 22.0018 15.2237 21.8049C15.28 21.6069 15.3702 21.4551 15.4944 21.3497C15.6187 21.243 15.7827 21.1897 15.9866 21.1897C16.18 21.1897 16.3394 21.2424 16.4647 21.3479C16.5901 21.4522 16.6833 21.6034 16.7442 21.8014C16.8052 21.9983 16.8356 22.235 16.8356 22.5116ZM15.4347 22.5116C15.4347 22.7506 15.4528 22.9499 15.4892 23.1092C15.5255 23.2686 15.5841 23.3881 15.6649 23.4678C15.747 23.5463 15.8542 23.5856 15.9866 23.5856C16.119 23.5856 16.2257 23.5463 16.3065 23.4678C16.3886 23.3893 16.4478 23.2704 16.4841 23.111C16.5216 22.9516 16.5403 22.7518 16.5403 22.5116C16.5403 22.276 16.5222 22.0792 16.4858 21.9209C16.4495 21.7616 16.3909 21.642 16.3101 21.5624C16.2292 21.4815 16.1214 21.4411 15.9866 21.4411C15.8519 21.4411 15.744 21.4815 15.6632 21.5624C15.5823 21.642 15.5237 21.7616 15.4874 21.9209C15.4522 22.0792 15.4347 22.276 15.4347 22.5116Z" fill="#383B41" fill-opacity="0.72"/>
<path d="M13.8896 12.0285C14.0642 12.0285 14.2159 12.0584 14.3448 12.1181C14.4737 12.1767 14.5733 12.2623 14.6437 12.3748C14.7151 12.4873 14.7509 12.6238 14.7509 12.7844C14.7509 12.9601 14.7128 13.1119 14.6366 13.2396C14.5604 13.3662 14.4509 13.464 14.3079 13.5332C14.1649 13.6011 13.9938 13.6351 13.7946 13.6351C13.661 13.6351 13.5368 13.6234 13.422 13.6C13.3071 13.5765 13.2104 13.5414 13.1319 13.4945V13.2168C13.2175 13.2683 13.3212 13.3094 13.4431 13.3398C13.5649 13.3703 13.6833 13.3855 13.7981 13.3855C13.9282 13.3855 14.0419 13.365 14.1392 13.324C14.2376 13.2818 14.3138 13.2185 14.3677 13.1342C14.4228 13.0486 14.4503 12.9414 14.4503 12.8125C14.4503 12.6414 14.3976 12.5095 14.2921 12.417C14.1878 12.3232 14.0226 12.2763 13.7964 12.2763C13.7237 12.2763 13.644 12.2822 13.5573 12.2939C13.4706 12.3056 13.3991 12.3185 13.3429 12.3326L13.1952 12.2359L13.2937 11.0301H14.5716V11.2972H13.5433L13.4782 12.0724C13.5228 12.0631 13.5802 12.0537 13.6505 12.0443C13.7208 12.0338 13.8005 12.0285 13.8896 12.0285ZM16.8356 12.3115C16.8356 12.5201 16.8198 12.7064 16.7882 12.8705C16.7565 13.0345 16.7067 13.1734 16.6388 13.2871C16.5708 13.4008 16.4829 13.4875 16.3751 13.5472C16.2673 13.6058 16.1378 13.6351 15.9866 13.6351C15.7956 13.6351 15.6374 13.583 15.512 13.4787C15.3878 13.3744 15.2946 13.2238 15.2325 13.0269C15.1716 12.8289 15.1411 12.5904 15.1411 12.3115C15.1411 12.0373 15.1687 11.8017 15.2237 11.6049C15.28 11.4068 15.3702 11.2551 15.4944 11.1496C15.6187 11.0429 15.7827 10.9896 15.9866 10.9896C16.18 10.9896 16.3394 11.0424 16.4647 11.1478C16.5901 11.2521 16.6833 11.4033 16.7442 11.6013C16.8052 11.7982 16.8356 12.0349 16.8356 12.3115ZM15.4347 12.3115C15.4347 12.5506 15.4528 12.7498 15.4892 12.9092C15.5255 13.0685 15.5841 13.1881 15.6649 13.2677C15.747 13.3463 15.8542 13.3855 15.9866 13.3855C16.119 13.3855 16.2257 13.3463 16.3065 13.2677C16.3886 13.1892 16.4478 13.0703 16.4841 12.9109C16.5216 12.7515 16.5403 12.5517 16.5403 12.3115C16.5403 12.076 16.5222 11.8791 16.4858 11.7209C16.4495 11.5615 16.3909 11.442 16.3101 11.3623C16.2292 11.2814 16.1214 11.241 15.9866 11.241C15.8519 11.241 15.744 11.2814 15.6632 11.3623C15.5823 11.442 15.5237 11.5615 15.4874 11.7209C15.4522 11.8791 15.4347 12.076 15.4347 12.3115Z" fill="#383B41" fill-opacity="0.72"/>
<path d="M14.6665 32.0295C14.6665 32.1443 14.6442 32.2439 14.5997 32.3283C14.5552 32.4127 14.4931 32.4818 14.4134 32.5357C14.3337 32.5885 14.2399 32.6254 14.1321 32.6465V32.6605C14.336 32.6863 14.489 32.752 14.5909 32.8574C14.694 32.9629 14.7456 33.1012 14.7456 33.2723C14.7456 33.4211 14.7104 33.5529 14.6401 33.6678C14.571 33.7826 14.4644 33.8729 14.3202 33.9385C14.1772 34.0029 13.9938 34.0352 13.77 34.0352C13.6341 34.0352 13.5081 34.024 13.3921 34.0018C13.2772 33.9807 13.1671 33.9449 13.0616 33.8945V33.6203C13.1683 33.673 13.2843 33.7146 13.4097 33.7451C13.5351 33.7744 13.6563 33.7891 13.7735 33.7891C14.0079 33.7891 14.1772 33.7428 14.2815 33.6502C14.3858 33.5564 14.438 33.4287 14.438 33.267C14.438 33.1557 14.4087 33.066 14.3501 32.998C14.2927 32.9289 14.2095 32.8785 14.1005 32.8469C13.9927 32.8141 13.8626 32.7977 13.7103 32.7977H13.4536V32.548H13.712C13.8515 32.548 13.9698 32.5275 14.0671 32.4865C14.1644 32.4455 14.2382 32.3881 14.2886 32.3143C14.3401 32.2393 14.3659 32.1508 14.3659 32.0488C14.3659 31.9187 14.3226 31.8186 14.2358 31.7482C14.1491 31.6768 14.0313 31.641 13.8825 31.641C13.7911 31.641 13.7079 31.6504 13.6329 31.6691C13.5579 31.6879 13.4876 31.7137 13.422 31.7465C13.3563 31.7793 13.2907 31.8174 13.2251 31.8607L13.0774 31.6604C13.1712 31.5877 13.2854 31.525 13.4202 31.4723C13.555 31.4195 13.7079 31.3932 13.879 31.3932C14.1415 31.3932 14.3384 31.4529 14.4696 31.5725C14.6009 31.692 14.6665 31.8443 14.6665 32.0295ZM16.8356 32.7115C16.8356 32.9201 16.8198 33.1064 16.7882 33.2705C16.7565 33.4346 16.7067 33.5734 16.6388 33.6871C16.5708 33.8008 16.4829 33.8875 16.3751 33.9473C16.2673 34.0059 16.1378 34.0352 15.9866 34.0352C15.7956 34.0352 15.6374 33.983 15.512 33.8787C15.3878 33.7744 15.2946 33.6238 15.2325 33.427C15.1716 33.2289 15.1411 32.9904 15.1411 32.7115C15.1411 32.4373 15.1687 32.2018 15.2237 32.0049C15.28 31.8068 15.3702 31.6551 15.4944 31.5496C15.6187 31.443 15.7827 31.3896 15.9866 31.3896C16.18 31.3896 16.3394 31.4424 16.4647 31.5479C16.5901 31.6521 16.6833 31.8033 16.7442 32.0014C16.8052 32.1982 16.8356 32.435 16.8356 32.7115ZM15.4347 32.7115C15.4347 32.9506 15.4528 33.1498 15.4892 33.3092C15.5255 33.4686 15.5841 33.5881 15.6649 33.6678C15.747 33.7463 15.8542 33.7855 15.9866 33.7855C16.119 33.7855 16.2257 33.7463 16.3065 33.6678C16.3886 33.5893 16.4478 33.4703 16.4841 33.3109C16.5216 33.1516 16.5403 32.9518 16.5403 32.7115C16.5403 32.476 16.5222 32.2791 16.4858 32.1209C16.4495 31.9615 16.3909 31.842 16.3101 31.7623C16.2292 31.6814 16.1214 31.641 15.9866 31.641C15.8519 31.641 15.744 31.6814 15.6632 31.7623C15.5823 31.842 15.5237 31.9615 15.4874 32.1209C15.4522 32.2791 15.4347 32.476 15.4347 32.7115Z" fill="#383B41" fill-opacity="0.72"/>
<path d="M14.7614 44.2H13.0774V43.9556L13.7647 43.2578C13.8925 43.1289 13.9997 43.014 14.0864 42.9132C14.1743 42.8125 14.2411 42.7134 14.2868 42.6162C14.3325 42.5177 14.3554 42.4099 14.3554 42.2927C14.3554 42.1474 14.312 42.0367 14.2253 41.9605C14.1397 41.8832 14.0267 41.8445 13.886 41.8445C13.763 41.8445 13.654 41.8656 13.5591 41.9078C13.4642 41.95 13.3669 42.0097 13.2673 42.0871L13.1108 41.8902C13.1788 41.8328 13.2526 41.7818 13.3323 41.7373C13.4132 41.6927 13.4993 41.6576 13.5907 41.6318C13.6833 41.606 13.7817 41.5931 13.886 41.5931C14.0442 41.5931 14.1808 41.6207 14.2956 41.6757C14.4104 41.7308 14.4989 41.8093 14.561 41.9113C14.6243 42.0132 14.656 42.1345 14.656 42.2751C14.656 42.4111 14.629 42.5376 14.5751 42.6548C14.5212 42.7708 14.4456 42.8863 14.3483 43.0011C14.2511 43.1148 14.1374 43.2355 14.0073 43.3632L13.4483 43.9205V43.9328H14.7614V44.2ZM16.8356 42.9115C16.8356 43.1201 16.8198 43.3064 16.7882 43.4705C16.7565 43.6345 16.7067 43.7734 16.6388 43.8871C16.5708 44.0007 16.4829 44.0875 16.3751 44.1472C16.2673 44.2058 16.1378 44.2351 15.9866 44.2351C15.7956 44.2351 15.6374 44.183 15.512 44.0787C15.3878 43.9744 15.2946 43.8238 15.2325 43.6269C15.1716 43.4289 15.1411 43.1904 15.1411 42.9115C15.1411 42.6373 15.1687 42.4017 15.2237 42.2048C15.28 42.0068 15.3702 41.855 15.4944 41.7496C15.6187 41.6429 15.7827 41.5896 15.9866 41.5896C16.18 41.5896 16.3394 41.6423 16.4647 41.7478C16.5901 41.8521 16.6833 42.0033 16.7442 42.2013C16.8052 42.3982 16.8356 42.6349 16.8356 42.9115ZM15.4347 42.9115C15.4347 43.1505 15.4528 43.3498 15.4892 43.5091C15.5255 43.6685 15.5841 43.788 15.6649 43.8677C15.747 43.9462 15.8542 43.9855 15.9866 43.9855C16.119 43.9855 16.2257 43.9462 16.3065 43.8677C16.3886 43.7892 16.4478 43.6703 16.4841 43.5109C16.5216 43.3515 16.5403 43.1517 16.5403 42.9115C16.5403 42.6759 16.5222 42.4791 16.4858 42.3208C16.4495 42.1615 16.3909 42.0419 16.3101 41.9623C16.2292 41.8814 16.1214 41.841 15.9866 41.841C15.8519 41.841 15.744 41.8814 15.6632 41.9623C15.5823 42.0419 15.5237 42.1615 15.4874 42.3208C15.4522 42.4791 15.4347 42.6759 15.4347 42.9115Z" fill="#383B41" fill-opacity="0.72"/>
<path d="M14.1638 54.4H13.879V52.5789C13.879 52.5098 13.879 52.4506 13.879 52.4014C13.8802 52.351 13.8813 52.3053 13.8825 52.2643C13.8849 52.2221 13.8878 52.1793 13.8913 52.136C13.855 52.1735 13.821 52.2057 13.7894 52.2326C13.7577 52.2584 13.7185 52.2906 13.6716 52.3293L13.378 52.5649L13.2251 52.3662L13.9212 51.8301H14.1638V54.4ZM16.8356 53.1115C16.8356 53.3201 16.8198 53.5065 16.7882 53.6705C16.7565 53.8346 16.7067 53.9735 16.6388 54.0871C16.5708 54.2008 16.4829 54.2875 16.3751 54.3473C16.2673 54.4059 16.1378 54.4352 15.9866 54.4352C15.7956 54.4352 15.6374 54.383 15.512 54.2787C15.3878 54.1744 15.2946 54.0239 15.2325 53.827C15.1716 53.6289 15.1411 53.3905 15.1411 53.1115C15.1411 52.8373 15.1687 52.6018 15.2237 52.4049C15.28 52.2069 15.3702 52.0551 15.4944 51.9496C15.6187 51.843 15.7827 51.7897 15.9866 51.7897C16.18 51.7897 16.3394 51.8424 16.4647 51.9479C16.5901 52.0522 16.6833 52.2033 16.7442 52.4014C16.8052 52.5983 16.8356 52.835 16.8356 53.1115ZM15.4347 53.1115C15.4347 53.3506 15.4528 53.5498 15.4892 53.7092C15.5255 53.8686 15.5841 53.9881 15.6649 54.0678C15.747 54.1463 15.8542 54.1856 15.9866 54.1856C16.119 54.1856 16.2257 54.1463 16.3065 54.0678C16.3886 53.9893 16.4478 53.8703 16.4841 53.711C16.5216 53.5516 16.5403 53.3518 16.5403 53.1115C16.5403 52.876 16.5222 52.6791 16.4858 52.5209C16.4495 52.3615 16.3909 52.242 16.3101 52.1623C16.2292 52.0815 16.1214 52.041 15.9866 52.041C15.8519 52.041 15.744 52.0815 15.6632 52.1623C15.5823 52.242 15.5237 52.3615 15.4874 52.5209C15.4522 52.6791 15.4347 52.876 15.4347 53.1115Z" fill="#383B41" fill-opacity="0.72"/>
<path d="M43.3904 69.3L43.2019 68.7648H42.4649L42.2764 69.3H41.9428L42.66 67.3647H43.0107L43.7266 69.3H43.3904ZM43.1201 68.4932L42.9369 67.9659C42.9298 67.943 42.9197 67.9109 42.9065 67.8696C42.8934 67.8274 42.8802 67.7848 42.867 67.7417C42.8538 67.6978 42.8428 67.6609 42.834 67.631C42.8252 67.667 42.8143 67.7075 42.8011 67.7523C42.7888 67.7962 42.7765 67.8375 42.7642 67.8762C42.7527 67.9149 42.7439 67.9448 42.7378 67.9659L42.5532 68.4932L43.1201 68.4932ZM44.6982 67.8129C44.8713 67.8129 45.0102 67.8762 45.1148 68.0028C45.2203 68.1293 45.273 68.3174 45.273 68.567C45.273 68.7323 45.2484 68.8716 45.1992 68.985C45.1508 69.0975 45.0827 69.1827 44.9948 69.2407C44.9078 69.2979 44.8063 69.3264 44.6903 69.3264C44.6165 69.3264 44.5523 69.3167 44.4978 69.2974C44.4433 69.2781 44.3967 69.253 44.3581 69.2223C44.3194 69.1906 44.2869 69.1563 44.2605 69.1194H44.242C44.2464 69.1546 44.2504 69.1937 44.2539 69.2368C44.2583 69.279 44.2605 69.3176 44.2605 69.3528V69.9474H43.9494V67.8406H44.2025L44.246 68.0423H44.2605C44.2877 68.001 44.3207 67.9628 44.3594 67.9276C44.3989 67.8925 44.4464 67.8648 44.5018 67.8446C44.558 67.8235 44.6235 67.8129 44.6982 67.8129ZM44.6151 68.0661C44.5299 68.0661 44.4613 68.0832 44.4095 68.1175C44.3585 68.1509 44.3211 68.2014 44.2974 68.2691C44.2746 68.3368 44.2623 68.4216 44.2605 68.5235V68.567C44.2605 68.6751 44.2715 68.767 44.2935 68.8426C44.3163 68.9173 44.3537 68.9744 44.4055 69.014C44.4583 69.0526 44.5294 69.072 44.6191 69.072C44.6947 69.072 44.7571 69.0513 44.8063 69.01C44.8564 68.9687 44.8938 68.9098 44.9184 68.8333C44.943 68.7569 44.9553 68.6668 44.9553 68.5631C44.9553 68.4058 44.9271 68.2836 44.8709 68.1966C44.8155 68.1096 44.7303 68.0661 44.6151 68.0661ZM46.3712 67.8129C46.3958 67.8129 46.4226 67.8143 46.4516 67.8169C46.4806 67.8195 46.5057 67.823 46.5268 67.8274L46.4978 68.1175C46.4793 68.1122 46.4564 68.1083 46.4292 68.1056C46.4028 68.103 46.3791 68.1017 46.358 68.1017C46.3026 68.1017 46.2499 68.1109 46.1998 68.1293C46.1497 68.1469 46.1053 68.1742 46.0667 68.2111C46.028 68.2471 45.9977 68.2924 45.9757 68.3469C45.9537 68.4014 45.9427 68.4646 45.9427 68.5367V69.3H45.6316V67.8406H45.8742L45.9164 68.0977H45.9309C45.9599 68.0458 45.9959 67.9984 46.039 67.9553C46.082 67.9123 46.1313 67.878 46.1866 67.8525C46.2429 67.8261 46.3044 67.8129 46.3712 67.8129ZM48.7034 69.3H47.3982V69.0667L47.8979 68.5604C47.9945 68.462 48.0741 68.3772 48.1365 68.306C48.1989 68.2339 48.245 68.1658 48.2749 68.1017C48.3057 68.0375 48.321 67.9676 48.321 67.892C48.321 67.7989 48.2942 67.7286 48.2406 67.6811C48.187 67.6328 48.1163 67.6086 48.0284 67.6086C47.9449 67.6086 47.8675 67.6253 47.7963 67.6587C47.726 67.6912 47.6531 67.7378 47.5775 67.7984L47.4074 67.5941C47.461 67.5484 47.5182 67.5066 47.5788 67.4688C47.6403 67.4311 47.7089 67.4012 47.7845 67.3792C47.8601 67.3563 47.9462 67.3449 48.0429 67.3449C48.165 67.3449 48.2705 67.3669 48.3593 67.4108C48.448 67.4539 48.5162 67.5141 48.5636 67.5915C48.612 67.6688 48.6361 67.7589 48.6361 67.8617C48.6361 67.9654 48.6155 68.0612 48.5742 68.1491C48.5329 68.237 48.474 68.324 48.3975 68.4102C48.321 68.4954 48.2301 68.5881 48.1246 68.6883L47.7911 69.014V69.0285H48.7034V69.3ZM50.2485 68.335C50.2485 68.4906 50.2362 68.6299 50.2116 68.7529C50.1878 68.8751 50.15 68.9788 50.0982 69.0641C50.0463 69.1493 49.9787 69.2144 49.8952 69.2592C49.8117 69.304 49.7106 69.3264 49.5919 69.3264C49.4434 69.3264 49.3208 69.2873 49.2241 69.2091C49.1274 69.13 49.0558 69.0166 49.0092 68.8689C48.9626 68.7204 48.9394 68.5424 48.9394 68.335C48.9394 68.1276 48.9605 67.95 49.0026 67.8024C49.0457 67.6539 49.1151 67.54 49.2109 67.4609C49.3067 67.3818 49.4337 67.3423 49.5919 67.3423C49.7414 67.3423 49.8644 67.3818 49.9611 67.4609C50.0586 67.5392 50.1307 67.6525 50.1773 67.8011C50.2248 67.9487 50.2485 68.1267 50.2485 68.335ZM49.2518 68.335C49.2518 68.4976 49.2624 68.6334 49.2834 68.7424C49.3054 68.8514 49.3415 68.9331 49.3916 68.9876C49.4417 69.0412 49.5084 69.068 49.5919 69.068C49.6754 69.068 49.7422 69.0412 49.7923 68.9876C49.8424 68.934 49.8785 68.8527 49.9004 68.7437C49.9233 68.6347 49.9347 68.4985 49.9347 68.335C49.9347 68.1733 49.9237 68.0379 49.9018 67.929C49.8798 67.82 49.8438 67.7382 49.7937 67.6837C49.7436 67.6284 49.6763 67.6007 49.5919 67.6007C49.5076 67.6007 49.4403 67.6284 49.3902 67.6837C49.341 67.7382 49.3054 67.82 49.2834 67.929C49.2624 68.0379 49.2518 68.1733 49.2518 68.335ZM51.7936 69.3H50.4884V69.0667L50.9881 68.5604C51.0848 68.462 51.1643 68.3772 51.2267 68.306C51.2891 68.2339 51.3353 68.1658 51.3651 68.1017C51.3959 68.0375 51.4113 67.9676 51.4113 67.892C51.4113 67.7989 51.3845 67.7286 51.3309 67.6811C51.2772 67.6328 51.2065 67.6086 51.1186 67.6086C51.0351 67.6086 50.9578 67.6253 50.8866 67.6587C50.8163 67.6912 50.7433 67.7378 50.6677 67.7984L50.4977 67.5941C50.5513 67.5484 50.6084 67.5066 50.669 67.4688C50.7306 67.4311 50.7991 67.4012 50.8747 67.3792C50.9503 67.3563 51.0364 67.3449 51.1331 67.3449C51.2553 67.3449 51.3607 67.3669 51.4495 67.4108C51.5383 67.4539 51.6064 67.5141 51.6539 67.5915C51.7022 67.6688 51.7264 67.7589 51.7264 67.8617C51.7264 67.9654 51.7057 68.0612 51.6644 68.1491C51.6231 68.237 51.5642 68.324 51.4877 68.4102C51.4113 68.4954 51.3203 68.5881 51.2148 68.6883L50.8813 69.014V69.0285H51.7936V69.3ZM53.4086 68.8769H53.1476V69.3H52.8417V68.8769H51.965V68.6422L52.8457 67.3673H53.1476V68.6198H53.4086V68.8769ZM52.8417 68.6198V68.1412C52.8417 68.1017 52.8421 68.0617 52.843 68.0212C52.8448 67.9799 52.8465 67.9404 52.8483 67.9026C52.8501 67.8648 52.8518 67.8301 52.8536 67.7984C52.8553 67.7659 52.8566 67.7391 52.8575 67.718H52.847C52.8303 67.7532 52.8118 67.7892 52.7916 67.8261C52.7714 67.8622 52.7499 67.8973 52.727 67.9316L52.2524 68.6198H52.8417Z" fill="#383B41" fill-opacity="0.72"/>
<path d="M111.444 69.3L110.889 67.6903H110.877C110.88 67.7264 110.883 67.7756 110.887 67.838C110.89 67.9004 110.893 67.9672 110.896 68.0384C110.898 68.1096 110.9 68.1777 110.9 68.2427V69.3H110.612V67.3726H111.057L111.591 68.9111H111.598L112.151 67.3726H112.594V69.3H112.292L112.292 68.2269C112.292 68.168 112.293 68.1043 112.295 68.0357C112.297 67.9672 112.3 67.9021 112.302 67.8406C112.306 67.7791 112.309 67.7299 112.31 67.693H112.3L111.724 69.3H111.444ZM113.642 67.8129C113.826 67.8129 113.966 67.8538 114.06 67.9355C114.155 68.0173 114.202 68.1447 114.202 68.3179V69.3H113.982L113.923 69.0931H113.912C113.871 69.1458 113.828 69.1893 113.784 69.2236C113.74 69.2579 113.689 69.2833 113.631 69.3C113.574 69.3176 113.504 69.3264 113.422 69.3264C113.335 69.3264 113.257 69.3106 113.188 69.279C113.12 69.2464 113.066 69.1972 113.026 69.1313C112.987 69.0654 112.967 68.9819 112.967 68.8808C112.967 68.7305 113.023 68.6176 113.134 68.542C113.247 68.4664 113.416 68.4247 113.643 68.4167L113.896 68.4075V68.3311C113.896 68.23 113.873 68.1579 113.825 68.1148C113.779 68.0718 113.713 68.0502 113.627 68.0502C113.554 68.0502 113.484 68.0608 113.415 68.0819C113.347 68.103 113.28 68.1289 113.215 68.1597L113.115 67.9408C113.186 67.903 113.267 67.8723 113.357 67.8485C113.449 67.8248 113.543 67.8129 113.642 67.8129ZM113.895 68.6026L113.706 68.6092C113.552 68.6145 113.443 68.6409 113.381 68.6883C113.318 68.7358 113.287 68.8008 113.287 68.8834C113.287 68.9555 113.309 69.0083 113.352 69.0417C113.395 69.0742 113.452 69.0904 113.522 69.0904C113.629 69.0904 113.718 69.0601 113.788 68.9995C113.859 68.9379 113.895 68.8479 113.895 68.7292V68.6026ZM114.416 67.8406H114.753L115.053 68.6738C115.066 68.7116 115.078 68.749 115.088 68.7859C115.1 68.8219 115.109 68.8575 115.117 68.8927C115.126 68.9278 115.133 68.963 115.138 68.9981H115.146C115.155 68.9524 115.167 68.9015 115.183 68.8452C115.2 68.7881 115.218 68.731 115.238 68.6738L115.526 67.8406H115.859L115.233 69.5004C115.197 69.5954 115.153 69.6762 115.1 69.743C115.048 69.8107 114.987 69.8617 114.915 69.8959C114.844 69.9311 114.763 69.9487 114.672 69.9487C114.628 69.9487 114.589 69.946 114.557 69.9408C114.524 69.9364 114.497 69.9315 114.474 69.9263V69.6784C114.492 69.6828 114.516 69.6868 114.544 69.6903C114.572 69.6938 114.601 69.6956 114.631 69.6956C114.686 69.6956 114.734 69.6846 114.774 69.6626C114.815 69.6406 114.849 69.6094 114.877 69.569C114.905 69.5294 114.929 69.4842 114.947 69.4332L114.998 69.2961L114.416 67.8406ZM117.987 69.3H116.682V69.0667L117.182 68.5604C117.278 68.462 117.358 68.3772 117.42 68.306C117.483 68.2339 117.529 68.1658 117.559 68.1017C117.59 68.0375 117.605 67.9676 117.605 67.892C117.605 67.7989 117.578 67.7286 117.524 67.6811C117.471 67.6328 117.4 67.6086 117.312 67.6086C117.229 67.6086 117.151 67.6253 117.08 67.6587C117.01 67.6912 116.937 67.7378 116.861 67.7984L116.691 67.5941C116.745 67.5484 116.802 67.5066 116.863 67.4688C116.924 67.4311 116.993 67.4012 117.068 67.3792C117.144 67.3563 117.23 67.3449 117.327 67.3449C117.449 67.3449 117.554 67.3669 117.643 67.4108C117.732 67.4539 117.8 67.5141 117.847 67.5915C117.896 67.6688 117.92 67.7589 117.92 67.8617C117.92 67.9654 117.899 68.0612 117.858 68.1491C117.817 68.237 117.758 68.324 117.681 68.4102C117.605 68.4954 117.514 68.5881 117.408 68.6883L117.075 69.014V69.0285H117.987V69.3ZM119.532 68.335C119.532 68.4906 119.52 68.6299 119.495 68.7529C119.472 68.8751 119.434 68.9788 119.382 69.0641C119.33 69.1493 119.263 69.2144 119.179 69.2592C119.096 69.304 118.994 69.3264 118.876 69.3264C118.727 69.3264 118.605 69.2873 118.508 69.2091C118.411 69.13 118.34 69.0166 118.293 68.8689C118.246 68.7204 118.223 68.5424 118.223 68.335C118.223 68.1276 118.244 67.95 118.286 67.8024C118.33 67.6539 118.399 67.54 118.495 67.4609C118.591 67.3818 118.718 67.3423 118.876 67.3423C119.025 67.3423 119.148 67.3818 119.245 67.4609C119.342 67.5392 119.415 67.6525 119.461 67.8011C119.509 67.9487 119.532 68.1267 119.532 68.335ZM118.536 68.335C118.536 68.4976 118.546 68.6334 118.567 68.7424C118.589 68.8514 118.625 68.9331 118.675 68.9876C118.725 69.0412 118.792 69.068 118.876 69.068C118.959 69.068 119.026 69.0412 119.076 68.9876C119.126 68.934 119.162 68.8527 119.184 68.7437C119.207 68.6347 119.219 68.4985 119.219 68.335C119.219 68.1733 119.208 68.0379 119.186 67.929C119.164 67.82 119.128 67.7382 119.077 67.6837C119.027 67.6284 118.96 67.6007 118.876 67.6007C118.791 67.6007 118.724 67.6284 118.674 67.6837C118.625 67.7382 118.589 67.82 118.567 67.929C118.546 68.0379 118.536 68.1733 118.536 68.335ZM121.077 69.3H119.772V69.0667L120.272 68.5604C120.369 68.462 120.448 68.3772 120.511 68.306C120.573 68.2339 120.619 68.1658 120.649 68.1017C120.68 68.0375 120.695 67.9676 120.695 67.892C120.695 67.7989 120.668 67.7286 120.615 67.6811C120.561 67.6328 120.49 67.6086 120.402 67.6086C120.319 67.6086 120.242 67.6253 120.17 67.6587C120.1 67.6912 120.027 67.7378 119.952 67.7984L119.781 67.5941C119.835 67.5484 119.892 67.5066 119.953 67.4688C120.014 67.4311 120.083 67.4012 120.159 67.3792C120.234 67.3563 120.32 67.3449 120.417 67.3449C120.539 67.3449 120.645 67.3669 120.733 67.4108C120.822 67.4539 120.89 67.5141 120.938 67.5915C120.986 67.6688 121.01 67.7589 121.01 67.8617C121.01 67.9654 120.99 68.0612 120.948 68.1491C120.907 68.237 120.848 68.324 120.772 68.4102C120.695 68.4954 120.604 68.5881 120.499 68.6883L120.165 69.014V69.0285H121.077V69.3ZM122.692 68.8769H122.431V69.3H122.126V68.8769H121.249V68.6422L122.129 67.3673H122.431V68.6198H122.692V68.8769ZM122.126 68.6198V68.1412C122.126 68.1017 122.126 68.0617 122.127 68.0212C122.129 67.9799 122.13 67.9404 122.132 67.9026C122.134 67.8648 122.136 67.8301 122.137 67.7984C122.139 67.7659 122.14 67.7391 122.141 67.718H122.131C122.114 67.7532 122.096 67.7892 122.075 67.8261C122.055 67.8622 122.034 67.8973 122.011 67.9316L121.536 68.6198H122.126Z" fill="#383B41" fill-opacity="0.72"/>
<path d="M179.851 69.8366C179.802 69.8366 179.76 69.8335 179.724 69.8274C179.687 69.8221 179.656 69.8146 179.629 69.805V69.54C179.657 69.547 179.688 69.5532 179.72 69.5584C179.753 69.5637 179.788 69.5664 179.824 69.5664C179.873 69.5664 179.917 69.5571 179.956 69.5387C179.996 69.5202 180.027 69.4868 180.05 69.4385C180.074 69.3901 180.085 69.322 180.085 69.2341V67.3726H180.402V69.2236C180.402 69.3668 180.379 69.4833 180.333 69.5729C180.288 69.6635 180.223 69.7298 180.141 69.772C180.058 69.8151 179.962 69.8366 179.851 69.8366ZM182.141 67.8406V69.3H181.897L181.855 69.1036H181.838C181.807 69.1537 181.768 69.1955 181.72 69.2289C181.673 69.2614 181.62 69.2855 181.562 69.3014C181.504 69.3181 181.443 69.3264 181.379 69.3264C181.269 69.3264 181.175 69.308 181.097 69.271C181.019 69.2333 180.96 69.1752 180.919 69.097C180.877 69.0188 180.857 68.9177 180.857 68.7938V67.8406H181.168V68.7358C181.168 68.8492 181.191 68.934 181.236 68.9902C181.283 69.0465 181.355 69.0746 181.453 69.0746C181.547 69.0746 181.621 69.0553 181.677 69.0166C181.732 68.9779 181.771 68.9208 181.794 68.8452C181.818 68.7696 181.83 68.6769 181.83 68.567V67.8406H182.141ZM183.346 67.8129C183.51 67.8129 183.638 67.8556 183.729 67.9408C183.822 68.0252 183.868 68.161 183.868 68.3482V69.3H183.558V68.4062C183.558 68.2928 183.535 68.208 183.488 68.1518C183.442 68.0946 183.37 68.0661 183.272 68.0661C183.13 68.0661 183.032 68.1096 182.977 68.1966C182.922 68.2836 182.895 68.4097 182.895 68.575V69.3H182.585V67.8406H182.826L182.87 68.0384H182.887C182.919 67.9874 182.958 67.9457 183.004 67.9131C183.052 67.8797 183.105 67.8547 183.163 67.838C183.221 67.8213 183.283 67.8129 183.346 67.8129ZM186.208 69.3H184.903V69.0667L185.402 68.5604C185.499 68.462 185.579 68.3772 185.641 68.306C185.703 68.2339 185.75 68.1658 185.779 68.1017C185.81 68.0375 185.826 67.9676 185.826 67.892C185.826 67.7989 185.799 67.7286 185.745 67.6811C185.692 67.6328 185.621 67.6086 185.533 67.6086C185.449 67.6086 185.372 67.6253 185.301 67.6587C185.231 67.6912 185.158 67.7378 185.082 67.7984L184.912 67.5941C184.966 67.5484 185.023 67.5066 185.083 67.4688C185.145 67.4311 185.213 67.4012 185.289 67.3792C185.365 67.3563 185.451 67.3449 185.547 67.3449C185.67 67.3449 185.775 67.3669 185.864 67.4108C185.953 67.4539 186.021 67.5141 186.068 67.5915C186.117 67.6688 186.141 67.7589 186.141 67.8617C186.141 67.9654 186.12 68.0612 186.079 68.1491C186.037 68.237 185.979 68.324 185.902 68.4102C185.826 68.4954 185.735 68.5881 185.629 68.6883L185.296 69.014V69.0285H186.208V69.3ZM187.753 68.335C187.753 68.4906 187.741 68.6299 187.716 68.7529C187.692 68.8751 187.655 68.9788 187.603 69.0641C187.551 69.1493 187.483 69.2144 187.4 69.2592C187.316 69.304 187.215 69.3264 187.097 69.3264C186.948 69.3264 186.825 69.2873 186.729 69.2091C186.632 69.13 186.56 69.0166 186.514 68.8689C186.467 68.7204 186.444 68.5424 186.444 68.335C186.444 68.1276 186.465 67.95 186.507 67.8024C186.55 67.6539 186.62 67.54 186.716 67.4609C186.811 67.3818 186.938 67.3423 187.097 67.3423C187.246 67.3423 187.369 67.3818 187.466 67.4609C187.563 67.5392 187.635 67.6525 187.682 67.8011C187.729 67.9487 187.753 68.1267 187.753 68.335ZM186.756 68.335C186.756 68.4976 186.767 68.6334 186.788 68.7424C186.81 68.8514 186.846 68.9331 186.896 68.9876C186.946 69.0412 187.013 69.068 187.097 69.068C187.18 69.068 187.247 69.0412 187.297 68.9876C187.347 68.934 187.383 68.8527 187.405 68.7437C187.428 68.6347 187.439 68.4985 187.439 68.335C187.439 68.1733 187.428 68.0379 187.406 67.929C187.384 67.82 187.348 67.7382 187.298 67.6837C187.248 67.6284 187.181 67.6007 187.097 67.6007C187.012 67.6007 186.945 67.6284 186.895 67.6837C186.846 67.7382 186.81 67.82 186.788 67.929C186.767 68.0379 186.756 68.1733 186.756 68.335ZM189.298 69.3H187.993V69.0667L188.493 68.5604C188.589 68.462 188.669 68.3772 188.731 68.306C188.794 68.2339 188.84 68.1658 188.87 68.1017C188.9 68.0375 188.916 67.9676 188.916 67.892C188.916 67.7989 188.889 67.7286 188.835 67.6811C188.782 67.6328 188.711 67.6086 188.623 67.6086C188.54 67.6086 188.462 67.6253 188.391 67.6587C188.321 67.6912 188.248 67.7378 188.172 67.7984L188.002 67.5941C188.056 67.5484 188.113 67.5066 188.174 67.4688C188.235 67.4311 188.304 67.4012 188.379 67.3792C188.455 67.3563 188.541 67.3449 188.638 67.3449C188.76 67.3449 188.865 67.3669 188.954 67.4108C189.043 67.4539 189.111 67.5141 189.158 67.5915C189.207 67.6688 189.231 67.7589 189.231 67.8617C189.231 67.9654 189.21 68.0612 189.169 68.1491C189.128 68.237 189.069 68.324 188.992 68.4102C188.916 68.4954 188.825 68.5881 188.719 68.6883L188.386 69.014V69.0285H189.298V69.3ZM190.913 68.8769H190.652V69.3H190.346V68.8769H189.47V68.6422L190.35 67.3673H190.652V68.6198H190.913V68.8769ZM190.346 68.6198V68.1412C190.346 68.1017 190.347 68.0617 190.348 68.0212C190.349 67.9799 190.351 67.9404 190.353 67.9026C190.355 67.8648 190.356 67.8301 190.358 67.7984C190.36 67.7659 190.361 67.7391 190.362 67.718H190.352C190.335 67.7532 190.316 67.7892 190.296 67.8261C190.276 67.8622 190.254 67.8973 190.232 67.9316L189.757 68.6198H190.346Z" fill="#383B41" fill-opacity="0.72"/>
<path d="M16.8756 63.3115C16.8756 63.5201 16.8598 63.7064 16.8281 63.8705C16.7965 64.0345 16.7467 64.1734 16.6787 64.2871C16.6107 64.4008 16.5229 64.4875 16.415 64.5472C16.3072 64.6058 16.1777 64.6351 16.0266 64.6351C15.8355 64.6351 15.6773 64.583 15.552 64.4787C15.4277 64.3744 15.3346 64.2238 15.2725 64.0269C15.2115 63.8289 15.1811 63.5904 15.1811 63.3115C15.1811 63.0373 15.2086 62.8017 15.2637 62.6049C15.3199 62.4068 15.4102 62.2551 15.5344 62.1496C15.6586 62.0429 15.8227 61.9896 16.0266 61.9896C16.2199 61.9896 16.3793 62.0424 16.5047 62.1478C16.6301 62.2521 16.7232 62.4033 16.7842 62.6013C16.8451 62.7982 16.8756 63.0349 16.8756 63.3115ZM15.4746 63.3115C15.4746 63.5506 15.4928 63.7498 15.5291 63.9092C15.5654 64.0685 15.624 64.1881 15.7049 64.2677C15.7869 64.3463 15.8941 64.3855 16.0266 64.3855C16.159 64.3855 16.2656 64.3463 16.3465 64.2677C16.4285 64.1892 16.4877 64.0703 16.524 63.9109C16.5615 63.7515 16.5803 63.5517 16.5803 63.3115C16.5803 63.076 16.5621 62.8791 16.5258 62.7209C16.4895 62.5615 16.4309 62.442 16.35 62.3623C16.2691 62.2814 16.1613 62.241 16.0266 62.241C15.8918 62.241 15.784 62.2814 15.7031 62.3623C15.6223 62.442 15.5637 62.5615 15.5273 62.7209C15.4922 62.8791 15.4746 63.076 15.4746 63.3115Z" fill="#383B41" fill-opacity="0.72"/>
<path d="M6.3999 42.0591L6.3999 42.3597L4.09365 42.3597L4.09365 43.1683L3.82998 43.1683L3.82998 41.2541L4.09365 41.2541L4.09365 42.0591L6.3999 42.0591ZM4.43818 40.0341C4.43818 39.9955 4.44053 39.955 4.44521 39.9128C4.44873 39.8707 4.454 39.8332 4.46103 39.8003L4.73174 39.8373C4.72353 39.8689 4.71709 39.9041 4.7124 39.9427C4.70771 39.9814 4.70537 40.0177 4.70537 40.0517C4.70537 40.1291 4.72119 40.2023 4.75283 40.2714C4.7833 40.3394 4.82783 40.3992 4.88643 40.4507C4.94385 40.5023 5.01357 40.5427 5.09561 40.572C5.17646 40.6013 5.2667 40.616 5.36631 40.616L6.3999 40.616L6.3999 40.9095L4.47334 40.9095L4.47334 40.6669L4.82842 40.6353L4.82842 40.623C4.75693 40.5832 4.69189 40.5351 4.6333 40.4789C4.57353 40.4226 4.52607 40.3576 4.49092 40.2837C4.45576 40.2087 4.43818 40.1255 4.43818 40.0341ZM4.43818 38.6947C4.43818 38.5306 4.47451 38.39 4.54717 38.2728C4.61982 38.1556 4.72178 38.066 4.85303 38.0039C4.98311 37.9417 5.13545 37.9107 5.31006 37.9107L5.49111 37.9107L5.49111 39.2414C5.71728 39.2378 5.88955 39.1816 6.00791 39.0726C6.12627 38.9636 6.18545 38.8101 6.18545 38.6121C6.18545 38.4902 6.17432 38.3824 6.15205 38.2886C6.12978 38.1949 6.09697 38.0976 6.05361 37.9968L6.31025 37.9968C6.35361 38.0941 6.38525 38.1908 6.40518 38.2869C6.4251 38.3818 6.43506 38.4943 6.43506 38.6244C6.43506 38.8095 6.39756 38.9712 6.32256 39.1095C6.24639 39.2466 6.13506 39.3533 5.98857 39.4294C5.84209 39.5056 5.66279 39.5437 5.45068 39.5437C5.24326 39.5437 5.06396 39.5091 4.91279 39.44C4.76045 39.3697 4.64326 39.2712 4.56123 39.1447C4.4792 39.0169 4.43818 38.8669 4.43818 38.6947ZM4.67725 38.6982C4.67725 38.8541 4.72822 38.9783 4.83018 39.0708C4.93213 39.1634 5.07451 39.2185 5.25732 39.2361L5.25732 38.2166C5.14248 38.2177 5.0417 38.2359 4.95498 38.271C4.86709 38.305 4.79912 38.3572 4.75107 38.4275C4.70186 38.4978 4.67725 38.588 4.67725 38.6982ZM4.43818 36.5027C4.43818 36.2742 4.49443 36.1013 4.60693 35.9841C4.71826 35.8669 4.89756 35.8083 5.14482 35.8083L6.3999 35.8083L6.3999 36.0966L5.16416 36.0966C5.00361 36.0966 4.8835 36.1335 4.80381 36.2074C4.72412 36.28 4.68428 36.3919 4.68428 36.5431C4.68428 36.7564 4.74463 36.9064 4.86533 36.9931C4.98603 37.0798 5.16123 37.1232 5.39092 37.1232L6.3999 37.1232L6.3999 37.415L4.47334 37.415L4.47334 37.1794L4.75107 37.1355L4.75107 37.1197C4.68311 37.0787 4.62627 37.0265 4.58057 36.9632C4.53369 36.9 4.49853 36.8291 4.4751 36.7505C4.45049 36.672 4.43818 36.5894 4.43818 36.5027ZM6.43506 34.5216C6.43506 34.7654 6.35186 34.9587 6.18545 35.1017C6.01904 35.2435 5.77178 35.3144 5.44365 35.3144C5.11201 35.3144 4.86182 35.2417 4.69307 35.0964C4.52314 34.9511 4.43818 34.7578 4.43818 34.5164C4.43818 34.4144 4.45166 34.3253 4.47861 34.2492C4.50557 34.173 4.54189 34.1074 4.5876 34.0523C4.63213 33.9972 4.6831 33.9509 4.74053 33.9134L4.74053 33.8923C4.7042 33.897 4.65439 33.9017 4.59111 33.9064C4.52783 33.9111 4.47627 33.9134 4.43643 33.9134L3.66475 33.9134L3.66475 33.6216L6.3999 33.6216L6.3999 33.8572L6.12568 33.9011L6.12568 33.9134C6.18311 33.9498 6.23525 33.996 6.28213 34.0523C6.329 34.1074 6.3665 34.1736 6.39463 34.2509C6.42158 34.3271 6.43506 34.4173 6.43506 34.5216ZM6.19248 34.4759C6.19248 34.2697 6.13389 34.1238 6.0167 34.0382C5.89951 33.9527 5.72549 33.9099 5.49463 33.9099L5.44189 33.9099C5.19697 33.9099 5.00889 33.9509 4.87764 34.033C4.74639 34.1138 4.68076 34.2615 4.68076 34.4759C4.68076 34.6552 4.7499 34.7894 4.88818 34.8785C5.02529 34.9675 5.21279 35.0121 5.45068 35.0121C5.6874 35.0121 5.87021 34.9681 5.99912 34.8802C6.12803 34.7912 6.19248 34.6564 6.19248 34.4759ZM5.87256 31.7566C5.9956 31.7566 6.09932 31.7876 6.18369 31.8498C6.26689 31.9107 6.32959 31.9986 6.37178 32.1134C6.41396 32.2271 6.43506 32.363 6.43506 32.5212C6.43506 32.656 6.42451 32.7726 6.40342 32.871C6.38232 32.9695 6.35244 33.0556 6.31377 33.1294L6.04482 33.1294C6.0835 33.0509 6.11865 32.9572 6.15029 32.8482C6.18193 32.7392 6.19775 32.6279 6.19775 32.5142C6.19775 32.3478 6.1708 32.2271 6.11689 32.1521C6.06299 32.0771 5.98975 32.0396 5.89717 32.0396C5.84443 32.0396 5.79814 32.0548 5.7583 32.0853C5.71728 32.1146 5.67803 32.1644 5.64053 32.2347C5.60185 32.305 5.55967 32.4023 5.51396 32.5265C5.46709 32.6496 5.4208 32.7562 5.3751 32.8464C5.32822 32.9355 5.27139 33.0046 5.20459 33.0539C5.13779 33.1019 5.05107 33.1259 4.94443 33.1259C4.78154 33.1259 4.65674 33.0603 4.57002 32.9291C4.48213 32.7966 4.43818 32.6232 4.43818 32.4087C4.43818 32.2927 4.4499 32.1843 4.47334 32.0835C4.4956 31.9816 4.52607 31.8867 4.56475 31.7988L4.79853 31.8972C4.76455 31.9769 4.73584 32.0619 4.7124 32.1521C4.68896 32.2423 4.67725 32.3343 4.67725 32.4281C4.67725 32.5628 4.69951 32.6666 4.74404 32.7392C4.78857 32.8107 4.84951 32.8464 4.92685 32.8464C4.98662 32.8464 5.03584 32.83 5.07451 32.7972C5.11318 32.7632 5.14951 32.7093 5.1835 32.6355C5.21748 32.5617 5.25732 32.4644 5.30303 32.3437C5.34756 32.223 5.39385 32.1187 5.44189 32.0308C5.48877 31.9429 5.54619 31.8755 5.61416 31.8287C5.68096 31.7806 5.76709 31.7566 5.87256 31.7566Z" fill="#383B41"/>
<circle cx="64.7001" cy="4.90005" r="2.1" fill="#0198AC"/>
<path d="M70.5805 5.11155C70.5805 5.30959 70.5553 5.49006 70.5049 5.65295C70.4545 5.81467 70.3795 5.95413 70.2799 6.07131C70.1814 6.18733 70.059 6.27698 69.9125 6.34026C69.766 6.40354 69.5961 6.43518 69.4027 6.43518C69.2035 6.43518 69.0295 6.40354 68.8807 6.34026C68.733 6.27698 68.61 6.18674 68.5115 6.06956C68.4143 5.95237 68.341 5.81233 68.2918 5.64944C68.2438 5.48655 68.2197 5.30608 68.2197 5.10803C68.2197 4.84553 68.2631 4.61526 68.3498 4.41721C68.4365 4.21916 68.5678 4.06506 68.7436 3.95491C68.9205 3.84475 69.142 3.78967 69.408 3.78967C69.6623 3.78967 69.8762 3.84416 70.0496 3.95315C70.2242 4.06213 70.3561 4.21565 70.4451 4.4137C70.5354 4.61057 70.5805 4.84319 70.5805 5.11155ZM68.5344 5.11155C68.5344 5.32952 68.5654 5.51819 68.6275 5.67756C68.6896 5.83694 68.7846 5.95999 68.9123 6.0467C69.0412 6.13342 69.2047 6.17678 69.4027 6.17678C69.602 6.17678 69.7648 6.13342 69.8914 6.0467C70.0191 5.95999 70.1135 5.83694 70.1744 5.67756C70.2354 5.51819 70.2658 5.32952 70.2658 5.11155C70.2658 4.77991 70.1961 4.52092 70.0566 4.33459C69.9184 4.14709 69.7021 4.05334 69.408 4.05334C69.2088 4.05334 69.0447 4.09612 68.9158 4.18166C68.7869 4.26721 68.6908 4.38909 68.6275 4.54729C68.5654 4.70432 68.5344 4.89241 68.5344 5.11155ZM72.0148 4.43831C72.2551 4.43831 72.4467 4.52092 72.5896 4.68616C72.7326 4.85139 72.8041 5.09983 72.8041 5.43147C72.8041 5.65061 72.7713 5.83459 72.7057 5.98342C72.64 6.13225 72.5475 6.24475 72.4279 6.32092C72.3096 6.39709 72.1695 6.43518 72.0078 6.43518C71.9059 6.43518 71.8162 6.4217 71.7389 6.39475C71.6615 6.3678 71.5953 6.33147 71.5402 6.28577C71.4852 6.24006 71.4395 6.19026 71.4031 6.13635H71.382C71.3855 6.18206 71.3896 6.23713 71.3943 6.30159C71.4002 6.36604 71.4031 6.42229 71.4031 6.47034V7.26135H71.1096V4.47346H71.3504L71.3891 4.75823H71.4031C71.4406 4.69963 71.4863 4.64631 71.5402 4.59827C71.5941 4.54905 71.6598 4.51038 71.7371 4.48225C71.8156 4.45295 71.9082 4.43831 72.0148 4.43831ZM71.9639 4.6844C71.8303 4.6844 71.7225 4.71018 71.6404 4.76174C71.5596 4.81331 71.5004 4.89065 71.4629 4.99377C71.4254 5.09573 71.4055 5.22405 71.4031 5.37874V5.43499C71.4031 5.59788 71.4207 5.73557 71.4559 5.84807C71.4922 5.96057 71.5514 6.04612 71.6334 6.10471C71.7166 6.16331 71.8279 6.1926 71.9674 6.1926C72.0869 6.1926 72.1865 6.16038 72.2662 6.09592C72.3459 6.03147 72.4051 5.94182 72.4438 5.82698C72.4836 5.71096 72.5035 5.57795 72.5035 5.42795C72.5035 5.20061 72.459 5.02014 72.3699 4.88655C72.282 4.75178 72.1467 4.6844 71.9639 4.6844ZM74.0557 4.43831C74.2197 4.43831 74.3604 4.47463 74.4775 4.54729C74.5947 4.61995 74.6844 4.7219 74.7465 4.85315C74.8086 4.98323 74.8396 5.13557 74.8396 5.31018V5.49124H73.509C73.5125 5.71741 73.5688 5.88967 73.6777 6.00803C73.7867 6.12639 73.9402 6.18557 74.1383 6.18557C74.2602 6.18557 74.368 6.17444 74.4617 6.15217C74.5555 6.12991 74.6527 6.09709 74.7535 6.05374V6.31038C74.6563 6.35374 74.5596 6.38538 74.4635 6.4053C74.3686 6.42522 74.2561 6.43518 74.126 6.43518C73.9408 6.43518 73.7791 6.39768 73.6408 6.32268C73.5037 6.24651 73.3971 6.13518 73.3209 5.9887C73.2447 5.84221 73.2066 5.66292 73.2066 5.45081C73.2066 5.24338 73.2412 5.06409 73.3104 4.91291C73.3807 4.76057 73.4791 4.64338 73.6057 4.56135C73.7334 4.47932 73.8834 4.43831 74.0557 4.43831ZM74.0521 4.67737C73.8963 4.67737 73.7721 4.72834 73.6795 4.8303C73.5869 4.93225 73.5318 5.07463 73.5143 5.25745H74.5338C74.5326 5.1426 74.5145 5.04182 74.4793 4.9551C74.4453 4.86721 74.3932 4.79924 74.3229 4.7512C74.2525 4.70198 74.1623 4.67737 74.0521 4.67737ZM76.2477 4.43831C76.4762 4.43831 76.649 4.49456 76.7662 4.60706C76.8834 4.71838 76.942 4.89768 76.942 5.14495V6.40002H76.6537V5.16428C76.6537 5.00374 76.6168 4.88362 76.543 4.80393C76.4703 4.72424 76.3584 4.6844 76.2072 4.6844C75.9939 4.6844 75.8439 4.74475 75.7572 4.86545C75.6705 4.98616 75.6271 5.16135 75.6271 5.39104V6.40002H75.3354V4.47346H75.5709L75.6148 4.7512H75.6307C75.6717 4.68323 75.7238 4.62639 75.7871 4.58069C75.8504 4.53381 75.9213 4.49866 75.9998 4.47522C76.0783 4.45061 76.1609 4.43831 76.2477 4.43831ZM78.285 4.43831C78.449 4.43831 78.5896 4.47463 78.7068 4.54729C78.824 4.61995 78.9137 4.7219 78.9758 4.85315C79.0379 4.98323 79.0689 5.13557 79.0689 5.31018V5.49124H77.7383C77.7418 5.71741 77.798 5.88967 77.907 6.00803C78.016 6.12639 78.1695 6.18557 78.3676 6.18557C78.4895 6.18557 78.5973 6.17444 78.691 6.15217C78.7848 6.12991 78.882 6.09709 78.9828 6.05374V6.31038C78.8855 6.35374 78.7889 6.38538 78.6928 6.4053C78.5979 6.42522 78.4854 6.43518 78.3553 6.43518C78.1701 6.43518 78.0084 6.39768 77.8701 6.32268C77.733 6.24651 77.6264 6.13518 77.5502 5.9887C77.474 5.84221 77.4359 5.66292 77.4359 5.45081C77.4359 5.24338 77.4705 5.06409 77.5396 4.91291C77.61 4.76057 77.7084 4.64338 77.835 4.56135C77.9627 4.47932 78.1127 4.43831 78.285 4.43831ZM78.2814 4.67737C78.1256 4.67737 78.0014 4.72834 77.9088 4.8303C77.8162 4.93225 77.7611 5.07463 77.7436 5.25745H78.7631C78.7619 5.1426 78.7438 5.04182 78.7086 4.9551C78.6746 4.86721 78.6225 4.79924 78.5521 4.7512C78.4818 4.70198 78.3916 4.67737 78.2814 4.67737ZM80.2502 6.43518C80.0064 6.43518 79.8131 6.35198 79.6701 6.18557C79.5283 6.01917 79.4574 5.7719 79.4574 5.44377C79.4574 5.11213 79.5301 4.86194 79.6754 4.69319C79.8207 4.52327 80.0141 4.43831 80.2555 4.43831C80.3574 4.43831 80.4465 4.45178 80.5227 4.47874C80.5988 4.50569 80.6645 4.54202 80.7195 4.58772C80.7746 4.63225 80.8209 4.68323 80.8584 4.74065H80.8795C80.8748 4.70432 80.8701 4.65452 80.8654 4.59124C80.8607 4.52795 80.8584 4.47639 80.8584 4.43655V3.66487L81.1502 3.66487V6.40002H80.9146L80.8707 6.12581H80.8584C80.8221 6.18323 80.7758 6.23538 80.7195 6.28225C80.6645 6.32913 80.5982 6.36663 80.5209 6.39475C80.4447 6.4217 80.3545 6.43518 80.2502 6.43518ZM80.2959 6.1926C80.5021 6.1926 80.648 6.13401 80.7336 6.01682C80.8191 5.89963 80.8619 5.72561 80.8619 5.49475V5.44202C80.8619 5.19709 80.8209 5.00901 80.7389 4.87776C80.658 4.74651 80.5104 4.68088 80.2959 4.68088C80.1166 4.68088 79.9824 4.75002 79.8934 4.88831C79.8043 5.02541 79.7598 5.21291 79.7598 5.45081C79.7598 5.68752 79.8037 5.87034 79.8916 5.99924C79.9807 6.12815 80.1154 6.1926 80.2959 6.1926ZM84.36 6.40002L84.0436 5.5844L83.0135 5.5844L82.6988 6.40002H82.3965L83.402 3.81956H83.6709L84.6693 6.40002H84.36ZM83.9539 5.31897L83.6533 4.50862C83.6463 4.48752 83.6346 4.45295 83.6182 4.40491C83.6029 4.35686 83.5871 4.30706 83.5707 4.25549C83.5543 4.20393 83.5408 4.16233 83.5303 4.13069C83.5186 4.17874 83.5057 4.22678 83.4916 4.27483C83.4787 4.3217 83.4658 4.36565 83.4529 4.40666C83.44 4.44651 83.4289 4.48049 83.4195 4.50862L83.1137 5.31897L83.9539 5.31897ZM85.6045 6.19612C85.6525 6.19612 85.7018 6.19202 85.7521 6.18381C85.8025 6.17561 85.8436 6.16565 85.8752 6.15393V6.38069C85.8412 6.39592 85.7938 6.40881 85.7328 6.41936C85.673 6.42991 85.6145 6.43518 85.557 6.43518C85.4551 6.43518 85.3625 6.4176 85.2793 6.38245C85.1961 6.34612 85.1293 6.28518 85.0789 6.19963C85.0297 6.11409 85.0051 5.99573 85.0051 5.84456V4.70198H84.7309V4.55959L85.0068 4.44534L85.1229 4.02698H85.2986V4.47346H85.8629V4.70198H85.2986V5.83577C85.2986 5.95647 85.3262 6.0467 85.3813 6.10647C85.4375 6.16624 85.5119 6.19612 85.6045 6.19612ZM86.8877 6.19612C86.9357 6.19612 86.985 6.19202 87.0354 6.18381C87.0857 6.17561 87.1268 6.16565 87.1584 6.15393V6.38069C87.1244 6.39592 87.077 6.40881 87.016 6.41936C86.9563 6.42991 86.8977 6.43518 86.8402 6.43518C86.7383 6.43518 86.6457 6.4176 86.5625 6.38245C86.4793 6.34612 86.4125 6.28518 86.3621 6.19963C86.3129 6.11409 86.2883 5.99573 86.2883 5.84456V4.70198H86.0141V4.55959L86.29 4.44534L86.4061 4.02698H86.5818V4.47346H87.1461V4.70198H86.5818V5.83577C86.5818 5.95647 86.6094 6.0467 86.6645 6.10647C86.7207 6.16624 86.7951 6.19612 86.8877 6.19612ZM88.2693 4.44182C88.499 4.44182 88.6695 4.49338 88.7809 4.59651C88.8922 4.69963 88.9479 4.86428 88.9479 5.09045V6.40002H88.7352L88.6789 6.11526H88.6648C88.6109 6.18557 88.5547 6.24475 88.4961 6.2928C88.4375 6.33967 88.3695 6.37542 88.2922 6.40002C88.216 6.42346 88.1223 6.43518 88.0109 6.43518C87.8938 6.43518 87.7895 6.41467 87.698 6.37366C87.6078 6.33264 87.5363 6.27053 87.4836 6.18733C87.432 6.10413 87.4063 5.99866 87.4063 5.87092C87.4063 5.67874 87.4824 5.53108 87.6348 5.42795C87.7871 5.32483 88.0191 5.26858 88.3309 5.2592L88.6631 5.24514V5.12737C88.6631 4.96096 88.6273 4.84436 88.5559 4.77756C88.4844 4.71077 88.3836 4.67737 88.2535 4.67737C88.1527 4.67737 88.0566 4.69202 87.9652 4.72131C87.8738 4.75061 87.7871 4.78518 87.7051 4.82502L87.6154 4.60354C87.7021 4.55901 87.8018 4.52092 87.9143 4.48928C88.0268 4.45764 88.1451 4.44182 88.2693 4.44182ZM88.6596 5.45081L88.366 5.46311C88.1258 5.47249 87.9564 5.51174 87.858 5.58088C87.7596 5.65002 87.7104 5.74788 87.7104 5.87444C87.7104 5.98459 87.7438 6.06604 87.8105 6.11877C87.8773 6.17151 87.9658 6.19788 88.076 6.19788C88.2471 6.19788 88.3871 6.15042 88.4961 6.05549C88.6051 5.96057 88.6596 5.81819 88.6596 5.62834V5.45081ZM90.3207 6.43518C90.1473 6.43518 89.9943 6.39944 89.8619 6.32795C89.7295 6.25647 89.6264 6.14749 89.5525 6.001C89.4787 5.85452 89.4418 5.66995 89.4418 5.44729C89.4418 5.21409 89.4805 5.02366 89.5578 4.876C89.6363 4.72717 89.7441 4.61702 89.8813 4.54553C90.0184 4.47405 90.1742 4.43831 90.3488 4.43831C90.4449 4.43831 90.5375 4.44827 90.6266 4.46819C90.7168 4.48694 90.7906 4.51096 90.848 4.54026L90.7602 4.78459C90.7016 4.76116 90.6336 4.74006 90.5563 4.72131C90.4801 4.70256 90.4086 4.69319 90.3418 4.69319C90.2082 4.69319 90.0969 4.7219 90.0078 4.77932C89.9199 4.83674 89.8537 4.92112 89.8092 5.03245C89.7658 5.14377 89.7441 5.28088 89.7441 5.44377C89.7441 5.59963 89.7652 5.73264 89.8074 5.8428C89.8508 5.95295 89.9146 6.03733 89.999 6.09592C90.0846 6.15334 90.1912 6.18206 90.3189 6.18206C90.4209 6.18206 90.5129 6.17151 90.5949 6.15042C90.677 6.12815 90.7514 6.10237 90.8182 6.07307V6.33323C90.7537 6.36604 90.6816 6.39124 90.602 6.40881C90.5234 6.42639 90.4297 6.43518 90.3207 6.43518ZM91.567 3.66487V4.48225C91.567 4.52913 91.5658 4.57659 91.5635 4.62463C91.5611 4.67151 91.557 4.71487 91.5512 4.75471H91.5705C91.6104 4.68674 91.6607 4.62991 91.7217 4.5842C91.7838 4.53733 91.8541 4.50217 91.9326 4.47874C92.0111 4.45413 92.0943 4.44182 92.1822 4.44182C92.3369 4.44182 92.4658 4.46643 92.5689 4.51565C92.6732 4.56487 92.7512 4.64104 92.8027 4.74416C92.8555 4.84729 92.8818 4.98088 92.8818 5.14495V6.40002L92.5936 6.40002V5.16428C92.5936 5.00374 92.5566 4.88362 92.4828 4.80393C92.4102 4.72424 92.2982 4.6844 92.1471 4.6844C92.0041 4.6844 91.8898 4.71194 91.8043 4.76702C91.7199 4.82092 91.659 4.90061 91.6215 5.00608C91.5852 5.11155 91.567 5.24045 91.567 5.3928V6.40002H91.2752V3.66487H91.567ZM95.5748 4.43831C95.7869 4.43831 95.9469 4.49397 96.0547 4.6053C96.1625 4.71545 96.2164 4.89299 96.2164 5.13791V6.40002H95.9281V5.15198C95.9281 4.99612 95.8941 4.87952 95.8262 4.80217C95.7594 4.72366 95.6598 4.6844 95.5273 4.6844C95.341 4.6844 95.2057 4.73831 95.1213 4.84612C95.0369 4.95393 94.9947 5.11272 94.9947 5.32249V6.40002H94.7047V5.15198C94.7047 5.04768 94.6895 4.96096 94.659 4.89182C94.6297 4.82268 94.5852 4.77112 94.5254 4.73713C94.4668 4.70198 94.3924 4.6844 94.3022 4.6844C94.1744 4.6844 94.0719 4.71077 93.9945 4.7635C93.9172 4.81624 93.8609 4.89475 93.8258 4.99905C93.7918 5.10217 93.7748 5.22932 93.7748 5.38049V6.40002H93.483V4.47346H93.7186L93.7625 4.74592H93.7783C93.817 4.67913 93.8656 4.62288 93.9242 4.57717C93.9828 4.53147 94.0484 4.4969 94.1211 4.47346C94.1938 4.45002 94.2711 4.43831 94.3531 4.43831C94.4996 4.43831 94.6221 4.46584 94.7205 4.52092C94.8201 4.57483 94.8922 4.65745 94.9367 4.76877H94.9525C95.0158 4.65745 95.1025 4.57483 95.2127 4.52092C95.3229 4.46584 95.4436 4.43831 95.5748 4.43831ZM97.5576 4.43831C97.7217 4.43831 97.8623 4.47463 97.9795 4.54729C98.0967 4.61995 98.1863 4.7219 98.2484 4.85315C98.3105 4.98323 98.3416 5.13557 98.3416 5.31018V5.49124H97.0109C97.0145 5.71741 97.0707 5.88967 97.1797 6.00803C97.2887 6.12639 97.4422 6.18557 97.6402 6.18557C97.7621 6.18557 97.8699 6.17444 97.9637 6.15217C98.0574 6.12991 98.1547 6.09709 98.2555 6.05374V6.31038C98.1582 6.35374 98.0615 6.38538 97.9654 6.4053C97.8705 6.42522 97.758 6.43518 97.6279 6.43518C97.4428 6.43518 97.2811 6.39768 97.1428 6.32268C97.0057 6.24651 96.899 6.13518 96.8229 5.9887C96.7467 5.84221 96.7086 5.66292 96.7086 5.45081C96.7086 5.24338 96.7432 5.06409 96.8123 4.91291C96.8826 4.76057 96.9811 4.64338 97.1076 4.56135C97.2354 4.47932 97.3854 4.43831 97.5576 4.43831ZM97.5541 4.67737C97.3982 4.67737 97.274 4.72834 97.1814 4.8303C97.0889 4.93225 97.0338 5.07463 97.0162 5.25745H98.0357C98.0346 5.1426 98.0164 5.04182 97.9813 4.9551C97.9473 4.86721 97.8951 4.79924 97.8248 4.7512C97.7545 4.70198 97.6643 4.67737 97.5541 4.67737ZM99.7496 4.43831C99.9781 4.43831 100.151 4.49456 100.268 4.60706C100.385 4.71838 100.444 4.89768 100.444 5.14495V6.40002H100.156V5.16428C100.156 5.00374 100.119 4.88362 100.045 4.80393C99.9723 4.72424 99.8604 4.6844 99.7092 4.6844C99.4959 4.6844 99.3459 4.74475 99.2592 4.86545C99.1725 4.98616 99.1291 5.16135 99.1291 5.39104V6.40002H98.8373V4.47346H99.0729L99.1168 4.7512H99.1326C99.1736 4.68323 99.2258 4.62639 99.2891 4.58069C99.3523 4.53381 99.4232 4.49866 99.5018 4.47522C99.5803 4.45061 99.6629 4.43831 99.7496 4.43831ZM101.667 6.19612C101.715 6.19612 101.765 6.19202 101.815 6.18381C101.865 6.17561 101.906 6.16565 101.938 6.15393V6.38069C101.904 6.39592 101.857 6.40881 101.796 6.41936C101.736 6.42991 101.677 6.43518 101.62 6.43518C101.518 6.43518 101.425 6.4176 101.342 6.38245C101.259 6.34612 101.192 6.28518 101.142 6.19963C101.093 6.11409 101.068 5.99573 101.068 5.84456V4.70198H100.794V4.55959L101.07 4.44534L101.186 4.02698H101.362V4.47346H101.926V4.70198H101.362V5.83577C101.362 5.95647 101.389 6.0467 101.444 6.10647C101.5 6.16624 101.575 6.19612 101.667 6.19612Z" fill="#383B41"/>
<circle cx="109.9" cy="4.90005" r="2.1" fill="#E6A23C"/>
<path d="M114.65 4.05686C114.509 4.05686 114.381 4.08147 114.267 4.13069C114.155 4.17874 114.059 4.24905 113.979 4.34163C113.9 4.43303 113.84 4.54377 113.798 4.67385C113.756 4.80393 113.735 4.95041 113.735 5.11331C113.735 5.32893 113.768 5.51643 113.835 5.67581C113.903 5.83401 114.004 5.95647 114.137 6.04319C114.272 6.12991 114.44 6.17327 114.642 6.17327C114.756 6.17327 114.864 6.16389 114.965 6.14514C115.067 6.12522 115.166 6.10061 115.262 6.07131V6.33147C115.168 6.36663 115.07 6.39241 114.967 6.40881C114.864 6.42639 114.741 6.43518 114.599 6.43518C114.338 6.43518 114.12 6.38127 113.944 6.27346C113.769 6.16448 113.638 6.01096 113.55 5.81292C113.463 5.61487 113.42 5.38108 113.42 5.11155C113.42 4.91702 113.447 4.73948 113.501 4.57893C113.556 4.41721 113.636 4.27776 113.74 4.16057C113.845 4.04338 113.974 3.95315 114.127 3.88987C114.28 3.82541 114.456 3.79319 114.654 3.79319C114.784 3.79319 114.909 3.80608 115.03 3.83186C115.151 3.85764 115.26 3.89456 115.357 3.9426L115.238 4.19573C115.155 4.15823 115.065 4.126 114.967 4.09905C114.87 4.07092 114.764 4.05686 114.65 4.05686ZM116.069 6.40002L115.775 6.40002V3.66487H116.069V6.40002ZM116.978 4.47346V6.40002H116.686V4.47346H116.978ZM116.835 3.75276C116.883 3.75276 116.924 3.76858 116.958 3.80022C116.994 3.83069 117.011 3.87874 117.011 3.94436C117.011 4.00881 116.994 4.05686 116.958 4.0885C116.924 4.12014 116.883 4.13596 116.835 4.13596C116.785 4.13596 116.743 4.12014 116.709 4.0885C116.676 4.05686 116.66 4.00881 116.66 3.94436C116.66 3.87874 116.676 3.83069 116.709 3.80022C116.743 3.76858 116.785 3.75276 116.835 3.75276ZM118.368 6.43518C118.195 6.43518 118.042 6.39944 117.909 6.32795C117.777 6.25647 117.674 6.14749 117.6 6.001C117.526 5.85452 117.489 5.66995 117.489 5.44729C117.489 5.21409 117.528 5.02366 117.605 4.876C117.684 4.72717 117.792 4.61702 117.929 4.54553C118.066 4.47405 118.222 4.43831 118.396 4.43831C118.492 4.43831 118.585 4.44827 118.674 4.46819C118.764 4.48694 118.838 4.51096 118.896 4.54026L118.808 4.78459C118.749 4.76116 118.681 4.74006 118.604 4.72131C118.528 4.70256 118.456 4.69319 118.389 4.69319C118.256 4.69319 118.144 4.7219 118.055 4.77932C117.967 4.83674 117.901 4.92112 117.857 5.03245C117.813 5.14377 117.792 5.28088 117.792 5.44377C117.792 5.59963 117.813 5.73264 117.855 5.8428C117.898 5.95295 117.962 6.03733 118.046 6.09592C118.132 6.15334 118.239 6.18206 118.366 6.18206C118.468 6.18206 118.56 6.17151 118.642 6.15042C118.724 6.12815 118.799 6.10237 118.866 6.07307V6.33323C118.801 6.36604 118.729 6.39124 118.649 6.40881C118.571 6.42639 118.477 6.43518 118.368 6.43518ZM119.613 3.66487V5.08518C119.613 5.13206 119.611 5.18948 119.607 5.25745C119.604 5.32424 119.601 5.38342 119.599 5.43499H119.611C119.636 5.40452 119.671 5.3594 119.718 5.29963C119.766 5.23987 119.807 5.19182 119.839 5.15549L120.479 4.47346H120.822L120.047 5.29612L120.878 6.40002H120.527L119.846 5.48772L119.613 5.70217V6.40002H119.323V3.66487H119.613ZM121.956 4.43831C122.12 4.43831 122.261 4.47463 122.378 4.54729C122.495 4.61995 122.585 4.7219 122.647 4.85315C122.709 4.98323 122.74 5.13557 122.74 5.31018V5.49124H121.409C121.413 5.71741 121.469 5.88967 121.578 6.00803C121.687 6.12639 121.84 6.18557 122.038 6.18557C122.16 6.18557 122.268 6.17444 122.362 6.15217C122.456 6.12991 122.553 6.09709 122.654 6.05374V6.31038C122.556 6.35374 122.46 6.38538 122.364 6.4053C122.269 6.42522 122.156 6.43518 122.026 6.43518C121.841 6.43518 121.679 6.39768 121.541 6.32268C121.404 6.24651 121.297 6.13518 121.221 5.9887C121.145 5.84221 121.107 5.66292 121.107 5.45081C121.107 5.24338 121.141 5.06409 121.211 4.91291C121.281 4.76057 121.379 4.64338 121.506 4.56135C121.634 4.47932 121.784 4.43831 121.956 4.43831ZM121.952 4.67737C121.796 4.67737 121.672 4.72834 121.58 4.8303C121.487 4.93225 121.432 5.07463 121.414 5.25745H122.434C122.433 5.1426 122.415 5.04182 122.379 4.9551C122.346 4.86721 122.293 4.79924 122.223 4.7512C122.153 4.70198 122.063 4.67737 121.952 4.67737ZM123.921 6.43518C123.677 6.43518 123.484 6.35198 123.341 6.18557C123.199 6.01917 123.128 5.7719 123.128 5.44377C123.128 5.11213 123.201 4.86194 123.346 4.69319C123.492 4.52327 123.685 4.43831 123.926 4.43831C124.028 4.43831 124.117 4.45178 124.194 4.47874C124.27 4.50569 124.335 4.54202 124.39 4.58772C124.446 4.63225 124.492 4.68323 124.529 4.74065H124.55C124.546 4.70432 124.541 4.65452 124.536 4.59124C124.532 4.52795 124.529 4.47639 124.529 4.43655V3.66487H124.821V6.40002H124.586L124.542 6.12581H124.529C124.493 6.18323 124.447 6.23538 124.39 6.28225C124.335 6.32913 124.269 6.36663 124.192 6.39475C124.116 6.4217 124.025 6.43518 123.921 6.43518ZM123.967 6.1926C124.173 6.1926 124.319 6.13401 124.404 6.01682C124.49 5.89963 124.533 5.72561 124.533 5.49475V5.44202C124.533 5.19709 124.492 5.00901 124.41 4.87776C124.329 4.74651 124.181 4.68088 123.967 4.68088C123.788 4.68088 123.653 4.75002 123.564 4.88831C123.475 5.02541 123.431 5.21291 123.431 5.45081C123.431 5.68752 123.475 5.87034 123.563 5.99924C123.652 6.12815 123.786 6.1926 123.967 6.1926Z" fill="#383B41"/>
<circle cx="132.1" cy="4.90005" r="2.1" fill="#B83A3A"/>
<path d="M137.202 5.71624C137.202 5.86858 137.164 5.99866 137.087 6.10647C137.012 6.21311 136.907 6.29456 136.771 6.35081C136.635 6.40706 136.475 6.43518 136.291 6.43518C136.194 6.43518 136.102 6.43049 136.015 6.42112C135.928 6.41174 135.849 6.39827 135.776 6.38069C135.703 6.36311 135.64 6.34143 135.584 6.31565V6.02913C135.672 6.06545 135.78 6.09944 135.906 6.13108C136.033 6.16155 136.165 6.17678 136.303 6.17678C136.432 6.17678 136.541 6.15979 136.63 6.12581C136.719 6.09065 136.787 6.04084 136.833 5.97639C136.879 5.91077 136.903 5.83225 136.903 5.74084C136.903 5.65295 136.883 5.57971 136.845 5.52112C136.806 5.46135 136.742 5.40745 136.651 5.3594C136.562 5.31018 136.441 5.25803 136.286 5.20295C136.177 5.16428 136.081 5.12209 135.998 5.07639C135.914 5.02952 135.845 4.97678 135.788 4.91819C135.732 4.85959 135.689 4.79163 135.66 4.71428C135.632 4.63694 135.618 4.54846 135.618 4.44885C135.618 4.31174 135.652 4.19456 135.722 4.09729C135.792 3.99885 135.889 3.92385 136.012 3.87229C136.136 3.81956 136.278 3.79319 136.439 3.79319C136.576 3.79319 136.702 3.80608 136.818 3.83186C136.936 3.85764 137.043 3.89221 137.14 3.93557L137.047 4.19221C136.954 4.15354 136.856 4.12131 136.752 4.09553C136.649 4.06975 136.542 4.05686 136.432 4.05686C136.322 4.05686 136.228 4.07327 136.152 4.10608C136.077 4.13772 136.02 4.18284 135.98 4.24143C135.94 4.30002 135.92 4.36975 135.92 4.45061C135.92 4.54084 135.939 4.61584 135.976 4.67561C136.015 4.73538 136.076 4.7887 136.159 4.83557C136.244 4.88127 136.355 4.92932 136.493 4.97971C136.644 5.03479 136.773 5.09338 136.878 5.15549C136.984 5.21643 137.064 5.29143 137.119 5.38049C137.174 5.46838 137.202 5.5803 137.202 5.71624ZM139.274 4.47346V6.40002H139.035L138.993 6.12932H138.977C138.937 6.19612 138.886 6.25237 138.822 6.29807C138.759 6.34377 138.688 6.37776 138.608 6.40002C138.529 6.42346 138.446 6.43518 138.357 6.43518C138.204 6.43518 138.076 6.41057 137.973 6.36135C137.87 6.31213 137.792 6.23596 137.74 6.13284C137.688 6.02971 137.662 5.89729 137.662 5.73557V4.47346H137.958V5.71448C137.958 5.87502 137.994 5.99514 138.067 6.07483C138.139 6.15334 138.25 6.1926 138.399 6.1926C138.542 6.1926 138.655 6.16565 138.74 6.11174C138.825 6.05784 138.887 5.97874 138.924 5.87444C138.962 5.76897 138.981 5.64006 138.981 5.48772V4.47346H139.274ZM140.183 3.66487V4.34866C140.183 4.42717 140.181 4.50334 140.176 4.57717C140.172 4.651 140.169 4.70842 140.167 4.74944H140.183C140.236 4.66272 140.312 4.58948 140.411 4.52971C140.511 4.46995 140.638 4.44006 140.793 4.44006C141.034 4.44006 141.226 4.52385 141.369 4.69143C141.514 4.85784 141.586 5.10569 141.586 5.43499C141.586 5.65178 141.553 5.83459 141.487 5.98342C141.422 6.13225 141.329 6.24475 141.209 6.32092C141.09 6.39709 140.949 6.43518 140.786 6.43518C140.633 6.43518 140.508 6.40706 140.41 6.35081C140.312 6.29338 140.237 6.22366 140.185 6.14163H140.162L140.102 6.40002H139.891V3.66487H140.183ZM140.745 4.6844C140.606 4.6844 140.495 4.71194 140.413 4.76702C140.331 4.82092 140.272 4.90295 140.236 5.01311C140.2 5.12209 140.183 5.26038 140.183 5.42795V5.44377C140.183 5.68635 140.223 5.87209 140.304 6.001C140.385 6.12874 140.532 6.1926 140.745 6.1926C140.925 6.1926 141.059 6.12698 141.148 5.99573C141.238 5.86448 141.283 5.67698 141.283 5.43323C141.283 5.18479 141.239 4.99788 141.15 4.87249C141.062 4.74709 140.927 4.6844 140.745 4.6844ZM144.187 4.43831C144.399 4.43831 144.559 4.49397 144.667 4.6053C144.775 4.71545 144.829 4.89299 144.829 5.13791V6.40002H144.541V5.15198C144.541 4.99612 144.507 4.87952 144.439 4.80217C144.372 4.72366 144.272 4.6844 144.14 4.6844C143.953 4.6844 143.818 4.73831 143.734 4.84612C143.649 4.95393 143.607 5.11272 143.607 5.32249V6.40002H143.317V5.15198C143.317 5.04768 143.302 4.96096 143.271 4.89182C143.242 4.82268 143.198 4.77112 143.138 4.73713C143.079 4.70198 143.005 4.6844 142.915 4.6844C142.787 4.6844 142.684 4.71077 142.607 4.7635C142.53 4.81624 142.473 4.89475 142.438 4.99905C142.404 5.10217 142.387 5.22932 142.387 5.38049V6.40002H142.095V4.47346L142.331 4.47346L142.375 4.74592H142.391C142.429 4.67913 142.478 4.62288 142.537 4.57717C142.595 4.53147 142.661 4.4969 142.733 4.47346C142.806 4.45002 142.883 4.43831 142.966 4.43831C143.112 4.43831 143.234 4.46584 143.333 4.52092C143.433 4.57483 143.505 4.65745 143.549 4.76877H143.565C143.628 4.65745 143.715 4.57483 143.825 4.52092C143.935 4.46584 144.056 4.43831 144.187 4.43831ZM145.72 4.47346V6.40002H145.428V4.47346H145.72ZM145.578 3.75276C145.626 3.75276 145.667 3.76858 145.701 3.80022C145.736 3.83069 145.753 3.87874 145.753 3.94436C145.753 4.00881 145.736 4.05686 145.701 4.0885C145.667 4.12014 145.626 4.13596 145.578 4.13596C145.527 4.13596 145.485 4.12014 145.451 4.0885C145.418 4.05686 145.402 4.00881 145.402 3.94436C145.402 3.87874 145.418 3.83069 145.451 3.80022C145.485 3.76858 145.527 3.75276 145.578 3.75276ZM146.961 6.19612C147.009 6.19612 147.058 6.19202 147.109 6.18381C147.159 6.17561 147.2 6.16565 147.232 6.15393V6.38069C147.198 6.39592 147.15 6.40881 147.089 6.41936C147.03 6.42991 146.971 6.43518 146.914 6.43518C146.812 6.43518 146.719 6.4176 146.636 6.38245C146.553 6.34612 146.486 6.28518 146.435 6.19963C146.386 6.11409 146.362 5.99573 146.362 5.84456V4.70198H146.087V4.55959L146.363 4.44534L146.479 4.02698H146.655V4.47346H147.219V4.70198H146.655V5.83577C146.655 5.95647 146.683 6.0467 146.738 6.10647C146.794 6.16624 146.868 6.19612 146.961 6.19612ZM148.244 6.19612C148.292 6.19612 148.342 6.19202 148.392 6.18381C148.442 6.17561 148.483 6.16565 148.515 6.15393V6.38069C148.481 6.39592 148.433 6.40881 148.373 6.41936C148.313 6.42991 148.254 6.43518 148.197 6.43518C148.095 6.43518 148.002 6.4176 147.919 6.38245C147.836 6.34612 147.769 6.28518 147.719 6.19963C147.669 6.11409 147.645 5.99573 147.645 5.84456V4.70198H147.371V4.55959L147.647 4.44534L147.763 4.02698H147.938V4.47346H148.503V4.70198H147.938V5.83577C147.938 5.95647 147.966 6.0467 148.021 6.10647C148.077 6.16624 148.152 6.19612 148.244 6.19612ZM149.647 4.43831C149.811 4.43831 149.952 4.47463 150.069 4.54729C150.186 4.61995 150.276 4.7219 150.338 4.85315C150.4 4.98323 150.431 5.13557 150.431 5.31018V5.49124H149.1C149.104 5.71741 149.16 5.88967 149.269 6.00803C149.378 6.12639 149.532 6.18557 149.73 6.18557C149.851 6.18557 149.959 6.17444 150.053 6.15217C150.147 6.12991 150.244 6.09709 150.345 6.05374V6.31038C150.248 6.35374 150.151 6.38538 150.055 6.4053C149.96 6.42522 149.847 6.43518 149.717 6.43518C149.532 6.43518 149.37 6.39768 149.232 6.32268C149.095 6.24651 148.988 6.13518 148.912 5.9887C148.836 5.84221 148.798 5.66292 148.798 5.45081C148.798 5.24338 148.833 5.06409 148.902 4.91291C148.972 4.76057 149.07 4.64338 149.197 4.56135C149.325 4.47932 149.475 4.43831 149.647 4.43831ZM149.643 4.67737C149.488 4.67737 149.363 4.72834 149.271 4.8303C149.178 4.93225 149.123 5.07463 149.106 5.25745H150.125C150.124 5.1426 150.106 5.04182 150.071 4.9551C150.037 4.86721 149.984 4.79924 149.914 4.7512C149.844 4.70198 149.754 4.67737 149.643 4.67737ZM151.612 6.43518C151.368 6.43518 151.175 6.35198 151.032 6.18557C150.89 6.01917 150.819 5.7719 150.819 5.44377C150.819 5.11213 150.892 4.86194 151.037 4.69319C151.183 4.52327 151.376 4.43831 151.617 4.43831C151.719 4.43831 151.808 4.45178 151.885 4.47874C151.961 4.50569 152.026 4.54202 152.082 4.58772C152.137 4.63225 152.183 4.68323 152.22 4.74065H152.242C152.237 4.70432 152.232 4.65452 152.227 4.59124C152.223 4.52795 152.22 4.47639 152.22 4.43655V3.66487H152.512V6.40002H152.277L152.233 6.12581H152.22C152.184 6.18323 152.138 6.23538 152.082 6.28225C152.026 6.32913 151.96 6.36663 151.883 6.39475C151.807 6.4217 151.717 6.43518 151.612 6.43518ZM151.658 6.1926C151.864 6.1926 152.01 6.13401 152.096 6.01682C152.181 5.89963 152.224 5.72561 152.224 5.49475V5.44202C152.224 5.19709 152.183 5.00901 152.101 4.87776C152.02 4.74651 151.872 4.68088 151.658 4.68088C151.479 4.68088 151.344 4.75002 151.255 4.88831C151.166 5.02541 151.122 5.21291 151.122 5.45081C151.122 5.68752 151.166 5.87034 151.254 5.99924C151.343 6.12815 151.477 6.1926 151.658 6.1926Z" fill="#383B41"/>
<path d="M99.2816 78.7L98.4186 76.4253H98.4045C98.4092 76.4734 98.4133 76.532 98.4168 76.6011C98.4203 76.6703 98.4232 76.7458 98.4256 76.8279C98.4279 76.9087 98.4291 76.9914 98.4291 77.0757V78.7H98.1514V76.13H98.5943L99.4082 78.2675H99.4205L100.247 76.13H100.686V78.7H100.391V77.0546C100.391 76.9785 100.392 76.9023 100.394 76.8261C100.397 76.7488 100.4 76.6761 100.403 76.6082C100.407 76.539 100.41 76.4792 100.414 76.4289H100.4L99.526 78.7H99.2816ZM103.006 77.7332C103.006 77.8914 102.986 78.0326 102.945 78.1568C102.904 78.281 102.845 78.3859 102.767 78.4714C102.69 78.557 102.596 78.6226 102.486 78.6683C102.377 78.7128 102.254 78.7351 102.115 78.7351C101.986 78.7351 101.868 78.7128 101.76 78.6683C101.654 78.6226 101.561 78.557 101.482 78.4714C101.405 78.3859 101.345 78.281 101.301 78.1568C101.259 78.0326 101.238 77.8914 101.238 77.7332C101.238 77.5222 101.274 77.3429 101.345 77.1953C101.417 77.0464 101.519 76.9333 101.651 76.856C101.785 76.7775 101.944 76.7382 102.128 76.7382C102.303 76.7382 102.457 76.7775 102.588 76.856C102.721 76.9345 102.823 77.0482 102.896 77.197C102.97 77.3447 103.006 77.5234 103.006 77.7332ZM101.54 77.7332C101.54 77.8878 101.561 78.022 101.602 78.1357C101.643 78.2494 101.706 78.3373 101.792 78.3994C101.877 78.4615 101.988 78.4925 102.122 78.4925C102.256 78.4925 102.365 78.4615 102.451 78.3994C102.538 78.3373 102.602 78.2494 102.643 78.1357C102.684 78.022 102.704 77.8878 102.704 77.7332C102.704 77.5796 102.684 77.4472 102.643 77.3359C102.602 77.2234 102.538 77.1367 102.453 77.0757C102.367 77.0148 102.256 76.9843 102.121 76.9843C101.92 76.9843 101.773 77.0505 101.679 77.183C101.587 77.3154 101.54 77.4988 101.54 77.7332ZM104.423 76.7382C104.652 76.7382 104.825 76.7945 104.942 76.907C105.059 77.0183 105.118 77.1976 105.118 77.4449V78.7H104.829V77.4642C104.829 77.3037 104.792 77.1835 104.719 77.1039C104.646 77.0242 104.534 76.9843 104.383 76.9843C104.17 76.9843 104.02 77.0447 103.933 77.1654C103.846 77.2861 103.803 77.4613 103.803 77.691V78.7H103.511V76.7734H103.746L103.79 77.0511H103.806C103.847 76.9832 103.899 76.9263 103.963 76.8806C104.026 76.8337 104.097 76.7986 104.175 76.7751C104.254 76.7505 104.337 76.7382 104.423 76.7382ZM106.341 78.496C106.389 78.496 106.438 78.4919 106.489 78.4837C106.539 78.4755 106.58 78.4656 106.612 78.4539V78.6806C106.578 78.6958 106.53 78.7087 106.469 78.7193C106.41 78.7298 106.351 78.7351 106.294 78.7351C106.192 78.7351 106.099 78.7175 106.016 78.6824C105.933 78.646 105.866 78.5851 105.815 78.4996C105.766 78.414 105.742 78.2957 105.742 78.1445V77.0019H105.467V76.8595L105.743 76.7453L105.859 76.3269H106.035V76.7734H106.599V77.0019H106.035V78.1357C106.035 78.2564 106.063 78.3466 106.118 78.4064C106.174 78.4662 106.248 78.496 106.341 78.496ZM107.294 75.9648V76.7822C107.294 76.8291 107.293 76.8765 107.29 76.9246C107.288 76.9714 107.284 77.0148 107.278 77.0546H107.297C107.337 76.9867 107.388 76.9298 107.448 76.8841C107.511 76.8373 107.581 76.8021 107.659 76.7787C107.738 76.7541 107.821 76.7417 107.909 76.7417C108.064 76.7417 108.193 76.7664 108.296 76.8156C108.4 76.8648 108.478 76.941 108.529 77.0441C108.582 77.1472 108.609 77.2808 108.609 77.4449V78.7H108.32V77.4642C108.32 77.3037 108.283 77.1835 108.21 77.1039C108.137 77.0242 108.025 76.9843 107.874 76.9843C107.731 76.9843 107.617 77.0119 107.531 77.0669C107.447 77.1208 107.386 77.2005 107.348 77.306C107.312 77.4115 107.294 77.5404 107.294 77.6927V78.7H107.002V75.9648H107.294ZM110.184 76.13L109.227 78.7H108.939L109.897 76.13H110.184ZM111.231 77.4185L111.915 76.13H112.237L111.381 77.7033V78.7H111.082V77.7173L110.224 76.13H110.551L111.231 77.4185ZM113.288 76.7382C113.452 76.7382 113.593 76.7746 113.71 76.8472C113.827 76.9199 113.917 77.0218 113.979 77.1531C114.041 77.2832 114.072 77.4355 114.072 77.6101V77.7912H112.741C112.745 78.0173 112.801 78.1896 112.91 78.308C113.019 78.4263 113.172 78.4855 113.371 78.4855C113.492 78.4855 113.6 78.4744 113.694 78.4521C113.788 78.4298 113.885 78.397 113.986 78.3537V78.6103C113.888 78.6537 113.792 78.6853 113.696 78.7052C113.601 78.7251 113.488 78.7351 113.358 78.7351C113.173 78.7351 113.011 78.6976 112.873 78.6226C112.736 78.5464 112.629 78.4351 112.553 78.2886C112.477 78.1421 112.439 77.9628 112.439 77.7507C112.439 77.5433 112.473 77.364 112.543 77.2128C112.613 77.0605 112.711 76.9433 112.838 76.8613C112.966 76.7792 113.116 76.7382 113.288 76.7382ZM113.284 76.9773C113.129 76.9773 113.004 77.0283 112.912 77.1302C112.819 77.2322 112.764 77.3746 112.746 77.5574H113.766C113.765 77.4425 113.747 77.3417 113.712 77.255C113.678 77.1671 113.625 77.0992 113.555 77.0511C113.485 77.0019 113.395 76.9773 113.284 76.9773ZM115.288 76.7417C115.518 76.7417 115.688 76.7933 115.8 76.8964C115.911 76.9996 115.967 77.1642 115.967 77.3904V78.7H115.754L115.698 78.4152H115.684C115.63 78.4855 115.574 78.5447 115.515 78.5927C115.456 78.6396 115.388 78.6753 115.311 78.7C115.235 78.7234 115.141 78.7351 115.03 78.7351C114.913 78.7351 114.808 78.7146 114.717 78.6736C114.627 78.6326 114.555 78.5705 114.503 78.4873C114.451 78.4041 114.425 78.2986 114.425 78.1708C114.425 77.9787 114.501 77.831 114.654 77.7279C114.806 77.6248 115.038 77.5685 115.35 77.5591L115.682 77.5451V77.4273C115.682 77.2609 115.646 77.1443 115.575 77.0775C115.503 77.0107 115.403 76.9773 115.272 76.9773C115.172 76.9773 115.076 76.9919 114.984 77.0212C114.893 77.0505 114.806 77.0851 114.724 77.125L114.634 76.9035C114.721 76.8589 114.821 76.8208 114.933 76.7892C115.046 76.7576 115.164 76.7417 115.288 76.7417ZM115.679 77.7507L115.385 77.763C115.145 77.7724 114.975 77.8117 114.877 77.8808C114.779 77.95 114.729 78.0478 114.729 78.1744C114.729 78.2845 114.763 78.366 114.829 78.4187C114.896 78.4714 114.985 78.4978 115.095 78.4978C115.266 78.4978 115.406 78.4503 115.515 78.3554C115.624 78.2605 115.679 78.1181 115.679 77.9283V77.7507ZM117.443 76.7382C117.482 76.7382 117.522 76.7406 117.565 76.7453C117.607 76.7488 117.644 76.7541 117.677 76.7611L117.64 77.0318C117.609 77.0236 117.573 77.0171 117.535 77.0125C117.496 77.0078 117.46 77.0054 117.426 77.0054C117.348 77.0054 117.275 77.0212 117.206 77.0529C117.138 77.0833 117.078 77.1279 117.027 77.1865C116.975 77.2439 116.935 77.3136 116.905 77.3957C116.876 77.4765 116.862 77.5667 116.862 77.6664V78.7H116.568V76.7734H116.811L116.842 77.1285H116.854C116.894 77.057 116.942 76.9919 116.999 76.9333C117.055 76.8736 117.12 76.8261 117.194 76.791C117.269 76.7558 117.352 76.7382 117.443 76.7382Z" fill="#383B41"/>
<rect x="45" y="58" width="10" height="5" fill="#B83A3A"/>
<path d="M45 47H55V57H45V47Z" fill="#E6A23C"/>
<rect x="45" y="27" width="10" height="19" fill="#00BCD4"/>
<rect x="112" y="54" width="10" height="9" fill="#B83A3A"/>
<rect x="112" y="41" width="10" height="12" fill="#E6A23C"/>
<rect x="112" y="23" width="10" height="17" fill="#00BCD4"/>
<rect x="180" y="60" width="10" height="3" fill="#B83A3A"/>
<rect x="180" y="38" width="10" height="11" fill="#00BCD4"/>
<rect x="180" y="50" width="10" height="9" fill="#E6A23C"/>
</svg>
