<svg width="136" height="83" viewBox="0 0 136 83" fill="none" xmlns="http://www.w3.org/2000/svg">
<rect width="135.831" height="83" transform="translate(0.0844727)" fill="white"/>
<ellipse cx="45.3804" cy="4.18499" rx="1.91118" ry="1.91118" fill="#43A047"/>
<path d="M49.7036 3.05251C49.5745 3.05251 49.4583 3.07491 49.3548 3.1197C49.2525 3.16343 49.165 3.22742 49.0925 3.31168C49.021 3.39486 48.9661 3.49565 48.9277 3.61403C48.8893 3.73241 48.8701 3.86573 48.8701 4.01397C48.8701 4.21021 48.9005 4.38085 48.9613 4.5259C49.0232 4.66987 49.1149 4.78132 49.2365 4.86025C49.3591 4.93917 49.5122 4.97863 49.6956 4.97863C49.8001 4.97863 49.8982 4.9701 49.99 4.95303C50.0827 4.9349 50.1729 4.9125 50.2603 4.88584V5.12261C50.175 5.1546 50.0854 5.17807 49.9916 5.193C49.8977 5.20899 49.7862 5.21699 49.6572 5.21699C49.4194 5.21699 49.2205 5.16793 49.0605 5.06981C48.9016 4.97063 48.7821 4.83092 48.7021 4.65068C48.6232 4.47044 48.5838 4.25767 48.5838 4.01237C48.5838 3.83533 48.6083 3.67375 48.6573 3.52764C48.7075 3.38046 48.78 3.25355 48.8749 3.1469C48.9709 3.04025 49.0882 2.95813 49.2269 2.90054C49.3666 2.84188 49.5266 2.81255 49.7068 2.81255C49.8252 2.81255 49.9393 2.82428 50.0491 2.84774C50.159 2.87121 50.2582 2.9048 50.3467 2.94853L50.2379 3.17889C50.1633 3.14477 50.0811 3.11544 49.9916 3.09091C49.903 3.06531 49.807 3.05251 49.7036 3.05251ZM52.2392 4.30513C52.2392 4.44911 52.2206 4.57762 52.1832 4.69067C52.1459 4.80372 52.092 4.89917 52.0217 4.97703C51.9513 5.05488 51.8659 5.11461 51.7657 5.1562C51.6665 5.19673 51.554 5.21699 51.4281 5.21699C51.3108 5.21699 51.2031 5.19673 51.105 5.1562C51.0079 5.11461 50.9237 5.05488 50.8522 4.97703C50.7818 4.89917 50.7269 4.80372 50.6874 4.69067C50.6491 4.57762 50.6299 4.44911 50.6299 4.30513C50.6299 4.11316 50.6624 3.94998 50.7274 3.8156C50.7925 3.68015 50.8853 3.57724 51.0058 3.50685C51.1274 3.43539 51.2719 3.39966 51.4393 3.39966C51.5993 3.39966 51.739 3.43539 51.8585 3.50685C51.979 3.5783 52.0723 3.68175 52.1384 3.8172C52.2056 3.95158 52.2392 4.11422 52.2392 4.30513ZM50.905 4.30513C50.905 4.44591 50.9237 4.56802 50.961 4.67147C50.9983 4.77492 51.0559 4.85491 51.1338 4.91144C51.2116 4.96796 51.3119 4.99623 51.4345 4.99623C51.5561 4.99623 51.6558 4.96796 51.7337 4.91144C51.8126 4.85491 51.8707 4.77492 51.9081 4.67147C51.9454 4.56802 51.9641 4.44591 51.9641 4.30513C51.9641 4.16542 51.9454 4.0449 51.9081 3.94358C51.8707 3.8412 51.8131 3.76228 51.7353 3.70682C51.6574 3.65136 51.5567 3.62363 51.4329 3.62363C51.2506 3.62363 51.1167 3.68389 51.0314 3.8044C50.9471 3.92492 50.905 4.09183 50.905 4.30513ZM54.6021 3.39966C54.7951 3.39966 54.9407 3.45032 55.0388 3.55164C55.1369 3.65189 55.186 3.81347 55.186 4.03637V5.185H54.9236V4.04917C54.9236 3.90732 54.8927 3.8012 54.8308 3.73081C54.77 3.65936 54.6794 3.62363 54.5589 3.62363C54.3893 3.62363 54.2661 3.67269 54.1893 3.77081C54.1125 3.86893 54.0741 4.01344 54.0741 4.20434V5.185H53.8102V4.04917C53.8102 3.95425 53.7963 3.87532 53.7686 3.8124C53.7419 3.74948 53.7014 3.70255 53.647 3.67162C53.5937 3.63963 53.526 3.62363 53.4438 3.62363C53.3276 3.62363 53.2343 3.64763 53.1639 3.69562C53.0935 3.74361 53.0423 3.81507 53.0103 3.90999C52.9794 4.00384 52.9639 4.11956 52.9639 4.25714V5.185H52.6983V3.43166H52.9127L52.9527 3.67962H52.9671C53.0023 3.61883 53.0466 3.56764 53.0999 3.52604C53.1532 3.48445 53.2129 3.45299 53.2791 3.43166C53.3452 3.41033 53.4156 3.39966 53.4902 3.39966C53.6235 3.39966 53.735 3.42473 53.8246 3.47485C53.9152 3.52391 53.9808 3.5991 54.0214 3.70042H54.0358C54.0933 3.5991 54.1723 3.52391 54.2725 3.47485C54.3728 3.42473 54.4826 3.39966 54.6021 3.39966ZM56.5554 3.39966C56.774 3.39966 56.9484 3.47485 57.0785 3.62523C57.2086 3.77561 57.2737 4.00171 57.2737 4.30353C57.2737 4.50297 57.2438 4.67041 57.1841 4.80585C57.1244 4.9413 57.0401 5.04369 56.9313 5.11301C56.8236 5.18233 56.6962 5.21699 56.549 5.21699C56.4562 5.21699 56.3746 5.20473 56.3042 5.1802C56.2338 5.15567 56.1736 5.12261 56.1234 5.08101C56.0733 5.03942 56.0317 4.99409 55.9987 4.94503H55.9795C55.9827 4.98663 55.9864 5.03675 55.9907 5.09541C55.996 5.15407 55.9987 5.20526 55.9987 5.24899V5.96888H55.7315V3.43166H55.9507L55.9859 3.69082H55.9987C56.0328 3.63749 56.0744 3.58897 56.1234 3.54524C56.1725 3.50045 56.2322 3.46525 56.3026 3.43966C56.3741 3.41299 56.4583 3.39966 56.5554 3.39966ZM56.509 3.62363C56.3874 3.62363 56.2893 3.64709 56.2146 3.69402C56.141 3.74094 56.0872 3.81133 56.0531 3.90519C56.0189 3.99797 56.0008 4.11476 55.9987 4.25554V4.30673C55.9987 4.45497 56.0147 4.58029 56.0467 4.68267C56.0797 4.78506 56.1336 4.86291 56.2082 4.91624C56.284 4.96956 56.3853 4.99623 56.5122 4.99623C56.621 4.99623 56.7116 4.9669 56.7841 4.90824C56.8567 4.84958 56.9105 4.76799 56.9457 4.66347C56.982 4.55789 57.0001 4.43684 57.0001 4.30033C57.0001 4.09343 56.9596 3.92918 56.8785 3.8076C56.7985 3.68495 56.6754 3.62363 56.509 3.62363ZM58.0048 5.185H57.7376V2.69577H58.0048V5.185ZM59.2414 3.39966C59.3907 3.39966 59.5187 3.43272 59.6253 3.49885C59.732 3.56497 59.8136 3.65776 59.8701 3.77721C59.9266 3.89559 59.9549 4.03423 59.9549 4.19314V4.35792H58.7439C58.7471 4.56376 58.7982 4.72053 58.8974 4.82825C58.9966 4.93597 59.1363 4.98983 59.3166 4.98983C59.4275 4.98983 59.5256 4.97969 59.6109 4.95943C59.6962 4.93917 59.7848 4.90931 59.8765 4.86984V5.10341C59.788 5.14287 59.7 5.17167 59.6125 5.1898C59.5261 5.20793 59.4238 5.21699 59.3054 5.21699C59.1369 5.21699 58.9897 5.18286 58.8638 5.11461C58.7391 5.04528 58.642 4.94397 58.5727 4.81065C58.5034 4.67734 58.4687 4.51416 58.4687 4.32113C58.4687 4.13235 58.5002 3.96918 58.5631 3.8316C58.6271 3.69295 58.7167 3.5863 58.8318 3.51165C58.9481 3.43699 59.0846 3.39966 59.2414 3.39966ZM59.2382 3.61723C59.0963 3.61723 58.9833 3.66362 58.899 3.75641C58.8148 3.8492 58.7647 3.97878 58.7487 4.14515H59.6765C59.6754 4.04063 59.6589 3.94891 59.6269 3.86999C59.596 3.79 59.5485 3.72815 59.4845 3.68442C59.4206 3.63963 59.3384 3.61723 59.2382 3.61723ZM60.9723 4.99943C61.0161 4.99943 61.0608 4.99569 61.1067 4.98823C61.1526 4.98076 61.1899 4.9717 61.2187 4.96103V5.1674C61.1878 5.18126 61.1446 5.193 61.0891 5.20259C61.0347 5.21219 60.9814 5.21699 60.9291 5.21699C60.8363 5.21699 60.7521 5.201 60.6764 5.169C60.6006 5.13594 60.5399 5.08048 60.494 5.00262C60.4492 4.92477 60.4268 4.81705 60.4268 4.67947V3.63963H60.1772V3.51005L60.4284 3.40606L60.534 3.02532H60.694V3.43166H61.2075V3.63963H60.694V4.67147C60.694 4.78132 60.719 4.86345 60.7692 4.91784C60.8203 4.97223 60.8881 4.99943 60.9723 4.99943ZM62.2489 3.39966C62.3982 3.39966 62.5262 3.43272 62.6329 3.49885C62.7395 3.56497 62.8211 3.65776 62.8776 3.77721C62.9342 3.89559 62.9624 4.03423 62.9624 4.19314V4.35792H61.7514C61.7546 4.56376 61.8058 4.72053 61.905 4.82825C62.0042 4.93597 62.1439 4.98983 62.3241 4.98983C62.435 4.98983 62.5332 4.97969 62.6185 4.95943C62.7038 4.93917 62.7923 4.90931 62.884 4.86984V5.10341C62.7955 5.14287 62.7075 5.17167 62.6201 5.1898C62.5337 5.20793 62.4313 5.21699 62.3129 5.21699C62.1444 5.21699 61.9972 5.18286 61.8714 5.11461C61.7466 5.04528 61.6496 4.94397 61.5802 4.81065C61.5109 4.67734 61.4762 4.51416 61.4762 4.32113C61.4762 4.13235 61.5077 3.96918 61.5706 3.8316C61.6346 3.69295 61.7242 3.5863 61.8394 3.51165C61.9556 3.43699 62.0922 3.39966 62.2489 3.39966ZM62.2457 3.61723C62.1039 3.61723 61.9908 3.66362 61.9066 3.75641C61.8223 3.8492 61.7722 3.97878 61.7562 4.14515H62.6841C62.683 4.04063 62.6665 3.94891 62.6345 3.86999C62.6035 3.79 62.5561 3.72815 62.4921 3.68442C62.4281 3.63963 62.346 3.61723 62.2457 3.61723ZM64.0375 5.21699C63.8156 5.21699 63.6397 5.14127 63.5095 4.98983C63.3805 4.83838 63.316 4.61335 63.316 4.31473C63.316 4.0129 63.3821 3.7852 63.5143 3.63163C63.6466 3.47698 63.8226 3.39966 64.0423 3.39966C64.1351 3.39966 64.2161 3.41193 64.2854 3.43646C64.3548 3.46099 64.4145 3.49405 64.4646 3.53564C64.5147 3.57617 64.5569 3.62256 64.591 3.67482H64.6102C64.6059 3.64176 64.6017 3.59643 64.5974 3.53884C64.5931 3.48125 64.591 3.43432 64.591 3.39806V2.69577H64.8565V5.185H64.6422L64.6022 4.93543H64.591C64.5579 4.98769 64.5158 5.03515 64.4646 5.07781C64.4145 5.12047 64.3542 5.1546 64.2838 5.1802C64.2145 5.20473 64.1324 5.21699 64.0375 5.21699ZM64.0791 4.99623C64.2668 4.99623 64.3995 4.9429 64.4774 4.83625C64.5553 4.7296 64.5942 4.57122 64.5942 4.36112V4.31313C64.5942 4.09023 64.5569 3.91905 64.4822 3.7996C64.4086 3.68015 64.2742 3.62043 64.0791 3.62043C63.9159 3.62043 63.7938 3.68335 63.7127 3.8092C63.6317 3.93398 63.5911 4.10462 63.5911 4.32113C63.5911 4.53656 63.6311 4.70294 63.7111 4.82025C63.7922 4.93757 63.9148 4.99623 64.0791 4.99623Z" fill="#383B41"/>
<ellipse cx="71.6631" cy="4.18499" rx="1.91118" ry="1.91118" fill="#E6A23C"/>
<path d="M74.9865 5.185V2.84614H75.2584V5.185H74.9865ZM76.6918 3.39966C76.8998 3.39966 77.0571 3.45085 77.1637 3.55324C77.2704 3.65456 77.3237 3.81773 77.3237 4.04277V5.185H77.0613V4.06036C77.0613 3.91425 77.0278 3.80494 76.9606 3.73241C76.8944 3.65989 76.7926 3.62363 76.655 3.62363C76.4609 3.62363 76.3244 3.67855 76.2455 3.7884C76.1665 3.89825 76.1271 4.0577 76.1271 4.26673V5.185H75.8615V3.43166H76.0759L76.1159 3.68442H76.1303C76.1676 3.62256 76.2151 3.57084 76.2727 3.52924C76.3303 3.48658 76.3948 3.45459 76.4662 3.43326C76.5377 3.41086 76.6129 3.39966 76.6918 3.39966ZM78.5731 5.21699C78.4153 5.21699 78.2761 5.18446 78.1556 5.11941C78.0351 5.05435 77.9412 4.95516 77.874 4.82185C77.8068 4.68854 77.7732 4.52056 77.7732 4.31793C77.7732 4.10569 77.8084 3.93238 77.8788 3.798C77.9503 3.66256 78.0484 3.5623 78.1732 3.49725C78.298 3.43219 78.4398 3.39966 78.5987 3.39966C78.6862 3.39966 78.7704 3.40873 78.8515 3.42686C78.9336 3.44392 79.0008 3.46579 79.0531 3.49245L78.9731 3.71482C78.9197 3.69349 78.8579 3.67429 78.7875 3.65722C78.7182 3.64016 78.6531 3.63163 78.5923 3.63163C78.4707 3.63163 78.3694 3.65776 78.2884 3.71002C78.2084 3.76228 78.1481 3.83906 78.1076 3.94038C78.0681 4.0417 78.0484 4.16648 78.0484 4.31473C78.0484 4.45657 78.0676 4.57762 78.106 4.67787C78.1455 4.77812 78.2036 4.85491 78.2804 4.90824C78.3582 4.9605 78.4553 4.98663 78.5715 4.98663C78.6643 4.98663 78.748 4.97703 78.8227 4.95783C78.8973 4.93757 78.9651 4.9141 79.0259 4.88744V5.12421C78.9672 5.15407 78.9016 5.177 78.8291 5.193C78.7576 5.20899 78.6723 5.21699 78.5731 5.21699ZM80.9536 4.30513C80.9536 4.44911 80.9349 4.57762 80.8976 4.69067C80.8603 4.80372 80.8064 4.89917 80.736 4.97703C80.6656 5.05488 80.5803 5.11461 80.48 5.1562C80.3809 5.19673 80.2683 5.21699 80.1425 5.21699C80.0252 5.21699 79.9175 5.19673 79.8193 5.1562C79.7223 5.11461 79.638 5.05488 79.5666 4.97703C79.4962 4.89917 79.4413 4.80372 79.4018 4.69067C79.3634 4.57762 79.3442 4.44911 79.3442 4.30513C79.3442 4.11316 79.3767 3.94998 79.4418 3.8156C79.5069 3.68015 79.5996 3.57724 79.7202 3.50685C79.8417 3.43539 79.9862 3.39966 80.1537 3.39966C80.3137 3.39966 80.4534 3.43539 80.5728 3.50685C80.6933 3.5783 80.7867 3.68175 80.8528 3.8172C80.92 3.95158 80.9536 4.11422 80.9536 4.30513ZM79.6194 4.30513C79.6194 4.44591 79.638 4.56802 79.6754 4.67147C79.7127 4.77492 79.7703 4.85491 79.8481 4.91144C79.926 4.96796 80.0262 4.99623 80.1489 4.99623C80.2705 4.99623 80.3702 4.96796 80.448 4.91144C80.527 4.85491 80.5851 4.77492 80.6224 4.67147C80.6597 4.56802 80.6784 4.44591 80.6784 4.30513C80.6784 4.16542 80.6597 4.0449 80.6224 3.94358C80.5851 3.8412 80.5275 3.76228 80.4496 3.70682C80.3718 3.65136 80.271 3.62363 80.1473 3.62363C79.9649 3.62363 79.8311 3.68389 79.7458 3.8044C79.6615 3.92492 79.6194 4.09183 79.6194 4.30513ZM83.3164 3.39966C83.5095 3.39966 83.655 3.45032 83.7532 3.55164C83.8513 3.65189 83.9003 3.81347 83.9003 4.03637V5.185H83.638V4.04917C83.638 3.90732 83.607 3.8012 83.5452 3.73081C83.4844 3.65936 83.3937 3.62363 83.2732 3.62363C83.1037 3.62363 82.9805 3.67269 82.9037 3.77081C82.8269 3.86893 82.7885 4.01344 82.7885 4.20434V5.185H82.5245V4.04917C82.5245 3.95425 82.5107 3.87532 82.4829 3.8124C82.4563 3.74948 82.4158 3.70255 82.3614 3.67162C82.308 3.63963 82.2403 3.62363 82.1582 3.62363C82.0419 3.62363 81.9486 3.64763 81.8782 3.69562C81.8078 3.74361 81.7567 3.81507 81.7247 3.90999C81.6937 4.00384 81.6783 4.11956 81.6783 4.25714V5.185L81.4127 5.185V3.43166H81.6271L81.6671 3.67962H81.6815C81.7167 3.61883 81.7609 3.56764 81.8142 3.52604C81.8676 3.48445 81.9273 3.45299 81.9934 3.43166C82.0595 3.41033 82.1299 3.39966 82.2046 3.39966C82.3379 3.39966 82.4494 3.42473 82.5389 3.47485C82.6296 3.52391 82.6952 3.5991 82.7357 3.70042H82.7501C82.8077 3.5991 82.8866 3.52391 82.9869 3.47485C83.0871 3.42473 83.197 3.39966 83.3164 3.39966ZM85.2697 3.39966C85.4884 3.39966 85.6627 3.47485 85.7929 3.62523C85.923 3.77561 85.988 4.00171 85.988 4.30353C85.988 4.50297 85.9582 4.67041 85.8984 4.80585C85.8387 4.9413 85.7545 5.04369 85.6457 5.11301C85.538 5.18233 85.4105 5.21699 85.2633 5.21699C85.1705 5.21699 85.089 5.20473 85.0186 5.1802C84.9482 5.15567 84.8879 5.12261 84.8378 5.08101C84.7877 5.03942 84.7461 4.99409 84.713 4.94503H84.6938C84.697 4.98663 84.7008 5.03675 84.705 5.09541C84.7103 5.15407 84.713 5.20526 84.713 5.24899V5.96888H84.4459V3.43166H84.665L84.7002 3.69082H84.713C84.7471 3.63749 84.7887 3.58897 84.8378 3.54524C84.8869 3.50045 84.9466 3.46525 85.017 3.43966C85.0884 3.41299 85.1727 3.39966 85.2697 3.39966ZM85.2233 3.62363C85.1018 3.62363 85.0036 3.64709 84.929 3.69402C84.8554 3.74094 84.8015 3.81133 84.7674 3.90519C84.7333 3.99797 84.7151 4.11476 84.713 4.25554V4.30673C84.713 4.45497 84.729 4.58029 84.761 4.68267C84.7941 4.78506 84.8479 4.86291 84.9226 4.91624C84.9983 4.96956 85.0996 4.99623 85.2265 4.99623C85.3353 4.99623 85.426 4.9669 85.4985 4.90824C85.571 4.84958 85.6249 4.76799 85.6601 4.66347C85.6963 4.55789 85.7145 4.43684 85.7145 4.30033C85.7145 4.09343 85.6739 3.92918 85.5929 3.8076C85.5129 3.68495 85.3897 3.62363 85.2233 3.62363ZM86.7191 5.185H86.452V2.69577H86.7191V5.185ZM87.9557 3.39966C88.105 3.39966 88.233 3.43272 88.3397 3.49885C88.4463 3.56497 88.5279 3.65776 88.5844 3.77721C88.641 3.89559 88.6692 4.03423 88.6692 4.19314V4.35792H87.4582C87.4614 4.56376 87.5126 4.72053 87.6118 4.82825C87.711 4.93597 87.8507 4.98983 88.0309 4.98983C88.1418 4.98983 88.24 4.97969 88.3253 4.95943C88.4106 4.93917 88.4991 4.90931 88.5908 4.86984V5.10341C88.5023 5.14287 88.4143 5.17167 88.3269 5.1898C88.2405 5.20793 88.1381 5.21699 88.0197 5.21699C87.8512 5.21699 87.704 5.18286 87.5782 5.11461C87.4534 5.04528 87.3564 4.94397 87.287 4.81065C87.2177 4.67734 87.183 4.51416 87.183 4.32113C87.183 4.13235 87.2145 3.96918 87.2774 3.8316C87.3414 3.69295 87.431 3.5863 87.5462 3.51165C87.6624 3.43699 87.799 3.39966 87.9557 3.39966ZM87.9525 3.61723C87.8107 3.61723 87.6976 3.66362 87.6134 3.75641C87.5291 3.8492 87.479 3.97878 87.463 4.14515H88.3909C88.3898 4.04063 88.3733 3.94891 88.3413 3.86999C88.3103 3.79 88.2629 3.72815 88.1989 3.68442C88.1349 3.63963 88.0528 3.61723 87.9525 3.61723ZM89.6867 4.99943C89.7304 4.99943 89.7752 4.99569 89.8211 4.98823C89.8669 4.98076 89.9042 4.9717 89.933 4.96103V5.1674C89.9021 5.18126 89.8589 5.193 89.8035 5.20259C89.7491 5.21219 89.6957 5.21699 89.6435 5.21699C89.5507 5.21699 89.4664 5.201 89.3907 5.169C89.315 5.13594 89.2542 5.08048 89.2083 5.00262C89.1636 4.92477 89.1412 4.81705 89.1412 4.67947V3.63963H88.8916V3.51005L89.1428 3.40606L89.2483 3.02532H89.4083V3.43166H89.9218V3.63963H89.4083V4.67147C89.4083 4.78132 89.4334 4.86345 89.4835 4.91784C89.5347 4.97223 89.6024 4.99943 89.6867 4.99943ZM90.9633 3.39966C91.1126 3.39966 91.2406 3.43272 91.3472 3.49885C91.4539 3.56497 91.5355 3.65776 91.592 3.77721C91.6485 3.89559 91.6768 4.03423 91.6768 4.19314V4.35792H90.4658C90.469 4.56376 90.5202 4.72053 90.6193 4.82825C90.7185 4.93597 90.8582 4.98983 91.0385 4.98983C91.1494 4.98983 91.2475 4.97969 91.3328 4.95943C91.4182 4.93917 91.5067 4.90931 91.5984 4.86984V5.10341C91.5099 5.14287 91.4219 5.17167 91.3344 5.1898C91.248 5.20793 91.1457 5.21699 91.0273 5.21699C90.8588 5.21699 90.7116 5.18286 90.5857 5.11461C90.461 5.04528 90.3639 4.94397 90.2946 4.81065C90.2253 4.67734 90.1906 4.51416 90.1906 4.32113C90.1906 4.13235 90.2221 3.96918 90.285 3.8316C90.349 3.69295 90.4386 3.5863 90.5537 3.51165C90.67 3.43699 90.8065 3.39966 90.9633 3.39966ZM90.9601 3.61723C90.8182 3.61723 90.7052 3.66362 90.6209 3.75641C90.5367 3.8492 90.4866 3.97878 90.4706 4.14515H91.3984C91.3974 4.04063 91.3808 3.94891 91.3488 3.86999C91.3179 3.79 91.2704 3.72815 91.2065 3.68442C91.1425 3.63963 91.0603 3.61723 90.9601 3.61723Z" fill="#383B41"/>
<path d="M100.284 45.8685C100.284 52.6294 97.8712 59.1684 93.4804 64.3094C89.0896 69.4505 83.0084 72.8561 76.3308 73.9137C69.6532 74.9713 62.8173 73.6116 57.0527 70.079C51.2881 66.5465 46.9731 61.073 44.8839 54.643C42.7947 48.213 43.0683 41.2486 45.6556 35.0024C48.2428 28.7561 52.9739 23.638 58.9979 20.5687C65.0219 17.4993 71.9434 16.6801 78.5175 18.2584C85.0915 19.8367 90.8867 23.7089 94.8607 29.1785L86.8205 35.02C84.2375 31.4648 80.4706 28.9478 76.1975 27.9219C71.9243 26.896 67.4253 27.4285 63.5098 29.4236C59.5942 31.4187 56.5189 34.7455 54.8372 38.8055C53.1555 42.8656 52.9776 47.3925 54.3356 51.5719C55.6936 55.7514 58.4984 59.3092 62.2453 61.6054C65.9923 63.9015 70.4357 64.7854 74.7761 64.0979C79.1166 63.4104 83.0693 61.1968 85.9234 57.8551C88.7774 54.5135 90.3454 50.2631 90.3454 45.8685H100.284Z" fill="#E6A23C"/>
<path d="M27.9881 15.1978H26.4555V14.9754L27.081 14.3403C27.1973 14.223 27.2949 14.1185 27.3738 14.0268C27.4538 13.9351 27.5146 13.8449 27.5562 13.7564C27.5978 13.6668 27.6185 13.5687 27.6185 13.4621C27.6185 13.3298 27.5791 13.229 27.5002 13.1597C27.4223 13.0893 27.3194 13.0541 27.1914 13.0541C27.0794 13.0541 26.9802 13.0733 26.8939 13.1117C26.8075 13.1501 26.7189 13.2045 26.6283 13.2749L26.4859 13.0957C26.5478 13.0435 26.615 12.9971 26.6875 12.9565C26.7611 12.916 26.8395 12.884 26.9227 12.8606C27.0069 12.8371 27.0965 12.8254 27.1914 12.8254C27.3354 12.8254 27.4596 12.8504 27.5642 12.9006C27.6687 12.9507 27.7492 13.0221 27.8057 13.1149C27.8633 13.2077 27.8921 13.3181 27.8921 13.4461C27.8921 13.5698 27.8676 13.685 27.8185 13.7916C27.7695 13.8972 27.7007 14.0023 27.6121 14.1068C27.5236 14.2102 27.4202 14.3201 27.3018 14.4363L26.7931 14.9435V14.9547H27.9881V15.1978ZM28.7528 14.8171L28.7736 14.8539C28.7544 14.9317 28.7299 15.0149 28.7 15.1034C28.6712 15.1919 28.6392 15.2805 28.604 15.369C28.5699 15.4586 28.5352 15.5423 28.5 15.6202H28.3016C28.324 15.5348 28.3459 15.4447 28.3672 15.3498C28.3886 15.2559 28.4078 15.1632 28.4248 15.0714C28.443 14.9786 28.4574 14.8939 28.468 14.8171H28.7528ZM30.7109 15.1978H29.1783V14.9754L29.8038 14.3403C29.9201 14.223 30.0177 14.1185 30.0966 14.0268C30.1766 13.9351 30.2374 13.8449 30.279 13.7564C30.3205 13.6668 30.3413 13.5687 30.3413 13.4621C30.3413 13.3298 30.3019 13.229 30.223 13.1597C30.1451 13.0893 30.0422 13.0541 29.9142 13.0541C29.8022 13.0541 29.703 13.0733 29.6167 13.1117C29.5303 13.1501 29.4417 13.2045 29.3511 13.2749L29.2087 13.0957C29.2706 13.0435 29.3378 12.9971 29.4103 12.9565C29.4839 12.916 29.5623 12.884 29.6454 12.8606C29.7297 12.8371 29.8193 12.8254 29.9142 12.8254C30.0582 12.8254 30.1824 12.8504 30.287 12.9006C30.3915 12.9507 30.472 13.0221 30.5285 13.1149C30.5861 13.2077 30.6149 13.3181 30.6149 13.4461C30.6149 13.5698 30.5904 13.685 30.5413 13.7916C30.4923 13.8972 30.4235 14.0023 30.3349 14.1068C30.2464 14.2102 30.143 14.3201 30.0246 14.4363L29.5159 14.9435V14.9547H30.7109V15.1978ZM31.7923 13.7676C31.9512 13.7676 32.0894 13.7948 32.2067 13.8492C32.324 13.9025 32.4146 13.9804 32.4786 14.0828C32.5437 14.1852 32.5762 14.3094 32.5762 14.4555C32.5762 14.6155 32.5416 14.7536 32.4722 14.8699C32.4029 14.985 32.3032 15.0741 32.1731 15.137C32.043 15.1989 31.8872 15.2298 31.7059 15.2298C31.5844 15.2298 31.4713 15.2191 31.3668 15.1978C31.2623 15.1765 31.1743 15.1445 31.1028 15.1018V14.8491C31.1807 14.896 31.2751 14.9333 31.386 14.9611C31.4969 14.9888 31.6046 15.0026 31.7091 15.0026C31.8275 15.0026 31.931 14.984 32.0195 14.9467C32.1091 14.9083 32.1784 14.8507 32.2275 14.7739C32.2776 14.696 32.3027 14.5984 32.3027 14.4811C32.3027 14.3254 32.2547 14.2054 32.1587 14.1212C32.0638 14.0359 31.9134 13.9932 31.7075 13.9932C31.6414 13.9932 31.5689 13.9985 31.49 14.0092C31.4111 14.0199 31.346 14.0316 31.2948 14.0444L31.1604 13.9564L31.25 12.859L32.413 12.859V13.1021L31.4772 13.1021L31.418 13.8076C31.4585 13.7991 31.5108 13.7906 31.5748 13.782C31.6388 13.7724 31.7113 13.7676 31.7923 13.7676ZM33.9376 12.859H34.5999C34.8921 12.859 35.1118 12.9027 35.259 12.9901C35.4062 13.0776 35.4798 13.2264 35.4798 13.4365C35.4798 13.5271 35.4622 13.6087 35.427 13.6812C35.3929 13.7527 35.3427 13.8119 35.2766 13.8588C35.2105 13.9057 35.1289 13.9383 35.0319 13.9564V13.9724C35.1342 13.9884 35.2249 14.0177 35.3038 14.0604C35.3827 14.103 35.4446 14.1628 35.4894 14.2396C35.5342 14.3163 35.5566 14.4139 35.5566 14.5323C35.5566 14.6763 35.523 14.7979 35.4558 14.8971C35.3897 14.9962 35.2958 15.0714 35.1742 15.1226C35.0526 15.1728 34.9087 15.1978 34.7423 15.1978H33.9376V12.859ZM34.2096 13.862H34.6575C34.8612 13.862 35.002 13.8284 35.0798 13.7612C35.1588 13.694 35.1982 13.5959 35.1982 13.4669C35.1982 13.3336 35.1513 13.2376 35.0574 13.1789C34.9647 13.1203 34.8164 13.0909 34.6127 13.0909H34.2096V13.862ZM34.2096 14.0908V14.9658H34.6959C34.9039 14.9658 35.051 14.9253 35.1374 14.8443C35.2238 14.7621 35.267 14.6518 35.267 14.5131C35.267 14.4246 35.2473 14.3489 35.2078 14.286C35.1694 14.223 35.1065 14.175 35.0191 14.142C34.9327 14.1078 34.8169 14.0908 34.6719 14.0908H34.2096ZM36.718 14.3003C36.718 14.1201 36.7351 13.9447 36.7692 13.774C36.8044 13.6034 36.8577 13.4407 36.9292 13.2861C37.0006 13.1315 37.0907 12.9891 37.1995 12.859H37.4539C37.2992 13.0616 37.183 13.2866 37.1051 13.5341C37.0273 13.7815 36.9884 14.0359 36.9884 14.2971C36.9884 14.4678 37.0054 14.6363 37.0396 14.8027C37.0747 14.968 37.1265 15.1274 37.1947 15.281C37.2641 15.4346 37.3494 15.5796 37.4507 15.7161H37.1995C37.0907 15.5882 37.0006 15.4484 36.9292 15.297C36.8577 15.1466 36.8044 14.9872 36.7692 14.8187C36.7351 14.6502 36.718 14.4774 36.718 14.3003ZM37.7386 14.198C37.7386 14.0572 37.7482 13.9196 37.7674 13.7852C37.7877 13.6508 37.8213 13.5261 37.8682 13.4109C37.9152 13.2946 37.9791 13.1928 38.0602 13.1053C38.1413 13.0179 38.242 12.9496 38.3626 12.9006C38.4841 12.8504 38.6297 12.8254 38.7993 12.8254C38.8473 12.8254 38.899 12.828 38.9545 12.8334C39.0099 12.8376 39.0558 12.8451 39.092 12.8558V13.0845C39.0526 13.0707 39.0073 13.0605 38.9561 13.0541C38.9059 13.0477 38.8553 13.0445 38.8041 13.0445C38.6057 13.0445 38.4495 13.0877 38.3354 13.1741C38.2223 13.2605 38.1407 13.3778 38.0906 13.5261C38.0405 13.6732 38.0117 13.8391 38.0042 14.0236H38.0218C38.0549 13.9703 38.097 13.9223 38.1482 13.8796C38.1994 13.8359 38.2612 13.8012 38.3338 13.7756C38.4074 13.75 38.4927 13.7372 38.5897 13.7372C38.7262 13.7372 38.8452 13.765 38.9465 13.8204C39.0489 13.8759 39.1278 13.9564 39.1832 14.062C39.2398 14.1676 39.268 14.2955 39.268 14.4459C39.268 14.607 39.2382 14.7461 39.1784 14.8635C39.1187 14.9808 39.0334 15.0714 38.9225 15.1354C38.8126 15.1983 38.6814 15.2298 38.5289 15.2298C38.4148 15.2298 38.3098 15.2079 38.2138 15.1642C38.1178 15.1205 38.0341 15.0554 37.9626 14.969C37.8922 14.8827 37.8373 14.7755 37.7978 14.6475C37.7584 14.5184 37.7386 14.3686 37.7386 14.198ZM38.5257 15.0058C38.6708 15.0058 38.787 14.9595 38.8745 14.8667C38.9619 14.7739 39.0057 14.6336 39.0057 14.4459C39.0057 14.2923 38.9667 14.1708 38.8889 14.0812C38.811 13.9916 38.6937 13.9468 38.5369 13.9468C38.4303 13.9468 38.3375 13.9692 38.2586 14.014C38.1797 14.0577 38.1183 14.1132 38.0746 14.1804C38.0309 14.2476 38.009 14.3158 38.009 14.3851C38.009 14.4555 38.0191 14.527 38.0394 14.5995C38.0607 14.672 38.0927 14.7392 38.1354 14.8011C38.1781 14.8629 38.2319 14.9125 38.297 14.9499C38.362 14.9872 38.4383 15.0058 38.5257 15.0058ZM40.0119 14.8171L40.0327 14.8539C40.0135 14.9317 39.989 15.0149 39.9591 15.1034C39.9303 15.1919 39.8983 15.2805 39.8631 15.369C39.829 15.4586 39.7943 15.5423 39.7591 15.6202H39.5608C39.5832 15.5348 39.605 15.4447 39.6264 15.3498C39.6477 15.2559 39.6669 15.1632 39.684 15.0714C39.7021 14.9786 39.7165 14.8939 39.7272 14.8171H40.0119ZM41.2101 12.8254C41.3456 12.8254 41.4656 12.8467 41.5701 12.8894C41.6746 12.932 41.7562 12.9949 41.8148 13.0781C41.8746 13.1603 41.9044 13.2616 41.9044 13.3821C41.9044 13.477 41.8836 13.5602 41.842 13.6316C41.8015 13.702 41.7466 13.7639 41.6773 13.8172C41.6079 13.8695 41.5312 13.9164 41.4469 13.958C41.5472 14.0039 41.6373 14.0556 41.7173 14.1132C41.7983 14.1708 41.8623 14.2385 41.9092 14.3163C41.9562 14.3942 41.9796 14.4865 41.9796 14.5931C41.9796 14.7243 41.9476 14.8379 41.8836 14.9339C41.8207 15.0288 41.7322 15.1018 41.6181 15.153C41.504 15.2042 41.3701 15.2298 41.2165 15.2298C41.0512 15.2298 40.9104 15.2053 40.7942 15.1562C40.679 15.1061 40.591 15.0346 40.5302 14.9419C40.4705 14.848 40.4406 14.7355 40.4406 14.6043C40.4406 14.4966 40.4636 14.4033 40.5094 14.3243C40.5553 14.2444 40.6161 14.1756 40.6918 14.118C40.7675 14.0604 40.8502 14.0119 40.9398 13.9724C40.8619 13.9297 40.7905 13.8812 40.7254 13.8268C40.6614 13.7724 40.6102 13.709 40.5718 13.6364C40.5345 13.5629 40.5158 13.4775 40.5158 13.3805C40.5158 13.2621 40.5457 13.1618 40.6054 13.0797C40.6662 12.9965 40.7489 12.9336 40.8534 12.891C40.959 12.8472 41.0779 12.8254 41.2101 12.8254ZM40.7014 14.6059C40.7014 14.7254 40.7435 14.824 40.8278 14.9019C40.912 14.9786 41.0395 15.017 41.2101 15.017C41.3722 15.017 41.4976 14.9786 41.5861 14.9019C41.6746 14.824 41.7189 14.7222 41.7189 14.5963C41.7189 14.5184 41.6986 14.4502 41.6581 14.3915C41.6175 14.3318 41.5599 14.2785 41.4853 14.2316C41.4106 14.1846 41.3227 14.142 41.2213 14.1036L41.1637 14.0828C41.0656 14.1233 40.9819 14.1686 40.9126 14.2188C40.8443 14.2678 40.7921 14.3238 40.7558 14.3867C40.7195 14.4497 40.7014 14.5227 40.7014 14.6059ZM41.2069 13.0429C41.0811 13.0429 40.9782 13.0733 40.8982 13.1341C40.8182 13.1938 40.7782 13.2802 40.7782 13.3933C40.7782 13.4743 40.7974 13.5431 40.8358 13.5997C40.8753 13.6551 40.9286 13.7031 40.9958 13.7436C41.063 13.7831 41.1381 13.8199 41.2213 13.854C41.3024 13.8199 41.3744 13.7826 41.4373 13.742C41.5002 13.7004 41.5498 13.6514 41.5861 13.5949C41.6223 13.5383 41.6405 13.4706 41.6405 13.3917C41.6405 13.2786 41.6005 13.1922 41.5205 13.1325C41.4416 13.0728 41.337 13.0429 41.2069 13.0429ZM43.9617 14.6555H43.6114V15.1978H43.3522V14.6555H42.2212V14.4315L43.3346 12.8462H43.6114V14.4155H43.9617V14.6555ZM43.3522 14.4155V13.6508C43.3522 13.5922 43.3528 13.5394 43.3538 13.4925C43.3549 13.4445 43.3565 13.4002 43.3586 13.3597C43.3607 13.3181 43.3623 13.2786 43.3634 13.2413C43.3655 13.204 43.3671 13.1672 43.3682 13.1309H43.3554C43.3352 13.1736 43.3117 13.2189 43.285 13.2669C43.2594 13.3138 43.2333 13.356 43.2066 13.3933L42.4851 14.4155H43.3522ZM44.664 12.8254C44.824 12.8254 44.945 12.8894 45.0272 13.0173C45.1104 13.1443 45.1519 13.324 45.1519 13.5565C45.1519 13.789 45.112 13.9703 45.032 14.1004C44.952 14.2294 44.8293 14.2939 44.664 14.2939C44.5104 14.2939 44.3926 14.2294 44.3105 14.1004C44.2294 13.9703 44.1889 13.789 44.1889 13.5565C44.1889 13.324 44.2278 13.1443 44.3057 13.0173C44.3835 12.8894 44.503 12.8254 44.664 12.8254ZM44.664 13.0157C44.5776 13.0157 44.5142 13.0611 44.4737 13.1517C44.4331 13.2413 44.4129 13.3762 44.4129 13.5565C44.4129 13.7367 44.4331 13.8727 44.4737 13.9644C44.5142 14.0561 44.5776 14.102 44.664 14.102C44.7536 14.102 44.8203 14.0561 44.864 13.9644C44.9077 13.8727 44.9296 13.7367 44.9296 13.5565C44.9296 13.3773 44.9077 13.2424 44.864 13.1517C44.8213 13.0611 44.7547 13.0157 44.664 13.0157ZM46.1454 12.859L44.848 15.1978H44.6144L45.9118 12.859H46.1454ZM46.083 13.7628C46.2419 13.7628 46.363 13.8268 46.4462 13.9548C46.5293 14.0817 46.5709 14.2614 46.5709 14.4939C46.5709 14.7254 46.5309 14.9061 46.451 15.0362C46.371 15.1653 46.2483 15.2298 46.083 15.2298C45.9284 15.2298 45.8105 15.1653 45.7295 15.0362C45.6484 14.9061 45.6079 14.7254 45.6079 14.4939C45.6079 14.2614 45.6463 14.0817 45.7231 13.9548C45.8009 13.8268 45.9209 13.7628 46.083 13.7628ZM46.083 13.9548C45.9966 13.9548 45.9332 13.9996 45.8926 14.0892C45.8521 14.1788 45.8318 14.3137 45.8318 14.4939C45.8318 14.6742 45.8521 14.8101 45.8926 14.9019C45.9332 14.9925 45.9966 15.0378 46.083 15.0378C46.1726 15.0378 46.2393 14.993 46.283 14.9035C46.3267 14.8128 46.3486 14.6763 46.3486 14.4939C46.3486 14.3147 46.3267 14.1804 46.283 14.0908C46.2403 14.0001 46.1737 13.9548 46.083 13.9548ZM47.5708 14.2971C47.5708 14.4753 47.5532 14.6491 47.518 14.8187C47.4839 14.9872 47.4311 15.1472 47.3596 15.2986C47.2892 15.45 47.1991 15.5892 47.0893 15.7161H46.8381C46.9405 15.5807 47.0258 15.4356 47.0941 15.281C47.1634 15.1264 47.2151 14.9664 47.2492 14.8011C47.2844 14.6347 47.302 14.4662 47.302 14.2955C47.302 14.1217 47.2844 13.9505 47.2492 13.782C47.214 13.6135 47.1618 13.4514 47.0925 13.2957C47.0242 13.14 46.9384 12.9944 46.8349 12.859H47.0893C47.1991 12.9901 47.2892 13.1331 47.3596 13.2877C47.4311 13.4413 47.4839 13.6034 47.518 13.774C47.5532 13.9436 47.5708 14.118 47.5708 14.2971Z" fill="#383B41"/>
<path d="M49.3862 14.1978H54.8468L58.1231 17.4741" stroke="#E0E0E0" stroke-width="0.546053"/>
<path d="M94.8232 77.5396H89.3627L86.0864 74.2633" stroke="#E0E0E0" stroke-width="0.546053"/>
<path d="M97.6097 78.5397H96.0771V78.3173L96.7026 77.6822C96.8189 77.5649 96.9164 77.4604 96.9954 77.3686C97.0754 77.2769 97.1361 77.1868 97.1777 77.0983C97.2193 77.0087 97.2401 76.9106 97.2401 76.8039C97.2401 76.6717 97.2007 76.5709 97.1217 76.5016C97.0439 76.4312 96.941 76.396 96.813 76.396C96.701 76.396 96.6018 76.4152 96.5154 76.4536C96.4291 76.492 96.3405 76.5464 96.2499 76.6168L96.1075 76.4376C96.1694 76.3853 96.2365 76.3389 96.3091 76.2984C96.3827 76.2579 96.461 76.2259 96.5442 76.2024C96.6285 76.179 96.7181 76.1672 96.813 76.1672C96.957 76.1672 97.0812 76.1923 97.1857 76.2424C97.2903 76.2925 97.3708 76.364 97.4273 76.4568C97.4849 76.5496 97.5137 76.66 97.5137 76.7879C97.5137 76.9116 97.4892 77.0268 97.4401 77.1335C97.391 77.2391 97.3223 77.3441 97.2337 77.4486C97.1452 77.5521 97.0418 77.6619 96.9234 77.7782L96.4147 78.2853V78.2965H97.6097V78.5397ZM98.3744 78.1589L98.3952 78.1957C98.376 78.2736 98.3514 78.3568 98.3216 78.4453C98.2928 78.5338 98.2608 78.6223 98.2256 78.7108C98.1915 78.8004 98.1568 78.8842 98.1216 78.962H97.9232C97.9456 78.8767 97.9675 78.7866 97.9888 78.6917C98.0102 78.5978 98.0293 78.505 98.0464 78.4133C98.0645 78.3205 98.0789 78.2357 98.0896 78.1589H98.3744ZM100.332 78.5397H98.7999V78.3173L99.4254 77.6822C99.5417 77.5649 99.6392 77.4604 99.7182 77.3686C99.7982 77.2769 99.8589 77.1868 99.9005 77.0983C99.9421 77.0087 99.9629 76.9106 99.9629 76.8039C99.9629 76.6717 99.9235 76.5709 99.8445 76.5016C99.7667 76.4312 99.6638 76.396 99.5358 76.396C99.4238 76.396 99.3246 76.4152 99.2382 76.4536C99.1518 76.492 99.0633 76.5464 98.9727 76.6168L98.8303 76.4376C98.8922 76.3853 98.9593 76.3389 99.0319 76.2984C99.1055 76.2579 99.1838 76.2259 99.267 76.2024C99.3513 76.179 99.4409 76.1672 99.5358 76.1672C99.6798 76.1672 99.804 76.1923 99.9085 76.2424C100.013 76.2925 100.094 76.364 100.15 76.4568C100.208 76.5496 100.236 76.66 100.236 76.7879C100.236 76.9116 100.212 77.0268 100.163 77.1335C100.114 77.2391 100.045 77.3441 99.9565 77.4486C99.868 77.5521 99.7646 77.6619 99.6462 77.7782L99.1374 78.2853V78.2965H100.332V78.5397ZM101.414 77.1095C101.573 77.1095 101.711 77.1367 101.828 77.1911C101.946 77.2444 102.036 77.3223 102.1 77.4246C102.165 77.527 102.198 77.6513 102.198 77.7974C102.198 77.9574 102.163 78.0955 102.094 78.2117C102.024 78.3269 101.925 78.416 101.795 78.4789C101.665 78.5407 101.509 78.5717 101.328 78.5717C101.206 78.5717 101.093 78.561 100.988 78.5397C100.884 78.5183 100.796 78.4863 100.724 78.4437V78.1909C100.802 78.2379 100.897 78.2752 101.008 78.3029C101.118 78.3306 101.226 78.3445 101.331 78.3445C101.449 78.3445 101.553 78.3258 101.641 78.2885C101.731 78.2501 101.8 78.1925 101.849 78.1157C101.899 78.0379 101.924 77.9403 101.924 77.823C101.924 77.6673 101.876 77.5473 101.78 77.463C101.685 77.3777 101.535 77.3351 101.329 77.3351C101.263 77.3351 101.19 77.3404 101.112 77.351C101.033 77.3617 100.968 77.3734 100.916 77.3862L100.782 77.2983L100.872 76.2008H102.035V76.444H101.099L101.04 77.1495C101.08 77.1409 101.132 77.1324 101.196 77.1239C101.26 77.1143 101.333 77.1095 101.414 77.1095ZM103.559 76.2008H104.221C104.514 76.2008 104.733 76.2445 104.881 76.332C105.028 76.4195 105.101 76.5682 105.101 76.7783C105.101 76.869 105.084 76.9506 105.049 77.0231C105.014 77.0946 104.964 77.1537 104.898 77.2007C104.832 77.2476 104.75 77.2801 104.653 77.2983V77.3143C104.756 77.3303 104.846 77.3596 104.925 77.4022C105.004 77.4449 105.066 77.5046 105.111 77.5814C105.156 77.6582 105.178 77.7558 105.178 77.8742C105.178 78.0182 105.145 78.1397 105.077 78.2389C105.011 78.3381 104.917 78.4133 104.796 78.4645C104.674 78.5146 104.53 78.5397 104.364 78.5397H103.559V76.2008ZM103.831 77.2039H104.279C104.483 77.2039 104.624 77.1703 104.701 77.1031C104.78 77.0359 104.82 76.9378 104.82 76.8087C104.82 76.6754 104.773 76.5794 104.679 76.5208C104.586 76.4621 104.438 76.4328 104.234 76.4328H103.831V77.2039ZM103.831 77.4326V78.3077H104.317C104.525 78.3077 104.673 78.2672 104.759 78.1861C104.845 78.104 104.889 77.9936 104.889 77.855C104.889 77.7665 104.869 77.6907 104.829 77.6278C104.791 77.5649 104.728 77.5169 104.641 77.4838C104.554 77.4497 104.439 77.4326 104.293 77.4326H103.831ZM106.34 77.6422C106.34 77.462 106.357 77.2865 106.391 77.1159C106.426 76.9452 106.479 76.7826 106.551 76.628C106.622 76.4733 106.712 76.3309 106.821 76.2008H107.075C106.921 76.4035 106.805 76.6285 106.727 76.8759C106.649 77.1233 106.61 77.3777 106.61 77.639C106.61 77.8096 106.627 77.9782 106.661 78.1445C106.696 78.3098 106.748 78.4693 106.816 78.6229C106.886 78.7764 106.971 78.9215 107.072 79.058H106.821C106.712 78.93 106.622 78.7903 106.551 78.6389C106.479 78.4885 106.426 78.329 106.391 78.1605C106.357 77.992 106.34 77.8192 106.34 77.6422ZM107.36 77.5398C107.36 77.399 107.37 77.2615 107.389 77.1271C107.409 76.9927 107.443 76.8679 107.49 76.7527C107.537 76.6365 107.601 76.5346 107.682 76.4472C107.763 76.3597 107.864 76.2915 107.984 76.2424C108.106 76.1923 108.251 76.1672 108.421 76.1672C108.469 76.1672 108.521 76.1699 108.576 76.1752C108.632 76.1795 108.677 76.187 108.714 76.1976V76.4264C108.674 76.4125 108.629 76.4024 108.578 76.396C108.528 76.3896 108.477 76.3864 108.426 76.3864C108.227 76.3864 108.071 76.4296 107.957 76.516C107.844 76.6024 107.762 76.7197 107.712 76.8679C107.662 77.0151 107.633 77.1809 107.626 77.3654H107.643C107.676 77.3121 107.719 77.2641 107.77 77.2215C107.821 77.1777 107.883 77.1431 107.955 77.1175C108.029 77.0919 108.114 77.0791 108.211 77.0791C108.348 77.0791 108.467 77.1068 108.568 77.1623C108.67 77.2177 108.749 77.2983 108.805 77.4038C108.861 77.5094 108.89 77.6374 108.89 77.7878C108.89 77.9488 108.86 78.088 108.8 78.2053C108.74 78.3226 108.655 78.4133 108.544 78.4773C108.434 78.5402 108.303 78.5717 108.151 78.5717C108.036 78.5717 107.931 78.5498 107.835 78.5061C107.739 78.4624 107.656 78.3973 107.584 78.3109C107.514 78.2245 107.459 78.1173 107.419 77.9894C107.38 77.8603 107.36 77.7105 107.36 77.5398ZM108.147 78.3477C108.292 78.3477 108.409 78.3013 108.496 78.2085C108.584 78.1157 108.627 77.9755 108.627 77.7878C108.627 77.6342 108.588 77.5126 108.51 77.423C108.433 77.3335 108.315 77.2887 108.159 77.2887C108.052 77.2887 107.959 77.3111 107.88 77.3558C107.801 77.3996 107.74 77.455 107.696 77.5222C107.652 77.5894 107.631 77.6577 107.631 77.727C107.631 77.7974 107.641 77.8688 107.661 77.9414C107.682 78.0139 107.714 78.0811 107.757 78.1429C107.8 78.2048 107.853 78.2544 107.919 78.2917C107.984 78.329 108.06 78.3477 108.147 78.3477ZM109.633 78.1589L109.654 78.1957C109.635 78.2736 109.611 78.3568 109.581 78.4453C109.552 78.5338 109.52 78.6223 109.485 78.7108C109.451 78.8004 109.416 78.8842 109.381 78.962H109.182C109.205 78.8767 109.227 78.7866 109.248 78.6917C109.269 78.5978 109.288 78.505 109.306 78.4133C109.324 78.3205 109.338 78.2357 109.349 78.1589H109.633ZM110.832 76.1672C110.967 76.1672 111.087 76.1886 111.192 76.2312C111.296 76.2739 111.378 76.3368 111.436 76.42C111.496 76.5021 111.526 76.6034 111.526 76.7239C111.526 76.8189 111.505 76.902 111.464 76.9735C111.423 77.0439 111.368 77.1058 111.299 77.1591C111.23 77.2113 111.153 77.2583 111.068 77.2999C111.169 77.3457 111.259 77.3974 111.339 77.455C111.42 77.5126 111.484 77.5803 111.531 77.6582C111.578 77.7361 111.601 77.8283 111.601 77.935C111.601 78.0661 111.569 78.1797 111.505 78.2757C111.442 78.3706 111.354 78.4437 111.24 78.4949C111.126 78.5461 110.992 78.5717 110.838 78.5717C110.673 78.5717 110.532 78.5471 110.416 78.4981C110.301 78.448 110.213 78.3765 110.152 78.2837C110.092 78.1899 110.062 78.0773 110.062 77.9462C110.062 77.8384 110.085 77.7451 110.131 77.6662C110.177 77.5862 110.238 77.5174 110.313 77.4598C110.389 77.4022 110.472 77.3537 110.561 77.3143C110.484 77.2716 110.412 77.2231 110.347 77.1687C110.283 77.1143 110.232 77.0508 110.193 76.9783C110.156 76.9047 110.137 76.8194 110.137 76.7223C110.137 76.604 110.167 76.5037 110.227 76.4216C110.288 76.3384 110.37 76.2755 110.475 76.2328C110.581 76.1891 110.699 76.1672 110.832 76.1672ZM110.323 77.9478C110.323 78.0672 110.365 78.1659 110.449 78.2437C110.534 78.3205 110.661 78.3589 110.832 78.3589C110.994 78.3589 111.119 78.3205 111.208 78.2437C111.296 78.1659 111.34 78.064 111.34 77.9382C111.34 77.8603 111.32 77.7921 111.28 77.7334C111.239 77.6737 111.182 77.6203 111.107 77.5734C111.032 77.5265 110.944 77.4838 110.843 77.4454L110.785 77.4246C110.687 77.4652 110.603 77.5105 110.534 77.5606C110.466 77.6097 110.414 77.6657 110.377 77.7286C110.341 77.7915 110.323 77.8646 110.323 77.9478ZM110.829 76.3848C110.703 76.3848 110.6 76.4152 110.52 76.476C110.44 76.5357 110.4 76.6221 110.4 76.7351C110.4 76.8162 110.419 76.885 110.457 76.9415C110.497 76.997 110.55 77.045 110.617 77.0855C110.685 77.1249 110.76 77.1617 110.843 77.1959C110.924 77.1617 110.996 77.1244 111.059 77.0839C111.122 77.0423 111.171 76.9932 111.208 76.9367C111.244 76.8802 111.262 76.8125 111.262 76.7335C111.262 76.6205 111.222 76.5341 111.142 76.4744C111.063 76.4147 110.959 76.3848 110.829 76.3848ZM113.583 77.9974H113.233V78.5397H112.974V77.9974H111.843V77.7734L112.956 76.188H113.233V77.7574H113.583V77.9974ZM112.974 77.7574V76.9927C112.974 76.934 112.974 76.8813 112.975 76.8343C112.976 76.7863 112.978 76.7421 112.98 76.7015C112.982 76.66 112.984 76.6205 112.985 76.5832C112.987 76.5458 112.989 76.509 112.99 76.4728H112.977C112.957 76.5154 112.933 76.5608 112.907 76.6088C112.881 76.6557 112.855 76.6978 112.828 76.7351L112.107 77.7574H112.974ZM114.286 76.1672C114.446 76.1672 114.567 76.2312 114.649 76.3592C114.732 76.4861 114.774 76.6658 114.774 76.8983C114.774 77.1308 114.734 77.3121 114.654 77.4422C114.574 77.5713 114.451 77.6358 114.286 77.6358C114.132 77.6358 114.014 77.5713 113.932 77.4422C113.851 77.3121 113.81 77.1308 113.81 76.8983C113.81 76.6658 113.849 76.4861 113.927 76.3592C114.005 76.2312 114.125 76.1672 114.286 76.1672ZM114.286 76.3576C114.199 76.3576 114.136 76.4029 114.095 76.4936C114.055 76.5832 114.034 76.7181 114.034 76.8983C114.034 77.0786 114.055 77.2145 114.095 77.3063C114.136 77.398 114.199 77.4438 114.286 77.4438C114.375 77.4438 114.442 77.398 114.486 77.3063C114.529 77.2145 114.551 77.0786 114.551 76.8983C114.551 76.7191 114.529 76.5842 114.486 76.4936C114.443 76.4029 114.376 76.3576 114.286 76.3576ZM115.767 76.2008L114.47 78.5397H114.236L115.533 76.2008H115.767ZM115.705 77.1047C115.864 77.1047 115.985 77.1687 116.068 77.2967C116.151 77.4236 116.193 77.6033 116.193 77.8358C116.193 78.0672 116.153 78.248 116.073 78.3781C115.993 78.5071 115.87 78.5717 115.705 78.5717C115.55 78.5717 115.432 78.5071 115.351 78.3781C115.27 78.248 115.229 78.0672 115.229 77.8358C115.229 77.6033 115.268 77.4236 115.345 77.2967C115.423 77.1687 115.542 77.1047 115.705 77.1047ZM115.705 77.2967C115.618 77.2967 115.555 77.3415 115.514 77.431C115.474 77.5206 115.453 77.6555 115.453 77.8358C115.453 78.016 115.474 78.152 115.514 78.2437C115.555 78.3344 115.618 78.3797 115.705 78.3797C115.794 78.3797 115.861 78.3349 115.905 78.2453C115.948 78.1547 115.97 78.0182 115.97 77.8358C115.97 77.6566 115.948 77.5222 115.905 77.4326C115.862 77.342 115.795 77.2967 115.705 77.2967ZM117.192 77.639C117.192 77.8171 117.175 77.991 117.14 78.1605C117.105 78.329 117.053 78.489 116.981 78.6405C116.911 78.7919 116.821 78.9311 116.711 79.058H116.46C116.562 78.9225 116.647 78.7775 116.716 78.6229C116.785 78.4682 116.837 78.3082 116.871 78.1429C116.906 77.9766 116.924 77.808 116.924 77.6374C116.924 77.4636 116.906 77.2924 116.871 77.1239C116.836 76.9554 116.783 76.7933 116.714 76.6376C116.646 76.4818 116.56 76.3363 116.456 76.2008H116.711C116.821 76.332 116.911 76.4749 116.981 76.6296C117.053 76.7831 117.105 76.9452 117.14 77.1159C117.175 77.2855 117.192 77.4598 117.192 77.639Z" fill="#383B41"/>
<path d="M71.8889 17.4738C78.6497 17.4738 85.1888 19.8862 90.3298 24.277C95.4708 28.6679 98.8764 34.749 99.934 41.4266C100.992 48.1043 99.6319 54.9402 96.0994 60.7048C92.5668 66.4693 87.0933 70.7843 80.6633 72.8735C74.2333 74.9628 67.2689 74.6891 61.0227 72.1019C54.7764 69.5146 49.6583 64.7835 46.589 58.7595C43.5196 52.7355 42.7004 45.814 44.2787 39.2399C45.857 32.6658 49.7292 26.8707 55.1989 22.8967L61.0404 30.9369C57.4851 33.5199 54.9681 37.2868 53.9423 41.5599C52.9164 45.8331 53.4488 50.3321 55.4439 54.2477C57.439 58.1632 60.7658 61.2385 64.8258 62.9202C68.8859 64.6019 73.4128 64.7798 77.5923 63.4218C81.7717 62.0638 85.3295 59.2591 87.6257 55.5121C89.9218 51.7651 90.8057 47.3218 90.1182 42.9813C89.4308 38.6408 87.2171 34.6881 83.8755 31.8341C80.5338 28.98 76.2834 27.412 71.8889 27.412V17.4738Z" fill="#43A047"/>
</svg>
