<svg xmlns="http://www.w3.org/2000/svg" xmlns:xlink="http://www.w3.org/1999/xlink" width="16" height="16" viewBox="0 0 16 16">
    <defs>
        <path id="a" d="M7 2.667V0H.333v12h13.334V2.667H7zm-4 8H1.667V9.333H3v1.334zM3 8H1.667V6.667H3V8zm0-2.667H1.667V4H3v1.333zm0-2.666H1.667V1.333H3v1.334zm2.667 8H4.333V9.333h1.334v1.334zm0-2.667H4.333V6.667h1.334V8zm0-2.667H4.333V4h1.334v1.333zm0-2.666H4.333V1.333h1.334v1.334zm6.666 8H7V9.333h1.333V8H7V6.667h1.333V5.333H7V4h5.333v6.667zM11 5.333H9.667v1.334H11V5.333zM11 8H9.667v1.333H11V8z"/>
    </defs>
    <g fill="none" fill-rule="evenodd" transform="translate(1 2)">
        <mask id="b" fill="#fff">
            <use xlink:href="#a"/>
        </mask>
        <g fill="#757575" mask="url(#b)">
            <path d="M-9.667-10.667h33.333v33.333H-9.667z"/>
        </g>
    </g>
</svg>
