<svg xmlns="http://www.w3.org/2000/svg" xmlns:xlink="http://www.w3.org/1999/xlink" width="16" height="16" viewBox="0 0 16 16">
    <defs>
        <path id="a" d="M10.667 4.333a1.992 1.992 0 0 0 1.993-2 1.997 1.997 0 0 0-3.993 0c0 1.107.893 2 2 2zm-5.334 0a1.992 1.992 0 0 0 1.994-2 1.997 1.997 0 0 0-3.993 0c0 1.107.893 2 2 2zm0 1.334C3.78 5.667.667 6.447.667 8v1.667H10V8c0-1.553-3.113-2.333-4.667-2.333zm5.334 0c-.194 0-.414.013-.647.033.773.56 1.313 1.313 1.313 2.3v1.667h4V8c0-1.553-3.113-2.333-4.666-2.333z"/>
    </defs>
    <g fill="none" fill-rule="evenodd" transform="translate(0 3)">
        <mask id="b" fill="#fff">
            <use xlink:href="#a"/>
        </mask>
        <g fill="#757575" mask="url(#b)">
            <path d="M-8.667-11.667h33.333v33.333H-8.667z"/>
        </g>
    </g>
</svg>
