<svg width="64" height="64" viewBox="0 0 64 64" fill="none" xmlns="http://www.w3.org/2000/svg">
<path opacity="0.8" d="M64 64H8C3.58172 64 0 60.4183 0 56V8C0 3.58172 3.58172 0 8 0H64V64ZM37.6162 40.7832L34.167 37.3164L31.833 39.667L37.6162 45.5L48.5 34.5166L46.167 32.167L37.6162 40.7832ZM29.333 34.667C21.9667 34.6671 16.0004 37.6499 16 41.333V44.667H32.667L27.667 39.667L32.4834 34.8496L29.333 34.667ZM29.333 18C27.5651 18.0001 25.8693 18.7021 24.6191 19.9521C23.3689 21.2024 22.667 22.8989 22.667 24.667C22.6671 26.435 23.369 28.1307 24.6191 29.3809C25.8693 30.631 27.565 31.3329 29.333 31.333C31.1011 31.333 32.7976 30.6311 34.0479 29.3809C35.2979 28.1307 35.9999 26.4349 36 24.667C36 22.8989 35.2981 21.2024 34.0479 19.9521C32.7976 18.7019 31.1011 18 29.333 18Z" fill="#43A047"/>
</svg>
