<svg width="64" height="64" viewBox="0 0 64 64" fill="none" xmlns="http://www.w3.org/2000/svg">
<g opacity="0.8">
<path d="M64 64H8C3.58172 64 0 60.4183 0 56V8C0 3.58172 3.58172 0 8 0H64V64ZM36.5664 35.667C32.1164 35.6671 23.2338 37.8833 23.2334 42.333V45.667H49.9004V42.333C49.9 37.8832 41.0163 35.667 36.5664 35.667ZM19.9004 28.3164L16.3662 24.7666L14 27.1338L17.5498 30.667L14 34.2002L16.3662 36.5664L19.9004 33.0166L23.4336 36.5664L25.7998 34.2002L22.25 30.667L25.7998 27.1338L23.4336 24.7666L19.9004 28.3164ZM36.5664 19C34.7985 19.0001 33.1027 19.7021 31.8525 20.9521C30.6023 22.2024 29.9004 23.8989 29.9004 25.667C29.9005 27.435 30.6024 29.1307 31.8525 30.3809C33.1027 31.631 34.7984 32.3329 36.5664 32.333C38.3344 32.333 40.0301 31.6309 41.2803 30.3809C42.5304 29.1307 43.2333 27.435 43.2334 25.667C43.2334 23.8989 42.5305 22.2024 41.2803 20.9521C40.0301 19.7022 38.3343 19 36.5664 19Z" fill="#F56C6C"/>
</g>
</svg>
