<svg width="64" height="64" viewBox="0 0 64 64" fill="none" xmlns="http://www.w3.org/2000/svg">
<g opacity="0.8">
<path d="M64 64H8C3.58172 64 0 60.4183 0 56V8C0 3.58172 3.58172 0 8 0H64V64ZM40.833 32C36.6665 32.0002 33.333 35.3334 33.333 39.5C33.333 43.6666 36.6665 46.9998 40.833 47C44.9997 47 48.333 43.6667 48.333 39.5C48.333 35.3333 44.9997 32 40.833 32ZM43.333 43.7998C42.633 44.2497 41.7663 44.5 40.833 44.5C38.0665 44.4998 35.833 42.2666 35.833 39.5C35.833 38.5667 36.0832 37.7 36.5332 37L43.333 43.7998ZM28.333 33.667C20.9667 33.6671 15.0004 36.6499 15 40.333V43.667H30.833C30.2829 42.3467 30 40.9303 30 39.5C30.0071 37.524 30.5545 35.5876 31.583 33.9004C30.5331 33.7671 29.4662 33.667 28.333 33.667ZM40.833 34.5C43.5997 34.5 45.833 36.7333 45.833 39.5C45.833 40.4332 45.5837 41.3 45.1338 42L38.333 35.2002C39.0329 34.7502 39.8998 34.5001 40.833 34.5ZM28.333 17C26.5651 17.0001 24.8693 17.7021 23.6191 18.9521C22.3689 20.2024 21.667 21.8989 21.667 23.667C21.6671 25.435 22.369 27.1307 23.6191 28.3809C24.8693 29.631 26.565 30.3329 28.333 30.333C30.1011 30.333 31.7976 29.6311 33.0479 28.3809C34.2979 27.1307 34.9999 25.4349 35 23.667C35 21.8989 34.2981 20.2024 33.0479 18.9521C31.7976 17.7019 30.1011 17 28.333 17Z" fill="#E6A23C"/>
</g>
</svg>
