<svg width="64" height="64" viewBox="0 0 64 64" fill="none" xmlns="http://www.w3.org/2000/svg">
<g opacity="0.8">
<path d="M64 64H8C3.58172 64 0 60.4183 0 56V8C0 3.58172 3.58172 0 8 0H64V64ZM22 18.333H20.333C18.4998 18.3332 17 19.8338 17 21.667V45C17 46.8499 18.4998 48.3328 20.333 48.333H43.667C45.5168 48.3328 47 46.8499 47 45V21.667C47 19.8338 45.5168 18.3332 43.667 18.333H42V15H38.667V18.333H25.333V15H22V18.333ZM43.667 45H20.333V26.667H43.667V45ZM32 37.7168C27.8333 37.7168 24.5 39.3835 24.5 41.4668V43.333L39.5 43.5V41.4668C39.5 39.3835 36.1667 37.7168 32 37.7168ZM32 28.333C29.9168 28.333 28.2502 29.9998 28.25 32.083C28.25 35.4163 32.2837 37.1001 34.6504 34.7334C37.0002 32.3667 35.3333 28.333 32 28.333Z" fill="#00BCD4"/>
</g>
</svg>
